<svg width="450" height="512" viewBox="0 0 450 512" fill="none" xmlns="http://www.w3.org/2000/svg">
<path d="M385.143 221.917C393.091 223.478 396.129 229.545 397.96 236.383C405.981 266.34 413.937 296.315 421.767 326.322C427.638 348.82 433.314 371.369 439.011 393.912C442.556 407.942 446.372 421.92 449.332 436.075C451.73 447.544 445.805 455.726 434.026 455.942C420.702 456.187 407.371 455.999 392.802 455.999C395.146 457.362 396.812 457.915 397.865 459.041C399.458 460.744 401.565 462.797 401.67 464.796C401.752 466.359 399.415 469.007 397.656 469.545C389.599 472.008 381.472 474.565 373.178 475.866C350.12 479.484 326.827 477.697 303.627 477.94C298.998 477.989 294.361 477.226 289.644 477.566C294.322 480.346 299.072 483.012 303.661 485.932C312.08 491.288 312.021 498.545 302.826 502.265C294.927 505.46 286.306 506.899 277.968 508.969C274.243 509.894 270.43 510.464 266.842 511.597C244.34 512 221.652 512 198.496 512C196.792 511.333 195.621 510.284 194.31 510.058C182.454 508.017 170.571 506.095 159.604 500.794C157.873 499.957 156.28 498.664 154.905 497.298C152.061 494.472 152.406 491.23 155.883 489.165C158.465 487.631 161.325 486.565 163.809 485.408C155.375 484.951 146.606 484.291 137.826 484.039C117.788 483.462 98.0428 480.82 78.6674 475.735C74.301 474.59 70.1602 472.442 66.0592 470.458C58.8555 466.974 58.3907 462.854 65.1718 457.074C57.2571 457.074 50.0796 457.087 42.9022 457.071C32.0594 457.047 21.2017 457.325 10.3804 456.825C5.33565 456.592 0.901583 450.075 0.0514278 443.499C-0.476753 439.414 3.15527 432.909 6.73088 430.673C13.1359 426.668 20.1887 428.404 27.9377 427.987C93.9562 427.682 159.041 427.283 224.126 427.105C286.07 426.935 348.014 426.996 409.958 426.956C412.056 426.955 414.154 426.956 417.446 426.956C415.991 423.612 414.98 421.289 413.969 418.967C411.827 409.985 409.816 400.97 407.519 392.029C399.393 360.396 391.198 328.781 382.969 297.175C378.971 281.82 374.839 266.501 370.989 251.999C358.344 251.999 346.268 251.867 334.196 252.032C319.443 252.233 304.694 252.683 289.092 252.996C283.838 252.961 279.433 252.956 274.566 252.875C263.44 253.013 252.777 253.227 241.68 253.362C233.17 253.57 225.093 253.856 217.016 254.143C215.315 254.429 213.613 254.716 211.241 254.721C208.593 254.295 206.614 254.169 204.638 253.998C197.077 253.343 191.616 247.879 191.107 240.478C190.615 233.312 195.556 227.076 203.09 225.733C206.339 225.153 209.686 225.123 213.373 224.897C214.528 224.906 215.299 224.86 216.533 224.873C232.381 224.612 247.767 224.304 263.152 223.94C264.072 223.918 264.981 223.437 265.895 223.17C274.597 223.11 283.299 223.05 292.937 222.996C307.848 222.693 321.821 222.265 335.798 222.107C352.245 221.921 368.695 221.969 385.143 221.917ZM377.934 235.778C380.25 235.817 382.585 236.04 384.873 235.803C385.764 235.711 386.548 234.585 387.381 233.931C386.761 233.256 386.22 232.1 385.508 231.983C380.808 231.212 376.08 230.564 371.337 230.151C370.61 230.088 369.529 231.327 369.089 232.203C368.931 232.517 370.058 233.912 370.816 234.166C372.84 234.844 374.981 235.171 377.934 235.778ZM19.7381 450.477C20.5137 449.208 21.9318 447.9 21.8566 446.684C21.799 445.752 19.9357 444.358 18.7345 444.192C16.346 443.863 13.7952 443.94 11.4433 444.453C10.3395 444.694 9.09421 446.218 8.7864 447.39C8.62376 448.009 10.2095 449.668 11.2252 449.901C13.7332 450.476 16.3678 450.499 19.7381 450.477ZM439.915 444.131C440.669 440.903 441.568 437.698 442.082 434.432C442.223 433.536 441.369 432.312 440.651 431.535C440.357 431.217 439.045 431.442 438.486 431.834C436.194 433.44 434.758 444.834 436.781 448.139C437.812 446.919 438.699 445.87 439.915 444.131ZM31.5012 452.064C32.6531 452.153 33.9756 452.643 34.9192 452.242C36.6029 451.526 38.0577 450.272 39.6081 449.243C38.7746 448.151 37.9186 446.119 37.1116 446.139C34.4442 446.202 31.7945 447.006 29.138 447.526C29.6972 448.97 30.2564 450.413 31.5012 452.064ZM364.148 240.516C365.394 241.579 366.583 243.415 367.9 243.512C369.608 243.637 371.495 242.514 373.125 241.605C373.481 241.407 373.326 239.154 372.984 239.032C371.383 238.46 369.616 237.998 367.946 238.102C366.764 238.176 365.642 239.217 364.148 240.516ZM341.745 238.469C343.039 237.189 344.333 235.91 345.627 234.63C343.866 234.209 341.954 233.163 340.387 233.541C338.767 233.932 337.481 235.708 336.049 236.879C337.7 237.487 339.35 238.095 341.745 238.469Z" fill="#7778C7"/>
<path d="M234.559 3.75879e-09C236.339 3.65882 237.65 7.31764 238.594 9.95221C241.735 13.0263 245.381 15.1696 246.77 18.3109C248.539 22.3101 245.273 25.1752 240.936 27.1351C231.39 27.8598 222.592 28.4701 213.793 29.0804C213.082 33.4551 212.295 38.3022 211.366 42.8555C209.027 40.2181 206.729 37.9585 204.671 35.4982C203.478 34.0718 201.567 32.0558 201.88 30.7647C203.258 25.0681 204.601 19.1491 207.339 14.0528C210.357 8.43517 216.294 6.18816 223.798 5.71728C215.099 1.8858 209.072 5.3719 203.175 9.48266C204.341 6.50947 205.508 3.53627 206.351 0.281541C215.382 -1.01328e-06 224.736 -9.96241e-07 234.559 3.75879e-09ZM237.913 21.2178C237.066 22.2241 236.22 23.2303 235.373 24.2365C235.724 24.729 236.076 25.2216 236.427 25.7141C238.634 24.6186 240.84 23.523 243.047 22.4275C242.856 21.8465 242.666 21.2655 242.475 20.6846C241.159 20.7728 239.843 20.8611 237.913 21.2178Z" fill="#F34242"/>
<path d="M234.095 136.116C233.423 144.962 232.089 153.822 232.261 162.652C232.445 172.11 234.048 181.54 234.736 191.606C227.284 195.118 220.129 198.005 212.624 200.888C211.188 201.207 210.102 201.531 208.586 201.847C196.492 202.797 184.826 203.755 172.708 204.563C168.236 204.252 164.215 204.091 160.194 203.93C157.356 190.041 156.269 175.967 157.148 161.868C157.878 150.171 159.665 138.54 160.96 126.876C161.069 125.893 161.004 124.89 161.269 123.265C162.996 121.331 164.402 119.932 165.968 118.745C169.407 116.138 173.168 113.908 176.367 111.043C185.352 102.998 193.147 94.0617 195.387 81.3249C197.511 82.3331 198.979 83.0771 200.483 83.7367C208.148 87.0964 215.682 86.8906 222.969 82.682C229.149 79.1131 229.261 79.022 233.998 84.5236C235.268 85.9993 236.163 87.8355 237.053 89.5954C239.959 95.338 238.362 101.619 238.769 107.825C237.649 114.152 236.863 120.28 235.99 126.761C235.301 130.115 234.698 133.115 234.095 136.116ZM169.175 144.554C169.622 141.467 170.069 138.379 170.516 135.292C169.675 135.148 168.835 135.005 167.994 134.861C167.34 138.38 166.687 141.899 166.033 145.417C167.001 145.385 167.968 145.352 169.175 144.554Z" fill="#7678C7"/>
<path d="M205.07 286.117C201.278 303.654 197.702 321.242 193.575 338.7C192.146 344.746 189.999 350.825 187.026 356.257C182.679 364.196 174.082 366.301 166.111 367.783C157.449 369.394 148.485 369.517 139.637 369.96C123.462 370.769 107.275 371.318 91.0959 372.039C90.0143 372.087 88.9563 372.667 87.1707 372.871C84.6167 367.295 82.1259 362.692 75.0752 363.58C74.9597 362.433 74.8641 361.67 74.7388 360.518C73.8551 355.115 73.001 350.101 72.5732 345.069C87.0804 343.18 101.161 341.308 115.242 339.436C126.207 337.979 137.173 336.523 147.935 335.359C147.306 336.787 146.881 337.923 146.455 339.06C147.809 339.321 149.342 340.119 150.483 339.739C153.407 338.766 156.175 337.308 158.971 335.972C161.474 334.776 162.176 332.878 161.076 330.011C161.937 329.081 162.653 328.479 163.72 327.884C167.378 327.654 169.446 326.208 169.61 321.336C167.295 322.569 165.747 323.393 164.16 323.785C165.446 309.93 166.772 296.506 168.341 283.042C168.583 283.002 169.067 282.908 169.506 282.94C181.654 284.02 193.362 285.069 205.07 286.117Z" fill="#FFB4A3"/>
<path d="M239.102 107.625C238.363 101.619 239.959 95.3379 237.053 89.5954C236.163 87.8354 235.269 85.9992 233.998 84.5235C229.261 79.0219 229.149 79.113 222.969 82.6819C215.682 86.8905 208.148 87.0963 200.484 83.7366C198.979 83.077 197.511 82.333 195.387 81.3248C193.147 94.0616 185.352 102.998 176.367 111.043C173.168 113.908 169.407 116.138 165.968 118.745C164.402 119.932 162.997 121.331 161.245 122.834C156.546 125.051 152.042 126.917 147.724 129.142C145.191 130.446 143.481 130.302 142.083 126.964C138.275 117.498 134.604 108.728 130.913 99.616C129.921 97.7923 128.948 96.3118 127.974 94.8312C126.519 89.9722 128.846 88.2267 133.326 86.7395C145.841 82.5845 158.017 77.3866 170.579 73.3947C178.083 71.01 185.934 68.7785 194.609 71.3002C198.281 77.5234 203.399 80.6044 209.842 79.9096C214.667 79.3892 219.32 77.2656 224.05 75.8558C233.941 78.3299 241.477 84.9047 249.209 90.8817C257.275 97.1168 264.743 104.134 272.365 110.929C274.056 112.437 275.298 114.448 276.561 116.631C270.509 123.645 264.642 130.256 258.483 137.019C256.144 139.75 254.097 142.329 252.05 144.908C250.401 145.834 248.752 146.76 247.102 147.686C246.771 148.1 246.44 148.514 246.109 148.928C242.316 144.712 238.523 140.495 234.413 136.197C234.698 133.115 235.301 130.115 236.379 126.743C241.41 121.445 241.31 115.291 241.228 109.199C241.221 108.665 239.843 108.149 239.102 107.625ZM168.167 105.845C169.273 106.36 170.776 107.604 171.413 107.258C173.694 106.017 175.874 104.429 177.698 102.582C178.631 101.637 178.727 99.8659 179.202 98.4679C178.657 98.1077 178.112 97.7475 177.568 97.3873C174.536 99.9831 171.505 102.579 168.167 105.845Z" fill="#4950A3"/>
<path d="M275.029 252.951C279.434 252.956 283.838 252.961 288.639 253.06C295.55 260.642 303.811 266.971 307.115 276.699C310.887 287.803 314.13 299.122 316.927 310.514C319.896 322.607 322.08 334.892 324.589 347.097C325.758 352.783 326.885 358.477 327.922 364.883C326.883 368.614 325.953 371.629 324.652 374.724C323.534 374.929 322.786 375.052 321.635 375.171C315.178 376.417 309.123 377.668 302.992 378.557C300.127 369.817 297.096 361.512 294.597 353.05C289.417 335.509 283.775 318.076 282.881 299.545C282.6 293.704 280.574 288.253 275.76 284.094C270.612 279.646 265.855 274.746 261.091 269.739C265.846 263.94 270.438 258.445 275.029 252.951Z" fill="#FFB4A3"/>
<path d="M130.932 99.9592C134.603 108.729 138.275 117.498 141.916 126.632C136.512 129.253 131.138 131.509 125.327 133.484C121.964 128.589 117.69 125.692 112.756 123.463C114.001 128.49 114.774 133.615 120.106 136.025C121.549 143.632 123.034 151.232 124.427 158.848C126.99 172.85 129.496 186.862 132.033 200.868C132.586 203.922 133.317 206.298 137.19 207.307C139.913 208.017 142.244 210.8 144.341 213.04C145.137 213.891 145.36 216.809 144.872 217.089C140.752 219.452 142.962 222.935 143.084 225.933C143.22 229.286 142.616 231.032 138.553 231.135C132.436 231.288 126.35 232.461 120.229 232.885C119.02 232.968 117.033 231.918 116.581 230.878C115.394 228.148 113.539 224.703 114.323 222.324C116.142 216.803 113.38 212.583 111.943 207.285C111.679 206.399 111.47 206.167 111.213 205.977C111.168 205.553 111.122 205.13 110.986 204.162C110.742 203.335 110.522 203.119 110.238 202.969C110.188 202.536 110.138 202.103 110.26 201.099C108.78 193.292 107.099 186.062 105.48 178.817C102.956 167.52 100.474 156.214 98.0303 144.549C97.7202 139.588 97.3543 134.991 96.9924 129.975C95.8777 124.994 96.4328 121.145 101.267 118.922C101.924 118.62 102.178 117.539 102.774 116.985C110.973 109.354 119.996 103.072 130.932 99.9592Z" fill="#FFB4A3"/>
<path d="M205.438 286.191C193.362 285.069 181.654 284.02 169.491 282.492C169.635 274.579 170.461 267.155 170.772 259.709C171.118 251.462 170.993 243.195 171.424 234.909C172.353 233.753 173.567 232.514 173.392 231.518C172.841 228.373 171.77 225.32 170.927 221.81C171.689 215.831 172.425 210.272 173.16 204.713C184.826 203.755 196.492 202.796 208.608 202.266C210.369 210.076 211.679 217.459 212.989 224.843C209.687 225.123 206.339 225.153 203.09 225.732C195.556 227.076 190.615 233.312 191.107 240.478C191.616 247.879 197.077 253.343 204.638 253.998C206.614 254.169 208.593 254.294 210.859 254.738C210.441 264.304 209.744 273.574 209.02 282.842C208.808 285.556 208.227 286.134 205.438 286.191Z" fill="#EFF873"/>
<path d="M224.041 75.5019C219.32 77.2657 214.667 79.3892 209.841 79.9097C203.399 80.6045 198.28 77.5235 195.019 71.2961C195.587 67.625 196.294 64.2715 197.282 60.3483C198.419 58.5416 199.275 57.3045 200.525 56.0349C208.812 55.446 211.984 51.595 211.507 43.1492C212.294 38.3022 213.082 33.4552 213.793 29.0804C222.592 28.4701 231.39 27.8598 240.581 27.2332C241.632 30.3557 242.29 33.4946 242.945 36.6341C242.978 36.7935 243.015 36.962 242.997 37.1207C242.258 43.9666 242.35 51.0452 240.527 57.5898C238.8 63.7887 233.565 69.2873 225.227 67.8852C220.115 65.6081 215.758 63.4558 211.524 61.3648C212.92 68.0992 216.779 71.7223 224.139 73.0259C224.103 73.7332 224.068 74.4406 224.041 75.5019ZM224.338 50.1198C224.382 48.575 224.818 46.8712 224.287 45.5588C224.055 44.9838 221.42 44.6392 220.646 45.2184C219.745 45.8926 218.984 48.4811 219.399 48.8518C220.482 49.818 222.241 50.0265 224.338 50.1198ZM232.2 41.7286C232.057 44.2506 231.913 46.7726 231.77 49.2946C232.647 49.2716 233.524 49.2487 234.401 49.2257C233.97 46.9679 233.542 44.7094 233.098 42.4541C233.069 42.3097 232.911 42.1909 232.2 41.7286Z" fill="#FDB2A3"/>
<path d="M168.098 283.083C166.772 296.506 165.446 309.93 163.982 324.061C163.686 325.805 163.528 326.841 163.369 327.878C162.653 328.479 161.937 329.081 160.715 329.979C156.186 331.873 152.162 333.47 148.139 335.067C137.173 336.523 126.207 337.979 115.242 339.436C101.161 341.308 87.0805 343.18 72.4017 344.726C71.2696 341.922 70.7356 339.446 70.2017 336.969C81.4166 335.175 92.6281 333.361 103.847 331.594C113.806 330.027 123.76 328.426 133.74 327.007C139.719 326.157 145.759 325.737 151.733 324.862C152.906 324.69 154.744 323.418 154.855 322.484C156.377 309.667 157.65 296.82 159.41 283.487C162.59 283.023 165.344 283.053 168.098 283.083Z" fill="#DF9285"/>
<path d="M69.9641 336.629C70.7355 339.446 71.2694 341.922 71.9751 344.742C73.0009 350.1 73.8551 355.115 74.3641 360.561C70.6434 361.886 67.2103 362.607 63.9021 363.704C48.3655 368.858 42.7923 384.334 51.4907 398.213C52.2951 399.497 53.8197 400.329 55.0099 401.37C52.8332 405.256 51.3842 409.937 45.3231 409.457C44.8318 407.176 44.7329 405.365 44.4924 403.572C42.6949 390.173 40.8694 376.778 39.4058 363.276C51.8954 357.649 54.5732 352.396 52.0046 339.148C57.912 338.195 63.8194 337.242 69.9641 336.629Z" fill="#7879C7"/>
<path d="M168.341 283.042C165.344 283.053 162.59 283.022 159.381 283.043C157.186 282.704 155.445 282.314 152.962 281.758C155.725 269.353 158.54 256.925 161.212 244.467C161.555 242.868 161.506 241.011 161.051 239.444C157.718 227.961 157.025 216.436 160.12 204.357C164.215 204.091 168.236 204.252 172.709 204.563C172.425 210.272 171.689 215.831 170.546 221.773C169.425 223.519 167.93 225.028 168.153 226.214C168.713 229.199 170.048 232.039 171.073 234.936C170.993 243.195 171.118 251.462 170.773 259.709C170.461 267.155 169.635 274.579 169.051 282.461C169.067 282.908 168.584 283.002 168.341 283.042Z" fill="#D9E183"/>
<path d="M302.992 378.557C301.612 379.289 300.157 379.658 298.325 379.962C290.38 356.783 282.788 333.677 275.282 310.542C274.587 308.4 273.742 305.937 274.161 303.864C276.358 292.974 268.295 289.281 261.302 284.718C258.856 283.122 256.521 281.354 254.088 279.005C256.075 275.604 258.11 272.863 260.34 270.098C260.536 270.073 260.928 270.043 260.928 270.043C265.855 274.746 270.612 279.646 275.76 284.093C280.574 288.252 282.6 293.704 282.881 299.545C283.774 318.076 289.417 335.508 294.597 353.05C297.096 361.512 300.127 369.817 302.992 378.557Z" fill="#DF9285"/>
<path d="M97.9743 144.912C100.474 156.214 102.956 167.52 105.48 178.817C107.098 186.062 108.78 193.292 110.204 200.776C107.318 194.676 104.35 188.438 102.067 181.958C96.8737 167.219 91.8013 152.429 87.0927 137.529C83.3988 125.84 89.4956 118.113 96.8801 113.165C106.661 106.612 117.14 101.1 127.646 94.9861C128.948 96.3119 129.921 97.7925 130.913 99.6161C119.996 103.072 110.973 109.354 102.774 116.985C102.178 117.539 101.924 118.62 101.266 118.922C96.4327 121.145 95.8775 124.994 96.6328 129.956C91.3146 132.058 93.4795 135.999 93.7875 139.086C94.035 141.566 93.5509 145.182 97.9743 144.912Z" fill="#E09386"/>
<path d="M260.146 270.123C258.11 272.863 256.075 275.604 253.948 278.679C251.772 282.172 250.159 282.565 246.87 279.612C237.287 271.005 227.166 262.997 217.136 254.449C225.093 253.856 233.17 253.569 241.755 253.665C248.224 259.406 254.185 264.764 260.146 270.123Z" fill="#D9E183"/>
<path d="M200.132 56.0673C199.276 57.3044 198.42 58.5415 197.28 59.951C194.513 59.0797 191.014 58.7403 189.719 56.8726C183.534 47.9578 180.22 38.3861 186.003 27.7524C186.593 26.6675 186.746 24.8862 186.283 23.766C184.194 18.7077 184.814 13.9554 188.505 10.2176C192.501 6.17166 197.248 7.91442 201.961 10.381C197.133 17.513 195.266 25.0533 196.104 33.389C196.237 34.7219 195.867 36.3734 195.133 37.4829C189.746 45.6241 191.263 51.4615 200.132 56.0673Z" fill="#F34444"/>
<path d="M200.525 56.0348C191.262 51.4615 189.746 45.6241 195.132 37.4829C195.866 36.3734 196.237 34.7219 196.103 33.389C195.265 25.0533 197.133 17.5129 202.368 10.4809C202.641 9.97917 202.779 9.82245 203.054 9.58152C209.072 5.37181 215.099 1.88572 223.798 5.71719C216.294 6.18807 210.357 8.43508 207.339 14.0527C204.601 19.149 203.258 25.068 201.88 30.7647C201.567 32.0557 203.478 34.0717 204.671 35.4981C206.729 37.9584 209.027 40.218 211.366 42.8554C211.984 51.5949 208.812 55.4459 200.525 56.0348ZM203.628 39.8079C199.458 38.3234 197.277 40.4931 196.256 44.1324C195.317 47.476 197.842 51.8885 200.957 51.4594C203.319 51.134 206.316 48.826 207.205 46.6532C207.828 45.1328 205.371 42.3522 203.628 39.8079Z" fill="#504FA0"/>
<path d="M39.0526 363.382C40.8693 376.778 42.6948 390.173 44.4923 403.572C44.7328 405.365 44.8317 407.176 44.9296 409.404C43.4548 407.941 41.2561 406.238 40.7712 404.138C38.2789 393.346 35.684 382.525 34.211 371.569C33.2195 364.193 34.0097 356.575 34.0809 349.066C34.086 348.534 34.7351 348.008 35.6314 347.598C36.9162 351.807 37.6542 355.896 38.3498 360.334C38.5558 361.582 38.8042 362.482 39.0526 363.382Z" fill="#C02D2F"/>
<path d="M38.3925 359.986C37.6544 355.896 36.9164 351.807 35.936 347.401C39.814 344.711 43.9342 342.338 48.3959 340.477C50.5622 351.476 48.6874 354.919 38.3925 359.986Z" fill="#7879C7"/>
<path d="M38.3501 360.334C48.6875 354.919 50.5623 351.476 48.7584 340.534C49.6218 339.72 50.4642 339.36 51.6557 339.074C54.5735 352.396 51.8956 357.649 39.406 363.277C38.8045 362.482 38.5561 361.581 38.3501 360.334Z" fill="#F6F6FB"/>
<path d="M120.458 136.021C114.774 133.615 114.001 128.49 112.755 123.463C117.69 125.692 121.964 128.589 124.969 133.53C123.637 134.575 122.224 135.296 120.458 136.021Z" fill="#DF9285"/>
<path d="M110.181 203.235C110.522 203.119 110.742 203.335 110.95 203.844C110.709 203.881 110.416 203.692 110.181 203.235Z" fill="#E09386"/>
<path d="M111.153 206.246C111.469 206.167 111.679 206.399 111.904 206.901C111.675 206.924 111.384 206.719 111.153 206.246Z" fill="#E09386"/>
<path d="M258.775 136.867C264.642 130.256 270.509 123.645 276.705 116.932C280.971 119.661 284.907 122.492 288.739 125.894C288.294 132.941 291.802 137.289 296.01 141.249C296.525 141.069 297.039 140.888 297.553 140.708C296.686 137.093 295.818 133.479 294.951 129.865C294.065 122.436 293.165 115.01 292.299 107.579C291.526 100.945 291.19 94.2283 289.888 87.7022C289.127 83.8894 286.862 80.374 285.255 76.7333C282.212 69.8415 279.081 62.987 276.176 56.0379C275.673 54.8357 276.104 53.2432 276.104 51.831C276.596 51.5422 277.087 51.2534 277.578 50.9646C279.607 52.9974 281.635 55.0301 283.908 57.3078C284.553 55.1346 283.207 49.8963 287.576 51.3214C293.093 53.1206 298.023 51.0901 303.203 51.0607C307.467 51.0366 307.948 53.9264 307.99 56.9783C308.104 65.2984 308.033 73.6211 308.129 82.6298C308.393 83.5869 308.602 83.8221 308.85 84.0224C308.891 84.4574 308.932 84.8925 308.782 85.912C309.572 92.6673 310.623 98.8278 311.518 105.011C314.054 122.518 317.067 139.98 318.82 157.567C319.889 168.285 318.052 169.22 307.433 167.91C307.268 167.89 307.101 167.896 306.903 167.542C303.887 163.26 299.722 162.733 295.136 162.811C293.392 161.149 291.882 159.574 290.058 158.57C286.034 156.357 281.487 154.937 277.816 152.278C271.212 147.496 265.095 142.041 258.775 136.867ZM296.052 72.8093C300.957 73.8305 301.865 69.3913 304.002 66.7859C304.527 66.1459 303.976 64.6238 303.874 62.5859C301.987 64.7222 300.965 65.8795 300.664 66.2203C296.726 65.4767 293.822 64.8785 290.89 64.5096C290.73 64.4896 289.763 66.8398 290.14 67.3096C291.672 69.2175 293.581 70.8219 296.052 72.8093Z" fill="#FEB3A3"/>
<path d="M385.239 221.595C368.695 221.97 352.245 221.921 335.798 222.107C321.821 222.265 307.848 222.693 293.399 222.966C299.941 211.34 306.858 199.687 314.02 188.187C316.979 183.436 321.011 179.892 327.45 180.271C324.993 187.149 321.908 193.613 319.575 200.338C317.739 205.629 320.132 209.594 325.625 209.901C337.366 210.557 349.154 210.856 360.908 210.609C369.898 210.42 376.557 205.852 380.412 197.463C381.795 194.454 383.488 191.575 385.206 188.737C387.41 185.094 389.782 181.552 392.082 177.967C394.572 177.979 397.064 177.946 399.552 178.013C405.273 178.168 407.507 180.985 405.147 186.357C402.066 193.372 398.302 200.106 394.525 206.788C391.714 211.76 388.416 216.455 385.239 221.595Z" fill="#494FA3"/>
<path d="M392.065 177.601C389.782 181.552 387.41 185.094 385.206 188.737C383.488 191.575 381.795 194.454 380.412 197.463C376.557 205.852 369.898 210.42 360.908 210.609C349.154 210.856 337.366 210.557 325.626 209.901C320.132 209.594 317.739 205.629 319.575 200.338C321.908 193.613 324.993 187.149 327.851 180.226C331.638 172.286 335.295 164.676 339.032 157.107C340.916 153.29 344.294 152.006 348.325 152.005C361.129 152.005 373.935 151.893 386.736 152.084C389.936 152.131 393.139 153.066 396.308 153.749C400.588 154.672 402.119 157.363 400.241 161.328C397.69 166.715 394.796 171.94 392.065 177.601ZM377.622 189.086C381.417 182.074 385.211 175.061 389.006 168.049C392.498 161.596 391.164 158.486 383.954 158.176C372.509 157.684 361.029 157.589 349.581 157.925C347.065 157.998 343.46 159.971 342.343 162.107C336.886 172.544 331.796 183.203 327.2 194.047C324.563 200.267 327.071 203.578 333.881 203.904C340.353 204.213 346.862 203.824 353.326 204.215C364.759 204.906 372.971 200.657 377.622 189.086Z" fill="#787AC8"/>
<path d="M306.935 167.89C307.101 167.896 307.269 167.89 307.433 167.91C318.053 169.22 319.889 168.285 318.821 157.567C317.068 139.98 314.054 122.518 311.519 105.011C310.623 98.8277 309.572 92.6673 308.845 86.2344C313.416 102.459 317.958 118.892 321.953 135.456C323.852 143.33 325.086 151.419 325.877 159.483C326.279 163.585 325.612 168.027 324.39 171.995C322.642 177.667 316.022 179.392 307.997 177.602C293.211 174.303 281.191 165.752 269.044 157.472C263.408 153.63 258.169 149.209 252.4 144.979C254.097 142.329 256.144 139.749 258.483 137.019C265.096 142.041 271.213 147.495 277.816 152.278C281.487 154.937 286.035 156.357 290.058 158.57C291.882 159.574 293.393 161.149 295.156 163.149C299.156 165.185 303.046 166.538 306.935 167.89Z" fill="#DF9285"/>
<path d="M212.973 200.893C220.129 198.005 227.284 195.118 234.738 192.037C245.126 202.178 255.216 212.512 265.6 223.008C264.981 223.437 264.072 223.918 263.152 223.94C247.767 224.304 232.381 224.612 216.523 224.425C215.024 216.243 213.999 208.568 212.973 200.893Z" fill="#EEF874"/>
<path d="M224.482 72.851C216.779 71.7222 212.92 68.0991 211.524 61.3647C215.758 63.4558 220.115 65.608 224.805 67.9129C225.033 69.6024 224.93 71.1392 224.482 72.851Z" fill="#E09386"/>
<path d="M294.63 129.799C295.819 133.479 296.686 137.093 297.554 140.708C297.039 140.888 296.525 141.069 296.011 141.249C291.802 137.289 288.295 132.941 288.89 126.212C290.867 127.217 292.588 128.475 294.63 129.799Z" fill="#E09386"/>
<path d="M308.912 83.7518C308.602 83.8222 308.393 83.587 308.16 83.0889C308.389 83.0676 308.682 83.2743 308.912 83.7518Z" fill="#DF9285"/>
<path d="M260.341 270.098C254.185 264.765 248.224 259.406 242.188 253.744C252.777 253.227 263.44 253.013 274.566 252.875C270.438 258.445 265.846 263.94 261.091 269.739C260.928 270.044 260.536 270.073 260.341 270.098Z" fill="#EFF873"/>
<path d="M212.624 200.888C213.999 208.568 215.025 216.243 216.06 224.366C215.299 224.86 214.528 224.906 213.373 224.897C211.68 217.46 210.37 210.076 209.038 202.274C210.102 201.531 211.188 201.207 212.624 200.888Z" fill="#D9E183"/>
<path d="M377.505 235.708C374.981 235.171 372.84 234.844 370.816 234.166C370.058 233.912 368.931 232.517 369.089 232.203C369.529 231.327 370.61 230.088 371.338 230.151C376.08 230.564 380.808 231.212 385.508 231.983C386.22 232.1 386.761 233.256 387.381 233.931C386.548 234.586 385.764 235.711 384.873 235.803C382.585 236.04 380.25 235.817 377.505 235.708Z" fill="#F8F8FC"/>
<path d="M364.321 240.171C365.643 239.217 366.764 238.176 367.946 238.102C369.616 237.998 371.383 238.46 372.984 239.032C373.326 239.154 373.481 241.407 373.125 241.605C371.495 242.514 369.609 243.637 367.9 243.512C366.583 243.415 365.394 241.579 364.321 240.171Z" fill="#F6F6FB"/>
<path d="M341.373 238.586C339.35 238.095 337.699 237.487 336.049 236.879C337.481 235.708 338.766 233.932 340.387 233.541C341.954 233.162 343.866 234.209 345.627 234.63C344.333 235.909 343.039 237.189 341.373 238.586Z" fill="#F6F6FB"/>
<path d="M238.22 21.0836C239.843 20.8611 241.159 20.7728 242.475 20.6846C242.666 21.2655 242.856 21.8465 243.047 22.4275C240.841 23.523 238.634 24.6186 236.427 25.7141C236.076 25.2216 235.724 24.729 235.373 24.2365C236.22 23.2303 237.067 22.2241 238.22 21.0836Z" fill="#FDF9F8"/>
<path d="M238.769 107.825C239.843 108.149 241.221 108.665 241.228 109.199C241.31 115.291 241.41 121.445 236.465 126.39C236.863 120.28 237.649 114.152 238.769 107.825Z" fill="#F6F6FB"/>
<path d="M169.055 144.936C167.968 145.352 167 145.384 166.033 145.417C166.687 141.899 167.34 138.38 167.994 134.861C168.835 135.005 169.675 135.148 170.516 135.291C170.069 138.379 169.622 141.466 169.055 144.936Z" fill="#F8F8FC"/>
<path d="M147.935 335.359C152.162 333.47 156.186 331.873 160.57 330.307C162.176 332.878 161.474 334.776 158.971 335.972C156.174 337.308 153.407 338.767 150.483 339.739C149.342 340.119 147.809 339.321 146.455 339.06C146.881 337.923 147.306 336.787 147.935 335.359Z" fill="#FDF9F8"/>
<path d="M163.72 327.884C163.528 326.841 163.687 325.805 164.022 324.493C165.747 323.393 167.295 322.569 169.611 321.336C169.447 326.208 167.378 327.654 163.72 327.884Z" fill="#FDF9F8"/>
<path d="M168.32 105.51C171.505 102.579 174.536 99.983 177.568 97.3872C178.112 97.7474 178.657 98.1077 179.202 98.4679C178.727 99.8658 178.631 101.637 177.698 102.582C175.874 104.429 173.693 106.017 171.413 107.258C170.776 107.604 169.273 106.36 168.32 105.51Z" fill="#F6F6FB"/>
<path d="M98.0305 144.549C93.5513 145.182 94.0354 141.566 93.7879 139.085C93.4799 135.999 91.315 132.058 96.6291 130.375C97.3545 134.991 97.7204 139.588 98.0305 144.549Z" fill="#FDF9F8"/>
<path d="M171.424 234.909C170.048 232.039 168.713 229.199 168.153 226.214C167.93 225.028 169.425 223.519 170.519 222.194C171.771 225.32 172.841 228.374 173.392 231.518C173.567 232.514 172.353 233.753 171.424 234.909Z" fill="#FDF9F8"/>
<path d="M224.034 50.3285C222.241 50.0265 220.482 49.818 219.399 48.8518C218.984 48.4811 219.745 45.8926 220.646 45.2184C221.42 44.6392 224.054 44.9838 224.287 45.5588C224.818 46.8712 224.381 48.575 224.034 50.3285Z" fill="#DF9285"/>
<path d="M232.507 41.8943C232.911 42.1908 233.07 42.3096 233.098 42.4539C233.542 44.7092 233.97 46.9678 234.401 49.2256C233.524 49.2486 232.647 49.2715 231.77 49.2945C231.913 46.7725 232.057 44.2505 232.507 41.8943Z" fill="#E09386"/>
<path d="M203.959 39.9714C205.371 42.3524 207.828 45.133 207.205 46.6534C206.316 48.8262 203.319 51.1342 200.957 51.4596C197.842 51.8887 195.317 47.4762 196.256 44.1326C197.277 40.4933 199.458 38.3236 203.959 39.9714Z" fill="#7678C7"/>
<path d="M295.702 72.6738C293.581 70.8219 291.672 69.2175 290.14 67.3096C289.763 66.8399 290.73 64.4896 290.89 64.5097C293.823 64.8785 296.727 65.4767 300.664 66.2203C300.965 65.8795 301.987 64.7223 303.874 62.5859C303.977 64.6239 304.527 66.1459 304.002 66.7859C301.865 69.3914 300.957 73.8305 295.702 72.6738Z" fill="#DF9285"/>
<path d="M306.903 167.542C303.046 166.538 299.156 165.185 295.247 163.495C299.722 162.733 303.888 163.26 306.903 167.542Z" fill="#FDF9F8"/>
<path d="M377.432 189.401C372.971 200.657 364.759 204.906 353.325 204.215C346.862 203.824 340.353 204.213 333.881 203.904C327.07 203.578 324.563 200.267 327.2 194.047C331.796 183.202 336.886 172.544 342.343 162.107C343.46 159.971 347.065 157.998 349.581 157.924C361.029 157.589 372.509 157.684 383.954 158.176C391.164 158.486 392.498 161.596 389.006 168.049C385.211 175.061 381.417 182.074 377.432 189.401ZM355.652 164.038C351.652 161.197 346.966 162.566 343.367 167.628C340.202 172.078 340.395 177.24 344.154 179.587C345.531 180.447 347.853 180.917 349.205 180.329C350.245 179.876 350.442 177.487 351.644 176.183C352.013 177.023 352.383 177.862 353.162 179.63C355.229 176.747 356.825 174.519 358.421 172.292C358.103 171.844 357.785 171.395 357.467 170.947C355.025 171.479 352.583 172.011 349.569 172.154C350.057 171.043 350.545 169.932 351.568 169.424C353.903 169.596 356.239 169.767 358.574 169.939C358.883 169.359 359.192 168.779 359.502 168.199C358.192 167.074 356.882 165.949 355.652 164.038ZM369.189 178.827C371.103 174.026 373.017 169.226 375.142 163.898C376.682 166.498 377.734 168.274 378.784 170.046C383.945 166.97 383.945 166.97 382.839 163.969C381.586 164.876 380.419 165.72 379.319 166.515C378.032 164.451 376.931 162.686 375.032 159.642C372.209 166.032 369.9 171.256 367.458 176.783C365.923 174.458 364.704 172.614 362.852 169.81C361.389 172.664 360.421 174.554 359.452 176.444C359.863 176.802 360.274 177.16 360.685 177.518C361.188 176.18 361.691 174.841 362.511 172.662C364.141 175.805 364.767 177.548 365.872 178.901C366.372 179.514 367.821 179.351 369.189 178.827ZM357.454 192.523C357.667 190.719 357.879 188.914 358.092 187.11C357.835 187.085 357.578 187.061 357.321 187.036C356.455 188.41 355.588 189.783 354.459 191.573C354.239 189.832 354.102 188.741 353.964 187.65C352.833 188.907 351.861 190.418 352.195 191.539C352.54 192.698 354.067 193.63 355.27 194.329C355.624 194.534 356.635 193.608 357.454 192.523Z" fill="#FAFAFD"/>
<path d="M351.015 175.959C350.443 177.487 350.245 179.876 349.205 180.329C347.853 180.917 345.531 180.447 344.155 179.587C340.395 177.24 340.203 172.078 343.367 167.628C346.967 162.566 351.652 161.197 355.426 164.542C353.811 166.304 352.422 167.562 351.033 168.821C350.545 169.932 350.057 171.043 349.822 172.327C350.075 172.499 350.048 172.424 349.996 172.824C350.326 174.164 350.707 175.104 351.05 176.04C351.012 176.036 351.015 175.959 351.015 175.959Z" fill="#7D7FCA"/>
<path d="M369.015 179.184C367.821 179.351 366.372 179.514 365.872 178.901C364.767 177.549 364.141 175.806 362.511 172.662C361.691 174.841 361.188 176.18 360.685 177.519C360.274 177.16 359.863 176.802 359.452 176.444C360.421 174.554 361.389 172.665 362.852 169.81C364.704 172.614 365.923 174.459 367.458 176.783C369.9 171.256 372.209 166.032 375.032 159.642C376.931 162.686 378.032 164.451 379.319 166.515C380.419 165.72 381.586 164.876 382.839 163.969C383.945 166.97 383.945 166.97 378.784 170.046C377.734 168.274 376.682 166.498 375.141 163.898C373.017 169.226 371.103 174.026 369.015 179.184Z" fill="#8789CE"/>
<path d="M350.048 172.424C350.048 172.424 350.075 172.499 350.108 172.521C352.583 172.011 355.025 171.479 357.467 170.947C357.785 171.395 358.103 171.844 358.422 172.292C356.825 174.519 355.229 176.747 353.162 179.63C352.384 177.862 352.014 177.023 351.329 176.071C351.015 175.959 351.012 176.036 351.133 175.64C350.852 174.304 350.45 173.364 350.048 172.424Z" fill="#F34444"/>
<path d="M351.3 169.122C352.421 167.562 353.81 166.304 355.385 164.934C356.882 165.949 358.192 167.074 359.502 168.199C359.192 168.779 358.883 169.359 358.574 169.939C356.238 169.768 353.903 169.596 351.3 169.122Z" fill="#EEF874"/>
<path d="M357.4 192.862C356.636 193.609 355.625 194.534 355.27 194.329C354.067 193.63 352.54 192.698 352.195 191.539C351.861 190.418 352.833 188.907 353.964 187.65C354.102 188.741 354.24 189.832 354.459 191.573C355.589 189.783 356.455 188.41 357.322 187.036C357.578 187.061 357.835 187.085 358.092 187.11C357.88 188.914 357.667 190.719 357.4 192.862Z" fill="#8789CE"/>
<path d="M349.996 172.824C350.45 173.364 350.852 174.304 351.171 175.644C350.707 175.104 350.326 174.164 349.996 172.824Z" fill="#FAFAFD"/>
</svg>
