<svg width="452" height="366" viewBox="0 0 452 366" fill="none" xmlns="http://www.w3.org/2000/svg">
<path d="M297.396 294.186C298.357 302.614 299.08 311.077 300.342 319.46C301.817 329.253 303.755 338.978 305.527 348.725C305.633 349.306 306.057 349.828 306.719 351.147C297.066 353.883 287.893 357.073 278.462 359.01C266.044 361.561 253.484 363.813 240.873 364.913C229.611 365.897 218.196 365.067 206.85 365.172C192.035 365.309 177.621 362.682 163.325 359.148C160.656 358.488 157.861 358.09 155.398 356.969C154.334 356.485 153.354 354.464 153.374 353.157C153.534 342.578 153.957 332.003 154.267 321.426C154.587 310.503 154.869 299.579 154.95 288.027C155.212 284.793 156.139 282.181 156.103 279.582C155.695 249.786 159.219 219.72 150.704 190.388C160.958 189.715 170.748 188.949 180.553 188.605C216.814 187.332 253.065 187.172 289.264 190.745C290.307 213.736 290.98 236.293 292.539 258.788C293.36 270.642 295.727 282.39 297.396 294.186Z" fill="#FFB833"/>
<path d="M268.356 99.2398C263.987 108.848 258.744 117.946 250.275 124.491C245.358 128.291 239.724 131.162 233.855 134.797C234.363 137.188 235.109 140.776 235.889 144.356C238.203 154.978 239.044 153.04 250.051 155.65C248.322 162.037 246.235 167.949 243.694 173.919C223.953 174.02 204.667 174.063 185.223 173.802C182.441 169.103 179.818 164.709 177.195 160.315C186.661 158.389 195.146 155.315 196.917 144.023C197.416 140.841 198.197 137.703 198.977 133.921C183.647 128.017 173.405 116.609 166.347 101.189C165.137 96.4835 164.081 92.4859 163.35 88.3393C164.534 80.4952 165.261 72.7826 166.287 65.11C167.406 56.7354 167.886 48.1242 170.279 40.1039C174.616 25.5693 183.362 21.4796 197.879 25.6286C209.064 28.8252 220.145 28.1945 230.355 22.7051C238.597 18.2737 245.395 19.9122 251.815 25.5708C259.572 32.4086 264.425 41.2084 266.114 51.2523C267.566 59.8929 267.576 68.7721 268.327 77.537C268.54 80.0261 267.995 83.2988 272.251 83.3857C270.953 88.946 269.655 94.0929 268.356 99.2398ZM220.082 110.724C223.835 109.501 226.786 107.516 227.527 103.486C220.94 103.486 214.627 103.486 207.603 103.486C210.215 109.171 213.97 111.307 220.082 110.724ZM188.476 101.103C188.358 99.259 188.547 95.9096 188.074 95.8136C184.853 95.1595 181.244 94.3416 178.241 95.2208C174.744 96.2448 174.869 100.766 178.414 101.758C181.33 102.574 184.72 101.697 188.476 101.103ZM241.446 73.3313C245.434 73.0444 249.422 72.7576 254.186 72.4149C249.597 68.5927 245.008 67.6175 240.171 68.4495C237.383 68.929 232.492 68.6009 233.511 73.0051C234.446 77.0462 238.139 73.5681 241.446 73.3313ZM249.159 102.15C249.657 102.159 250.154 102.17 250.652 102.176C253.992 102.213 257.787 101.723 257.569 97.7066C257.365 93.933 253.431 94.1623 250.416 94.1188C250.25 94.1164 250.05 94.0603 249.924 94.1322C247.903 95.2863 245.892 96.4571 243.878 97.6241C245.37 99.1121 246.862 100.6 249.159 102.15ZM247.706 86.2784C246.668 84.262 246.017 81.8135 244.439 80.4011C243.577 79.6295 240.655 80.0279 239.551 80.9563C238.287 82.0197 237.252 84.3841 237.517 85.9461C237.78 87.499 239.881 89.9786 240.998 89.8868C243.215 89.7046 245.31 88.0336 247.706 86.2784ZM195.236 88.6016C195.719 86.5108 197.267 83.6049 196.436 82.5186C195.16 80.8498 192.07 79.3859 190.072 79.727C187.046 80.2439 185.552 83.1516 186.902 86.3249C188.387 89.8145 191.111 90.7903 195.236 88.6016ZM183.292 70.3095C182.194 71.1248 181.096 71.94 179.885 72.839C185.684 73.2692 191.02 73.7939 196.368 73.9693C197.667 74.0119 199.003 72.9047 200.322 72.3262C199.376 71.1747 198.428 69.0377 197.485 69.0395C192.978 69.0479 188.472 69.6368 183.292 70.3095ZM200.898 133.066L200.656 133.135C200.656 133.135 200.895 133.214 200.898 133.066Z" fill="#D79071"/>
<path d="M150.246 190.488C159.219 219.72 155.695 249.786 156.103 279.582C156.139 282.181 155.212 284.793 154.614 287.761C152.664 294.683 151.243 301.394 148.912 307.772C144.432 320.026 125.494 326.625 114.225 315.648C103.871 305.564 98.8379 292.56 95.4686 279.153C90.6832 260.112 87.3797 240.702 83.1739 221.509C81.586 214.263 79.2484 207.181 77.3027 199.173C77.9336 193.575 78.5142 188.829 79.0949 184.082C80.3853 179.038 83.5869 176.798 88.8155 177.123C97.1902 177.644 105.575 177.995 114.215 179.124C116.007 184.291 117.54 188.754 119.132 193.658C118.713 197.775 118.549 201.527 117.685 205.109C116.392 210.472 117.597 216.543 120.582 219.078C122.728 210.64 124.946 201.922 127.45 192.905C135.24 191.9 142.743 191.194 150.246 190.488ZM135.99 255.057C135.329 253.647 134.668 252.237 134.008 250.827C133.693 250.956 133.377 251.085 133.062 251.215C135.631 258.356 138.2 265.497 140.769 272.638C141.184 272.501 141.598 272.364 142.013 272.228C140.097 266.735 138.181 261.243 135.99 255.057Z" fill="#D89071"/>
<path d="M297.726 294.354C295.726 282.39 293.36 270.642 292.538 258.788C290.98 236.293 290.307 213.736 289.703 190.695C299.172 191.178 308.205 192.172 317.264 193.561C319.925 203.594 322.559 213.232 325.301 223.264C331.123 214.515 334.56 206.014 330.303 196.178C330.056 195.607 330.203 194.865 330.321 193.84C331.359 188.679 332.243 183.883 333.126 179.086C333.74 174.661 336.921 173.289 340.713 173.2C347.997 173.029 355.29 173.267 362.574 173.107C366.851 173.013 368.398 176.175 370.172 178.99C371.178 180.585 371.584 182.559 372.121 185.168C371.796 190.719 371.609 195.465 371.423 200.211C369.024 209.801 366.435 219.347 364.273 228.99C361.111 243.091 358.897 257.437 355.096 271.355C351.034 286.224 346.755 301.338 334.606 312.25C328.576 317.668 321.389 318.598 313.96 315.93C306.912 313.399 301.334 309.202 300.199 300.951C299.896 298.751 298.793 296.662 297.726 294.354ZM313.204 254.738C313.698 252.558 314.193 250.377 314.688 248.196C314.224 248.119 313.761 248.041 313.297 247.963C311.786 254.323 310.274 260.683 308.512 268.1C309.834 267.052 310.241 266.898 310.301 266.657C311.216 262.946 312.085 259.223 313.204 254.738Z" fill="#D89071"/>
<path d="M78.6673 184.095C78.5145 188.829 77.9338 193.575 77.2487 198.763C68.018 200.82 68.2356 200.781 69.804 209.489C71.2383 217.453 72.4483 225.486 73.1475 233.542C73.575 238.467 68.6202 244.149 63.8063 245.025C53.7176 246.861 43.5292 248.192 33.4982 250.287C25.1606 252.029 17.909 247.013 17.0227 238.91C16.8801 237.606 16.4969 236.328 16.3488 234.494C15.7694 233.958 15.0661 233.966 14.3629 233.974C9.51027 234.458 6.99377 232.327 6.19928 227.441C4.44516 216.653 2.39882 205.913 0.4757 195.152C-0.765309 188.208 0.114379 186.403 6.83223 182.39C6.131 178.279 5.50116 174.054 4.67744 169.868C2.97253 161.202 7.35459 154.582 16.0233 153.143C26.4713 151.408 36.8967 149.359 47.418 148.305C54.7964 147.566 58.9052 151.208 60.4565 158.429C62.3339 167.168 63.8852 175.977 65.6857 185.316C69.8166 184.919 74.028 184.513 78.6673 184.095ZM14.9318 224.113C14.8817 224.499 14.8317 224.884 14.7816 225.27C15.046 225.286 15.3103 225.303 15.5747 225.319C15.4935 224.934 15.4123 224.549 14.9318 224.113ZM10.3296 195.138C10.0793 195.406 9.82896 195.673 9.57862 195.941C9.79821 196.124 10.0178 196.307 10.2374 196.49C10.3747 196.134 10.512 195.778 10.3296 195.138ZM13.065 211.516C13.2588 211.357 13.4526 211.197 13.6465 211.037C13.5502 210.933 13.4539 210.83 13.3576 210.726C13.1852 210.909 13.0127 211.092 13.065 211.516ZM12.4769 205.766C12.2856 205.924 12.0944 206.081 11.9032 206.239C11.9979 206.342 12.0926 206.445 12.1873 206.547C12.3579 206.367 12.5285 206.186 12.4769 205.766ZM10.9001 200.933C11.0581 201.124 11.2161 201.314 11.3741 201.505C11.4763 201.41 11.5785 201.315 11.6807 201.22C11.5002 201.05 11.3196 200.88 10.9001 200.933ZM8.14506 186.728C8.12479 186.975 8.10452 187.223 8.08425 187.471C8.22446 187.474 8.36468 187.478 8.5049 187.481C8.49544 187.233 8.48598 186.984 8.14506 186.728ZM9.10343 191.635L9.40002 191.73C9.40002 191.73 9.21124 191.512 9.10343 191.635Z" fill="#383333"/>
<path d="M371.832 200.195C371.609 195.465 371.796 190.719 372.157 185.544C373.33 185.131 374.33 185.111 375.327 185.167C383.243 185.611 383.307 185.628 384.884 177.67C385.816 172.969 386.599 168.235 387.286 163.492C388.542 154.824 395.566 149.883 404.089 151.56C412.37 153.189 420.659 154.87 429.015 156.008C443.567 157.99 444.257 164.93 442.946 175.565C442.644 178.016 442.214 180.451 441.795 183.208C448.575 184.855 447.769 190.095 447.043 194.802C445.327 205.922 443.416 217.026 441.058 228.023C440.575 230.273 438.127 233.065 435.988 233.754C433.219 234.647 432.444 235.641 432.117 238.359C430.325 253.264 422.148 254.864 410.543 252.741C407.449 252.175 404.351 251.637 401.255 251.086C396.531 250.247 391.766 249.59 387.092 248.53C377.89 246.444 373.844 240.056 375.528 230.89C376.874 223.565 378.141 216.224 379.338 208.872C380.653 200.789 380.552 200.72 371.832 200.195Z" fill="#393434"/>
<path d="M272.25 82.9724C267.995 83.2988 268.54 80.0261 268.326 77.537C267.576 68.7721 267.566 59.8929 266.113 51.2523C264.425 41.2084 259.572 32.4086 251.815 25.5708C245.395 19.9121 238.597 18.2737 230.355 22.7051C220.145 28.1945 209.064 28.8252 197.879 25.6285C183.362 21.4796 174.616 25.5693 170.279 40.1039C167.886 48.1242 167.406 56.7354 166.286 65.11C165.26 72.7826 164.533 80.4952 163.127 88.1709C161.313 85.5238 159.947 82.9388 158.812 80.2558C157.815 77.9003 157.078 75.435 156.227 73.0182C155.914 64.2298 155.031 55.412 155.482 46.6629C155.8 40.4861 157.453 34.2506 159.359 28.3139C162.042 19.9591 168.448 14.7397 176.056 10.7642C196.823 -0.08743 218.665 -3.11775 241.13 3.43297C254.442 7.31463 266.877 13.7296 272.843 27.5987C274.699 31.9134 275.85 36.7964 276.095 41.4835C276.595 51.04 276.26 60.6403 276.099 70.9962C274.702 75.5041 273.476 79.2382 272.25 82.9724Z" fill="#3B3635"/>
<path d="M317.238 193.165C308.205 192.172 299.173 191.178 289.7 190.235C253.065 187.172 216.814 187.332 180.553 188.605C170.748 188.949 160.958 189.715 150.704 190.388C142.744 191.194 135.241 191.9 127.004 192.886C123.872 193.183 121.473 193.2 119.074 193.216C117.54 188.754 116.007 184.291 114.448 179.455C122.791 178.398 131.159 177.714 140.414 176.934C155.995 175.928 170.688 175.017 185.382 174.107C204.667 174.063 223.953 174.02 244.174 173.988C259.814 174.625 274.519 175.252 289.671 175.969C296.212 176.425 302.307 176.79 308.401 177.156C316.35 177.814 324.3 178.472 332.687 179.108C332.243 183.883 331.359 188.68 329.893 193.821C325.287 193.833 321.262 193.499 317.238 193.165Z" fill="#3B3533"/>
<path d="M289.224 175.879C274.519 175.252 259.814 174.625 244.629 173.929C246.235 167.949 248.322 162.037 250.479 155.727C263.714 156.396 276.982 156.978 289.167 164.22C289.292 168.623 289.258 172.251 289.224 175.879Z" fill="#FDB733"/>
<path d="M185.223 173.802C170.688 175.017 155.994 175.928 140.881 176.85C150.961 168.113 163.354 163.53 176.824 160.408C179.818 164.709 182.441 169.103 185.223 173.802Z" fill="#FBB535"/>
<path d="M98.8763 44.9087C104.811 41.2773 107.619 36.0503 108.843 29.4576C111.276 38.6012 117.05 44.1643 127.687 46.2254C116.498 49.3969 111.998 56.3993 109.925 65.8173C107.081 57.3896 101.893 51.1282 93.5078 46.7454C95.8618 45.9756 97.2079 45.5355 98.8763 44.9087Z" fill="#FFB833"/>
<path d="M442.935 270.666C439.826 278.764 437.373 286.72 433.72 294.08C430.319 300.933 423.736 302.643 416.314 302.099C414.231 301.946 411.689 302.87 409.959 304.127C405.677 307.239 401.774 310.868 397.642 314.194C396.87 314.815 395.74 314.991 394.25 314.564C399.546 310.086 404.842 305.608 410.157 301.113C402.265 292.627 400.935 288.251 404.449 283.547C407.052 280.063 411.263 278.958 415.035 281.123C424.331 286.459 418.496 292.871 415.671 298.811C421.534 301.221 427.598 299.278 431.254 294.189C438.153 284.586 440.341 273.362 442.233 262.06C442.824 258.528 443.047 254.935 443.557 250.3C440.838 252.225 439.068 253.478 437.297 254.732C436.911 254.29 436.525 253.848 436.138 253.406C438.895 250.88 441.652 248.353 444.887 245.388C447.223 248.704 449.126 251.406 451.029 254.107C450.744 254.416 450.459 254.725 450.173 255.034C448.778 253.867 447.382 252.699 445.723 251.311C444.826 257.716 443.947 263.99 442.935 270.666ZM417.398 286.491C416.938 285.805 416.605 284.688 415.995 284.508C413.506 283.771 410.326 282.157 408.553 283.079C406.619 284.086 404.533 287.953 405.074 289.836C405.934 292.829 408.92 295.211 411.006 297.852C412.734 296.327 414.865 295.062 416.068 293.198C417.147 291.526 417.205 289.194 417.398 286.491Z" fill="#393434"/>
<path d="M21.2567 296.067C25.4291 301.322 29.4044 306.367 36.6772 306.113C38.258 306.057 39.8229 305.549 41.9143 305.15C40.3971 302.871 39.1632 301.158 38.0762 299.357C35.8546 295.675 34.984 292.031 38.4413 288.471C41.5578 285.262 45.081 284.014 49.2192 286.187C52.3453 287.828 54.4329 293.978 52.7939 297.742C51.517 300.674 49.3737 303.229 47.3898 306.301C49.8573 308.12 52.6054 310.242 55.4548 312.218C58.2447 314.153 61.1379 315.94 63.4971 318.88C62.5695 318.624 61.4987 318.583 60.7378 318.076C56.3359 315.145 52.098 311.958 47.6076 309.176C45.8865 308.11 43.5729 307.186 41.653 307.386C29.4053 308.66 23.1578 305.998 18.2914 294.69C14.128 285.015 11.484 274.686 8.18813 264.64C7.7281 263.238 7.38377 261.798 6.85396 259.904C5.58649 261.333 4.53614 262.518 3.48579 263.702C3.08672 263.451 2.68765 263.2 2.28857 262.948C3.96298 260.457 5.99421 255.707 7.24361 255.905C10.7262 256.455 13.8845 259.057 17.1709 260.849C16.8189 261.473 16.4669 262.098 16.1149 262.723C14.0307 261.5 11.9464 260.278 9.27321 258.71C11.429 272.028 14.6084 284.394 21.2567 296.067ZM47.3269 302.484C48.6204 300.427 50.5154 298.521 51.0795 296.281C52.1774 291.919 49.1374 287.486 45.5261 287.251C42.1476 287.031 38.1641 290.802 38.3294 294.063C38.5466 298.346 43.2413 303.257 47.3269 302.484Z" fill="#393434"/>
<path d="M155.91 73.187C157.078 75.435 157.815 77.9003 158.811 80.2558C159.947 82.9388 161.313 85.5238 162.802 88.3199C164.081 92.4858 165.137 96.4834 166.196 100.87C152.518 101.819 150.916 95.7054 148.391 86.2257C147.085 81.322 150.161 76.2203 155.91 73.187Z" fill="#CF7352"/>
<path d="M272.251 83.3857C273.476 79.2382 274.702 75.504 276.106 71.4254C282.274 72.1383 283.935 74.3583 284.331 80.1622C285.275 94.0096 277.585 99.0262 268.763 99.203C269.655 94.0929 270.953 88.946 272.251 83.3857Z" fill="#CF7352"/>
<path d="M285.018 131.888C282.782 135.62 280.81 139.09 279.32 141.713C276.143 137.627 272.25 132.617 268.309 127.547C273.218 125.847 277.667 122.183 278.064 114.857C280.53 121.34 284.413 125.876 291.352 127.445C289.137 128.971 287.21 130.298 285.018 131.888Z" fill="#FFB833"/>
<path d="M142.04 156.746C141.519 157.923 141.178 158.778 141.141 158.872C137.619 154.722 133.849 150.28 130.39 146.205C133.434 142.7 137.06 138.525 140.707 134.327C142.741 138.879 145.768 144.287 154.174 145.162C147.973 147.946 143.552 150.707 142.04 156.746Z" fill="#FFB833"/>
<path d="M289.67 175.969C289.258 172.251 289.292 168.623 289.345 164.536C296.637 166.715 303.151 170.516 308.339 176.799C302.306 176.79 296.212 176.425 289.67 175.969Z" fill="#D78F70"/>
<path d="M14.6592 234.025C15.0663 233.966 15.7696 233.958 16.3097 234.095C15.7495 234.185 15.3524 234.13 14.6592 234.025Z" fill="#3B3635"/>
<path d="M219.701 110.815C213.97 111.307 210.214 109.171 207.603 103.486C214.627 103.486 220.94 103.486 227.527 103.486C226.786 107.516 223.835 109.501 219.701 110.815Z" fill="#FCF7F5"/>
<path d="M188.188 101.337C184.72 101.697 181.33 102.574 178.414 101.758C174.869 100.766 174.744 96.2448 178.241 95.2208C181.244 94.3416 184.852 95.1595 188.074 95.8137C188.546 95.9096 188.358 99.2591 188.188 101.337Z" fill="#CF7352"/>
<path d="M241.027 73.4391C238.139 73.5681 234.446 77.0462 233.511 73.0051C232.492 68.6008 237.383 68.929 240.171 68.4495C245.008 67.6175 249.597 68.5926 254.186 72.4148C249.422 72.7576 245.434 73.0444 241.027 73.4391Z" fill="#443A38"/>
<path d="M248.756 102.119C246.862 100.6 245.37 99.1121 243.878 97.6241C245.892 96.4571 247.903 95.2863 249.924 94.1322C250.05 94.0603 250.25 94.1164 250.416 94.1187C253.431 94.1623 257.365 93.933 257.569 97.7065C257.787 101.723 253.992 102.213 250.652 102.176C250.155 102.17 249.657 102.159 248.756 102.119Z" fill="#CF7352"/>
<path d="M247.58 86.6282C245.31 88.0336 243.215 89.7046 240.997 89.8868C239.88 89.9786 237.78 87.499 237.516 85.9461C237.251 84.3841 238.287 82.0197 239.551 80.9563C240.654 80.0279 243.577 79.6295 244.439 80.4011C246.017 81.8135 246.668 84.262 247.58 86.6282Z" fill="#3B3635"/>
<path d="M194.927 88.8203C191.111 90.7902 188.386 89.8145 186.902 86.3249C185.551 83.1516 187.046 80.2438 190.072 79.727C192.07 79.3859 195.16 80.8498 196.436 82.5185C197.267 83.6048 195.719 86.5108 194.927 88.8203Z" fill="#443A38"/>
<path d="M183.628 70.1644C188.471 69.6368 192.977 69.0479 197.484 69.0395C198.428 69.0377 199.376 71.1747 200.322 72.3262C199.003 72.9047 197.666 74.0119 196.368 73.9693C191.02 73.7939 185.683 73.2692 179.884 72.839C181.095 71.94 182.194 71.1248 183.628 70.1644Z" fill="#443A38"/>
<path d="M200.896 133.14C200.895 133.214 200.656 133.135 200.656 133.135C200.656 133.135 200.898 133.066 200.896 133.14Z" fill="#D78F70"/>
<path d="M217.765 136.64C217.785 136.632 217.744 136.648 217.765 136.64Z" fill="#D78F70"/>
<path d="M119.132 193.658C121.472 193.2 123.872 193.183 126.717 193.186C124.945 201.922 122.728 210.64 120.582 219.078C117.597 216.543 116.392 210.472 117.685 205.109C118.549 201.527 118.713 197.775 119.132 193.658Z" fill="black"/>
<path d="M136.128 255.404C138.181 261.243 140.097 266.735 142.013 272.228C141.598 272.364 141.184 272.501 140.769 272.638C138.2 265.497 135.631 258.356 133.062 251.215C133.378 251.085 133.693 250.956 134.008 250.827C134.669 252.237 135.329 253.647 136.128 255.404Z" fill="#705349"/>
<path d="M317.264 193.561C321.262 193.499 325.287 193.833 329.739 194.185C330.203 194.865 330.056 195.607 330.303 196.178C334.56 206.014 331.124 214.515 325.301 223.264C322.559 213.232 319.925 203.594 317.264 193.561Z" fill="black"/>
<path d="M313.084 255.121C312.085 259.223 311.215 262.946 310.3 266.657C310.241 266.898 309.834 267.052 308.512 268.1C310.274 260.683 311.785 254.323 313.297 247.963C313.76 248.041 314.224 248.119 314.688 248.196C314.193 250.377 313.698 252.558 313.084 255.121Z" fill="#705349"/>
<path d="M15.1316 224.138C15.4124 224.549 15.4936 224.934 15.5748 225.319C15.3105 225.303 15.0461 225.286 14.7817 225.27C14.8318 224.884 14.8819 224.499 15.1316 224.138Z" fill="#3B3635"/>
<path d="M10.4895 195.28C10.512 195.778 10.3747 196.134 10.2374 196.49C10.0178 196.307 9.7982 196.124 9.57861 195.941C9.82896 195.673 10.0793 195.406 10.4895 195.28Z" fill="#3B3635"/>
<path d="M12.9526 211.396C13.0127 211.092 13.1852 210.909 13.3576 210.726C13.4539 210.83 13.5502 210.933 13.6465 211.037C13.4526 211.197 13.2588 211.357 12.9526 211.396Z" fill="#3B3635"/>
<path d="M12.5881 205.886C12.5286 206.186 12.358 206.367 12.1874 206.547C12.0927 206.445 11.998 206.342 11.9033 206.239C12.0945 206.081 12.2858 205.924 12.5881 205.886Z" fill="#3B3635"/>
<path d="M11.0195 200.822C11.3195 200.88 11.5001 201.05 11.6806 201.22C11.5784 201.315 11.4762 201.41 11.374 201.505C11.216 201.314 11.058 201.124 11.0195 200.822Z" fill="#3B3635"/>
<path d="M8.31053 186.732C8.48572 186.984 8.49518 187.233 8.50463 187.481C8.36442 187.478 8.2242 187.474 8.08398 187.471C8.10426 187.223 8.12453 186.975 8.31053 186.732Z" fill="#3B3635"/>
<path d="M9.15743 191.573C9.21133 191.512 9.40011 191.73 9.40011 191.73C9.40011 191.73 9.10353 191.635 9.15743 191.573Z" fill="#3B3635"/>
<path d="M417.555 286.822C417.205 289.194 417.147 291.526 416.068 293.198C414.865 295.062 412.733 296.327 411.006 297.852C408.92 295.211 405.934 292.829 405.074 289.836C404.532 287.953 406.619 284.086 408.552 283.079C410.326 282.157 413.506 283.771 415.995 284.508C416.605 284.688 416.937 285.805 417.555 286.822Z" fill="black"/>
<path d="M47.0484 302.688C43.2416 303.257 38.5468 298.346 38.3297 294.063C38.1644 290.802 42.1479 287.031 45.5263 287.251C49.1376 287.486 52.1777 291.919 51.0798 296.281C50.5157 298.521 48.6207 300.427 47.0484 302.688Z" fill="black"/>
</svg>
