<svg width="451" height="512" viewBox="0 0 451 512" fill="none" xmlns="http://www.w3.org/2000/svg">
<path d="M91.2793 473.493C91.3141 474.8 91.349 476.106 90.9637 477.785C86.4831 476.392 82.4011 474.276 78.6264 478.794C84.7951 476.386 89.1617 479.746 93.5147 483.154C93.8324 485.771 94.1501 488.388 94.142 491.345C89.6572 489.132 85.2872 487.822 79.4077 488.614C85.475 491.011 90.3763 492.948 95.2776 494.885C95.6556 500.282 96.0335 505.679 96.4128 511.538C94.6997 512 92.9854 512 90.8425 512C87.5947 509.607 84.8499 507.118 81.9431 504.836C69.5425 495.101 57.109 485.408 44.6536 475.743C40.9748 472.888 41.0148 469.334 43.7535 466.399C48.8139 460.978 54.4197 456.065 60.4249 451.042C69.3667 460.975 80.4076 467.12 91.2793 473.493Z" fill="#6C507A"/>
<path d="M384.964 0C386.507 4.59031 387.6 9.18062 388.977 14.9607C389.783 10.3456 390.45 6.52336 391.116 2.70827C394.039 4.9075 394.129 5.34611 393.236 12.9042C396.809 13.2387 400.42 13.5767 404.03 13.9147C404.016 14.4637 404.001 15.0127 403.986 15.5617C399.747 16.4334 395.508 17.3051 391.269 18.1769C391.307 18.8046 391.346 19.4324 391.384 20.0602C393.057 20.0602 394.932 19.5705 396.362 20.1609C399.45 21.4368 403.07 22.625 405.09 25.0168C408.285 28.8015 405.852 33.5213 400.872 33.833C397.899 34.0191 396.642 34.7327 396.036 37.942C395.14 42.6886 390.38 43.529 386.946 39.9271C382.544 35.3092 382.311 26.6529 386.3 21.6125C387.208 20.4648 387.591 18.9014 387.594 17.0113C384.585 21.8573 379.948 23.2604 375.522 21.6519C371.805 20.3013 368.326 17.2271 365.752 14.0878C362.994 10.7245 365.132 6.42654 369.339 6.91278C374.715 7.5341 375.346 4.26832 376.402 0.375252C379.114 1.99676e-06 381.814 2e-06 384.964 0ZM396.769 31.3102C398.933 31.0651 401.195 31.0883 403.188 30.3687C403.634 30.2078 403.622 27.1999 402.982 25.9222C401.365 22.6901 393.177 20.7053 389.397 22.5506C384.856 24.7675 385.018 28.6987 386.17 32.7981C386.525 34.0611 386.836 35.482 387.635 36.4395C388.721 37.7411 390.198 38.7708 391.676 39.6258C391.865 39.7356 393.656 38.1126 393.673 37.2713C393.709 35.4958 393.279 33.6224 392.631 31.9476C392.047 30.4398 390.88 29.1632 390.118 27.7072C390.069 27.6144 391.755 26.3715 391.865 26.4754C393.113 27.6586 394.211 28.9994 395.349 30.2991C395.564 30.5454 395.775 30.7959 396.769 31.3102ZM377.186 15.6386C376.551 14.5244 376.134 13.1711 375.231 12.3509C373.8 11.0499 372.145 9.86595 370.377 9.13046C369.695 8.84683 367.548 10.1667 367.596 10.3442C368.082 12.1484 368.55 14.1412 369.69 15.5355C370.893 17.0067 372.701 18.1393 374.457 18.9726C379.531 21.3805 383.128 19.7511 384.628 14.2538C385.267 11.912 385.953 9.08474 385.189 7.00171C384.458 5.00893 381.875 3.69545 380.106 2.0834C379.091 4.18734 377.789 6.21688 377.215 8.4348C377.008 9.23264 378.546 10.4886 379.299 11.527C380.811 13.6128 380.75 15.1857 377.186 15.6386Z" fill="#2F2231"/>
<path d="M201.986 9.44567e-09C203.74 1.97702 205.451 3.80202 206.303 5.96557C207.689 9.48644 206.501 13.1747 203.084 14.1856C200.425 14.9722 196.288 14.4072 194.237 12.7127C191.49 10.442 191.377 6.57799 194.384 3.49817C195.169 2.69499 195.703 1.64761 196.383 0.356193C198.129 -2.05636e-06 199.843 -1.99055e-06 201.986 9.44567e-09ZM202.328 11.3925C204.459 9.31197 204.268 7.00666 202.076 5.45206C200.906 4.62274 198.553 4.41226 197.321 5.05248C196.329 5.56804 195.489 8.81715 195.841 9.06479C197.589 10.2954 199.754 10.9336 202.328 11.3925Z" fill="#241726"/>
<path d="M373.377 407.153C358.642 407.153 343.908 407.153 328.549 407.153C328.952 407.613 328.558 407.374 328.548 407.121C328.148 397.201 327.75 387.28 327.422 377.358C327.05 366.101 326.769 354.842 326.403 343.585C326.108 334.493 325.701 325.406 325.424 316.313C325.047 303.895 324.718 291.475 324.42 279.054C324.057 263.969 323.787 248.883 323.4 233.799C323.128 223.212 322.727 212.628 322.647 201.295C330.237 199.631 337.564 198.713 345.237 197.958C353.179 198.009 360.78 198.002 368.367 197.661C369.394 197.615 370.346 195.894 371.372 194.487C370.742 186.966 370.577 179.802 369.145 172.901C368.603 170.286 365.517 167.012 362.935 166.246C356.984 164.479 350.631 164.064 344.071 162.997C336.537 159.872 330.157 161.597 324.014 166.066C323.792 166.023 323.344 165.954 323.344 165.954C324.698 151.441 326.081 136.932 327.386 122.415C327.747 118.41 329.604 117.138 333.754 116.854C347.309 115.929 360.796 113.83 374.356 113.209C389.089 112.535 403.922 110.189 418.622 113.95C424.834 115.54 426.001 116.926 426.422 123.771C427.4 139.707 428.438 155.64 429.411 171.577C430.113 183.088 430.805 194.601 431.401 206.118C432.127 220.128 432.84 234.14 433.393 248.158C434.149 267.33 434.912 286.504 435.372 305.684C435.893 327.422 436.396 349.171 436.262 370.911C436.207 379.844 434.135 388.747 433.632 397.701C433.376 402.261 430.451 403.438 427.356 403.846C419.393 404.897 411.35 405.336 402.437 405.95C392.15 406.304 382.763 406.729 373.377 407.153ZM337.073 132.038C365.168 130.765 393.263 129.493 422.714 128.159C416.602 125.158 330.644 129.189 327.634 132.058C330.607 132.058 333.373 132.058 337.073 132.038ZM367.842 386.862C386.21 385.914 404.578 384.966 422.946 384.018C422.904 383.316 422.861 382.615 422.819 381.913C393.931 383.253 365.044 384.593 336.157 385.932C336.182 386.256 336.208 386.579 336.233 386.902C346.443 386.902 356.653 386.902 367.842 386.862ZM340.793 215.016C340.904 215.922 341.016 216.828 341.127 217.734C341.773 217.669 342.419 217.604 343.065 217.538C342.802 214.161 342.539 210.784 342.275 207.407C341.695 207.449 341.115 207.491 340.535 207.534C340.674 209.748 340.814 211.962 340.793 215.016ZM417.473 353.03C417.682 355.828 417.892 358.625 418.101 361.423C418.693 361.396 419.286 361.37 419.878 361.343C419.704 358.286 419.539 355.228 419.275 352.179C419.271 352.129 418.055 352.185 417.473 353.03Z" fill="#E77C92"/>
<path d="M231.397 208.014C228.411 217.417 225.8 226.959 222.34 236.184C218.429 246.611 213.532 256.665 209.512 267.056C207.595 272.011 203.895 272.34 199.412 272.133C199.794 274.38 200.115 276.259 200.14 278.786C186.608 280.287 173.369 281.103 160.136 282.008C154.171 282.417 148.183 282.749 142.266 283.559C127.957 285.517 113.685 287.735 99.3973 289.849C99.7358 276.608 100.348 263.365 100.259 250.127C100.229 245.72 99.1544 240.967 97.2612 236.989C90.2509 222.259 87.0858 206.804 88.5512 190.692C89.8658 176.239 95.338 163.731 109.728 157.397C112.784 156.052 116.309 155.769 120.267 155.288C122.001 155.942 123.063 156.436 124.177 156.643C128.805 157.503 134.03 157.211 137.946 159.343C143.222 162.215 147.963 166.494 152.108 170.939C164.251 183.963 172.129 199.861 181.017 215.083C183.309 219.009 183.914 222.352 182.329 226.676C181.2 229.758 181.425 233.337 181.045 236.694C181.678 236.746 182.311 236.798 182.945 236.85C183.059 235.32 182.979 233.743 183.328 232.268C184.09 229.057 184.105 224.935 186.139 222.894C192.667 216.344 195.288 207.914 198.604 199.844C205.111 184.011 211.217 168.013 217.489 152.083C220.248 152.382 222.312 151.53 223.166 148.663C223.211 148.51 223.299 148.369 223.379 148.229C228.483 139.264 230.447 138.646 239.609 143.689C243.269 145.703 246.697 148.138 250.028 150.883C249.056 155.396 248.287 159.408 247.409 163.982C252.083 160.604 251.327 156.065 251.38 151.79C253.156 153.123 254.932 154.457 257.054 156.361C256.848 159.596 256.836 162.544 255.618 164.857C253.866 168.183 251.461 171.247 248.941 174.072C240.98 182.996 235.892 193.534 231.466 204.456C231.05 205.483 231.401 206.821 231.397 208.014ZM176.035 264.007C149.578 252.013 128.429 232.702 107.031 213.613C107.075 214.825 107.433 215.686 108.047 216.288C125.901 233.823 144.784 250.062 166.981 261.962C170.164 263.669 170.815 265.351 169.692 268.629C168.7 271.526 168.424 274.669 167.832 277.703C168.349 277.811 168.866 277.919 169.382 278.027C170.536 273.854 171.689 269.68 172.87 265.407C177.378 266.931 181.538 268.684 185.87 269.701C190.044 270.681 194.397 270.901 198.671 271.455C198.703 271.12 198.735 270.784 198.766 270.449C191.426 268.399 184.086 266.349 176.035 264.007ZM233.679 150.563C232.645 152.311 231.61 154.059 230.117 156.582C235.388 153.894 237.479 149.657 236.033 146.065C235.801 146.274 235.468 146.439 235.354 146.7C234.885 147.764 234.483 148.857 233.679 150.563Z" fill="#E4554A"/>
<path d="M99.0577 290.05C113.685 287.735 127.958 285.517 142.266 283.559C148.183 282.749 154.171 282.417 160.136 282.008C173.369 281.103 186.608 280.287 200.186 279.196C206.266 280.901 208.867 285.964 211.241 290.744C215.03 298.373 218.023 306.396 221.416 314.224C222.373 316.431 223.553 318.542 224.521 320.981C217.621 317.913 210.832 314.561 204.001 311.188C208.157 303.988 204.726 290.585 196.803 283.81C197.778 286.236 198.267 287.51 198.798 288.767C200.475 292.735 202.355 296.632 203.767 300.691C204.385 302.467 204.939 305.466 204.013 306.377C199.072 311.242 203.533 312.904 206.625 314.779C214.108 319.314 221.73 323.619 229.296 328.017C229.327 329.73 229.358 331.443 229.032 333.74C217.526 350.946 202.684 363.485 185.191 373.325C184.509 373.736 184.117 374.236 183.345 374.85C175.345 379.411 168.104 377.492 161.37 373.146C154.259 368.557 147.486 363.444 140.565 358.561C133.792 353.487 127.024 348.406 120.24 343.347C119.33 342.668 118.42 341.873 117.379 341.507C102.386 336.238 99.876 323.103 97.4233 309.941C96.1817 303.279 95.8108 296.651 99.0577 290.05ZM120.64 294.394C119.165 302.836 122.181 309.842 127.926 315.727C131.167 319.047 134.789 322.035 138.462 324.886C155.538 338.137 172.69 351.289 189.837 364.447C189.968 364.548 190.404 364.252 191.944 363.673C188.221 360.246 185.141 356.931 181.593 354.228C165.841 342.227 149.855 330.532 134.161 318.458C126.304 312.413 120.714 304.961 123.011 294.093C122.312 293.949 121.613 293.804 120.64 294.394Z" fill="#B389AB"/>
<path d="M179.225 156.856C176.694 157.142 174.164 157.427 171.548 157.072C177.293 152.232 179.013 148.028 176.299 142.447C176.43 151.306 171.994 155.579 163.48 155.958C155.506 153.423 148.954 149.399 143.935 143.109C139.25 137.236 137.008 131.032 139.615 123.289C142.307 115.295 141.855 106.999 139.508 98.5257C139.13 96.931 138.79 95.67 138.47 94.0146C137.078 91.0735 135.666 88.5267 134.255 85.9799C133.13 78.5791 132.004 71.1784 130.793 63.21C125.467 62.2033 122.961 57.045 121.004 51.3369C112.604 50.4831 111.53 49.0965 111.379 40.1538C111.175 27.9513 115.908 21.1925 124.408 19.7089C129.207 18.8712 132.514 17.1334 135.619 13.4621C139.502 8.86887 149.031 10.125 153.359 15.8134C155.46 18.5747 156.553 22.0847 158.524 24.9676C160.711 28.1672 162.852 31.4395 167.803 31.0647C182.863 29.9249 195.201 36.0569 205.347 46.6171C210.152 51.6182 213.439 57.6737 209.192 65.4527C203.37 70.5009 197.291 71.1384 190.903 69.2789C184.079 67.2928 177.357 64.9578 170.59 62.7748C166.24 61.3713 162.121 61.5721 157.982 64.3492C148.826 64.4882 142.214 62.2154 142.969 50.984C140.235 57.4758 142.219 62.8866 147.82 64.8148C150.849 65.8576 154.289 65.708 157.47 66.4614C156.365 69.974 155.22 73.09 154.33 76.2771C153.081 80.7484 152.627 85.5418 150.766 89.7222C145.779 100.922 149.638 111.14 153.824 121.186C155.684 125.65 159.293 125.869 163.234 122.787C165.585 120.947 167.716 118.827 170.008 116.908C181.736 107.086 198.649 113.216 201.524 128.126C201.924 130.204 204.086 131.943 205.433 133.839C211.214 138.895 211.527 142.547 205.445 147.301C199.045 152.305 191.474 155.108 183.019 155.644C187.755 150.486 188.666 146.288 186.246 143.988C184.598 147.181 182.836 150.649 181.017 154.088C180.505 155.056 179.827 155.936 179.225 156.856ZM127.521 45.6937C128.646 45.1527 130.186 44.8929 130.793 43.9994C131.546 42.8898 132.181 40.8838 131.652 39.9581C131.166 39.1057 129.016 38.7932 127.706 38.9819C126.979 39.0865 126.47 40.7039 125.856 41.649C121.915 38.654 120.746 35.6716 122.501 31.943C124.596 27.4935 130.268 25.2361 135.985 26.3455C135.835 28.3242 135.157 30.4443 135.697 32.1866C136.175 33.7283 138.009 34.8496 139.244 36.1564C140.097 34.7292 141.374 33.3886 141.687 31.8515C142.029 30.1704 141.48 28.3077 141.251 25.7583C144.242 26.255 147.1 26.1121 149.256 27.2734C151.149 28.2928 152.255 30.7739 153.621 32.5003C155.151 28.9582 154.782 26.7826 150.859 25.6212C142.92 23.2707 134.714 22.6104 126.678 25.3805C124.898 25.9939 123.267 27.502 121.969 28.9565C118.541 32.798 118.956 37.6545 122.231 41.6421C123.739 43.4783 124.187 46.1479 125.503 48.1902C126.84 50.2653 128.322 52.7077 130.368 53.712C131.872 54.4505 134.387 53.1309 136.451 52.7284C136.343 52.3286 136.234 51.9287 136.125 51.5289C128.976 52.3401 128.477 52.0508 127.521 45.6937ZM157.406 44.5208C161.489 42.7101 165.413 40.2504 169.683 39.2085C183.284 35.8902 193.799 43.6006 197.268 58.8853C197.773 61.1121 198.322 63.329 198.851 65.5505C199.575 65.3358 200.298 65.1211 201.021 64.9064C199.29 59.5737 198.16 53.9446 195.707 48.9682C190.075 37.5462 177.32 33.2017 165.599 38.1753C162.86 39.3377 160.369 41.454 157.553 41.9601C154.993 42.4203 152.146 41.2883 149.426 40.8581C149.255 41.3035 149.085 41.7489 148.915 42.1942C151.497 43.0354 154.079 43.8766 157.406 44.5208ZM154.481 54.5716C159.534 53.6864 164.566 52.6382 169.646 51.9525C178.093 50.8121 182.753 53.5467 186.278 61.3212C186.802 62.4765 187.436 63.5819 188.019 64.7104C188.24 57.2168 183.044 50.6907 176.167 49.8908C172.008 49.4072 167.515 49.9681 163.436 51.0525C156.953 52.776 151.306 53.3483 147.836 46.1312C147.808 46.0739 147.257 46.2683 146.954 46.3572C148.068 51.0742 149.101 52.2972 154.481 54.5716ZM136.005 61.4202C133.687 74.0035 140.671 84.6577 150.958 82.0319C137.538 78.8755 135.919 69.975 137.544 59.0001C137.106 59.5392 136.668 60.0783 136.005 61.4202ZM187.654 131.619C188.953 127.922 190.253 124.225 191.552 120.529C190.976 120.331 190.4 120.134 189.823 119.936C188.626 123.322 187.428 126.708 185.875 131.098C182.912 126.823 180.537 123.396 178.161 119.968C177.721 120.256 177.281 120.544 176.841 120.832C179.343 125.013 180.948 129.756 185.43 132.682C185.764 132.899 186.59 132.362 187.654 131.619ZM156.194 149.48C162.99 150.345 169.33 146.026 168.924 142.068C164.933 144.181 160.594 146.477 156.194 149.48Z" fill="#F2C101"/>
<path d="M185.481 373.415C202.684 363.485 217.526 350.946 228.962 334.163C234.756 340.267 240.279 346.518 245.754 352.812C246.695 353.893 247.428 355.154 248.279 357.04C250.8 364.839 253.299 371.93 255.798 379.021C255.403 379.307 255.008 379.593 254.614 379.879C248.449 374.529 242.284 369.18 236.119 363.831C237.546 368.314 251.521 381.386 255.033 381.985C255.994 382.149 257.256 380.539 258.38 379.744C265.15 396.909 270.42 414.441 271.046 433.578C257.535 435.441 244.405 436.742 231.274 438.044C221.271 416.536 206.283 398.493 191.234 380.498C190.617 379.759 189.704 379.268 188.441 378.842C187.768 378.875 187.586 378.721 187.746 378.299C187.218 376.496 186.349 374.956 185.481 373.415Z" fill="#E4554A"/>
<path d="M187.407 378.561C187.586 378.721 187.769 378.875 187.92 379.004C192.234 382.315 190.234 385.674 187.446 388.362C176.169 399.235 164.736 409.947 153.267 420.618C150.07 423.593 146.552 426.223 142.811 429.024C142.439 429.036 142.461 429.041 142.328 428.7C146 423.092 149.804 417.825 153.608 412.558C153.112 412.205 152.617 411.853 152.121 411.5C148.222 416.628 144.324 421.757 140.426 426.885C139.93 426.654 139.434 426.423 138.937 426.192C140.784 418.273 142.631 410.355 144.478 402.436C143.804 402.287 143.13 402.138 142.456 401.989C140.714 409.753 138.936 417.509 137.248 425.284C136.514 428.66 138.214 430.085 141.468 430.046C141.481 430.039 141.498 430.07 141.498 430.07C135.328 435.059 129.158 440.048 122.355 444.991C114.195 437.773 106.756 430.503 99.1021 423.468C95.3907 420.057 91.2756 417.086 87.3433 413.915C96.0812 405.722 104.951 397.664 113.522 389.3C123.128 379.925 133.2 370.914 140.26 358.796C147.486 363.444 154.259 368.557 161.37 373.146C168.104 377.492 175.345 379.411 183.645 375.004C185.352 376.216 186.38 377.389 187.407 378.561Z" fill="#E4554A"/>
<path d="M344.891 197.795C337.565 198.713 330.238 199.631 322.615 200.84C304.326 201.76 286.322 202.17 268.346 203.103C258.548 203.612 248.793 204.986 239.025 206.028C237.423 206.199 235.853 206.667 233.804 206.622C238.113 197.178 242.584 187.933 247.768 179.105C251.113 173.409 255.503 168.326 259.424 162.968C264.566 162.978 269.714 162.82 274.847 163.029C288.985 163.606 303.119 164.31 317.25 165.038C319.008 165.128 320.743 165.662 322.916 165.972C323.345 165.954 323.792 166.023 324.245 166.34C325.944 166.368 327.255 166.239 328.426 165.765C338.366 161.746 343.273 162.939 349.613 171.457C351.676 174.228 353.374 177.343 354.772 180.507C355.55 182.268 355.365 184.453 355.614 186.448C355.172 186.695 354.73 186.941 354.288 187.188C350.72 184.073 347.172 180.937 343.578 177.851C340.847 175.506 338.383 174.755 336.659 179.015C335.962 180.735 334.915 182.314 334.028 183.958C333.429 183.327 334.709 184.084 335.048 183.783C336.907 182.131 338.536 180.22 340.538 178.085C342.404 179.785 344.308 181.52 345.81 182.889C344.623 184.761 342.694 186.553 343.041 187.569C343.486 188.873 345.657 189.821 347.27 190.436C349.381 191.241 351.672 191.569 353.452 191.998C350.624 193.913 347.758 195.854 344.891 197.795ZM251.672 180.806C246.389 187.82 245.982 192.627 249.994 196.435C250.233 193.093 249.724 189.185 250.966 185.948C252.185 182.773 255.184 180.28 257.401 177.488C257.131 177.218 256.86 176.949 256.59 176.679C255.113 177.873 253.635 179.068 251.672 180.806Z" fill="#E4554A"/>
<path d="M404.466 467.869C416.457 467.913 428.447 467.962 440.438 467.997C447.114 468.016 449.607 469.276 450.003 475.82C450.394 482.28 449.139 488.91 447.92 495.335C447.692 496.538 444.254 497.809 442.25 497.889C428.654 498.435 415.046 498.675 401.442 499.003C387.334 499.342 373.224 499.989 359.119 499.884C350.06 499.816 341.001 498.718 331.958 497.908C328.199 497.571 326.342 495.551 326.321 491.4C326.289 484.85 327.05 478.607 330.074 472.696C331.434 470.038 333.136 468.866 336.295 468.921C347.784 469.121 359.279 469.043 370.771 468.958C372.709 468.944 374.642 468.383 377.295 468.358C386.83 468.384 395.648 468.126 404.466 467.869Z" fill="#6B4F7A"/>
<path d="M205.587 133.506C204.086 131.943 201.924 130.204 201.523 128.126C198.649 113.216 181.736 107.086 170.007 116.908C167.715 118.828 165.585 120.947 163.233 122.787C159.293 125.869 155.684 125.65 153.824 121.186C149.637 111.14 145.779 100.922 150.765 89.7223C152.627 85.5419 153.081 80.7485 154.33 76.2772C155.22 73.09 156.365 69.9741 157.621 66.2919C158.029 65.3473 158.213 64.9372 158.397 64.5271C162.12 61.5722 166.24 61.3714 170.59 62.7749C177.357 64.9579 184.079 67.2929 190.903 69.279C197.291 71.1384 203.37 70.501 208.91 65.6925C210.293 70.8675 212.068 76.182 212.281 81.5582C212.973 99.0822 211.939 116.479 205.587 133.506ZM196.828 108.01C194.215 101.276 191.601 94.5408 188.987 87.806C188.384 88.0481 187.781 88.2903 187.178 88.5324C189.943 95.8004 192.708 103.068 195.773 111.125C191.106 110.116 187.398 109.314 183.69 108.512C183.58 109.095 183.469 109.677 183.358 110.26C188.008 111.523 192.657 112.786 198.284 114.314C197.768 111.795 197.453 110.257 196.828 108.01ZM205.324 98.45C205.245 97.0326 205.166 95.6151 205.087 94.1976C204.684 94.2106 204.281 94.2237 203.878 94.2367C203.33 97.2211 202.781 100.205 202.233 103.19C201.991 103.168 201.748 103.146 201.506 103.124C200.649 99.9548 199.793 96.7858 198.936 93.6167C198.373 93.7906 197.809 93.9645 197.245 94.1384C198.604 98.8733 198.123 104.173 203.007 109.517C203.95 105.217 204.598 102.263 205.324 98.45ZM172.966 102.462C173.79 102.534 175.234 102.884 175.345 102.636C177.248 98.3885 177.797 93.9855 177.332 89.5267C176.886 89.4724 176.441 89.4182 175.996 89.364C175.487 92.3597 174.979 95.3554 174.224 99.8018C172.887 95.1872 171.981 92.0565 171.075 88.9259C170.499 89.0876 169.923 89.2494 169.347 89.4112C170.427 93.5606 171.506 97.7101 172.966 102.462Z" fill="#E45549"/>
<path d="M139.546 98.8592C141.855 106.999 142.306 115.295 139.615 123.289C137.008 131.032 139.249 137.236 143.935 143.109C148.953 149.399 155.505 153.423 163.459 156.239C164.279 157.125 164.766 157.577 165.253 158.029C172.233 160.001 179.111 162.918 186.221 163.691C193.845 164.519 201.689 163.33 209.832 163.425C206.551 173.477 202.876 183.127 198.815 193.789C191.639 170.395 191.307 169.705 186.88 168.473C198.491 192.255 198.192 210.306 185.771 219.109C172.542 197.075 162.192 172.911 140.107 157.401C140.405 156.927 140.703 156.453 141.001 155.979C149.337 160.01 157.673 164.041 167.108 168.604C166.029 167.036 165.803 166.305 165.337 166.089C156.328 161.906 147.375 157.577 138.197 153.798C136.008 152.896 133.047 153.871 130.44 153.984C131.621 145.611 132.831 137.242 133.971 128.863C134.798 122.777 135.532 116.678 136.305 110.598C123.705 108.336 122.55 107.043 123.412 96.3501C123.893 90.3935 127.909 86.2549 133.859 85.9858C135.666 88.5267 137.078 91.0736 138.162 93.7791C135.983 91.9347 134.079 90.8642 132.375 92.8126C134.044 94.4466 136.783 95.9889 136.662 97.2586C136.448 99.4963 134.49 101.567 133.384 103.495C136.611 104.018 137.123 103.685 139.546 98.8592Z" fill="#E35549"/>
<path d="M87.0334 414.055C91.2752 417.086 95.3904 420.057 99.1017 423.469C106.756 430.504 114.195 437.773 122.015 445.127C122.091 446.623 122.356 448.501 121.581 449.166C115.266 454.581 108.784 459.803 102.295 465.012C98.8798 467.753 95.3495 470.35 91.5752 473.253C80.4074 467.12 69.3666 460.976 60.771 450.939C66.1372 442.317 71.6621 433.816 77.4829 425.522C80.2746 421.544 83.626 417.959 87.0334 414.055ZM108.749 441.201C101.786 434.719 94.8234 428.237 87.8604 421.755C87.4736 422.209 87.0868 422.663 86.7 423.117C95.924 431.82 104.134 441.706 115.13 448.342C115.504 447.906 115.878 447.469 116.252 447.032C113.929 445.243 111.607 443.455 108.749 441.201Z" fill="#F5C401"/>
<path d="M231.004 438.283C244.405 436.742 257.535 435.441 271.074 434.025C272.976 433.911 274.468 433.911 277.383 433.911C277.383 448.704 277.383 463.268 276.92 478.362C263.833 478.912 251.209 478.934 238.585 478.956C236.426 470.41 234.292 461.859 232.098 453.322C231.027 449.155 229.745 445.037 228.824 440.838C228.692 440.235 230.06 439.302 231.004 438.283ZM254.47 447.558C268.71 444.827 271.256 443.76 273.139 439.393C260.674 446.28 246.69 445.713 233.528 448.543C233.621 449.125 233.713 449.706 233.806 450.287C240.414 449.442 247.023 448.598 254.47 447.558Z" fill="#F5C402"/>
<path d="M404.451 467.445C395.648 468.126 386.83 468.384 377.718 468.345C376.763 463.809 375.77 459.589 375.512 455.325C374.948 446.041 374.796 436.733 374.403 427.438C374.13 420.972 373.738 414.511 373.388 407.6C382.763 406.729 392.15 406.304 401.993 406.01C403.111 426.434 403.773 446.728 404.451 467.445Z" fill="#251726"/>
<path d="M238.518 479.368C251.209 478.934 263.833 478.912 276.895 478.813C278.301 479.636 279.271 480.537 280.1 482.031C272.414 484.053 269.917 486.186 270.624 491.439C273.608 485.001 278.817 484.52 284.424 485.015C286.35 486.8 288.275 488.585 289.983 490.852C285.224 492.257 280.875 493.53 277.614 497.243C283.037 496.06 288.035 494.969 293.034 493.879C296.681 497.318 300.785 500.404 303.812 504.323C305.757 506.842 303.139 507.926 300.628 507.998C289.372 508.32 278.118 508.884 266.862 508.924C258.265 508.954 249.668 508.158 241.067 508.068C236.816 508.024 235.18 505.723 235.514 502.202C236.224 494.703 237.441 487.251 238.518 479.368Z" fill="#6C507A"/>
<path d="M276.977 12.1814C286.147 12.0509 290.381 15.071 293.452 23.2659C293.918 24.5072 295.081 25.7324 296.242 26.4281C305.411 31.9175 306.903 39.2689 300.369 47.3978C294.18 55.0962 288.439 56.7787 278.725 53.9272C277.762 53.6447 276.546 54.1573 275.462 54.37C271.253 55.1958 267.072 56.5622 262.838 56.7473C258.678 56.9291 254.668 55.7061 252.198 51.5565C251.465 50.3252 249.872 49.4166 248.479 48.8015C243.188 46.4666 238.714 43.3639 238.566 36.9763C238.419 30.5826 241.363 25.7275 247.353 23.1814C250.221 21.9623 252.26 20.7348 253.105 17.2355C254.15 12.9072 258.273 11.2112 263.167 12.5563C267.729 13.81 272.18 15.9772 276.977 12.1814ZM255.025 18.4614C254.649 20.6847 254.272 22.9081 253.901 25.0969C246.844 24.7031 242.324 28.1515 241.309 34.4797C240.33 40.5844 243.426 44.4688 250.868 46.5737C251.422 44.1898 251.637 41.6453 252.653 39.4765C253.325 38.0408 255.336 36.0717 256.41 36.2609C257.961 36.5342 259.723 38.2976 260.48 39.8666C262.457 43.9657 260.682 46.575 254.385 49.696C258.107 55.3905 268.026 55.81 275.799 50.8567C275.616 48.0484 275.042 45.3957 275.436 42.8957C275.662 41.4624 277.46 40.277 278.551 38.98C279.569 40.2957 281.397 41.586 281.439 42.9323C281.528 45.7553 280.677 48.6078 280.009 52.6892C282.52 52.8448 285.277 53.6441 287.684 53.042C293.842 51.5014 298.154 47.3164 300.751 41.6057C303.518 35.5213 300.83 30.6517 294.946 29.1589C292.418 31.9644 290.383 34.6902 287.833 36.7909C286.976 37.497 284.809 36.6133 283.24 36.4562C283.43 34.9255 283.069 32.8882 283.919 31.9645C285.987 29.7154 288.617 27.9829 291.476 25.6751C290.757 20.9489 287.912 17.1598 282.992 14.9771C279.158 13.2761 275.895 14.4765 272.94 17.304C275.182 21.083 277.942 24.9068 274.129 28.996C273.387 29.7915 270.729 29.8969 269.762 29.2003C264.977 25.7539 268.122 21.5441 269.257 17.6678C262.298 13.707 259.11 13.7366 255.025 18.4614ZM258.779 43.9253C258.315 41.8924 257.852 39.8595 257.388 37.8266C256.658 37.8633 255.928 37.8999 255.198 37.9365C254.454 40.8377 253.709 43.7389 252.964 46.64C253.39 46.8957 253.815 47.1515 254.24 47.4072C255.645 46.4783 257.05 45.5493 258.779 43.9253ZM269.346 25.1796C270.285 26.0872 271.224 26.9949 272.163 27.9025C272.709 27.1652 273.799 26.344 273.701 25.7058C273.374 23.5776 272.62 21.5151 272.03 19.4273C271.538 19.5252 271.046 19.6231 270.554 19.721C270.14 21.2698 269.727 22.8186 269.346 25.1796Z" fill="#342836"/>
<path d="M70.412 157.837C66.8237 160.987 63.62 164.145 59.9042 166.491C57.9876 167.702 54.5851 168.587 52.8474 167.692C46.4416 164.39 40.7671 168.071 34.8032 168.642C29.2093 169.177 24.2059 168.534 20.9615 163.099C20.3726 162.113 19.0852 161.352 17.9548 160.911C11.2436 158.298 7.46457 153.841 7.53716 148.396C7.61234 142.756 12.2277 136.733 17.8796 134.292C19.3505 133.657 20.9505 132.128 21.4511 130.656C23.1124 125.772 26.7498 123.137 31.7404 124.431C36.4624 125.655 40.522 126.94 45.7667 124.534C51.8777 121.73 59.1133 126.795 62.2641 133.95C63.0727 135.786 64.3927 137.791 66.0403 138.797C73.8985 143.596 75.5047 149.706 70.412 157.837ZM26.1728 160.325C25.2667 160.707 24.3606 161.089 23.45 161.473C26.9708 167.479 38.2273 167.916 44.756 162.773C44.756 159.435 44.4782 156.482 44.9053 153.635C45.0567 152.625 46.8371 151.422 48.0443 151.189C48.6731 151.067 50.3645 152.854 50.3781 153.796C50.4237 156.96 49.9309 160.132 49.5555 164.28C50.9729 164.624 53.2426 165.905 55.1777 165.516C62.5462 164.038 67.7509 159.492 70.3092 152.439C72.4067 146.658 69.2793 142.146 64.1366 141.301C61.3936 144.185 59.2932 146.831 56.7059 148.856C55.8857 149.498 53.441 148.894 52.3765 148.054C51.82 147.614 52.1492 144.957 52.9422 144.116C55.0478 141.884 57.6229 140.094 60.5768 137.663C59.864 132.838 56.9462 128.962 51.7515 126.889C47.9285 125.363 44.7628 126.549 42.0759 129.522C44.5711 133.32 46.9805 137.031 43.3318 140.973C42.5793 141.786 39.9326 141.954 38.9642 141.273C34.0915 137.848 37.1371 133.637 38.4285 129.754C28.8797 124.126 25.5167 125.758 22.7421 137.188C16.1038 136.651 11.3796 140.229 10.4009 146.536C9.45884 152.606 12.6319 156.555 20.0373 158.607C20.4248 156.67 20.3063 154.385 21.3301 152.872C22.6153 150.974 24.8366 149.709 26.6539 148.17C27.7665 150.874 29.2523 153.506 29.7931 156.319C29.9875 157.33 27.9057 158.778 26.1728 160.325ZM28.2941 153.719C27.5366 152.42 26.7792 151.121 26.0217 149.822C25.4932 149.848 24.9647 149.874 24.4362 149.9C23.6096 152.817 22.7831 155.734 21.9566 158.651C22.618 159.041 23.2794 159.431 23.9408 159.822C25.4067 158.042 26.8726 156.262 28.2941 153.719ZM38.5465 134.829C39.1713 136.519 39.7961 138.208 40.4208 139.897C41.18 139.456 42.6068 138.985 42.5884 138.58C42.4815 136.239 42.0334 133.914 41.7009 131.583C41.1768 131.597 40.6527 131.611 40.1286 131.625C39.685 132.436 39.2414 133.246 38.5465 134.829Z" fill="#342836"/>
<path d="M130 154.007C133.046 153.871 136.008 152.896 138.197 153.797C147.375 157.577 156.328 161.906 165.337 166.089C165.802 166.305 166.029 167.036 167.108 168.604C157.673 164.041 149.337 160.01 141.001 155.979C140.703 156.453 140.405 156.927 140.107 157.401C162.192 172.911 172.542 197.075 185.771 219.109C198.192 210.306 198.491 192.255 186.88 168.473C191.307 169.704 191.639 170.395 198.815 193.789C202.876 183.127 206.551 173.477 210.294 163.477C211.775 159.728 213.113 156.294 214.671 152.964C214.945 152.379 216.144 152.226 217.202 151.978C211.217 168.013 205.111 184.011 198.604 199.844C195.287 207.914 192.667 216.344 186.139 222.894C184.105 224.935 184.09 229.057 183.328 232.268C182.979 233.743 183.059 235.319 182.944 236.85C182.311 236.798 181.678 236.746 181.045 236.694C181.425 233.337 181.2 229.758 182.329 226.675C183.914 222.352 183.309 219.009 181.017 215.083C172.129 199.861 164.251 183.963 152.108 170.939C147.963 166.494 143.222 162.215 137.946 159.343C134.03 157.211 128.805 157.503 124.177 156.643C123.063 156.436 122.001 155.941 120.691 155.285C123.498 154.671 126.529 154.351 130 154.007Z" fill="#3C1F2A"/>
<path d="M29.0537 241.736C25.9373 242.804 22.8928 244.359 19.6884 244.833C14.0866 245.661 12.0346 242.783 13.9204 237.396C14.2374 236.491 14.7816 235.665 15.2984 234.65C12.3102 232.05 8.39226 229.207 11.2853 225.144C15.5754 219.119 21.3122 222.376 26.5847 224.382C26.8112 223.985 27.0376 223.587 27.264 223.19C24.0212 221.348 20.7784 219.506 17.1672 217.456C21.7072 214.421 24.664 217.269 27.7609 219.443C29.2268 215.895 28.8254 211.517 33.6391 210.057C33.1395 214.422 32.6819 218.42 32.1133 223.388C34.5346 219.953 36.2795 217.334 38.1734 214.827C40.68 211.509 44.0545 211.361 47.588 212.727C51.4525 214.221 50.1845 217.479 50.1368 220.411C50.1142 221.801 50.8092 223.243 51.349 224.594C52.212 226.754 54.5634 229.748 53.8722 230.793C52.5598 232.775 49.6605 233.977 47.1883 234.833C45.3977 235.452 43.2327 234.99 40.8171 235.025C40.3994 235.04 40.4425 235.114 40.221 234.839C36.5987 231.695 33.198 228.825 30.4399 226.497C30.7725 230.105 31.0999 233.658 31.4496 237.491C31.194 238.183 30.9162 238.594 30.3614 239.194C29.8532 239.981 29.622 240.58 29.3453 241.282C29.2999 241.386 29.0537 241.736 29.0537 241.736ZM51.6267 230.871C51.6809 226.077 48.9072 224.748 43.962 227.005C42.9411 227.471 41.5656 227.333 40.391 227.182C40.0448 227.138 39.4569 225.723 39.6117 225.569C40.486 224.694 41.4975 223.914 42.5772 223.306C43.1029 223.01 44.1897 223.416 44.4869 223.059C45.792 221.49 47.1871 219.876 47.9445 218.03C48.2571 217.268 47.2394 215.125 46.4918 214.936C44.893 214.532 42.8207 214.484 41.3971 215.197C37.4792 217.161 34.317 224.662 35.5969 228.028C36.8884 231.424 42.6964 233.62 47.8005 232.559C48.9185 232.327 49.9726 231.787 51.6267 230.871ZM17.2101 224.003C15.7563 225.34 14.3025 226.676 12.8487 228.013C14.3181 229.494 15.5894 231.325 17.3372 232.314C18.2642 232.838 20.032 231.632 21.3954 231.701C22.6261 231.762 23.823 232.496 25.0349 232.934C24.1234 233.875 23.3282 235 22.2515 235.679C21.7124 236.019 20.422 235.17 19.8859 235.511C18.4503 236.424 17.0097 237.524 16.031 238.881C15.5147 239.597 15.6799 241.843 16.0181 241.956C17.4535 242.434 19.2568 242.892 20.5841 242.412C24.9203 240.845 29.1397 238.492 29.3303 233.298C29.5144 228.283 25.0795 226.625 21.333 224.831C20.3161 224.345 19.1056 224.262 17.2101 224.003Z" fill="#2D212F"/>
<path d="M406.315 94.4891C402.295 93.9552 403.535 91.6726 404.555 89.8156C406.314 86.616 407.744 83.9546 404.056 80.7168C401.629 78.5857 402.387 75.7891 406.233 76.1075C410.91 76.4945 413.862 74.9766 416.362 70.8687C418.585 67.2168 421.182 67.8393 422.505 72.103C423.73 76.0518 425.388 79.0005 430.016 79.5145C431.159 79.6414 432.85 81.2059 432.983 82.2725C433.116 83.3394 431.794 84.8075 430.777 85.7337C429.847 86.5799 428.472 86.9363 427.223 87.5426C427.328 89.2803 427.577 90.9286 427.484 92.5572C427.388 94.2218 426.956 95.867 426.672 97.5207C425.131 97.1172 423.079 97.2065 422.137 96.2274C417.384 91.2874 412.115 92.4835 406.315 94.4891ZM422.055 81.6063C419.587 81.1269 417.117 80.3271 414.652 80.3425C413.793 80.3479 412.947 82.3664 412.094 83.4655C414.091 84.8464 416.03 87.2173 418.101 87.3385C420.311 87.4679 424.362 86.8527 422.055 81.6063Z" fill="#241726"/>
<path d="M170.768 460.568C170.435 457.496 169.284 456.057 166.293 455.879C164.724 455.786 163.227 454.475 161.698 453.715C162.565 452.389 163.136 450.571 164.358 449.832C167.664 447.832 169.062 445.611 167.707 441.624C167.244 440.262 168.07 437.853 169.157 436.79C169.865 436.097 172.579 436.407 173.57 437.244C176.725 439.908 179.682 439.699 183.144 438.04C184.44 437.418 186.222 437.81 187.783 437.74C187.818 439.166 188.273 440.751 187.805 441.986C186.675 444.97 187.156 446.83 190.065 448.548C191.529 449.412 192.204 451.614 193.236 453.212C191.732 453.939 190.276 455.151 188.716 455.304C183.715 455.793 179.412 456.864 177.403 462.316C176.881 463.732 174.94 464.625 173.651 465.759C172.733 464.155 171.815 462.551 170.768 460.568ZM179.925 445.028C176.088 444.716 171.537 447.343 171.981 449.821C172.238 451.253 173.59 453.739 174.108 453.655C176.214 453.312 178.672 452.621 180.062 451.164C181.264 449.904 183.766 447.546 179.925 445.028Z" fill="#241726"/>
<path d="M29.0403 46.3351C24.5606 50.3653 21.0206 50.1468 19.7424 45.2253C18.0188 38.5885 17.4977 31.6126 16.8747 24.7446C16.7776 23.6745 18.6634 21.8462 20.0033 21.3281C24.7903 19.4771 29.7108 17.9517 34.6329 16.4769C37.761 15.5397 38.3718 17.6557 38.3903 20.0979C38.4251 24.6788 38.4004 29.2601 38.4004 33.2145C41.1995 33.5738 44.1623 33.1132 45.5351 34.3782C46.7895 35.534 46.8859 38.6824 46.4338 40.7175C46.0831 42.2964 44.0078 44.7111 42.8634 44.6229C40.9117 44.4725 38.2166 43.0774 37.4091 41.4321C36.0822 38.7283 35.7151 35.4286 35.4891 32.3402C35.1897 28.2468 35.4153 24.1149 35.4153 18.9334C30.0959 20.8198 25.5774 22.3191 21.1659 24.0855C20.4056 24.3899 19.6185 25.8577 19.67 26.7398C19.8618 30.0238 20.3981 33.2877 20.8089 36.5899C28.7054 37.7978 29.6277 38.8166 29.0403 46.3351Z" fill="#241726"/>
<path d="M296.236 300.694C289.94 297.754 281.401 302.832 281.428 309.069C281.438 311.346 281.616 313.622 282.874 314.922C285.365 316.573 288.717 317.725 290.061 320.041C291.048 321.744 290.27 326.04 288.739 327.279C286.202 329.333 282.684 328.028 281.198 324.958C277.75 317.834 278.105 310.119 278.72 302.485C278.785 301.678 280.164 300.653 281.14 300.298C285.657 298.653 290.269 297.274 294.802 295.673C298.317 294.431 299.394 296.093 299.4 299.235C299.41 303.71 299.403 308.185 299.403 312.711C306.364 311.555 309.762 314.519 308.2 320.043C307.075 324.021 302.526 325.44 300.28 322.066C298.274 319.053 297.22 315.196 296.551 311.564C295.928 308.179 296.364 304.6 296.236 300.694ZM284.245 324.199C285.317 324.247 286.39 324.296 287.463 324.345C287.495 323.157 287.826 321.861 287.449 320.822C287.211 320.166 285.916 319.893 285.095 319.448C284.68 320.841 284.266 322.235 284.245 324.199Z" fill="#241726"/>
<path d="M0 342.715C0.142426 341.108 0.329407 338.647 1.08414 338.458C4.98592 337.483 6.71027 334.707 8.25048 331.46C9.20916 329.439 11.6603 327.636 12.3768 330.637C13.6099 335.802 17.1991 338.138 21.9882 340.634C20.3831 341.913 19.3864 342.618 18.493 343.437C16.3956 345.358 14.3547 347.34 12.2765 349.282C11.383 350.117 10.5551 351.217 9.48899 351.573C9.08183 351.709 7.55939 350.164 7.45798 349.28C6.95621 344.908 3.68548 343.902 0 342.715ZM10.3808 345.722C11.7366 343.979 13.0923 342.235 14.1309 340.9C12.7754 339.185 11.5297 337.609 10.4159 336.2C8.56977 337.672 6.64272 339.209 5.29779 340.282C6.72177 342.049 8.28307 343.987 10.3808 345.722Z" fill="#241726"/>
<path d="M296.614 392.183C297.176 391.319 297.43 390.68 297.842 390.169C298.917 388.835 300.061 387.555 301.178 386.254C302.148 387.669 303.01 389.176 304.115 390.476C305.493 392.098 307.072 393.549 308.561 395.076C309.429 395.964 310.673 396.741 310.996 397.798C311.161 398.337 309.694 399.407 308.922 400.196C306.825 402.338 304.508 404.303 302.652 406.635C301.008 408.702 298.993 410.347 298.151 406.934C297.113 402.727 295.006 400.715 291.041 399.957C289.934 399.746 288.904 399.134 287.838 398.706C288.189 398.154 288.54 397.601 288.891 397.048C291.386 395.521 293.881 393.993 296.614 392.183ZM296.275 398.136C297.752 399.459 299.229 400.783 300.035 401.505C301.36 399.992 302.845 398.296 304.143 396.814C303.481 395.99 301.985 394.129 300.919 392.801C298.865 394.309 296.818 395.811 294.792 397.339C294.775 397.352 295.008 397.766 295.182 397.933C295.281 398.029 295.496 398.005 296.275 398.136Z" fill="#241726"/>
<path d="M81.0846 62.8425C82.4529 62.3131 83.5496 61.9773 84.7331 61.6149C84.5681 63.9643 84.4518 65.6191 84.2724 68.1721C83.8128 68.9861 82.814 70.7553 81.3085 73.4217C81.5885 73.4694 80.4012 73.2674 79.0859 73.0437C78.5262 74.2318 77.9038 75.5532 76.6558 78.2024C75.8064 75.2144 75.3473 73.5992 74.8271 71.7696C73.0008 72.4013 71.1924 73.0268 67.9574 74.1459C69.3419 71.6545 69.9174 70.619 70.5062 69.5596C69.3706 69.0468 68.2375 68.5351 65.8179 67.4425C68.4797 66.4912 69.9999 65.9478 71.5978 65.3767C71.3399 64.1419 71.0811 62.9025 70.7147 61.1483C72.3849 61.5021 73.5851 61.7564 74.8334 62.0208C75.336 60.7763 75.847 59.5108 76.3971 58.1487C78.04 59.9669 79.4265 61.5015 81.0846 62.8425Z" fill="#241726"/>
<path d="M247.78 282.423C248.05 281.493 248.295 280.505 248.833 280.305C250.457 279.703 252.195 279.407 254.849 278.755C255.004 279.393 255.44 281.184 255.909 283.111C257.702 282.399 259.472 281.695 261.495 280.891C261.673 283.263 261.817 285.198 261.982 287.401C260.816 287.73 259.592 288.075 258.344 288.427C259.037 290.014 259.7 291.533 260.839 294.14C258.439 293.055 257.2 292.495 255.864 291.892C255.482 293.561 255.132 295.09 254.782 296.619C254.367 296.708 253.953 296.796 253.538 296.885C252.982 294.974 252.427 293.063 251.832 291.018C250.077 291.649 248.182 292.33 246.287 293.011C246.087 292.724 245.887 292.436 245.686 292.149C246.535 290.904 247.384 289.658 248.184 288.485C246.966 287.979 245.734 287.466 244.619 287.003C245.915 285.309 246.902 284.017 247.78 282.423Z" fill="#241726"/>
<path d="M229.536 327.802C221.73 323.619 214.108 319.314 206.625 314.779C203.533 312.904 199.072 311.242 204.013 306.377C204.938 305.466 204.385 302.467 203.767 300.691C202.355 296.632 200.475 292.735 198.798 288.767C198.267 287.51 197.777 286.236 196.803 283.81C204.726 290.585 208.157 303.988 204 311.188C210.832 314.561 217.621 317.913 224.84 321.231C226.771 323.327 228.274 325.457 229.536 327.802Z" fill="#342836"/>
<path d="M259.553 162.62C255.502 168.326 251.113 173.409 247.768 179.105C242.584 187.933 238.112 197.178 233.381 206.626C232.938 207.303 232.454 207.6 231.683 207.956C231.401 206.821 231.049 205.483 231.466 204.456C235.891 193.534 240.98 182.996 248.941 174.072C251.461 171.247 253.866 168.183 255.618 164.857C256.836 162.544 256.848 159.596 257.355 156.512C261.431 156.875 260.499 159.596 259.553 162.62Z" fill="#3C1F2A"/>
<path d="M258.42 379.371C257.257 380.539 255.994 382.149 255.033 381.985C251.521 381.386 237.546 368.314 236.119 363.831C242.284 369.18 248.449 374.529 254.614 379.878C255.008 379.593 255.403 379.307 255.798 379.021C253.299 371.93 250.8 364.839 248.407 357.366C249.495 357.954 250.92 358.749 251.384 359.923C253.874 366.229 256.125 372.631 258.42 379.371Z" fill="#3C1F2A"/>
<path d="M288.625 261.151C282.518 264.138 277.631 263.15 277.014 258.482C276.645 255.688 277.771 251.477 279.779 249.959C281.516 248.645 286.154 249.25 288.247 250.759C291.711 253.257 291.298 257.309 288.625 261.151ZM281.604 259.431C283.459 258.646 285.607 258.187 287.021 256.913C287.569 256.419 286.748 252.993 286.043 252.805C284.418 252.371 281.646 252.492 280.893 253.522C280.04 254.69 280.883 257.097 281.604 259.431Z" fill="#251726"/>
<path d="M46.5832 108.03C42.3982 103.417 42.0235 98.1436 45.9946 96.5502C48.6404 95.4885 52.6719 95.483 55.0775 96.8175C58.1884 98.5434 58.2585 102.511 56.4438 105.688C54.2404 109.545 50.7106 109.616 46.5832 108.03ZM46.6693 100.872C47.2109 105.3 49.8153 107.402 52.273 105.158C53.395 104.133 54.0678 101.048 53.3482 99.8841C51.5394 96.9581 49.0163 97.6244 46.6693 100.872Z" fill="#241726"/>
<path d="M24.7773 392.997C25.7482 388.813 27.411 385.854 32.0667 385.983C36.0883 386.095 38.7411 387.722 39.3358 391.895C39.9332 396.087 37.5002 398.656 34.0011 399.742C30.3511 400.875 27.1048 399.675 25.5141 395.739C25.205 394.974 25.0191 394.159 24.7773 392.997ZM27.785 392.627C28.0804 395.512 29.5137 397.523 32.5447 396.788C33.9711 396.443 35.8752 394.747 36.0426 393.465C36.2084 392.196 34.3894 389.463 33.5672 389.511C31.6779 389.623 29.8655 391.035 27.785 392.627Z" fill="#241726"/>
<path d="M296.151 89.2941C297.234 90.183 298 91.0301 298.746 91.8551C299.581 91.2799 300.408 90.7104 301.594 89.8935C302.003 93.9591 302.361 97.5098 302.676 100.643C300.332 101.15 297.799 101.698 294.379 102.438C295.433 100.202 296.384 98.1847 297.336 96.1673C297.068 96.2366 296.799 96.3059 296.531 96.3752C296.299 94.0008 296.067 91.6265 296.151 89.2941Z" fill="#241726"/>
<path d="M347.444 77.9791C346.34 78.8345 345.235 79.6898 344.012 80.6368C343.326 80.3444 342.287 80.2331 341.873 79.6657C340.308 77.5174 338.813 75.286 337.652 72.9095C337.48 72.5582 339.759 70.3747 340.04 70.5369C342.474 71.9399 344.75 73.6347 346.967 75.378C347.358 75.6855 347.254 76.6222 347.398 77.6335C347.417 77.9986 347.444 77.9791 347.444 77.9791Z" fill="#251726"/>
<path d="M44.4428 237.847C44.7795 238.338 45.1162 238.828 45.4199 239.968C40.4341 243.029 35.4813 245.442 30.5285 247.854C30.1569 246.816 29.7853 245.779 29.838 244.361C34.9892 241.935 39.716 239.891 44.4428 237.847Z" fill="#EDCC4E"/>
<path d="M381.504 35.017C381.346 35.6472 381.187 36.2775 380.385 37.0748C375.589 33.4823 371.437 29.7228 367.286 25.9633C368.103 25.3032 368.92 24.6431 370.304 24.2061C374.416 27.9584 377.96 31.4877 381.504 35.017Z" fill="#EDCC4E"/>
<path d="M165.637 157.984C164.766 157.577 164.279 157.125 163.812 156.393C171.994 155.579 176.429 151.306 176.299 142.447C179.012 148.028 177.293 152.232 171.313 156.753C169.45 157.364 167.735 157.652 165.637 157.984Z" fill="#443220"/>
<path d="M47.4143 242.939C47.4204 243.396 47.4265 243.853 47.1723 244.866C44.0653 246.989 41.1623 248.466 38.3987 250.169C37.2397 250.883 36.3759 252.076 35.4061 253.013C35.4343 252.975 35.4893 252.898 35.4893 252.898C34.5127 252.16 33.5361 251.422 32.6411 250.079C37.62 247.295 42.5171 245.117 47.4143 242.939Z" fill="#EDCC4E"/>
<path d="M364.217 30.9706C364.552 30.2158 364.887 29.4611 365.69 28.4712C370.196 32.1219 374.232 36.0079 378.269 39.8939C377.84 40.2473 377.41 40.6008 376.409 40.8707C372.09 37.7861 368.343 34.7851 364.596 31.7841C364.596 31.7841 364.561 31.9969 364.558 31.6557C364.555 31.3144 364.217 30.9706 364.217 30.9706Z" fill="#EDCC4E"/>
<path d="M93.8329 482.994C89.1617 479.746 84.7951 476.386 78.6265 478.794C82.4011 474.276 86.4832 476.392 90.9286 478.176C92.2595 479.741 93.2053 481.288 93.8329 482.994Z" fill="#EAE7EF"/>
<path d="M373.399 23.0234C380.475 22.9721 381.562 23.948 382.036 31.5504C378.901 28.9907 376.15 26.0071 373.399 23.0234Z" fill="#EDCC4E"/>
<path d="M293.127 493.538C288.035 494.969 283.037 496.06 277.614 497.243C280.875 493.53 285.224 492.256 290.109 491.157C291.375 491.72 292.298 492.459 293.127 493.538Z" fill="#EAE7EF"/>
<path d="M284.436 484.6C278.817 484.52 273.608 485.001 270.624 491.439C269.917 486.186 272.414 484.053 280.203 482.345C281.947 482.458 284.684 480.515 284.436 484.6Z" fill="#EAE7EF"/>
<path d="M47.4432 248.894C45.109 256.592 41.7145 257.953 35.5501 253.268C35.4891 252.897 35.434 252.975 35.7906 253.001C39.9126 251.649 43.6779 250.271 47.4432 248.894Z" fill="#EDCC4E"/>
<path d="M378.588 39.8428C374.232 36.0079 370.195 32.1219 365.834 28.1834C365.904 27.4696 366.3 26.8083 366.99 26.0552C371.437 29.7228 375.589 33.4823 380.109 37.2616C379.954 38.1182 379.431 38.9549 378.588 39.8428Z" fill="#3D2D2D"/>
<path d="M95.3398 494.538C90.3763 492.948 85.475 491.011 79.4077 488.614C85.2871 487.822 89.6572 489.132 94.1616 491.745C94.8053 492.601 95.1036 493.396 95.3398 494.538Z" fill="#EAE7EF"/>
<path d="M372.412 41.9676C368.719 41.861 364.278 43.1637 363.312 37.6012C363.07 36.2054 363.561 34.6822 364.25 33.374C367.327 36.3429 369.87 39.1552 372.412 41.9676Z" fill="#EDCC4E"/>
<path d="M30.6387 239.005C30.9166 238.594 31.1944 238.183 31.7897 237.291C34.8857 236.245 37.6643 235.68 40.4429 235.114C40.4429 235.114 40.3998 235.04 40.3616 235.061C40.5009 235.359 40.6784 235.636 41.0324 236.334C37.5402 238.166 33.8716 239.576 30.29 240.659C30.4643 239.888 30.5515 239.446 30.6387 239.005Z" fill="#EDCC4E"/>
<path d="M179.584 156.867C179.827 155.936 180.505 155.056 181.017 154.088C182.836 150.649 184.598 147.181 186.246 143.988C188.666 146.288 187.755 150.486 182.603 155.604C181.627 156.235 180.785 156.556 179.584 156.867Z" fill="#443220"/>
<path d="M68.4348 328.019C69.8503 322.985 74.3446 324.074 77.8234 323.698C78.6603 323.607 79.7885 326.21 80.7827 327.575C80.3384 327.945 79.8941 328.316 79.4498 328.687C78.3337 327.718 77.2176 326.748 76.2978 325.949C73.8224 326.655 71.4914 327.32 68.7869 327.992C68.4134 327.999 68.4348 328.019 68.4348 328.019Z" fill="#241726"/>
<path d="M47.4477 242.614C42.5172 245.117 37.62 247.295 32.5001 249.754C31.7164 249.514 31.1554 248.993 30.5615 248.163C35.4814 245.442 40.4342 243.029 45.5119 240.284C46.2516 240.73 46.8663 241.509 47.4477 242.614Z" fill="#3D2D2D"/>
<path d="M30.2029 240.987C33.8715 239.576 37.5401 238.166 41.2725 236.411C42.3028 236.449 43.2692 236.829 44.3393 237.528C39.7161 239.891 34.9893 241.935 29.8951 244.015C29.2837 243.487 29.0396 242.925 28.9248 242.049C29.054 241.736 29.3002 241.386 29.5401 241.197C29.78 241.008 30.2029 240.987 30.2029 240.987Z" fill="#3D2D2D"/>
<path d="M373.139 22.8982C376.15 26.0071 378.901 28.9907 381.997 31.9511C382.201 32.7866 382.06 33.6451 381.711 34.7603C377.96 31.4877 374.416 27.9584 370.642 24.1856C371.234 23.5523 372.056 23.1626 373.139 22.8982Z" fill="#3D2D2D"/>
<path d="M347.405 78.01C349.321 78.2293 351.248 78.4373 353.374 78.6666C351.298 81.2992 349.74 83.2751 347.125 86.5903C347.125 83.2025 347.125 80.9442 347.285 78.3325C347.444 77.9791 347.417 77.9987 347.405 78.01Z" fill="#251726"/>
<path d="M47.5821 248.618C43.6781 250.271 39.9128 251.649 35.7627 253.039C36.3759 252.076 37.2397 250.883 38.3986 250.169C41.1623 248.466 44.0653 246.989 47.1798 245.208C47.5387 246.112 47.6297 247.227 47.5821 248.618Z" fill="#3D2D2D"/>
<path d="M372.764 42.0051C369.869 39.1553 367.327 36.3429 364.595 33.256C364.433 32.7811 364.459 32.5807 364.541 32.0823C368.342 34.7851 372.089 37.7861 376.138 40.9535C375.332 41.4274 374.224 41.735 372.764 42.0051Z" fill="#3D2D2D"/>
<path d="M251.324 151.589C251.327 156.065 252.083 160.604 247.409 163.982C248.287 159.408 249.056 155.396 250.194 151.196C250.867 151.006 251.102 151.133 251.324 151.589Z" fill="#3F202B"/>
<path d="M68.4033 327.989C68.9554 329.592 69.5178 331.206 70.3063 333.467C68.1312 333.803 66.1235 334.113 64.1158 334.424C63.8264 333.97 63.537 333.516 63.2476 333.063C64.7473 331.412 66.247 329.761 68.091 328.064C68.4351 328.019 68.4137 327.999 68.4033 327.989Z" fill="#241726"/>
<path d="M39.5239 302.46C40.9656 300.757 42.6105 299.319 44.9781 297.248C44.9781 300.234 44.9781 301.819 44.9781 304.282C42.9278 303.674 41.3275 303.2 39.5239 302.46Z" fill="#241726"/>
<path d="M364.022 31.093C364.217 30.9705 364.555 31.3144 364.592 31.5525C364.362 31.5989 364.095 31.4072 364.022 31.093Z" fill="#3D2D2D"/>
<path d="M142.455 429.051C142.305 429.347 142.14 429.627 141.736 429.989C141.498 430.071 141.481 430.039 141.36 429.705C141.646 429.261 142.054 429.151 142.461 429.041C142.461 429.041 142.439 429.036 142.455 429.051Z" fill="#E4554A"/>
<path d="M396.378 31.1773C395.775 30.7959 395.564 30.5454 395.349 30.299C394.211 28.9994 393.113 27.6585 391.865 26.4754C391.755 26.3715 390.069 27.6143 390.118 27.7071C390.88 29.1632 392.047 30.4397 392.631 31.9475C393.279 33.6224 393.709 35.4958 393.673 37.2713C393.656 38.1126 391.865 39.7355 391.676 39.6258C390.198 38.7707 388.721 37.7411 387.635 36.4395C386.836 35.482 386.525 34.0611 386.17 32.798C385.018 28.6987 384.856 24.7675 389.397 22.5506C393.177 20.7053 401.365 22.6901 402.982 25.9221C403.622 27.1999 403.634 30.2077 403.188 30.3686C401.195 31.0883 398.933 31.0651 396.378 31.1773Z" fill="#F1F1F2"/>
<path d="M377.546 15.7541C380.75 15.1857 380.811 13.6128 379.299 11.527C378.546 10.4886 377.009 9.23262 377.215 8.43478C377.789 6.21685 379.091 4.18732 380.106 2.08337C381.875 3.69542 384.458 5.00891 385.189 7.00168C385.953 9.08472 385.267 11.912 384.628 14.2538C383.128 19.7511 379.531 21.3805 374.457 18.9726C372.701 18.1393 370.893 17.0066 369.69 15.5355C368.55 14.1412 368.082 12.1484 367.596 10.3442C367.548 10.1667 369.695 8.84681 370.377 9.13044C372.145 9.86592 373.8 11.0498 375.231 12.3509C376.134 13.1711 376.551 14.5244 377.546 15.7541Z" fill="#F7F7F7"/>
<path d="M202.05 11.5865C199.754 10.9336 197.589 10.2954 195.84 9.06482C195.489 8.81718 196.328 5.56807 197.32 5.05251C198.552 4.41229 200.906 4.62277 202.075 5.45209C204.268 7.00669 204.459 9.312 202.05 11.5865Z" fill="black"/>
<path d="M344.441 163.101C350.631 164.064 356.984 164.479 362.936 166.246C365.517 167.012 368.603 170.286 369.146 172.901C370.577 179.802 370.742 186.966 370.962 194.456C364.282 195.748 358.053 196.608 351.824 197.468C351.734 196.966 351.645 196.464 351.555 195.963C355.503 194.714 359.45 193.465 363.397 192.217C363.351 191.804 363.305 191.392 363.259 190.979C360.642 190.533 358.026 190.086 355.492 189.654C357.35 186.584 359.105 183.685 360.376 181.585C358.289 179.434 356.258 177.341 353.861 174.871C356.729 173.912 358.441 173.339 360.152 172.766C360.256 172.144 360.36 171.521 360.463 170.898C353.486 174.33 350.828 169.321 347.416 165.736C346.506 164.78 345.437 163.975 344.441 163.101Z" fill="#E0544A"/>
<path d="M344.071 162.997C345.437 163.975 346.506 164.78 347.416 165.736C350.828 169.321 353.485 174.33 360.463 170.898C360.36 171.521 360.256 172.143 360.152 172.766C358.441 173.339 356.729 173.912 353.861 174.871C356.257 177.341 358.289 179.434 360.376 181.585C359.105 183.685 357.35 186.584 355.492 189.654C358.026 190.086 360.642 190.533 363.258 190.979C363.305 191.392 363.351 191.804 363.397 192.217C359.45 193.465 355.503 194.714 351.555 195.963C351.645 196.464 351.734 196.966 351.824 197.468C358.053 196.608 364.282 195.748 370.922 194.918C370.346 195.894 369.394 197.615 368.367 197.661C360.781 198.002 353.179 198.009 345.237 197.958C347.757 195.854 350.623 193.913 353.452 191.998C351.672 191.569 349.38 191.241 347.27 190.436C345.657 189.821 343.486 188.873 343.041 187.569C342.694 186.553 344.623 184.761 345.809 182.889C344.308 181.52 342.403 179.785 340.538 178.085C338.536 180.22 336.907 182.131 335.048 183.783C334.708 184.084 333.428 183.327 334.028 183.958C334.915 182.314 335.962 180.735 336.659 179.015C338.382 174.755 340.847 175.506 343.578 177.851C347.171 180.937 350.72 184.074 354.288 187.188C354.73 186.941 355.172 186.695 355.614 186.448C355.365 184.453 355.55 182.268 354.772 180.507C353.374 177.343 351.675 174.228 349.613 171.457C343.273 162.939 338.365 161.746 328.426 165.765C327.254 166.239 325.944 166.368 324.467 166.383C330.157 161.597 336.537 159.872 344.071 162.997Z" fill="#3B1F2C"/>
<path d="M336.606 132.048C333.373 132.058 330.607 132.058 327.634 132.058C330.645 129.189 416.602 125.158 422.714 128.159C393.264 129.493 365.169 130.765 336.606 132.048Z" fill="#F8E8EE"/>
<path d="M367.353 386.882C356.653 386.902 346.443 386.902 336.233 386.902C336.208 386.579 336.182 386.255 336.157 385.932C365.044 384.592 393.931 383.253 422.819 381.913C422.861 382.615 422.904 383.316 422.947 384.018C404.578 384.966 386.21 385.914 367.353 386.882Z" fill="#F8E8EE"/>
<path d="M340.873 214.596C340.814 211.962 340.674 209.748 340.535 207.534C341.115 207.491 341.695 207.449 342.275 207.407C342.539 210.784 342.802 214.161 343.066 217.538C342.42 217.604 341.773 217.669 341.127 217.734C341.016 216.828 340.905 215.922 340.873 214.596Z" fill="#3D2D2D"/>
<path d="M417.439 352.611C418.055 352.185 419.271 352.129 419.275 352.179C419.539 355.228 419.704 358.286 419.878 361.343C419.286 361.37 418.694 361.396 418.102 361.423C417.892 358.625 417.683 355.828 417.439 352.611Z" fill="#3D2D2D"/>
<path d="M176.39 264.153C184.086 266.349 191.426 268.399 198.766 270.449C198.735 270.784 198.703 271.12 198.671 271.455C194.397 270.901 190.045 270.681 185.87 269.701C181.538 268.684 177.378 266.931 172.87 265.407C171.689 269.68 170.536 273.854 169.383 278.027C168.866 277.919 168.349 277.811 167.832 277.703C168.424 274.669 168.7 271.526 169.692 268.629C170.816 265.351 170.164 263.669 166.981 261.962C144.784 250.062 125.901 233.823 108.047 216.288C107.434 215.686 107.075 214.825 107.031 213.613C128.429 232.702 149.578 252.013 176.39 264.153Z" fill="#3C1F2A"/>
<path d="M233.868 150.251C234.483 148.857 234.885 147.764 235.354 146.7C235.469 146.439 235.801 146.274 236.037 146.069C237.479 149.657 235.389 153.894 230.117 156.582C231.611 154.059 232.645 152.311 233.868 150.251Z" fill="#3F202B"/>
<path d="M120.777 294.027C121.613 293.804 122.312 293.949 123.011 294.093C120.714 304.961 126.303 312.413 134.161 318.458C149.855 330.532 165.841 342.227 181.593 354.228C185.14 356.931 188.221 360.246 191.944 363.673C190.404 364.252 189.968 364.548 189.836 364.447C172.69 351.289 155.538 338.137 138.462 324.886C134.789 322.035 131.167 319.047 127.926 315.727C122.181 309.842 119.165 302.836 120.777 294.027Z" fill="#F1EDF4"/>
<path d="M187.746 378.299C186.379 377.389 185.352 376.216 184.025 374.89C184.117 374.236 184.509 373.736 185.191 373.325C186.349 374.956 187.218 376.496 187.746 378.299Z" fill="black"/>
<path d="M127.493 46.0991C128.477 52.0508 128.976 52.3401 136.125 51.5289C136.234 51.9287 136.342 52.3286 136.451 52.7284C134.387 53.1309 131.872 54.4505 130.368 53.712C128.322 52.7077 126.84 50.2653 125.503 48.1902C124.187 46.1479 123.739 43.4783 122.231 41.6421C118.955 37.6545 118.541 32.798 121.969 28.9565C123.267 27.502 124.898 25.9939 126.678 25.3805C134.714 22.6104 142.92 23.2707 150.859 25.6212C154.782 26.7826 155.151 28.9582 153.621 32.5003C152.255 30.7739 151.149 28.2927 149.256 27.2734C147.1 26.1121 144.242 26.255 141.251 25.7582C141.48 28.3077 142.029 30.1703 141.687 31.8515C141.374 33.3886 140.097 34.7292 139.244 36.1564C138.009 34.8496 136.175 33.7283 135.697 32.1866C135.157 30.4442 135.835 28.3242 135.985 26.3455C130.268 25.2361 124.595 27.4935 122.501 31.943C120.746 35.6716 121.915 38.654 125.856 41.649C126.47 40.7038 126.979 39.0865 127.706 38.9819C129.016 38.7932 131.165 39.1057 131.652 39.958C132.18 40.8838 131.546 42.8898 130.793 43.9994C130.186 44.8929 128.646 45.1527 127.493 46.0991Z" fill="#3E2D21"/>
<path d="M157.033 44.6193C154.079 43.8766 151.497 43.0354 148.915 42.1943C149.085 41.7489 149.255 41.3035 149.426 40.8582C152.146 41.2883 154.993 42.4203 157.553 41.9601C160.369 41.4541 162.86 39.3378 165.599 38.1753C177.32 33.2017 190.075 37.5462 195.707 48.9682C198.161 53.9446 199.29 59.5737 201.021 64.9064C200.298 65.1211 199.575 65.3358 198.851 65.5505C198.322 63.3291 197.773 61.1121 197.268 58.8853C193.799 43.6007 183.284 35.8903 169.683 39.2085C165.413 40.2504 161.489 42.7101 157.033 44.6193Z" fill="#443220"/>
<path d="M154.106 54.4761C149.101 52.2972 148.068 51.0742 146.952 46.3513C147.257 46.2684 147.808 46.0739 147.836 46.1313C151.305 53.3483 156.953 52.7761 163.436 51.0525C167.515 49.9681 172.008 49.4072 176.167 49.8909C183.044 50.6908 188.239 57.2168 188.018 64.7105C187.435 63.582 186.802 62.4765 186.278 61.3212C182.752 53.5467 178.093 50.8122 169.645 51.9525C164.565 52.6383 159.534 53.6864 154.106 54.4761Z" fill="#443220"/>
<path d="M136.117 61.0189C136.667 60.0784 137.106 59.5392 137.544 59.0001C135.919 69.9751 137.538 78.8755 150.958 82.032C140.67 84.6577 133.687 74.0036 136.117 61.0189Z" fill="#3E2D21"/>
<path d="M187.42 131.897C186.589 132.362 185.763 132.899 185.43 132.682C180.948 129.756 179.343 125.013 176.841 120.832C177.281 120.544 177.721 120.256 178.161 119.968C180.536 123.396 182.912 126.823 185.875 131.098C187.428 126.708 188.625 123.322 189.823 119.936C190.399 120.134 190.975 120.331 191.552 120.529C190.252 124.226 188.953 127.922 187.42 131.897Z" fill="#3E2D21"/>
<path d="M157.982 64.3492C158.213 64.9372 158.029 65.3473 157.694 65.9269C154.288 65.7081 150.849 65.8577 147.82 64.8148C142.219 62.8866 140.234 57.4758 142.968 50.984C142.214 62.2154 148.826 64.4882 157.982 64.3492Z" fill="#3E2D21"/>
<path d="M139.508 98.5257C137.123 103.684 136.611 104.018 133.384 103.495C134.49 101.567 136.448 99.4962 136.662 97.2586C136.783 95.9889 134.044 94.4466 132.375 92.8126C134.079 90.8642 135.983 91.9347 138.143 94.1734C138.79 95.67 139.13 96.931 139.508 98.5257Z" fill="#3F202B"/>
<path d="M156.225 149.127C160.594 146.477 164.933 144.181 168.924 142.068C169.329 146.026 162.99 150.345 156.225 149.127Z" fill="#443220"/>
<path d="M142.328 428.7C142.054 429.151 141.646 429.261 141.347 429.713C138.214 430.085 136.514 428.66 137.247 425.284C138.936 417.509 140.714 409.753 142.456 401.989C143.13 402.138 143.804 402.287 144.478 402.437C142.631 410.355 140.784 418.273 138.937 426.192C139.433 426.423 139.93 426.654 140.426 426.885C144.324 421.757 148.222 416.628 152.12 411.5C152.616 411.853 153.112 412.205 153.608 412.558C149.804 417.825 145.999 423.092 142.328 428.7Z" fill="#3F202B"/>
<path d="M251.915 180.534C253.635 179.068 255.112 177.873 256.59 176.679C256.86 176.949 257.131 177.218 257.401 177.488C255.184 180.28 252.185 182.773 250.966 185.949C249.724 189.185 250.233 193.093 249.994 196.435C245.981 192.627 246.389 187.821 251.915 180.534Z" fill="#3F202B"/>
<path d="M196.984 108.365C197.453 110.257 197.768 111.795 198.284 114.314C192.657 112.786 188.008 111.523 183.358 110.26C183.469 109.677 183.58 109.095 183.69 108.512C187.398 109.314 191.106 110.115 195.773 111.125C192.708 103.068 189.943 95.8003 187.178 88.5324C187.781 88.2902 188.384 88.0481 188.987 87.8059C191.601 94.5407 194.215 101.276 196.984 108.365Z" fill="#3F202B"/>
<path d="M205.284 98.8789C204.598 102.263 203.95 105.217 203.007 109.517C198.122 104.173 198.604 98.8733 197.245 94.1384C197.809 93.9645 198.372 93.7906 198.936 93.6167C199.793 96.7858 200.649 99.9548 201.505 103.124C201.748 103.146 201.99 103.168 202.233 103.19C202.781 100.205 203.329 97.2211 203.877 94.2367C204.28 94.2237 204.684 94.2106 205.087 94.1976C205.165 95.6151 205.244 97.0326 205.284 98.8789Z" fill="#3C1F2A"/>
<path d="M172.776 102.161C171.506 97.71 170.427 93.5605 169.347 89.4111C169.923 89.2493 170.499 89.0875 171.074 88.9258C171.981 92.0565 172.887 95.1871 174.223 99.8017C174.979 95.3553 175.487 92.3596 175.996 89.3639C176.441 89.4181 176.886 89.4723 177.331 89.5266C177.796 93.9854 177.248 98.3884 175.345 102.636C175.234 102.883 173.79 102.534 172.776 102.161Z" fill="#3C1F2A"/>
<path d="M109.017 441.433C111.607 443.454 113.929 445.243 116.252 447.032C115.878 447.469 115.504 447.906 115.13 448.342C104.134 441.706 95.9241 431.82 86.7002 423.117C87.087 422.662 87.4738 422.208 87.8605 421.754C94.8236 428.236 101.787 434.719 109.017 441.433Z" fill="#FAF4DC"/>
<path d="M254.051 447.656C247.023 448.598 240.414 449.442 233.806 450.287C233.713 449.706 233.62 449.125 233.528 448.543C246.69 445.713 260.673 446.28 273.139 439.393C271.256 443.76 268.71 444.827 254.051 447.656Z" fill="#FAF4DC"/>
<path d="M255.201 18.0805C259.11 13.7366 262.298 13.707 269.257 17.6678C268.122 21.5441 264.977 25.7539 269.762 29.2003C270.729 29.8969 273.387 29.7915 274.129 28.996C277.942 24.9068 275.182 21.083 272.94 17.304C275.895 14.4764 279.158 13.2761 282.992 14.9771C287.912 17.1598 290.757 20.9489 291.476 25.6751C288.618 27.9829 285.987 29.7154 283.919 31.9645C283.069 32.8882 283.43 34.9255 283.24 36.4562C284.809 36.6133 286.976 37.497 287.833 36.7908C290.383 34.6902 292.418 31.9644 294.946 29.1589C300.83 30.6517 303.518 35.5213 300.751 41.6057C298.154 47.3164 293.842 51.5014 287.684 53.042C285.277 53.644 282.52 52.8448 280.009 52.6892C280.677 48.6078 281.528 45.7553 281.439 42.9323C281.397 41.586 279.57 40.2957 278.551 38.98C277.461 40.277 275.663 41.4624 275.437 42.8957C275.042 45.3957 275.616 48.0484 275.799 50.8567C268.027 55.81 258.107 55.3904 254.385 49.696C260.682 46.575 262.457 43.9657 260.48 39.8666C259.723 38.2976 257.961 36.5342 256.41 36.2609C255.337 36.0717 253.325 38.0408 252.653 39.4765C251.637 41.6453 251.422 44.1898 250.868 46.5736C243.427 44.4688 240.33 40.5844 241.309 34.4797C242.324 28.1515 246.844 24.7031 253.901 25.0969C254.272 22.9081 254.649 20.6847 255.201 18.0805Z" fill="#FAFAFA"/>
<path d="M258.617 44.2729C257.05 45.5494 255.645 46.4783 254.241 47.4072C253.815 47.1515 253.39 46.8958 252.964 46.6401C253.709 43.7389 254.454 40.8377 255.199 37.9366C255.928 37.8999 256.658 37.8633 257.388 37.8267C257.852 39.8595 258.316 41.8924 258.617 44.2729Z" fill="#F1F1F2"/>
<path d="M269.33 24.7735C269.727 22.8186 270.14 21.2698 270.554 19.721C271.046 19.6231 271.538 19.5252 272.03 19.4274C272.62 21.5151 273.374 23.5777 273.701 25.7058C273.799 26.3441 272.709 27.1652 272.163 27.9025C271.224 26.9949 270.285 26.0872 269.33 24.7735Z" fill="#EAE7EF"/>
<path d="M26.5177 160.176C27.9056 158.778 29.9874 157.33 29.7931 156.319C29.2523 153.506 27.7664 150.874 26.6538 148.17C24.8365 149.709 22.6153 150.974 21.33 152.872C20.3062 154.385 20.4248 156.67 20.0373 158.607C12.6319 156.555 9.4588 152.606 10.4008 146.536C11.3796 140.229 16.1038 136.651 22.7421 137.188C25.5167 125.758 28.8797 124.126 38.4285 129.754C37.137 133.637 34.0915 137.848 38.9642 141.273C39.9325 141.954 42.5792 141.786 43.3318 140.973C46.9805 137.031 44.5711 133.32 42.0758 129.522C44.7627 126.549 47.9284 125.363 51.7515 126.889C56.9462 128.962 59.8639 132.838 60.5768 137.662C57.6229 140.094 55.0478 141.884 52.9421 144.116C52.1492 144.957 51.8199 147.614 52.3764 148.054C53.441 148.894 55.8857 149.498 56.7059 148.856C59.2931 146.831 61.3936 144.185 64.1365 141.301C69.2792 142.146 72.4066 146.658 70.3092 152.439C67.7508 159.492 62.5461 164.038 55.1777 165.516C53.2426 165.905 50.9729 164.624 49.5555 164.28C49.9309 160.132 50.4237 156.96 50.3781 153.796C50.3645 152.854 48.673 151.067 48.0443 151.188C46.8371 151.422 45.0567 152.625 44.9052 153.635C44.4781 156.482 44.756 159.435 44.756 162.773C38.2272 167.916 26.9707 167.479 23.4499 161.473C24.3605 161.089 25.2666 160.707 26.5177 160.176Z" fill="#FAFAFA"/>
<path d="M28.3163 154.1C26.8726 156.262 25.4067 158.042 23.9408 159.822C23.2794 159.431 22.618 159.041 21.9565 158.651C22.7831 155.734 23.6096 152.817 24.4361 149.9C24.9647 149.874 25.4932 149.848 26.0217 149.822C26.7792 151.121 27.5366 152.42 28.3163 154.1Z" fill="#EAE7EF"/>
<path d="M38.6719 134.443C39.2411 133.246 39.6847 132.436 40.1283 131.625C40.6524 131.611 41.1765 131.597 41.7006 131.583C42.0331 133.914 42.4812 136.239 42.588 138.58C42.6065 138.985 41.1797 139.456 40.4205 139.897C39.7958 138.208 39.171 136.518 38.6719 134.443Z" fill="#EAE7EF"/>
<path d="M51.3418 231.13C49.9731 231.787 48.919 232.327 47.801 232.559C42.6968 233.62 36.8888 231.424 35.5973 228.028C34.3175 224.662 37.4796 217.161 41.3975 215.197C42.8211 214.484 44.8934 214.533 46.4922 214.936C47.2398 215.125 48.2575 217.268 47.9449 218.03C47.1875 219.876 45.7924 221.49 44.4873 223.059C44.1901 223.416 43.1033 223.01 42.5777 223.306C41.4979 223.914 40.4864 224.694 39.6121 225.569C39.4574 225.724 40.0452 227.138 40.3914 227.182C41.5661 227.333 42.9416 227.471 43.9625 227.005C48.9076 224.748 51.6813 226.077 51.3418 231.13Z" fill="#F1F1F2"/>
<path d="M17.5974 223.999C19.106 224.262 20.3164 224.345 21.3333 224.832C25.0799 226.625 29.5148 228.283 29.3307 233.298C29.1401 238.493 24.9206 240.845 20.5845 242.412C19.2571 242.892 17.4539 242.434 16.0184 241.956C15.6803 241.843 15.5151 239.597 16.0314 238.881C17.0101 237.524 18.4507 236.424 19.8863 235.511C20.4224 235.171 21.7128 236.019 22.2518 235.679C23.3285 235 24.1238 233.875 25.0353 232.934C23.8234 232.496 22.6265 231.763 21.3957 231.701C20.0324 231.632 18.2645 232.838 17.3376 232.314C15.5898 231.325 14.3185 229.494 12.8491 228.013C14.3029 226.677 15.7567 225.34 17.5974 223.999Z" fill="#F1F1F2"/>
<path d="M40.221 234.839C37.664 235.68 34.8853 236.245 31.7671 237.011C31.1 233.658 30.7725 230.105 30.4399 226.497C33.198 228.825 36.5988 231.695 40.221 234.839Z" fill="black"/>
<path d="M30.2899 240.658C30.2028 240.987 29.7799 241.008 29.5854 241.093C29.6222 240.58 29.8535 239.981 30.3616 239.194C30.5513 239.446 30.4641 239.888 30.2899 240.658Z" fill="black"/>
<path d="M422.195 81.9639C424.362 86.8526 420.311 87.4679 418.101 87.3385C416.03 87.2173 414.091 84.8464 412.094 83.4655C412.947 82.3664 413.793 80.3479 414.652 80.3425C417.117 80.3271 419.587 81.1269 422.195 81.9639Z" fill="black"/>
<path d="M180.196 445.236C183.766 447.546 181.264 449.904 180.062 451.164C178.672 452.622 176.214 453.312 174.108 453.655C173.59 453.739 172.238 451.253 171.981 449.821C171.537 447.343 176.088 444.716 180.196 445.236Z" fill="black"/>
<path d="M284.048 323.914C284.266 322.235 284.68 320.841 285.095 319.448C285.916 319.893 287.211 320.166 287.449 320.822C287.826 321.861 287.494 323.157 287.463 324.344C286.39 324.296 285.317 324.247 284.048 323.914Z" fill="black"/>
<path d="M10.1127 345.823C8.28313 343.987 6.72184 342.049 5.29785 340.281C6.64279 339.209 8.56983 337.672 10.4159 336.2C11.5298 337.609 12.7755 339.185 14.131 340.9C13.0924 342.235 11.7366 343.979 10.1127 345.823Z" fill="black"/>
<path d="M295.967 398.085C295.496 398.005 295.281 398.029 295.181 397.933C295.008 397.766 294.775 397.352 294.791 397.339C296.818 395.811 298.865 394.31 300.919 392.801C301.985 394.129 303.481 395.99 304.143 396.814C302.844 398.296 301.359 399.993 300.035 401.505C299.229 400.783 297.752 399.459 295.967 398.085Z" fill="black"/>
<path d="M281.297 259.198C280.883 257.097 280.04 254.69 280.893 253.522C281.646 252.492 284.418 252.371 286.043 252.805C286.748 252.993 287.569 256.419 287.021 256.913C285.607 258.187 283.459 258.646 281.297 259.198Z" fill="black"/>
<path d="M46.832 100.532C49.0167 97.6244 51.5398 96.9581 53.3486 99.884C54.0682 101.048 53.3954 104.133 52.2734 105.158C49.8157 107.402 47.2113 105.3 46.832 100.532Z" fill="black"/>
<path d="M27.9033 392.273C29.8654 391.035 31.6778 389.623 33.5671 389.511C34.3893 389.463 36.2083 392.196 36.0425 393.465C35.8751 394.748 33.971 396.443 32.5446 396.789C29.5136 397.523 28.0803 395.512 27.9033 392.273Z" fill="black"/>
</svg>
