<svg width="481" height="512" viewBox="0 0 481 512" fill="none" xmlns="http://www.w3.org/2000/svg">
<path d="M39.1796 128.956C36.0627 124.438 32.7917 120.018 29.8601 115.382C23.2024 104.856 20.3568 93.3045 19.9237 80.8382C19.4075 65.9806 22.0253 52.0411 29.03 38.8937C35.3334 27.0625 44.2437 17.6521 56.1115 11.6577C64.0919 7.62692 72.8486 5.13623 81.2396 1.90854C81.8059 1.69071 82.2166 1.06841 82.3714 0.317112C93.7307 -2.98023e-08 105.418 0 117.575 0C118.496 0.661706 118.844 1.78526 119.418 1.91616C128.718 4.03621 136.168 9.41676 143.053 15.5739C155.501 26.7055 164.583 40.3465 171.299 55.804C149.68 54.4628 129.201 56.7681 109.953 66.4821C109.266 66.8291 108.369 66.7625 107.573 66.4419C107.413 64.6055 107.251 63.216 107.076 61.7213C116.994 62.8658 117.169 62.7712 117.97 56.0699C118.087 55.9551 118.322 55.726 118.716 55.7472C119.914 55.9884 120.719 56.199 121.519 56.4298C125.805 57.6669 129.556 56.8337 132.091 53.0387C134.619 49.2521 132.63 45.9938 130.081 43.1704C127.981 40.8442 125.566 38.8016 123.818 37.1349C124.569 34.7706 125.212 32.7487 125.855 30.7267C123.7 30.0942 121.57 29.088 119.383 28.942C117.477 28.8147 115.523 29.7902 113.56 30.0428C110.244 30.4693 106.824 31.3348 103.59 30.9181C90.7742 29.2674 82.7781 36.9792 84.9834 49.7526C85.7635 54.2713 87.7867 58.5739 89.2228 62.9816C89.6693 64.352 90.6564 65.8934 90.3575 67.0991C89.0903 72.2113 91.8224 73.7356 95.9066 74.4691C85.8879 84.444 76.0459 94.1427 65.9795 104.12C59.8595 114.281 53.9639 124.164 47.7629 134.071C47.0583 134.011 46.6592 133.925 46.0616 133.564C43.6353 131.844 41.4074 130.4 39.1796 128.956Z" fill="#F3D6A6"/>
<path d="M229.043 512C212.022 512 195.001 512 177.831 511.704C175.856 509.787 173.546 508.471 172.295 506.487C168.29 500.139 164.677 493.543 161.226 486.905C174.316 474.711 187.105 462.668 199.869 450.598C209.912 441.101 220.456 432.355 233.539 427.212C235.488 426.446 237.206 425.092 239.395 424.043C242.266 425.113 244.772 426.15 247.373 427.368C247.662 427.741 247.879 427.905 248.066 428.03C248.017 428.018 248.037 427.919 248.064 428.276C257.732 444.728 267.372 460.824 277.012 476.919C277.49 476.68 277.969 476.441 278.447 476.202C277.958 474.71 277.64 473.133 276.948 471.742C274.732 467.289 272.374 462.905 270.077 458.492C265.343 449.395 260.613 440.296 256.273 431.116C261.208 432.548 265.751 434.059 270.293 435.573C273.764 436.729 276.882 437.951 278.748 441.765C280.239 444.812 283.388 445.565 286.939 444.168C288.601 443.514 290.859 443.307 292.511 443.876C301.437 446.946 310.297 450.221 319.099 453.633C323.817 455.462 328.374 457.707 332.916 460.107C325.665 464.251 318.623 468.309 311.314 471.808C284.551 484.62 257.694 497.237 230.899 509.982C230.133 510.346 229.655 511.314 229.043 512Z" fill="#F4D7A7"/>
<path d="M398.039 432.814C406.371 443.187 414.826 453.466 422.997 463.965C429.455 472.264 435.648 480.774 441.785 489.316C443.932 492.304 445.711 495.589 447.379 498.881C448.902 501.889 448.331 503.82 444.345 504.044C428.433 504.938 412.535 506.067 396.624 506.981C383.307 507.746 369.981 508.358 356.656 508.991C348.582 509.375 340.501 509.628 332.429 510.053C331.395 510.108 330.397 510.852 329.713 511.638C321.689 512 313.335 512 304.869 511.883C305.703 510.516 306.439 509 307.629 508.057C314.131 502.904 320.861 498.035 327.292 492.797C337.314 484.636 347.158 476.258 357.434 468.013C360.289 469.305 362 468.823 363.062 466.025C363.852 463.94 365.033 462.003 366.379 459.949C377.159 450.87 387.599 441.842 398.039 432.814Z" fill="#F4D7A7"/>
<path d="M51.1643 281.967C60.455 263.134 73.7351 247.153 87.6925 231.631C95.0251 240.728 101.675 249.854 109.046 258.355C114.623 264.787 122.27 268.436 130.629 269.978C153.471 274.193 173.734 268.032 191.743 253.899C201.095 246.559 205.528 236.817 205.266 224.772C204.987 211.915 201.494 199.895 196.876 187.703C198.32 182.18 199.701 177.057 201.081 171.934C218.814 171.622 236.548 171 254.278 171.111C265.623 171.182 276.538 170.165 287.609 167.121C304.42 162.498 320.331 166.284 334.255 176.789C354.931 192.388 365.714 214.203 372.028 238.644C375.199 250.916 376.671 263.388 375.665 276.377C374.217 275.444 373.241 274.071 372.004 273.001C365.039 266.98 358.011 261.032 350.757 254.82C332.568 243.791 313.57 241.797 294.017 248.938C285.368 252.097 277.32 256.9 269 260.608C269.73 259.378 270.329 258.331 271.209 257.64C290.44 242.538 309.707 227.483 328.955 212.401C335.705 207.111 342.42 201.776 348.447 197.018C344.777 192.711 341.5 188.866 338.28 185.088C337.396 185.631 336.924 185.832 336.562 186.156C319.586 201.36 302.66 216.622 285.629 231.764C279.685 237.048 273.484 242.042 267.307 246.749C267.546 242.049 267.878 237.769 268.21 233.49C267.709 233.444 267.207 233.397 266.706 233.351C266.156 238.907 265.605 244.463 264.875 250.297C253.638 260.372 242.583 270.17 231.525 279.964C224.75 285.963 217.97 291.957 211.188 297.957C206.66 292.579 203.185 291.731 200.01 294.827C196.934 297.827 197.584 301.126 202.576 306.153C199.007 308.82 195.489 311.451 191.667 313.906C189.535 310.367 188.012 306.786 185.814 303.683C180.592 296.311 180.531 288.673 183.537 280.529C184.962 276.668 185.889 272.623 187.042 268.662C186.535 268.481 186.029 268.301 185.522 268.12C183.017 274.027 180.346 279.87 178.054 285.858C175.891 291.51 175.926 297.126 178.794 302.748C181.503 308.057 183.696 313.63 186.096 319.43C180.656 324.978 175.235 330.181 169.814 335.385C170.073 335.692 170.331 336 170.59 336.308C176.631 331.838 182.672 327.368 188.86 323.241C192.055 329.686 195.102 335.788 198.014 342.222C193.274 344.839 188.686 347.158 184.047 349.369C183.384 349.685 182.118 349.847 181.735 349.468C177.431 345.212 172.532 346.894 168.162 348.618C162.875 350.705 158.446 351.052 153.327 347.802C146.95 343.752 139.945 340.689 131.306 336.212C133.876 334.571 135.641 333.8 136.951 332.552C146.834 323.131 156.681 313.67 166.381 304.062C167.545 302.909 168.767 300.315 168.238 299.222C166.333 295.278 163.691 291.691 160.924 287.335C159.275 289.761 158.121 291.349 157.081 293.008C148.862 306.129 140.604 319.225 132.512 332.424C130.873 335.097 129.293 335.88 126.061 335.182C116.823 333.187 107.474 331.706 98.0477 329.637C95.3114 316.801 92.6957 304.351 89.9492 291.279C85.9408 293.237 82.5894 294.875 79.0594 296.6C84.1394 307.715 89.0224 318.4 93.4474 329.092C85.7326 329.441 78.4759 329.784 71.0661 329.8C63.2795 314.074 54.795 299.029 51.1643 281.967Z" fill="#F4D7A7"/>
<path d="M201.24 171.553C199.701 177.057 198.32 182.18 196.652 187.943C194.773 191.68 193.284 194.835 191.57 197.864C186.465 206.886 179.681 214.145 169.899 218.234C154.402 224.712 139.341 221.434 124.415 216.164C118.197 213.968 112.117 211.384 105.974 208.977C99.5786 204.052 93.1831 199.128 86.4119 193.7C79.6069 185.374 73.2048 177.53 66.7073 169.766C66.0422 168.971 64.8544 168.32 63.8263 168.17C56.3137 167.074 48.7799 166.122 41.085 164.816C36.4824 161.19 32.3969 157.661 31.9286 151.552C31.8071 149.966 31.2718 148.413 30.9265 146.844C32.6814 142.974 34.4362 139.104 36.9309 135.129C40.5339 134.629 43.3971 134.234 46.2602 133.839C46.6593 133.925 47.0584 134.01 48.0309 134.307C52.1278 135.7 55.6513 136.881 60.1578 138.392C62.5442 128.373 64.8926 118.973 66.9392 109.507C67.3183 107.753 66.4803 105.737 66.204 103.841C76.046 94.1427 85.888 84.444 96.3275 74.4185C105.031 74.0571 106.218 73.2538 107.57 66.8887C108.369 66.7625 109.266 66.8291 109.953 66.4821C129.201 56.768 149.68 54.4628 171.374 56.2085C185.141 80.5361 195.968 105.908 200.82 133.366C203.018 145.806 203.896 158.532 201.24 171.553ZM159.845 124.537C159.49 124.56 159.135 124.584 158.78 124.607C159.137 124.812 159.494 125.016 159.988 125.887C160.348 126.441 160.643 127.053 161.079 127.539C169.883 137.356 169.885 137.353 163.517 148.862C163.467 148.953 163.598 149.144 163.844 149.91C168.184 147.708 172.597 145.843 173.913 140.603C175.142 135.709 172.55 132.142 168.874 129.518C166.214 127.619 163.068 126.399 159.845 124.537ZM161.507 191.133C169.422 183.407 171.309 172.926 166.313 164.437C162.548 158.039 155.388 156.858 149.758 161.707C143.32 167.25 140.745 178.208 144.057 185.969C147.384 193.765 153.407 195.784 161.507 191.133ZM115.241 145.557C115.476 146.522 115.708 147.488 115.949 148.452C117.45 154.467 121.579 157.379 128.05 156.991C132.804 156.706 137.333 152.616 137.994 148.01C138.947 141.367 136.556 137.126 130.682 135.041C123.618 132.533 118.169 135.993 115.241 145.557ZM119.889 116.524C121.863 118.728 123.579 121.265 125.877 123.053C128.716 125.261 131.629 123.98 131.964 120.407C132.76 111.926 129.623 104.799 123.349 99.1949C122.226 98.1927 119.696 97.7096 118.387 98.2859C117.192 98.8123 115.933 101.243 116.163 102.584C116.932 107.074 118.355 111.452 119.889 116.524ZM167.809 113.04C172.439 114.534 174.098 113.561 173.982 108.913C173.827 102.71 171.357 97.2889 166.973 92.9779C165.783 91.8081 162.758 90.7953 161.842 91.4589C160.485 92.4422 159.531 95.0474 159.684 96.8537C160.2 102.944 162.621 108.332 167.809 113.04ZM186.049 122.047C185.387 122.03 184.595 121.768 184.086 122.038C181.784 123.258 178.305 124.179 177.634 126.06C176.81 128.366 177.502 132.304 179.129 134.08C180.667 135.759 184.58 136.575 186.862 135.87C188.933 135.231 191.7 131.868 191.493 130.002C191.187 127.254 188.513 124.77 186.049 122.047ZM111.208 88.4431C116.736 87.666 122.264 86.8889 127.792 86.1117C127.801 85.3197 127.81 84.5276 127.819 83.7356C121.942 83.1806 116.074 82.3895 110.184 82.15C105.932 81.9771 104.264 84.465 104.742 89.8357C106.667 89.4454 108.537 89.0663 111.208 88.4431ZM164.448 72.4289C158.931 75.0025 153.415 77.5761 147.898 80.1496C148.18 80.8085 148.462 81.4674 148.744 82.1262C153.942 80.807 159.157 79.5454 164.328 78.1281C165.623 77.7733 166.78 76.9174 168 76.2918C167.048 75.0777 166.096 73.8636 164.448 72.4289Z" fill="#965827"/>
<path d="M268.999 260.957C277.32 256.9 285.368 252.097 294.017 248.938C313.57 241.797 332.567 243.791 350.725 255.236C349.636 266.412 348.363 276.937 347.013 287.452C346.087 294.665 345.054 301.865 344.069 309.07C342.764 317.06 341.458 325.049 339.887 333.677C338.153 334.941 336.739 335.86 335.208 336.145C319.717 339.032 304.212 341.843 288.701 344.622C254.578 350.737 220.45 356.821 186.258 362.553C184.845 359.164 183.497 356.139 182.479 352.999C188.547 349.853 194.286 346.821 200.363 343.729C204.173 341.795 207.645 339.923 211.085 338.037C211.053 338.024 211.048 338.093 211.353 338.073C212.146 337.715 212.634 337.376 213.087 337.03C213.052 337.023 213.046 337.093 213.352 337.071C214.147 336.711 214.636 336.373 215.089 336.028C215.054 336.021 215.044 336.092 215.35 336.067C216.146 335.705 216.637 335.369 217.091 335.024C217.055 335.016 217.041 335.089 217.356 335.056C218.195 334.693 218.72 334.363 219.597 334.009C230.607 328.627 241.266 323.269 252.282 317.834C254.771 316.824 257.078 316.149 258.974 314.866C260.282 313.98 261.692 312.346 261.892 310.887C262.566 305.96 262.66 300.957 263.088 295.993C264.028 285.076 265.037 274.165 266.34 263.168C267.445 262.374 268.228 261.664 269.018 260.967C269.026 260.981 268.999 260.957 268.999 260.957ZM274.146 309.489C282.113 306.65 290.08 303.811 298.834 300.691C285.787 298.41 273.724 302.682 269.511 310.972C271.069 310.506 272.268 310.148 274.146 309.489Z" fill="#965827"/>
<path d="M356.045 353.155C369.05 373.149 382.004 393.176 395.095 413.114C398.321 418.027 397.948 422.01 392.664 425.813C380.877 433.147 369.531 440.11 358.218 447.125C357.74 447.421 357.56 448.197 356.868 448.706C327.614 440.439 298.722 432.256 269.864 423.954C264.534 422.421 259.343 420.406 254.267 418.349C260.147 415.389 265.887 412.771 271.542 409.982C289.87 400.943 308.166 391.838 326.477 382.766C330.212 380.915 332.195 377.808 332.856 373.805C333.937 367.259 334.954 360.702 336.433 354.082C343.26 353.728 349.652 353.441 356.045 353.155Z" fill="#F4D7A7"/>
<path d="M356.472 353.091C349.652 353.441 343.26 353.728 336.072 354.041C334.552 354.148 333.827 354.229 332.685 354.254C310.477 356.116 288.691 358.099 266.893 359.93C245.42 361.733 223.929 363.337 202.455 365.133C197.874 365.516 193.331 366.347 188.334 366.926C179.218 367.589 170.538 368.297 161.605 368.869C161.279 368.19 161.205 367.646 161.561 367.108C170.101 365.715 178.212 364.316 186.323 362.917C220.45 356.821 254.578 350.737 288.701 344.622C304.211 341.843 319.717 339.032 335.208 336.145C336.739 335.86 338.153 334.941 339.95 334.115C348.201 332.773 356.148 331.786 364.038 330.461C378.22 328.079 392.375 325.531 406.529 322.984C418.427 320.844 430.303 318.587 442.199 316.438C443.933 316.125 445.724 316.129 448.179 315.931C446.928 323.992 445.16 331.476 444.773 339.031C444.422 345.899 440.787 345.843 435.513 346.164C421.906 346.992 408.353 348.688 394.767 349.919C385.918 350.72 377.049 351.299 368.191 352.007C364.424 352.308 360.663 352.685 356.472 353.091Z" fill="#DA264F"/>
<path d="M315.184 77.952C319.635 77.1931 321.059 79.3773 321.908 82.9095C325.51 97.899 329.288 112.846 333.02 127.804C333.294 128.902 333.71 129.964 334.325 131.857C342.136 119.547 349.551 107.859 356.971 96.174C357.416 95.4733 357.875 94.7799 358.362 94.1079C360.472 91.1948 362.448 85.999 364.743 85.8523C369.794 85.5294 375.04 87.6443 380.125 89.0558C380.973 89.291 381.822 90.9362 381.979 92.0294C384.385 108.719 386.697 125.423 388.957 142.134C389.147 143.545 388.813 145.027 388.675 147.25C383.729 146.1 379.217 145.28 374.891 143.884C373.801 143.532 373.079 141.412 372.599 139.967C372.038 138.279 371.928 136.44 371.614 134.617C368.264 133.768 365.078 132.938 361.88 132.155C357.288 131.029 352.922 129.965 350.374 135.966C349.872 137.15 346.406 137.757 344.442 137.519C336.739 136.585 329.057 135.374 321.449 133.858C319.827 133.534 317.441 131.608 317.305 130.233C316.804 125.15 314.513 123.212 309.529 123.936C308.281 124.118 306.922 123.611 305.625 123.361C300.944 122.459 296.754 122.278 294.834 128.104C294.42 129.362 292.209 130.85 290.853 130.823C286.602 130.741 282.363 129.987 277.319 129.4C279.433 124.435 281.218 119.729 283.401 115.216C289.193 103.242 295.1 91.3226 301.144 79.4752C301.733 78.3215 303.581 77.1709 304.871 77.1403C308.153 77.0625 311.45 77.6209 315.184 77.952ZM312.034 106.372C311.277 103.267 310.52 100.161 309.497 95.9615C307.19 101.477 305.333 105.916 303.231 110.942C306.986 110.942 309.755 110.942 312.849 110.942C312.587 109.642 312.335 108.4 312.034 106.372ZM369 107.778C368.944 107.623 368.923 107.437 368.822 107.321C368.742 107.229 368.464 107.157 368.443 107.189C365.957 110.912 363.488 114.645 360.512 119.14C364.22 119.859 366.694 120.339 370.296 121.038C369.839 116.42 369.444 112.435 369 107.778Z" fill="#3D0B34"/>
<path d="M226.043 101C226.044 93.0066 226.142 85.5115 226 78.0209C225.943 74.9885 227.051 73.8948 230.073 73.965C244.832 74.3077 241.706 71.9196 242.022 85.5657C242.244 95.1285 240.912 93.8855 250.649 93.9994C251.815 94.0131 252.994 93.8843 254.143 94.0215C257.708 94.4471 259.252 93.2493 259.145 89.3556C259.033 85.2456 259.038 80.903 260.222 77.039C262.156 70.7288 267.796 75.2022 271.622 74.1024C274.058 73.4022 276.27 74.1454 276.057 77.603C275.648 84.2189 275.204 90.84 275.084 97.4645C274.919 106.62 274.961 115.782 275.084 124.939C275.125 127.923 274.122 129.107 271.053 129.036C256.228 128.694 259.327 131.065 259.081 117.474C258.891 106.983 259.043 106.98 248.481 107C242.052 107.012 242.051 107.012 242.044 113.607C242.04 116.937 241.751 120.3 242.113 123.59C242.619 128.197 240.648 129.5 236.406 129.045C232.958 128.676 228.797 129.761 226.258 128.146C224.824 127.235 226.035 122.175 226.039 118.984C226.046 113.156 226.042 107.328 226.043 101Z" fill="#3D0B34"/>
<path d="M415.753 98.3759C422.421 101.021 428.894 103.194 435.029 106.083C444.613 110.597 448.063 119.25 444.62 128.768C441.218 138.175 432.833 142.517 422.732 140.11C422.249 139.994 421.737 139.992 421.256 139.869C411.548 137.383 411.563 137.386 408.126 147.108C407.411 149.132 406.546 151.104 405.519 153.677C401.359 152.147 397.096 150.91 393.213 148.927C392.194 148.406 391.584 145.298 392.1 143.844C396.253 132.129 400.713 120.522 405.097 108.889C406.66 104.743 408.271 100.614 409.927 96.3035C412.031 97.041 413.719 97.6328 415.753 98.3759ZM428.876 122.994C429.008 117.192 428.474 116.691 419.896 114.889C418.939 117.931 417.97 121.012 416.883 124.469C421.269 125.134 425.191 129.76 428.876 122.994Z" fill="#3D0B34"/>
<path d="M344.45 308.917C345.054 301.865 346.087 294.665 347.013 287.452C348.363 276.937 349.636 266.412 350.973 255.475C358.011 261.032 365.039 266.98 372.004 273.001C373.241 274.071 374.217 275.444 375.599 276.842C375.629 292.271 364.922 307.814 347.56 308.033C346.648 308.045 345.741 308.509 344.45 308.917Z" fill="#EAAD42"/>
<path d="M476.384 130.407C471.831 137.946 467.318 145.091 463.171 152.443C461.11 156.097 458.872 156.493 455.602 154.285C453.417 152.811 451.101 151.528 448.251 149.8C453.722 138.698 459.175 127.632 464.918 115.98C469.899 118.703 474.878 121.425 480.345 124.414C478.899 126.594 477.737 128.346 476.384 130.407Z" fill="#3D0B34"/>
<path d="M357.241 448.749C357.56 448.197 357.74 447.421 358.218 447.125C369.531 440.11 380.877 433.147 392.555 426.148C394.529 428.148 396.166 430.175 397.921 432.507C387.599 441.842 377.159 450.87 366.418 459.589C367.185 457.095 368.253 454.911 369.577 452.203C365.134 450.959 361.188 449.854 357.241 448.749Z" fill="#EAAF46"/>
<path d="M440.807 158.846C444.261 154.839 448.204 155.284 451.967 157.081C455.711 158.868 458.251 162.175 456.841 166.365C456.019 168.806 453.39 172.236 451.421 172.34C448.004 172.522 443.879 171.243 441.137 169.152C437.944 166.718 438.378 162.651 440.807 158.846Z" fill="#3D0B34"/>
<path d="M106.402 486.927C102.959 488.064 99.7686 488.88 96.7511 490.117C84.7388 495.041 72.2059 496.595 59.5044 494.752C54.0808 493.965 48.9741 490.993 43.3668 489.061C31.3042 479.223 20.2435 468.764 13.4008 454.718C11.7115 451.251 10.474 447.563 9.11231 443.18C7.58685 435.596 5.97779 428.809 4.34338 421.568C3.89432 412.973 3.33968 404.835 3.08006 396.688C2.7562 386.525 6.53016 377.892 13.2479 370.355C22.2668 360.235 33.1068 352.606 45.333 347.001C61.5782 339.553 78.4944 335.091 96.4208 337.245C88.7301 341.284 81.6956 345.589 76.6701 352.939C75.9296 353.951 75.4241 354.777 74.6188 355.8C71.9607 362.302 69.6025 368.608 66.8474 374.861C58.2469 372.759 50.0432 370.71 40.8704 368.419C40.8704 375.377 40.8704 381.138 40.5354 386.986C36.0157 389.103 31.9385 391.407 27.6211 393.097C21.0135 395.685 14.3892 396.954 9.38363 389.636C2.09136 409.58 13.2952 453.795 28.1225 463.911C38.1046 447.981 50.2908 435.139 70.8 435.209C64.4396 442.144 58.1984 448.763 51.5385 455.827C56.5137 459.008 61.1734 461.986 66.1414 465.162C71.1094 454.746 75.8604 444.786 81.0835 434.848C93.1677 435.087 103.697 438.673 112.881 445.686C115.512 447.696 117.379 447.696 119.881 446.075C125.28 442.579 130.744 439.183 136.419 436.009C139.884 442.693 143.111 449.113 146.177 455.852C145.34 457.397 144.663 458.623 143.987 459.849C133.212 471.104 120.548 479.747 106.402 486.927Z" fill="#E79C26"/>
<path d="M105.998 208.991C112.117 211.384 118.197 213.968 124.415 216.164C139.341 221.434 154.402 224.712 169.899 218.234C179.681 214.145 186.465 206.886 191.57 197.864C193.284 194.835 194.773 191.68 196.588 188.343C201.494 199.895 204.987 211.915 205.266 224.773C205.528 236.818 201.095 246.559 191.743 253.899C173.733 268.032 153.471 274.193 130.629 269.978C122.27 268.436 114.623 264.787 109.046 258.355C101.675 249.854 95.0251 240.728 88.0046 231.531C93.2503 224.956 98.5565 218.722 104.252 212.009C104.765 211.005 104.888 210.48 105.011 209.955C105.011 209.955 105.043 209.999 105.3 209.959C105.713 209.595 105.869 209.273 106.025 208.95C106.025 208.95 106.022 209.006 105.998 208.991Z" fill="#532415"/>
<path d="M30.6262 147.042C31.2718 148.413 31.8071 149.966 31.9286 151.552C32.3969 157.661 36.4824 161.19 40.9858 165.194C38.9765 173.672 40.183 175.623 48.0555 177.035C51.7707 177.701 55.5034 178.269 58.6431 178.786C60.0147 181.501 61.1572 183.762 62.2998 186.024C48.0506 196.227 33.1054 205.14 16.0731 209.882C10.2753 211.497 7.12891 209.198 8.25503 203.38C9.83494 195.219 12.3092 187.106 15.4521 179.4C19.9082 168.475 25.3216 157.941 30.6262 147.042Z" fill="#E9AC42"/>
<path d="M51.0922 282.348C54.7948 299.029 63.2794 314.074 70.735 330.014C64.4837 332.086 58.1742 333.015 52.3919 335.286C43.6886 338.704 35.3541 343.062 26.8628 347.02C30.0433 338.058 33.0778 329.041 36.4395 320.148C41.1726 307.627 46.1484 295.197 51.0922 282.348Z" fill="#EAAD43"/>
<path d="M26.5713 347.178C35.3541 343.062 43.6886 338.704 52.3919 335.286C58.1742 333.015 64.4837 332.086 70.888 330.342C78.4757 329.784 85.7325 329.441 93.6668 329.37C95.0745 332.099 95.8045 334.556 96.5409 336.98C96.5473 336.946 96.6032 336.907 96.6032 336.907C78.4943 335.091 61.5782 339.553 45.333 347.001C33.1068 352.606 22.2667 360.235 13.2479 370.355C6.53011 377.892 2.75615 386.525 3.08001 396.688C3.33963 404.835 3.89427 412.973 4.08022 421.418C3.31608 421.111 2.78969 420.501 2.2633 419.89C1.52158 410.937 0.563265 401.994 0.0823246 393.027C-0.985786 373.11 8.39772 358.903 24.8482 348.699C25.3962 348.359 25.8058 347.796 26.5713 347.178Z" fill="#FEFDFA"/>
<path d="M62.6863 186.098C61.1573 183.762 60.0147 181.501 58.6431 178.786C55.5034 178.269 51.7707 177.701 48.0555 177.035C40.183 175.623 38.9765 173.672 41.1536 165.503C48.7799 166.122 56.3137 167.074 63.8263 168.17C64.8544 168.32 66.0422 168.971 66.7073 169.766C73.2048 177.53 79.6069 185.374 86.1325 193.52C83.5728 194.275 80.828 195.349 78.2797 194.998C73.355 194.319 74.265 190.33 74.8069 187.096C70.7759 186.778 66.9244 186.475 62.6863 186.098Z" fill="#400E34"/>
<path d="M2.20459 420.317C2.78966 420.501 3.31606 421.111 4.10555 421.872C5.97772 428.809 7.58678 435.596 9.13581 442.805C6.76582 435.733 4.45586 428.238 2.20459 420.317Z" fill="#F9E8CA"/>
<path d="M46.0617 133.564C43.397 134.234 40.5339 134.629 37.2458 135.002C37.5687 133.216 38.3165 131.452 39.122 129.322C41.4075 130.4 43.6353 131.844 46.0617 133.564Z" fill="#EAAF46"/>
<path d="M104.739 210.07C104.888 210.48 104.765 211.005 104.415 211.695C104.282 211.301 104.375 210.744 104.739 210.07Z" fill="#965827"/>
<path d="M105.755 209C105.869 209.273 105.713 209.595 105.274 209.949C105.156 209.669 105.321 209.36 105.755 209Z" fill="#965827"/>
<path d="M107.572 66.4419C106.218 73.2539 105.031 74.0572 96.5041 74.1423C91.8223 73.7356 89.0902 72.2114 90.3575 67.0991C90.6563 65.8934 89.6692 64.352 89.2227 62.9816C87.7867 58.574 85.7634 54.2713 84.9833 49.7527C82.7781 36.9792 90.7741 29.2674 103.59 30.9181C106.824 31.3348 110.244 30.4693 113.56 30.0428C115.523 29.7902 117.477 28.8147 119.383 28.942C121.57 29.088 123.7 30.0942 125.855 30.7267C125.212 32.7487 124.569 34.7707 123.817 37.1349C125.566 38.8016 127.981 40.8442 130.081 43.1704C132.63 45.9938 134.619 49.2521 132.091 53.0387C129.556 56.8337 125.805 57.6669 121.519 56.4299C120.719 56.1991 119.914 55.9884 118.599 55.5734C117.85 55.4509 117.613 55.5235 117.375 55.5961C117.535 55.7923 117.694 55.9886 117.853 56.1848C117.169 62.7712 116.994 62.8658 107.076 61.7214C107.251 63.216 107.413 64.6055 107.572 66.4419Z" fill="#3F0D35"/>
<path d="M65.9794 104.12C66.4801 105.737 67.3182 107.753 66.939 109.507C64.8924 118.973 62.544 128.373 60.1576 138.392C55.6512 136.881 52.1276 135.7 48.3362 134.283C53.9639 124.164 59.8595 114.281 65.9794 104.12Z" fill="#400E34"/>
<path d="M67.2444 374.914C69.6026 368.608 71.9608 362.302 74.8265 356.117C75.6102 357.539 75.7351 358.898 76.2106 360.121C76.5867 361.088 77.2378 362.445 78.0356 362.668C81.7862 363.718 84.6829 365.256 84.7835 369.792C84.7937 370.252 86.4975 370.887 87.4793 371.046C88.2848 371.176 89.4351 370.275 90.0016 370.594C92.8237 372.187 95.4717 374.084 98.2548 375.751C98.9693 376.179 100.177 376.59 100.774 376.277C104.7 374.221 108.327 373.247 111.582 377.496C111.823 377.811 113.853 377.307 114.52 376.647C117.091 374.105 123.301 373.799 126.005 376.027C126.532 376.462 128.877 375.862 128.922 375.536C129.636 370.394 133.619 371.87 136.704 371.477C137.767 371.342 139.264 371.298 139.765 370.622C142.146 367.406 144.183 363.943 149.192 365.78C149.631 365.941 151.235 364.499 151.147 364.293C149.244 359.833 153.866 358.463 155.464 355.77C157.551 359.683 159.342 363.393 161.132 367.103C161.206 367.646 161.279 368.19 161.705 369.264C162.442 376.504 162.96 383.209 163.137 389.923C163.195 392.15 162.664 394.053 165.641 394.832C176.818 397.759 187.951 400.853 199.44 404.043C202.453 404.912 205.126 405.624 208.097 406.551C218.917 409.626 229.439 412.487 240.262 415.547C242.729 416.349 244.895 416.951 247.362 417.731C249.805 418.143 251.947 418.378 254.089 418.613C259.343 420.406 264.534 422.421 269.864 423.954C298.722 432.256 327.614 440.439 356.868 448.706C361.188 449.854 365.134 450.959 369.577 452.203C368.253 454.911 367.185 457.095 366.078 459.64C365.033 462.003 363.853 463.94 363.062 466.025C362 468.823 360.289 469.305 357.434 468.013C349.326 465.238 341.576 462.505 333.414 459.768C328.374 457.707 323.817 455.462 319.099 453.633C310.297 450.221 301.437 446.946 292.511 443.876C290.859 443.307 288.601 443.514 286.939 444.168C283.389 445.565 280.239 444.812 278.748 441.765C276.882 437.951 273.764 436.729 270.293 435.573C265.751 434.059 261.208 432.548 256.289 431.111C255.914 431.187 255.903 431.168 255.864 430.902C255.531 430.45 255.236 430.265 254.62 429.914C252.211 429.139 250.124 428.529 248.037 427.918C248.037 427.918 248.017 428.018 248.127 427.778C247.917 427.421 247.598 427.304 247.279 427.187C244.773 426.15 242.266 425.113 239.059 423.905C225.911 419.203 213.464 414.672 200.733 409.947C199.185 409.326 197.922 408.898 196.592 408.418C196.526 408.366 196.37 408.43 196.198 408.253C195.719 407.927 195.397 407.883 194.794 407.709C186.707 404.664 178.886 401.857 170.777 398.827C167.881 397.633 165.274 396.663 162.472 395.619C160.744 399.552 159.161 403.157 157.368 406.458C155.212 405.271 153.266 404.388 151.167 403.436C151.371 401.932 151.555 400.577 151.74 399.223C151.378 398.95 151.017 398.677 150.656 398.404C149.342 399.556 148.028 400.708 146.663 401.905C144.824 401.488 142.754 401.345 140.999 400.527C139.326 399.748 138.048 398.16 136.455 397.153C135.953 396.836 134.859 397.017 134.263 397.362C129.666 400.02 124.396 399.569 120.229 396.308C119.645 395.851 117.878 395.985 117.355 396.523C114.18 399.785 107.851 400.769 103.593 398.636C102.937 398.308 101.305 398.684 100.918 399.264C98.2805 403.223 91.2318 406.248 86.7506 405.405C86.2074 405.303 85.2115 406.835 84.6691 407.754C84.2697 408.431 84.2677 409.342 83.7899 409.981C76.043 402.8 70.8933 394.577 70.3508 384.01C74.5814 382.784 78.4399 381.676 83.3131 380.277C77.3139 378.275 72.2792 376.595 67.2444 374.914Z" fill="#FEFDFC"/>
<path d="M201.017 410.14C213.464 414.672 225.911 419.203 238.694 423.872C237.206 425.092 235.488 426.446 233.539 427.212C220.456 432.355 209.912 441.101 199.869 450.598C187.105 462.668 174.316 474.711 161.226 486.904C155.49 478.086 150.067 469.13 144.315 460.011C144.663 458.623 145.34 457.397 146.411 456.12C149.095 460.221 151.386 464.373 153.732 468.624C162.021 460.041 162.182 457.999 155.53 449.716C154.91 448.944 154.411 448.076 154.038 446.933C157.485 441.106 160.749 435.6 164.423 430.07C172.328 428.032 179.919 426.309 187.279 423.887C191.421 422.524 195.183 420.006 199.42 417.796C200.155 415.103 200.586 412.621 201.017 410.14Z" fill="#EAAD43"/>
<path d="M248.064 428.276C250.124 428.529 252.211 429.139 254.697 430.167C255.365 430.779 255.634 430.973 255.903 431.168C255.903 431.168 255.914 431.187 255.897 431.192C260.613 440.295 265.343 449.395 270.077 458.492C272.373 462.905 274.732 467.288 276.948 471.742C277.64 473.133 277.958 474.71 278.447 476.202C277.969 476.441 277.49 476.68 277.012 476.919C267.372 460.824 257.732 444.728 248.064 428.276Z" fill="#9B5F2E"/>
<path d="M247.373 427.369C247.598 427.304 247.917 427.421 248.176 427.79C247.879 427.905 247.662 427.741 247.373 427.369Z" fill="#9B5F2E"/>
<path d="M96.4208 337.245C96.6033 336.907 96.5474 336.946 96.8962 337.001C97.8671 337.344 98.4892 337.632 99.0909 338.168C99.1627 338.722 99.2548 339.028 99.3469 339.333C99.4756 339.241 99.7233 339.079 99.7156 339.066C99.5017 338.699 99.262 338.348 99.1337 337.598C98.8833 334.808 98.5257 332.415 98.1681 330.023C107.473 331.706 116.822 333.187 126.06 335.182C129.293 335.88 130.873 335.097 132.512 332.424C140.604 319.225 148.862 306.129 157.081 293.008C158.121 291.349 159.275 289.761 160.924 287.335C163.691 291.691 166.333 295.278 168.238 299.222C168.767 300.315 167.545 302.909 166.381 304.062C156.681 313.67 146.834 323.131 136.951 332.552C135.641 333.8 133.876 334.571 131.306 336.212C139.945 340.689 146.95 343.752 153.327 347.802C158.446 351.052 162.875 350.705 168.162 348.618C172.531 346.894 177.431 345.212 181.735 349.468C182.117 349.847 183.384 349.685 184.047 349.369C188.686 347.158 193.274 344.839 198.322 342.303C199.186 342.111 199.607 342.171 200.001 342.491C199.992 343.097 200.009 343.444 200.025 343.79C194.286 346.821 188.548 349.853 182.186 352.769C177.228 347.602 172.296 350.491 167.966 352.195C163.244 354.053 158.889 355.48 154.122 352.883C154.116 352.923 154.195 352.937 154.165 352.738C153.852 352.622 153.568 352.705 153.004 353.016C150.752 355.031 150.452 359.572 145.96 357.331C145.744 357.223 144.572 358.269 144.423 358.912C143.138 364.438 141.935 365.229 136.684 364.225C135.991 364.093 134.525 365.059 134.328 365.769C133.167 369.97 130.154 369.186 127.152 368.78C126.109 368.639 124.428 368.384 124.056 368.906C121.56 372.409 118.317 371.356 115.062 370.813C113.96 370.63 112.721 370.487 111.691 370.804C108.435 371.804 105.073 373.855 103.432 368.607C103.311 368.222 101.586 367.889 100.914 368.198C95.5938 370.643 93.8886 370.012 91.8997 364.853C91.6574 364.225 90.4109 363.503 89.7389 363.598C84.7701 364.298 83.8608 363.525 83.9323 358.68C83.9441 357.878 82.6371 356.342 82.6094 356.357C78.4532 358.654 78.826 353.859 76.9053 352.753C81.6957 345.589 88.7302 341.284 96.4208 337.245Z" fill="#FEFDFC"/>
<path d="M191.969 314.081C195.488 311.451 199.007 308.82 202.576 306.153C197.583 301.126 196.934 297.827 200.01 294.827C203.185 291.731 206.66 292.579 211.188 297.957C217.97 291.957 224.75 285.964 231.524 279.964C242.583 270.17 253.638 260.372 265.127 250.113C266.173 248.823 266.786 247.996 267.4 247.169C273.483 242.042 279.685 237.048 285.629 231.764C302.66 216.622 319.586 201.36 336.562 186.156C336.924 185.832 337.396 185.631 338.28 185.088C341.5 188.866 344.777 192.711 348.447 197.018C342.42 201.776 335.705 207.111 328.955 212.401C309.707 227.483 290.439 242.538 271.208 257.64C270.329 258.331 269.73 259.378 269 260.608C268.999 260.957 269.026 260.981 268.67 260.911C267.544 261.296 266.773 261.752 265.681 262.289C263.794 263.858 262.228 265.345 260.333 266.9C258.628 267.88 257.184 268.703 255.888 269.716C244.27 278.794 232.643 287.861 221.091 297.022C212.021 304.214 203.052 311.535 193.701 318.862C191.813 320.25 190.263 321.574 188.712 322.898C182.672 327.368 176.631 331.838 170.59 336.308C170.331 336 170.073 335.693 169.814 335.385C175.235 330.181 180.656 324.978 186.444 319.44C188.531 317.431 190.25 315.756 191.969 314.081Z" fill="#FFFEFD"/>
<path d="M98.0476 329.637C98.5257 332.415 98.8833 334.808 99.1564 337.581C99.072 337.961 99.1113 337.92 99.1113 337.92C98.4892 337.632 97.8671 337.344 96.8899 337.034C95.8046 334.556 95.0746 332.099 94.125 329.364C89.0223 318.4 84.1393 307.715 79.0593 296.6C82.5894 294.875 85.9407 293.237 89.9491 291.279C92.6956 304.351 95.3114 316.801 98.0476 329.637Z" fill="#DC2D53"/>
<path d="M191.667 313.906C190.25 315.756 188.531 317.431 186.463 319.096C183.695 313.63 181.502 308.057 178.794 302.748C175.925 297.126 175.891 291.51 178.054 285.858C180.346 279.87 183.017 274.027 185.522 268.12C186.028 268.301 186.535 268.481 187.041 268.662C185.889 272.623 184.962 276.668 183.537 280.529C180.531 288.673 180.592 296.311 185.814 303.683C188.012 306.786 189.535 310.367 191.667 313.906Z" fill="#9B5F2E"/>
<path d="M188.86 323.241C190.263 321.574 191.813 320.25 193.822 319.2C197.899 325.989 201.517 332.503 204.974 339.317C203.217 340.489 201.622 341.36 200.027 342.231C199.607 342.171 199.186 342.111 198.457 341.97C195.102 335.788 192.054 329.686 188.86 323.241Z" fill="#9B5F2E"/>
<path d="M267.307 246.749C266.786 247.996 266.173 248.823 265.308 249.834C265.605 244.463 266.155 238.907 266.706 233.351C267.207 233.397 267.709 233.444 268.21 233.49C267.878 237.769 267.546 242.049 267.307 246.749Z" fill="#EAAF46"/>
<path d="M161.225 191.381C153.407 195.784 147.384 193.765 144.057 185.969C140.745 178.208 143.32 167.25 149.758 161.707C155.388 156.859 162.548 158.039 166.313 164.437C171.309 172.926 169.421 183.407 161.225 191.381Z" fill="#3E0C34"/>
<path d="M115.279 145.177C118.169 135.993 123.618 132.533 130.682 135.041C136.555 137.126 138.946 141.367 137.993 148.01C137.333 152.616 132.804 156.706 128.05 156.991C121.579 157.379 117.45 154.467 115.949 148.452C115.708 147.488 115.476 146.522 115.279 145.177Z" fill="#854B22"/>
<path d="M119.708 116.198C118.355 111.452 116.932 107.074 116.163 102.584C115.933 101.243 117.192 98.8123 118.387 98.2858C119.695 97.7096 122.226 98.1927 123.349 99.1949C129.623 104.799 132.76 111.926 131.964 120.407C131.629 123.98 128.716 125.261 125.877 123.053C123.579 121.265 121.863 118.728 119.708 116.198Z" fill="#3E0C34"/>
<path d="M167.512 112.806C162.62 108.332 160.2 102.944 159.684 96.8537C159.531 95.0474 160.485 92.4422 161.842 91.4589C162.757 90.7953 165.783 91.8081 166.972 92.978C171.357 97.2889 173.827 102.71 173.982 108.913C174.098 113.561 172.439 114.534 167.512 112.806Z" fill="#3E0C34"/>
<path d="M186.448 122.11C188.513 124.77 191.187 127.254 191.493 130.002C191.7 131.868 188.933 135.231 186.862 135.87C184.58 136.575 180.667 135.759 179.129 134.08C177.502 132.304 176.81 128.366 177.634 126.06C178.305 124.18 181.784 123.258 184.086 122.038C184.595 121.768 185.387 122.03 186.448 122.11Z" fill="#854B22"/>
<path d="M160.138 124.877C163.068 126.4 166.214 127.619 168.874 129.518C172.55 132.142 175.142 135.709 173.913 140.604C172.597 145.843 168.184 147.708 163.844 149.91C163.598 149.144 163.467 148.953 163.517 148.862C169.885 137.353 169.883 137.356 161.079 127.539C160.643 127.053 160.348 126.441 159.991 125.468C159.995 125.049 160.138 124.877 160.138 124.877Z" fill="#542414"/>
<path d="M110.808 88.5651C108.537 89.0663 106.667 89.4454 104.742 89.8357C104.264 84.465 105.932 81.9771 110.184 82.15C116.074 82.3895 121.942 83.1807 127.819 83.7356C127.81 84.5276 127.801 85.3197 127.792 86.1117C122.264 86.8889 116.736 87.666 110.808 88.5651Z" fill="#400E34"/>
<path d="M164.796 72.5392C166.096 73.8636 167.048 75.0777 168 76.2918C166.78 76.9174 165.623 77.7734 164.328 78.1281C159.157 79.5455 153.942 80.807 148.744 82.1263C148.462 81.4674 148.18 80.8085 147.898 80.1497C153.415 77.5761 158.931 75.0025 164.796 72.5392Z" fill="#400E34"/>
<path d="M159.923 125.135C159.494 125.016 159.137 124.812 158.78 124.607C159.135 124.584 159.49 124.56 159.992 124.707C160.138 124.877 159.995 125.049 159.923 125.135Z" fill="#542414"/>
<path d="M205.136 339.017C201.518 332.503 197.9 325.989 194.16 319.137C203.052 311.535 212.021 304.214 221.091 297.022C232.643 287.861 244.27 278.794 255.888 269.716C257.184 268.703 258.628 267.88 260.408 267.298C257.85 284.389 254.887 301.149 251.924 317.91C241.266 323.269 230.607 328.627 219.278 334.054C218.085 334.444 217.563 334.766 217.041 335.089C217.041 335.089 217.055 335.016 216.785 335.066C216.024 335.441 215.534 335.767 215.044 336.092C215.044 336.092 215.054 336.021 214.782 336.065C214.021 336.437 213.534 336.765 213.046 337.093C213.046 337.093 213.052 337.023 212.778 337.062C212.018 337.432 211.533 337.763 211.048 338.093C211.048 338.093 211.053 338.024 210.699 338.013C208.608 338.341 206.872 338.679 205.136 339.017Z" fill="#F4D7A7"/>
<path d="M252.282 317.834C254.887 301.149 257.85 284.389 260.738 267.23C262.229 265.345 263.794 263.858 265.682 262.55C266.009 262.904 266.014 263.078 266.018 263.252C265.037 274.165 264.029 285.076 263.088 295.993C262.66 300.957 262.567 305.96 261.892 310.887C261.692 312.346 260.282 313.98 258.974 314.866C257.078 316.149 254.771 316.824 252.282 317.834Z" fill="#EAAD43"/>
<path d="M154.127 352.844C158.889 355.48 163.244 354.053 167.966 352.195C172.296 350.491 177.228 347.602 181.857 352.884C183.497 356.139 184.845 359.164 186.258 362.553C178.212 364.316 170.101 365.715 161.561 367.108C159.341 363.393 157.551 359.683 155.369 355.495C154.694 354.292 154.411 353.568 154.127 352.844Z" fill="#E79C2A"/>
<path d="M273.806 309.639C272.268 310.148 271.069 310.506 269.511 310.972C273.724 302.682 285.787 298.41 298.834 300.691C290.08 303.811 282.113 306.65 273.806 309.639Z" fill="#542414"/>
<path d="M204.974 339.317C206.872 338.679 208.608 338.341 210.731 338.026C207.645 339.923 204.173 341.796 200.363 343.729C200.009 343.444 199.992 343.097 200.001 342.491C201.622 341.36 203.217 340.489 204.974 339.317Z" fill="#F9E8CA"/>
<path d="M266.34 263.168C266.014 263.078 266.009 262.904 266.003 262.468C266.773 261.752 267.544 261.296 268.663 260.897C268.228 261.664 267.445 262.374 266.34 263.168Z" fill="#F4D7A7"/>
<path d="M211.353 338.074C211.533 337.763 212.018 337.433 212.812 337.07C212.634 337.376 212.146 337.715 211.353 338.074Z" fill="#F9E8CA"/>
<path d="M213.352 337.071C213.533 336.765 214.021 336.437 214.817 336.072C214.636 336.373 214.146 336.711 213.352 337.071Z" fill="#F9E8CA"/>
<path d="M215.35 336.067C215.534 335.767 216.024 335.441 216.821 335.074C216.637 335.369 216.146 335.705 215.35 336.067Z" fill="#F9E8CA"/>
<path d="M217.356 335.056C217.563 334.766 218.085 334.444 218.926 334.077C218.721 334.363 218.196 334.693 217.356 335.056Z" fill="#F9E8CA"/>
<path d="M254.267 418.349C251.947 418.378 249.805 418.143 247.333 417.338C244.12 411.07 241.238 405.372 238.216 399.401C240.321 398.818 241.921 398.41 243.5 397.933C266.097 391.099 288.645 384.097 311.306 377.48C323.304 373.976 331.933 367.773 333.102 354.309C333.827 354.229 334.552 354.148 335.638 354.109C334.954 360.702 333.938 367.259 332.856 373.805C332.195 377.808 330.213 380.915 326.477 382.766C308.166 391.838 289.87 400.943 271.542 409.982C265.887 412.771 260.147 415.389 254.267 418.349Z" fill="#E9AD43"/>
<path d="M332.685 354.254C331.933 367.773 323.304 373.976 311.306 377.48C288.645 384.097 266.097 391.099 243.5 397.933C241.921 398.41 240.321 398.818 238.216 399.401C241.237 405.372 244.12 411.07 247.032 417.16C244.895 416.951 242.729 416.349 240.176 415.189C238 411.472 236.05 408.392 234.466 405.134C232.847 401.806 230.889 400.755 227.064 401.884C220.753 403.745 214.232 404.889 207.799 406.336C205.126 405.624 202.453 404.912 199.412 403.647C195.619 391.053 192.195 379.012 188.771 366.972C193.331 366.347 197.874 365.516 202.455 365.133C223.929 363.337 245.42 361.733 266.893 359.93C288.691 358.099 310.477 356.116 332.685 354.254Z" fill="#975827"/>
<path d="M188.334 366.926C192.195 379.012 195.62 391.053 199.072 403.489C187.951 400.853 176.818 397.759 165.641 394.832C162.664 394.053 163.195 392.15 163.137 389.923C162.96 383.209 162.442 376.504 161.958 369.401C170.539 368.297 179.218 367.589 188.334 366.926Z" fill="#E79C26"/>
<path d="M312.059 106.765C312.335 108.4 312.586 109.642 312.849 110.942C309.755 110.942 306.986 110.942 303.23 110.942C305.333 105.916 307.19 101.477 309.496 95.9615C310.52 100.161 311.277 103.267 312.059 106.765Z" fill="black"/>
<path d="M369.025 108.114C369.444 112.435 369.839 116.42 370.296 121.038C366.694 120.339 364.22 119.859 360.512 119.14C363.487 114.645 365.957 110.912 368.443 107.189C368.464 107.157 368.742 107.229 368.822 107.321C368.923 107.437 368.944 107.623 369.025 108.114Z" fill="black"/>
<path d="M428.748 123.367C425.191 129.76 421.269 125.134 416.883 124.469C417.97 121.012 418.939 117.931 419.897 114.889C428.474 116.691 429.008 117.192 428.748 123.367Z" fill="black"/>
<path d="M70.9192 434.895C50.2908 435.139 38.1046 447.981 28.1224 463.911C13.2952 453.795 2.09131 409.58 9.38357 389.636C14.3891 396.954 21.0135 395.685 27.621 393.097C31.9384 391.407 36.0157 389.103 40.5862 387.383C41.1459 388.936 41.3198 390.179 41.5045 391.5C49.8834 389.519 57.8896 387.626 65.9576 386.17C67.5673 397.437 70.7681 407.523 79.0506 415.62C79.9197 416.594 80.7102 417.302 81.6749 418.294C82.5678 419.059 83.2866 419.542 84.0154 420.374C79.6566 425.447 75.2879 430.171 70.9192 434.895Z" fill="#BD6417"/>
<path d="M136.181 435.746C130.744 439.183 125.28 442.579 119.881 446.075C117.379 447.696 115.512 447.696 112.881 445.686C103.697 438.673 93.1678 435.087 81.1846 434.495C82.8304 430.216 84.8472 426.313 87.1021 422.707C101.346 432.691 116.453 433.911 132.622 429.077C133.973 431.445 135.077 433.596 136.181 435.746Z" fill="#BE6619"/>
<path d="M65.8959 385.733C57.8897 387.626 49.8834 389.519 41.5046 391.5C41.3198 390.179 41.1459 388.936 40.9212 387.295C40.8704 381.138 40.8704 375.377 40.8704 368.419C50.0432 370.71 58.2469 372.759 66.8474 374.861C72.279 376.595 77.3138 378.275 83.313 380.277C78.4398 381.676 74.5813 382.784 70.0296 383.996C68.1896 384.645 67.0427 385.189 65.8959 385.733Z" fill="#DB2950"/>
<path d="M86.8641 422.409C84.8472 426.313 82.8304 430.216 80.7125 434.473C75.8605 444.786 71.1095 454.746 66.1415 465.162C61.1735 461.986 56.5138 459.008 51.5386 455.827C58.1985 448.763 64.4397 442.144 70.8001 435.209C75.2881 430.171 79.6568 425.447 84.3244 420.372C87.4918 418.826 86.9078 420.871 86.8641 422.409Z" fill="#FEFCF8"/>
<path d="M154.122 352.883C154.411 353.568 154.694 354.292 155.073 355.291C153.866 358.463 149.244 359.833 151.146 364.293C151.235 364.499 149.631 365.941 149.192 365.78C144.182 363.943 142.146 367.406 139.764 370.622C139.263 371.298 137.767 371.342 136.703 371.477C133.619 371.87 129.636 370.394 128.922 375.536C128.876 375.862 126.532 376.462 126.005 376.027C123.301 373.799 117.091 374.105 114.52 376.647C113.853 377.307 111.823 377.811 111.582 377.496C108.327 373.247 104.7 374.221 100.774 376.277C100.176 376.59 98.9691 376.179 98.2546 375.751C95.4715 374.084 92.8234 372.186 90.0014 370.594C89.4349 370.275 88.2846 371.176 87.4791 371.046C86.4973 370.887 84.7935 370.252 84.7833 369.792C84.6827 365.256 81.786 363.718 78.0354 362.668C77.2376 362.445 76.5865 361.088 76.2104 360.121C75.7349 358.898 75.61 357.539 75.1262 355.921C75.424 354.777 75.9295 353.951 76.67 352.939C78.8258 353.859 78.453 358.654 82.6092 356.357C82.6369 356.342 83.944 357.878 83.9322 358.68C83.8607 363.525 84.77 364.298 89.7387 363.598C90.4108 363.503 91.6573 364.225 91.8995 364.853C93.8885 370.012 95.5936 370.643 100.914 368.198C101.586 367.889 103.311 368.222 103.432 368.607C105.073 373.855 108.435 371.804 111.69 370.804C112.72 370.487 113.96 370.63 115.062 370.813C118.317 371.356 121.56 372.409 124.056 368.906C124.428 368.384 126.109 368.639 127.152 368.78C130.154 369.186 133.167 369.97 134.328 365.769C134.524 365.059 135.991 364.092 136.683 364.225C141.935 365.229 143.138 364.438 144.423 358.912C144.572 358.269 145.744 357.223 145.96 357.331C150.452 359.572 150.752 355.031 153.228 353.074C153.733 352.903 154.195 352.937 154.195 352.937C154.195 352.937 154.116 352.923 154.122 352.883Z" fill="#DD335B"/>
<path d="M136.419 436.009C135.077 433.596 133.973 431.445 132.564 428.706C131.333 426.323 130.406 424.528 129.484 422.23C130.345 421.758 131.202 421.791 132.175 422.135C133.799 423.969 135.304 425.491 136.9 427.338C138.278 429.135 139.565 430.608 141.017 432.378C145.406 437.534 149.631 442.393 153.855 447.253C154.411 448.076 154.911 448.944 155.53 449.716C162.182 457.999 162.021 460.041 153.732 468.624C151.387 464.373 149.096 460.221 146.571 455.801C143.111 449.113 139.884 442.693 136.419 436.009Z" fill="#DB2950"/>
<path d="M117.97 56.0699C117.694 55.9885 117.535 55.7923 117.375 55.5961C117.613 55.5235 117.85 55.4509 118.205 55.5521C118.322 55.7259 118.087 55.955 117.97 56.0699Z" fill="#F3D6A6"/>
<path d="M199.116 418.008C195.183 420.006 191.421 422.524 187.28 423.887C179.919 426.309 172.328 428.032 164.434 429.671C166.379 419.214 168.722 409.132 171.065 399.05C178.886 401.857 186.707 404.664 194.951 407.922C195.707 408.392 196.039 408.411 196.37 408.43C196.37 408.43 196.526 408.366 196.438 408.797C197.272 412.155 198.194 415.082 199.116 418.008Z" fill="#BF6819"/>
<path d="M170.777 398.827C168.722 409.132 166.378 419.214 164.024 429.694C160.749 435.6 157.485 441.106 154.038 446.933C149.63 442.393 145.406 437.534 141.219 432.092C144.775 428.57 148.168 425.464 151.843 422.736C156.656 419.161 158.06 414.601 156.735 408.714C157.063 407.9 157.32 407.331 157.577 406.761C159.16 403.157 160.744 399.552 162.472 395.619C165.274 396.663 167.881 397.633 170.777 398.827Z" fill="#E79C26"/>
<path d="M157.367 406.458C157.32 407.331 157.063 407.9 156.553 408.743C156.057 409.091 155.807 409.138 155.185 409.094C154.33 408.95 153.842 408.868 153.135 408.518C151.786 408.178 150.656 408.119 149.529 408.029C148.462 407.944 146.708 408.183 146.44 407.666C144.065 403.087 140.626 403.264 136.564 404.918C135.737 405.255 134.299 405.203 133.651 404.69C129.411 401.33 125.812 401.264 120.835 404.565C120.289 404.928 119.146 404.971 118.585 404.641C113.316 401.547 109.768 402.015 105.513 406.241C105.013 406.738 103.599 406.374 102.615 406.309C101.344 406.223 99.9365 405.609 98.842 405.978C96.2079 406.865 93.7219 408.192 91.1761 409.341C91.5594 409.621 91.9426 409.902 92.3259 410.182C91.5906 411.835 90.8553 413.487 89.8121 414.976C84.5962 410.273 84.0672 416.69 81.5008 418.01C80.7103 417.302 79.9197 416.594 79.3105 415.394C81.0241 413.317 82.5563 411.733 84.0885 410.148C84.2675 409.342 84.2695 408.431 84.6689 407.754C85.2114 406.835 86.2073 405.303 86.7504 405.405C91.2316 406.248 98.2804 403.223 100.918 399.264C101.304 398.684 102.937 398.308 103.593 398.636C107.851 400.769 114.18 399.785 117.354 396.523C117.878 395.985 119.645 395.851 120.228 396.308C124.395 399.569 129.666 400.02 134.262 397.362C134.859 397.017 135.953 396.836 136.455 397.153C138.048 398.16 139.326 399.748 140.998 400.527C142.754 401.345 144.824 401.488 146.663 401.905C148.028 400.708 149.342 399.556 150.656 398.404C151.017 398.677 151.378 398.95 151.739 399.223C151.555 400.577 151.371 401.932 151.167 403.436C153.266 404.388 155.212 405.271 157.367 406.458Z" fill="#DD335B"/>
<path d="M208.097 406.551C214.232 404.889 220.753 403.745 227.064 401.884C230.89 400.755 232.847 401.806 234.466 405.134C236.051 408.392 238.001 411.472 239.875 414.989C229.439 412.487 218.917 409.626 208.097 406.551Z" fill="#E9AD43"/>
<path d="M83.7898 409.981C82.5564 411.733 81.0242 413.317 79.2321 415.128C70.7683 407.523 67.5674 397.437 65.9578 386.17C67.0428 385.189 68.1896 384.645 69.6576 384.114C70.8932 394.577 76.0429 402.8 83.7898 409.981Z" fill="#F3D6A6"/>
<path d="M199.42 417.796C198.194 415.082 197.272 412.155 196.504 408.849C197.922 408.898 199.185 409.326 200.733 409.947C200.586 412.621 200.155 415.103 199.42 417.796Z" fill="#E79C2A"/>
<path d="M255.864 430.902C255.634 430.974 255.365 430.779 255.019 430.332C255.236 430.265 255.531 430.45 255.864 430.902Z" fill="#F4D7A7"/>
<path d="M196.198 408.253C196.038 408.411 195.707 408.392 195.218 408.159C195.396 407.883 195.718 407.927 196.198 408.253Z" fill="#E79C2A"/>
<path d="M99.0493 337.978C99.2621 338.348 99.5018 338.699 99.7157 339.066C99.7233 339.079 99.4757 339.241 99.347 339.333C99.2549 339.028 99.1627 338.722 99.091 338.168C99.1113 337.92 99.072 337.961 99.0493 337.978Z" fill="#DC2D53"/>
<path d="M154.165 352.738C154.195 352.937 153.733 352.903 153.509 352.846C153.568 352.705 153.851 352.622 154.165 352.738Z" fill="#E79C2A"/>
<path d="M81.675 418.294C84.0673 416.69 84.5963 410.273 90.024 415.227C93.1452 417.079 95.6676 418.688 98.3621 419.921C108.384 424.507 118.848 424.651 129.48 422.734C130.406 424.528 131.333 426.323 132.317 428.488C116.453 433.911 101.346 432.691 87.1021 422.707C86.9077 420.871 87.4918 418.826 84.3144 420.022C83.2868 419.542 82.568 419.059 81.675 418.294Z" fill="#F3D6A6"/>
<path d="M129.484 422.23C118.848 424.651 108.384 424.507 98.362 419.921C95.6675 418.688 93.1451 417.079 90.3318 415.392C90.8552 413.488 91.5905 411.835 92.3258 410.182C91.9426 409.902 91.5593 409.622 91.1761 409.341C93.7218 408.192 96.2079 406.865 98.842 405.978C99.9365 405.609 101.344 406.223 102.615 406.309C103.599 406.375 105.013 406.738 105.513 406.241C109.768 402.015 113.316 401.547 118.585 404.642C119.146 404.971 120.289 404.928 120.835 404.565C125.812 401.264 129.411 401.33 133.651 404.69C134.299 405.203 135.737 405.255 136.564 404.918C140.626 403.264 144.065 403.087 146.44 407.666C146.708 408.183 148.462 407.944 149.529 408.029C150.656 408.119 151.786 408.178 152.805 408.668C145.816 413.331 138.937 417.577 132.058 421.823C131.202 421.791 130.345 421.758 129.484 422.23ZM129.744 420.202C129.414 420.463 129.084 420.725 128.753 420.986C129.251 420.933 129.749 420.88 129.744 420.202Z" fill="#FEFBFC"/>
<path d="M155.553 409.157C155.807 409.138 156.057 409.091 156.483 408.987C158.06 414.601 156.656 419.161 151.843 422.736C148.168 425.464 144.775 428.57 141.055 431.795C139.565 430.608 138.277 429.135 137.132 427.062C144.749 422.152 151.752 417.346 155.553 409.157Z" fill="#BF6819"/>
<path d="M155.185 409.094C151.752 417.346 144.749 422.152 137.043 426.738C135.304 425.491 133.799 423.969 132.176 422.135C138.937 417.577 145.816 413.331 153.025 408.935C153.842 408.868 154.33 408.95 155.185 409.094Z" fill="#F3D6A6"/>
<path d="M129.995 420.514C129.749 420.88 129.251 420.933 128.754 420.986C129.084 420.725 129.414 420.463 129.995 420.514Z" fill="#DB2950"/>
</svg>
