<svg width="451" height="372" viewBox="0 0 451 372" fill="none" xmlns="http://www.w3.org/2000/svg">
<path d="M321.254 202.724C328.996 205.627 336.759 208.479 344.477 211.446C355.085 215.524 365.809 219.351 376.203 223.923C385.122 227.846 388.683 236.016 390.196 245.067C393.848 266.908 389.696 287.907 381.88 308.129C374.406 327.463 364.508 345.498 348.821 359.739C342.267 365.69 334.944 370.897 326.211 371.348C320.391 371.648 314.221 368.899 308.502 366.734C292.085 360.52 275.818 353.909 259.765 347.111C274.76 347.609 284.848 339.11 293.785 329.212C308.891 312.481 318.608 292.671 324.938 271.152C329.733 254.853 332.424 238.222 329.026 221.393C327.717 214.911 323.918 208.932 321.254 202.724Z" fill="#6D5FDE"/>
<path d="M392.578 210.529C385.993 209.61 379.384 208.836 372.828 207.741C360.655 205.709 348.519 203.459 336.358 201.359C325.019 199.401 319.223 191.331 315.341 181.674C310.862 170.531 309.597 158.683 309.368 145.917C309.729 143.628 309.959 142.17 310.159 140.708C311.811 128.637 313.278 116.537 315.188 104.506C316.034 99.1775 317.772 93.9902 319.105 88.7386C324.157 79.3693 328.675 69.6583 334.388 60.7106C342.957 47.2898 354.544 43.6175 370.044 47.0448C382.561 49.8121 395.3 51.5716 407.94 53.7762C412.266 54.5306 416.594 55.279 420.79 56.5473C413.574 58.6294 407.64 62.3288 403.047 67.7625C399.095 72.4384 395.358 77.4312 392.36 82.7533C381.299 102.382 375.968 123.807 374.446 146.095C373.319 162.6 373.822 179.222 381.142 194.517C383.931 200.344 388.707 205.22 392.578 210.529Z" fill="#40C2D6"/>
<path d="M150.213 165.999C149.327 172.654 148.441 179.308 147.282 186.693C142.749 205.169 136.411 222.084 126.98 237.776C126.499 238.576 126.471 239.647 126.232 240.591C118.557 251.433 110.538 261.874 99.2349 269.405C89.9994 275.558 80.7972 276.179 70.5954 271.948C52.6828 264.519 34.5564 257.605 16.8013 250.14C21.8292 249.311 26.8927 249.708 31.2593 248.15C42.2558 244.228 50.1736 236.045 57.0971 226.953C75.9336 202.218 86.6771 174.252 88.959 143.313C89.9232 130.241 88.0104 117.358 79.4957 106.668C96.231 113.119 112.374 120.153 128.991 125.79C140.646 129.745 146.052 137.71 148.118 148.851C149.166 154.503 149.536 160.279 150.213 165.999Z" fill="#6D5FDE"/>
<path d="M318.713 88.7518C317.772 93.9901 316.033 99.1774 315.187 104.506C313.278 116.536 311.811 128.637 310.158 140.708C309.958 142.17 309.729 143.628 309.334 145.468C294.883 144.182 280.569 142.816 266.353 140.766C250.073 138.419 233.823 135.766 217.671 132.666C206.724 130.565 195.969 127.465 184.466 124.558C171.893 120.75 160.006 117.12 148.06 113.696C145.011 112.821 143.354 111.169 142.443 108.162C138.046 93.6409 140.429 80.3389 149.097 67.9758C151.185 64.9982 153.514 63.3353 157.331 63.7241C162.61 64.2618 167.924 64.4514 173.142 65.1765C171.442 72.7074 173.486 77.8925 179.438 81.9156C186.835 86.9156 193.632 84.5013 200.362 80.3647C210.916 73.8792 210.932 73.9062 217.592 83.7726C223.764 92.9162 237.186 93.5957 244.246 85.1088C245.095 84.0876 245.77 82.9135 246.667 81.9412C250.193 78.1211 252.96 78.118 256.036 82.238C258.016 84.8897 259.414 87.9679 261.292 90.7048C264.302 95.0921 267.997 98.7696 273.777 98.6458C282.352 98.462 291.251 90.677 293.269 81.9424C301.619 84.2166 309.97 86.4909 318.713 88.7518Z" fill="#287EEF"/>
<path d="M126.599 240.67C126.471 239.647 126.499 238.576 126.98 237.776C136.411 222.084 142.749 205.169 147.18 187.08C155.547 189.164 163.742 191.591 172.109 194.807C172.687 199.709 172.576 203.954 173.595 207.909C176.545 219.359 186.053 223.55 196.74 218.445C198.686 217.515 200.535 216.385 202.429 215.347C208.544 211.998 212.092 213.961 213.302 220.768C213.921 224.249 214.904 228.082 216.972 230.807C222.403 237.962 230.324 239.185 238.742 235.01C247.272 230.78 247.212 230.811 251.648 239.417C253.241 242.509 254.923 245.628 257.048 248.357C260.907 253.313 266.194 255.638 272.439 254.382C278.593 253.145 282.898 249.517 284.637 243.217C289.425 245.86 293.816 248.572 298.431 250.829C301.699 252.428 302.983 254.876 303.202 258.257C304.06 271.526 300.117 283.082 291.203 293.02C287.088 297.607 283.014 299.528 276.462 297.338C265.662 293.727 254.444 291.369 243.403 288.483C223.22 281.227 202.765 274.636 182.933 266.523C163.941 258.754 145.595 249.404 126.599 240.67Z" fill="#EFBD42"/>
<path d="M150.594 165.912C149.536 160.279 149.166 154.502 148.118 148.851C146.052 137.71 140.646 129.744 128.991 125.79C112.374 120.153 96.231 113.119 79.2222 106.477C72.1787 101.926 65.4069 101.718 58.3288 104.274C56.6622 104.875 54.8999 105.212 53.1817 105.67C52.8067 84.373 55.8388 63.6185 63.2225 43.5851C67.8734 30.9662 73.7901 19.0615 83.2631 9.23937C91.1657 1.04543 100.446 -1.54419 111.716 0.85946C126.175 3.94318 140.813 6.18528 155.377 8.77716C159.537 9.51762 163.706 10.2136 167.661 11.2943C162.956 13.1913 157.855 13.858 154.117 16.4729C149.311 19.8344 144.846 24.2462 141.542 29.0968C123.734 55.2465 117.717 84.7067 118.168 115.865C118.219 119.398 119.945 120.052 122.942 119.662C127.721 119.04 132.509 118.442 137.31 118.033C144.982 117.379 149.821 120.476 151.537 127.541C154.285 138.855 156.719 150.246 159.286 161.604C156.516 163.011 153.745 164.418 150.594 165.912Z" fill="#40C2D6"/>
<path d="M243.33 288.932C254.444 291.369 265.662 293.727 276.462 297.338C283.014 299.528 287.088 297.607 291.203 293.02C300.117 283.082 304.06 271.526 303.202 258.257C302.983 254.876 301.7 252.428 298.431 250.829C293.816 248.572 289.425 245.86 284.363 242.968C277.891 239.313 271.994 236.032 266.097 232.751C274.044 218.695 284.515 207.051 299.403 200.317C305.931 197.365 313.035 197.552 319.984 201.983C320.701 202.56 320.972 202.703 321.288 202.761C321.288 202.761 321.24 202.773 321.247 202.748C323.918 208.932 327.717 214.911 329.026 221.393C332.424 238.222 329.733 254.853 324.938 271.152C318.608 292.671 308.891 312.481 293.785 329.212C284.848 339.11 274.76 347.609 259.582 346.784C249.199 343.878 245.475 335.931 243.266 326.922C240.451 315.438 240.539 303.901 243.179 292.372C243.397 291.419 243.24 290.38 243.33 288.932Z" fill="#917EEC"/>
<path d="M392.696 210.595C388.707 205.22 383.931 200.344 381.142 194.517C373.822 179.222 373.319 162.6 374.446 146.095C375.968 123.807 381.299 102.382 392.359 82.7533C395.358 77.4311 399.095 72.4384 403.047 67.7624C407.64 62.3287 413.574 58.6294 421 56.9051C434.997 55.9511 440.789 66.1082 445.08 76.8268C448.765 86.0338 449.875 95.8394 450.395 105.85C451.66 130.236 447.413 153.627 438.012 175.889C432.155 189.76 424.874 203.37 410.123 210.159C406.629 211.767 402.165 211.267 397.389 211.487C395.448 211.05 394.266 210.863 393.083 210.676C393.083 210.676 392.814 210.661 392.696 210.595ZM391.914 155.435C392.152 156.745 392.249 158.1 392.652 159.357C394.822 166.118 396.047 174 404.579 175.644C413.371 177.337 418.145 170.762 421.882 164.543C433.589 145.056 437.209 123.928 432.326 101.656C430.896 95.1291 428.426 88.3217 420.605 86.9889C412.827 85.6633 408.301 91.1943 404.569 96.8167C392.912 114.377 389.773 133.934 391.914 155.435Z" fill="#85EBF9"/>
<path d="M52.8633 105.812C54.8999 105.212 56.6622 104.875 58.3287 104.274C65.4069 101.719 72.1787 101.926 78.8322 106.464C88.0104 117.358 89.9232 130.241 88.9591 143.313C86.6771 174.252 75.9337 202.218 57.0971 226.953C50.1736 236.045 42.2558 244.228 31.2593 248.15C26.8927 249.708 21.8292 249.311 16.6156 249.817C6.35157 246.099 2.89911 237.658 1.33797 228.494C-2.44794 206.27 2.22497 185.072 10.0263 164.312C15.4882 149.778 22.7405 136.176 32.6346 124.322C38.3716 117.448 45.8501 112.028 52.8633 105.812ZM22.1297 181.294C21.8554 188.705 20.6969 196.215 21.5083 203.505C22.8109 215.209 31.7564 219.01 41.8296 212.912C43.2364 212.06 44.4886 210.923 45.7198 209.816C59.3207 197.579 65.9753 181.56 69.9561 164.269C71.8684 155.963 72.2923 147.449 69.5103 139.111C66.8918 131.262 60.3289 128.321 52.8879 132.03C49.9585 133.49 47.1717 135.509 44.8054 137.78C32.5999 149.492 26.3008 164.389 22.1297 181.294Z" fill="#917EEC"/>
<path d="M159.614 161.564C156.719 150.246 154.285 138.855 151.537 127.541C149.821 120.476 144.982 117.379 137.31 118.033C132.509 118.442 127.721 119.04 122.942 119.662C119.945 120.052 118.219 119.398 118.168 115.865C117.717 84.7069 123.734 55.2467 141.542 29.097C144.846 24.2464 149.311 19.8346 154.117 16.4731C157.855 13.8581 162.956 13.1914 167.873 11.6403C176.021 11.5223 180.575 16.447 184.237 22.228C192.447 35.1911 194.423 49.7239 193.795 65.2258C186.644 65.4194 179.934 65.1047 173.223 64.7901C167.924 64.4515 162.61 64.2619 157.331 63.7242C153.514 63.3354 151.185 64.9984 149.097 67.9759C140.429 80.339 138.046 93.641 142.443 108.162C143.354 111.169 145.011 112.822 148.06 113.696C160.007 117.12 171.894 120.75 184.074 124.561C181.419 130.857 179.132 137.329 175.405 142.825C170.886 149.489 165.151 155.328 159.614 161.564Z" fill="#85EBF9"/>
<path d="M265.774 232.621C271.994 236.032 277.891 239.313 284.062 242.842C282.898 249.517 278.593 253.145 272.439 254.382C266.194 255.638 260.907 253.312 257.048 248.357C254.923 245.628 253.242 242.509 251.648 239.417C247.213 230.811 247.272 230.78 238.742 235.01C230.324 239.185 222.403 237.962 216.972 230.807C214.904 228.082 213.921 224.249 213.302 220.768C212.092 213.961 208.544 211.998 202.429 215.347C200.535 216.385 198.686 217.515 196.74 218.445C186.053 223.549 176.545 219.359 173.595 207.909C172.576 203.954 172.687 199.708 172.304 195.138C180.97 197.397 189.895 199.453 198.207 202.96C220.76 212.475 243.054 222.605 265.774 232.621Z" fill="#D7981B"/>
<path d="M173.142 65.1764C179.933 65.1046 186.644 65.4192 193.799 65.6823C227.487 67.9578 260.143 73.85 292.865 81.8712C291.251 90.6769 282.352 98.4619 273.777 98.6457C267.997 98.7696 264.302 95.0921 261.292 90.7047C259.414 87.9679 258.016 84.8897 256.036 82.238C252.96 78.118 250.193 78.1211 246.667 81.9411C245.77 82.9135 245.095 84.0876 244.246 85.1087C237.186 93.5956 223.764 92.9161 217.592 83.7726C210.932 73.9061 210.915 73.8792 200.362 80.3647C193.632 84.5012 186.835 86.9155 179.438 81.9155C173.486 77.8924 171.442 72.7074 173.142 65.1764Z" fill="#1573D8"/>
<path d="M393.25 211.036C394.266 210.863 395.448 211.05 396.936 211.423C395.966 211.538 394.691 211.467 393.25 211.036Z" fill="#40C2D6"/>
<path d="M321.212 202.495C320.972 202.703 320.701 202.56 320.32 202.156C320.488 202.064 320.812 202.147 321.212 202.495Z" fill="#6D5FDE"/>
<path d="M391.815 155.004C389.773 133.934 392.912 114.377 404.569 96.8167C408.301 91.1942 412.827 85.6632 420.606 86.9889C428.427 88.3216 430.896 95.129 432.327 101.656C437.209 123.928 433.59 145.056 421.882 164.543C418.146 170.762 413.371 177.337 404.579 175.644C396.047 174 394.822 166.118 392.652 159.356C392.249 158.1 392.152 156.745 391.815 155.004ZM413.77 148.764C419.528 140.854 420.434 131.871 418.74 122.675C418.284 120.198 415.748 116.805 413.6 116.314C411.568 115.849 408.044 118.068 406.475 120.106C400.627 127.699 399.967 136.727 401.663 145.721C403.05 153.076 408.815 154.896 413.77 148.764Z" fill="#41C3D7"/>
<path d="M22.2134 180.879C26.3011 164.389 32.6002 149.492 44.8056 137.78C47.1719 135.509 49.9588 133.49 52.8881 132.029C60.3291 128.32 66.892 131.262 69.5106 139.11C72.2925 147.449 71.8686 155.963 69.9564 164.269C65.9755 181.56 59.3209 197.579 45.7201 209.816C44.4888 210.923 43.2367 212.06 41.8298 212.912C31.7567 219.01 22.8111 215.209 21.5086 203.505C20.6972 196.215 21.8556 188.705 22.2134 180.879ZM36.4862 178.743C36.1303 180.706 35.4422 182.676 35.4889 184.629C35.5808 188.467 35.7294 193.297 40.0967 194.078C42.7727 194.556 46.9138 192.473 48.8777 190.217C54.2072 184.096 57.4144 176.788 57.2497 168.366C57.1822 164.915 56.9273 160.794 53.0855 160.316C50.3192 159.972 46.153 161.491 44.4921 163.635C41.207 167.877 39.2246 173.128 36.4862 178.743Z" fill="#6D5FDE"/>
<path d="M413.522 149.036C408.815 154.896 403.05 153.076 401.663 145.721C399.967 136.727 400.628 127.699 406.475 120.106C408.044 118.068 411.568 115.849 413.6 116.314C415.748 116.805 418.284 120.198 418.74 122.675C420.434 131.871 419.528 140.853 413.522 149.036Z" fill="#85EBF9"/>
<path d="M36.5946 178.352C39.2243 173.128 41.2067 167.877 44.4918 163.635C46.1527 161.491 50.3189 159.972 53.0852 160.316C56.9269 160.794 57.1819 164.915 57.2493 168.366C57.4141 176.788 54.2069 184.096 48.8774 190.217C46.9135 192.473 42.7723 194.556 40.0963 194.078C35.7291 193.297 35.5804 188.467 35.4886 184.629C35.4418 182.676 36.13 180.706 36.5946 178.352Z" fill="#917EEC"/>
</svg>
