<svg width="415" height="512" viewBox="0 0 415 512" fill="none" xmlns="http://www.w3.org/2000/svg">
<path d="M361.261 0C365.595 5.55522 366.883 11.8094 363.503 17.6242C360.36 23.0289 355.847 27.6643 351.72 32.4509C350.58 33.7728 348.664 34.4251 347.104 35.3846C347.561 35.9348 348.018 36.4851 348.474 37.0354C352.77 35.5879 356.986 33.8096 361.377 32.7626C370.294 30.6362 379.233 27.9997 388.299 27.2804C396.426 26.6356 405.131 27.8738 410.667 35.1347C416.675 43.0138 416.184 52.8333 410.82 61.4471C401.576 76.2924 387.921 86.3172 373.869 95.955C370.93 97.9706 367.897 99.8495 364.304 102.184C367.044 102.908 369.205 103.349 371.278 104.05C380.904 107.305 383.187 115.959 376.447 123.734C374.707 125.742 372.84 127.691 370.782 129.359C368.884 130.898 366.65 132.025 364.185 133.571C372.222 150.034 373.623 166.957 365.441 184.637C363.931 188.115 362.1 190.986 361.733 194.033C360.642 203.095 360.496 212.28 359.177 221.3C358.739 224.294 355.865 226.931 354.104 229.732C352.702 226.756 350.229 223.83 350.089 220.796C349.591 210.01 349.307 199.143 350.109 188.394C350.568 182.241 348.998 177.99 345.297 173.183C338.819 164.768 333.472 155.482 327.9 146.942C327.386 151.783 323.733 154.588 318.796 153.995C311.134 153.076 303.219 152.026 296.108 149.249C282.833 144.065 270.058 137.6 256.951 131.534C256.679 131.407 256.531 131.414 256.382 131.42C256.472 131.636 256.563 131.851 256.632 132.499C257.174 141.592 253.728 145.084 245.473 142.46C240.013 140.725 235.186 136.848 230.275 133.626C228.592 132.523 227.515 130.496 225.786 128.446C225.294 129.925 224.92 130.8 224.71 131.714C219.874 152.73 209.509 169.798 190.249 180.739C188.885 181.514 187.893 184.144 187.887 185.915C187.85 197.039 188.141 208.164 187.99 219.201C184.628 217.421 181.599 215.73 178.57 213.614C177.878 205.492 177.245 197.787 176.445 190.1C176.288 188.602 175.907 186.41 174.899 185.847C171.35 183.864 167.483 182.451 163.737 180.822C159.869 176.812 155.405 173.22 152.246 168.713C143.036 155.579 145.264 135.031 156.671 123.585C159.557 120.689 162.585 117.935 166.177 114.518C161.691 113.89 158.338 113.871 155.315 112.863C152.593 111.956 148.628 110.385 148.093 108.35C147.315 105.39 148.16 100.981 150.066 98.5878C152.672 95.3175 156.926 93.3604 160.706 90.6745C160.283 90.2215 158.897 89.21 158.169 87.8473C157.157 85.9551 155.607 83.4151 156.187 81.8602C156.818 80.1659 159.626 78.2353 161.475 78.245C166.403 78.271 171.326 79.2838 176.071 79.8816C178.265 74.8945 180.238 68.2325 183.863 62.6412C190.734 52.0435 200.865 44.676 211.743 38.5642C231.098 27.69 251.941 20.51 273.374 15.0802C291.812 10.409 310.372 6.21607 328.868 1.77472C329.267 1.67898 329.559 1.13618 329.815 0.400964C340.084 2.98023e-08 350.438 0 361.261 0Z" fill="#4C3594"/>
<path d="M378.874 498.029C379.822 502.919 376.532 504.867 372.825 505.879C366.796 507.524 360.621 508.628 354.526 510.042C353.648 510.246 352.875 510.902 352.392 511.675C343.042 512 333.354 512 323.198 512C322.733 511.306 322.736 510.611 322.633 509.112C319.452 497.269 316.438 486.214 313.267 475.203C312.247 471.663 312.909 469.918 316.971 469.779C330.895 469.303 344.83 468.868 358.726 467.924C364.331 467.543 367.197 469.524 369.105 474.655C372.046 482.563 375.588 490.249 378.874 498.029Z" fill="#EAADA9"/>
<path d="M178.571 214.038C181.599 215.729 184.628 217.421 188.214 219.449C198.104 227.848 207.436 235.911 216.91 244.277C220.566 249.774 224.078 254.968 227.674 260.51C235.934 277.634 238.906 295.318 236.923 314.284C234.721 323.386 232.952 332.165 230.353 340.691C228.628 346.351 225.716 351.65 223.055 357.235C209.691 378.046 189.689 389.182 167.436 396.941C155.673 401.043 143.632 404.346 131.303 408.001C113.35 411.819 95.5748 412.596 77.7021 412.115C55.5422 410.838 36.4385 402.822 22.005 385.626C13.5464 375.548 8.86517 363.318 6.93108 350.464C4.83334 336.523 2.75748 322.357 3.01661 308.331C3.48557 282.95 12.0098 260.297 30.3236 241.841C51.1139 220.889 76.3852 208.179 105.083 203.443C118.729 201.19 133.06 203.073 147.081 203.133C147.666 203.136 148.248 203.656 149.537 204.16C159.685 207.603 169.128 210.821 178.571 214.038Z" fill="#DB254F"/>
<path d="M172.653 467.123C171.345 464.027 170.038 460.93 168.919 457.178C176.659 453.176 184.552 450.419 191.66 446.305C197.86 442.717 204.058 438.465 207.038 430.883C210.039 428.7 212.823 426.77 215.819 425.103C215.012 438.863 205.333 446.706 196.269 455.514C206.459 457.2 216.484 457.947 226.418 459.337C230.199 459.866 231.692 458.787 233.159 455.495C244.836 429.288 244.574 401.908 241.226 374.274C239.997 364.13 237.938 354.088 236.201 343.663C238.194 344.167 239.93 344.606 241.819 345.404C244.604 362.359 250.419 377.901 257.412 393.245C257.589 395.098 257.798 396.753 258.362 398.278C264.181 414.019 270.008 429.758 275.939 445.457C278.788 452.997 281.864 460.45 285.513 469.644C273.571 467.794 263.179 466.183 251.496 464.373C253.542 465.68 254.405 466.54 255.431 466.839C264.946 469.608 274.51 472.206 284.003 475.045C285.848 475.597 288.34 476.575 289.01 478.049C293.475 487.874 297.526 497.886 301.712 507.838C288.662 506.905 275.601 506.1 262.566 504.999C253.155 504.203 243.755 503.182 234.391 501.951C226.064 500.856 217.792 499.334 209.147 497.595C209.991 495.416 211.283 493.699 212.361 491.857C218.177 481.92 223.94 471.952 229.807 461.956C229.892 461.918 229.898 461.697 229.898 461.697C229.898 461.697 229.737 462.009 229.284 461.979C222.365 462.241 215.823 463.295 209.448 462.663C196.928 461.42 184.457 458.862 173.136 467.012C173.012 467.101 172.815 467.088 172.653 467.123Z" fill="#EAACA8"/>
<path d="M302.15 507.91C297.526 497.886 293.475 487.874 289.01 478.049C288.34 476.575 285.848 475.597 284.003 475.045C274.51 472.206 264.945 469.608 255.431 466.839C254.405 466.54 253.542 465.68 251.496 464.373C263.179 466.183 273.571 467.794 285.513 469.644C281.864 460.45 278.788 452.997 275.939 445.457C270.008 429.758 264.181 414.019 258.362 398.278C257.798 396.753 257.589 395.098 257.733 393.377C270.133 407.914 282.014 422.577 293.861 437.658C294.1 440.954 294.374 443.834 294.639 447.135C295.565 456.595 298.478 459.511 307.194 459.075C324.951 458.188 341.871 453.761 357.818 445.901C365.202 442.261 366.743 438.224 364.687 429.58C363.021 424.33 361.333 419.477 359.67 414.327C360.368 412.878 361.041 411.726 362.122 410.524C367.899 407.561 373.269 404.646 378.792 402.108C381.875 416.933 384.963 431.352 387.68 445.841C389.63 456.238 391.085 466.728 392.76 477.177C390.043 485.144 385.359 491.844 379.185 497.908C375.588 490.249 372.046 482.563 369.105 474.655C367.197 469.524 364.331 467.543 358.726 467.924C344.829 468.868 330.895 469.303 316.971 469.779C312.908 469.918 312.247 471.663 313.267 475.203C316.437 486.214 319.452 497.269 322.563 508.689C315.928 508.707 309.258 508.345 302.15 507.91Z" fill="#E1787F"/>
<path d="M206.819 431.134C204.059 438.465 197.861 442.717 191.66 446.305C184.552 450.419 176.66 453.176 168.87 456.802C163.643 457.719 158.652 458.914 153.664 458.897C131.674 458.821 110.417 455.528 92.629 441.214C84.9214 435.012 80.8497 426.241 78.7233 416.617C78.4469 415.366 78.0786 414.136 77.7275 412.505C95.5749 412.596 113.35 411.819 131.327 408.41C132.341 415.226 134.192 421.009 139.787 425.364C148.575 433.418 159.227 435.824 170.264 436.968C182.933 438.282 195.053 435.705 206.819 431.134Z" fill="#E1787F"/>
<path d="M229.721 461.994C223.94 471.952 218.177 481.92 212.361 491.857C211.283 493.699 209.991 495.416 208.73 497.528C201.161 496.175 193.58 494.761 186.209 492.625C184.044 491.997 181.769 489.651 180.763 487.518C177.75 481.127 175.34 474.453 172.673 467.506C172.815 467.088 173.012 467.101 173.136 467.012C184.457 458.862 196.928 461.42 209.448 462.663C215.823 463.295 222.365 462.241 229.28 461.975C229.729 462 229.721 461.994 229.721 461.994Z" fill="#E17980"/>
<path d="M116.786 152.276C116.113 161.985 115.471 171.229 114.829 180.473C114.399 180.509 113.97 180.545 113.54 180.581C108.668 145.755 103.795 110.928 98.8809 75.804C99.9781 75.5331 100.886 75.0857 101.771 75.1281C106.402 75.3503 111.024 75.8657 115.655 75.9611C123.04 76.1133 123.348 76.4989 122.705 84.0327C121.296 100.531 120.077 117.046 118.699 133.547C118.19 139.645 117.451 145.724 116.786 152.276Z" fill="#3D0B34"/>
<path d="M45.7235 443.992C50.6534 440.842 55.2243 437.768 59.7952 434.694C60.1718 435.013 60.5485 435.331 60.9252 435.649C58.4635 439.67 56.0569 443.726 53.5301 447.707C44.6913 461.629 35.761 475.493 27.0035 489.466C25.7653 491.441 24.7857 493.026 22.5227 491.175C15.5375 485.461 8.6422 479.637 1.4375 473.627C16.4016 463.557 30.8831 453.813 45.7235 443.992Z" fill="#DB254F"/>
<path d="M70.7293 157.121C70.7294 166.498 70.7294 175.389 70.7294 184.28C70.3622 184.375 69.9949 184.47 69.6276 184.565C60.0358 166.651 50.4439 148.738 40.5898 130.334C50.0771 126.796 59.4456 123.301 69.2099 119.659C69.7308 132.336 70.23 144.486 70.7293 157.121Z" fill="#DB254F"/>
<path d="M78.9391 448.794C87.0985 462.23 95.0394 475.371 103.334 489.098C94.5783 491.497 86.6721 493.748 78.6946 495.708C77.9559 495.89 76.7049 494.287 75.8201 493.386C75.5627 493.124 75.747 492.425 75.735 491.926C75.3995 477.976 75.0602 464.027 74.7355 450.078C74.6944 448.313 74.7299 446.546 75.8846 444.391C76.8299 445.76 77.7753 447.13 78.9391 448.794Z" fill="#3D0B34"/>
<path d="M178.571 213.614C169.128 210.821 159.686 207.603 149.948 204.154C146.356 195.579 151.944 181.524 163.343 180.899C167.484 182.451 171.351 183.864 174.899 185.847C175.908 186.41 176.289 188.602 176.445 190.1C177.246 197.787 177.879 205.492 178.571 213.614Z" fill="#E8ABA8"/>
<path d="M25.9547 198.787C27.9399 201.978 29.7025 204.883 32.2608 209.1C20.9656 205.145 11.0522 201.674 0 197.805C4.70786 191.752 8.86869 186.402 13.7899 180.074C18.1067 186.735 21.9194 192.618 25.9547 198.787Z" fill="#3D0B34"/>
<path d="M216.767 243.973C207.435 235.911 198.104 227.848 188.548 219.537C188.141 208.164 187.85 197.039 187.887 185.915C187.893 184.144 188.885 181.514 190.249 180.739C209.509 169.798 219.873 152.73 224.71 131.714C224.92 130.8 225.294 129.925 225.786 128.446C227.515 130.496 228.592 132.523 230.275 133.626C235.186 136.848 240.013 140.725 245.472 142.46C253.727 145.084 257.174 141.592 256.738 132.399C256.864 131.868 257.075 131.668 257.075 131.668C270.058 137.6 282.833 144.065 296.108 149.249C303.219 152.026 311.134 153.076 318.796 153.995C323.733 154.588 327.386 151.783 327.9 146.942C333.472 155.482 338.818 164.768 345.296 173.183C348.997 177.99 350.568 182.241 350.109 188.394C349.307 199.143 349.591 210.01 350.089 220.796C350.229 223.83 352.701 226.756 354.104 229.732C355.865 226.931 358.739 224.294 359.177 221.3C360.496 212.28 360.641 203.095 361.733 194.033C362.1 190.986 363.931 188.115 365.421 185.003C377.796 180.805 388.473 189.289 385.035 201.917C380.227 219.579 370.156 232.661 355.433 242.813C353.901 243.87 352.699 245.785 351.964 247.56C346.8 260.042 341.799 272.592 336.282 285.555C302.97 287.238 272.871 296.257 246.689 317.241C243.211 316.004 240.107 314.928 237.003 313.853C238.905 295.318 235.934 277.634 227.862 260.198C229.204 257.241 231.046 255.072 231.564 252.623C232.958 246.039 225.474 238.788 216.767 243.973ZM313.482 214.294C312.589 210.137 312.282 205.73 310.645 201.889C308.855 197.685 304.866 197.728 302.752 201.81C298.854 209.332 298.805 217.15 302.777 224.671C304.928 228.745 308.602 228.724 310.678 224.583C312.122 221.702 312.548 218.312 313.482 214.294ZM234.037 205.086C232.287 211.347 232.206 217.601 235.065 223.509C235.887 225.208 238.034 227.308 239.585 227.317C241.13 227.327 243.326 225.242 244.127 223.551C246.924 217.639 247.187 211.291 244.974 205.184C244.117 202.82 241.718 201.015 240.022 198.955C238.131 200.753 236.24 202.551 234.037 205.086ZM294.679 176.454C293.748 177.678 292.817 178.902 291.887 180.126C292.853 180.482 293.931 181.315 294.77 181.12C304.258 178.908 313.732 176.62 323.14 174.09C324.144 173.82 325.543 171.681 325.317 170.764C324.431 167.166 318.257 164.54 314.781 166.214C308.225 169.373 301.781 172.763 294.679 176.454ZM277.384 289.07C280.836 282.352 278.124 275.794 271.522 275.076C267.194 274.605 264.027 276.566 262.388 280.492C260.723 284.478 261.775 288.155 265.207 290.695C269.248 293.686 273.276 293.118 277.384 289.07ZM250.076 175.193C244.44 172.372 238.672 169.782 233.213 166.652C229.219 164.361 226.22 165.619 223.431 168.328C222.336 169.391 221.805 171.035 221.017 172.415C222.428 173.145 223.763 174.173 225.263 174.557C233.6 176.69 241.972 178.688 250.346 180.674C251.686 180.992 253.095 181.02 254.473 181.181C254.78 180.67 255.087 180.158 255.394 179.647C253.832 178.296 252.271 176.944 250.076 175.193ZM314.853 243.569C310.586 247.869 310.186 253.861 314.566 255.579C317.169 256.6 321.724 256.501 323.438 254.857C325.183 253.184 325.661 248.533 324.636 246.028C323.214 242.555 319.586 240.845 314.853 243.569ZM262.867 237.82C261.155 242.768 259.057 247.625 257.869 252.695C257.113 255.921 259.406 258.62 262.773 257.815C267.68 256.641 272.342 254.44 277.108 252.677C276.913 252.121 276.718 251.565 276.523 251.009C275.09 251.21 273.661 251.461 272.222 251.598C270.577 251.754 268.912 251.978 267.275 251.875C261.986 251.544 260.725 249.834 262.361 244.847C263.469 241.47 265.021 238.239 266.374 234.943C266.133 234.797 265.893 234.652 265.653 234.507C264.847 235.413 264.042 236.318 262.867 237.82Z" fill="#E9ACA9"/>
<path d="M247.063 317.403C272.871 296.257 302.97 287.238 336.277 285.92C354.547 287.516 359.962 300.627 363.618 315.197C364.688 319.46 365.092 323.891 365.861 329.081C366.258 332.165 366.594 334.411 366.856 337.064C367.093 350.122 367.868 362.784 367.581 375.421C367.31 387.34 367.411 399.489 361.714 410.574C361.041 411.726 360.368 412.878 359.326 414.407C357.069 416.624 355.237 418.527 353.283 420.294C336.27 435.675 317.466 444.824 293.895 437.24C282.014 422.577 270.132 407.914 257.93 393.119C250.419 377.901 244.604 362.359 241.861 344.937C241.041 334.714 242.534 325.756 247.063 317.403Z" fill="#DB254F"/>
<path d="M393.105 477.002C391.085 466.728 389.63 456.238 387.681 445.841C384.963 431.352 381.876 416.933 378.928 401.812C381.226 397.209 383.543 393.277 386.118 389.074C391.185 378.316 391.222 367.175 390.87 355.98C397.598 366.855 401.075 378.901 402.611 391.408C403.87 401.659 404.831 412.06 404.561 422.359C404.096 440.092 401.146 457.506 394.235 474.041C393.865 474.925 393.706 475.897 393.105 477.002Z" fill="#EAACA8"/>
<path d="M390.815 355.563C391.222 367.175 391.184 378.316 386.052 388.583C384.797 379.984 384.622 371.43 382.735 363.273C380.509 353.649 376.802 344.367 373.751 334.964C373.764 334.989 373.712 335.016 373.712 335.016C383.813 335.46 390.128 342.916 390.815 355.563Z" fill="#D9254F"/>
<path d="M366.93 336.658C366.595 334.411 366.259 332.165 366.009 329.498C368.579 330.832 371.063 332.585 373.629 334.677C373.712 335.016 373.765 334.989 373.371 335.064C370.962 335.645 368.946 336.152 366.93 336.658Z" fill="#E8ABA8"/>
<path d="M256.759 131.967C256.563 131.851 256.472 131.636 256.382 131.42C256.53 131.414 256.679 131.407 256.951 131.534C257.075 131.668 256.864 131.868 256.759 131.967Z" fill="#E9ACA9"/>
<path d="M246.689 317.241C242.534 325.756 241.041 334.714 241.707 344.577C239.93 344.606 238.194 344.167 236.201 343.663C237.937 354.088 239.997 364.13 241.226 374.274C244.574 401.908 244.836 429.288 233.158 455.495C231.691 458.787 230.199 459.866 226.418 459.337C216.483 457.947 206.459 457.2 196.269 455.514C205.333 446.706 215.012 438.862 215.996 424.826C235.967 408.1 235.967 380.53 226.955 363.585C225.685 361.2 224.51 359.155 223.335 357.11C225.715 351.65 228.627 346.351 230.353 340.691C232.952 332.165 234.721 323.386 236.923 314.284C240.107 314.928 243.211 316.004 246.689 317.241Z" fill="#E1787F"/>
<path d="M223.054 357.235C224.51 359.155 225.685 361.2 226.801 363.928C216.19 390.107 197.546 407.33 171.893 416.661C161.486 420.446 150.386 422.328 139.601 425.077C134.192 421.009 132.341 415.226 131.74 408.418C143.632 404.346 155.673 401.043 167.436 396.941C189.689 389.182 209.691 378.046 223.054 357.235Z" fill="#400B34"/>
<path d="M216.91 244.277C225.474 238.788 232.958 246.039 231.564 252.623C231.046 255.072 229.204 257.241 227.778 259.85C224.078 254.968 220.565 249.774 216.91 244.277Z" fill="#E59696"/>
<path d="M139.787 425.364C150.386 422.328 161.486 420.446 171.893 416.661C197.546 407.33 216.19 390.107 226.896 364.269C235.967 380.53 235.967 408.1 215.783 424.562C212.822 426.77 210.039 428.7 207.037 430.883C195.052 435.705 182.933 438.282 170.264 436.968C159.227 435.824 148.575 433.418 139.787 425.364Z" fill="#DA254F"/>
<path d="M229.733 462.005C229.736 462.009 229.898 461.697 229.898 461.697C229.898 461.697 229.892 461.918 229.807 461.956C229.721 461.994 229.729 462 229.733 462.005Z" fill="#E17980"/>
<path d="M366.856 337.064C368.946 336.152 370.962 335.645 373.358 335.038C376.803 344.367 380.51 353.649 382.736 363.273C384.623 371.43 384.797 379.984 385.795 388.853C383.543 393.277 381.226 397.209 378.774 401.437C373.269 404.646 367.899 407.561 362.122 410.524C367.412 399.489 367.31 387.34 367.581 375.421C367.868 362.784 367.093 350.122 366.856 337.064Z" fill="#410C35"/>
<path d="M364.666 429.976C366.743 438.224 365.202 442.261 357.818 445.901C341.871 453.762 324.952 458.188 307.194 459.075C298.478 459.511 295.565 456.595 295.119 447.151C320.183 447.564 342.994 441.116 364.666 429.976Z" fill="#DA264F"/>
<path d="M364.687 429.58C342.993 441.116 320.183 447.564 295.128 446.729C294.374 443.834 294.1 440.954 293.86 437.658C317.466 444.824 336.27 435.675 353.283 420.294C355.238 418.527 357.069 416.624 359.301 414.704C361.332 419.477 363.02 424.33 364.687 429.58Z" fill="#430C35"/>
<path d="M313.455 214.721C312.548 218.312 312.122 221.702 310.678 224.583C308.602 228.724 304.928 228.745 302.777 224.671C298.805 217.15 298.854 209.332 302.752 201.81C304.866 197.728 308.855 197.685 310.645 201.889C312.282 205.73 312.589 210.137 313.455 214.721Z" fill="#523995"/>
<path d="M234.193 204.717C236.24 202.551 238.131 200.753 240.022 198.955C241.719 201.015 244.117 202.82 244.974 205.184C247.188 211.291 246.924 217.639 244.127 223.551C243.327 225.242 241.131 227.327 239.586 227.317C238.035 227.308 235.888 225.208 235.066 223.509C232.206 217.601 232.287 211.347 234.193 204.717Z" fill="#523995"/>
<path d="M294.985 176.256C301.782 172.763 308.225 169.373 314.781 166.214C318.257 164.54 324.431 167.166 325.317 170.764C325.543 171.681 324.144 173.82 323.14 174.09C313.733 176.62 304.258 178.908 294.77 181.12C293.931 181.315 292.853 180.482 291.887 180.126C292.817 178.902 293.748 177.678 294.985 176.256Z" fill="#533A95"/>
<path d="M277.134 289.35C273.276 293.118 269.249 293.686 265.207 290.695C261.775 288.155 260.724 284.478 262.388 280.492C264.027 276.566 267.194 274.605 271.523 275.076C278.124 275.794 280.836 282.352 277.134 289.35Z" fill="#DB2851"/>
<path d="M250.393 175.393C252.271 176.944 253.833 178.296 255.394 179.647C255.087 180.158 254.78 180.67 254.473 181.181C253.096 181.02 251.687 180.992 250.347 180.674C241.973 178.688 233.6 176.69 225.263 174.557C223.763 174.173 222.428 173.145 221.017 172.415C221.805 171.035 222.336 169.391 223.431 168.328C226.221 165.619 229.219 164.361 233.213 166.652C238.672 169.782 244.441 172.372 250.393 175.393Z" fill="#523995"/>
<path d="M315.178 243.364C319.586 240.845 323.215 242.555 324.636 246.028C325.662 248.533 325.183 253.184 323.438 254.857C321.724 256.501 317.17 256.6 314.567 255.579C310.186 253.861 310.586 247.869 315.178 243.364Z" fill="#E59696"/>
<path d="M263.052 237.522C264.042 236.318 264.847 235.413 265.653 234.507C265.893 234.652 266.134 234.797 266.374 234.943C265.021 238.239 263.469 241.47 262.361 244.847C260.725 249.834 261.986 251.544 267.275 251.875C268.912 251.978 270.577 251.754 272.222 251.598C273.661 251.461 275.09 251.21 276.523 251.009C276.718 251.565 276.913 252.121 277.108 252.677C272.342 254.44 267.68 256.641 262.773 257.815C259.406 258.62 257.113 255.921 257.869 252.695C259.057 247.625 261.155 242.768 263.052 237.522Z" fill="#E27C82"/>
<path d="M267.243 232.542C267.273 232.527 267.213 232.558 267.243 232.542Z" fill="#E27C82"/>
</svg>
