<svg width="499" height="491" viewBox="0 0 499 491" fill="none" xmlns="http://www.w3.org/2000/svg">
<path d="M321.14 154.373C314.906 171.395 309.039 188.563 302.32 205.392C296.953 218.834 303.67 223.431 311.752 228.271C321.916 234.359 332.36 239.988 342.417 246.243C351.645 251.982 357.014 260.111 357.068 271.54C357.223 304.799 358.053 338.059 357.804 371.313C357.711 383.723 349.725 393.53 335.321 395.313C318.398 397.407 306.275 385.86 306.071 368.814C305.798 346.152 305.787 323.482 306.103 300.821C306.242 290.866 301.51 284.966 292.084 282.433C276.131 278.145 260.144 273.976 244.121 269.958C236.299 267.996 229.285 269.497 223.332 275.467C189.328 309.576 155.316 343.676 121.141 377.613C112.046 386.645 99.1058 390.038 86.5307 381.508C74.8008 373.55 71.701 355.633 81.2037 344.887C91.4244 333.328 102.559 322.574 113.345 311.519C128.786 295.692 144.511 280.134 159.654 264.028C169.206 253.871 178.445 243.325 186.872 232.229C197.272 218.535 203.064 202.375 208.993 186.37C216.529 166.028 223.171 145.245 232.325 125.646C240.246 108.683 255.265 98.8082 274.42 98.4981C323.171 97.7088 371.934 97.5867 420.692 97.4534C427.472 97.4349 434.416 98.2411 439.756 103.569C445.507 109.305 447.223 118.007 444.367 125.575C441.03 134.42 434.176 138.255 426.019 138.296C399.355 138.431 372.69 138.347 345.09 138.364C327.569 138.362 310.982 138.418 294.397 138.268C290.522 138.233 288.053 139.824 286.621 143.201C284.231 148.837 288.25 154.123 295.267 154.277C303.888 154.466 312.515 154.355 321.14 154.373Z" fill="#FF8748"/>
<path d="M383.003 421.347C397.477 421.347 411.45 421.347 426.003 421.347C426.003 415.991 425.67 410.857 426.137 405.798C426.388 403.081 427.381 398.954 429.172 398.219C431.603 397.22 435.711 397.958 438.075 399.511C457.015 411.954 475.722 424.751 494.478 437.474C499.43 440.833 499.496 446.773 494.603 450.128C475.791 463.027 457.021 475.992 438.017 488.604C435.753 490.106 431.608 490.732 429.335 489.654C427.457 488.763 426.405 484.816 426.144 482.112C425.655 477.036 426.003 471.88 426.003 466.347C423.795 466.347 422.006 466.347 420.217 466.347C340.892 466.347 261.566 466.313 182.24 466.416C176.35 466.423 174.759 465.391 174.931 458.956C175.203 448.798 175.001 438.627 175.004 428.461C175.007 421.661 175.311 421.348 182.022 421.348C248.849 421.346 315.676 421.347 383.003 421.347Z" fill="#85CAFF"/>
<path d="M337.269 65.5824C329.882 74.4604 320.032 78.0665 309.536 78.1385C289.108 78.2787 270.999 63.8775 269.899 41.184C269.357 29.991 272.483 20.2529 279.847 12.1922C286.081 5.36831 294.01 1.23456 303.562 0.260825C313.919 -0.794937 323.105 1.31931 331.783 7.24477C350.976 20.3487 353.215 49.5751 337.269 65.5824Z" fill="#FFCEC0"/>
<path d="M22.0234 442.697C23.9216 436.931 27.8138 435.258 33.3078 435.279C68.7775 435.411 104.248 435.339 139.718 435.352C146.947 435.355 150.325 438.452 150.003 444.674C149.767 449.25 146.831 452.31 142.162 452.316C104.694 452.369 67.2253 452.376 29.757 452.311C24.6715 452.302 22.1689 449.099 22.0234 442.697Z" fill="#FCDB35"/>
<path d="M228.826 34.347C237.124 34.3557 239.268 35.5119 240.99 40.6506C242.87 46.2627 239.292 51.3272 233.317 51.3336C205.332 51.3633 177.347 51.3469 149.362 51.3469C140.367 51.3469 131.369 51.2139 122.378 51.4031C117.909 51.4972 114.954 49.5658 114.102 45.4443C112.889 39.5763 114.941 36.2737 120.039 34.8524C121.589 34.4206 123.281 34.3678 124.908 34.3666C159.389 34.3407 193.87 34.347 228.826 34.347Z" fill="#FCDB35"/>
<path d="M97.0038 125.347C118.499 125.347 139.497 125.476 160.49 125.256C165.708 125.201 169.623 127.164 169.957 133.859C170.185 138.423 165.671 142.329 160.397 142.334C134.236 142.361 108.074 142.364 81.9128 142.335C74.8475 142.327 71.9851 139.627 72.0035 133.225C72.019 127.814 75.1398 125.353 82.0068 125.348C86.8392 125.343 91.6715 125.347 97.0038 125.347Z" fill="#FCDB35"/>
<path d="M73.0997 237.346C90.4151 237.346 107.245 237.323 124.075 237.358C131.157 237.373 134.238 240.245 134.003 246.419C133.817 251.291 130.875 254.307 125.899 254.322C106.403 254.381 86.9064 254.37 67.4104 254.33C62.3323 254.319 59.2717 251.454 59.004 246.732C58.6851 241.106 61.0875 238.068 66.6202 237.398C68.5914 237.159 70.6148 237.351 73.0997 237.346Z" fill="#FCDB35"/>
<path d="M38.1573 309.347C32.8142 309.491 28.2833 309.499 26.8564 303.138C25.7086 298.021 28.75 292.495 34.0122 292.424C49.6342 292.213 65.2751 291.967 80.8783 292.548C86.6424 292.762 89.3535 295.731 89.034 301.335C88.7373 306.541 85.7796 309.328 80.0236 309.339C66.2272 309.363 52.4308 309.347 38.1573 309.347Z" fill="#FCDB35"/>
<path d="M57.8252 373.792C55.8507 378.904 52.2425 380.44 47.385 380.39C34.7571 380.261 22.1267 380.396 9.49781 380.327C2.63004 380.289 -0.111175 377.452 0.00343974 370.839C0.0813047 366.347 3.10687 363.363 7.71855 363.355C21.1786 363.331 34.6388 363.343 48.0989 363.348C55.5365 363.352 58.0184 365.889 57.8252 373.792Z" fill="#FCDB35"/>
<path d="M196.965 88.3461C200.121 88.3466 202.79 88.2429 205.447 88.3707C210.065 88.5927 214.05 92.8747 214 97.4012C213.958 101.239 209.357 105.337 205.023 105.341C191.371 105.355 177.719 105.355 164.067 105.342C159.447 105.337 155.126 101.3 155.021 96.9463C154.918 92.6882 159.262 88.4065 164.008 88.3716C174.829 88.2921 185.65 88.3463 196.965 88.3461Z" fill="#FCDB35"/>
<path d="M137.037 180.346C147.192 180.346 156.854 180.299 166.514 180.363C172.649 180.404 176.833 183.917 177.003 188.969C177.164 193.733 174.118 197.272 169.347 197.307C154.856 197.413 140.356 197.585 125.88 197.105C123.54 197.027 120.01 194.144 119.321 191.866C118.266 188.371 117.924 183.374 122.995 182.006C127.344 180.833 132.014 180.853 137.037 180.346Z" fill="#FCDB35"/>
<path d="M321.451 154.242C312.516 154.355 303.888 154.466 295.267 154.277C288.251 154.123 284.231 148.838 286.621 143.201C288.053 139.824 290.522 138.233 294.397 138.268C310.982 138.418 327.569 138.362 344.629 138.399C337.469 140.261 330.48 143.256 325.349 149.538C324.124 151.038 322.956 152.585 321.451 154.242Z" fill="#F26820"/>
</svg>
