<svg width="417" height="482" viewBox="0 0 417 482" fill="none" xmlns="http://www.w3.org/2000/svg">
<path d="M11.9466 253.456C7.62901 247.395 3.44402 241.94 1.8499 234.61C-0.00699842 226.072 3.22405 219.857 8.46792 213.968C11.6653 210.377 15.6806 207.267 17.9929 203.185C23.2356 193.929 31.8167 191.078 41.2418 189.923C54.6832 188.276 68.1966 187.216 81.5421 185.919C86.4431 169.743 100.636 163.101 115.492 169.737C118.834 171.23 125.171 166.68 125.033 162.622C124.735 153.851 124.777 144.938 131.153 138.196C140.224 128.604 138.918 117.907 135.579 106.954C130.877 91.5284 127.752 75.9019 129.173 59.7461C130.012 50.2128 131.949 40.9831 139.47 33.7777C144.432 29.0238 150.443 27.3353 156.639 27.0499C162.269 26.7906 166.086 24.2601 168.997 20.2699C176.091 10.5449 186.106 5.55192 197.272 3.02244C205.48 1.16314 214.077 -0.266932 222.429 0.0421713C248.461 1.00556 273.483 6.66668 295.086 22.0016C307.868 31.0755 315.714 43.9362 317.044 60.02C317.614 66.9135 317.283 73.9108 318.273 80.7284C318.798 84.3408 321.152 87.733 322.897 91.1134C326.923 98.9168 332.053 106.313 334.911 114.511C337.785 122.754 339.309 131.71 339.889 140.456C340.842 154.842 331.363 168.735 316.562 172.684C312.468 173.776 310.865 176.619 309.397 179.526C308.421 181.457 308.341 183.941 312.141 184.996C330.215 190.015 348.225 195.288 366.134 200.867C390.929 208.592 407.57 224.823 414.573 249.978C417.604 260.866 417.304 272.041 415.423 283.392C412.146 303.166 403.846 320.695 393.868 337.698C392.783 339.546 392.282 341.934 392.15 344.11C391.652 352.35 391.4 360.606 391.087 368.857C390.409 386.691 389.751 404.525 389.082 422.359C388.753 431.11 388.458 439.862 388.068 448.61C387.812 454.363 387.69 460.143 386.993 465.848C386.46 470.218 383.012 472.432 378.987 472.75C370.927 473.387 362.81 473.288 354.746 473.888C339.063 475.055 323.4 476.504 307.727 477.81C306.403 477.92 305.06 477.786 303.73 477.849C297.145 478.164 290.543 478.993 283.98 478.747C266.662 478.098 249.258 478.162 232.235 473.982C230.364 473.523 228 474.162 226.096 474.894C214.643 479.299 203.013 482.86 190.563 481.762C185.933 481.353 181.147 480.652 176.854 478.993C171.067 476.758 165.672 477.529 159.992 478.831C149.667 481.198 139.673 480.382 130.364 474.864C127.029 472.888 124.325 470.457 124.071 466.199C122.983 447.957 121.867 429.716 120.744 411.19C100.966 415.047 81.2045 419.933 61.1466 422.497C44.0596 424.681 27.063 423.151 14.2394 408.631C8.26514 401.866 6.03495 393.649 4.48796 385.375C2.38005 374.1 1.351 362.613 0.130826 351.188C-0.592788 344.413 1.67274 338.251 7.24267 334.417C12.1864 331.014 13.1824 325.919 14.9887 321.125C19.2767 309.744 23.2606 298.248 27.5011 286.427C15.1873 282.058 12.3655 272.559 13.01 261.032C13.1425 258.662 12.4016 256.243 11.9466 253.456ZM40.526 278.838C40.3042 279.824 40.0824 280.809 39.3647 282.293C32.6025 300.812 25.8402 319.331 18.4079 338.014C8.8946 343.531 7.29227 348.329 11.3532 358.703C11.8778 360.043 11.9417 361.574 12.1446 363.027C13.3805 371.88 14.1235 380.833 15.9328 389.565C18.3193 401.084 26.0014 408.373 37.2694 410.86C43.9622 412.337 51.2238 413.017 57.9687 412.111C72.4474 410.168 86.7604 406.983 101.135 404.27C110.536 402.497 119.926 400.661 129.504 398.818C129.692 400.189 129.861 400.997 129.907 401.811C130.999 421.09 132.216 440.364 133.046 459.654C133.215 463.591 134.648 465.69 138.027 467.236C145.38 470.601 152.812 470.692 160.398 468.318C168.968 465.637 168.963 465.63 169.178 456.91C169.203 455.912 169.271 454.914 169.338 453.918C171.662 419.552 179.423 386.244 189.481 353.243C192.458 355.796 195.435 358.349 198.111 361.663C195.29 370.114 197.582 374.272 206.178 376.128C207.947 376.51 209.838 377.006 211.571 376.754C219.274 375.631 224.139 380.437 229.113 385.763C229.528 395.099 229.943 404.435 230.276 414.604C231.835 430.847 232.248 447.049 227.605 463.039C243.937 467.196 259.701 468.996 275.492 468.495C300.448 467.705 325.369 465.817 350.305 464.406C359.257 463.9 368.211 463.427 377.361 462.928C377.55 461.313 377.795 460.018 377.842 458.715C379.266 419.112 380.647 379.507 382.159 339.907C382.228 338.081 383.168 336.123 384.178 334.527C392.592 321.228 399.25 307.137 403.57 291.988C414.783 252.663 397.798 220.15 360.686 209.409C339.777 203.357 318.97 196.954 298.2 189.8C298.293 185.46 298.386 181.12 298.882 176.286C300.745 172.229 302.607 168.172 305.303 164.084C315.523 164.096 323.23 159.775 327.605 150.451C331.62 141.897 329.775 133.716 325.322 125.18C325.385 122.754 326.2 120.023 325.366 117.96C323.08 112.307 320.893 106.321 317.226 101.583C310.142 92.4286 306.434 82.6504 307.716 71.0901C307.771 70.5979 307.701 70.0923 307.695 69.5928C307.441 50.2584 299.889 35.004 282.378 25.7843C259.021 13.4862 234.25 7.4771 207.775 10.986C196.074 12.5368 184.773 15.8301 177.093 25.7216C171.934 32.3657 165.432 36.0857 157.246 36.7191C147.523 37.4717 142.377 42.8847 140.06 51.9542C136.609 65.4579 137.823 78.8337 141.73 91.866C146.179 106.704 149.194 121.485 145.264 137.219C134.753 145.13 131.96 154.579 136.069 167.668C130.695 173.303 125.16 178.714 116.668 180.74C115.342 180.076 113.975 179.483 112.697 178.737C106.383 175.047 100.483 176.876 95.0946 180.537C90.1236 183.913 90.9815 189.019 91.5142 194.254C76.978 195.795 62.4244 197.191 47.9137 198.942C41.3129 199.739 34.08 198.936 28.3619 205.073C24.6246 209.844 21.4326 215.212 17.0195 219.243C10.7079 225.008 9.10443 229.528 13.0918 237.13C14.6244 240.052 17.0109 242.542 18.4212 245.508C20.0136 248.857 21.3076 252.445 22.0528 256.068C22.6795 259.116 22.1129 262.389 22.461 265.519C23.3391 273.413 26.9816 276.955 34.8951 277.859C36.8723 278.084 38.8772 278.067 40.526 278.838Z" fill="#FEFDFD"/>
<path d="M298.118 190.709C318.97 196.954 339.777 203.357 360.686 209.409C397.798 220.15 414.783 252.663 403.57 291.988C399.25 307.137 392.592 321.228 384.178 334.527C383.168 336.123 382.228 338.081 382.159 339.907C380.647 379.507 379.266 419.112 377.842 458.715C377.795 460.018 377.55 461.313 377.361 462.928C368.211 463.427 359.257 463.9 350.305 464.406C325.369 465.817 300.448 467.705 275.492 468.495C259.701 468.996 243.937 467.196 227.605 463.039C232.248 447.049 231.835 430.847 230.708 414.207C246.925 417.47 262.96 418.357 279.079 417.768C289.249 417.396 299.597 416.257 308.212 410.598C317.86 404.26 327.249 397.257 335.663 389.382C345.946 379.758 355.285 369.093 364.661 358.548C369.568 353.029 373.679 346.803 378.372 340.79C378.873 340.472 379.037 340.192 379.246 339.802C379.295 339.783 379.185 339.808 378.847 339.926C378.333 340.202 378.137 340.456 377.689 340.83C376.9 341.095 376.417 341.257 376.017 341.538C351.21 358.956 326.566 376.614 301.516 393.676C293.635 399.044 285.005 403.289 274.699 403.044C265.096 402.815 256.397 400.075 248.104 395.777C241.658 392.437 235.521 388.5 229.246 384.828C224.139 380.437 219.274 375.631 211.571 376.754C209.838 377.006 207.947 376.51 206.178 376.128C197.582 374.272 195.29 370.114 198.537 361.108C202.191 358.569 205.358 356.476 208.659 354.62C218.185 349.264 225.014 341.753 225.483 330.475C225.725 324.664 223.966 318.77 223.409 312.71C230.119 307.706 235.475 310.507 240.412 315.36C246.892 292.169 253.225 269.503 259.851 246.669C263.334 245.136 266.948 244.339 269.645 242.317C286.832 229.431 295.484 211.697 298.118 190.709ZM283.778 334.872C287.812 338.519 291.845 342.165 296.102 346.013C295.877 338.996 293.762 333.002 288.847 327.959C284.809 323.815 285.119 321.576 289.939 318.601C306.618 308.304 323.34 298.077 340.049 287.828C341.748 286.786 343.497 285.822 345.175 284.749C346.677 283.789 348.114 282.728 349.58 281.712C331.927 285.954 315.619 292.931 300.045 301.487C282.235 311.271 263.909 318.494 242.795 316.639C260.084 323.435 274.827 333.819 286.691 348.306C287.336 347.827 287.982 347.349 288.627 346.871C286.782 342.857 284.937 338.844 283.08 334.839C283.08 334.839 283.071 334.851 283.778 334.872Z" fill="#FF4B3D"/>
<path d="M145.836 136.948C149.193 121.485 146.178 106.704 141.73 91.8661C137.823 78.8337 136.609 65.4579 140.06 51.9543C142.377 42.8847 147.523 37.4717 157.246 36.7192C165.432 36.0857 171.934 32.3657 177.092 25.7216C184.773 15.8301 196.074 12.5368 207.775 10.9861C234.25 7.47714 259.021 13.4863 282.378 25.7843C299.889 35.0041 307.441 50.2584 307.695 69.5928C307.701 70.0923 307.771 70.5979 307.716 71.0902C306.434 82.6504 310.141 92.4286 317.226 101.583C320.893 106.321 323.08 112.307 325.365 117.96C326.2 120.024 325.384 122.754 324.881 125.423C312.176 111.389 290.581 115.663 284.685 131.498C282.021 138.654 275.849 141.734 271.598 147.281C273.006 134.045 271.898 121.574 264.509 109.957C263.413 115.405 259.535 117.57 255.067 118.842C237.924 123.723 222.282 121.553 209.619 108.031C202.911 100.869 196.969 92.9948 190.373 85.7208C183.1 77.6992 177.6 78.1332 172.56 87.6923C165.557 100.972 159.772 114.8 159.033 130.144C158.564 139.886 158.15 149.631 157.691 159.826C149.124 154.334 146.061 146.391 145.836 136.948Z" fill="#181E8F"/>
<path d="M145.55 137.084C146.061 146.391 149.124 154.334 157.691 159.826C158.15 149.631 158.564 139.886 159.033 130.144C159.772 114.8 165.557 100.972 172.56 87.6923C177.6 78.1332 183.1 77.6992 190.373 85.7208C196.969 92.9948 202.911 100.869 209.619 108.031C222.282 121.553 237.924 123.723 255.067 118.842C259.535 117.57 263.413 115.405 264.509 109.956C271.898 121.574 273.006 134.045 271.598 147.281C275.849 141.734 282.021 138.654 284.685 131.498C290.581 115.663 312.176 111.389 324.749 125.806C329.775 133.716 331.62 141.897 327.605 150.451C323.23 159.775 315.523 164.096 304.448 164.024C301.865 163.729 300.136 163.494 298.48 163.268C298.48 167.906 298.48 172.343 298.48 176.779C298.386 181.12 298.293 185.46 298.159 190.254C295.483 211.697 286.832 229.431 269.645 242.317C266.948 244.339 263.333 245.136 259.382 246.619C253.186 246.852 247.883 246.568 244.329 241.795C253.319 233.897 262.248 226.372 268.573 216.306C263.771 218.891 259.484 222.182 254.825 224.814C250.069 227.501 244.949 229.542 239.61 231.922C231.307 232.945 223.383 233.91 215.005 234.862C208.735 233.803 202.919 232.759 197.036 231.262C196.844 223.239 196.72 215.668 196.664 207.704C196.503 204.899 196.273 202.488 196.448 200.038C201.55 200.19 204.82 197.716 207.006 193.951C211.613 186.018 210.16 177.997 206.559 170.188C206.064 169.116 204.375 168.249 203.116 168.045C202.615 167.963 201.5 169.85 201.141 170.991C198.795 178.456 196.567 185.955 189.507 190.935C187.814 190.593 186.536 190.189 185.229 190.033C177.945 189.164 177.942 189.184 177.744 181.706C177.574 175.259 175.168 172.205 169.565 170.957C162.95 169.484 156.345 167.957 149.782 166.27C145.195 165.091 140.715 164.084 136.432 167.099C131.96 154.579 134.753 145.13 145.55 137.084ZM247.364 171.98C246.533 171.432 245.746 170.796 244.863 170.351C238.897 167.351 230.882 170.146 227.922 176.224C224.967 182.293 227.962 190.182 234.268 192.939C240.011 195.45 246.206 193.625 250.08 188.282C253.346 183.779 252.552 177.727 247.364 171.98ZM305.558 149.755C306.402 149.086 307.403 148.542 308.055 147.72C309.191 146.289 310.821 144.724 310.905 143.144C310.976 141.82 309.275 140.255 308.088 139.067C307.444 138.423 306.236 138.343 304.001 137.559C307.57 135.574 310.04 134.201 312.794 132.669C308.772 129.6 304.757 129.058 300.559 131.884C296.5 134.616 294.644 139.488 296.365 144.046C297.877 148.049 300.353 151.354 305.558 149.755Z" fill="#FDAB7C"/>
<path d="M188.935 353.277C179.423 386.244 171.662 419.552 169.338 453.918C169.271 454.915 169.203 455.912 169.178 456.91C168.963 465.63 168.968 465.637 160.397 468.318C152.812 470.692 145.38 470.601 138.027 467.236C134.648 465.69 133.215 463.591 133.045 459.654C132.216 440.364 130.999 421.09 129.907 401.811C129.86 400.997 129.692 400.189 129.504 398.818C119.926 400.661 110.536 402.497 101.135 404.271C86.7604 406.983 72.4473 410.168 57.9686 412.112C51.2238 413.017 43.9622 412.337 37.2693 410.86C26.0013 408.373 18.3192 401.084 15.9327 389.565C14.1234 380.833 13.3804 371.88 12.1445 363.027C11.9417 361.574 11.8777 360.043 11.3531 358.703C7.29219 348.329 8.89451 343.531 18.8832 338.261C21.6673 343.097 23.5304 347.985 26.3737 352.215C33.1049 362.228 41.8089 364.343 52.8443 359.551C61.3252 355.868 68.144 350.291 73.6989 342.712C78.5704 343.077 80.7501 346.257 81.9176 349.957C83.0461 353.533 83.2419 357.392 84.1308 361.058C84.7881 363.769 85.9001 366.369 86.8096 369.018C87.5855 368.836 88.3615 368.654 89.1374 368.473C88.9159 364.829 89.2362 361.047 88.3443 357.575C87.0512 352.543 84.882 347.737 83.0836 342.836C83.0807 342.839 83.0768 342.844 83.3823 342.977C88.3543 348.385 93.0209 353.66 97.5616 358.793C97.1345 352.072 93.8378 346.298 89.0096 341.422C83.6994 336.059 79.2941 335.484 74.0749 338.441C74.3745 333.995 74.7248 330.004 75.3753 325.848C82.8248 319.068 89.9742 312.453 97.5419 305.828C106.595 305.493 115.23 304.966 123.865 304.97C126.289 304.971 129.118 305.993 131.069 307.464C142.884 316.375 154.554 325.481 166.161 334.663C173.849 340.745 181.35 347.064 188.935 353.277Z" fill="#FF4C3E"/>
<path d="M189.208 353.26C181.35 347.064 173.849 340.745 166.161 334.663C154.554 325.481 142.884 316.375 131.069 307.464C129.118 305.993 126.289 304.971 123.865 304.97C115.23 304.966 106.595 305.493 97.0794 305.811C88.6268 306.964 82.2077 304.918 77.038 298.663C69.7552 292.926 66.8756 283.265 58.0614 279.492C55.2163 278.274 52.4563 276.857 49.9351 275.298C56.8314 272.302 63.4501 269.539 70.4591 266.777C81.7471 263.879 92.6833 261.116 103.528 258.031C109.797 256.247 112.566 251.697 109.828 247.545C105.416 240.856 105.086 233.498 105.265 225.994C105.321 223.651 106.185 221.328 106.68 218.996C107.242 218.824 107.804 218.651 108.366 218.478C110.571 221.211 113.071 223.759 114.922 226.714C119.498 234.022 123.777 241.517 128.195 249.184C128.215 249.43 128.348 249.907 128.431 250.101C128.71 250.504 128.927 250.688 129.114 250.825C129.066 250.802 129.111 250.704 129.184 251.054C131.304 255.029 133.189 258.759 135.465 262.233C136.634 264.017 138.502 265.343 140.041 267.25C142.459 270.57 144.308 274.596 147.423 276.278C160.437 283.304 173.789 289.714 187.108 296.16C191.548 298.309 196.262 299.891 201.036 302.045C208.518 305.877 215.814 309.395 223.11 312.913C223.965 318.77 225.725 324.664 225.483 330.475C225.014 341.753 218.185 349.264 208.659 354.62C205.358 356.476 202.191 358.569 198.687 360.728C195.435 358.349 192.458 355.796 189.208 353.26Z" fill="#FEAB7C"/>
<path d="M128.176 248.937C123.777 241.517 119.498 234.022 114.922 226.714C113.071 223.759 110.571 221.211 108.366 218.478C107.804 218.651 107.242 218.823 106.68 218.996C106.185 221.328 105.321 223.651 105.265 225.994C105.086 233.498 105.416 240.856 109.828 247.545C112.566 251.697 109.797 256.247 103.528 258.031C92.6835 261.116 81.7473 263.879 70.4614 266.416C69.7003 265.224 69.3274 264.393 68.8466 263.263C62.3519 257.079 61.9308 250.154 65.0926 242.545C65.5949 241.336 65.8151 239.988 66.02 238.681C66.7048 234.316 65.538 230.786 61.3306 228.696C55.7012 225.899 53.892 221.24 54.12 215.152C54.4042 207.565 53.3143 206.536 45.1521 204.998C39.4264 204.873 34.199 204.82 28.9717 204.766C34.08 198.936 41.3129 199.739 47.9137 198.942C62.4244 197.191 76.978 195.795 92.3265 194.151C97.1818 193.824 101.452 194.455 103.136 188.972C103.482 187.846 106.597 187.266 108.514 187.003C110.919 186.673 113.483 187.322 115.835 186.845C120.026 185.995 120.355 184.326 117.389 180.988C125.16 178.714 130.695 173.303 136.251 167.383C140.715 164.084 145.195 165.091 149.782 166.27C156.345 167.957 162.95 169.484 169.565 170.957C175.168 172.205 177.574 175.259 177.745 181.706C177.942 189.184 177.945 189.164 185.229 190.033C186.536 190.189 187.814 190.593 189.706 191.205C192.218 194.377 194.131 197.227 196.043 200.077C196.273 202.488 196.503 204.899 196.263 207.659C190.892 207.181 185.642 208.022 182.743 201.708C181.84 199.742 176.296 199.392 172.886 199.42C171.919 199.428 170.378 203.322 170.165 205.536C169.771 209.642 173.256 210.533 176.351 211.387C177.751 211.773 179.209 211.951 180.569 212.21C178.117 228.909 175.695 245.391 172.827 261.919C164.282 260.282 156.185 258.6 147.768 256.736C144.604 255.521 141.761 254.488 138.997 253.132C139.689 252.025 140.312 251.249 140.912 250.455C149.553 239.004 155.234 226.568 150.93 211.991C149.297 206.457 145.597 201.534 142.653 195.982C143.752 196.089 144.959 196.176 146.157 196.328C150.097 196.828 154.025 197.482 157.98 197.782C159.114 197.868 160.76 197.294 161.423 196.441C163.926 193.221 161.758 183.05 158.332 180.941C144.272 172.287 137.545 173.145 126.307 185.025C126.193 185.146 126.071 185.261 125.959 185.384C123 188.638 123.292 189.751 127.666 190.902C133.552 192.45 138.359 195.471 141.467 200.791C151.19 217.436 150.503 241.061 128.176 248.937Z" fill="#7739C6"/>
<path d="M75.075 326.013C74.7248 330.004 74.3745 333.995 74.0295 338.648C74.0348 339.311 73.9967 339.734 73.8142 339.881C73.4033 340.288 73.3498 340.581 73.4045 341.198C73.3387 341.886 73.3394 342.283 73.3401 342.68C68.144 350.291 61.3252 355.868 52.8443 359.551C41.8089 364.343 33.1049 362.228 26.3737 352.215C23.5304 347.985 21.6673 343.097 19.2183 338.179C25.8401 319.331 32.6024 300.812 39.9807 282.199C51.7124 283.901 60.9305 289.418 69.4412 296.5C71.6132 298.307 74.4066 299.368 76.8804 301.183C76.2559 309.734 75.6655 317.873 75.075 326.013Z" fill="#FEAC7C"/>
<path d="M378.149 340.896C373.679 346.803 369.568 353.029 364.661 358.548C355.285 369.093 345.945 379.758 335.663 389.382C327.249 397.257 317.86 404.26 308.212 410.598C299.597 416.257 289.249 417.396 279.079 417.768C262.96 418.357 246.925 417.47 230.748 413.791C229.943 404.435 229.528 395.099 229.18 385.296C235.521 388.5 241.658 392.437 248.104 395.777C256.397 400.075 265.096 402.815 274.699 403.044C285.005 403.289 293.635 399.044 301.516 393.676C326.566 376.614 351.21 358.956 376.017 341.538C376.417 341.257 376.9 341.095 377.716 340.86C378.088 340.842 378.149 340.896 378.149 340.896Z" fill="#D01631"/>
<path d="M68.9543 263.563C69.3272 264.393 69.7002 265.224 70.0709 266.415C63.4501 269.539 56.8314 272.302 49.6007 275.409C46.2822 276.555 43.5758 277.358 40.8693 278.161C38.8771 278.067 36.8721 278.084 34.8949 277.859C26.9815 276.955 23.3389 273.413 22.4609 265.519C22.1127 262.389 22.6794 259.116 22.0526 256.069C21.3075 252.445 20.0134 248.857 18.4211 245.508C17.0107 242.542 14.6242 240.052 13.0917 237.131C9.10428 229.528 10.7077 225.008 17.0194 219.243C21.4324 215.212 24.6244 209.844 28.6667 204.92C34.1989 204.82 39.4263 204.873 44.9188 205.265C31.3355 215.029 26.5274 231.648 33.2488 246.86C39.6447 261.335 53.0645 267.613 68.9543 263.563Z" fill="#1B208F"/>
<path d="M117.029 180.864C120.355 184.326 120.026 185.995 115.835 186.845C113.483 187.322 110.919 186.673 108.514 187.003C106.597 187.266 103.482 187.846 103.136 188.972C101.452 194.455 97.1819 193.823 92.7211 194.013C90.9816 189.019 90.1236 183.913 95.0947 180.536C100.483 176.876 106.383 175.047 112.697 178.736C113.975 179.483 115.342 180.076 117.029 180.864Z" fill="#FDAD81"/>
<path d="M40.6974 278.5C43.5756 277.358 46.2821 276.555 49.3229 275.641C52.4561 276.857 55.2161 278.274 58.0612 279.492C66.8754 283.265 69.7551 292.925 76.9841 298.962C77.0262 299.97 76.9703 300.371 76.9143 300.772C74.4064 299.368 71.613 298.307 69.441 296.5C60.9303 289.418 51.7122 283.901 40.2284 281.949C40.0821 280.809 40.3039 279.824 40.6974 278.5Z" fill="#FE4F40"/>
<path d="M298.681 176.533C298.479 172.343 298.479 167.906 298.479 163.268C300.136 163.494 301.865 163.729 304.032 164.04C302.607 168.172 300.744 172.229 298.681 176.533Z" fill="#312F8F"/>
<path d="M223.409 312.71C215.814 309.395 208.518 305.877 201.117 301.649C205.827 278.918 210.643 256.897 215.459 234.876C223.383 233.91 231.307 232.945 239.654 232.307C241.389 235.733 242.701 238.831 244.014 241.929C247.883 246.568 253.186 246.852 259.089 246.787C253.225 269.503 246.892 292.169 240.412 315.36C235.475 310.507 230.118 307.706 223.409 312.71Z" fill="#FFFEFD"/>
<path d="M283.092 334.83C284.937 338.844 286.782 342.857 288.627 346.871C287.981 347.349 287.336 347.827 286.691 348.305C274.827 333.819 260.083 323.435 242.795 316.639C263.909 318.494 282.235 311.271 300.045 301.487C315.619 292.931 331.927 285.954 349.58 281.712C348.114 282.728 346.677 283.789 345.175 284.749C343.496 285.822 341.748 286.786 340.049 287.828C323.34 298.077 306.618 308.304 289.939 318.601C285.119 321.576 284.809 323.815 288.847 327.959C293.762 333.002 295.877 338.996 296.102 346.013C291.845 342.165 287.811 338.519 283.385 334.713C282.904 334.5 282.818 334.446 282.731 334.391C282.851 334.538 282.971 334.684 283.092 334.83Z" fill="#D01631"/>
<path d="M379.074 339.833C379.184 339.808 379.294 339.783 379.243 339.798C379.081 339.839 379.074 339.833 379.074 339.833Z" fill="#D01631"/>
<path d="M378.061 340.812C378.137 340.457 378.332 340.202 378.847 339.926C379.074 339.833 379.08 339.839 379.083 339.842C379.037 340.193 378.873 340.472 378.372 340.79C378.149 340.896 378.088 340.842 378.061 340.812Z" fill="#D01631"/>
<path d="M215.005 234.861C210.644 256.897 205.828 278.918 200.931 301.336C196.262 299.891 191.548 298.308 187.108 296.16C173.789 289.714 160.437 283.304 147.424 276.277C144.309 274.595 142.459 270.57 140.23 266.971C142.985 263.185 145.536 260.052 148.088 256.918C156.185 258.6 164.282 260.282 173.072 262.044C174.123 262.205 174.482 262.286 175.136 262.491C176.633 262.456 177.834 262.298 179.419 262.089C187.117 260.36 190.708 254.804 192.942 248.457C194.843 243.057 195.755 237.309 197.104 231.714C202.92 232.759 208.735 233.803 215.005 234.861Z" fill="#FF4C3E"/>
<path d="M197.036 231.262C195.755 237.309 194.843 243.057 192.942 248.457C190.708 254.804 187.117 260.36 179.007 262.008C177.089 262.108 175.965 262.238 174.841 262.368C174.482 262.286 174.123 262.205 173.519 261.999C175.695 245.391 178.117 228.908 180.569 212.21C179.21 211.951 177.751 211.773 176.351 211.387C173.256 210.533 169.771 209.642 170.165 205.536C170.378 203.322 171.919 199.428 172.886 199.42C176.296 199.392 181.84 199.742 182.743 201.708C185.642 208.022 190.892 207.181 196.195 208.053C196.72 215.668 196.844 223.239 197.036 231.262Z" fill="#1A1E90"/>
<path d="M247.68 172.186C252.552 177.727 253.346 183.779 250.081 188.282C246.206 193.625 240.012 195.45 234.269 192.939C227.962 190.182 224.967 182.293 227.923 176.224C230.882 170.146 238.897 167.351 244.863 170.351C245.747 170.795 246.533 171.432 247.68 172.186Z" fill="#FECC91"/>
<path d="M196.448 200.038C194.131 197.227 192.218 194.377 190.106 191.257C196.567 185.955 198.795 178.456 201.141 170.991C201.5 169.85 202.615 167.963 203.116 168.045C204.375 168.249 206.064 169.116 206.559 170.188C210.16 177.997 211.613 186.018 207.006 193.951C204.82 197.716 201.549 200.19 196.448 200.038Z" fill="#FE4D3F"/>
<path d="M305.54 150.101C300.353 151.354 297.877 148.049 296.365 144.046C294.643 139.488 296.5 134.616 300.559 131.884C304.757 129.058 308.772 129.6 312.794 132.669C310.039 134.201 307.57 135.574 304.001 137.559C306.235 138.343 307.444 138.423 308.088 139.067C309.275 140.255 310.976 141.82 310.905 143.144C310.821 144.724 309.191 146.289 308.055 147.72C307.403 148.542 306.402 149.086 305.54 150.101Z" fill="#FF4E3F"/>
<path d="M244.329 241.795C242.701 238.831 241.389 235.733 240.032 232.25C244.949 229.542 250.069 227.501 254.825 224.814C259.484 222.182 263.771 218.891 268.573 216.306C262.248 226.372 253.319 233.896 244.329 241.795Z" fill="#FF5141"/>
<path d="M73.9966 339.735C73.9966 339.735 74.0347 339.311 74.0801 339.104C79.294 335.484 83.6992 336.059 89.0094 341.422C93.8377 346.298 97.1343 352.072 97.5615 358.793C93.0208 353.66 88.3542 348.385 83.3254 342.832C82.8693 342.507 82.7753 342.46 82.6814 342.414C82.8164 342.554 82.9514 342.694 83.0864 342.834C84.8819 347.737 87.0511 352.543 88.3442 357.575C89.2361 361.047 88.9158 364.829 89.1373 368.473C88.3613 368.654 87.5854 368.836 86.8094 369.018C85.9 366.369 84.7879 363.769 84.1307 361.058C83.2418 357.392 83.046 353.533 81.9175 349.957C80.75 346.257 78.5703 343.077 73.6988 342.712C73.3393 342.283 73.3386 341.886 73.5617 341.041C73.965 340.333 74.0354 340.047 73.9966 339.735Z" fill="#D21932"/>
<path d="M76.8801 301.183C76.9702 300.371 77.0262 299.97 77.1358 299.271C82.2075 304.918 88.6266 306.964 96.6608 305.82C89.9739 312.453 82.8246 319.068 75.375 325.848C75.6652 317.873 76.2556 309.734 76.8801 301.183Z" fill="#FFFBFA"/>
<path d="M128.195 249.184C150.503 241.061 151.189 217.436 141.466 200.791C138.359 195.471 133.552 192.45 127.666 190.902C123.292 189.751 123 188.638 125.959 185.384C126.071 185.261 126.192 185.146 126.307 185.025C137.545 173.145 144.272 172.287 158.332 180.941C161.757 183.05 163.925 193.221 161.423 196.441C160.759 197.294 159.114 197.868 157.98 197.782C154.025 197.482 150.097 196.828 146.157 196.328C144.958 196.176 143.752 196.089 142.653 195.982C145.597 201.534 149.297 206.457 150.93 211.991C155.233 226.568 149.553 239.004 140.911 250.455C140.312 251.249 139.689 252.025 138.653 253.108C135.19 252.505 132.15 251.605 129.111 250.704C129.111 250.704 129.065 250.802 129.162 250.568C128.955 250.192 128.652 250.049 128.348 249.906C128.348 249.906 128.215 249.43 128.195 249.184Z" fill="#1A1E91"/>
<path d="M129.184 251.054C132.15 251.605 135.189 252.505 138.573 253.431C141.761 254.488 144.604 255.521 147.767 256.736C145.536 260.052 142.985 263.185 140.244 266.598C138.502 265.343 136.634 264.017 135.465 262.233C133.189 258.759 131.304 255.029 129.184 251.054Z" fill="#FDFAFB"/>
<path d="M128.431 250.101C128.652 250.049 128.955 250.192 129.211 250.591C128.927 250.688 128.71 250.504 128.431 250.101Z" fill="#FDFAFB"/>
<path d="M68.8464 263.263C53.0644 267.613 39.6446 261.335 33.2487 246.86C26.5273 231.648 31.3354 215.029 45.417 205.338C53.3141 206.536 54.404 207.565 54.1198 215.152C53.8917 221.24 55.701 225.899 61.3303 228.696C65.5377 230.786 66.7046 234.316 66.0198 238.681C65.8148 239.988 65.5947 241.336 65.0923 242.545C61.9305 250.154 62.3516 257.08 68.8464 263.263Z" fill="#FDC318"/>
<path d="M73.8144 339.881C74.0357 340.047 73.9653 340.333 73.6284 340.749C73.3499 340.581 73.4035 340.288 73.8144 339.881Z" fill="#FF4C3E"/>
<path d="M283.086 334.835C282.971 334.684 282.851 334.538 282.731 334.391C282.818 334.446 282.904 334.5 283.031 334.703C283.071 334.851 283.08 334.839 283.086 334.835Z" fill="#FF4B3D"/>
<path d="M175.136 262.491C175.965 262.238 177.089 262.108 178.624 262.059C177.834 262.298 176.632 262.456 175.136 262.491Z" fill="#7739C6"/>
<path d="M83.0837 342.836C82.9516 342.694 82.8166 342.554 82.6816 342.414C82.7756 342.46 82.8695 342.507 83.0202 342.698C83.0769 342.844 83.0808 342.839 83.0837 342.836Z" fill="#FF4C3E"/>
<path d="M140.562 195.373C140.603 195.433 140.521 195.314 140.562 195.373Z" fill="#7739C6"/>
</svg>
