<svg width="512" height="462" viewBox="0 0 512 462" fill="none" xmlns="http://www.w3.org/2000/svg">
<path d="M512 154.283C511.344 155.063 510.276 155.222 510.093 155.711C502.722 175.384 487.873 188.219 470.499 198.526C458.881 205.419 446.422 210.582 433.234 213.724C426.343 215.366 419.355 216.603 412.267 218.052C412.804 219.126 413.366 220.249 413.927 221.373C413.983 220.894 414.039 220.415 414.095 219.936C422.391 219.864 430.71 219.364 438.977 219.81C455.019 220.675 462.137 237.782 457.514 250.954C453.532 262.303 445.934 270.482 436.736 277.362C420.9 289.206 402.977 297.119 384.48 303.781C382.253 304.583 379.797 304.753 377.21 305.262C377.21 306.823 377.21 308.57 377.21 310.943C389.423 309.532 400.531 311.611 408.536 321.818C412.969 327.469 415.406 334.305 414.806 341.215C413.328 358.249 400.48 375.965 371.373 367.959C390.672 397.982 379.211 433.956 353.281 449.134C324.232 466.137 282.696 455.748 268.333 414.513C265.42 418.704 263.045 422 260.796 425.38C255.269 433.686 246.619 436.889 239.366 431.489C235.095 428.309 233.034 422.151 230.011 417.312C229.082 415.824 228.26 414.269 226.738 411.607C223.425 427.089 217.388 439.066 206.022 448.478C194.619 457.923 181.608 462.457 167.416 461.535C137.319 459.579 116.985 438.349 113.715 412.644C110.101 415.202 106.792 417.916 103.143 420.046C96.3839 423.992 88.9515 423.873 81.8416 421.648C72.7122 418.791 63.6932 415.441 54.9237 411.621C48.5191 408.832 45.2794 402.858 43.0024 396.457C42.5748 395.255 42.0968 394.071 41.6429 392.881C32.7131 397.362 23.3789 393.54 20.0941 383.833C18.1487 378.084 15.3358 373.544 9.71292 370.589C6.30571 368.797 3.58883 365.693 0.280903 363.465C-2.98023e-08 359.061 0 354.372 0 349.217C0.385352 348.82 1.06972 349.03 1.11315 348.937C3.22746 344.452 7.40534 342.419 11.5999 340.913C17.4167 338.824 21.0697 334.751 24.515 329.928C26.7397 326.814 30.4894 324.785 32.6944 321.661C34.4664 319.151 35.1937 315.788 35.9415 312.697C37.1819 307.569 38.0665 302.356 39.1214 297.076C34.1669 295.137 28.4181 293.238 22.9797 290.678C14.6661 286.766 8.90991 280.6 7.09424 271.161C5.89011 264.902 10.5823 255.394 17.1696 251.732C18.7045 250.879 20.283 250.104 22.3136 249.048C21.881 240.679 22.4432 231.897 20.6542 223.623C19.391 217.78 14.8641 212.668 11.9327 207.155C8.50945 200.718 2.68016 195.379 3.8806 186.881C4.68299 181.202 9.14725 175.64 14.7429 174.73C24.4686 173.147 34.2774 171.879 43.8602 169.655C63.9983 164.981 82.1438 155.696 98.6403 143.459C116.551 130.173 130.513 113.218 143.14 94.8544C160.991 68.8941 179.809 43.5991 198.227 18.0288C200.969 14.2223 203.794 10.4758 206.556 6.6839C213.34 -2.62854 227.16 -2.10771 232.594 7.60696C237.38 16.1622 242.871 24.4546 249.048 32.0519C252.882 36.7673 258.542 40.0144 263.492 43.7773C263.936 44.1152 265.291 43.5839 266.039 43.144C274.971 37.8956 284.204 36.1105 294.305 39.6896C303.573 42.9736 314.13 55.2746 312.976 65.4193C312.275 71.5834 311.329 77.7195 310.36 84.8489C313.025 85.8569 317.223 87.4443 321.42 89.0318C321.915 88.726 322.41 88.4203 322.905 88.1146C321.342 83.8526 320.041 79.471 318.163 75.3524C313.653 65.4593 317.207 55.877 326.01 53.5481C330.506 52.3587 335.84 52.8408 340.44 53.9877C344.568 55.0168 347.593 53.6969 350.966 52.2891C356.285 50.0691 361.536 47.0473 367.563 49.7855C369.737 50.7735 371.746 52.1271 374.276 53.5675C375.182 48.5541 376.092 43.5319 376.998 38.5089C378 32.951 379.007 27.394 379.996 21.8336C381.048 15.9148 384.747 12.1017 390.334 10.8875C396.449 9.55863 401.955 10.6819 406.305 16.2997C416.072 28.9143 426.338 41.1412 436.323 53.5884C446.699 66.5232 456.931 79.5736 467.323 92.4954C476.82 104.304 486.438 116.014 496.036 127.74C496.594 128.423 497.405 129.258 498.177 129.348C503.829 130.009 507.769 133.395 511.704 137.039C512 142.439 512 148.127 512 154.283ZM399.019 30.0341C397.609 28.3459 396.2 26.6576 393.975 23.9929C393.218 29.772 392.631 34.2539 391.442 39.2115C390.642 44.7449 389.843 50.2783 388.715 56.5239C387.417 63.9436 386.118 71.3633 384.304 79.3245C383.57 84.1832 382.837 89.0419 381.987 94.6866C380.859 101.234 379.73 107.782 378.356 114.89C377.595 119.213 376.834 123.536 375.969 128.651C374.981 134.684 373.992 140.716 372.415 147.246C371.673 151.502 370.93 155.757 370.105 160.828C369.125 166.391 368.144 171.955 367.02 178.207C366.705 179.075 366.39 179.944 366.025 181.279C366.025 181.279 366.05 181.747 365.65 182.28C363.124 184.529 360.599 186.778 358.037 188.118C357.989 186.795 357.99 185.469 357.886 184.15C356.607 167.922 355.312 151.695 354.82 135.647C361.027 137.447 365.786 136.299 368.649 132.309C371.619 128.17 371.549 123.493 368.457 119.427C363.599 113.041 355.882 113.627 349.468 120.547C339.52 114.89 329.777 108.829 319.574 103.679C306.586 97.1217 292.549 93.8998 277.371 92.7307C276.921 92.7432 276.47 92.7557 275.081 92.7517C270.106 92.7522 265.009 92.105 260.204 93.0098C257.561 93.5075 254.021 96.2121 253.317 98.6295C251.73 104.084 251.655 109.979 250.469 116.128C250.326 116.975 250.183 117.822 249.726 119.393C248.469 125.479 247.212 131.565 245.456 138.048C245.292 138.653 245.127 139.259 244.65 140.514C242.419 147.26 240.188 154.006 237.416 161.043C236.968 161.906 236.519 162.769 235.775 164.283C233.169 169.402 230.564 174.521 227.432 179.918C226.955 180.531 226.478 181.143 225.462 182.143C223.293 185.319 221.123 188.494 218.326 191.809C217.843 192.452 217.36 193.094 216.302 194.058C211.859 197.66 207.415 201.261 202.341 204.867C201.557 205.488 200.773 206.108 199.269 206.81C193.161 209.803 187.052 212.796 180.321 215.836C179.554 216.46 178.787 217.084 177.244 217.736C170.824 220.387 164.403 223.038 157.309 225.721C156.528 226.057 155.747 226.394 154.23 226.821C149.138 229.057 144.045 231.292 138.303 233.626C137.569 233.986 136.835 234.347 135.349 234.795C130.901 236.777 126.452 238.76 121.388 240.788C120.878 241.1 120.369 241.411 119.157 241.821C101.546 249.584 85.6734 260.043 71.0325 271.912C67.6735 261.532 64.3145 251.152 61.707 240.619C63.7751 239.994 65.8408 239.361 67.9116 238.746C97.5289 229.948 126.192 218.855 152.448 202.338C181.645 183.971 203.805 158.71 221.949 129.725C232.1 113.509 241.716 96.9546 252.051 80.8599C256.034 74.6579 261.343 69.3078 266.068 63.5448C256.749 56.5952 246.461 50.8216 238.739 42.6291C231.082 34.5043 226.009 23.9431 219.505 13.9954C217.213 16.7775 215.521 18.6077 214.077 20.6168C192.622 50.4847 171.012 80.2436 149.816 110.295C121.368 150.629 83.509 176.427 34.8747 185.949C29.6252 186.977 24.3137 187.687 18.4699 188.636C23.7707 197.464 28.8619 205.641 33.5959 214.021C34.9117 216.35 35.6405 219.245 35.8235 221.936C36.3601 229.827 36.4866 237.745 36.7732 245.64C39.2117 245.64 40.7 245.64 42.2069 246.538C42.6975 251.109 43.1881 255.679 43.6359 259.851C38.068 260.754 32.422 261.252 27.0122 262.659C21.2184 264.165 20.2458 269.529 24.7307 273.594C26.0644 274.803 27.7276 275.689 29.3324 276.551C39.2052 281.854 50.1048 283.368 60.8737 285.708C60.1679 286.994 59.4607 288.279 58.7566 289.566C54.0806 298.113 50.5367 307.021 50.0031 317.656C51.7906 320.855 52.9007 324.871 55.5313 327.055C59.094 330.013 63.8229 331.567 67.9992 334.567C68.0431 339.944 67.8526 345.336 68.2158 350.691C68.4454 354.076 70.5427 356.095 74.1223 357.04C78.5378 358.207 82.7497 360.144 86.9175 362.412C86.6462 363.482 86.375 364.552 85.7778 366.28C85.0952 367.73 84.4126 369.18 83.6059 370.894C78.7763 369.028 74.2432 367.435 69.8481 365.524C66.9636 364.27 65.2701 364.754 63.9594 367.726C62.2146 371.682 60.0524 375.453 58.1782 379.355C53.774 388.526 56.9061 396.762 66.3849 400.303C73.2334 402.862 80.1937 405.153 87.1953 407.26C92.7067 408.918 98.1077 407.207 101.006 402.738C105.084 396.449 107.759 389.251 111.12 382.263C108.74 381.186 107.263 380.433 105.726 379.835C95.6392 375.91 95.635 375.921 99.9291 365.761C102.012 366.263 104.196 366.516 106.16 367.312C112.969 370.071 118.356 370.534 123.402 363.107C131.313 351.464 160.145 349.388 173.728 354.674C174.262 361.564 174.199 361.552 167.805 361.734C143.962 362.41 123.14 384.5 128.491 412.652C131.868 430.414 149.695 447.042 172.727 445.956C196.523 444.834 216.577 419.778 211.474 396.526C207.935 380.404 198.758 369.429 183.308 363.758C180.649 362.783 179.261 361.609 180.537 358.678C181.874 355.605 183.865 357.103 185.934 357.678C189.069 358.549 192.269 359.439 195.49 359.683C199.792 360.008 204.14 359.723 208.27 360.547C207.567 370.156 214.84 376.444 222.899 373.195C228.581 370.904 230.513 365.72 229.612 357.825C239.08 357.466 248.548 357.114 258.015 356.748C267.15 356.394 276.305 356.287 285.411 355.566C290.747 355.143 296.305 355.027 300.811 351.019C302.456 349.556 304.984 349.003 307.187 348.272C309.418 347.532 312.532 346.741 312.65 350.105C312.754 353.059 317.113 357.303 311.039 359.216C303.678 361.533 297.746 365.907 292.585 371.543C277.145 388.406 278.289 415.109 295.745 430.685C311.929 445.127 332.592 445.433 350.242 432.627C371.268 417.373 371.424 382.169 350.717 366.527C342.862 360.593 334.133 357.49 324.478 356.909C321.313 356.719 319.897 355.722 319.942 352.509C319.966 350.773 319.529 349.031 319.221 346.693C324.799 346.693 329.926 346.665 335.053 346.702C339.649 346.734 343.282 345.51 345.597 340.946C348.073 336.066 351.224 331.529 354.912 326.76C359.601 327.478 361.091 325.133 360.98 320.794C360.909 317.995 361.407 315.185 361.596 312.376C362.316 301.654 363.013 290.93 363.88 279.224C363.904 267.428 364.541 255.595 363.806 243.847C362.717 226.409 360.656 209.032 359.707 191.781C371.833 199.062 385.088 202.709 399.112 202.64C430.256 202.487 457.799 192.065 481.199 171.566C489.468 164.322 495.595 155.203 497.782 143.822C494.598 142.691 491.803 141.698 488.634 140.214C488.047 140.055 487.46 139.895 486.642 139.119C482.428 133.985 478.213 128.85 473.935 123.025C471.621 120.6 469.306 118.175 466.957 115.049C462.33 109.184 457.702 103.318 452.948 96.8131C450.416 94.1007 447.883 91.3883 445.188 87.9773C442.473 84.5144 439.759 81.0514 436.943 76.9232C434.73 74.5099 432.518 72.0966 430.119 69.0022C427.756 65.8896 425.392 62.7769 422.729 59.0726C420.224 56.2811 417.72 53.4897 415.012 50.0317C412.044 46.4437 409.075 42.8557 405.944 38.6598C403.712 36.0024 401.48 33.3449 399.019 30.0341ZM422.324 268.607C426.344 265.381 430.828 262.578 434.258 258.815C437.876 254.845 441.337 250.304 443.338 245.39C446.199 238.367 442.25 233.199 434.636 232.835C431.34 232.678 427.858 232.628 424.73 233.499C418.102 235.343 411.651 237.823 404.829 240.144C404.657 239.524 404.444 238.223 403.946 237.042C401.243 230.638 398.958 223.991 395.583 217.957C392.196 211.903 385.249 212.08 381.492 217.994C379.84 220.594 378.773 223.716 378.075 226.747C373.278 247.566 377.769 268.064 380.243 290.316C394.629 282.909 408.166 275.94 422.324 268.607ZM375.625 351.775C385.195 359.173 399.13 352.357 399.95 340.372C400.424 333.439 395.758 326.813 389.161 324.803C382.432 322.752 375.157 325.57 371.539 331.628C367.553 338.304 368.763 345.088 375.625 351.775ZM280.208 52.0004C278.829 52.5742 277.375 53.0163 276.083 53.7437C268.803 57.8404 266.181 66.642 269.989 73.9847C273.749 81.2351 282.173 84.2838 289.538 81.0593C296.351 78.0759 300.172 70.8413 298.57 63.9574C296.695 55.9006 290.355 51.5288 280.208 52.0004ZM251.644 376.009C251.294 375.459 250.943 374.909 250.019 373.458C245.551 384.112 238.153 390.928 226.959 394.058C237.162 399.193 243.83 406.699 246.457 418.554C250.18 413.376 252.528 408.557 256.261 405.349C260.101 402.049 265.292 400.32 270.156 397.765C269.235 396.726 268.814 395.835 268.137 395.551C259.548 391.953 254.581 385.302 251.644 376.009ZM342.431 94.5696C349.74 89.6214 357.624 93.2143 366.867 93.8249C359.718 83.9892 359.299 74.2276 361.707 63.5076C351.824 69.1037 341.957 69.6832 331.309 66.9135C337.859 76.7184 337.433 86.9051 334.462 98.372C337.907 96.7162 339.818 95.7974 342.431 94.5696ZM44.1559 365.276C48.7334 363.175 53.3108 361.074 59.4005 358.279C47.8853 353.549 41.6132 345.722 38.8304 334.331C35.1049 339.61 32.7979 344.527 29.0379 347.746C25.2233 351.013 19.974 352.604 13.7061 355.758C25.7396 359.608 30.9641 368.119 34.5762 379.263C38.3024 373.712 40.9626 369.748 44.1559 365.276Z" fill="#FFFEFE"/>
<path d="M278.049 92.7532C292.549 93.8997 306.586 97.1216 319.574 103.679C329.777 108.829 339.52 114.89 349.716 121.07C347.542 127.322 350.028 131.616 354.022 135.468C355.312 151.695 356.607 167.922 357.886 184.15C357.99 185.469 357.989 186.795 358.079 188.85C358.417 190.264 358.713 190.947 359.009 191.629C360.656 209.032 362.717 226.409 363.806 243.847C364.54 255.595 363.904 267.428 363.405 279.595C359.639 279.591 356.352 278.918 353.059 278.891C331.101 278.715 310.448 284.725 290.281 292.672C258.5 305.194 227.055 318.701 192.911 324.253C176.681 295.015 150.897 281.56 119.068 277.744C114.548 277.203 110.024 276.7 105.502 276.179C106.071 275.127 106.51 274.882 106.977 274.801C128.543 271.026 149.911 266.608 170.597 259.107C197.883 249.212 221.011 233.514 238.489 210.368C264.693 175.667 275.407 135.508 278.049 92.7532Z" fill="#FFECDF"/>
<path d="M42.1882 245.64C40.6998 245.64 39.2115 245.64 36.773 245.64C36.4864 237.745 36.3599 229.827 35.8233 221.936C35.6403 219.245 34.9115 216.35 33.5957 214.021C28.8617 205.641 23.7705 197.464 18.4697 188.636C24.3135 187.687 29.6251 186.977 34.8745 185.949C83.5088 176.427 121.368 150.629 149.816 110.295C171.012 80.2436 192.622 50.4847 214.077 20.6167C215.52 18.6077 217.212 16.7775 219.505 13.9954C226.009 23.9431 231.081 34.5043 238.739 42.6291C246.461 50.8215 256.748 56.5952 266.068 63.5448C261.343 69.3078 256.033 74.6579 252.051 80.8598C241.715 96.9546 232.099 113.509 221.949 129.725C203.805 158.71 181.645 183.971 152.448 202.338C126.192 218.855 97.5287 229.948 67.9114 238.746C65.8406 239.361 63.7749 239.994 61.0394 240.53C58.7097 238.632 57.2956 236.474 55.338 235.079C49.7302 231.082 45.8433 232.49 43.7988 239.033C43.124 241.192 42.7174 243.435 42.1882 245.64ZM197.05 123.586C197.668 123.829 198.329 124.352 198.894 124.263C200.398 124.025 201.86 123.523 203.338 123.127C202.655 121.893 202.261 119.992 201.235 119.546C197.536 117.939 194.785 116.104 194.51 111.474C194.395 109.531 192.809 107.513 191.493 105.845C189.866 103.784 187.996 101.485 184.826 103.504C181.76 105.458 178.757 111.603 180.251 113.555C185.356 120.227 190.708 126.71 196.085 133.414C200.519 129.402 195.981 127.13 195.854 123.896C196.005 123.733 196.156 123.57 197.05 123.586ZM82.0376 195.35C81.2468 195.554 80.0265 196.187 79.7331 195.894C77.3818 193.542 75.4265 190.747 72.8845 188.652C71.5732 187.572 69.3141 187.641 66.5723 186.968C69.9544 197.085 72.714 205.619 75.7444 214.055C76.1246 215.114 77.9333 215.659 79.0801 216.442C79.4298 215.221 80.2894 213.88 80.0356 212.801C79.2029 209.262 77.9657 205.817 76.884 202.336C80.716 205.289 83.6116 208.712 86.8893 211.718C87.8383 212.588 89.9148 212.525 91.409 212.346C91.9422 212.282 92.8795 210.376 92.6189 209.703C89.5554 201.793 86.3643 193.93 82.9865 186.15C82.6697 185.42 80.8539 185.341 79.7341 184.96C79.5737 186.004 79.0544 187.153 79.3242 188.069C79.9788 190.293 81.0005 192.41 82.0376 195.35ZM234.66 75.7193C234.355 72.7798 235.121 68.9072 233.533 67.0843C229.568 62.532 224.644 58.7714 219.857 55.0084C218.581 54.0052 215.985 53.2954 214.74 53.9247C212.099 55.2595 209.767 57.3936 207.716 59.5819C207.152 60.1836 207.544 62.6361 208.321 63.3891C214.835 69.701 221.541 75.8147 228.869 82.6202C230.832 80.3218 232.538 78.3249 234.66 75.7193ZM166.465 151.151C168.669 153.799 170.872 156.447 173.074 159.092C176.762 157.823 175.957 155.894 174.303 153.782C169.696 147.897 165.149 141.965 160.433 136.17C159.811 135.405 158.346 135.326 157.272 134.929C157.223 136.2 156.705 137.72 157.219 138.694C158.429 140.985 160.132 143.016 161.756 145.323C160.212 146.8 158.947 148.01 157.341 149.547C155.669 147.32 154.443 145.337 152.852 143.711C152.038 142.88 150.571 142.689 149.4 142.208C149.443 143.49 148.994 145.111 149.607 145.999C154.138 152.553 158.828 159 163.624 165.364C164.197 166.124 165.702 166.181 166.776 166.564C166.894 165.278 167.548 163.692 167.028 162.765C165.585 160.198 163.652 157.906 161.728 155.248C163.199 153.855 164.513 152.612 166.465 151.151ZM103.132 189.002C105.537 192.928 107.535 197.196 110.466 200.679C113.112 203.824 117.047 203.634 120.441 201.394C123.613 199.301 124.661 195.942 122.968 192.678C120.399 187.727 117.643 182.719 114.083 178.478C110.667 174.41 104.413 174.779 102.677 178.952C101.581 181.587 102.712 185.148 103.132 189.002ZM61.6406 194.889C61.8667 193.363 62.3974 191.785 62.1527 190.338C62.0678 189.835 60.0243 189.295 58.9422 189.408C56.8125 189.632 54.5389 189.942 52.6993 190.921C51.6133 191.498 50.3868 193.679 50.6901 194.705C53.0867 202.818 55.7243 210.867 58.6079 218.819C59.005 219.914 61.17 220.997 62.5015 220.979C64.5891 220.951 66.8292 220.286 68.6802 219.289C69.7378 218.719 70.1529 216.956 70.8573 215.731C69.7029 215.11 68.5733 214.045 67.3878 213.979C65.842 213.892 64.2518 214.597 62.3114 215.047C61.7076 212.869 61.2059 211.059 60.714 209.284C62.6476 208.323 64.0968 207.604 65.4809 206.916C65.6526 201.417 63.3789 199.318 57.9594 201.651C57.4289 199.545 57.0442 198.018 56.6268 196.361C58.3433 195.872 59.6077 195.512 61.6406 194.889ZM219.295 80.9608C213.302 77.2478 207.309 73.5347 201.284 69.8019C199.12 74.4302 207.108 89.8308 217.234 100.363C217.234 97.6169 217.234 95.8694 217.234 94.1219C217.234 91.7001 217.234 89.2783 217.234 86.8565C217.735 87.1453 218.237 87.434 218.738 87.7228C220.679 87.5525 222.619 87.3823 224.56 87.212C223.421 85.5418 222.31 83.8513 221.121 82.2165C220.847 81.8395 220.311 81.6535 219.295 80.9608ZM211.94 104.439C211.289 96.8736 205.37 92.8194 200.718 88.0238C199.277 86.5384 196.136 84.8029 194.941 85.425C193.161 86.3516 192.154 89.1716 191.336 91.3781C190.866 92.6482 191.236 94.3345 191.537 95.7684C193.1 103.202 198.506 108.036 203.68 112.872C205.991 115.031 208.825 114.333 210.285 111.404C211.214 109.541 211.422 107.32 211.94 104.439ZM167.361 136.867C171.529 141.936 175.697 147.005 179.861 152.069C188.28 144.746 188.663 143.701 184.505 139.986C182.883 141.503 181.249 143.03 179.407 144.753C178.135 142.965 177.117 141.535 176.013 139.983C180.069 136.73 179.424 134.077 175.233 131.644C174.007 132.624 172.76 133.622 171.56 134.581C168.825 132.733 168.093 130.887 170.83 128.578C173.584 126.254 173.22 124.215 170.168 122.521C161.571 128.881 161.428 129.51 167.361 136.867ZM116.628 174.515C122.859 178.703 128.949 182.973 132.361 190.098C132.897 191.219 135.028 191.576 136.422 192.287C136.348 190.75 136.862 188.78 136.102 187.747C131.83 181.94 129.705 175.435 128.797 168.391C128.556 166.521 127.851 164.71 127.36 162.872C126.814 162.801 126.269 162.73 125.723 162.659C125.15 164.259 124.202 165.835 124.101 167.465C123.976 169.456 124.562 171.491 124.949 174.289C122.537 172.767 120.972 171.474 119.176 170.77C118.201 170.387 116.762 170.84 115.697 171.3C115.459 171.402 115.913 173.109 116.628 174.515ZM153.976 175.362C155.061 175.529 156.146 175.695 157.231 175.862C157.148 174.533 157.54 172.893 156.905 171.926C153.086 166.107 149.032 160.443 145.007 154.656C145.994 153.26 146.905 151.971 147.899 150.565C146.844 149.229 145.952 148.097 144.811 146.651C141.36 149.656 138.156 152.447 134.713 155.445C135.791 157.09 136.655 158.408 137.564 159.795C139.157 158.98 140.389 158.35 141.794 157.632C145.853 163.551 149.698 169.159 153.976 175.362ZM96.1026 206.48C96.3088 209.154 97.4846 210.557 100.307 209.492C103.441 208.308 105.673 206.185 104.196 202.693C101.431 196.155 98.3672 189.732 95.1004 183.43C94.536 182.341 92.357 182.09 90.9239 181.451C90.6687 181.884 90.4136 182.316 90.1584 182.748C92.7598 188.606 95.1885 194.549 98.0383 200.283C99.3828 202.988 98.8975 204.525 96.1026 206.48Z" fill="#FEC17B"/>
<path d="M87.0497 361.748C82.7498 360.144 78.5379 358.207 74.1224 357.04C70.5428 356.095 68.4456 354.076 68.2159 350.691C67.8527 345.336 68.0432 339.944 68.4378 334.149C78.7 335.102 88.5141 336.549 98.3498 337.829C120.228 340.677 142.082 342.463 164.259 340.998C185.97 339.564 206.959 335.695 227.551 328.242C229.485 328.593 231.134 328.783 232.78 328.754C250.181 328.443 267.582 328.064 284.983 327.777C292.95 327.646 300.919 327.677 309.17 327.954C311.256 328.427 313.066 328.781 314.858 328.702C327.934 328.131 341.006 327.473 354.08 326.842C351.224 331.529 348.073 336.066 345.598 340.946C343.282 345.51 339.649 346.734 335.054 346.702C329.927 346.665 324.799 346.693 319.221 346.693C319.529 349.031 319.966 350.773 319.942 352.509C319.897 355.722 321.313 356.719 324.478 356.909C334.133 357.49 342.862 360.593 350.717 366.527C371.424 382.169 371.268 417.372 350.242 432.627C332.592 445.433 311.929 445.127 295.745 430.685C278.289 415.109 277.145 388.406 292.585 371.543C297.746 365.907 303.678 361.533 311.039 359.216C317.113 357.303 312.754 353.059 312.65 350.105C312.532 346.741 309.418 347.532 307.187 348.272C304.984 349.003 302.456 349.556 300.811 351.019C296.305 355.026 290.747 355.143 285.411 355.566C276.305 356.287 267.15 356.394 258.015 356.748C248.548 357.114 239.08 357.466 228.858 357.636C221.107 349.991 213.598 350.852 208.469 359.7C204.141 359.723 199.792 360.008 195.49 359.683C192.269 359.439 189.069 358.549 185.934 357.678C183.865 357.103 181.874 355.605 180.537 358.677C179.261 361.609 180.65 362.782 183.309 363.758C198.758 369.429 207.935 380.404 211.474 396.526C216.577 419.778 196.523 444.834 172.727 445.956C149.695 447.042 131.868 430.414 128.492 412.652C123.14 384.5 143.962 362.41 167.805 361.734C174.199 361.552 174.263 361.564 173.728 354.674C160.145 349.388 131.313 351.464 123.402 363.107C118.356 370.534 112.97 370.071 106.161 367.312C104.196 366.516 102.012 366.263 99.4682 365.763C99.0073 365.765 98.8698 365.647 98.724 365.33C94.7354 363.924 90.8925 362.836 87.0497 361.748ZM187.551 420.789C197.687 410.166 197.326 396.297 186.641 385.817C177.052 376.412 161.52 376.59 152.102 386.213C142.614 395.907 142.634 411.68 152.145 421.343C161.833 431.186 176.76 431.168 187.551 420.789ZM335.567 377.513C325.577 372.479 316.038 373.65 307.752 380.773C300.476 387.028 297.618 395.29 299.996 404.966C302.672 415.856 311.837 423.167 322.157 423.918C336.563 424.966 345.277 415.233 347.894 406.287C351.254 394.798 346.645 383.861 335.567 377.513Z" fill="#EEA7FF"/>
<path d="M157.983 225.688C164.404 223.038 170.824 220.387 177.978 217.776C185.547 222.414 192.38 227.012 199.214 231.609C199.607 231.07 199.999 230.531 200.392 229.992C193.909 225.258 187.426 220.523 180.944 215.789C187.052 212.796 193.161 209.803 199.952 206.909C207.457 210.361 214.278 213.713 221.1 217.066C221.427 216.422 221.755 215.777 222.082 215.133C215.712 211.709 209.342 208.286 202.972 204.863C207.416 201.261 211.859 197.66 216.944 194.037C223.816 195.985 230.047 197.955 236.278 199.924C236.503 199.242 236.727 198.56 236.952 197.878C230.953 195.808 224.954 193.739 218.954 191.67C221.124 188.494 223.293 185.319 226.105 182.108C234.048 182.96 241.347 183.848 248.646 184.735C248.739 183.971 248.832 183.207 248.925 182.442C241.936 181.508 234.947 180.574 227.958 179.64C230.564 174.521 233.169 169.402 236.383 163.992C243.974 163.255 251.313 165.284 257.901 162.091C257.835 161.645 257.769 161.199 257.703 160.752C251.121 160.752 244.539 160.752 237.957 160.752C240.188 154.006 242.419 147.26 245.257 140.169C251.757 139.721 257.526 139.156 262.688 136.353C262.573 135.856 262.459 135.359 262.344 134.862C256.881 135.792 251.419 136.722 245.956 137.652C247.212 131.565 248.469 125.479 250.275 119.003C255.44 117.157 260.851 117.759 264.316 113.253C259.865 114.067 255.415 114.881 250.964 115.695C251.655 109.979 251.73 104.084 253.317 98.6295C254.021 96.212 257.561 93.5075 260.204 93.0097C265.009 92.105 270.106 92.7521 275.539 93.1898C273.646 108.483 272.05 123.505 268.786 138.157C262.267 167.422 250.015 194.189 230.107 216.906C210.808 238.929 186.036 252.54 158.262 260.561C142.711 265.052 126.793 268.432 110.877 271.454C98.0677 273.886 85.0133 275.028 71.9658 276.411C71.6514 274.957 71.4387 273.835 71.2261 272.713C85.6735 260.043 101.546 249.583 119.678 242.071C125.229 247.961 130.258 253.602 135.287 259.243C135.429 257.128 134.862 255.431 133.789 254.159C129.953 249.609 125.946 245.202 122.003 240.742C126.452 238.76 130.901 236.777 136.022 234.896C142.887 240.806 149.08 246.615 155.273 252.423C151.453 244.613 145.91 238.434 138.953 233.527C144.045 231.292 149.138 229.056 154.804 227.048C163.058 232.892 170.739 238.509 178.419 244.126C173.242 236.084 165.662 230.831 157.983 225.688Z" fill="#FFEBDF"/>
<path d="M50.0693 316.905C50.5366 307.02 54.0806 298.113 58.7565 289.566C59.4606 288.279 60.1678 286.994 61.3182 285.343C65.3655 285.49 68.9682 286.002 73.0753 286.586C72.8703 283.895 72.7132 281.834 73.0355 279.765C74.677 279.731 75.8509 279.803 76.9998 279.665C96.093 277.381 115.032 278.639 133.692 282.928C158.47 288.622 177.861 301.9 189.649 324.911C175.115 326.597 160.973 328.966 146.77 329.421C132.538 329.876 118.222 328.734 103.984 327.722C85.587 326.414 67.2853 324.266 50.0693 316.905Z" fill="#FFEBDF"/>
<path d="M50.0361 317.28C67.2853 324.266 85.587 326.414 103.984 327.722C118.222 328.734 132.538 329.876 146.77 329.421C160.973 328.966 175.115 326.597 190.034 324.914C191.552 324.685 192.319 324.61 193.086 324.535C227.055 318.701 258.5 305.194 290.281 292.672C310.448 284.725 331.101 278.715 353.059 278.891C356.352 278.917 359.639 279.591 363.324 280.086C363.013 290.93 362.315 301.654 361.596 312.376C361.407 315.185 360.909 317.995 360.98 320.794C361.091 325.133 359.601 327.478 354.496 326.801C341.006 327.473 327.934 328.131 314.858 328.702C313.066 328.781 311.256 328.427 309.257 327.551C309.392 319.885 309.972 312.94 309.991 305.994C310.015 297.303 307.105 294.664 298.938 297.46C285.494 302.064 272.288 307.431 259.203 312.999C248.39 317.6 237.899 322.956 227.265 327.978C206.959 335.695 185.97 339.564 164.259 340.998C142.082 342.463 120.228 340.677 98.3495 337.829C88.5139 336.549 78.6998 335.102 68.4637 333.727C63.8228 331.567 59.0939 330.013 55.5312 327.055C52.9006 324.871 51.7905 320.855 50.0361 317.28Z" fill="#CC6DE5"/>
<path d="M422.014 268.789C408.166 275.939 394.629 282.909 380.244 290.315C377.769 268.064 373.278 247.566 378.075 226.747C378.773 223.716 379.84 220.594 381.492 217.994C385.249 212.08 392.196 211.903 395.583 217.957C398.958 223.991 401.243 230.638 403.946 237.042C404.444 238.223 404.657 239.524 404.829 240.144C411.651 237.823 418.102 235.343 424.73 233.499C427.858 232.628 431.34 232.678 434.636 232.835C442.25 233.199 446.199 238.367 443.338 245.39C441.337 250.304 437.877 254.845 434.258 258.815C430.828 262.578 426.345 265.381 422.014 268.789Z" fill="#FD5F81"/>
<path d="M473.998 123.716C478.213 128.85 482.428 133.985 486.464 139.564C477.395 147.999 469.115 156.841 459.459 163.763C447.226 172.532 433.874 179.739 420.606 187.665C418.897 187.768 417.587 187.826 415.847 187.847C414.012 188.06 412.615 188.409 411.197 188.537C409.459 188.693 407.695 188.799 405.959 188.678C404.235 188.557 402.532 188.126 400.386 187.838C394.627 187.183 389.302 186.521 383.639 185.798C382.49 185.4 381.678 185.061 381.103 184.457C398.297 175.171 415.553 166.662 432.125 156.982C447.587 147.949 461.521 136.669 473.998 123.716Z" fill="#FFC27A"/>
<path d="M367.164 177.518C368.144 171.955 369.125 166.391 370.502 160.342C378.016 156.277 385.337 153.046 392.214 149.051C410.991 138.145 428.23 125.237 442.62 108.789C446.004 104.922 449.585 101.227 453.075 97.4521C457.702 103.318 462.33 109.183 466.659 115.511C450.605 131.409 433.09 144.624 413.748 155.088C398.606 163.279 382.719 170.092 367.164 177.518Z" fill="#FFC37B"/>
<path d="M400.82 187.831C402.532 188.126 404.235 188.556 405.959 188.678C407.695 188.799 409.459 188.693 411.197 188.537C412.615 188.409 414.012 188.06 415.834 188.222C424.028 190.26 431.125 188.065 438.01 184.749C437.996 184.743 437.989 184.772 438.372 184.825C439.673 184.497 440.591 184.116 441.506 183.743C441.504 183.751 441.487 183.753 441.882 183.786C443.525 183.13 444.773 182.441 446.009 181.749C445.996 181.745 445.992 181.772 446.315 181.811C447.1 181.486 447.562 181.122 448.011 180.752C447.998 180.746 447.995 180.775 448.34 180.832C449.459 180.502 450.232 180.115 451.005 179.742C451.003 179.756 450.977 179.748 451.255 179.711C451.697 179.366 451.86 179.058 452.009 178.747C451.995 178.745 451.994 178.774 452.315 178.815C453.098 178.486 453.558 178.117 454.008 177.746C453.996 177.745 453.991 177.768 454.348 177.808C455.477 177.15 456.25 176.451 457.01 175.749C456.996 175.745 456.994 175.774 457.343 175.828C458.793 175.163 459.896 174.443 461 173.738C461.003 173.754 460.973 173.743 461.232 173.678C461.661 173.318 461.832 173.023 462.003 172.742C462.003 172.755 461.978 172.749 462.311 172.735C463.103 172.064 463.563 171.407 464.009 170.748C463.996 170.745 463.993 170.772 464.307 170.811C465.081 170.475 465.54 170.1 466.002 169.74C466.003 169.754 465.975 169.746 466.232 169.68C466.659 169.319 466.829 169.024 467 168.741C467.002 168.754 466.978 168.748 467.248 168.701C467.68 168.347 467.842 168.04 468.003 167.743C468.001 167.752 467.983 167.755 468.256 167.712C468.689 167.358 468.85 167.046 469.005 166.743C469 166.751 468.985 166.761 469.258 166.717C469.691 166.361 469.851 166.049 470.005 165.743C469.999 165.75 469.986 165.762 470.259 165.718C470.692 165.362 470.852 165.05 471.005 164.743C470.999 164.749 470.986 164.762 471.26 164.719C471.693 164.362 471.852 164.05 472.005 163.743C471.999 163.749 471.986 163.762 472.259 163.717C472.691 163.359 472.851 163.047 473.005 162.742C473 162.751 472.983 162.761 473.253 162.712C473.683 162.352 473.843 162.042 474.003 161.742C474.002 161.753 473.981 161.755 474.249 161.703C474.677 161.344 474.839 161.037 475.002 160.742C475.004 160.754 474.98 160.755 475.273 160.631C475.72 159.922 475.874 159.336 476.012 158.748C475.996 158.747 476.004 158.778 476.284 158.749C476.717 158.398 476.87 158.075 477.01 157.751C476.997 157.748 477.004 157.774 477.28 157.739C477.711 157.385 477.865 157.066 478.007 156.746C477.996 156.746 477.997 156.77 478.268 156.725C478.696 156.365 478.852 156.048 479.005 155.742C479.002 155.753 478.984 155.762 479.274 155.635C479.718 154.922 479.872 154.337 480.011 153.749C479.997 153.747 480.005 153.775 480.312 153.695C480.741 153.222 480.864 152.83 481.172 152.166C483.907 148.164 486.458 144.434 489.009 140.704C491.803 141.698 494.597 142.691 497.782 143.822C495.594 155.203 489.468 164.322 481.199 171.566C457.799 192.065 430.256 202.487 399.112 202.64C385.088 202.709 371.833 199.062 359.358 191.705C358.713 190.947 358.417 190.264 358.097 189.304C360.599 186.778 363.124 184.529 366.187 182.14C368.824 182.583 370.924 183.165 373.01 183.752C372.997 183.758 372.989 183.73 373.203 184.027C376.92 185.212 380.424 186.099 384.222 187.229C388.197 188.182 391.857 189.17 395.572 189.48C397.264 189.621 399.067 188.422 400.82 187.831Z" fill="#FFC27C"/>
<path d="M99.0751 365.826C95.6352 375.921 95.6394 375.91 105.727 379.835C107.264 380.433 108.74 381.185 111.12 382.263C107.759 389.251 105.084 396.449 101.006 402.738C98.1079 407.207 92.7069 408.918 87.1955 407.26C80.1939 405.153 73.2336 402.862 66.3851 400.303C56.9063 396.762 53.7742 388.526 58.1784 379.355C60.0526 375.453 62.2148 371.682 63.9597 367.726C65.2703 364.754 66.9638 364.27 69.8483 365.524C74.2434 367.435 78.7765 369.028 83.6061 370.893C84.4128 369.18 85.0954 367.73 86.3945 365.982C90.964 365.672 94.917 365.659 98.8699 365.647C98.8699 365.647 99.0074 365.765 99.0751 365.826ZM96.9062 399.261C94.8779 399.619 92.7807 399.776 90.8559 400.436C90.1071 400.693 89.7472 402.084 89.2102 402.958C91.4033 403.413 93.6797 404.455 95.7661 404.158C97.8512 403.862 100.527 402.524 96.9062 399.261Z" fill="#EEA7FF"/>
<path d="M72.5565 279.774C72.7135 281.834 72.8705 283.895 73.0756 286.586C68.9685 286.002 65.3658 285.49 61.3616 285.004C50.105 283.368 39.2054 281.854 29.3326 276.551C27.7278 275.689 26.0646 274.803 24.731 273.594C20.246 269.529 21.2186 264.165 27.0124 262.659C32.4222 261.252 38.0682 260.754 43.6361 259.851C43.1883 255.679 42.6977 251.109 42.1978 246.089C42.7178 243.435 43.1244 241.192 43.7992 239.033C45.8437 232.49 49.7306 231.082 55.3384 235.079C57.296 236.474 58.7101 238.632 60.6641 240.607C64.3147 251.152 67.6737 261.532 71.1295 272.313C71.4389 273.836 71.6515 274.957 71.9315 276.729C72.1847 278.177 72.3706 278.975 72.5565 279.774Z" fill="#FD5F81"/>
<path d="M367.092 177.863C382.72 170.093 398.606 163.279 413.748 155.088C433.09 144.624 450.605 131.409 466.676 115.861C469.306 118.175 471.621 120.6 473.967 123.371C461.521 136.669 447.587 147.949 432.125 156.982C415.553 166.662 398.297 175.171 380.715 184.454C377.723 184.387 375.356 184.058 372.989 183.73C372.989 183.73 372.997 183.758 372.893 183.417C370.551 182.321 368.313 181.567 366.075 180.812C366.39 179.944 366.705 179.075 367.092 177.863Z" fill="#FFEBDD"/>
<path d="M437.045 77.5884C439.759 81.0514 442.473 84.5143 445.014 88.5832C440.411 94.325 436.227 99.7001 431.507 104.554C414.5 122.043 394.904 136.009 373.003 146.748C373.992 140.716 374.98 134.683 376.361 128.172C391.462 119.596 405.171 110.1 417.114 98.242C423.902 91.5025 430.411 84.4822 437.045 77.5884Z" fill="#FFC37B"/>
<path d="M372.709 146.997C394.904 136.009 414.5 122.043 431.507 104.554C436.227 99.7001 440.411 94.325 445.096 88.9325C447.883 91.3883 450.415 94.1007 453.011 97.1326C449.585 101.227 446.004 104.922 442.62 108.789C428.229 125.237 410.991 138.145 392.214 149.051C385.336 153.046 378.016 156.277 370.542 159.935C370.93 155.757 371.672 151.502 372.709 146.997Z" fill="#FFEBDD"/>
<path d="M73.0357 279.765C72.3706 278.975 72.1847 278.177 72.0332 277.061C85.0134 275.028 98.0678 273.886 110.877 271.454C126.793 268.432 142.711 265.052 158.262 260.561C186.036 252.54 210.808 238.929 230.107 216.906C250.015 194.189 262.268 167.422 268.786 138.157C272.05 123.506 273.646 108.483 276.008 93.1981C276.47 92.7556 276.921 92.7432 277.71 92.7419C275.408 135.508 264.693 175.667 238.489 210.368C221.011 233.514 197.883 249.212 170.598 259.107C149.912 266.608 128.543 271.026 106.978 274.801C106.51 274.882 106.072 275.127 105.502 276.179C110.024 276.7 114.548 277.203 119.068 277.744C150.897 281.56 176.681 295.015 192.912 324.253C192.319 324.61 191.552 324.685 190.4 324.758C177.861 301.9 158.47 288.622 133.692 282.928C115.033 278.639 96.0932 277.382 77 279.665C75.8512 279.803 74.6773 279.731 73.0357 279.765Z" fill="#F0ADFC"/>
<path d="M378.602 114.329C379.731 107.782 380.859 101.234 382.379 94.2045C396.068 85.134 407.401 74.285 418.343 62.9663C419.647 61.6168 421.454 60.7532 423.029 59.6643C425.392 62.7769 427.756 65.8896 429.965 69.6002C422.636 77.7712 416.035 86.0167 408.139 92.7422C398.882 100.628 388.498 107.192 378.602 114.329Z" fill="#FFC37B"/>
<path d="M378.479 114.61C388.497 107.192 398.881 100.628 408.139 92.7422C416.035 86.0166 422.636 77.7712 430.057 69.9407C432.517 72.0966 434.73 74.5099 436.994 77.2558C430.411 84.4822 423.902 91.5025 417.114 98.242C405.172 110.1 391.462 119.596 376.413 127.776C376.834 123.536 377.595 119.213 378.479 114.61Z" fill="#FFEBDC"/>
<path d="M375.336 351.541C368.763 345.088 367.553 338.304 371.539 331.628C375.157 325.57 382.432 322.752 389.161 324.803C395.757 326.813 400.424 333.439 399.95 340.372C399.13 352.357 385.195 359.173 375.336 351.541Z" fill="#7A46D5"/>
<path d="M280.615 51.9284C290.355 51.5287 296.695 55.9005 298.57 63.9574C300.172 70.8412 296.351 78.0758 289.538 81.0592C282.173 84.2837 273.749 81.235 269.989 73.9846C266.181 66.6419 268.803 57.8403 276.083 53.7436C277.375 53.0162 278.829 52.5741 280.615 51.9284Z" fill="#7A46D5"/>
<path d="M251.799 376.319C254.581 385.302 259.548 391.953 268.138 395.551C268.814 395.835 269.235 396.726 270.156 397.765C265.293 400.32 260.102 402.049 256.261 405.349C252.528 408.557 250.18 413.376 246.458 418.554C243.831 406.699 237.163 399.193 226.959 394.058C238.153 390.928 245.551 384.112 250.02 373.458C250.943 374.909 251.294 375.459 251.799 376.319Z" fill="#FFECE0"/>
<path d="M342.08 94.7241C339.818 95.7974 337.907 96.7161 334.462 98.372C337.432 86.905 337.859 76.7183 331.309 66.9134C341.957 69.6831 351.824 69.1037 361.707 63.5076C359.299 74.2276 359.718 83.9892 366.866 93.8248C357.624 93.2142 349.74 89.6213 342.08 94.7241Z" fill="#FFECE0"/>
<path d="M43.8893 365.53C40.9626 369.748 38.3023 373.712 34.5761 379.263C30.964 368.118 25.7395 359.608 13.7061 355.758C19.9739 352.604 25.2233 351.013 29.0379 347.746C32.7979 344.527 35.1048 339.61 38.8304 334.331C41.6131 345.722 47.8853 353.549 59.4004 358.279C53.3107 361.074 48.7333 363.175 43.8893 365.53Z" fill="#FFECE0"/>
<path d="M422.879 59.3684C421.454 60.7531 419.647 61.6167 418.343 62.9662C407.401 74.2849 396.068 85.134 382.438 93.8114C382.837 89.0418 383.57 84.1831 384.907 78.9598C395.412 69.2962 405.314 59.9972 415.216 50.6981C417.72 53.4896 420.224 56.281 422.879 59.3684Z" fill="#FFEBDC"/>
<path d="M415.114 50.3649C405.314 59.9972 395.412 69.2962 385.165 78.6891C386.118 71.3633 387.417 63.9436 389.195 56.0495C395.152 50.1393 400.629 44.7034 406.106 39.2676C409.075 42.8556 412.044 46.4436 415.114 50.3649Z" fill="#FFC37B"/>
<path d="M488.821 140.459C486.458 144.434 483.907 148.164 480.927 152.325C480.334 153.096 480.169 153.435 480.005 153.775C480.005 153.775 479.997 153.747 479.728 153.884C479.3 154.602 479.142 155.182 478.984 155.762C478.984 155.762 479.002 155.753 478.729 155.781C478.303 156.13 478.15 156.45 477.996 156.77C477.996 156.77 477.995 156.746 477.739 156.795C477.323 157.154 477.163 157.464 477.004 157.774C477.004 157.774 476.997 157.748 476.755 157.817C476.343 158.184 476.174 158.481 476.004 158.778C476.004 158.778 475.996 158.747 475.732 158.89C475.305 159.607 475.142 160.181 474.98 160.755C474.98 160.755 475.004 160.754 474.724 160.776C474.289 161.116 474.135 161.436 473.981 161.755C473.981 161.755 474.002 161.753 473.727 161.78C473.295 162.125 473.139 162.443 472.983 162.761C472.983 162.761 473 162.751 472.731 162.785C472.303 163.134 472.145 163.448 471.986 163.762C471.986 163.762 471.999 163.749 471.73 163.784C471.303 164.133 471.145 164.448 470.986 164.762C470.986 164.762 470.999 164.749 470.73 164.784C470.303 165.133 470.144 165.447 469.986 165.762C469.986 165.762 469.999 165.75 469.73 165.784C469.302 166.133 469.143 166.447 468.985 166.761C468.985 166.761 469 166.751 468.73 166.783C468.3 167.129 468.142 167.442 467.983 167.755C467.983 167.755 468.001 167.752 467.725 167.779C467.292 168.119 467.135 168.434 466.978 168.748C466.978 168.748 467.002 168.754 466.722 168.777C466.286 169.115 466.131 169.431 465.975 169.746C465.975 169.746 466.003 169.754 465.687 169.69C464.911 170.008 464.452 170.39 463.993 170.772C463.993 170.772 463.996 170.745 463.68 170.77C462.902 171.446 462.44 172.098 461.978 172.749C461.978 172.749 462.003 172.755 461.725 172.781C461.289 173.12 461.131 173.431 460.973 173.743C460.973 173.743 461.003 173.754 460.652 173.674C459.198 174.321 458.096 175.047 456.994 175.774C456.994 175.774 456.996 175.745 456.682 175.756C455.576 176.434 454.783 177.101 453.991 177.768C453.991 177.768 453.996 177.745 453.695 177.727C452.927 178.064 452.46 178.419 451.994 178.774C451.994 178.774 451.995 178.745 451.734 178.79C451.308 179.139 451.142 179.444 450.977 179.748C450.977 179.748 451.003 179.756 450.661 179.685C449.543 180.001 448.769 180.388 447.995 180.775C447.995 180.775 447.997 180.746 447.697 180.737C446.929 181.076 446.461 181.424 445.992 181.772C445.992 181.772 445.996 181.745 445.641 181.719C444.019 182.38 442.753 183.067 441.487 183.753C441.487 183.753 441.504 183.751 441.11 183.705C439.807 184.029 438.898 184.401 437.989 184.772C437.989 184.772 437.996 184.743 437.597 184.717C431.8 185.667 426.402 186.643 421.004 187.62C433.873 179.739 447.226 172.532 459.458 163.763C469.115 156.841 477.394 147.999 486.579 139.873C487.459 139.895 488.046 140.055 488.821 140.459Z" fill="#FEE9DD"/>
<path d="M354.421 135.557C350.028 131.616 347.542 127.322 350.04 121.207C355.882 113.627 363.599 113.041 368.457 119.427C371.549 123.493 371.619 128.17 368.649 132.309C365.786 136.299 361.027 137.447 354.421 135.557Z" fill="#FFC37C"/>
<path d="M208.369 360.124C213.598 350.852 221.107 349.991 228.366 357.632C230.512 365.72 228.581 370.904 222.899 373.195C214.84 376.443 207.567 370.156 208.369 360.124Z" fill="#7A46D5"/>
<path d="M406.025 38.9637C400.629 44.7035 395.152 50.1394 389.359 55.6934C389.843 50.2783 390.642 44.7449 392.022 38.803C394.818 35.8255 397.033 33.2565 399.248 30.6875C401.48 33.3449 403.712 36.0024 406.025 38.9637Z" fill="#FFEBDB"/>
<path d="M157.646 225.704C165.662 230.831 173.243 236.084 178.419 244.126C170.739 238.509 163.058 232.892 155.171 227.003C155.747 226.394 156.528 226.057 157.646 225.704Z" fill="#F0ADFC"/>
<path d="M138.628 233.576C145.91 238.434 151.452 244.613 155.273 252.423C149.08 246.615 142.887 240.806 136.398 234.852C136.835 234.347 137.569 233.986 138.628 233.576Z" fill="#F0AFFB"/>
<path d="M180.633 215.812C187.427 220.523 193.909 225.258 200.392 229.992C199.999 230.531 199.607 231.07 199.214 231.609C192.381 227.012 185.547 222.414 178.367 217.762C178.787 217.084 179.554 216.46 180.633 215.812Z" fill="#F0AEFB"/>
<path d="M202.656 204.865C209.342 208.286 215.712 211.709 222.082 215.133C221.754 215.777 221.427 216.422 221.1 217.066C214.278 213.713 207.456 210.361 200.312 206.868C200.773 206.108 201.557 205.488 202.656 204.865Z" fill="#F0AFFB"/>
<path d="M227.695 179.779C234.947 180.574 241.936 181.508 248.925 182.442C248.832 183.207 248.739 183.971 248.646 184.735C241.347 183.848 234.048 182.96 226.375 181.914C226.478 181.143 226.955 180.531 227.695 179.779Z" fill="#F0B0FA"/>
<path d="M121.696 240.765C125.946 245.202 129.953 249.609 133.789 254.159C134.862 255.431 135.429 257.128 135.287 259.243C130.258 253.602 125.229 247.961 120.029 242.021C120.369 241.411 120.878 241.1 121.696 240.765Z" fill="#F0ADFC"/>
<path d="M218.64 191.74C224.953 193.739 230.953 195.809 236.952 197.878C236.727 198.56 236.502 199.242 236.278 199.924C230.047 197.955 223.816 195.985 217.231 193.876C217.36 193.094 217.843 192.452 218.64 191.74Z" fill="#F0AEFB"/>
<path d="M237.686 160.898C244.539 160.752 251.121 160.752 257.703 160.752C257.769 161.199 257.835 161.645 257.901 162.091C251.313 165.284 243.974 163.255 236.531 163.667C236.519 162.769 236.967 161.906 237.686 160.898Z" fill="#F0ADFC"/>
<path d="M399.133 30.3608C397.033 33.2565 394.818 35.8255 392.324 38.5651C392.631 34.2539 393.218 29.772 393.975 23.9929C396.2 26.6576 397.609 28.3459 399.133 30.3608Z" fill="#FFC581"/>
<path d="M245.706 137.85C251.419 136.722 256.882 135.792 262.345 134.862C262.459 135.359 262.573 135.856 262.688 136.354C257.526 139.156 251.757 139.721 245.413 139.845C245.127 139.259 245.292 138.653 245.706 137.85Z" fill="#F0AEFB"/>
<path d="M250.717 115.912C255.415 114.881 259.865 114.067 264.316 113.253C260.851 117.759 255.44 117.157 250.432 118.641C250.183 117.822 250.326 116.975 250.717 115.912Z" fill="#F0AFFB"/>
<path d="M98.7238 365.33C94.9166 365.659 90.9637 365.672 86.5571 365.654C86.3748 364.552 86.6461 363.482 86.9834 362.08C90.8923 362.836 94.7351 363.924 98.7238 365.33Z" fill="#834CD8"/>
<path d="M366.05 181.045C368.313 181.567 370.551 182.321 372.906 183.411C370.924 183.165 368.823 182.583 366.387 181.874C366.05 181.747 366.024 181.279 366.05 181.045Z" fill="#D986D0"/>
<path d="M81.9559 194.96C81.0005 192.41 79.9788 190.293 79.3242 188.069C79.0544 187.153 79.5737 186.004 79.7341 184.96C80.8539 185.341 82.6697 185.42 82.9865 186.15C86.3643 193.93 89.5554 201.793 92.6189 209.703C92.8795 210.376 91.9422 212.282 91.409 212.346C89.9148 212.525 87.8383 212.588 86.8893 211.718C83.6116 208.712 80.716 205.289 76.884 202.336C77.9657 205.817 79.2029 209.262 80.0356 212.801C80.2894 213.88 79.4298 215.221 79.0801 216.442C77.9333 215.659 76.1246 215.114 75.7443 214.055C72.714 205.619 69.9544 197.085 66.5723 186.968C69.3141 187.641 71.5732 187.572 72.8845 188.652C75.4265 190.747 77.3818 193.542 79.7331 195.894C80.0265 196.187 81.2468 195.554 81.9559 194.96ZM82.4629 199.359C82.503 198.863 82.543 198.366 82.583 197.87C82.4119 198.198 82.2409 198.526 82.4629 199.359Z" fill="#7F4ACF"/>
<path d="M234.452 76.0236C232.538 78.3249 230.833 80.3217 228.87 82.6202C221.541 75.8147 214.835 69.701 208.322 63.3891C207.544 62.6361 207.153 60.1835 207.717 59.5818C209.768 57.3935 212.1 55.2594 214.74 53.9247C215.985 53.2954 218.581 54.0052 219.857 55.0084C224.644 58.7714 229.569 62.5319 233.533 67.0843C235.121 68.9072 234.355 72.7797 234.452 76.0236ZM227.638 74.6067C232.117 71.714 229.61 69.0211 227.253 66.57C219.913 58.9372 217.149 58.012 212.839 62.0475C217.566 66.1834 222.259 70.2889 227.638 74.6067Z" fill="#7E49D0"/>
<path d="M195.353 124.334C195.981 127.13 200.519 129.402 196.085 133.414C190.708 126.71 185.356 120.227 180.251 113.555C178.757 111.603 181.76 105.458 184.826 103.505C187.996 101.485 189.866 103.784 191.493 105.845C192.809 107.513 194.395 109.531 194.51 111.474C194.785 116.104 197.536 117.939 201.235 119.546C202.261 119.992 202.655 121.893 203.338 123.127C201.86 123.523 200.398 124.025 198.894 124.263C198.329 124.352 197.668 123.83 196.464 123.292C195.426 122.972 194.975 122.946 194.523 122.92C194.8 123.392 195.076 123.863 195.353 124.334ZM186.191 109.933C186.626 112.006 187.061 114.079 187.495 116.152C188.078 115.993 188.661 115.834 189.243 115.675C190.692 112.921 191.199 110.463 186.191 109.933Z" fill="#7E49D0"/>
<path d="M166.146 151.26C164.513 152.612 163.2 153.855 161.728 155.248C163.653 157.906 165.585 160.198 167.028 162.765C167.549 163.692 166.894 165.278 166.776 166.564C165.703 166.181 164.197 166.124 163.624 165.364C158.829 159 154.138 152.553 149.608 145.999C148.994 145.111 149.443 143.49 149.4 142.208C150.572 142.689 152.039 142.88 152.852 143.711C154.443 145.337 155.669 147.32 157.341 149.547C158.948 148.01 160.212 146.8 161.756 145.323C160.132 143.016 158.429 140.985 157.22 138.694C156.705 137.72 157.223 136.2 157.272 134.929C158.347 135.326 159.811 135.405 160.434 136.17C165.149 141.965 169.697 147.897 174.303 153.782C175.957 155.894 176.763 157.823 173.074 159.092C170.873 156.447 168.669 153.799 166.146 151.26Z" fill="#804ACF"/>
<path d="M102.988 188.647C102.712 185.148 101.58 181.587 102.677 178.952C104.413 174.779 110.667 174.41 114.082 178.478C117.643 182.719 120.399 187.727 122.968 192.678C124.661 195.942 123.613 199.301 120.441 201.394C117.047 203.634 113.112 203.824 110.466 200.679C107.535 197.196 105.537 192.928 102.988 188.647ZM113.167 184.128C111.31 183.241 109.452 182.354 107.594 181.466C107.632 183.575 107.234 185.815 107.821 187.757C108.525 190.086 109.739 192.458 111.353 194.253C112.695 195.746 114.936 196.43 116.779 197.472C116.93 195.389 117.62 193.157 117.094 191.263C116.449 188.941 114.787 186.901 113.167 184.128Z" fill="#804BCE"/>
<path d="M61.2567 195.021C59.6081 195.512 58.3436 195.872 56.6272 196.361C57.0445 198.018 57.4293 199.545 57.9597 201.651C63.3792 199.318 65.6529 201.417 65.4812 206.916C64.0971 207.604 62.6479 208.323 60.7144 209.284C61.2063 211.059 61.7079 212.868 62.3118 215.047C64.2521 214.597 65.8423 213.892 67.3882 213.979C68.5736 214.045 69.7032 215.11 70.8576 215.731C70.1532 216.956 69.7382 218.719 68.6805 219.289C66.8296 220.286 64.5894 220.951 62.5018 220.979C61.1703 220.997 59.0053 219.914 58.6082 218.819C55.7246 210.867 53.087 202.818 50.6904 194.705C50.3872 193.679 51.6137 191.498 52.6997 190.921C54.5392 189.942 56.8128 189.632 58.9425 189.408C60.0247 189.295 62.0681 189.835 62.1531 190.338C62.3977 191.785 61.8671 193.363 61.2567 195.021Z" fill="#7E49D0"/>
<path d="M219.595 81.1702C220.311 81.6535 220.848 81.8395 221.122 82.2165C222.31 83.8513 223.421 85.5418 224.56 87.212C222.62 87.3823 220.679 87.5526 218.738 87.7228C218.237 87.4341 217.735 87.1453 217.234 86.8565C217.234 89.2783 217.234 91.7001 217.234 94.1219C217.234 95.8694 217.234 97.6169 217.234 100.363C207.108 89.8308 199.121 74.4302 201.284 69.8019C207.309 73.5347 213.302 77.2478 219.595 81.1702Z" fill="#7E49D0"/>
<path d="M211.947 104.849C211.422 107.32 211.214 109.541 210.286 111.403C208.826 114.333 205.991 115.031 203.681 112.872C198.506 108.036 193.1 103.202 191.537 95.7684C191.236 94.3345 190.866 92.6481 191.337 91.378C192.154 89.1716 193.162 86.3516 194.941 85.4249C196.136 84.8028 199.277 86.5383 200.718 88.0237C205.37 92.8194 211.289 96.8735 211.947 104.849ZM207.848 103.648C205.196 100.129 202.664 96.507 199.812 93.1581C199.04 92.2524 197.298 92.1736 196.001 91.7153C195.802 93.221 194.893 95.2075 195.529 96.1479C198.09 99.9321 200.801 103.74 204.1 106.857C206.493 109.119 207.871 107.182 207.848 103.648Z" fill="#7F49CF"/>
<path d="M167.136 136.587C161.428 129.51 161.571 128.881 170.168 122.521C173.22 124.215 173.584 126.254 170.83 128.578C168.093 130.887 168.825 132.733 171.56 134.581C172.76 133.622 174.007 132.624 175.233 131.644C179.424 134.077 180.069 136.73 176.013 139.983C177.117 141.535 178.135 142.965 179.407 144.753C181.249 143.03 182.883 141.503 184.505 139.986C188.663 143.701 188.28 144.746 179.861 152.069C175.698 147.005 171.529 141.936 167.136 136.587Z" fill="#7F49D0"/>
<path d="M116.338 174.296C115.913 173.109 115.459 171.402 115.697 171.3C116.762 170.841 118.201 170.387 119.176 170.77C120.972 171.474 122.537 172.767 124.949 174.289C124.562 171.491 123.976 169.456 124.101 167.465C124.202 165.835 125.15 164.259 125.723 162.659C126.269 162.73 126.814 162.801 127.36 162.872C127.851 164.71 128.556 166.521 128.797 168.391C129.705 175.435 131.83 181.94 136.102 187.747C136.862 188.78 136.348 190.75 136.422 192.287C135.028 191.576 132.897 191.219 132.361 190.098C128.949 182.973 122.859 178.703 116.338 174.296Z" fill="#7F49CF"/>
<path d="M153.76 175.065C149.699 169.159 145.853 163.551 141.795 157.632C140.39 158.35 139.157 158.98 137.564 159.795C136.656 158.408 135.792 157.09 134.714 155.445C138.156 152.447 141.36 149.656 144.811 146.651C145.952 148.097 146.845 149.228 147.899 150.565C146.905 151.971 145.995 153.26 145.008 154.656C149.032 160.443 153.086 166.107 156.905 171.926C157.54 172.893 157.149 174.533 157.232 175.862C156.147 175.695 155.062 175.528 153.76 175.065Z" fill="#7F4ACF"/>
<path d="M96.2419 206.12C98.8978 204.525 99.3831 202.988 98.0385 200.283C95.1888 194.549 92.7601 188.606 90.1587 182.748C90.4138 182.316 90.669 181.884 90.9241 181.451C92.3573 182.09 94.5363 182.341 95.1007 183.43C98.3675 189.732 101.431 196.155 104.197 202.693C105.674 206.185 103.441 208.308 100.307 209.492C97.4849 210.557 96.3091 209.154 96.2419 206.12Z" fill="#7F4ACF"/>
<path d="M187.295 421.046C176.76 431.168 161.833 431.186 152.145 421.343C142.634 411.68 142.615 395.907 152.102 386.213C161.52 376.59 177.053 376.412 186.641 385.817C197.326 396.297 197.688 410.166 187.295 421.046Z" fill="#FFEBDF"/>
<path d="M335.908 377.669C346.645 383.861 351.254 394.798 347.893 406.287C345.277 415.233 336.563 424.966 322.157 423.918C311.836 423.167 302.672 415.856 299.996 404.966C297.618 395.29 300.475 387.028 307.751 380.773C316.038 373.65 325.577 372.479 335.908 377.669Z" fill="#FFEBDF"/>
<path d="M227.551 328.242C237.899 322.956 248.39 317.6 259.204 312.999C272.288 307.431 285.494 302.064 298.938 297.461C307.105 294.664 310.015 297.303 309.991 305.994C309.972 312.94 309.392 319.885 308.974 327.232C300.919 327.677 292.95 327.646 284.983 327.777C267.582 328.064 250.181 328.443 232.78 328.754C231.134 328.783 229.485 328.594 227.551 328.242Z" fill="#FEFDFF"/>
<path d="M420.606 187.665C426.402 186.643 431.8 185.667 437.611 184.722C431.125 188.065 424.028 190.26 416.263 188.26C417.586 187.826 418.897 187.768 420.606 187.665Z" fill="#D986D0"/>
<path d="M400.386 187.838C399.068 188.422 397.264 189.621 395.573 189.48C391.857 189.17 388.198 188.182 384.242 186.946C383.972 186.234 383.974 186.046 383.977 185.859C389.302 186.521 394.627 187.183 400.386 187.838Z" fill="#DD89BF"/>
<path d="M383.639 185.798C383.974 186.046 383.972 186.234 383.949 186.704C380.424 186.099 376.92 185.212 373.203 184.027C375.356 184.058 377.723 184.387 380.478 184.719C381.678 185.061 382.49 185.4 383.639 185.798Z" fill="#D986D0"/>
<path d="M441.882 183.786C442.754 183.067 444.02 182.38 445.654 181.723C444.774 182.441 443.525 183.13 441.882 183.786Z" fill="#D986D0"/>
<path d="M457.343 175.828C458.097 175.047 459.199 174.321 460.649 173.658C459.896 174.443 458.793 175.163 457.343 175.828Z" fill="#D986D0"/>
<path d="M454.348 177.808C454.784 177.101 455.576 176.434 456.696 175.76C456.251 176.451 455.477 177.15 454.348 177.808Z" fill="#D986D0"/>
<path d="M462.311 172.735C462.44 172.098 462.902 171.446 463.693 170.772C463.563 171.407 463.104 172.064 462.311 172.735Z" fill="#D986D0"/>
<path d="M448.34 180.832C448.769 180.388 449.543 180.001 450.662 179.672C450.232 180.115 449.459 180.502 448.34 180.832Z" fill="#D986D0"/>
<path d="M438.373 184.825C438.898 184.401 439.808 184.029 441.113 183.697C440.591 184.116 439.674 184.497 438.373 184.825Z" fill="#D986D0"/>
<path d="M464.307 170.811C464.452 170.39 464.911 170.008 465.685 169.675C465.54 170.1 465.081 170.475 464.307 170.811Z" fill="#D986D0"/>
<path d="M452.315 178.815C452.46 178.419 452.927 178.064 453.706 177.728C453.558 178.117 453.098 178.487 452.315 178.815Z" fill="#D986D0"/>
<path d="M446.315 181.811C446.461 181.424 446.929 181.076 447.711 180.743C447.562 181.122 447.1 181.486 446.315 181.811Z" fill="#D986D0"/>
<path d="M479.274 155.635C479.142 155.182 479.3 154.602 479.742 153.886C479.872 154.337 479.718 154.923 479.274 155.635Z" fill="#D986D0"/>
<path d="M475.273 160.631C475.143 160.181 475.305 159.607 475.748 158.891C475.874 159.336 475.72 159.922 475.273 160.631Z" fill="#D986D0"/>
<path d="M474.249 161.703C474.135 161.436 474.289 161.116 474.722 160.764C474.839 161.037 474.678 161.344 474.249 161.703Z" fill="#D986D0"/>
<path d="M451.255 179.711C451.142 179.444 451.308 179.139 451.748 178.792C451.86 179.058 451.697 179.366 451.255 179.711Z" fill="#D986D0"/>
<path d="M480.312 153.695C480.17 153.435 480.334 153.095 480.743 152.597C480.864 152.83 480.741 153.222 480.312 153.695Z" fill="#D986D0"/>
<path d="M478.268 156.725C478.15 156.45 478.303 156.129 478.732 155.771C478.852 156.048 478.696 156.364 478.268 156.725Z" fill="#D986D0"/>
<path d="M477.28 157.739C477.163 157.464 477.323 157.153 477.751 156.795C477.865 157.066 477.711 157.385 477.28 157.739Z" fill="#D986D0"/>
<path d="M476.284 158.749C476.173 158.481 476.343 158.184 476.768 157.82C476.87 158.075 476.717 158.398 476.284 158.749Z" fill="#D986D0"/>
<path d="M473.253 162.712C473.14 162.443 473.296 162.125 473.728 161.77C473.844 162.042 473.683 162.352 473.253 162.712Z" fill="#D986D0"/>
<path d="M472.258 163.717C472.144 163.448 472.303 163.134 472.736 162.777C472.85 163.047 472.691 163.359 472.258 163.717Z" fill="#D986D0"/>
<path d="M471.26 164.719C471.145 164.448 471.303 164.133 471.736 163.778C471.852 164.05 471.693 164.362 471.26 164.719Z" fill="#D986D0"/>
<path d="M470.259 165.718C470.144 165.447 470.303 165.133 470.736 164.778C470.852 165.05 470.692 165.362 470.259 165.718Z" fill="#D986D0"/>
<path d="M469.258 166.717C469.143 166.447 469.302 166.133 469.736 165.778C469.851 166.049 469.691 166.361 469.258 166.717Z" fill="#D986D0"/>
<path d="M468.255 167.712C468.141 167.442 468.3 167.129 468.735 166.776C468.85 167.046 468.689 167.357 468.255 167.712Z" fill="#D986D0"/>
<path d="M467.248 168.701C467.135 168.434 467.292 168.119 467.727 167.769C467.843 168.04 467.68 168.347 467.248 168.701Z" fill="#D986D0"/>
<path d="M466.233 169.68C466.131 169.431 466.287 169.115 466.721 168.764C466.829 169.024 466.66 169.319 466.233 169.68Z" fill="#D986D0"/>
<path d="M461.232 173.678C461.131 173.431 461.289 173.12 461.725 172.768C461.832 173.023 461.661 173.318 461.232 173.678Z" fill="#D986D0"/>
<path d="M97.2433 399.434C100.527 402.524 97.851 403.862 95.7659 404.158C93.6795 404.455 91.4031 403.413 89.21 402.958C89.747 402.084 90.1069 400.693 90.8557 400.436C92.7805 399.776 94.8777 399.619 97.2433 399.434Z" fill="#FEE7E1"/>
<path d="M82.2667 199.106C82.2412 198.526 82.4122 198.198 82.5833 197.87C82.5433 198.366 82.5033 198.863 82.2667 199.106Z" fill="#FEC17B"/>
<path d="M227.294 74.5005C222.259 70.2889 217.566 66.1833 212.839 62.0474C217.149 58.0119 219.912 58.9372 227.253 66.57C229.61 69.0211 232.117 71.714 227.294 74.5005Z" fill="#F8BB7E"/>
<path d="M186.539 109.724C191.199 110.463 190.692 112.921 189.243 115.675C188.661 115.834 188.078 115.993 187.495 116.152C187.061 114.079 186.626 112.006 186.539 109.724Z" fill="#F8BB7E"/>
<path d="M195.604 124.115C195.077 123.863 194.8 123.392 194.523 122.92C194.975 122.946 195.427 122.972 196.093 123.202C196.156 123.57 196.006 123.733 195.604 124.115Z" fill="#FEC17B"/>
<path d="M113.366 184.434C114.787 186.901 116.449 188.941 117.094 191.263C117.62 193.157 116.93 195.389 116.779 197.472C114.936 196.43 112.695 195.745 111.353 194.253C109.739 192.458 108.525 190.086 107.821 187.757C107.234 185.815 107.633 183.575 107.595 181.466C109.452 182.354 111.31 183.241 113.366 184.434Z" fill="#FABD7D"/>
<path d="M207.895 104.028C207.87 107.183 206.493 109.119 204.099 106.857C200.8 103.74 198.089 99.9321 195.529 96.1479C194.892 95.2075 195.802 93.221 196.001 91.7153C197.298 92.1737 199.04 92.2525 199.811 93.1582C202.664 96.5071 205.195 100.129 207.895 104.028Z" fill="#F9BC7D"/>
</svg>
