<svg width="430" height="346" viewBox="0 0 430 346" fill="none" xmlns="http://www.w3.org/2000/svg">
<path d="M194.683 210.929C212.98 203.546 232.003 199.028 251.566 196.798C267.488 194.982 283.418 193.178 299.385 191.849C312.201 190.783 325.109 189.513 337.918 189.97C362.663 190.854 387.392 192.753 410.314 203.689C410.886 203.961 411.614 203.908 412.484 204.756C412.294 209.308 412.004 213.127 411.467 216.911C409.622 229.918 401.439 234.631 389.374 229.735C386.599 228.609 383.853 227.363 380.994 226.505C371.266 223.587 365.787 227.632 365.683 237.8C365.639 242.121 365.571 246.778 360.786 248.254C355.896 249.763 353.472 245.43 350.92 242.184C350.205 241.275 349.8 240.123 349.087 239.212C348.17 238.039 347.205 236.231 346.049 236.051C343.359 235.633 339.692 234.957 337.965 236.329C334.995 238.688 337.626 241.48 339.782 243.323C341.66 244.928 344.232 245.771 345.955 247.493C347.446 248.983 349.233 251.412 348.951 253.102C348.657 254.867 346.278 256.719 344.377 257.65C342.769 258.437 340.484 258.312 338.599 257.993C321.169 255.048 303.756 254.648 286.69 259.676C276.995 262.533 267.729 266.826 258.104 269.963C255.864 270.693 251.793 270.226 250.649 268.723C249.368 267.043 249.799 263.301 250.714 260.932C251.525 258.834 253.86 257.17 255.818 255.712C257.94 254.132 260.459 253.098 262.707 251.673C269.707 247.236 271.047 239.651 264.951 234.066C261.913 231.283 257.12 229.007 253.108 228.986C244.191 228.94 235.281 230.918 226.34 231.216C216.755 231.536 206.939 231.989 197.593 230.32C188.827 228.756 187.137 221.125 192.571 213.964C193.049 213.335 193.232 212.482 193.552 211.733C193.552 211.733 193.577 211.775 193.803 211.721C194.317 211.484 194.535 211.238 194.683 210.929ZM324.303 235.849C324.384 235.818 324.466 235.787 324.79 235.652C324.727 235.704 324.665 235.756 324.303 235.849ZM281.277 207.82C291.613 202.225 302.682 203.32 313.868 204.082C310.5 202.677 307.081 201.469 303.585 201.177C293.529 200.337 283.893 201.694 276.096 208.873C272.557 212.132 271.806 216.287 273.787 220.836C273.246 215.039 275.597 210.891 281.277 207.82ZM253.018 216.676C254.689 218.255 256.16 220.197 258.108 221.273C259.219 221.886 261.655 221.617 262.488 220.764C263.223 220.01 263.171 217.338 262.397 216.494C260.681 214.623 258.411 213.14 256.128 211.961C255.052 211.405 253.426 211.916 252.048 211.944C252.224 213.324 252.4 214.704 253.018 216.676ZM317.772 241.621C319.376 240.419 320.98 239.217 322.584 238.015C322.376 237.579 322.167 237.142 321.958 236.706C312.995 242.423 303.145 243.824 292.861 243.204C301.252 247.265 309.255 245.827 317.772 241.621ZM352.401 217.678C353 208.014 348.131 201.708 338.737 201.116C349.15 205.757 352.321 213.098 349.904 223.476C350.66 221.803 351.417 220.129 352.401 217.678ZM290.08 227.78C288.12 224.687 286.16 221.593 284.201 218.499C282.379 227.8 293.529 235.523 301.44 233.902C297.872 232.052 294.243 230.171 290.08 227.78ZM257.292 205.648C257.76 206.094 258.182 206.842 258.707 206.924C259.833 207.1 261.012 206.933 262.169 206.906C261.86 205.9 261.856 204.447 261.176 203.982C259.828 203.06 258.108 202.683 256.542 202.081C256.648 203.078 256.755 204.074 257.292 205.648ZM316.358 205.48C316.508 205.38 316.657 205.28 316.807 205.18C316.594 205.198 316.38 205.217 316.358 205.48Z" fill="#28B5F3"/>
<path d="M193.182 211.728C193.232 212.482 193.049 213.335 192.571 213.964C187.137 221.125 188.827 228.756 197.593 230.32C206.94 231.989 216.756 231.536 226.34 231.216C235.281 230.918 244.191 228.94 253.108 228.986C257.12 229.007 261.913 231.283 264.951 234.066C271.047 239.651 269.707 247.236 262.707 251.673C260.459 253.098 257.94 254.132 255.819 255.712C253.861 257.17 251.525 258.834 250.714 260.932C249.799 263.301 249.368 267.043 250.649 268.723C251.794 270.226 255.864 270.693 258.105 269.963C267.73 266.826 276.995 262.533 286.69 259.676C303.756 254.648 321.169 255.048 338.599 257.993C340.484 258.312 342.769 258.437 344.377 257.65C346.278 256.719 348.657 254.867 348.951 253.102C349.233 251.412 347.446 248.983 345.955 247.493C344.232 245.771 341.66 244.928 339.782 243.323C337.626 241.48 334.995 238.689 337.965 236.329C339.692 234.957 343.359 235.633 346.05 236.051C347.205 236.231 348.17 238.039 349.088 239.212C349.8 240.123 350.205 241.275 350.92 242.184C353.472 245.43 355.896 249.763 360.787 248.254C365.571 246.778 365.639 242.121 365.683 237.8C365.787 227.632 371.266 223.587 380.994 226.505C383.853 227.363 386.6 228.609 389.374 229.735C401.439 234.631 409.622 229.918 411.467 216.911C412.004 213.127 412.294 209.308 412.701 205.058C424.474 209.89 430.104 215.707 429.292 226.37C429.038 227.017 428.916 227.141 428.936 227.235C428.985 227.467 429.1 227.686 429.189 227.91C428.945 228.616 428.702 229.323 428.028 230.42C417.57 242.42 405.226 247.918 389.842 244.585C386.713 243.906 383.922 241.773 380.863 240.603C379.845 240.214 378.477 240.74 377.269 240.847C377.406 241.836 377.542 242.824 377.679 243.813C379.534 247.546 381.389 251.279 383.152 255.532C383.116 256.668 383.171 257.283 383.226 257.899C382.969 258.603 382.712 259.307 381.995 260.362C377.39 262.761 373.4 265.253 369.069 266.777C356.31 271.266 343.039 269.078 330.076 268.453C314.542 267.703 299.346 269.348 284.077 271.418C272.113 273.04 260.13 275.173 248.111 275.526C238.816 275.799 229.492 273.573 223.694 264.715C223.333 256.074 226.556 252.932 235.044 252.667C239.57 252.525 244.066 251.377 249.314 250.57C250.74 249.822 251.425 249.186 252.111 248.551C251.231 247.967 250.395 246.965 249.464 246.869C244.688 246.374 239.873 245.688 235.099 245.851C222.359 246.286 209.638 247.52 196.901 247.669C186.768 247.786 178.082 244.084 172.772 234.683C170.769 224.454 177.95 220.032 184.971 215.625C187.431 214.081 190.189 213.01 193.182 211.728Z" fill="#0A5FA5"/>
<path d="M348.663 49.5137C349.421 49.912 350.18 50.3103 351.318 50.9399C352.682 52.0354 353.666 52.8994 354.614 53.768C354.579 53.7725 354.571 53.7017 354.664 54.0517C355.384 54.5288 356.011 54.6558 356.6 54.7869C356.564 54.7909 356.552 54.718 356.472 55.0688C356.808 55.5428 357.224 55.6659 357.603 55.7888C357.564 55.7886 357.562 55.7122 357.5 56.0524C357.841 56.5216 358.242 56.6507 358.609 56.7791C358.574 56.7785 358.577 56.7094 358.504 57.0572C362.167 61.533 365.902 65.6611 369.603 69.7843C369.568 69.7796 369.576 69.7099 369.452 70.0212C369.868 71.0825 370.408 71.8327 371.218 72.8628C373.112 76.3512 374.735 79.5596 376.358 82.768C379.399 90.1523 383.444 96.3127 393.106 96.645C393.558 99.1197 393.608 101.108 393.59 103.095C393.526 109.989 388.456 113.714 381.905 111.246C378.888 110.109 376 108.223 373.537 106.114C368.583 101.872 363.572 97.7684 356.893 96.9383C351.338 96.2478 345.67 96.4281 340.128 95.6704C336.837 95.2203 333.691 93.7011 330.54 92.2812C329.545 90.7283 328.708 89.0241 327.394 88.4873C323.717 86.9847 319.952 85.5238 319.716 80.9737C319.479 76.3951 323.227 74.555 326.662 72.7396C326.956 72.5842 327.266 72.4595 327.559 72.3028C331.545 70.1727 331.488 69.2508 328.079 66.5153C326.603 65.3307 325.858 63.2355 324.78 61.5539C326.518 60.6436 328.271 59.7585 329.989 58.8127C330.903 58.3101 331.758 57.7021 332.64 57.1417C331.902 56.2053 331.055 54.4051 330.446 54.482C327.788 54.8174 324.24 54.8981 322.83 56.5865C321.115 58.6395 320.914 62.1895 320.678 65.1415C320.569 66.4922 321.94 67.9616 322.205 68.4971C319.605 72.0153 317.47 74.9025 315.054 77.5654C308.871 66.0286 313.445 49.8918 325.291 41.7096C327.672 41.8046 329.641 41.8806 331.747 42.2649C337.477 44.8867 343.07 47.2002 348.663 49.5137ZM346.226 76.3788C344.58 80.6506 345.896 84.1199 349.325 86.8101C350.078 87.4014 351.69 87.7008 352.423 87.2843C353.11 86.8941 353.588 85.2937 353.41 84.3704C352.673 80.5504 351.202 77.1418 346.226 76.3788Z" fill="#F52F43"/>
<path d="M36.5615 202.579C39.4111 195.278 41.5705 187.607 45.2382 180.742C56.7981 159.106 67.0785 136.741 81.7569 116.84C89.4711 106.381 96.33 95.2913 103.607 84.5081C104.246 83.5619 105.123 82.7764 106.223 82.1779C103.721 88.5665 100.718 94.6229 98.0832 100.835C92.9031 113.047 88.7193 125.563 87.6129 138.909C83.0248 148.656 78.2312 158.312 73.9024 168.172C68.9222 179.516 64.3586 191.043 59.5986 202.484C58.9858 203.957 58.2803 205.391 57.2486 207.253C54.7739 207.074 52.6685 206.485 50.1912 205.753C45.4001 204.6 40.9808 203.59 36.5615 202.579Z" fill="#A6C0DC"/>
<path d="M324.879 41.6907C313.446 49.8918 308.871 66.0286 315.037 77.9208C314.402 87.2589 321.527 93.9072 330.48 92.6626C333.691 93.7011 336.837 95.2204 340.129 95.6704C345.671 96.4282 351.338 96.2479 356.893 96.9384C363.572 97.7685 368.583 101.872 373.537 106.114C376 108.223 378.888 110.109 381.905 111.246C388.456 113.714 393.527 109.989 393.59 103.095C393.608 101.108 393.559 99.1197 393.526 96.708C397.101 96.5287 400.689 96.7735 404.553 97.6688C403.363 100.223 401.644 101.988 400.498 104.068C399.255 106.326 397.569 108.988 397.83 111.274C398.231 114.802 398.02 116.713 394.043 117.036C393.157 117.108 391.581 118.473 391.659 119.068C392.292 123.897 389.725 126.972 386.357 129.717C383.056 121.534 377.845 115.198 369.28 112.136C368.676 111.921 367.997 111.914 366.553 111.847C361.306 111.127 356.857 110.369 352.409 109.612C345.632 108.684 338.845 107.829 332.086 106.789C329.751 106.43 327.486 105.608 324.436 104.937C321.326 103.808 318.97 102.738 316.492 101.352C312.005 98.1415 307.667 95.2061 303.25 92.3952C302.526 91.935 301.455 92.0228 300.531 91.8468C300.517 91.8361 300.495 91.8105 300.833 91.6131C300.268 90.6375 299.363 89.8592 298.459 89.0809C295.568 85.5602 292.678 82.0394 289.993 78.145C299.748 71.866 303.102 62.1792 305.429 52.0765C306.203 48.717 305.592 45.0388 305.615 41.5063C308.298 40.9498 310.982 40.3933 314.181 39.9137C318.09 40.5573 321.484 41.124 324.879 41.6907Z" fill="#DF222F"/>
<path d="M87.9399 138.749C88.7193 125.563 92.9032 113.047 98.0833 100.835C100.718 94.6229 103.721 88.5664 106.55 82.0598C110.521 76.2441 114.436 70.7598 118.498 65.3863C122.182 60.5122 126.026 55.7589 130.367 50.7354C131.134 50.2437 131.334 49.9688 131.535 49.6939C131.535 49.6939 131.563 49.762 131.767 49.6436C132.162 49.2435 132.352 48.9618 132.543 48.68C133.011 48.0967 133.479 47.5135 134.587 46.8511C136.383 46.2228 137.658 45.8388 138.675 45.0991C148.94 37.6321 159.145 30.0813 169.432 22.6458C170.266 22.0433 171.59 22.1192 172.686 21.8799C167.345 26.9835 161.816 31.9057 156.698 37.2238C139.647 54.9407 125.291 74.743 112.677 95.7795C104.232 109.864 96.3828 124.307 87.9399 138.749Z" fill="#CFDCEE"/>
<path d="M84.6239 209.761C92.3818 212.775 96.946 218.613 99.6296 226.563C97.3731 226.668 95.4125 226.759 92.862 226.498C87.6862 222.179 82.8009 221.568 77.312 224.891C76.8684 225.229 76.6824 225.508 76.5375 225.783C76.5786 225.778 76.5697 225.696 76.2302 225.756C74.5343 227.252 72.9291 228.526 71.8685 230.155C68.7282 234.976 69.3018 240.864 73.0552 244.825C76.5967 248.562 82.3819 249.566 87.1988 246.658C89.6579 245.174 91.4981 242.664 93.9472 240.676C95.075 241.454 95.8738 242.173 96.5237 243.199C91.3416 252.452 82.4696 257.669 74.1366 256.584C64.3666 255.313 56.7748 248.821 54.5472 239.833C52.2749 230.665 56.5035 218.351 63.696 213.159C70.1073 208.531 77.2128 208.213 84.6239 209.761ZM72.4231 219.168C71.7187 215.388 69.2219 215.525 67.017 217.292C65.8339 218.241 65.6969 220.494 65.0879 222.159C67.1186 221.954 69.1658 221.839 71.1673 221.474C71.615 221.393 71.9023 220.432 72.4231 219.168Z" fill="#27B3F1"/>
<path d="M33.4037 335.74C33.4037 339.052 33.4037 342.365 33.4037 345.971C27.2467 345.187 21.2552 344.755 15.4088 343.593C8.58696 342.237 1.68753 340.134 0.27404 331.96C-1.1535 323.705 3.13482 317.6 9.91205 313.809C14.3969 311.3 19.7184 310.209 24.7534 308.797C27.1858 308.114 29.8211 308.155 32.3645 307.869C32.3155 307.405 32.2665 306.941 32.2176 306.478C27.8108 306.841 23.3975 307.14 18.9988 307.583C11.4391 308.346 6.35189 303.195 7.1957 295.541C8.04414 287.845 15.1594 280.707 23.4684 279.543C27.5276 278.975 31.6535 278.883 35.7471 277.645C31.7927 277.645 27.8368 277.576 23.8842 277.661C17.658 277.794 14.7779 275.118 14.5893 268.872C14.3169 259.851 22.1987 250.849 31.7443 249.817C36.1617 249.339 40.6735 249.735 45.4885 249.735C45.1811 251.834 44.8807 253.885 44.2475 256.089C38.1948 251.59 24.0942 253.325 19.9223 259.197C15.4001 265.561 17.1894 271.806 24.7721 273.842C29.7971 275.19 35.1915 275.163 40.4206 275.751C40.1328 277.839 39.8451 279.926 39.0642 282.397C32.0616 283.012 25.4747 282.714 19.0682 283.65C14.33 284.342 10.2515 289.773 10.6661 293.494C11.2309 298.563 14.592 301.663 19.3407 302.421C24.9614 303.318 30.721 303.344 36.4204 303.748C36.0682 306.949 35.7159 310.149 34.5932 313.565C26.5431 312.297 19.3003 311.836 12.6138 315.814C8.92172 318.011 6.05379 321.051 6.64029 325.876C7.21542 330.607 10.7933 332.766 14.7632 333.515C20.898 334.673 27.1826 335.038 33.4037 335.74Z" fill="#DC202D"/>
<path d="M84.4465 209.445C77.2129 208.213 70.1074 208.531 63.6962 213.159C56.5036 218.351 52.275 230.665 54.5473 239.833C56.7749 248.821 64.3667 255.313 74.1367 256.584C82.4697 257.669 91.3417 252.452 96.7953 243.362C97.6002 244.429 97.9847 245.64 98.3692 246.851C90.1908 260.783 79.5576 265.206 67.57 260.274C62.9436 258.37 59.3974 253.842 54.9817 250.609C54.6043 250.709 54.6497 250.765 54.8796 250.414C53.9306 246.846 52.7516 243.629 51.6447 240.018C51.7168 237.694 51.7168 235.763 51.7168 233.833C51.2905 233.769 50.8642 233.704 50.4379 233.64C49.6523 237.005 48.8667 240.37 48.0811 243.735C47.6438 243.8 47.2065 243.865 46.7692 243.931C45.936 239.504 45.1027 235.077 44.3022 230.258C45.7363 222.338 49.3145 216.106 55.2877 211.251C56.4939 210.271 57.4942 209.038 58.5895 207.921C67.3171 204.757 75.9145 204.361 84.4465 209.445Z" fill="#0A5FA5"/>
<path d="M135.615 257.94C142.754 257.224 149.879 256.273 157.036 255.854C165.2 255.377 166.418 256.62 167.564 265.614C159.96 277.993 151.497 279.814 139.879 278.515C135.62 278.039 132.496 274.637 132.752 270.174C132.987 266.055 134.605 262.015 135.615 257.94ZM146.666 266.034C145.104 266.418 143.444 266.597 142.025 267.277C141.388 267.583 140.809 268.985 140.973 269.717C141.141 270.463 142.292 271.555 142.945 271.51C144.485 271.405 146.289 271.066 147.38 270.122C147.991 269.594 147.392 267.668 146.666 266.034Z" fill="#FE8A2E"/>
<path d="M36.1803 202.664C40.9807 203.59 45.4 204.6 50.0207 206.038C48.3672 209.731 46.2421 212.878 44.7437 216.301C43.5595 219.005 43.3422 222.116 42.3501 224.925C39.9332 231.767 36.9199 233.792 29.7328 233.787C27.0684 233.785 24.404 233.764 21.7395 233.752C21.0135 223.22 25.3719 214.204 30.523 205.546C31.3928 204.085 33.9966 203.654 36.1803 202.664Z" fill="#FF9F1C"/>
<path d="M223.651 265.107C229.492 273.573 238.816 275.799 248.111 275.526C260.13 275.173 272.113 273.04 284.077 271.418C299.346 269.348 314.542 267.703 330.076 268.453C343.039 269.078 356.31 271.266 369.069 266.777C373.4 265.253 377.39 262.761 381.86 260.623C380.447 262.699 379.145 265.633 376.901 266.902C365.593 273.295 353.219 273.029 340.667 272.434C328.594 271.861 316.463 272.042 304.374 272.409C285.039 272.997 266.371 280.376 246.844 278.602C240.751 278.049 234.561 276.115 228.972 273.584C226.476 272.454 225.354 268.288 223.651 265.107Z" fill="#19355E"/>
<path d="M36.4773 303.32C30.721 303.344 24.9614 303.318 19.3407 302.421C14.592 301.663 11.2308 298.563 10.666 293.494C10.2515 289.773 14.3299 284.342 19.0682 283.65C25.4747 282.714 32.0616 283.012 38.9865 282.795C38.4461 289.503 37.4902 296.198 36.4773 303.32Z" fill="#F72F42"/>
<path d="M135.226 257.867C134.605 262.015 132.987 266.055 132.752 270.174C132.496 274.637 135.62 278.039 139.879 278.515C151.497 279.814 159.96 277.993 167.599 266.013C168.612 269.487 169.569 273.309 170.751 278.03C163.682 280.981 156.643 283.919 149.011 286.849C147.852 287.098 147.288 287.355 146.724 287.612C147.251 287.772 147.779 287.932 148.306 288.092C146.333 287.953 144.36 287.726 142.384 287.689C131.953 287.494 125.99 280.93 126.877 270.316C127.19 266.568 127.964 262.859 128.525 259.157C130.757 258.675 132.797 258.235 135.226 257.867Z" fill="#F56621"/>
<path d="M98.4528 247.271C97.9846 245.64 97.6001 244.429 96.9441 243.055C95.8738 242.173 95.075 241.454 93.7413 240.405C92.3052 240.023 91.404 239.972 90.1105 239.885C88.4496 240.137 87.0409 240.915 85.942 240.603C83.7924 239.993 81.1119 239.288 79.9362 237.682C78.2638 235.397 78.3277 232.408 81.5892 231.041C83.4167 236.401 87.6092 235.804 91.6027 235.778C99.9114 235.725 105.192 240.751 105.544 249.128C105.696 252.772 105.334 256.451 105.663 260.072C106.201 265.974 106.254 272.327 111.719 276.207C113.612 277.552 116.919 278.509 118.834 277.752C120.596 277.056 121.356 273.822 122.557 271.706C123.213 271.009 123.868 270.312 125.381 268.705C125.381 271.314 125.383 272.573 125.381 273.831C125.366 282.715 125.365 282.715 116.651 284.826C109.228 286.624 107.24 286.119 105.225 278.797C102.416 268.588 100.713 258.075 98.4528 247.271Z" fill="#A6C0DC"/>
<path d="M122.176 271.679C121.356 273.822 120.596 277.056 118.834 277.752C116.919 278.509 113.612 277.552 111.719 276.207C106.254 272.327 106.201 265.974 105.663 260.072C105.334 256.451 105.697 252.772 105.544 249.128C105.192 240.751 99.9116 235.725 91.6028 235.778C87.6093 235.804 83.4169 236.401 81.8687 230.782C83.8623 229.923 85.6388 229.69 87.6821 229.731C88.5186 229.689 89.0885 229.371 89.6935 229.116C89.7286 229.179 89.8709 229.2 89.8709 229.2C104.01 228.236 105.994 229.557 109.758 243.971C111.41 250.296 112.551 256.778 113.514 263.25C114.263 268.286 116.306 271.533 122.176 271.679Z" fill="#CDD9EB"/>
<path d="M40.5009 275.349C35.1915 275.163 29.797 275.19 24.772 273.841C17.1893 271.806 15.4001 265.561 19.9223 259.197C24.0941 253.325 38.1948 251.59 44.1682 256.494C43.1415 262.811 41.8614 268.879 40.5009 275.349Z" fill="#F72F42"/>
<path d="M282.443 65.8801C281.555 64.0708 280.512 62.3194 279.809 60.441C277.876 55.2767 279.365 51.365 284.928 48.8028C290.722 46.1338 296.813 44.1066 303.19 42.2614C306.054 49.5262 302.79 54.8848 299.305 60.2664C295.14 66.6966 289.321 67.7901 282.443 65.8801Z" fill="#CFDCEE"/>
<path d="M21.6679 234.187C24.404 233.764 27.0684 233.785 29.7328 233.787C36.9199 233.792 39.9333 231.767 42.3502 224.925C43.3423 222.116 43.5595 219.005 44.7437 216.301C46.2422 212.878 48.3673 209.731 50.3925 206.18C52.6684 206.485 54.7738 207.074 57.2441 207.625C57.7719 207.643 57.9349 207.7 58.3437 207.839C57.4942 209.038 56.4938 210.271 55.2876 211.251C49.3144 216.106 45.7363 222.338 44.101 230.604C44.4451 236.603 45.0233 241.865 45.6016 247.128C40.2372 246.306 34.8182 245.74 29.5211 244.605C21.4941 242.884 21.5301 242.716 21.6679 234.187Z" fill="#F18212"/>
<path d="M172.654 21.8662C171.59 22.1192 170.266 22.0433 169.432 22.6458C159.144 30.0813 148.94 37.6321 138.675 45.0992C137.658 45.8388 136.383 46.2228 134.857 46.7574C140.849 39.8953 146.639 32.3691 153.727 26.3796C161.787 19.5682 170.984 14.0941 179.754 8.13859C180.885 7.3706 182.422 7.20068 184.125 7.06354C183.52 8.67553 182.622 10.0268 181.594 11.2706C178.64 14.8429 175.633 18.3718 172.647 21.9177C172.647 21.9177 172.621 21.8525 172.654 21.8662Z" fill="#A9C3DF"/>
<path d="M386.551 130.016C389.725 126.972 392.292 123.897 391.659 119.068C391.581 118.473 393.157 117.108 394.043 117.036C398.02 116.713 398.231 114.802 397.83 111.274C397.569 108.988 399.255 106.326 400.498 104.068C401.644 101.988 403.363 100.223 404.855 97.9209C410.481 99.7665 411.171 101.985 406.833 105.88C403.73 108.666 403.022 111.438 404.756 115.032C406.376 118.391 404.802 120.424 401.651 120.629C397.809 120.879 397.149 123.021 397.643 125.934C398.221 129.353 398.689 132.776 394.91 134.411C390.92 136.139 389.019 132.608 386.551 130.016Z" fill="#20335B"/>
<path d="M172.711 235.075C178.082 244.084 186.768 247.786 196.901 247.669C209.638 247.52 222.359 246.286 235.099 245.851C239.873 245.688 244.688 246.374 249.464 246.869C250.394 246.965 251.231 247.967 252.111 248.551C251.425 249.186 250.739 249.822 249.721 250.539C247.647 250.338 245.895 249.753 244.168 249.818C228.786 250.403 213.411 251.53 198.03 251.602C189.498 251.642 181.223 249.189 175.487 242.033C174.049 240.239 173.57 237.677 172.711 235.075Z" fill="#19355E"/>
<path d="M378.697 173.975C378.235 175.174 377.959 176.495 377.275 177.551C375.347 180.529 372.061 182.119 369.288 180.299C367.316 179.004 365.551 175.279 365.889 172.959C367.14 164.36 368.884 155.913 365.93 147.31C365.634 146.446 366.487 144.343 367.163 144.165C368.593 143.788 370.465 143.901 371.764 144.573C372.922 145.172 373.552 146.792 374.212 148.489C369.903 158.401 373.575 166.324 378.697 173.975Z" fill="#0A5FA5"/>
<path d="M363.573 43.9405C369.479 43.8818 376.063 49.5076 376.497 55.533C376.95 61.8181 375.805 68.1997 379.378 74.145C380.227 75.5567 378.741 78.3712 377.959 80.309C376.938 77.7012 376.725 75.077 375.55 72.9958C372.302 67.2412 368.689 61.6906 365.15 56.1036C362.72 52.2678 361.493 48.3334 363.573 43.9405Z" fill="#FFCA27"/>
<path d="M351.986 109.652C356.857 110.369 361.306 111.127 366.175 111.894C367.216 112.674 367.837 113.445 367.987 114.512C360.788 114.453 354.061 113.927 347.33 113.873C345.781 113.86 342.921 115.483 342.933 116.322C342.958 118.112 344.035 120.813 345.456 121.474C348.961 123.106 352.903 123.797 356.669 124.866C349.847 129.059 339.014 125.592 334.583 117.647C333.043 114.886 331.919 111.892 330.115 107.926C337.74 111.503 344.62 111.369 351.986 109.652Z" fill="#FF9F1C"/>
<path d="M356.991 124.714C352.903 123.797 348.96 123.106 345.456 121.474C344.035 120.813 342.958 118.112 342.933 116.322C342.921 115.483 345.781 113.86 347.33 113.873C354.061 113.927 360.788 114.453 367.959 114.815C368.739 121.813 368.175 122.228 361.658 121.963C360.247 121.906 358.763 123.648 356.991 124.714Z" fill="#FFCA27"/>
<path d="M265.643 134.737C271.752 140.994 272.409 148.602 267.214 152.907C262.526 156.792 256.171 155.59 251.066 149.852C246.455 144.67 246.323 138.319 251.106 134.219C252.384 138.266 252.819 142.254 254.339 145.772C255.654 148.816 259.177 149.954 261.98 148.318C264.051 147.109 265.815 144.399 266.464 142.016C267.06 139.827 265.983 137.182 265.643 134.737Z" fill="#19355E"/>
<path d="M282.492 66.2429C289.321 67.7901 295.14 66.6966 299.305 60.2664C302.79 54.8848 306.054 49.5262 303.582 42.3278C304.021 41.8681 304.485 41.8045 305.282 41.6236C305.592 45.0387 306.203 48.717 305.429 52.0764C303.102 62.1792 299.748 71.8659 289.847 77.8351C287.177 74.1344 284.859 70.37 282.492 66.2429Z" fill="#A6C0DC"/>
<path d="M363.158 43.8682C361.493 48.3334 362.72 52.2678 365.15 56.1036C368.689 61.6906 372.302 67.2413 375.55 72.9958C376.725 75.0771 376.938 77.7012 377.602 80.4831C377.27 81.3356 376.925 81.7826 376.469 82.4988C374.735 79.5596 373.112 76.3512 371.182 72.5709C370.442 71.236 370.009 70.473 369.576 69.71C369.576 69.71 369.568 69.7796 369.594 69.427C365.939 64.9528 362.258 60.8311 358.577 56.7094C358.577 56.7094 358.574 56.7785 358.581 56.4844C358.246 56.031 357.904 55.8716 357.562 55.7122C357.562 55.7122 357.564 55.7886 357.538 55.5156C357.192 55.0677 356.872 54.8928 356.552 54.718C356.552 54.718 356.564 54.7909 356.428 54.4776C355.718 54.0101 355.144 53.8559 354.571 53.7017C354.571 53.7017 354.579 53.7725 354.8 53.4375C354.134 52.0096 353.246 50.9167 352.358 49.8238C354.293 45.1837 357.694 43.0709 363.158 43.8682Z" fill="#FF9F1C"/>
<path d="M87.4152 229.456C85.6387 229.69 83.8622 229.923 81.8064 230.416C78.3277 232.408 78.2638 235.397 79.9362 237.682C81.1119 239.288 83.7924 239.993 85.942 240.603C87.0408 240.915 88.4496 240.137 89.956 240.178C85.5828 245.176 81.8637 246.114 78.0172 243.576C74.045 240.955 72.6658 235.414 74.7081 230.202C75.3009 228.689 75.9477 227.197 76.5697 225.696C76.5697 225.696 76.5786 225.778 76.7923 225.728C77.1938 225.396 77.3816 225.114 77.5694 224.833C82.8009 221.568 87.6862 222.179 92.4323 226.462C91.5928 227.36 90.5931 227.943 89.7321 228.863C89.8707 229.2 89.7285 229.179 89.4507 228.868C88.587 228.857 88.0011 229.157 87.4152 229.456Z" fill="#0A5FA5"/>
<path d="M173 21.8503C175.633 18.3718 178.64 14.843 181.594 11.2706C182.622 10.0269 183.521 8.67556 184.507 7.02221C193.428 1.15863 207.577 -2.05441 210.894 1.45973C197.134 6.31929 184.555 12.8392 173 21.8503Z" fill="#CFDCEE"/>
<path d="M378.061 243.799C377.542 242.824 377.406 241.836 377.269 240.847C378.477 240.74 379.845 240.214 380.863 240.603C383.922 241.773 386.713 243.906 389.842 244.585C405.226 247.918 417.57 242.42 427.889 230.679C426.956 239.169 420.069 242.684 413.403 245.546C402.736 250.127 391.771 251.246 381.319 244.279C380.579 243.786 379.412 243.935 378.061 243.799Z" fill="#19355E"/>
<path d="M319.504 31.7148C324.833 27.2333 335.176 30.4603 338.451 35.3726C340.5 38.4455 341.999 40.8349 346.512 39.0137C348.867 38.0634 350.287 40.4134 349.15 43.4384C346.696 43.3899 344.767 43.1461 342.917 42.6231C339.935 41.78 337.046 40.1284 334.045 39.9329C327.716 39.5207 322.432 37.8684 319.504 31.7148Z" fill="#FFCA27"/>
<path d="M265.631 134.733C265.983 137.182 267.06 139.827 266.464 142.016C265.815 144.399 264.051 147.109 261.98 148.318C259.177 149.954 255.654 148.816 254.339 145.772C252.819 142.254 252.384 138.266 251.414 134.032C251.35 133.581 251.501 133.195 251.762 132.878C252.245 132.352 252.438 132.12 252.601 131.864C256.77 129.8 260.547 130.271 264.362 133.933C265.049 134.489 265.304 134.64 265.607 134.708C265.607 134.708 265.619 134.729 265.631 134.733ZM256.053 136.809C253.478 139.826 254.038 142.806 256.888 144.982C258.165 145.956 260.72 146.322 262.147 145.703C263.326 145.191 264.647 142.495 264.247 141.339C263.112 138.051 261.26 134.852 256.053 136.809Z" fill="#0A5FA5"/>
<path d="M316.613 101.669C318.97 102.738 321.326 103.808 324.043 104.877C324.357 105.447 324.309 106.018 323.589 106.674C318.401 105.434 313.884 104.109 309.368 102.784C309.159 103.309 308.951 103.835 308.742 104.36C311.7 106.539 314.658 108.717 317.616 110.896C313.178 112.297 308.408 110.087 304.759 104.163C302.346 100.247 300.691 95.8651 298.932 91.4413C299.609 91.3973 300.052 91.6039 300.495 91.8104C300.495 91.8104 300.517 91.8361 300.51 92.1905C304.994 97.1379 309.886 101.025 316.613 101.669Z" fill="#FF9F1C"/>
<path d="M379.019 173.725C373.575 166.324 369.903 158.401 374.36 148.813C379.402 156.312 382.558 164.301 379.019 173.725Z" fill="#28B5F3"/>
<path d="M319.142 31.7393C322.432 37.8684 327.716 39.5208 334.045 39.9329C337.046 40.1284 339.935 41.78 342.917 42.6231C344.767 43.1461 346.696 43.39 348.995 43.7441C349.361 45.0003 349.32 46.2716 348.652 47.5058C342.553 45.6314 337.082 43.794 331.61 41.9566C329.641 41.8806 327.672 41.8046 325.291 41.7096C321.484 41.124 318.09 40.5572 314.593 40.114C314.137 36.5099 315.224 33.512 319.142 31.7393Z" fill="#FF9F1C"/>
<path d="M409.427 163.678C410.111 166.438 409.47 169.33 406.645 169.48C405.038 169.565 402.687 167.023 401.702 165.128C399.484 160.858 397.802 156.294 396.146 151.76C395.733 150.632 396.248 149.166 396.382 147.173C398.44 148.233 399.704 148.884 401.223 150.104C401.123 156.845 405.303 160.244 409.427 163.678Z" fill="#0A5FA5"/>
<path d="M45.7806 247.387C45.0233 241.865 44.4451 236.603 44.0681 230.996C45.1026 235.077 45.9359 239.504 46.7692 243.931C47.2065 243.865 47.6438 243.8 48.0811 243.735C48.8667 240.37 49.6522 237.005 50.4378 233.64C50.8641 233.704 51.2904 233.769 51.7167 233.833C51.7167 235.763 51.7167 237.694 51.5736 240.458C52.5036 244.45 53.5766 247.607 54.6497 250.765C54.6497 250.765 54.6042 250.709 54.6321 250.687C54.2051 253.78 53.0869 255.159 50.363 252.297C48.8909 250.751 47.4271 249.197 45.7806 247.387Z" fill="#20335B"/>
<path d="M308.237 152.088C309.39 153.056 310.282 153.783 311.747 154.976C309.916 157.633 308.058 160.328 306.2 163.024C305.593 162.935 304.986 162.845 304.378 162.756C303.009 158.094 301.64 153.433 300.271 148.771C300.679 148.481 301.086 148.191 301.494 147.901C303.654 149.216 305.815 150.531 308.237 152.088Z" fill="#19355E"/>
<path d="M317.975 110.837C314.658 108.717 311.7 106.539 308.742 104.36C308.951 103.835 309.159 103.309 309.368 102.784C313.885 104.109 318.401 105.434 323.315 106.783C321.919 108.131 320.126 109.454 317.975 110.837Z" fill="#FFCA27"/>
<path d="M409.483 163.277C405.303 160.244 401.123 156.845 401.541 150.277C406.063 153.105 409.817 156.76 409.483 163.277Z" fill="#27B3F1"/>
<path d="M331.747 42.2649C337.082 43.794 342.553 45.6314 348.307 47.6801C348.611 48.2516 348.632 48.6118 348.659 49.2429C343.07 47.2002 337.477 44.8867 331.747 42.2649Z" fill="#2E1309"/>
<path d="M352.17 49.8404C353.246 50.9167 354.134 52.0096 354.836 53.433C353.666 52.8994 352.682 52.0354 351.629 50.8167C351.596 50.1872 351.737 49.9855 352.17 49.8404Z" fill="#2E1309"/>
<path d="M300.833 91.6131C300.052 91.6039 299.61 91.3974 298.923 91.071C298.605 90.5386 298.53 90.1259 298.458 89.3971C299.363 89.8592 300.268 90.6375 300.833 91.6131Z" fill="#2E1309"/>
<path d="M383.344 257.547C383.171 257.283 383.116 256.668 383.252 255.886C383.449 256.211 383.455 256.703 383.344 257.547Z" fill="#19355E"/>
<path d="M265.524 134.471C265.303 134.64 265.049 134.489 264.693 134.089C264.842 134.025 265.142 134.129 265.524 134.471Z" fill="#19355E"/>
<path d="M252.347 131.9C252.438 132.12 252.245 132.352 251.833 132.683C251.792 132.516 251.942 132.226 252.347 131.9Z" fill="#19355E"/>
<path d="M429.29 227.609C429.1 227.686 428.985 227.467 428.936 227.235C428.916 227.141 429.038 227.017 429.244 226.79C429.391 226.886 429.391 227.097 429.29 227.609Z" fill="#19355E"/>
<path d="M131.278 49.7583C131.334 49.9689 131.134 50.2437 130.688 50.5982C130.635 50.3927 130.828 50.1077 131.278 49.7583Z" fill="#A9C3DF"/>
<path d="M132.28 48.751C132.352 48.9618 132.162 49.2436 131.733 49.6297C131.669 49.4301 131.843 49.1261 132.28 48.751Z" fill="#A9C3DF"/>
<path d="M194.402 210.89C194.535 211.238 194.317 211.484 193.783 211.708C193.732 211.449 193.927 211.15 194.402 210.89Z" fill="#0A5FA5"/>
<path d="M280.942 207.988C275.597 210.891 273.246 215.039 273.787 220.836C271.806 216.287 272.557 212.132 276.096 208.873C283.893 201.694 293.529 200.338 303.585 201.177C307.081 201.469 310.5 202.677 313.868 204.082C302.682 203.32 291.613 202.225 280.942 207.988Z" fill="#0F6FB4"/>
<path d="M252.797 216.38C252.4 214.704 252.224 213.324 252.049 211.944C253.426 211.916 255.052 211.405 256.128 211.961C258.411 213.14 260.681 214.623 262.397 216.494C263.171 217.338 263.224 220.01 262.488 220.764C261.655 221.617 259.22 221.887 258.108 221.273C256.16 220.197 254.689 218.255 252.797 216.38Z" fill="#0A5FA5"/>
<path d="M317.44 241.782C309.255 245.827 301.253 247.265 292.861 243.204C303.145 243.824 312.995 242.423 321.958 236.706C322.167 237.142 322.376 237.579 322.584 238.015C320.98 239.217 319.376 240.419 317.44 241.782Z" fill="#0F6FB4"/>
<path d="M352.288 218.067C351.417 220.129 350.66 221.803 349.904 223.476C352.321 213.098 349.15 205.757 338.737 201.116C348.131 201.708 353 208.014 352.288 218.067Z" fill="#0F6FB4"/>
<path d="M290.347 228.035C294.243 230.171 297.872 232.052 301.44 233.903C293.529 235.523 282.379 227.8 284.201 218.499C286.16 221.593 288.12 224.687 290.347 228.035Z" fill="#0F6FB4"/>
<path d="M257.077 205.36C256.755 204.074 256.648 203.078 256.542 202.081C258.108 202.683 259.828 203.06 261.176 203.982C261.856 204.447 261.86 205.9 262.169 206.906C261.012 206.933 259.833 207.1 258.707 206.924C258.182 206.842 257.761 206.094 257.077 205.36Z" fill="#0A5FA5"/>
<path d="M316.262 205.357C316.38 205.217 316.594 205.198 316.807 205.18C316.658 205.28 316.508 205.38 316.262 205.357Z" fill="#0F6FB4"/>
<path d="M324.548 235.756C324.466 235.787 324.384 235.818 324.44 235.814C324.578 235.779 324.548 235.756 324.548 235.756Z" fill="#0F6FB4"/>
<path d="M324.59 235.794C324.665 235.756 324.727 235.704 324.669 235.704C324.548 235.756 324.578 235.779 324.59 235.794Z" fill="#0F6FB4"/>
<path d="M330.54 92.2811C321.527 93.9072 314.402 87.2588 315.319 78.145C317.47 74.9025 319.605 72.0152 322.205 68.4971C321.94 67.9616 320.569 66.4922 320.678 65.1415C320.914 62.1895 321.115 58.6395 322.83 56.5865C324.24 54.8981 327.788 54.8173 330.446 54.482C331.055 54.4051 331.902 56.2053 332.64 57.1417C331.758 57.7021 330.903 58.3101 329.989 58.8127C328.271 59.7585 326.518 60.6435 324.78 61.5538C325.858 63.2354 326.603 65.3307 328.079 66.5153C331.488 69.2507 331.545 70.1727 327.559 72.3028C327.266 72.4595 326.956 72.5841 326.662 72.7396C323.227 74.555 319.479 76.3951 319.716 80.9737C319.953 85.5238 323.717 86.9846 327.394 88.4872C328.708 89.0241 329.545 90.7283 330.54 92.2811Z" fill="#20335B"/>
<path d="M346.559 76.213C351.202 77.1418 352.673 80.5504 353.41 84.3704C353.588 85.2938 353.11 86.8941 352.423 87.2843C351.69 87.7008 350.078 87.4014 349.325 86.8101C345.896 84.1199 344.58 80.6507 346.559 76.213Z" fill="#DF222F"/>
<path d="M358.504 57.0573C362.258 60.8311 365.939 64.9528 369.629 69.4318C365.902 65.6611 362.167 61.5331 358.504 57.0573Z" fill="#2E1309"/>
<path d="M369.452 70.0212C370.009 70.473 370.442 71.236 370.911 72.291C370.408 71.8327 369.868 71.0826 369.452 70.0212Z" fill="#2E1309"/>
<path d="M354.664 54.0517C355.144 53.8559 355.718 54.0101 356.464 54.4736C356.011 54.6559 355.384 54.5288 354.664 54.0517Z" fill="#2E1309"/>
<path d="M357.5 56.0524C357.904 55.8716 358.246 56.031 358.616 56.4851C358.242 56.6508 357.841 56.5217 357.5 56.0524Z" fill="#2E1309"/>
<path d="M356.472 55.0688C356.872 54.8928 357.192 55.0677 357.576 55.5158C357.225 55.6659 356.808 55.5428 356.472 55.0688Z" fill="#2E1309"/>
<path d="M316.492 101.352C309.886 101.025 304.995 97.1379 300.524 92.2011C301.455 92.0228 302.526 91.935 303.25 92.3951C307.667 95.2061 312.005 98.1414 316.492 101.352Z" fill="#2E1309"/>
<path d="M76.2302 225.756C75.9477 227.197 75.301 228.689 74.7081 230.202C72.6659 235.414 74.045 240.955 78.0173 243.576C81.8637 246.114 85.5829 245.176 90.3483 240.212C91.404 239.972 92.3052 240.023 93.4122 240.346C91.4981 242.664 89.658 245.174 87.1988 246.658C82.382 249.566 76.5967 248.562 73.0552 244.825C69.3018 240.864 68.7282 234.976 71.8685 230.155C72.9291 228.526 74.5343 227.252 76.2302 225.756Z" fill="black"/>
<path d="M72.3432 219.522C71.9022 220.432 71.6149 221.393 71.1673 221.474C69.1658 221.839 67.1186 221.954 65.0879 222.159C65.6969 220.494 65.8339 218.241 67.017 217.293C69.2219 215.525 71.7187 215.388 72.3432 219.522Z" fill="#0A5FA5"/>
<path d="M77.312 224.891C77.3817 225.114 77.1939 225.396 76.7512 225.733C76.6824 225.508 76.8685 225.229 77.312 224.891Z" fill="black"/>
<path d="M54.8795 250.414C53.5765 247.607 52.5035 244.45 51.5015 240.852C52.7514 243.629 53.9304 246.846 54.8795 250.414Z" fill="black"/>
<path d="M147.002 266.203C147.392 267.668 147.991 269.594 147.38 270.122C146.289 271.066 144.485 271.405 142.945 271.51C142.292 271.555 141.141 270.463 140.973 269.717C140.809 268.985 141.388 267.583 142.025 267.277C143.444 266.597 145.104 266.418 147.002 266.203Z" fill="#F56621"/>
<path d="M148.502 287.838C147.779 287.932 147.251 287.772 146.724 287.612C147.288 287.355 147.852 287.098 148.73 286.943C148.928 287.225 148.813 287.405 148.502 287.838Z" fill="black"/>
<path d="M87.6819 229.731C88.0011 229.157 88.587 228.857 89.4155 228.806C89.0883 229.371 88.5185 229.688 87.6819 229.731Z" fill="black"/>
<path d="M256.367 136.574C261.26 134.852 263.112 138.051 264.247 141.339C264.646 142.495 263.326 145.191 262.147 145.703C260.72 146.322 258.165 145.956 256.888 144.982C254.038 142.806 253.478 139.826 256.367 136.574Z" fill="#A9C3DF"/>
</svg>
