<svg width="357" height="451" viewBox="0 0 357 451" fill="none" xmlns="http://www.w3.org/2000/svg">
<path d="M293 329.524C295.231 340.605 296.929 351.828 299.831 362.731C303.254 375.59 307.733 388.166 311.706 400.88C311.992 401.797 311.888 402.836 311.994 404.185C300.793 405.6 289.67 406.94 278.567 408.425C266.649 410.019 254.749 411.75 241.977 413.353C240.132 413.274 239.142 413.172 238.17 413.266C208.785 416.12 179.402 418.993 149.992 421.4C150.634 414.152 151.28 407.365 151.977 400.583C154.411 376.925 156.879 353.271 159.303 329.611C161.947 303.802 164.557 277.99 167.467 251.951C187.617 240.716 207.489 229.725 227.331 218.679C229.002 217.748 230.472 216.455 232.036 215.331C239.045 212.162 246.066 209.02 253.061 205.819C278.52 194.17 304.77 184.678 331.822 177.514C339.765 175.411 348.017 174.473 356.52 172.93C339.317 207.456 322.403 241.403 304.851 275.424C299.209 272.446 294.297 269.229 289.168 266.407C286.266 264.811 284.394 265.836 284.459 269.611C282.41 270.314 280.634 270.89 278.596 271.604C276.696 271.951 275.057 272.162 272.986 272.371C243.257 278.745 190.035 302.367 182.442 311.326C197.276 304.197 211.559 296.475 226.509 290.389C241.696 284.206 257.54 279.636 273.334 274.588C276.066 277.985 278.56 281.154 280.96 284.401C280.866 284.479 280.676 284.633 280.312 284.593C277.79 283.846 275.634 283.138 273.477 282.43C273.174 282.851 272.871 283.272 272.568 283.692C274.887 287.302 277.206 290.912 280.073 295.375C277.479 295.153 275.642 294.782 273.841 294.91C272.426 295.01 271.055 295.728 269.25 296.193C268.17 296.254 267.495 296.226 266.844 296.34C235.01 301.953 205.538 313.6 178.354 331.059C177.83 331.396 177.598 332.188 177.23 332.768C179.573 332.715 181.207 331.795 182.806 330.818C209.77 314.345 238.683 303.077 270.275 298.324C275.157 302.29 279.525 306.393 284.382 309.799C289.245 313.207 291.225 317.472 291.07 323.284C291.015 325.346 292.317 327.443 293 329.524ZM208.597 247.529C206.226 248.737 203.852 249.94 201.485 251.156C199.119 252.372 196.735 253.557 194.404 254.838C192.3 255.994 190.259 257.261 188.19 258.48C188.46 258.933 188.73 259.387 189 259.841C230.672 239.076 271.847 217.103 317.688 206.249C310.89 206.851 304.294 208.099 297.889 209.994C266.99 219.14 238.026 232.936 208.597 247.529ZM196.663 272.581C232.431 252.663 270.354 238.163 309.856 227.629C267.321 236.558 227.395 252.083 189.99 273.988C190.186 274.499 190.383 275.011 190.58 275.523C192.396 274.67 194.213 273.817 196.663 272.581ZM261.274 260.2C276.161 255.761 291.047 251.322 305.933 246.884C305.761 246.388 305.589 245.893 305.418 245.397C263.688 255.207 223.842 270.042 186.09 290.477C210.898 280.455 235.707 270.434 261.274 260.2ZM259.579 367.415C268.077 367.415 276.575 367.415 285.073 367.415C265.986 357.588 179.503 377.829 168.383 394.355C196.519 378.744 226.472 369.346 259.579 367.415ZM268.621 318.473C273.528 317.581 278.434 316.69 283.341 315.799C266.931 311.657 181.361 340.725 174.528 352.882C204.537 336.205 235.34 325.111 268.621 318.473ZM203.066 358.028C199.386 359.57 195.672 361.037 192.034 362.674C188.244 364.38 184.507 366.209 180.784 368.059C177.456 369.713 174.179 371.468 170.879 373.178C171.199 373.815 171.52 374.452 171.84 375.089C205.009 357.087 240.436 346.01 277.543 340.004C251.903 341.739 227.56 348.597 203.066 358.028Z" fill="#A8EEE9"/>
<path d="M76.9138 406.566C65.1331 402.85 53.3484 399.146 41.5729 395.414C29.0234 391.436 16.5107 387.338 3.91983 383.497C0.373298 382.414 -1.21755 381.991 1.7031 377.854C12.3169 362.82 22.524 347.493 32.6412 332.116C36.4178 326.377 39.5263 320.197 43.0774 313.467C43.4308 311.592 43.9604 310.425 43.8133 309.351C42.2477 297.915 50.373 293.526 58.5563 289.531C58.8321 292.332 59.1582 294.666 59.0785 296.985C58.9301 301.308 60.5617 303.76 64.8307 305.534C83.1255 313.134 101.235 321.18 119.423 329.037C127.422 332.492 135.449 335.884 143.707 339.409C144.164 337.462 144.651 336.188 144.74 334.886C146.097 314.969 147.978 295.064 148.546 275.123C149.041 257.697 148.382 257.678 132.999 249.887C132.405 249.586 131.818 249.269 131.218 248.98C104.664 236.2 78.2593 223.057 49.6508 215.252C47.2265 214.59 44.7432 214.145 42.3935 213.623C46.3994 228.787 50.2177 243.24 53.7957 257.923C50.7459 259.667 47.9365 261.182 44.1809 263.207C46.8332 258.448 48.7458 255.016 50.6584 251.585C50.1755 251.012 49.6926 250.44 49.2097 249.868C46.1212 250.962 42.9215 251.822 39.9749 253.216C36.8946 254.674 34.0577 256.645 31.1145 258.393C27.9198 247.438 25.2218 236.308 21.4209 225.568C14.7299 206.662 7.36518 187.995 0 168.479C10.7388 171.211 21.8991 173.68 32.8338 176.912C54.0561 183.185 74.0215 192.547 93.6299 202.688C95.1848 203.492 96.639 204.491 98.6887 205.707C100.271 206.805 101.231 207.725 102.35 208.369C124.514 221.12 145.395 235.722 165.138 252.252C163.959 263.75 162.908 274.852 161.758 285.944C157.055 331.306 152.321 376.664 147.167 422.058C140.186 421.366 133.495 421.249 127.118 419.775C116.175 417.245 105.446 413.8 94.5907 410.872C88.7371 409.294 82.8085 407.993 76.9138 406.566ZM44.4984 359.373C41.6079 358.229 38.7174 357.086 35.8269 355.942C35.5891 356.563 35.3514 357.184 35.1136 357.805C64.1124 370.107 93.1112 382.409 122.11 394.71C122.388 394.063 122.665 393.416 122.943 392.768C97.0317 381.732 71.1207 370.696 44.4984 359.373ZM114.822 339.068C95.3896 330.692 75.9569 322.315 56.5242 313.939C56.2462 314.596 55.9681 315.252 55.69 315.909C83.809 328.04 111.928 340.172 140.047 352.304C140.332 351.656 140.618 351.008 140.904 350.36C132.445 346.693 123.987 343.026 114.822 339.068ZM45.7402 342.166C72.5908 355.059 99.4414 367.951 126.292 380.844C126.594 380.207 126.897 379.57 127.199 378.933C99.4269 365.562 71.655 352.191 43.8831 338.82C43.6405 339.242 43.3978 339.665 43.1551 340.087C43.806 340.66 44.4568 341.232 45.7402 342.166ZM60.8637 332.007C57.7726 330.657 54.6814 329.307 51.5903 327.956C51.3281 328.564 51.0659 329.171 50.8037 329.778C77.9548 342.245 105.106 354.713 132.257 367.18C132.556 366.539 132.855 365.899 133.154 365.259C109.288 354.278 85.421 343.297 60.8637 332.007Z" fill="#A8EDE9"/>
<path d="M238.037 123.498C230.476 142.206 219.233 157.86 200.877 167.344C196.094 169.815 190.863 171.416 185.038 173.493C176.702 174.208 169.1 175.772 161.648 175.241C153.315 174.647 145.117 172.153 136.86 170.486C117.863 162.053 105.066 147.516 96.0264 128.437C94.5242 122.857 93.1576 117.986 92.1321 112.961C93.3018 106.108 94.2109 99.4197 94.9426 92.7117C96.6255 77.2827 98.6183 62.0051 107.958 48.7922C109.856 46.1068 111.433 45.6671 114.436 46.5714C138.395 53.7871 162.027 52.3385 185.23 43.2739C190.606 41.1735 195.776 38.5418 201.141 36.1088C201.792 36.9687 202.312 37.5962 202.768 38.2663C210.333 49.3674 218.173 60.2953 225.35 71.6419C230.096 79.1465 234.364 87.0462 237.927 95.1719C239.944 99.7713 240.105 105.185 241.077 110.658C240.046 115.222 239.042 119.36 238.037 123.498ZM155.05 135.779C159.283 139.893 164.22 141.162 169.691 138.846C174.022 137.012 176.647 133.628 177.657 127.889C168.964 131.887 160.779 131.891 151.428 127.961C152.907 131.35 153.748 133.278 155.05 135.779ZM122.623 132.404C125.023 131.929 127.607 131.866 129.782 130.892C134.07 128.971 134.299 124.743 130.183 122.658C127.777 121.439 124.773 120.524 122.169 120.784C118.562 121.145 113.53 121.527 113.42 126.384C113.312 131.161 118.113 131.542 122.623 132.404ZM200.933 132.346C204.279 131.697 207.872 131.605 210.909 130.259C214.767 128.549 214.62 124.881 211.088 122.554C207.35 120.092 200.165 120.168 196.415 122.711C192.996 125.029 192.991 128.545 196.475 130.628C197.601 131.302 198.893 131.698 200.933 132.346ZM209.002 102.959C206.018 96.3211 201.176 93.9252 195.241 96.1509C190.004 98.1146 187.485 103.433 189.07 109.176C190.353 113.821 195.958 117.198 200.792 116.238C206.746 115.055 209.92 110.314 209.002 102.959ZM141.084 109.631C141.49 105.035 140.013 100.799 135.64 99.4969C132.371 98.5237 127.949 98.7269 124.945 100.223C120.887 102.243 119.274 106.557 120.819 111.37C122.245 115.808 126.557 119.143 130.801 119.073C135.722 118.993 139.069 116.167 141.084 109.631ZM137.467 82.748C126.955 81.0243 117.502 84.5331 113.949 91.0003C121.218 90.3235 128.886 89.8272 136.484 88.8076C140.115 88.3201 140.779 86.0223 137.467 82.748ZM214.214 88.979C214.43 88.2738 215.061 87.2623 214.801 86.9097C211.298 82.1725 199.083 77.9784 193.53 79.888C192.047 80.3981 191.097 82.4618 189.903 83.8122C191.42 84.6844 192.855 86.0808 194.47 86.3362C200.795 87.3365 207.177 87.9766 214.214 88.979Z" fill="#FFB08D"/>
<path d="M241.102 110.231C240.105 105.185 239.944 99.7712 237.927 95.1719C234.364 87.0462 230.096 79.1465 225.35 71.6419C218.173 60.2953 210.333 49.3673 202.768 38.2663C202.312 37.5962 201.792 36.9687 201.141 36.1087C195.776 38.5418 190.606 41.1734 185.23 43.2739C162.027 52.3384 138.395 53.7871 114.436 46.5714C111.433 45.667 109.856 46.1067 107.958 48.7921C98.6183 62.005 96.6255 77.2827 94.9425 92.7116C94.2109 99.4197 93.3018 106.108 91.9293 112.756C90.1409 109.624 88.7939 106.579 87.6815 103.449C86.613 100.444 85.7875 97.3515 84.8552 94.2974C84.2129 88.2771 83.9089 82.197 82.8582 76.2488C80.6457 63.7243 82.1902 51.707 86.721 39.9481C87.187 38.7384 87.4446 37.4484 87.7963 36.195C73.3433 25.648 67.4564 10.6533 73.5838 0C87.2485 13.1353 103.505 10.726 119.523 6.92933C132.117 3.94426 144.673 1.50259 157.591 2.48506C171.04 3.508 184.333 6.15418 196.315 12.4462C202.277 15.577 208.416 15.2074 214.441 16.2228C229.573 18.7731 238.462 28.24 243.855 41.5891C249.454 55.4491 248.684 69.9574 247.049 84.4527C246.9 85.7695 246.993 87.1135 246.728 89.1576C245.994 92.9184 244.899 96.0189 245.157 99.0023C245.552 103.568 243.569 106.898 241.102 110.231ZM92.9633 22.7526C92.7128 22.8147 92.4622 22.8767 92.2117 22.9388C92.3989 23.1499 92.5861 23.3611 93.0527 24.0549C93.5416 24.314 94.0304 24.5731 94.8325 25.2115C95.0924 25.4249 95.3864 25.5685 96.1187 26.1602C96.9951 26.5109 97.8715 26.8616 98.748 27.2123C98.8503 26.9829 98.9526 26.7535 99.055 26.5241C98.1478 26.0257 97.2405 25.5272 96.0266 24.6396C95.7677 24.4184 95.47 24.2814 94.7977 23.7734C94.2886 23.5416 93.7796 23.3098 92.9633 22.7526ZM95.3934 61.5605C95.9642 59.7352 96.5349 57.9099 97.1057 56.0845C96.5698 55.9596 96.034 55.8346 95.4982 55.7097C94.2249 61.2908 92.9516 66.8719 91.6783 72.4531C92.1738 72.5612 92.6693 72.6693 93.1648 72.7774C93.8363 69.3006 94.5078 65.8237 95.3934 61.5605ZM112.865 34.1884C115.193 34.8781 117.52 35.5677 119.847 36.2574C119.97 35.8271 120.093 35.3967 120.217 34.9663C117.514 34.1319 114.81 33.2975 112.107 32.4631C112.142 32.921 112.177 33.3788 112.865 34.1884ZM108.116 30.6953C107.534 30.6212 106.952 30.5471 106.371 30.4731C106.312 30.7853 106.254 31.0976 106.196 31.4099C107.347 31.6096 108.499 31.8093 109.65 32.009C109.341 31.685 109.032 31.361 108.116 30.6953ZM98.0636 51.9177C98.3398 51.8131 98.616 51.7086 98.8923 51.604C98.6264 51.5266 98.3605 51.4491 98.0636 51.9177ZM104.1 29.8807C104.337 29.8931 104.574 29.9056 104.81 29.918C104.698 29.8033 104.585 29.6886 104.1 29.8807ZM102.467 28.5796C102.342 28.682 102.217 28.7844 102.091 28.8869C102.204 29.0027 102.312 29.2038 102.431 29.2103C102.55 29.2169 102.68 29.0298 102.467 28.5796ZM100.473 27.5732C100.349 27.6756 100.225 27.778 100.101 27.8803C100.213 27.995 100.322 28.1945 100.44 28.2004C100.558 28.2064 100.687 28.0199 100.473 27.5732ZM97.7608 53.9207C97.5509 53.907 97.3411 53.8933 97.1313 53.8795C97.2286 54.0021 97.3259 54.1246 97.7608 53.9207Z" fill="#C45726"/>
<path d="M77.0928 406.892C82.8085 407.993 88.7371 409.294 94.5907 410.872C105.446 413.8 116.175 417.245 127.118 419.775C133.495 421.249 140.186 421.366 147.314 422.281C148.601 422.268 149.31 422.065 150.019 421.863C179.402 418.993 208.785 416.12 238.17 413.266C239.142 413.172 240.132 413.274 241.559 413.421C242.009 415.383 241.88 417.221 242.04 419.034C242.785 427.44 242.928 427.686 234.979 431.339C213.034 441.426 189.997 447.489 165.897 449.439C163.764 449.611 161.652 450.049 158.842 450.062C149.743 449.699 141.333 449.639 132.922 449.579C112.378 449.017 92.7724 443.933 73.1025 437.672C74.5871 428.305 76.018 419.416 77.3774 410.516C77.5408 409.447 77.3165 408.319 77.0928 406.892Z" fill="#393434"/>
<path d="M165.22 251.852C145.395 235.722 124.514 221.12 102.35 208.369C101.231 207.725 100.271 206.805 99.0532 205.723C106.921 202.747 114.972 200.061 123.519 197.681C125.377 199.665 126.675 201.403 128.113 203.015C145.639 222.656 170.483 224.733 190.947 208.219C194.039 205.724 196.888 202.927 199.849 200.27C204.522 202.086 209.295 203.685 213.844 205.773C219.887 208.547 225.756 211.702 231.868 215.012C230.472 216.455 229.002 217.748 227.331 218.679C207.489 229.725 187.617 240.716 167.17 251.773C166.132 251.833 165.676 251.843 165.22 251.852Z" fill="#3A3535"/>
<path d="M199.721 199.957C196.888 202.927 194.039 205.724 190.947 208.219C170.483 224.733 145.639 222.656 128.114 203.015C126.675 201.403 125.377 199.665 123.875 197.668C127.764 192.247 131.793 187.144 136.341 181.73C146.223 183.069 155.546 185.666 164.961 186.055C171.843 186.34 178.845 183.721 185.793 182.397C188.536 189.632 192.268 196.075 199.721 199.957Z" fill="#FEAF8C"/>
<path d="M30.9587 258.73C34.0577 256.645 36.8946 254.674 39.9748 253.216C42.9215 251.822 46.1212 250.962 49.2096 249.868C49.6925 250.44 50.1754 251.012 50.6583 251.585C48.7457 255.016 46.8331 258.448 44.1808 263.207C47.9364 261.182 50.7459 259.667 54.1878 257.846C56.8075 257.07 58.7947 256.602 60.7819 256.133C61.1506 256.582 61.5194 257.032 61.8882 257.482C59.6071 260.926 57.3259 264.37 54.717 268.309C57.4905 267.757 59.4576 267.365 62.7819 266.703C59.9717 271.459 57.8699 275.017 55.2293 279.487C59.2151 279.487 62.0386 279.487 66.5079 279.487C63.1555 283.456 60.7895 286.257 58.4235 289.058C50.3729 293.526 42.2476 297.915 43.8133 309.351C43.9603 310.425 43.4307 311.592 43.0308 313.089C35.9159 311.674 34.0311 304.901 29.9881 300.299C24.6182 294.186 25.8354 286.519 26.0534 279.294C26.2035 274.318 27.0933 269.332 28.042 264.426C28.4082 262.532 29.8508 260.847 30.9587 258.73Z" fill="#FDB08E"/>
<path d="M269.665 296.171C271.055 295.728 272.426 295.01 273.841 294.91C275.642 294.782 277.479 295.153 280.073 295.375C277.206 290.912 274.887 287.302 272.569 283.692C272.871 283.272 273.174 282.851 273.477 282.43C275.634 283.138 277.791 283.846 280.365 284.827C280.983 285.346 281.182 285.59 281.381 285.834C281.272 285.33 281.163 284.827 281.054 284.323C278.56 281.154 276.066 277.985 273.385 274.256C273.272 273.255 273.344 272.814 273.417 272.372C275.057 272.162 276.696 271.951 278.696 271.933C283.028 274.543 287 276.96 291.022 279.53C291.17 279.722 291.269 279.762 291.368 279.802C291.217 279.681 291.065 279.56 290.929 279.086C288.872 275.65 286.802 272.567 284.731 269.485C284.395 265.836 286.267 264.811 289.168 266.407C294.297 269.229 299.209 272.446 304.534 275.632C305.723 278.307 307.1 280.796 307.364 283.399C308.126 290.907 309.104 298.493 308.746 305.988C308.37 313.827 302.398 319.189 297.81 324.996C296.583 326.548 295.031 327.844 293.315 329.39C292.318 327.443 291.015 325.346 291.07 323.284C291.225 317.472 289.245 313.207 284.383 309.799C279.525 306.393 275.157 302.29 270.246 297.993C269.833 297.053 269.749 296.612 269.665 296.171Z" fill="#FDB18E"/>
<path d="M185.865 181.988C178.845 183.721 171.843 186.34 164.961 186.055C155.546 185.666 146.223 183.069 136.483 181.395C136.384 178.03 136.662 174.689 136.9 170.917C145.117 172.153 153.315 174.647 161.648 175.241C169.101 175.772 176.702 174.208 184.637 173.534C185.336 176.193 185.636 178.886 185.865 181.988Z" fill="#FF8D60"/>
<path d="M241.077 110.658C243.569 106.898 245.552 103.568 245.157 99.0023C244.899 96.0189 245.994 92.9184 246.763 89.5915C254.717 88.6316 259.173 94.5198 259.069 102.799C258.946 112.551 253.338 121.388 246.779 122.977C244.27 123.585 241.545 123.301 238.478 123.46C239.042 119.36 240.046 115.222 241.077 110.658Z" fill="#FD8B5E"/>
<path d="M84.4869 94.3505C85.7875 97.3516 86.613 100.444 87.6815 103.449C88.7939 106.579 90.1409 109.624 91.5881 112.911C93.1576 117.986 94.5242 122.857 95.8785 128.113C80.1489 130.488 72.8132 112.822 76.0237 101.37C77.1397 97.3894 80.246 95.3639 84.4869 94.3505Z" fill="#FD8B5E"/>
<path d="M22.9939 76.2126C23.6891 73.7323 24.3117 71.6324 25.2062 68.6154C28.1864 78.3729 33.1729 84.7748 43.3203 86.1701C33.2958 89.8401 27.7895 96.6698 26.6007 108.434C23.5197 98.3283 18.4426 91.454 9.72461 87.1678C15.6095 84.8283 20.3568 82.0239 22.9939 76.2126Z" fill="#FFB833"/>
<path d="M229.83 180.056C236.035 177.512 239.21 172.993 240.443 166.178C243.22 172.861 246.171 178.657 255.374 179.865C246.59 182.919 243.307 188.827 242.028 194.53C238.195 190.152 233.894 185.239 229.83 180.056Z" fill="#FFB833"/>
<path d="M283.141 64.3818C288.578 61.5441 292.653 57.9645 293.372 50.6658C296.41 57.5561 299.672 62.9161 307.394 64.1676C300.117 67.3053 295.956 72.575 295.005 78.546C291.06 74.3535 286.687 69.7083 282.324 65.0541C282.273 64.9991 282.306 64.7897 282.371 64.7176C282.479 64.5991 282.645 64.5341 283.141 64.3818Z" fill="#FFB833"/>
<path d="M165.138 252.252C165.676 251.843 166.132 251.834 166.885 252.001C164.557 277.99 161.948 303.802 159.303 329.612C156.879 353.271 154.411 376.925 151.977 400.583C151.28 407.365 150.634 414.152 149.992 421.4C149.31 422.065 148.601 422.268 147.745 422.247C152.321 376.664 157.055 331.306 161.758 285.944C162.908 274.852 163.959 263.75 165.138 252.252Z" fill="#16D0C6"/>
<path d="M208.937 247.377C238.026 232.936 266.99 219.14 297.889 209.994C304.294 208.099 310.89 206.851 317.689 206.249C271.847 217.103 230.672 239.076 189 259.841C188.73 259.387 188.46 258.933 188.19 258.48C190.259 257.261 192.301 255.994 194.404 254.838C196.735 253.557 199.119 252.372 201.485 251.156C203.852 249.94 206.226 248.737 208.937 247.377Z" fill="#16D0C6"/>
<path d="M196.347 272.772C194.214 273.817 192.397 274.67 190.58 275.523C190.383 275.011 190.187 274.499 189.99 273.988C227.395 252.083 267.322 236.558 309.856 227.629C270.354 238.163 232.431 252.663 196.347 272.772Z" fill="#16D0C6"/>
<path d="M260.895 260.306C235.707 270.434 210.899 280.455 186.09 290.477C223.842 270.042 263.688 255.207 305.418 245.397C305.59 245.893 305.762 246.388 305.933 246.884C291.047 251.323 276.161 255.761 260.895 260.306Z" fill="#14D0C6"/>
<path d="M259.098 367.428C226.472 369.346 196.519 378.744 168.383 394.355C179.503 377.829 265.986 357.588 285.073 367.415C276.575 367.415 268.077 367.415 259.098 367.428Z" fill="#14D0C6"/>
<path d="M268.2 318.541C235.34 325.111 204.537 336.205 174.528 352.882C181.361 340.725 266.931 311.657 283.341 315.799C278.434 316.69 273.528 317.581 268.2 318.541Z" fill="#16D0C6"/>
<path d="M203.415 357.865C227.56 348.597 251.904 341.739 277.543 340.004C240.436 346.01 205.009 357.087 171.84 375.089C171.52 374.452 171.2 373.815 170.879 373.178C174.179 371.468 177.456 369.713 180.784 368.059C184.507 366.209 188.244 364.38 192.034 362.674C195.672 361.037 199.386 359.57 203.415 357.865Z" fill="#16D0C6"/>
<path d="M269.25 296.193C269.749 296.612 269.833 297.053 269.946 297.825C238.683 303.077 209.77 314.345 182.806 330.818C181.207 331.795 179.573 332.715 177.23 332.768C177.598 332.188 177.83 331.396 178.354 331.059C205.538 313.6 235.01 301.953 266.844 296.34C267.495 296.226 268.17 296.254 269.25 296.193Z" fill="#16D0C6"/>
<path d="M272.986 272.371C273.344 272.814 273.271 273.255 273.148 274.028C257.54 279.636 241.696 284.206 226.509 290.389C211.559 296.475 197.276 304.197 182.442 311.326C190.035 302.367 243.257 278.745 272.986 272.371Z" fill="#14D0C6"/>
<path d="M284.459 269.611C286.802 272.567 288.872 275.65 290.944 279.071C290.945 279.41 290.972 279.378 290.972 279.378C287 276.96 283.027 274.543 278.956 271.796C280.634 270.89 282.411 270.314 284.459 269.611Z" fill="#A8EDE9"/>
<path d="M58.5564 289.531C60.7896 286.257 63.1556 283.456 66.508 279.487C62.0388 279.487 59.2152 279.487 55.2295 279.487C57.8701 275.017 59.9719 271.459 62.782 266.703C59.4578 267.365 57.4907 267.757 54.7172 268.309C57.3261 264.37 59.6072 260.926 61.8883 257.482C61.5196 257.032 61.1508 256.582 60.782 256.133C58.7948 256.602 56.8077 257.07 54.4283 257.616C50.2178 243.24 46.3995 228.787 42.3936 213.623C44.7432 214.145 47.2266 214.59 49.6509 215.252C78.2594 223.057 104.664 236.2 131.218 248.98C131.818 249.269 132.405 249.586 132.999 249.887C148.382 257.678 149.042 257.697 148.546 275.123C147.978 295.064 146.097 314.969 144.74 334.886C144.651 336.188 144.164 337.462 143.707 339.409C135.449 335.884 127.422 332.492 119.423 329.037C101.235 321.18 83.1256 313.134 64.8307 305.534C60.5618 303.76 58.9302 301.308 59.0786 296.985C59.1583 294.665 58.8321 292.332 58.5564 289.531Z" fill="#01CCC1"/>
<path d="M44.8541 359.516C71.1208 370.696 97.0319 381.732 122.943 392.768C122.665 393.416 122.388 394.063 122.11 394.71C93.1113 382.409 64.1125 370.107 35.1138 357.805C35.3515 357.184 35.5893 356.563 35.827 355.942C38.7175 357.086 41.608 358.229 44.8541 359.516Z" fill="#16D0C6"/>
<path d="M115.175 339.214C123.986 343.026 132.445 346.693 140.903 350.36C140.618 351.008 140.332 351.656 140.047 352.304C111.928 340.172 83.8089 328.04 55.6899 315.909C55.968 315.252 56.2461 314.595 56.5241 313.939C75.9568 322.315 95.3895 330.692 115.175 339.214Z" fill="#16D0C6"/>
<path d="M45.424 341.985C44.4569 341.232 43.8061 340.66 43.1553 340.087C43.3979 339.665 43.6406 339.242 43.8833 338.82C71.6552 352.191 99.427 365.562 127.199 378.933C126.897 379.57 126.594 380.207 126.292 380.844C99.4415 367.951 72.5909 355.059 45.424 341.985Z" fill="#16D0C6"/>
<path d="M61.2091 332.162C85.4211 343.297 109.288 354.278 133.154 365.259C132.855 365.899 132.556 366.539 132.257 367.18C105.106 354.713 77.9548 342.245 50.8037 329.778C51.0659 329.171 51.3281 328.564 51.5904 327.956C54.6815 329.307 57.7726 330.657 61.2091 332.162Z" fill="#16D0C6"/>
<path d="M154.82 135.492C153.748 133.278 152.907 131.35 151.428 127.961C160.779 131.891 168.964 131.887 177.657 127.889C176.647 133.628 174.022 137.012 169.691 138.846C164.22 141.162 159.283 139.893 154.82 135.492Z" fill="#FFFBFA"/>
<path d="M122.203 132.399C118.113 131.542 113.312 131.161 113.42 126.384C113.53 121.527 118.562 121.145 122.169 120.784C124.773 120.524 127.777 121.439 130.183 122.658C134.299 124.743 134.07 128.97 129.782 130.891C127.607 131.866 125.023 131.929 122.203 132.399Z" fill="#FF8D60"/>
<path d="M200.521 132.283C198.893 131.698 197.601 131.302 196.475 130.628C192.991 128.545 192.996 125.029 196.415 122.711C200.165 120.168 207.35 120.092 211.088 122.554C214.62 124.881 214.767 128.549 210.91 130.259C207.872 131.605 204.279 131.697 200.521 132.283Z" fill="#FF8D60"/>
<path d="M209.095 103.327C209.92 110.314 206.746 115.055 200.792 116.238C195.958 117.198 190.353 113.821 189.07 109.176C187.485 103.433 190.004 98.1146 195.241 96.1509C201.176 93.9252 206.019 96.321 209.095 103.327ZM203.04 110.836C205.69 107.858 206.316 104.213 203.68 101.456C201.94 99.6376 198.414 98.3036 196.019 98.7086C193.952 99.058 191.272 101.959 190.849 104.121C190.415 106.335 191.786 109.599 193.461 111.365C196.004 114.045 199.459 113.528 203.04 110.836Z" fill="#F9F4F3"/>
<path d="M141.047 110.042C139.069 116.167 135.721 118.992 130.8 119.073C126.557 119.143 122.245 115.808 120.819 111.37C119.274 106.556 120.887 102.243 124.945 100.223C127.949 98.7269 132.371 98.5236 135.639 99.4968C140.013 100.799 141.49 105.035 141.047 110.042ZM137.078 102.715C131.208 99.4673 125.975 101.055 124.913 106.478C124.242 109.906 125.228 112.799 128.404 114.554C131.712 116.381 134.959 115.975 137.479 113.197C140.323 110.061 140.201 106.593 137.078 102.715Z" fill="#F9F4F3"/>
<path d="M137.803 82.9762C140.779 86.0223 140.115 88.3201 136.484 88.8075C128.886 89.8272 121.218 90.3234 113.949 91.0002C117.502 84.5331 126.955 81.0242 137.803 82.9762Z" fill="#C95C2C"/>
<path d="M213.876 88.8647C207.177 87.9766 200.795 87.3365 194.47 86.3362C192.855 86.0808 191.42 84.6844 189.903 83.8122C191.097 82.4618 192.047 80.3981 193.53 79.888C199.084 77.9784 211.298 82.1725 214.801 86.9097C215.061 87.2623 214.431 88.2738 213.876 88.8647Z" fill="#C95C2C"/>
<path d="M95.2863 61.9537C94.5078 65.8238 93.8363 69.3006 93.1647 72.7774C92.6692 72.6693 92.1737 72.5612 91.6782 72.4531C92.9515 66.872 94.2248 61.2908 95.4981 55.7097C96.0339 55.8347 96.5697 55.9596 97.1056 56.0846C96.5348 57.9099 95.9641 59.7352 95.2863 61.9537Z" fill="#411C0C"/>
<path d="M112.539 34.0125C112.177 33.3788 112.142 32.921 112.107 32.4631C114.811 33.2975 117.514 34.1319 120.217 34.9663C120.094 35.3967 119.97 35.8271 119.847 36.2574C117.52 35.5677 115.193 34.8781 112.539 34.0125Z" fill="#411C0C"/>
<path d="M108.42 30.8661C109.032 31.361 109.341 31.685 109.65 32.009C108.499 31.8093 107.347 31.6096 106.196 31.4099C106.254 31.0976 106.312 30.7854 106.371 30.4731C106.952 30.5472 107.534 30.6212 108.42 30.8661Z" fill="#411C0C"/>
<path d="M96.3333 25.0287C97.2405 25.5272 98.1478 26.0257 99.055 26.5241C98.9527 26.7535 98.8503 26.9829 98.748 27.2123C97.8715 26.8616 96.9951 26.5109 96.0713 25.7479C96.024 25.3356 96.3333 25.0287 96.3333 25.0287Z" fill="#411C0C"/>
<path d="M98.0791 51.6447C98.3605 51.4492 98.6264 51.5266 98.8922 51.604C98.616 51.7086 98.3398 51.8132 98.0791 51.6447Z" fill="#411C0C"/>
<path d="M94.5193 24.8322C94.0305 24.5731 93.5416 24.314 93.038 23.6906C93.0232 23.3264 93.2706 23.078 93.2706 23.078C93.7796 23.3098 94.2887 23.5416 94.8108 24.1509C94.8238 24.5285 94.5193 24.8322 94.5193 24.8322Z" fill="#411C0C"/>
<path d="M104.286 29.7273C104.585 29.6886 104.698 29.8034 104.81 29.9181C104.574 29.9056 104.337 29.8932 104.286 29.7273Z" fill="#411C0C"/>
<path d="M102.636 28.7535C102.68 29.0298 102.55 29.2169 102.431 29.2103C102.312 29.2038 102.204 29.0027 102.091 28.8869C102.216 28.7844 102.342 28.682 102.636 28.7535Z" fill="#411C0C"/>
<path d="M100.642 27.7454C100.687 28.0199 100.558 28.2064 100.44 28.2004C100.322 28.1945 100.214 27.995 100.101 27.8803C100.225 27.7779 100.349 27.6756 100.642 27.7454Z" fill="#411C0C"/>
<path d="M95.8693 25.489C95.3864 25.5685 95.0924 25.4249 94.6759 25.0218C94.5193 24.8322 94.8238 24.5285 94.9786 24.3786C95.4699 24.2815 95.7676 24.4184 96.1799 24.8341C96.3333 25.0287 96.024 25.3356 95.8693 25.489Z" fill="#411C0C"/>
<path d="M92.8982 23.4493C92.5861 23.3611 92.3989 23.1499 92.2117 22.9388C92.4622 22.8767 92.7128 22.8147 93.1169 22.9153C93.2706 23.078 93.0231 23.3263 92.8982 23.4493Z" fill="#411C0C"/>
<path d="M97.592 54.0839C97.3259 54.1246 97.2286 54.0021 97.1313 53.8796C97.3412 53.8933 97.551 53.907 97.592 54.0839Z" fill="#411C0C"/>
<path d="M280.96 284.401C281.163 284.827 281.272 285.331 281.381 285.834C281.182 285.59 280.983 285.346 280.73 284.867C280.676 284.633 280.866 284.479 280.96 284.401Z" fill="#A8EEE9"/>
<path d="M290.929 279.425C291.065 279.56 291.217 279.681 291.368 279.802C291.269 279.762 291.17 279.722 291.022 279.53C290.972 279.378 290.945 279.41 290.929 279.425Z" fill="#A8EDE9"/>
<path d="M202.761 111.101C199.459 113.528 196.004 114.045 193.461 111.365C191.786 109.599 190.415 106.335 190.848 104.121C191.272 101.959 193.952 99.058 196.019 98.7086C198.414 98.3036 201.94 99.6376 203.68 101.456C206.316 104.213 205.69 107.857 202.761 111.101Z" fill="#444040"/>
<path d="M137.349 102.974C140.201 106.593 140.323 110.061 137.479 113.197C134.959 115.975 131.712 116.381 128.404 114.554C125.228 112.799 124.242 109.906 124.913 106.478C125.975 101.055 131.209 99.4673 137.349 102.974Z" fill="#444040"/>
</svg>
