<svg width="502" height="512" viewBox="0 0 502 512" fill="none" xmlns="http://www.w3.org/2000/svg">
<path d="M227.238 512C226.347 511.348 226.021 510.237 225.484 510.122C222.734 509.537 219.929 509.209 216.945 507.977C216.754 459.342 216.746 411.521 216.817 363.699C216.82 361.453 217.516 359.207 218.205 357.099C226.597 363.391 235.591 367.257 245.804 368.573C246.471 374.67 249.344 380.803 242.229 385.027C236.912 384.203 232.028 383.4 227.831 382.709C225.168 388.016 222.389 393.285 219.92 398.696C219.405 399.824 219.574 401.747 220.214 402.844C226.581 413.738 236.422 419.054 248.77 420.625C248.77 451.389 248.77 481.694 248.769 512C241.749 512 234.728 512 227.238 512Z" fill="#367EFF"/>
<path d="M249.238 512C248.77 481.694 248.77 451.389 249.217 420.554C258.782 420.549 266.718 417.58 273.89 412.268C274.292 414.953 274.734 417.244 274.739 419.536C274.799 449.729 274.798 479.922 274.812 510.115C274.569 510.597 274.327 511.08 274.427 511.781C266.415 512 258.061 512 249.238 512Z" fill="#3283FF"/>
<path d="M215.771 8.16628C221.185 6.10811 226.607 4.06787 232.008 1.97339C232.868 1.64012 233.632 1.06306 234.105 0.29935C238.459 -5.70714e-06 243.148 -5.63264e-06 248.303 0.468651C249.117 11.9963 249.464 23.0553 249.786 34.4729C248.097 38.7688 245.986 42.5895 244.92 46.6825C244.15 49.6413 245.169 53.0314 244.636 56.0977C244.248 58.3272 242.627 60.3421 241.147 63.2567C237.946 57.6783 234.329 55.9816 229.725 55.9866C225.074 55.9916 220.422 55.8891 215.78 55.4175C215.783 39.3896 215.777 23.778 215.771 8.16628Z" fill="#367EFF"/>
<path d="M249.812 34.1143C249.465 23.0553 249.117 11.9963 248.77 0.468657C254.791 2.98023e-08 260.812 0 267.301 0C270.008 1.09074 272.246 2.18148 274.436 3.95229C274.182 12.0944 274.098 19.5631 273.692 27.0142C273.574 29.1839 272.535 31.3033 271.641 33.2447C267.881 32.0293 264.337 30.0457 260.93 30.2596C257.158 30.4965 253.513 32.743 249.812 34.1143Z" fill="#3283FF"/>
<path d="M217.889 356.961C217.516 359.207 216.82 361.453 216.817 363.699C216.746 411.521 216.754 459.342 216.736 507.639C207.505 504.99 198.283 501.866 189.056 498.033C189.29 495.029 189.735 492.733 189.738 490.437C189.785 460.013 189.77 429.59 189.77 399.166C196.027 395.824 203.222 393.666 206.616 386.589C207.925 383.859 209.055 380.956 209.676 378.008C210.371 374.71 209.426 372.256 206.309 369.733C196.679 361.937 190.927 351.303 187.194 339.217C187.643 335.001 187.76 331.321 187.761 327.641C187.776 285.487 187.773 243.332 187.774 201.177C196.691 193.997 207.022 189.837 218.412 187.505C219.149 190.942 219.718 193.899 219.728 196.857C219.803 219.606 219.683 242.357 219.895 265.104C219.918 267.557 221.673 269.994 222.225 272.678C218.993 272.945 216.162 272.985 213.33 272.999C205.829 273.035 201.786 276.975 201.775 284.354C201.754 297.182 201.75 310.011 201.796 322.84C201.801 324.296 202.194 325.749 202.366 327.208C203.764 339.097 209.93 348.496 217.889 356.961Z" fill="#3979FF"/>
<path d="M56.7689 99.1663C57.8677 98.8577 58.9666 98.549 60.3855 98.5849C60.0651 101.127 59.1234 103.288 58.8411 105.531C58.0214 112.042 57.4661 118.588 56.654 125.447C52.1781 130.339 52.6525 134.458 57.535 138.44C59.3747 139.941 60.5913 142.205 61.4641 143.32C56.2669 145.11 51.0723 145.896 47.0599 148.501C39.7818 153.228 35.7087 160.632 33.2172 168.968C28.3487 185.256 34.8258 207.537 50.7684 215.625C50.7657 221.475 51.0664 226.892 50.6192 232.247C50.4245 234.579 48.6952 236.783 47.6628 239.046C30.3099 232.996 17.9223 221.235 8.92249 205.511C3.03753 195.229 0.164238 183.876 0.00807899 172.369C-0.254767 153 5.89034 135.509 19.2803 120.952C28.571 110.851 39.3952 103.316 53.5368 100.084C55.0511 99.8384 55.91 99.5024 56.7689 99.1663Z" fill="#4B64FF"/>
<path d="M146.763 398.84C135.361 403.946 125.126 410.735 116.811 420.612C93.6503 363.083 115.005 300.945 144.77 272.537C144.77 276.736 144.77 280.292 144.77 283.848C144.77 294.005 144.373 304.183 144.938 314.308C145.219 319.346 147.263 324.287 148.219 329.818C147.543 332.241 146.827 334.117 146.82 335.996C146.738 356.944 146.765 377.892 146.763 398.84Z" fill="#426FFF"/>
<path d="M353.936 326.999C359.37 309.392 355.423 291.244 357.213 271.961C375.458 292.8 386.932 315.566 391.96 341.954C397.054 368.691 394.454 394.475 384.975 420.871C376.684 411.389 367.3 404.217 355.899 398.959C355.753 376.358 355.807 354.548 355.689 332.739C355.679 330.823 354.547 328.912 353.936 326.999Z" fill="#2098FF"/>
<path d="M317.771 335.833C316.793 336.216 315.069 336.438 314.947 337.005C312.488 348.443 306.258 357.738 298.662 366.293C298.558 366.411 298.526 366.593 297.84 366.662C296.736 361.386 296.374 356.177 295.717 351.005C295.398 348.494 294.528 346.053 293.879 343.182C297.953 335.37 299.498 327.26 299.704 318.953C299.974 308.022 299.774 297.079 299.769 286.141C299.765 277.434 296.38 273.685 287.771 272.375C287.77 245.458 287.74 218.998 287.814 192.539C287.821 189.747 288.437 186.957 288.771 184.167C303.489 182.782 308.791 191.93 307.561 200.507C306.975 204.594 304.196 208.366 302.105 212.951C306.898 214.287 312.171 215.757 317.618 218.032C317.785 242.169 317.778 265.501 317.399 289.077C316.942 297.092 316.791 304.864 316.819 312.635C316.826 314.48 317.437 316.323 317.77 318.624C317.77 324.665 317.77 330.249 317.771 335.833Z" fill="#2B8BFF"/>
<path d="M293.907 343.58C294.528 346.053 295.398 348.494 295.717 351.005C296.374 356.177 296.736 361.386 297.535 366.818C290.031 372.584 289.721 381.508 297.096 389.826C298.19 391.059 299.429 392.163 300.495 393.98C300.183 396.096 299.798 397.559 299.796 399.023C299.762 431.777 299.753 464.531 299.816 497.285C299.819 499.228 300.467 501.169 300.814 503.112C292.432 505.413 284.049 507.714 275.239 510.065C274.797 479.922 274.799 449.729 274.738 419.536C274.734 417.244 274.291 414.953 274.02 411.963C275.958 409.292 278.264 407.545 279.792 405.274C280.962 403.535 282.196 400.747 281.586 399.098C279.398 393.188 276.438 387.565 273.77 381.376C273.421 375.243 273.072 369.566 272.882 363.581C282.011 358.844 288.088 351.349 293.907 343.58Z" fill="#2E88FF"/>
<path d="M109.769 106.167C128.655 116.963 140.707 132.862 145.785 154.074C149.787 170.786 147.564 186.961 140.503 202.228C134.566 215.064 125.062 225.295 113.009 232.941C111.245 234.06 109.36 234.99 107.084 235.646C106.346 229.986 106.339 224.65 105.645 219.405C105.305 216.837 103.69 214.437 102.792 211.65C105.869 207.474 109.602 203.977 111.6 199.675C118.532 184.743 117.371 170.062 108.895 155.699C109.35 153.403 109.735 151.445 109.742 149.487C109.793 135.047 109.769 120.607 109.769 106.167Z" fill="#436EFF"/>
<path d="M215.428 8.19598C215.777 23.778 215.783 39.3897 215.412 55.495C207.042 58.4693 205.612 63.1424 205.719 69.5025C205.903 80.4975 206.092 91.5099 205.674 102.492C205.297 112.436 210.203 116.932 219.77 117.624C219.769 120.885 220.094 123.736 219.693 126.481C219.093 130.587 217.982 134.619 217.089 138.682C195.097 127.596 182.224 109.26 178.056 85.6057C174.147 63.4186 179.266 42.6401 194.862 25.6513C200.838 19.1408 208.3 13.9939 215.428 8.19598Z" fill="#3A79FF"/>
<path d="M187.44 201.203C187.773 243.332 187.776 285.487 187.762 327.641C187.76 331.321 187.643 335.001 187.258 338.841C185.711 338.001 184.558 336.244 183.248 336.118C168.136 334.668 159.682 324.955 159.752 309.738C159.83 292.748 159.661 275.756 159.802 258.767C159.932 243.28 163.119 228.545 172.873 216.084C177.078 210.711 182.329 206.155 187.44 201.203ZM183.769 303.499C183.769 298.738 183.769 293.977 183.769 288.916C180.067 289.466 177.9 290.978 177.818 294.258C177.663 300.418 177.598 306.592 177.844 312.746C177.975 316.028 180.034 317.815 183.769 317.768C183.769 313.135 183.769 308.814 183.769 303.499Z" fill="#3D75FF"/>
<path d="M222.625 272.438C221.673 269.994 219.918 267.557 219.895 265.104C219.683 242.357 219.803 219.606 219.728 196.857C219.718 193.899 219.149 190.942 218.805 187.576C225.147 186.111 231.49 184.696 237.908 184.109C243.509 183.596 249.195 184.015 255.306 184.552C255.77 207.657 255.801 230.231 255.724 252.805C255.715 255.244 255.076 257.68 254.288 260.068C247.956 259.04 243.298 261.654 238.467 264.628C233.476 267.702 227.929 269.872 222.625 272.438Z" fill="#357FFF"/>
<path d="M254.729 260.117C255.076 257.68 255.715 255.244 255.724 252.805C255.801 230.231 255.769 207.657 255.77 184.625C266.461 184.118 277.152 184.07 288.307 184.094C288.437 186.957 287.821 189.747 287.813 192.539C287.74 218.998 287.77 245.458 287.321 272.447C279.046 273.653 272.158 271.491 265.858 266.726C262.438 264.14 258.457 262.296 254.729 260.117Z" fill="#3085FF"/>
<path d="M296.809 15.8829C313 28.6229 321.72 45.2158 323.884 65.7683C326.606 91.626 317.006 112.277 298.618 129.543C295.932 132.066 292.569 133.868 289.155 135.585C288.784 132.671 288.864 130.172 288.752 127.682C288.455 121.078 288.075 114.478 287.869 107.56C288.605 106.476 289.317 105.772 289.777 104.93C295.784 93.9172 297.106 82.2378 294.895 69.6983C295.35 67.5707 295.734 65.7823 295.741 63.9923C295.794 51.2322 295.7 38.4712 295.817 25.712C295.847 22.4329 296.462 19.1592 296.809 15.8829Z" fill="#2B8BFF"/>
<path d="M301.199 503.062C300.467 501.169 299.82 499.228 299.816 497.285C299.753 464.531 299.763 431.777 299.797 399.023C299.798 397.559 300.183 396.096 300.632 394.291C308.253 396.968 315.631 399.988 323.356 403.493C323.392 406.445 322.818 408.91 322.811 411.377C322.744 436.354 322.746 461.331 322.818 486.307C322.823 488.222 323.51 490.134 323.879 492.047C316.448 495.702 309.016 499.358 301.199 503.062Z" fill="#2A8CFF"/>
<path d="M189.394 399.102C189.77 429.59 189.785 460.013 189.738 490.437C189.735 492.733 189.29 495.029 188.885 497.716C179.796 492.631 170.872 487.155 162.081 481.088C162.733 478.283 163.69 476.071 163.7 473.855C163.8 452.199 163.741 430.542 163.727 408.885C169.307 406.615 174.872 404.304 180.475 402.092C183.286 400.982 186.168 400.05 189.394 399.102Z" fill="#3C76FF"/>
<path d="M318.174 335.903C317.77 330.249 317.77 324.665 318.15 318.552C320.276 316.016 323.236 314.17 323.526 311.971C324.251 306.469 323.968 300.797 323.693 295.213C323.521 291.724 321.917 288.939 317.77 288.833C317.777 265.501 317.785 242.169 317.802 218.36C331.159 222.775 338.023 232.795 339.691 246.464C340.784 255.424 341.598 264.476 341.657 273.492C341.749 287.738 341.188 301.993 340.736 316.238C340.479 324.337 331.858 333.695 323.816 335.001C322.063 335.286 320.323 335.648 318.174 335.903Z" fill="#2790FF"/>
<path d="M472.756 112.157C487.117 123.669 496.357 138.14 499.883 156.464C504.209 178.944 498.594 198.827 485.315 216.804C482.142 221.1 477.48 224.296 473.118 227.631C472.412 221.501 472.228 215.726 471.684 209.985C471.521 208.262 470.358 206.633 469.698 204.601C480.719 189.802 484.834 173.762 479.603 156.199C477.612 149.516 473.691 143.408 471.013 136.877C471.84 135.073 472.666 133.44 472.704 131.788C472.855 125.247 472.76 118.701 472.756 112.157Z" fill="#0DB0FF"/>
<path d="M378.659 225.046C364.581 212.892 356.816 197.599 354.674 179.066C352.148 157.21 357.901 138.187 372.496 121.819C375.183 118.805 378.187 116.074 381.63 113.358C382.733 115.843 383.502 118.159 383.718 120.525C384.223 126.044 384.461 131.587 384.669 137.439C383.922 138.704 383.297 139.641 382.708 140.599C375.221 152.781 371.299 165.81 374.84 180.046C376.532 186.848 379.499 193.333 381.643 200.3C381.188 206.878 381.126 213.129 380.68 219.351C380.541 221.288 379.362 223.15 378.659 225.046Z" fill="#2197FF"/>
<path d="M109.442 106.008C109.769 120.607 109.793 135.047 109.741 149.487C109.734 151.445 109.35 153.403 108.583 155.562C103.586 148.197 96.3796 145.064 87.4593 143.904C91.5619 140.039 92.909 136.21 89.4901 132.324C83.2803 125.267 78.9798 131.424 76.5879 133.661C73.3598 131.452 70.3877 130.007 68.204 127.787C64.812 124.338 61.3504 122.858 56.8071 125.12C57.4661 118.588 58.0214 112.043 58.8411 105.531C59.1235 103.288 60.0651 101.127 60.7375 98.5479C71.8254 95.7935 82.8322 96.3616 93.593 99.5043C98.9292 101.063 103.95 103.7 109.442 106.008Z" fill="#4769FF"/>
<path d="M353.78 327.324C354.547 328.912 355.679 330.823 355.689 332.739C355.807 354.548 355.753 376.358 355.735 398.644C341.101 393.417 326.476 387.711 311.849 382.012C308.057 380.534 307.621 379.161 310.461 375.525C316.043 368.38 320.667 360.49 325.768 352.963C326.698 351.591 327.795 349.798 329.184 349.355C340.592 345.716 348.52 338.309 353.78 327.324Z" fill="#2591FF"/>
<path d="M324.239 492.019C323.509 490.134 322.823 488.222 322.818 486.307C322.746 461.331 322.744 436.354 322.811 411.377C322.818 408.91 323.392 406.445 323.737 403.569C331.212 406.052 338.653 408.944 346.341 412.399C346.317 414.76 345.815 416.559 345.808 418.359C345.749 435.499 345.743 452.639 345.819 469.779C345.827 471.558 346.467 473.334 346.814 475.112C339.409 480.738 332.004 486.365 324.239 492.019Z" fill="#2691FF"/>
<path d="M163.339 408.935C163.741 430.542 163.8 452.199 163.7 473.856C163.69 476.071 162.733 478.283 161.939 480.773C155.98 476.139 149.79 471.692 144.75 466.192C139.283 460.226 134.731 453.388 130.059 446.734C123.035 436.729 123.252 434.28 132.472 425.887C141.257 417.89 151.661 412.583 163.339 408.935Z" fill="#4072FF"/>
<path d="M147.121 398.803C146.766 377.892 146.738 356.944 146.82 335.996C146.828 334.117 147.543 332.241 148.267 330.183C153.918 339.498 161.574 346.186 171.967 349.688C173.181 350.097 174.575 350.959 175.181 352.015C177.908 356.767 179.987 361.933 183.058 366.433C186.093 370.882 190.038 374.711 194.317 379.661C190.511 381.485 186.927 383.467 183.151 384.964C171.3 389.663 159.376 394.179 147.121 398.803Z" fill="#3E74FF"/>
<path d="M102.652 211.96C103.69 214.437 105.305 216.837 105.645 219.405C106.339 224.65 106.346 229.986 106.722 235.701C93.3982 243.219 79.1829 245.615 64.2242 243.134C58.7937 242.233 53.4404 240.866 47.8574 239.379C48.6952 236.783 50.4245 234.579 50.6193 232.247C51.0664 226.892 50.7658 221.475 51.1542 215.692C58.4909 218.358 64.6799 216.65 70.7425 212.648C72.1233 211.737 75.0402 211.333 76.1797 212.164C85.1677 218.718 93.877 218.143 102.652 211.96Z" fill="#4868FF"/>
<path d="M347.163 475.06C346.467 473.334 345.827 471.558 345.819 469.779C345.743 452.639 345.749 435.499 345.808 418.359C345.815 416.559 346.317 414.761 346.679 412.564C353.849 416.364 361.221 420.154 367.888 424.928C371.334 427.395 373.678 431.504 376.185 435.105C376.817 436.014 376.636 438.085 376.026 439.172C368.47 452.653 359.409 464.967 347.163 475.06Z" fill="#2295FF"/>
<path d="M217.415 138.83C217.983 134.619 219.093 130.587 219.693 126.481C220.095 123.736 219.77 120.885 220.229 117.553C227.3 116.721 234.441 118.549 239.568 112.217C239.905 111.801 241.151 111.982 241.945 112.095C246.558 112.751 251.163 113.469 255.781 114.583C256.117 125.61 256.444 136.222 256.771 146.833C243.039 147.799 230.006 145.297 217.415 138.83Z" fill="#357FFF"/>
<path d="M296.67 15.5677C296.462 19.1592 295.847 22.433 295.817 25.7121C295.7 38.4713 295.794 51.2323 295.741 63.9923C295.734 65.7823 295.35 67.5708 294.579 69.5283C292.522 64.7702 289.829 60.3657 284.602 59.555C279.389 58.7465 278.139 56.3026 278.732 51.6988C278.964 49.8975 278.883 48.033 278.748 46.2119C278.359 40.968 276.347 36.5491 271.917 33.4457C272.534 31.3033 273.573 29.1839 273.692 27.0143C274.098 19.5631 274.182 12.0944 274.632 4.29083C282.093 7.71698 289.312 11.4847 296.67 15.5677Z" fill="#2E88FF"/>
<path d="M257.18 146.892C256.444 136.222 256.117 125.61 256.244 114.512C262.521 114.016 268.345 113.952 274.168 114.016C279.671 114.076 284.162 112.031 287.728 107.877C288.075 114.478 288.455 121.078 288.752 127.682C288.865 130.172 288.784 132.671 288.8 135.642C280.01 141.426 270.741 145.364 260.323 146.05C259.396 146.111 258.5 146.639 257.18 146.892Z" fill="#3085FF"/>
<path d="M384.807 137.12C384.461 131.587 384.223 126.044 383.719 120.525C383.502 118.159 382.733 115.843 381.939 113.227C391.092 105.083 401.88 100.157 414.273 98.4906C414.316 105.252 414.042 111.543 413.428 118C410.279 119.302 407.116 119.945 404.731 121.667C397.92 126.583 391.426 131.938 384.807 137.12Z" fill="#1C9DFF"/>
<path d="M469.652 204.96C470.358 206.633 471.521 208.262 471.684 209.985C472.228 215.726 472.412 221.501 472.772 227.691C464.473 235.662 454.753 240.301 443.138 241.649C442.326 235.152 442.016 229.02 441.887 222.557C453.213 219.587 461.814 212.882 469.652 204.96Z" fill="#12A9FF"/>
<path d="M441.706 222.888C442.016 229.02 442.326 235.152 442.722 241.702C432.402 245.076 421.976 244.62 411.534 242.312C410.421 242.066 409.276 241.965 407.954 241.024C407.778 233.804 407.792 227.358 408.197 220.96C409.32 221.328 410.033 221.714 410.791 221.958C421.004 225.246 431.331 224.916 441.706 222.888Z" fill="#18A2FF"/>
<path d="M407.807 220.911C407.793 227.358 407.778 233.804 407.746 240.684C396.765 238.519 387.217 233.28 378.799 225.36C379.362 223.15 380.541 221.288 380.68 219.351C381.126 213.129 381.188 206.878 381.953 200.434C389.275 209.162 397.285 216.573 407.807 220.911Z" fill="#1D9CFF"/>
<path d="M413.769 117.834C414.042 111.543 414.315 105.252 414.679 98.5633C424.898 96.1314 434.969 96.2018 445.367 99.5402C445.755 106.427 445.741 112.772 445.32 119.067C438.682 118.011 432.478 116.548 426.207 116.163C422.111 115.912 417.918 117.223 413.769 117.834Z" fill="#18A2FF"/>
<path d="M445.727 119.117C445.741 112.772 445.755 106.427 445.77 99.6238C455.515 101.405 464.439 105.348 472.441 112.008C472.76 118.701 472.856 125.247 472.704 131.788C472.666 133.44 471.84 135.073 470.707 136.75C463.229 129.113 455.338 122.932 445.727 119.117Z" fill="#12A9FF"/>
<path d="M56.4205 99.0961C55.91 99.5024 55.0511 99.8385 53.9277 100.062C54.4662 99.6422 55.2692 99.3341 56.4205 99.0961Z" fill="#4769FF"/>
<path d="M254.288 260.068C258.458 262.296 262.439 264.14 265.858 266.726C272.158 271.491 279.046 273.653 287.322 272.906C296.38 273.685 299.765 277.434 299.769 286.141C299.774 297.079 299.974 308.022 299.704 318.953C299.498 327.26 297.953 335.37 293.879 343.182C288.089 351.349 282.011 358.844 272.498 363.637C263.638 367.966 254.74 368.293 245.771 368.167C235.591 367.257 226.597 363.391 218.205 357.099C209.93 348.496 203.765 339.097 202.366 327.208C202.194 325.749 201.801 324.297 201.796 322.84C201.75 310.011 201.755 297.182 201.775 284.354C201.787 276.975 205.829 273.035 213.331 272.999C216.162 272.985 218.993 272.945 222.225 272.678C227.929 269.872 233.476 267.702 238.468 264.628C243.299 261.654 247.956 259.04 254.288 260.068Z" fill="black"/>
<path d="M273.77 381.833C276.438 387.565 279.398 393.188 281.586 399.098C282.197 400.747 280.962 403.535 279.792 405.274C278.264 407.545 275.959 409.292 273.858 411.57C266.718 417.58 258.782 420.549 249.217 420.096C236.422 419.054 226.581 413.738 220.214 402.844C219.574 401.747 219.405 399.824 219.92 398.696C222.389 393.285 225.168 388.016 227.831 382.709C232.028 383.4 236.912 384.203 242.47 385.393C253.612 386.487 263.911 385.867 273.77 381.833Z" fill="black"/>
<path d="M273.77 381.376C263.911 385.867 253.612 386.487 242.901 385.413C249.344 380.803 246.471 374.67 245.804 368.573C254.74 368.293 263.637 367.966 272.34 363.946C273.072 369.566 273.421 375.243 273.77 381.376Z" fill="#3283FF"/>
<path d="M287.869 107.56C284.162 112.031 279.672 114.076 274.168 114.016C268.345 113.952 262.522 114.016 256.235 114.096C251.163 113.469 246.558 112.751 241.944 112.095C241.151 111.982 239.905 111.8 239.567 112.217C234.441 118.549 227.3 116.721 220.229 117.096C210.203 116.932 205.297 112.436 205.675 102.492C206.092 91.5099 205.903 80.4974 205.719 69.5025C205.612 63.1423 207.042 58.4693 215.402 55.9111C220.422 55.8891 225.074 55.9916 229.726 55.9866C234.33 55.9817 237.946 57.6783 241.147 63.2567C242.627 60.3421 244.248 58.3272 244.636 56.0978C245.17 53.0314 244.15 49.6413 244.921 46.6825C245.986 42.5895 248.098 38.7688 249.787 34.4729C253.513 32.743 257.158 30.4965 260.93 30.2596C264.337 30.0457 267.881 32.0293 271.641 33.2447C276.347 36.5491 278.359 40.968 278.748 46.2119C278.884 48.033 278.964 49.8975 278.732 51.6987C278.139 56.3026 279.389 58.7465 284.602 59.555C289.83 60.3657 292.522 64.7702 294.334 69.8666C297.106 82.2378 295.785 93.9172 289.777 104.93C289.317 105.772 288.605 106.476 287.869 107.56ZM266.23 99.0005C277.354 99.0008 277.514 99.0393 280.176 87.9824C280.973 84.6737 280.686 81.0855 280.743 77.6228C280.786 74.931 279.884 73.5285 276.681 72.7836C267.149 70.5661 263.776 65.6423 263.77 55.5608C263.768 53.0647 263.648 50.5613 263.798 48.0743C263.993 44.8443 262.489 44.589 259.769 45.4355C259.769 49.2967 259.986 52.9558 259.723 56.5801C259.222 63.47 257.307 71.1717 250.659 73.0903C240.574 76.0012 241.501 82.6991 241.768 89.9845C241.793 90.6492 241.855 91.328 241.758 91.9792C241.203 95.7013 242.995 97.688 246.528 97.955C252.756 98.4258 259.003 98.6645 266.23 99.0005ZM220.77 94.4192C220.77 96.8538 220.77 99.2885 220.77 101.683C223.062 101.683 224.78 101.683 226.487 101.683C226.487 91.3361 226.487 81.305 226.487 71.3208C224.482 71.3208 222.764 71.3208 220.77 71.3208C220.77 78.9031 220.77 86.1725 220.77 94.4192Z" fill="black"/>
<path d="M102.792 211.65C93.8769 218.143 85.1676 218.718 76.1796 212.164C75.0401 211.333 72.1232 211.737 70.7425 212.648C64.6799 216.65 58.4908 218.358 51.1539 215.234C34.8257 207.537 28.3487 185.256 33.2172 168.968C35.7087 160.632 39.7818 153.228 47.0599 148.502C51.0723 145.896 56.2669 145.11 61.4641 143.32C60.5913 142.205 59.3747 139.941 57.535 138.44C52.6525 134.458 52.1781 130.339 56.654 125.447C61.3504 122.858 64.8119 124.338 68.2039 127.787C70.3876 130.007 73.3598 131.452 76.5878 133.661C78.9797 131.424 83.2802 125.267 89.4901 132.324C92.909 136.21 91.5619 140.039 87.4593 143.904C96.3796 145.064 103.586 148.197 108.337 155.9C117.371 170.062 118.532 184.743 111.599 199.675C109.602 203.977 105.869 207.474 102.792 211.65ZM87.6885 200.951C89.6836 200.444 92.4763 200.605 93.5481 199.325C102.378 188.78 103.414 176.375 96.1674 165.02C92.3019 158.962 89.6209 158.646 84.0161 162.349C76.3136 167.438 70.4461 167.255 63.0171 161.793C59.6622 159.326 56.6117 159.143 53.5505 162.641C45.0855 172.316 45.0345 186.199 51.5745 196.149C55.5656 202.222 57.8693 202.085 64.1171 198.418C68.0881 196.087 72.4614 193.722 77.413 196.006C80.625 197.488 83.7717 199.112 87.6885 200.951Z" fill="black"/>
<path d="M317.398 289.077C321.917 288.939 323.521 291.724 323.693 295.213C323.968 300.797 324.251 306.469 323.526 311.971C323.236 314.17 320.276 316.016 318.15 318.095C317.437 316.323 316.826 314.48 316.819 312.635C316.791 304.864 316.942 297.092 317.398 289.077Z" fill="black"/>
<path d="M183.769 303.996C183.769 308.814 183.769 313.135 183.769 317.768C180.034 317.815 177.975 316.028 177.844 312.746C177.597 306.592 177.662 300.418 177.817 294.259C177.9 290.978 180.067 289.466 183.769 288.917C183.769 293.977 183.769 298.738 183.769 303.996Z" fill="black"/>
<path d="M445.32 119.067C455.338 122.932 463.229 129.113 470.344 136.911C473.691 143.408 477.612 149.516 479.603 156.199C484.834 173.762 480.719 189.802 469.698 204.601C461.814 212.882 453.213 219.587 441.887 222.557C431.331 224.916 421.004 225.246 410.791 221.958C410.033 221.714 409.32 221.328 408.197 220.96C397.285 216.573 389.275 209.162 382.199 200.095C379.499 193.333 376.532 186.848 374.84 180.046C371.299 165.81 375.221 152.781 382.708 140.599C383.297 139.641 383.922 138.704 384.669 137.439C391.426 131.938 397.92 126.583 404.731 121.667C407.116 119.945 410.279 119.302 413.428 118C417.918 117.223 422.111 115.912 426.207 116.163C432.478 116.548 438.682 118.011 445.32 119.067ZM428.87 132.02C426.208 132.026 423.467 131.618 420.895 132.103C400.464 135.956 386.245 155.564 389.595 176.717C392.698 196.311 411.044 210.58 430.599 208.975C440.171 208.155 448.819 204.626 455.313 197.736C466.49 185.877 469.011 171.537 463.639 156.35C458.394 141.525 444.445 132.133 428.87 132.02Z" fill="black"/>
<path d="M265.735 99.0005C259.002 98.6646 252.756 98.4258 246.528 97.9551C242.995 97.6881 241.203 95.7013 241.758 91.9792C241.855 91.3281 241.792 90.6492 241.768 89.9845C241.501 82.6991 240.574 76.0012 250.659 73.0904C257.307 71.1717 259.222 63.47 259.722 56.5801C259.986 52.9559 259.769 49.2967 259.769 45.4355C262.488 44.5891 263.993 44.8443 263.798 48.0743C263.648 50.5613 263.768 53.0647 263.769 55.5608C263.776 65.6423 267.149 70.5661 276.681 72.7837C279.883 73.5286 280.786 74.931 280.742 77.6229C280.686 81.0855 280.973 84.6737 280.176 87.9824C277.514 99.0394 277.354 99.0009 265.735 99.0005Z" fill="#3283FF"/>
<path d="M220.77 93.9305C220.77 86.1725 220.77 78.9031 220.77 71.3207C222.764 71.3207 224.482 71.3207 226.486 71.3207C226.486 81.3049 226.486 91.336 226.486 101.683C224.78 101.683 223.062 101.683 220.77 101.683C220.77 99.2885 220.77 96.8538 220.77 93.9305Z" fill="#367EFF"/>
<path d="M87.3183 200.812C83.7719 199.112 80.6253 197.488 77.4132 196.006C72.4617 193.722 68.0884 196.087 64.1173 198.418C57.8696 202.085 55.5659 202.222 51.5748 196.149C45.0348 186.199 45.0857 172.316 53.5508 162.641C56.612 159.143 59.6625 159.326 63.0174 161.793C70.4464 167.255 76.3139 167.438 84.0164 162.349C89.6211 158.646 92.3022 158.962 96.1677 165.02C103.414 176.375 102.378 188.78 93.5483 199.325C92.4765 200.605 89.6839 200.444 87.3183 200.812Z" fill="#4868FF"/>
<path d="M429.771 208.834C411.043 210.58 392.698 196.311 389.595 176.717C386.245 155.564 400.464 135.956 420.895 132.103C423.467 131.618 426.208 132.026 429.32 132.541C429.771 136.652 429.771 140.243 429.417 143.8C423.764 143.401 419.979 146.467 419.808 151.566C419.642 156.538 419.846 161.523 419.754 166.499C419.587 175.565 422.452 178.413 430.737 178.576C430.392 188.935 430.082 198.884 429.771 208.834Z" fill="#1A9FFF"/>
<path d="M429.772 143.833C429.772 140.243 429.771 136.652 429.771 132.614C444.445 132.133 458.394 141.525 463.639 156.35C469.011 171.537 466.49 185.877 455.313 197.736C448.819 204.626 440.171 208.155 430.185 208.904C430.082 198.884 430.392 188.935 431.201 178.505C436.528 178.016 441.359 178.044 446.188 177.99C451.305 177.933 454.746 174.902 454.766 170.533C454.786 166.139 451.361 163.082 446.252 163.009C442.825 162.96 439.397 163 435.77 163C435.77 159.184 435.943 156.024 435.728 152.89C435.449 148.836 434.444 145.081 429.772 143.833Z" fill="#14A7FF"/>
<path d="M429.417 143.8C434.444 145.081 435.449 148.836 435.728 152.89C435.943 156.024 435.771 159.184 435.771 163C439.397 163 442.825 162.96 446.252 163.009C451.362 163.082 454.786 166.139 454.766 170.533C454.746 174.902 451.305 177.933 446.188 177.99C441.359 178.044 436.529 178.016 431.235 178.095C422.452 178.413 419.587 175.565 419.755 166.499C419.846 161.523 419.642 156.538 419.809 151.566C419.979 146.467 423.764 143.401 429.417 143.8Z" fill="black"/>
</svg>
