<svg width="567" height="492" viewBox="0 0 567 492" fill="none" xmlns="http://www.w3.org/2000/svg">
<path d="M58.3607 385.254C55.4173 384.652 53.6671 382.795 51.4299 381.069C49.2741 378.492 50.5364 376.099 51.3259 373.797C58.5997 352.585 68.8314 332.818 80.8378 313.943C88.3464 302.138 96.596 290.862 105.464 280.035C108.175 276.725 107.882 276.043 103.632 274.832C102.99 274.649 103.806 274.832 103.161 274.662C94.321 272.329 94.367 272.364 88.7409 279.746C69.1471 305.454 53.3573 333.3 41.5662 363.405C40.7196 365.566 40.0907 367.879 37.3954 369.105C34.8096 367.061 32.5712 364.933 30.2117 362.498C29.0303 359.672 29.7394 357.309 30.7192 354.962C44.446 322.09 61.898 291.452 84.6358 263.885C102.094 242.718 121.72 223.911 144.352 208.407C163.202 195.494 183.23 184.738 205.454 177.594C206.611 177.403 207.283 177.674 208.053 178.558C210.16 180.695 212.056 182.519 214.061 184.652C214.747 188.247 212.064 188.804 210.022 189.546C205.532 191.178 201.144 193.034 196.48 194.928C208.988 200.211 220.668 206.455 231.799 213.765C235.18 215.985 238.086 218.6 240.994 221.815C244.63 226.651 246.125 232.106 248.047 237.714C244.725 240.174 242.712 237.648 240.56 236.014C223.53 223.09 205.256 212.409 185.322 204.539C179.6 202.28 175.563 204.422 170.798 207.997C178.255 211.797 185.469 214.672 192.254 218.467C209.432 228.074 225.516 239.11 240.125 252.33C244.673 256.445 249.715 260.019 252.991 265.79C253.268 266.004 253.194 266.008 253.194 265.971C254.124 269.533 253.388 273.198 253.632 276.824C253.825 279.685 252.293 279.879 250.185 279.011C248.611 278.362 247.497 277.068 246.33 275.888C229.869 259.254 211.577 244.925 191.424 233.071C182.116 227.596 172.361 222.919 162.267 218.946C156.899 216.833 152.64 217.598 148.793 221.875C149.671 223.588 151.491 223.584 152.957 224.084C179.241 233.041 202.65 247.035 224.172 264.417C232.454 271.106 240.289 278.282 248.16 285.429C250.32 287.389 251.861 289.683 252.334 292.865C252.799 296.321 251.223 299.212 251.07 302.688C247.791 304.965 246.032 302.479 244.187 300.696C236.888 293.641 229.95 286.224 222.164 279.659C198.647 259.827 172.921 243.955 143.371 234.671C137.313 232.768 131.941 232.281 127.785 238.059C126.459 239.902 122.805 240.546 123.482 242.928C124.085 245.05 127.465 244.695 129.636 245.374C156.583 253.798 181.075 266.948 204.012 283.31C218.165 293.406 230.659 305.341 243.434 316.995C244.195 317.69 244.608 318.599 245.159 319.833C249.585 322.996 254.538 324.573 258.659 327.93C268.789 336.181 271.856 346.418 268.774 358.858C264.578 375.796 253.181 385.789 237.564 392.143C226.303 396.725 214.299 399.495 203.852 406.092C194.363 412.084 189.266 420.913 187.208 431.601C185.289 441.564 185.669 451.554 188.146 461.421C191.03 472.906 199.211 481.411 212.717 481.109C217.505 481.001 222.244 481.107 226.818 479.282C227.979 478.819 229.446 479.118 230.773 479.072C233.117 478.99 234.562 480.235 235.054 482.386C235.588 484.723 234.78 486.654 232.574 487.825C219.616 494.705 197.275 491.184 187.179 480.577C180.932 474.012 178.367 465.595 177.321 457.042C176.015 446.352 176.202 435.637 178.936 424.906C182.989 408.994 193.367 399.445 207.678 393.04C218.38 388.25 229.919 385.598 240.316 380.043C250.941 374.366 258.002 365.713 259.927 353.897C261.731 342.827 255.987 336.11 244.717 331.077C243.836 330.684 242.895 330.422 241.61 330.101C237.909 331.508 236.315 328.819 234.571 327.033C222.93 315.108 210.418 304.198 196.901 294.457C172.685 277.007 146.641 263.278 117.557 255.821C114.017 254.913 110.537 253.887 107.44 257.337C104.297 260.836 104.263 261.581 108.826 262.667C117.914 264.831 126.639 268 135.273 271.516C159.808 281.507 181.87 295.578 202.602 311.907C212.563 319.752 221.461 328.718 230.391 337.663C232.317 339.593 234.144 341.512 233.36 344.87C232.066 347.054 230.967 348.937 229.563 350.962C229.107 351.172 228.917 351.335 228.807 351.292C222.924 349.028 220.095 352.76 216.827 356.759C209.89 365.247 204.326 374.798 196.403 382.944C196.199 383.225 196.114 383.121 196.166 383.078C195.941 383.261 195.688 383.511 195.31 384.008C190.362 387.702 185.212 390.562 179.481 392.983C177.028 390.033 179.231 387.818 180.5 385.687C189.205 371.074 199.415 357.534 210.227 344.431C211.644 342.713 214.348 341.046 212.519 338.525C210.113 335.207 207.446 331.677 203.015 331.006C201.145 330.723 199.943 332.836 198.819 334.231C183.754 352.937 170.058 372.545 159.528 394.222C158.439 396.464 157.465 398.779 155.407 400.799C152.043 402.638 148.587 403.112 144.609 403.116C141.47 400.756 143.076 398.157 144.089 395.854C149.662 383.182 156.616 371.253 164.079 359.62C171.901 347.427 180.436 335.745 189.889 324.761C192.141 322.144 191.967 320.317 189.253 318.148C181.842 312.226 181.678 311.962 175.684 319.203C163.783 333.581 153.249 348.926 144.062 365.198C137.748 376.381 132.343 387.974 127.658 399.917C126.983 401.638 126.102 403.236 124.393 404.69C121.324 405.359 118.779 403.303 115.51 403.964C112.156 400.42 114.559 397.149 115.746 394.085C121.776 378.522 129.461 363.772 138.114 349.508C146.849 335.11 156.624 321.454 167.322 308.472C169.736 305.542 169.149 303.847 166.216 302.217C162.142 299.953 158.221 297.43 154.186 295.097C151.016 293.264 148.592 293.77 146.352 296.562C136.875 308.374 127.595 320.326 119.555 333.191C107.518 352.455 97.4805 372.683 90.0003 394.156C89.5153 395.548 89.0839 397.042 87.3718 398.055C84.1793 397.406 81.3177 396.621 78.2752 395.509C76.1112 392.154 77.8241 389.367 78.7949 386.625C85.5928 367.427 94.37 349.166 104.95 331.766C113.26 318.1 122.535 305.124 132.749 292.819C133.71 291.661 134.472 290.37 135.381 289.178C136.528 287.675 136.276 286.41 134.553 285.517C134.257 285.363 133.935 285.263 133.639 285.114C122.941 279.728 122.253 279.933 114.762 289.254C97.804 310.356 83.2239 332.945 71.9468 357.593C68.6253 364.853 65.7554 372.306 63.0754 379.831C62.2535 382.139 61.6666 384.75 58.3607 385.254Z" fill="#BE8F77"/>
<path d="M206.112 177.768C205.624 180.181 203.751 180.309 202.252 180.866C172.63 191.871 145.951 207.807 122.106 228.532C84.9233 260.851 57.4961 300.24 37.5574 345.062C35.1246 350.531 32.7914 356.044 30.2516 361.864C23.2401 355.311 18.0359 347.252 13.2012 338.502C12.0444 334.97 12.8275 331.992 14.1433 329.031C27.3365 299.344 44.3199 272.06 65.2008 247.132C89.25 218.421 117.777 195.412 151.206 178.566C160.412 173.926 169.927 169.885 179.755 166.666C182.302 165.831 184.888 165.288 187.918 165.816C191.169 166.305 193.002 168.618 195.724 170.029C200.816 170.614 204.3 172.855 206.112 177.768Z" fill="#D3B299"/>
<path d="M8.35937 326.277C3.70674 317.966 2.06422 309.092 1.09238 299.605C0.891898 292.694 4.32226 287.473 7.21426 282.122C17.9034 262.344 30.1552 243.559 44.6396 226.365C66.1031 200.886 90.7178 179.018 119.928 162.622C127.162 158.561 134.219 154.147 142.876 152.449C153.895 152.97 164.249 155.34 174.698 159.053C175.272 159.221 175.459 159.383 175.799 159.885C176.174 163.78 173.303 164.652 170.921 165.555C154.055 171.956 138.217 180.312 123.029 190.014C112.49 196.746 102.734 204.456 93.2786 212.592C66.9025 235.286 46.0577 262.48 28.3916 292.268C22.7006 301.863 17.6625 311.8 12.8196 321.841C11.8943 323.76 11.2896 325.993 8.35937 326.277Z" fill="#D3B299"/>
<path d="M87.248 398.518C88.4879 388.852 92.6142 380.411 96.3393 371.917C108.524 344.132 124.891 318.907 144.243 295.589C149.037 289.812 149.124 289.732 155.689 293.399C160.485 296.078 165.098 299.08 169.845 301.849C172.776 303.559 173.329 305.048 170.831 308.003C148.97 333.874 131.066 362.207 118.339 393.685C117.095 396.761 116.199 399.979 115.115 403.507C105.602 403.716 96.5438 401.196 87.248 398.518Z" fill="#D3B299"/>
<path d="M245.583 319.972C241.484 319.254 239.073 316.409 236.502 313.836C215.144 292.458 190.834 275.129 163.89 261.574C150.65 254.913 136.933 249.265 122.402 245.887C121.143 245.594 119.44 245.537 118.952 244.229C118.298 242.475 120.154 241.686 121.145 240.691C122.193 239.638 123.788 239.039 124.61 237.867C130.708 229.177 138.348 230.431 147.023 233.397C175.963 243.291 201.331 259.028 224.527 278.746C233.542 286.41 240.999 295.665 250.674 303.012C249.297 308.661 247.597 314.216 245.583 319.972Z" fill="#D3B299"/>
<path d="M58.1982 385.416C62.3474 377.559 64.3719 369.083 67.8555 361.194C79.9736 333.753 95.6831 308.57 115.045 285.69C122.002 277.469 122.197 277.634 132.165 282.043C141.093 285.993 141.2 286.081 135.245 293.256C110.111 323.54 90.8307 357.093 78.2444 394.841C71.0284 393.052 64.7732 389.228 58.1982 385.416Z" fill="#D3B299"/>
<path d="M206.378 178.191C202.838 175.682 199.582 173.229 196.187 170.467C201.241 164.347 207.827 160.159 213.765 155.236C225.671 145.363 238.063 136.078 250.197 126.478C263.634 115.848 277.013 105.146 290.407 94.4616C305.082 82.755 319.744 71.0318 334.423 59.3297C334.658 59.1423 335.034 59.1323 335.695 58.9952C339.719 61.7407 341.739 65.8577 344.294 69.757C332.437 79.4267 320.733 88.7665 309.022 98.0987C295.222 109.096 281.419 120.089 267.614 131.08C253.823 142.061 240.021 153.027 226.24 164.019C220.314 168.747 214.427 173.525 208.393 178.576C207.73 178.663 207.196 178.455 206.378 178.191Z" fill="#8A4A3F"/>
<path d="M0.660637 281.095C-0.0891638 267.073 3.63703 253.952 8.62202 241.202C14.7063 225.639 23.548 211.773 34.4787 199.016C47.5868 183.717 63.2667 172.075 81.2877 163.538C94.8298 157.123 109.189 153.249 124.634 152.171C125.387 155.589 122.517 156.193 120.488 157.357C103.292 167.221 86.8673 178.242 72.3022 191.703C53.0929 209.455 35.5913 228.764 21.273 250.799C15.6585 259.44 10.2571 268.201 5.1002 277.118C4.10767 278.835 3.25388 280.718 0.660637 281.095Z" fill="#D3B299"/>
<path d="M233.482 345.006C233.021 342.93 231.293 341.734 229.937 340.3C207.423 316.492 181.643 296.964 152.56 281.913C137.59 274.165 121.986 267.892 105.473 264.107C100.164 262.891 100.197 262.501 103.373 258.367C107.347 253.194 111.693 251.663 118.396 253.494C149.065 261.872 176.476 276.498 201.886 295.297C215.853 305.631 228.307 317.626 240.942 329.936C239.731 335.506 236.109 339.842 233.482 345.006Z" fill="#D3B198"/>
<path d="M175.487 160.25C175.25 159.929 175.129 159.501 175.107 159.279C180.751 146.112 186.416 133.165 192.085 120.22C201.508 98.7021 210.897 77.1688 220.372 55.6739C226.012 42.8823 231.79 30.152 237.817 17.2256C243.003 16.73 246.687 19.8797 251.08 21.7923C245.63 34.6043 239.957 47.0331 234.42 59.5224C227.279 75.6301 220.255 91.7898 213.167 107.921C204.888 126.762 196.593 145.596 188.151 164.768C182.596 166.559 179.213 165.31 175.487 160.25Z" fill="#8A4A3F"/>
<path d="M175.132 160.268C179.256 161.63 183.262 163.332 187.632 165.068C187.996 165.102 188.141 165.539 188.193 165.764C170.436 172.145 153.082 179.276 136.805 188.915C103.523 208.624 76.0557 234.617 53.3483 265.764C37.104 288.046 23.3916 311.773 13.1141 337.818C10.5741 334.785 9.29987 330.859 8.06152 326.517C12.838 316.851 17.527 307.5 22.4946 298.299C34.3944 276.258 48.851 256.016 65.3868 237.197C89.858 209.347 118.631 187.203 152.056 171.163C157.597 168.505 163.39 166.376 169.015 163.885C171.091 162.966 173.589 162.743 175.132 160.268Z" fill="#BE8F77"/>
<path d="M37.1943 369.494C49.8486 333.984 68.1952 301.901 91.4576 272.587C92.5168 271.252 93.5462 269.914 95.56 270.425C99.9116 271.53 104.251 272.688 108.617 273.733C111.812 274.498 111.746 275.792 109.841 278.141C100.823 289.26 92.177 300.652 84.3333 312.653C70.5044 333.811 59.4861 356.319 51.2037 380.569C46.3008 377.489 41.5487 373.98 37.1943 369.494Z" fill="#D3B198"/>
<path d="M124.581 404.991C123.871 401.419 125.751 398.515 126.98 395.473C139.187 365.274 156.74 338.347 177.413 313.335C179.767 310.487 181.68 309.572 185.215 312.262C196.298 320.697 196.323 320.432 187.561 331.147C170.642 351.836 156.299 374.165 145.334 398.592C144.797 399.786 144.547 401.109 144.172 402.757C137.898 404.805 131.365 403.96 124.581 404.991Z" fill="#D3B299"/>
<path d="M0.231849 281.466C9.28251 265.216 18.5773 249.632 29.5906 235.161C55.524 201.085 86.4508 172.736 124.813 152.455C130.792 152.183 136.522 152.126 142.715 152.16C142.696 153.916 141.246 154.379 139.868 154.995C106.178 170.042 77.8614 192.424 53.3575 219.634C32.0886 243.252 15.1396 269.886 1.21441 298.854C-1.11543 293.528 0.713256 287.667 0.231849 281.466Z" fill="#BF8F77"/>
<path d="M155.701 401.103C153.733 399.67 154.995 398.357 155.593 397.093C166.771 373.474 181.347 352.046 197.894 331.92C202.571 326.232 202.848 326.379 208.462 331.048C217.427 338.501 217.557 338.605 210.34 347.675C199.037 361.88 188.116 376.334 179.206 392.59C171.885 396.882 164.123 399.344 155.701 401.103Z" fill="#D3B299"/>
<path d="M253.208 265.557C246.984 263.286 243.101 257.628 238.137 253.344C217.957 235.927 196.101 221.286 171.445 210.974C169.804 210.288 167.182 210.075 167.038 208.24C166.866 206.05 169.651 205.644 171.211 204.531C176.937 200.449 182.631 200.681 189.047 203.459C208.253 211.774 226.287 221.966 242.701 234.986C244.122 236.113 245.768 236.957 247.639 238.013C250.979 246.853 253.237 255.757 253.208 265.557Z" fill="#D3B198"/>
<path d="M252.535 292.954C242.711 282.372 231.693 273.25 220.515 264.359C198.451 246.809 174.305 232.988 147.251 224.566C146.19 224.236 144.606 224.292 144.299 223.042C143.901 221.425 145.736 221.043 146.617 220.176C151.98 214.899 157.749 214.415 164.777 217.364C190.365 228.101 213.205 242.979 233.99 261.267C240.2 266.731 245.904 272.732 253.158 279.33C253.158 274.303 253.158 270.587 253.176 266.403C255.209 270.854 254.332 276.075 253.871 280.984C253.504 284.882 253.522 288.842 252.535 292.954Z" fill="#D3B198"/>
<path d="M241.203 221.666C238.962 221.836 237.371 220.24 235.627 219.03C222.621 209.998 208.759 202.536 194.234 196.273C193.513 195.963 192.829 195.568 191.082 194.683C199.219 191.385 206.465 188.449 213.94 185.237C225.834 195.089 234.789 207.227 241.203 221.666Z" fill="#D3B198"/>
<path d="M344.57 70.0722C340.237 67.5849 336.711 64.7853 336.094 59.3289C335.159 52.611 340.608 47.3333 347.43 47.9586C353.975 48.5584 358.223 52.6465 358.133 59.4286C358.048 65.8042 353.455 70.0021 346.494 70.0638C345.995 70.0682 345.496 70.0577 344.57 70.0722Z" fill="#BB7362"/>
<path d="M251.599 22.1063C246.362 22.4197 242.063 21.1696 238.434 17.2122C235.637 10.2412 237.322 4.33309 242.628 1.28243C247.012 -1.23794 253.307 0.0681319 256.8 4.22239C261.498 9.81161 259.53 17.0614 251.599 22.1063Z" fill="#BB7362"/>
<path d="M196.552 383.15C198.335 376.031 203.773 370.913 207.833 364.947C210.99 360.308 214.657 356.009 218.202 351.643C222.962 345.782 223.006 345.817 228.968 350.941C220.502 363.814 209.933 374.69 196.552 383.15Z" fill="#D3B198"/>
<path d="M195.421 384.115C195.391 383.959 195.621 383.687 196.035 383.225C196.039 383.356 195.86 383.678 195.421 384.115Z" fill="#D3B198"/>
<path d="M360.462 347.181C360.514 333.177 360.566 319.174 360.978 304.58C361.983 303.824 362.618 303.591 363.274 303.503C392.814 299.522 422.03 293.935 450.757 285.907C451.8 285.616 452.927 285.622 453.659 285.533C454.3 289.894 454.026 294.296 455.664 297.804C458.562 304.01 458.368 309.52 455.296 315.436C454.632 316.714 455.555 318.816 455.747 320.539C457.271 319.653 459.431 319.142 460.213 317.818C464.247 310.985 465.439 303.849 461.195 296.542C458.842 292.49 459.488 288.668 462.435 284.309C463.562 286.253 464.551 287.718 465.305 289.295C471.307 301.846 472.832 314.999 470.906 328.726C470.668 330.422 472.395 332.394 473.212 334.238C474.328 332.651 476.155 331.185 476.447 329.459C478.48 317.435 477.419 305.582 473.488 294.034C472.291 290.519 470.732 287.127 469.188 283.305C482.436 284.064 495.019 284.785 507.607 285.943C506.951 292.978 506.608 299.629 505.571 306.168C502.118 327.929 497.61 349.449 486.684 368.928C478.942 382.729 468.907 394.128 451.845 395.745C445.961 396.303 439.916 395.684 433.986 395.149C405.746 392.602 383.03 380.194 366.448 356.949C364.745 354.562 362.692 352.424 360.74 349.799C360.607 348.678 360.534 347.93 360.462 347.181Z" fill="#D3B299"/>
<path d="M360.583 244.103C360.607 231.788 360.632 219.473 360.949 206.936C365.9 211.607 369.62 210.72 371.604 204.338C373.531 198.139 375.452 191.93 377.641 185.821C379.51 180.606 381.756 175.525 383.835 170.385C384.515 170.389 385.194 170.393 385.874 170.396C387.126 173.839 388.497 177.244 389.602 180.734C391.251 185.938 391.995 191.561 394.401 196.366C399.48 206.511 409.457 209.63 417.565 204.084C422.71 200.565 424.564 194.958 425.548 189.084C426.316 184.5 426.625 179.821 427.667 175.307C429.207 168.631 434.581 166.945 439.447 171.777C441.822 174.135 443.504 177.415 444.828 180.56C447.212 186.228 448.694 192.292 451.277 197.854C454.9 205.655 462.057 207.013 467.582 200.457C471.52 195.784 473.885 189.747 476.731 184.205C478.994 179.796 480.346 174.811 483.145 170.81C486.716 165.705 491.38 166.607 493.672 172.411C494.699 175.012 495.208 177.844 495.729 180.612C497.2 188.421 499.903 195.381 507.666 199.533C508.306 218.038 508.96 236.095 509.401 254.409C506.703 256.328 504.332 258.215 501.681 259.544C500.538 260.117 498.427 260.094 497.418 259.392C488.393 253.11 480.363 253.409 472.295 260.934C468.703 264.283 465.518 268.068 463.565 270.147C459.225 266.613 455.048 263.068 450.722 259.718C439.051 250.68 427.853 254.067 423.477 268.331C420.813 267.667 418.099 267.054 415.421 266.312C396.29 261.015 378.012 253.605 360.583 244.103Z" fill="#D3B299"/>
<path d="M360.791 203.132C360.736 177.033 360.433 150.929 360.77 124.835C360.881 116.221 367.02 110.952 378.298 110.217C395.862 109.073 413.443 108.184 431.014 107.132C431.936 107.077 432.828 106.52 434.492 106.384C439.399 106.405 443.546 106.238 447.694 106.071C460.863 106.162 474.032 106.254 487.176 106.935C480.953 109.788 485.212 113.359 486.236 116.246C490.837 129.223 495.76 142.087 500.252 155.101C501.1 157.556 500.517 160.504 500.311 163.042C490.996 154.544 481.226 155.237 474.233 165.603C470.775 170.729 469.055 177.022 466.495 182.763C464.951 186.224 463.302 189.639 461.701 193.074C461.086 192.959 460.471 192.844 459.856 192.728C458.768 189.486 457.566 186.277 456.615 182.994C454.409 175.373 451.397 168.363 445.064 163.025C436.105 155.473 422.733 158.545 418.769 169.5C417.651 172.59 417.285 175.957 416.621 179.206C415.727 183.589 415.36 188.151 413.885 192.324C412.173 197.168 407.558 197.728 404.723 193.452C402.761 190.493 401.76 186.844 400.625 183.405C398.914 178.221 398.01 172.697 395.742 167.79C393.525 162.994 389.407 159.203 383.676 159.424C377.941 159.644 375.278 163.96 373.461 169.005C369.348 180.421 365.027 191.761 360.791 203.132Z" fill="#D3B299"/>
<path d="M360.801 350.17C362.692 352.424 364.745 354.562 366.448 356.949C383.03 380.194 405.745 392.602 433.985 395.149C439.916 395.684 445.96 396.303 451.844 395.745C468.907 394.128 478.942 382.729 486.684 368.927C497.61 349.449 502.117 327.929 505.57 306.168C506.608 299.628 506.951 292.978 508.068 285.877C513.238 285.627 517.952 285.879 522.666 286.132C522.324 316.494 521.983 346.857 521.484 377.888C521.254 379.103 521.182 379.648 521.012 380.648C520.825 383.43 520.695 385.757 520.653 388.086C520.447 399.663 515.951 404.835 504.519 407.29C482.343 412.053 459.932 415.087 437.284 415.843C415.576 416.568 394.033 414.947 373.16 408.266C364.723 405.565 360.796 400.034 360.682 391.142C360.613 385.817 360.557 380.491 360.544 374.7C360.663 366.212 360.732 358.191 360.801 350.17Z" fill="#D1AC90"/>
<path d="M360.495 375.166C360.557 380.492 360.613 385.817 360.681 391.142C360.796 400.034 364.723 405.565 373.16 408.266C394.033 414.947 415.576 416.568 437.284 415.843C459.932 415.087 482.343 412.053 504.519 407.291C515.951 404.835 520.447 399.663 520.653 388.086C520.695 385.757 520.825 383.43 521.334 380.733C530.755 383.211 538.828 387.776 545.865 394.01C552.51 399.898 552.476 405.592 544.767 409.451C535.944 413.867 526.583 417.988 516.989 419.935C493.12 424.78 468.989 428.331 444.957 432.366C440.518 433.111 436.051 433.689 431.597 434.344C431.613 434.791 431.63 435.238 431.646 435.685C435.975 436.182 440.303 436.68 445.072 437.178C455.833 439.105 466.164 440.969 476.466 442.983C481.369 443.942 483.331 447.139 482.618 452.036C460.887 452.07 439.156 452.105 416.98 451.713C415.387 450.586 414.318 449.51 413.078 449.251C408.864 448.37 404.516 448.069 400.355 447.012C393.272 445.211 385.962 443.372 381.391 437.017C377.845 432.087 376.169 431.193 370.58 433.279C367.864 432.563 365.147 431.847 361.912 430.756C360.169 429.601 358.969 428.782 357.718 428.051C347.71 422.205 337.463 416.729 327.756 410.423C320.829 405.923 320.281 399.923 326.703 394.927C333.95 389.289 342.287 385.055 350.123 380.166C352.016 378.984 353.8 377.626 355.634 376.349C356.732 375.954 357.83 375.558 359.494 375.14C360.06 375.117 360.495 375.166 360.495 375.166Z" fill="#974E59"/>
<path d="M434.594 99.2712C413.918 97.2128 408.958 84.5187 407.61 67.456C405.534 41.1779 417.518 21.0994 435.602 3.73748C442.363 -2.75344 455.086 -0.517203 459.559 8.33383C469.376 27.7618 476.325 48.0528 474.556 70.2814C473.785 79.9724 468.944 89.5568 456.823 93.5514C454.063 94.4607 451.285 95.3112 447.871 95.9231C447.088 94.089 446.95 92.5205 447.114 90.8418C452.755 87.9077 455.364 83.2488 454.227 77.5259C452.739 70.0398 450.466 62.6835 448.063 55.426C447.523 53.7951 445.161 52.0051 443.433 51.766C441.997 51.5673 439.532 53.1614 438.781 54.6126C435.343 61.2572 432.025 68.0039 429.287 74.9591C426.701 81.5275 429.476 87.5062 435.563 90.5798C435.259 93.7655 434.927 96.5184 434.594 99.2712Z" fill="#DAA252"/>
<path d="M523.004 285.991C517.952 285.879 513.239 285.627 508.063 285.441C495.019 284.785 482.436 284.064 469.187 283.305C470.731 287.127 472.291 290.519 473.488 294.034C477.418 305.582 478.48 317.435 476.447 329.459C476.155 331.185 474.328 332.651 473.211 334.238C472.395 332.394 470.667 330.422 470.905 328.726C472.832 314.999 471.306 301.846 465.305 289.295C464.551 287.718 463.562 286.253 462.435 284.309C459.487 288.668 458.841 292.49 461.195 296.542C465.439 303.849 464.247 310.985 460.212 317.818C459.43 319.142 457.271 319.653 455.746 320.539C455.555 318.816 454.632 316.714 455.296 315.436C458.368 309.52 458.561 304.01 455.664 297.804C454.025 294.296 454.299 289.894 453.659 285.533C452.927 285.622 451.8 285.616 450.757 285.907C422.03 293.935 392.814 299.522 363.273 303.503C362.618 303.591 361.982 303.824 360.947 304.116C356.661 302.295 356.527 301.1 360.658 298.132C388.29 294.261 414.979 289.658 441.075 281.921C438.231 281.331 435.457 281.394 432.687 281.319C424.049 281.085 415.401 281.007 406.779 280.486C391.368 279.555 375.973 278.344 360.571 277.251C356.666 275.31 356.527 274.122 360.661 271.186C382.955 272.929 404.45 274.678 425.945 276.428C424.775 274.961 423.453 274.414 422.083 274.054C401.924 268.762 382.327 261.981 363.827 252.252C362.84 251.733 361.653 251.595 360.559 251.28C357.86 249.168 355.37 247.035 360.213 244.151C378.012 253.605 396.29 261.015 415.421 266.312C418.099 267.054 420.813 267.667 423.477 268.331C427.853 254.067 439.051 250.68 450.722 259.718C455.048 263.068 459.225 266.613 463.565 270.147C465.518 268.068 468.703 264.283 472.295 260.934C480.363 253.409 488.393 253.109 497.418 259.392C498.427 260.094 500.538 260.117 501.681 259.544C504.332 258.215 506.703 256.328 509.704 254.269C514.036 250.614 517.85 247.357 521.665 244.099C525.812 246.21 525.835 247.219 521.368 251.974C514.89 256.799 508.813 261.075 502.904 265.572C500.973 267.041 499.478 269.083 497.784 270.864C498.159 271.478 498.535 272.092 498.91 272.706C506.505 270.176 514.1 267.647 521.695 265.117C525.525 267.103 525.734 269.182 521.647 272.003C512.053 274.383 503.189 276.65 494.163 278.959C497.214 279.291 500.155 279.905 503.088 279.869C509.298 279.793 515.504 279.378 521.712 279.102C526.117 280.418 525.069 283.053 523.004 285.991ZM435.919 260.729C433.977 262.336 432.035 263.943 430.093 265.55C432.194 267.468 433.996 270.354 436.454 271.113C442.694 273.039 449.228 274.011 456.114 275.464C452.681 266.813 444.166 260.527 435.919 260.729ZM492.17 262.566C484.079 258.296 474.804 262.667 468.402 274.945C477.262 271.065 484.897 267.73 492.505 264.335C492.698 264.249 492.591 263.492 492.17 262.566Z" fill="#BB7242"/>
<path d="M360.708 203.516C365.026 191.761 369.348 180.421 373.46 169.005C375.278 163.96 377.94 159.644 383.676 159.424C389.407 159.203 393.525 162.994 395.741 167.79C398.009 172.697 398.913 178.221 400.624 183.405C401.759 186.844 402.761 190.493 404.722 193.452C407.558 197.728 412.172 197.168 413.884 192.324C415.359 188.151 415.726 183.589 416.621 179.206C417.284 175.957 417.651 172.59 418.769 169.5C422.732 158.545 436.104 155.473 445.064 163.025C451.396 168.363 454.408 175.373 456.615 182.994C457.565 186.277 458.767 189.486 459.855 192.728C460.47 192.844 461.085 192.959 461.701 193.074C463.302 189.639 464.95 186.224 466.494 182.763C469.055 177.022 470.774 170.729 474.233 165.603C481.225 155.237 490.995 154.544 500.471 163.355C502.796 169.831 504.499 175.875 506.633 181.763C507.6 184.431 509.421 186.79 511.487 190.392C514.209 184.988 516.333 181.34 521.489 182.173C526.053 186.506 524.627 190.993 521.308 195.909C516.416 197.23 512.049 198.158 507.681 199.086C499.903 195.381 497.2 188.421 495.729 180.612C495.207 177.844 494.698 175.012 493.672 172.411C491.38 166.607 486.716 165.705 483.144 170.81C480.346 174.811 478.994 179.796 476.73 184.205C473.885 189.747 471.52 195.784 467.582 200.457C462.057 207.013 454.9 205.655 451.277 197.854C448.693 192.292 447.212 186.228 444.827 180.56C443.504 177.415 441.822 174.135 439.447 171.777C434.581 166.945 429.207 168.631 427.666 175.307C426.624 179.821 426.316 184.5 425.548 189.084C424.564 194.958 422.709 200.565 417.564 204.084C409.457 209.63 399.48 206.511 394.401 196.366C391.995 191.561 391.25 185.938 389.602 180.734C388.497 177.244 387.126 173.839 385.873 170.396C385.194 170.393 384.514 170.389 383.835 170.385C381.756 175.525 379.51 180.606 377.641 185.821C375.451 191.93 373.531 198.139 371.603 204.338C369.619 210.72 365.899 211.607 361.013 206.474C360.732 205.457 360.679 204.678 360.708 203.516Z" fill="#BE8F77"/>
<path d="M521.555 181.71C516.333 181.34 514.21 184.988 511.487 190.392C509.421 186.79 507.6 184.431 506.633 181.763C504.5 175.875 502.796 169.831 500.756 163.537C500.517 160.504 501.099 157.556 500.252 155.101C495.76 142.087 490.837 129.223 486.236 116.246C485.212 113.358 480.952 109.788 487.417 107.297C489.387 107.111 491.09 107.153 493.348 107.577C495.494 107.994 497.087 108.029 498.679 108.063C499.736 108.106 500.794 108.15 502.389 108.588C506.536 110.034 510.144 111.086 513.752 112.138C514.981 113.248 516.21 114.357 517.662 115.961C518.041 116.723 518.234 116.959 518.465 117.165C519.187 120.12 520.46 123.061 520.531 126.032C520.783 136.679 520.505 147.337 520.669 157.988C520.789 165.743 521.29 173.494 521.555 181.71Z" fill="#D1AC90"/>
<path d="M444.631 437.177C440.303 436.68 435.974 436.182 431.646 435.685C431.63 435.238 431.613 434.791 431.597 434.344C436.051 433.689 440.518 433.111 444.957 432.366C468.989 428.331 493.12 424.78 516.989 419.935C526.583 417.988 535.944 413.867 544.767 409.451C552.476 405.592 552.51 399.898 545.865 394.01C538.828 387.776 530.755 383.21 521.432 380.279C521.182 379.648 521.254 379.103 521.524 378.353C532.723 381.836 543.791 385.34 554.681 389.328C557.655 390.416 560.405 392.641 562.719 394.896C568.157 400.197 567.325 407.404 561.438 412.303C552.158 420.025 540.884 423.02 529.66 426.133C524.318 427.615 518.849 428.639 512.673 430.065C510.282 430.553 508.666 431.008 507.026 431.115C490.875 432.171 474.708 433.013 458.574 434.28C453.88 434.648 449.276 436.179 444.631 437.177Z" fill="#924C51"/>
<path d="M355.228 376.289C353.8 377.626 352.016 378.984 350.123 380.166C342.287 385.055 333.95 389.289 326.703 394.927C320.281 399.923 320.829 405.923 327.756 410.423C337.463 416.729 347.71 422.205 357.718 428.051C358.969 428.782 360.169 429.601 361.513 430.695C348.495 427.739 335.165 425.066 322.3 420.941C315.973 418.913 310.066 414.755 304.766 410.554C298.408 405.515 300.835 397.518 306.597 393.128C316.653 385.465 328.621 382.509 340.443 379.239C345.153 377.936 350.023 377.214 355.228 376.289Z" fill="#924C51"/>
<path d="M360.594 277.712C375.973 278.344 391.367 279.555 406.779 280.486C415.4 281.007 424.049 281.085 432.686 281.319C435.457 281.394 438.231 281.331 441.075 281.921C414.979 289.658 388.29 294.261 361.029 298.074C360.619 291.441 360.618 284.808 360.594 277.712Z" fill="#D2B097"/>
<path d="M445.072 437.178C449.276 436.179 453.88 434.648 458.574 434.28C474.708 433.013 490.875 432.171 507.026 431.115C508.666 431.008 510.282 430.553 512.33 430.244C512.887 440.284 500.229 452.9 488.969 451.313C488.086 451.599 487.861 451.798 487.671 452.037C486.265 452.081 484.859 452.124 483.035 452.102C483.331 447.139 481.369 443.942 476.466 442.983C466.164 440.969 455.833 439.105 445.072 437.178Z" fill="#904C4B"/>
<path d="M507.667 199.533C512.049 198.158 516.417 197.23 521.145 196.243C521.549 211.849 521.591 227.514 521.649 243.639C517.85 247.357 514.036 250.614 509.918 254.011C508.96 236.094 508.306 218.038 507.667 199.533Z" fill="#D1AC90"/>
<path d="M360.587 251.739C361.653 251.595 362.84 251.733 363.827 252.252C382.327 261.981 401.924 268.762 422.082 274.054C423.453 274.414 424.774 274.961 425.945 276.428C404.45 274.678 382.955 272.929 361.032 271.133C360.608 264.79 360.612 258.494 360.587 251.739Z" fill="#D2B097"/>
<path d="M434.61 99.6973C434.927 96.5183 435.259 93.7655 435.573 90.1173C435.557 86.9055 435.537 84.5889 435.566 82.2729C435.629 77.1887 437.638 74.3207 441.245 74.6485C446 75.0808 446.869 78.4565 446.727 82.5177C446.629 85.3247 446.775 88.1402 446.812 90.9519C446.95 92.5204 447.088 94.089 447.479 95.9582C447.701 99.2341 447.669 102.209 447.666 105.627C443.546 106.238 439.399 106.405 434.915 106.333C434.595 104.104 434.611 102.114 434.61 99.6973Z" fill="#BB7242"/>
<path d="M370.6 433.652C376.168 431.193 377.844 432.087 381.391 437.017C385.961 443.372 393.271 445.211 400.355 447.011C404.516 448.069 408.864 448.37 413.078 449.251C414.317 449.51 415.387 450.586 416.589 451.661C409.608 452.08 402.571 452.127 394.909 451.946C394.043 451.515 393.78 451.349 393.493 451.221C383.804 452.536 372.127 443.058 370.6 433.652Z" fill="#904C4B"/>
<path d="M521.666 264.66C514.1 267.647 506.505 270.176 498.91 272.706C498.535 272.092 498.159 271.478 497.784 270.863C499.478 269.083 500.973 267.041 502.904 265.572C508.813 261.075 514.89 256.799 521.196 252.284C521.539 256.155 521.588 260.179 521.666 264.66Z" fill="#D1AC90"/>
<path d="M521.676 278.672C515.504 279.378 509.298 279.793 503.088 279.869C500.155 279.905 497.214 279.291 494.163 278.959C503.189 276.65 512.053 274.383 521.318 272.169C521.692 274.229 521.666 276.236 521.676 278.672Z" fill="#D1AC90"/>
<path d="M360.544 374.7C360.495 375.166 360.06 375.117 359.845 375.073C359.666 365.903 359.703 356.775 360.1 347.414C360.534 347.929 360.607 348.678 360.74 349.799C360.732 358.191 360.663 366.212 360.544 374.7Z" fill="#FFFF00"/>
<path d="M513.591 111.804C510.144 111.086 506.535 110.034 502.779 108.663C506.231 109.386 509.83 110.428 513.591 111.804Z" fill="#D3B299"/>
<path d="M498.481 107.728C497.087 108.029 495.494 107.994 493.767 107.653C495.182 107.361 496.733 107.377 498.481 107.728Z" fill="#D3B299"/>
<path d="M518.494 116.9C518.234 116.959 518.041 116.723 517.775 116.254C517.951 116.247 518.237 116.441 518.494 116.9Z" fill="#D3B299"/>
<path d="M393.592 451.461C393.78 451.349 394.043 451.515 394.442 451.89C394.297 451.943 393.994 451.822 393.592 451.461Z" fill="#974E59"/>
<path d="M487.92 452.022C487.861 451.798 488.086 451.599 488.542 451.324C488.549 451.477 488.359 451.742 487.92 452.022Z" fill="#974E59"/>
<path d="M447.114 90.8418C446.775 88.1402 446.629 85.3247 446.727 82.5177C446.869 78.4566 446 75.0808 441.245 74.6485C437.638 74.3207 435.629 77.1887 435.566 82.2729C435.537 84.5889 435.557 86.9055 435.544 89.6844C429.476 87.5062 426.701 81.5275 429.287 74.959C432.025 68.0038 435.343 61.2572 438.781 54.6126C439.532 53.1614 441.997 51.5673 443.433 51.766C445.161 52.0051 447.523 53.7951 448.063 55.426C450.466 62.6835 452.739 70.0398 454.227 77.5259C455.364 83.2488 452.755 87.9077 447.114 90.8418Z" fill="#F4E0CA"/>
<path d="M436.287 260.619C444.166 260.527 452.681 266.813 456.114 275.464C449.228 274.011 442.694 273.039 436.454 271.113C433.996 270.354 432.194 267.468 430.093 265.55C432.035 263.943 433.977 262.336 436.287 260.619Z" fill="#D2B097"/>
<path d="M492.397 262.807C492.591 263.492 492.698 264.249 492.505 264.335C484.897 267.73 477.262 271.065 468.401 274.945C474.803 262.667 484.079 258.296 492.397 262.807Z" fill="#D2B097"/>
</svg>
