<svg width="512" height="512" viewBox="0 0 512 512" fill="none" xmlns="http://www.w3.org/2000/svg">
<path d="M288 512C266.979 512 245.958 512 224.771 511.631C223.765 510.843 222.967 510.213 222.079 510.036C209.423 507.517 196.491 505.97 184.143 502.401C157.618 494.733 132.945 482.979 110.135 467.13C86.7066 450.852 66.6378 431.164 49.4827 408.648C37.4998 392.921 27.6365 375.682 20.0347 357.3C11.2075 335.956 4.6008 314.003 1.92244 290.969C1.83861 290.248 0.665362 289.653 0 289C1e-06 267.312 9.83477e-07 245.625 0.364647 223.77C1.14674 222.933 1.80261 222.31 1.94614 221.585C4.39094 209.242 5.81072 196.602 9.35557 184.588C18.4352 153.816 32.4531 125.468 52.319 99.9684C67.1983 80.8692 84.1282 63.9425 103.339 49.4793C119.14 37.5834 136.302 27.6124 154.697 20.042C176.05 11.2542 197.985 4.56107 221.032 1.92226C221.752 1.83981 222.347 0.66536 223 0C244.354 3e-06 265.708 3.01003e-06 287.229 0.368819C288.235 1.15706 289.032 1.77984 289.921 1.96536C302.848 4.66499 315.907 6.83417 328.696 10.0714C348.088 14.9799 366.159 23.2969 383.548 33.1268C398.976 41.8478 413.578 51.8822 426.301 64.1219C438.152 75.5233 449.284 87.7889 459.762 100.476C476.396 120.618 488.325 143.538 497.075 168.161C503.357 185.84 508.411 203.766 510.094 222.532C510.143 223.074 511.339 223.513 512 224C512 245.021 512 266.042 511.631 287.229C510.842 288.402 510.207 289.373 510.037 290.419C508.894 297.458 508.32 304.623 506.688 311.542C500.652 337.125 491.671 361.567 478.318 384.367C469.358 399.666 459.228 414.112 447.229 427.063C435.04 440.218 422.09 452.619 407.443 463.226C388.688 476.809 368.721 487.975 347.024 495.995C328.39 502.882 309.387 508.367 289.467 510.094C288.927 510.141 288.487 511.339 288 512ZM66.4487 99.1203C66.2852 99.4635 66.1217 99.8067 65.5325 100.644C63.3239 103.572 61.1153 106.5 58.2751 109.766C52.1661 119.041 45.4701 127.987 40.0549 137.65C21.6266 170.536 11.4963 205.999 10.1996 243.642C9.65226 259.532 10.4527 275.611 12.3595 291.396C13.8978 304.13 18.0179 316.553 21.0894 329.858C23.7581 336.601 26.4268 343.343 29.0215 350.837C30.218 353.92 31.2264 357.092 32.6393 360.072C54.5143 406.214 87.4036 442.399 131.283 468.48C146.615 477.593 162.705 485.177 180.446 490.624C209.401 499.901 239.079 503.547 269.415 501.973C272.196 501.829 274.959 501.325 278.656 501.072C280.652 500.982 282.666 501.035 284.64 500.779C307.814 497.773 330.29 492.155 351.837 482.963C384.926 468.847 413.666 448.623 438.537 421.741C441.48 418.203 444.667 414.839 447.318 411.094C454.34 401.177 461.129 391.095 468.53 380.629C473.176 371.448 478.259 362.46 482.386 353.052C494.369 325.731 501.142 297.054 501.843 267.24C502.197 252.192 500.658 237.1 499.977 221.195C496.94 207.721 493.903 194.248 490.499 180.178C475.925 135.96 451.081 98.5235 415.637 68.3762C374.972 33.7884 327.726 14.3927 274.576 10.2941C241.442 7.73898 208.828 11.6642 177.22 22.4605C137.687 35.9636 103.769 58.1631 75.1934 88.5565C72.1704 91.7718 69.7057 95.5119 67.0148 99.0028C67.0148 99.0028 67.0126 98.9686 66.4487 99.1203Z" fill="#FEFEFF"/>
<path d="M66.982 99.0086C69.7057 95.512 72.1704 91.7718 75.1934 88.5566C103.769 58.1631 137.687 35.9636 177.22 22.4606C208.828 11.6642 241.442 7.73903 274.576 10.2941C327.726 14.3927 374.972 33.7885 415.637 68.3763C451.081 98.5236 475.925 135.96 490.262 180.554C483.223 180.677 476.351 179.678 469.631 180.306C445.029 182.605 423.476 192.711 404.606 208.241C396.888 214.593 389.099 216.092 379.625 214.335C373.046 213.114 366.141 212.734 359.467 213.204C353.094 213.652 347.349 216.657 341.893 222.028C395.348 222.028 447.661 222.028 499.974 222.028C500.658 237.1 502.197 252.192 501.843 267.24C501.142 297.054 494.369 325.731 482.386 353.052C478.259 362.46 473.176 371.448 467.85 380.802C457.756 381.151 448.2 380.351 438.957 381.698C417.14 384.875 398.445 395.413 381.638 409.203C374.77 414.838 367.582 416.283 359.344 414.299C347.888 411.541 336.647 410.813 326.121 417.455C324.457 418.505 323.004 419.891 320.469 421.902C323.826 421.902 325.652 421.9 327.477 421.902C364.289 421.946 401.1 421.99 437.912 422.033C413.666 448.623 384.926 468.847 351.837 482.963C330.29 492.155 307.814 497.773 284.64 500.779C282.666 501.035 280.652 500.982 278.205 500.561C277.757 494.435 277.761 488.819 278.164 483.111C279.392 481.766 280.839 480.567 280.954 479.252C282.419 462.485 283.302 445.656 285.22 428.945C285.933 422.73 285.323 418.637 278.9 416.424C279.379 411.304 279.819 406.635 280.485 401.753C282.478 400.027 284.053 398.171 286.042 397.056C301.461 388.417 308.562 374.145 313.163 357.981C315.07 351.283 317.305 344.629 320.018 338.22C324.831 326.853 333.348 319.857 345.749 317.724C355.614 316.028 365.282 316.635 374.938 319.077C376.48 319.467 378.251 318.955 380.273 318.782C384.867 317.048 384.633 314.02 383.192 310.548C374.744 290.204 351.349 279.039 332.083 281.739C319.855 283.452 307.722 286.673 295.925 290.412C282.474 294.675 270.808 291.893 260.718 283.105C254.177 277.409 248.927 270.229 243.01 263.363C242.257 260.788 241.443 258.597 240.95 256.335C235.28 230.343 229.927 204.278 223.917 178.364C220.669 164.361 215.785 150.783 205.762 139.955C199.915 133.639 193.042 128.494 183.718 128.933C177.256 129.237 174.303 133.414 175.821 139.651C178.024 148.699 180.395 157.708 182.474 166.784C184.87 177.246 187.028 187.764 189.289 198.257C183.617 189.277 178.856 179.99 173.852 170.837C166.014 156.502 157.924 142.343 145.779 131.003C138.854 124.537 130.816 121.963 121.492 123.049C112.588 124.085 109.875 129.548 114.481 137.148C114.807 137.685 114.883 138.373 114.625 139.114C111.393 139.171 108.549 138.715 105.845 139.143C102.905 139.609 99.4368 140.01 98.7175 144.374C98.9687 145.679 99.4548 146.755 100.072 148.155C105.379 155.662 110.555 162.848 115.753 170.4C116.435 171.341 117.096 171.914 117.892 172.786C126.93 185.932 136.551 198.354 144.53 211.753C152.146 224.542 160.006 237.764 164.222 251.854C169.682 270.102 177.608 287.19 184.336 304.828C191.623 323.932 196.496 343.509 194.955 364.194C193.77 380.084 192.462 395.965 190.791 411.9C186.125 412.237 182.938 412.968 182.708 418.655C182.254 429.869 180.917 441.045 180.025 452.243C179.591 457.683 179.342 463.138 178.996 468.585C178.82 471.355 179.709 473.163 182.763 473.375C181.753 479.204 180.846 484.65 179.939 490.095C162.705 485.177 146.615 477.593 131.283 468.48C87.4036 442.399 54.5143 406.214 32.6392 360.072C31.2263 357.092 30.2179 353.92 29.5177 350.488C75.1178 350.138 120.222 350.138 165.325 350.138C165.623 349.459 165.92 348.781 166.218 348.102C155.174 339.971 144.57 331.142 132.993 323.858C111.164 310.125 87.3394 305.364 61.8541 311.194C47.1074 314.568 33.6986 321.055 20.9926 329.113C18.0179 316.553 13.8977 304.13 12.3595 291.396C10.4526 275.611 9.65221 259.532 10.1995 243.642C11.4962 205.999 21.6265 170.536 40.0549 137.65C45.47 127.987 52.166 119.041 59.0509 109.749C115.155 109.767 170.483 109.804 225.811 109.816C226.392 109.817 226.974 109.508 227.958 109.23C227.226 108.256 226.857 107.51 226.272 107.025C219.101 101.086 212.179 94.7959 204.646 89.3524C187.201 76.7452 168.103 68.2814 146.096 67.9859C119.977 67.6351 97.5195 77.5585 76.8433 92.5664C73.6696 94.8701 70.2746 96.8688 66.982 99.0086ZM287.989 59.1337C286.599 59.9146 285.21 60.6955 283.118 61.7116C272.326 66.3813 263.675 73.7092 256.886 83.2174C243.409 102.095 240.777 122.739 246.949 145.49C247.64 146.624 248.331 147.759 249.197 149.598C250.507 152.28 251.609 155.09 253.16 157.625C271.193 187.098 303.404 198.234 337.802 186.898C338.611 186.297 339.42 185.697 340.909 184.952C375.921 167.892 390.014 127.297 373.009 92.1199C372.357 91.3217 371.704 90.5234 370.898 89.073C355.215 61.3868 320.407 47.5741 287.989 59.1337ZM90.9733 207.696C90.5124 211.822 90.3141 215.998 89.5352 220.062C87.9702 228.228 85.3347 230.589 77.1296 232.007C74.8098 232.408 72.5027 232.883 70.1898 233.324C70.1976 233.766 70.2053 234.209 70.2131 234.651C73.3575 235.284 76.4762 236.215 79.6516 236.49C86.4166 237.075 89.7265 240.804 90.4501 247.298C90.615 248.779 90.963 250.238 91.1866 251.713C91.7131 255.185 92.2155 258.661 92.7276 262.135C94.2298 261.141 94.7208 260.16 94.8897 259.126C95.6387 254.542 96.4462 249.959 96.9477 245.345C97.6005 239.338 101.056 236.193 106.699 234.961C109.363 234.379 112.006 233.7 114.659 233.065C113.306 231.553 111.968 231.2 110.61 230.961C98.0609 228.756 96.8804 227.557 94.966 214.988C94.841 214.168 94.6982 213.35 94.544 212.534C93.9705 209.501 93.3887 206.471 92.8101 203.439C92.3608 203.508 91.9115 203.576 91.4623 203.645C91.3032 204.717 91.1441 205.789 90.9733 207.696ZM428.91 114.505C428.133 110.46 427.355 106.414 426.577 102.369C426.108 102.416 425.64 102.463 425.171 102.511C424.779 106.733 424.383 110.956 423.994 115.179C422.947 126.552 420.126 129.489 408.789 131.171C407.183 131.41 405.629 131.994 404.051 132.418C405.969 133.917 407.671 134.415 409.407 134.729C422.665 137.131 423.423 137.944 425.149 151.533C425.548 154.677 426.09 157.804 426.566 160.939C426.992 160.958 427.418 160.978 427.845 160.997C428.182 159.66 428.614 158.338 428.841 156.982C429.552 152.725 430.381 148.476 430.805 144.188C431.403 138.141 434.737 134.969 440.505 133.853C443.075 133.356 445.594 132.596 448.136 131.955C448.1 131.528 448.064 131.1 448.027 130.673C446.336 130.302 444.658 129.694 442.952 129.601C433.894 129.107 429.594 124.065 428.91 114.505ZM437.792 287.832C437.383 286.012 436.974 284.192 436.566 282.372C436.111 282.408 435.656 282.444 435.201 282.479C434.804 286.478 434.334 290.47 434.023 294.475C433.084 306.569 430.521 309.329 418.483 311.175C416.993 311.404 415.549 311.938 414.084 312.33C414.102 312.767 414.12 313.203 414.138 313.64C416.971 314.139 419.808 314.616 422.635 315.142C431.121 316.721 432.499 317.98 434.174 326.429C435.119 331.194 435.748 336.021 436.52 340.82C438.076 339.488 438.577 338.054 438.833 336.577C439.569 332.327 440.411 328.079 440.833 323.793C441.416 317.874 444.87 315.016 450.332 313.888C452.948 313.348 455.534 312.665 459.175 311.8C457.579 310.786 457.062 310.17 456.551 310.175C443.727 310.283 438.672 302.921 438.129 291.157C438.091 290.328 437.964 289.502 437.792 287.832ZM260.323 243.517C262.914 226.466 265.505 209.414 268.097 192.363C267.699 192.243 267.3 192.124 266.902 192.004C266.255 193.581 265.376 195.105 264.999 196.745C263.332 204.008 261.533 211.258 260.308 218.6C258.946 226.768 258.092 235.024 257.197 243.261C257.087 244.269 258.086 245.397 258.571 246.469C259.111 245.749 259.651 245.029 260.323 243.517ZM277.902 223.307C275.192 235.372 272.307 247.417 273.182 260.008C274.471 259.112 275.031 258.057 275.261 256.933C278.388 241.68 281.489 226.421 284.513 211.147C284.7 210.2 284.19 209.115 284.005 208.095C283.426 208.059 282.848 208.024 282.269 207.989C280.86 212.823 279.451 217.657 277.902 223.307ZM289.096 275.843C291.646 276.369 291.544 276.348 292.129 273.402C295.099 258.455 298.137 243.521 301.114 228.575C301.333 227.476 301.255 226.318 301.316 225.187C300.643 225.078 299.971 224.969 299.298 224.861C293.546 241.037 290.398 257.819 289.096 275.843Z" fill="#8BAFF7"/>
<path d="M66.9984 99.0057C70.2747 96.8688 73.6697 94.87 76.8434 92.5663C97.5196 77.5584 119.977 67.6351 146.096 67.9858C168.103 68.2814 187.201 76.7451 204.646 89.3523C212.179 94.7958 219.101 101.086 226.272 107.025C226.857 107.51 227.226 108.256 227.958 109.23C226.974 109.508 226.392 109.817 225.811 109.816C170.483 109.804 115.155 109.767 59.3667 109.58C61.1153 106.5 63.3239 103.572 66.0139 100.289C66.6677 99.6114 66.8402 99.29 67.0126 98.9686C67.0126 98.9686 67.0148 99.0028 66.9984 99.0057Z" fill="#F5ECE5"/>
<path d="M21.041 329.486C33.6987 321.055 47.1075 314.568 61.8542 311.194C87.3395 305.364 111.164 310.125 132.993 323.858C144.57 331.142 155.174 339.971 166.218 348.102C165.92 348.781 165.623 349.459 165.325 350.138C120.222 350.138 75.1178 350.138 29.5548 350.112C26.4268 343.343 23.7581 336.601 21.041 329.486Z" fill="#F7EDE5"/>
<path d="M499.976 221.611C447.661 222.028 395.348 222.028 341.894 222.028C347.35 216.657 353.094 213.652 359.467 213.204C366.141 212.734 373.046 213.114 379.625 214.335C389.099 216.092 396.888 214.593 404.607 208.241C423.477 192.711 445.03 182.605 469.631 180.306C476.351 179.678 483.223 180.677 490.446 180.852C493.903 194.248 496.94 207.721 499.976 221.611Z" fill="#F5ECE5"/>
<path d="M438.224 421.887C401.1 421.99 364.289 421.946 327.477 421.902C325.652 421.9 323.826 421.902 320.469 421.902C323.004 419.891 324.457 418.505 326.121 417.455C336.648 410.813 347.888 411.541 359.344 414.299C367.582 416.283 374.77 414.838 381.639 409.203C398.445 395.413 417.14 384.875 438.957 381.697C448.2 380.351 457.756 381.151 467.59 381.027C461.129 391.095 454.34 401.177 447.318 411.094C444.667 414.839 441.48 418.203 438.224 421.887Z" fill="#F5ECE5"/>
<path d="M180.193 490.359C180.846 484.65 181.753 479.204 183.185 473.3C200.842 470.748 217.916 471.708 234.831 474.589C249.214 477.039 263.459 480.301 277.765 483.203C277.761 488.819 277.758 494.435 277.742 500.52C274.959 501.325 272.196 501.829 269.415 501.973C239.08 503.547 209.402 499.901 180.193 490.359Z" fill="#A2686E"/>
<path d="M66.7306 99.0444C66.8402 99.29 66.6677 99.6114 66.2268 100.041C66.1217 99.8067 66.2852 99.4635 66.7306 99.0444Z" fill="#8BAFF7"/>
<path d="M191.21 411.849C192.463 395.964 193.77 380.084 194.955 364.194C196.496 343.509 191.624 323.931 184.337 304.828C177.608 287.19 169.682 270.102 164.222 251.854C160.006 237.764 152.146 224.542 144.53 211.753C136.551 198.354 126.93 185.932 118.169 172.418C118.558 168.816 119.053 165.875 119.006 162.942C118.814 151.124 110.831 143.717 98.9524 144.146C99.4369 140.01 102.905 139.609 105.845 139.143C108.549 138.715 111.393 139.171 114.597 139.12C115.019 139.003 115.016 138.944 114.993 139.234C115.305 139.691 115.64 139.859 116.141 140.318C117.237 141.777 118.292 142.866 119.077 144.124C141.555 180.136 159.38 218.277 171.59 258.988C172.02 260.422 172.843 261.738 173.483 263.11C173.982 262.952 174.481 262.794 174.98 262.636C174.851 260.904 175.009 259.089 174.541 257.454C172.713 251.07 171.291 244.476 168.629 238.44C157.759 213.797 146.645 189.257 135.224 164.865C133.109 160.348 131.853 156.14 131.942 151.17C132.182 137.67 128.11 132.724 114.553 130.143C116.21 128.829 117.245 127.431 118.572 127.05C126.138 124.879 133.868 124.971 139.773 130.477C146.521 136.769 153.556 143.371 158.194 151.186C169.898 170.908 180.342 191.378 191.221 211.585C191.816 212.69 191.975 214.129 192.01 215.421C192.366 228.549 192.646 241.679 192.973 254.807C193.014 256.457 193.205 258.102 193.327 259.749C194.916 259.062 195.771 258.316 195.814 257.526C196.228 250.06 196.887 242.579 196.746 235.116C196.354 214.421 192.196 194.269 187.21 174.272C185.977 169.329 186.057 164.757 187.957 159.764C189.653 155.309 190.323 150.128 190.051 145.346C189.709 139.311 184.78 136.355 179.33 133.693C182.871 132.646 186.325 131.93 189.327 132.79C196.22 134.766 202.21 138.897 205.842 144.997C210.484 152.795 215.557 160.859 217.756 169.493C224.833 197.285 230.887 225.345 236.924 253.39C241.482 274.561 248.883 294.53 260.061 313.077C260.765 314.244 261.91 315.145 262.849 316.169C263.376 315.837 263.904 315.505 264.431 315.173C255.771 298.63 246.472 282.338 243.098 263.714C248.927 270.229 254.177 277.409 260.718 283.105C270.809 291.893 282.474 294.675 295.925 290.412C307.723 286.673 319.855 283.452 332.083 281.739C351.349 279.039 374.744 290.204 383.192 310.548C384.634 314.02 384.867 317.048 380.118 318.473C377.844 317.403 376.142 316.024 374.309 315.821C366.8 314.99 359.249 313.982 351.719 314.022C335.524 314.107 323.647 321.729 317.324 336.669C313.391 345.963 310.799 355.817 307.376 365.336C303.299 376.674 297.405 386.628 286.464 392.924C282.773 395.048 279.642 398.19 276.417 401.049C275.587 401.785 275.369 403.21 274.87 404.319C275.192 404.517 275.514 404.715 275.836 404.913C277.31 403.931 278.785 402.948 280.259 401.966C279.819 406.635 279.379 411.304 278.551 416.327C249.566 408.099 220.455 408.762 191.21 411.849ZM190.448 277.857C192.482 284.193 192.482 284.193 196.158 284.516C194.628 280.225 193.19 276.191 191.752 272.156C191.231 272.269 190.709 272.381 190.188 272.493C190.188 274.028 190.188 275.563 190.448 277.857ZM173.919 275.612C174.263 278.646 174.674 281.634 179.231 282.936C178.159 279.546 177.337 276.857 176.362 274.225C176.329 274.136 174.77 274.612 173.919 275.612Z" fill="#A2676C"/>
<path d="M247.17 144.78C240.777 122.739 243.409 102.095 256.886 83.2173C263.675 73.7091 272.326 66.3812 283.835 61.7981C292.83 63.4892 299.553 67.9984 305.747 73.4016C310.128 77.2237 314.299 81.286 318.651 85.1432C328.702 94.0514 340.241 97.7056 353.66 95.2992C360.015 94.1596 366.479 93.6267 372.894 92.8189C390.014 127.297 375.921 167.892 340.431 184.66C338.328 175.446 335.775 166.577 335.263 157.591C334.074 136.696 315.873 123.543 294.659 129.004C286.383 131.134 278.652 136.074 271.228 140.636C263.555 145.352 255.968 147.869 247.17 144.78ZM284.763 83.6652C282.664 76.6709 278.419 73.9112 273.829 77.3639C264.81 84.1467 258.958 93.0905 259.118 104.842C259.144 106.755 260.85 109.589 262.493 110.265C264.056 110.909 266.919 109.769 268.543 108.535C270.454 107.083 271.652 104.691 273.146 102.697C275.538 99.5067 278.094 96.4214 280.251 93.0792C282.007 90.3571 283.282 87.3237 284.763 83.6652ZM262.639 121.659C259.722 120.257 256.892 120.5 255.284 123.357C254.473 124.797 254.382 127.288 255.077 128.79C256.429 131.715 259.182 132.72 262.123 130.935C265.974 128.598 265.864 125.469 262.639 121.659Z" fill="#B7BA6B"/>
<path d="M190.791 411.9C220.455 408.761 249.565 408.099 278.511 416.779C285.322 418.637 285.933 422.73 285.22 428.945C283.302 445.656 282.419 462.485 280.954 479.252C280.839 480.567 279.392 481.766 278.164 483.111C263.459 480.301 249.214 477.039 234.831 474.589C217.916 471.708 200.841 470.748 183.288 472.916C179.709 473.163 178.82 471.355 178.996 468.585C179.342 463.138 179.591 457.683 180.025 452.243C180.917 441.045 182.254 429.869 182.708 418.655C182.938 412.968 186.125 412.237 190.791 411.9ZM195.095 454.534C200.614 457.601 204.689 457.069 208.313 452.808C213.457 446.76 213.556 435.231 208.517 429.172C204.102 423.862 198.244 423.693 193.542 428.738C187.306 435.428 187.733 446.374 195.095 454.534Z" fill="#6F72FE"/>
<path d="M337.114 186.724C303.404 198.234 271.193 187.098 253.16 157.625C251.609 155.09 250.507 152.28 249.521 149.274C252.624 149.103 255.684 150.077 258.123 149.24C263.688 147.331 268.974 144.59 274.325 142.085C281.625 138.667 288.563 133.973 296.218 131.916C315.182 126.821 330.815 139.429 332.24 159.002C332.917 168.312 335.432 177.488 337.114 186.724Z" fill="#B7BA6B"/>
<path d="M243.01 263.363C246.472 282.338 255.771 298.63 264.431 315.173C263.904 315.505 263.376 315.837 262.849 316.169C261.91 315.145 260.765 314.244 260.061 313.077C248.883 294.53 241.482 274.561 236.924 253.39C230.887 225.345 224.833 197.285 217.756 169.493C215.557 160.859 210.484 152.795 205.842 144.997C202.21 138.897 196.22 134.766 189.327 132.79C186.325 131.93 182.871 132.646 179.33 133.693C184.78 136.355 189.709 139.311 190.051 145.346C190.323 150.128 189.653 155.309 187.957 159.764C186.057 164.757 185.977 169.329 187.21 174.272C192.196 194.269 196.354 214.421 196.746 235.116C196.887 242.579 196.228 250.06 195.814 257.526C195.771 258.316 194.916 259.062 193.327 259.749C193.205 258.102 193.014 256.457 192.973 254.807C192.646 241.679 192.366 228.549 192.01 215.421C191.975 214.129 191.816 212.69 191.221 211.585C180.342 191.378 169.898 170.908 158.194 151.186C153.556 143.371 146.521 136.769 139.773 130.477C133.868 124.971 126.138 124.879 118.572 127.05C117.245 127.431 116.21 128.829 114.553 130.143C128.11 132.724 132.182 137.67 131.942 151.17C131.853 156.14 133.109 160.348 135.224 164.865C146.645 189.257 157.759 213.797 168.629 238.44C171.291 244.476 172.713 251.07 174.541 257.454C175.009 259.089 174.851 260.904 174.98 262.636C174.481 262.794 173.982 262.952 173.483 263.11C172.843 261.739 172.02 260.422 171.59 258.988C159.38 218.277 141.555 180.136 119.077 144.124C118.292 142.866 117.237 141.777 116.12 140.032C115.627 139.285 115.321 139.114 115.016 138.944C115.016 138.944 115.019 139.003 115.047 138.997C114.884 138.373 114.807 137.685 114.482 137.148C109.875 129.548 112.588 124.085 121.492 123.049C130.816 121.963 138.854 124.537 145.779 131.003C157.924 142.343 166.014 156.502 173.852 170.837C178.856 179.99 183.617 189.277 189.289 198.257C187.028 187.764 184.87 177.246 182.474 166.784C180.395 157.708 178.024 148.699 175.821 139.651C174.303 133.414 177.256 129.237 183.718 128.933C193.042 128.494 199.916 133.639 205.762 139.955C215.785 150.783 220.669 164.361 223.917 178.364C229.927 204.278 235.28 230.343 240.95 256.335C241.443 258.597 242.257 260.788 243.01 263.363ZM179.253 139.778C180.778 146.347 182.303 152.916 183.828 159.485C184.292 159.499 184.755 159.512 185.219 159.525C186.063 155.741 187.43 151.983 187.621 148.167C187.872 143.175 184.372 139.674 179.253 139.778ZM124.581 146.901C125.859 148.7 127.137 150.499 128.793 152.828C129.368 140.491 125.106 133.945 116.649 134.531C119.286 138.65 121.734 142.474 124.581 146.901Z" fill="#482F4B"/>
<path d="M288.719 59.1779C320.407 47.5741 355.215 61.3869 370.533 89.4817C366.077 90.4403 361.917 90.687 357.907 91.5936C342.238 95.1356 328.817 91.3026 317.418 79.9912C308.939 71.5783 300.177 63.5064 288.719 59.1779Z" fill="#B7BA6C"/>
<path d="M90.9793 207.279C91.1442 205.789 91.3033 204.717 91.4624 203.645C91.9117 203.576 92.3609 203.508 92.8102 203.439C93.3889 206.471 93.9706 209.501 94.5441 212.534C94.6984 213.349 94.8412 214.168 94.9662 214.988C96.8806 227.557 98.061 228.756 110.61 230.961C111.968 231.2 113.306 231.553 114.659 233.065C112.007 233.7 109.364 234.379 106.699 234.961C101.056 236.193 97.6007 239.338 96.9478 245.345C96.4464 249.959 95.6388 254.542 94.8899 259.126C94.7209 260.16 94.2299 261.141 92.7277 262.135C92.2156 258.661 91.7133 255.185 91.1868 251.713C90.9631 250.238 90.6152 248.779 90.4502 247.298C89.7266 240.804 86.4168 237.075 79.6518 236.49C76.4763 236.215 73.3576 235.284 70.2132 234.651C70.2055 234.209 70.1977 233.766 70.1899 233.324C72.5029 232.883 74.8099 232.408 77.1298 232.007C85.3349 230.589 87.9704 228.227 89.5353 220.062C90.3143 215.997 90.5125 211.822 90.9793 207.279Z" fill="#FAC46F"/>
<path d="M428.954 114.925C429.594 124.065 433.894 129.107 442.952 129.601C444.658 129.694 446.336 130.302 448.027 130.673C448.064 131.1 448.1 131.528 448.136 131.955C445.594 132.596 443.075 133.356 440.505 133.853C434.737 134.969 431.403 138.141 430.805 144.188C430.381 148.476 429.552 152.725 428.841 156.982C428.614 158.338 428.182 159.659 427.845 160.997C427.418 160.977 426.992 160.958 426.566 160.938C426.09 157.804 425.548 154.677 425.149 151.533C423.423 137.944 422.665 137.131 409.407 134.729C407.671 134.415 405.969 133.917 404.051 132.418C405.629 131.994 407.183 131.409 408.789 131.171C420.126 129.489 422.947 126.552 423.994 115.178C424.383 110.956 424.779 106.733 425.171 102.511C425.64 102.463 426.108 102.416 426.577 102.369C427.355 106.414 428.133 110.46 428.954 114.925Z" fill="#FBC46E"/>
<path d="M437.835 288.253C437.964 289.502 438.091 290.328 438.129 291.157C438.672 302.921 443.727 310.283 456.551 310.174C457.062 310.17 457.579 310.786 459.175 311.799C455.534 312.665 452.948 313.348 450.332 313.888C444.87 315.016 441.416 317.873 440.833 323.793C440.411 328.079 439.569 332.327 438.833 336.577C438.577 338.053 438.076 339.488 436.52 340.82C435.748 336.021 435.119 331.194 434.174 326.429C432.499 317.98 431.121 316.721 422.635 315.142C419.808 314.616 416.971 314.139 414.138 313.639C414.12 313.203 414.102 312.766 414.084 312.33C415.549 311.938 416.993 311.404 418.483 311.175C430.521 309.329 433.084 306.569 434.023 294.475C434.334 290.47 434.804 286.478 435.201 282.479C435.656 282.443 436.111 282.408 436.565 282.372C436.974 284.192 437.383 286.012 437.835 288.253Z" fill="#FBC46F"/>
<path d="M280.485 401.752C278.785 402.948 277.31 403.931 275.836 404.913C275.514 404.715 275.192 404.517 274.87 404.319C275.369 403.21 275.587 401.785 276.417 401.049C279.642 398.19 282.773 395.048 286.464 392.924C297.405 386.628 303.299 376.674 307.376 365.336C310.799 355.817 313.391 345.963 317.324 336.669C323.647 321.729 335.524 314.107 351.719 314.022C359.249 313.982 366.8 314.99 374.309 315.821C376.142 316.024 377.844 317.403 379.762 318.551C378.251 318.955 376.48 319.467 374.938 319.077C365.282 316.635 355.614 316.028 345.749 317.724C333.348 319.857 324.831 326.853 320.018 338.22C317.305 344.629 315.07 351.283 313.163 357.981C308.562 374.145 301.461 388.416 286.042 397.056C284.053 398.171 282.478 400.027 280.485 401.752Z" fill="#48314E"/>
<path d="M337.458 186.811C335.432 177.488 332.917 168.312 332.239 159.002C330.815 139.429 315.182 126.821 296.218 131.917C288.563 133.973 281.625 138.668 274.325 142.085C268.974 144.59 263.688 147.331 258.123 149.24C255.684 150.077 252.624 149.103 249.434 148.922C248.331 147.759 247.64 146.624 247.059 145.135C255.967 147.869 263.555 145.352 271.228 140.636C278.652 136.074 286.383 131.134 294.659 129.004C315.873 123.543 334.074 136.696 335.263 157.591C335.775 166.577 338.328 175.446 340.091 184.732C339.42 185.697 338.611 186.297 337.458 186.811Z" fill="#F1E9DB"/>
<path d="M288.354 59.1558C300.177 63.5064 308.939 71.5783 317.418 79.9911C328.817 91.3025 342.238 95.1355 357.907 91.5936C361.917 90.687 366.077 90.4403 370.61 89.8078C371.704 90.5234 372.357 91.3217 372.952 92.4695C366.479 93.6268 360.015 94.1597 353.66 95.2993C340.241 97.7056 328.702 94.0515 318.651 85.1433C314.299 81.2861 310.128 77.2238 305.747 73.4016C299.553 67.9984 292.83 63.4893 284.186 61.6805C285.21 60.6954 286.599 59.9146 288.354 59.1558Z" fill="#F1E9DB"/>
<path d="M260.257 243.913C259.651 245.029 259.111 245.749 258.571 246.469C258.086 245.397 257.087 244.269 257.197 243.261C258.092 235.024 258.946 226.768 260.308 218.6C261.533 211.258 263.332 204.008 264.999 196.745C265.375 195.105 266.255 193.581 266.902 192.004C267.3 192.124 267.698 192.243 268.097 192.363C265.505 209.414 262.914 226.465 260.257 243.913Z" fill="#483555"/>
<path d="M277.972 222.898C279.451 217.656 280.86 212.823 282.269 207.989C282.848 208.024 283.426 208.059 284.005 208.095C284.19 209.115 284.7 210.2 284.513 211.147C281.489 226.421 278.388 241.68 275.261 256.933C275.031 258.057 274.471 259.112 273.183 260.008C272.307 247.417 275.192 235.372 277.972 222.898Z" fill="#483656"/>
<path d="M289.03 275.421C290.399 257.819 293.546 241.037 299.298 224.86C299.971 224.969 300.643 225.078 301.316 225.187C301.255 226.318 301.333 227.476 301.114 228.575C298.137 243.521 295.1 258.455 292.129 273.402C291.544 276.348 291.646 276.369 289.03 275.421Z" fill="#483555"/>
<path d="M115.732 170.033C110.556 162.848 105.379 155.662 100.357 147.924C103.811 148.51 107.654 148.93 110.3 150.932C116.645 155.732 116.536 162.905 115.732 170.033Z" fill="#9F676F"/>
<path d="M115.753 170.4C116.536 162.905 116.645 155.732 110.3 150.932C107.654 148.93 103.81 148.51 100.226 147.602C99.4548 146.755 98.9688 145.679 98.7175 144.374C110.831 143.718 118.814 151.124 119.006 162.942C119.053 165.875 118.558 168.816 118.035 172.121C117.096 171.914 116.435 171.341 115.753 170.4Z" fill="#472D48"/>
<path d="M190.318 277.478C190.188 275.563 190.188 274.028 190.188 272.493C190.709 272.381 191.231 272.269 191.752 272.156C193.19 276.191 194.628 280.225 196.158 284.516C192.482 284.193 192.482 284.193 190.318 277.478Z" fill="#4A2F49"/>
<path d="M173.92 275.218C174.77 274.612 176.329 274.136 176.362 274.225C177.336 276.857 178.159 279.546 179.231 282.936C174.674 281.634 174.262 278.646 173.92 275.218Z" fill="#4A2F49"/>
<path d="M114.993 139.234C115.321 139.114 115.627 139.285 115.953 139.74C115.64 139.859 115.305 139.691 114.993 139.234Z" fill="#8BAFF7"/>
<path d="M284.766 84.0468C283.282 87.3238 282.007 90.3572 280.251 93.0793C278.094 96.4214 275.538 99.5068 273.146 102.697C271.652 104.691 270.453 107.083 268.543 108.535C266.919 109.769 264.056 110.909 262.493 110.265C260.85 109.589 259.144 106.755 259.118 104.842C258.958 93.0906 264.81 84.1467 273.829 77.364C278.419 73.9113 282.664 76.6709 284.766 84.0468Z" fill="#FDFDFB"/>
<path d="M262.955 121.904C265.864 125.469 265.974 128.598 262.123 130.936C259.182 132.721 256.429 131.715 255.077 128.79C254.382 127.288 254.473 124.797 255.284 123.358C256.892 120.5 259.722 120.257 262.955 121.904Z" fill="#FBFBF7"/>
<path d="M194.812 454.291C187.733 446.374 187.306 435.428 193.542 428.738C198.244 423.693 204.102 423.862 208.517 429.172C213.557 435.231 213.457 446.76 208.313 452.808C204.689 457.069 200.614 457.601 194.812 454.291Z" fill="#FCFCFF"/>
<path d="M179.498 139.48C184.372 139.673 187.872 143.175 187.621 148.167C187.43 151.983 186.063 155.741 185.219 159.525C184.755 159.512 184.292 159.499 183.828 159.485C182.303 152.916 180.778 146.347 179.498 139.48Z" fill="#9C636A"/>
<path d="M124.381 146.599C121.734 142.474 119.286 138.65 116.649 134.531C125.106 133.945 129.368 140.491 128.792 152.828C127.137 150.499 125.859 148.7 124.381 146.599Z" fill="#9D646A"/>
</svg>
