<svg width="512" height="415" viewBox="0 0 512 415" fill="none" xmlns="http://www.w3.org/2000/svg">
<path d="M9.33211e-09 190.129C1.8572 188.752 3.84885 188.024 5.55105 186.868C25.1561 173.565 44.7541 160.25 64.2816 146.833C94.4549 126.101 124.571 105.286 154.717 84.5147C155.535 83.9516 156.419 83.4862 157.658 83.2462C157.715 86.5922 157.386 89.6671 156.741 92.8676C150.572 97.1257 144.718 101.258 138.539 105.517C127.772 112.704 117.331 119.765 106.572 126.899C99.1457 131.866 92.0378 136.759 84.6048 141.749C81.5635 143.776 78.8472 145.707 75.8124 147.775C64.3217 155.535 53.1494 163.157 41.6445 170.839C30.1009 178.452 18.8899 186.006 6.89349 194.089C20.1196 202.708 32.4573 210.749 44.9933 219.067C55.414 226.17 65.6364 232.996 76.0331 240.116C86.066 246.903 95.9246 253.396 105.985 260.161C115.401 266.57 124.614 272.707 134.004 279.133C144.719 286.439 155.258 293.456 166.088 300.691C177.253 308.199 188.125 315.489 199.154 323.069C211.163 331.17 223.014 338.978 235.061 347.063C247.262 355.42 259.266 363.501 271.548 371.768C282.499 360.994 293.289 350.378 304.397 339.649C314.474 329.964 324.233 320.392 334.284 310.649C341.864 303.304 349.151 296.13 356.744 288.857C367.953 278.098 378.855 267.438 390.018 256.549C399.284 247.475 408.289 238.63 417.604 229.699C427.66 220.03 437.406 210.445 447.444 200.705C456.523 191.932 465.31 183.315 474.406 174.585C482.502 165.978 490.29 157.485 498.047 149.023C492.166 146.073 485.078 142.519 477.666 138.814C469.217 134.683 461.092 130.703 452.951 126.551C452.823 126.338 452.711 126.298 452.599 126.258C452.752 126.38 452.904 126.502 452.949 127.003C454.192 131.1 455.543 134.818 456.889 138.524C459.566 138.524 461.858 138.524 464.35 138.524C464.35 141.567 464.35 144.456 464.35 147.936C454.765 147.936 445.553 147.936 436.158 147.936C435.761 144.69 435.363 141.441 434.94 137.978C437.617 138.484 439.83 138.902 442.449 139.397C442.936 135.614 443.376 132.187 443.917 128.373C443.761 125.601 444.348 121.816 443.107 121.069C437.066 117.433 430.535 114.609 423.939 111.245C411.483 104.755 399.265 98.5175 386.847 92.0417C383.076 90.1004 379.505 88.3975 375.964 86.686C375.995 86.6773 375.997 86.7411 375.935 86.5084C375.684 85.9685 375.411 85.8328 374.762 85.6311C373.559 81.7698 372.647 78.1462 371.867 74.4137C372 74.3048 372.02 73.9621 372.349 73.8855C373.124 73.8207 373.569 73.8326 374.015 73.8444C380.3 77.2195 386.557 80.6461 392.875 83.9586C405.218 90.4303 417.595 96.8383 430.704 103.661C428.968 96.4313 430.555 90.2959 434.817 85.8934C437.939 82.6677 442.783 80.1492 447.223 79.3604C456.168 77.7714 464.096 81.9001 468.22 92.1632C471.709 100.846 467.323 110.659 456.682 117.193C461.103 119.679 465.296 122.158 469.597 124.433C482.815 131.427 496.07 138.348 509.325 145.269C509.893 145.566 510.606 145.585 511.626 145.706C512 151.034 512 156.389 512 162.211C511 166.267 509.639 169.799 509.073 173.454C507.807 181.624 507.07 189.876 505.791 198.044C505.544 199.622 503.99 201.152 502.73 202.39C488.611 216.261 474.485 230.125 460.254 243.881C443.884 259.704 427.397 275.406 410.977 291.177C393.718 307.754 376.485 324.359 359.225 340.936C342.805 356.706 326.362 372.454 309.934 388.217C301.661 396.157 293.252 403.964 285.21 412.131C282.297 415.089 280.139 415.186 276.713 413.101C250.064 396.881 223.318 380.821 196.587 364.737C164.455 345.403 132.281 326.139 100.178 306.758C73.7575 290.808 47.3958 274.76 21.0823 258.635C19.6139 257.735 18.3038 255.887 17.7968 254.214C12.455 236.593 7.29987 218.915 2.05491 201.265C1.79333 200.385 1.17954 199.609 0.364869 198.732C-1.99676e-06 195.979 -1.99067e-06 193.279 9.33211e-09 190.129Z" fill="#012548"/>
<path d="M157.057 92.742C157.386 89.6671 157.715 86.5922 157.954 83.0853C158.31 75.4432 158.757 68.2332 159.207 60.9596C156.314 61.2939 153.952 61.5668 151.39 61.8628C147.958 50.4606 144.626 39.3897 141.23 28.1078C146.807 27.2291 152.148 26.3877 157.522 25.541C157.214 23.8773 156.934 22.3618 156.656 20.8621C147.275 22.2808 147.275 22.2808 145.322 13.9647C148.653 13.4294 151.972 12.896 155.516 12.3265C154.742 9.44523 153.935 6.44069 152.93 2.70126C157.452 1.80421 161.979 0.906372 166.548 0C166.548 3.38106 166.548 6.68964 166.548 10.6592C169.408 10.1943 172.619 9.67226 175.913 9.13684C175.913 12.0254 175.913 15.0032 175.913 18.0579C173.195 20.2885 165.544 15.4635 167.212 24.0616C172.304 23.5145 177.367 22.9705 182.664 22.4014C181.714 34.6103 180.807 46.2656 179.866 58.3561C176.837 58.9134 173.699 59.4906 170.547 60.0705C171.096 63.7776 171.657 67.5676 172.507 71.9176C173.181 75.4196 173.566 78.3616 173.938 81.6816C174.369 84.6555 174.812 87.2514 175.254 90.2291C175.625 92.1671 175.997 93.7234 176.412 95.4608C179.339 95.4608 182.083 95.4608 185.169 95.6334C185.875 96.158 186.24 96.5099 186.438 97.2226C185.693 99.6663 184.85 101.717 184.594 103.839C184.067 108.209 181.576 109.512 177.482 109.556C171.832 109.616 166.181 110.064 160.539 110.467C152.442 111.046 151.239 110.259 148.626 102.071C152.924 100.358 159.186 100.245 157.057 92.742ZM174.402 34.7213C165.511 35.4233 156.619 36.1252 147.728 36.8272C147.776 37.3904 147.825 37.9537 147.873 38.5169C158.307 37.783 168.742 37.0491 179.176 36.3151C179.157 35.8723 179.138 35.4295 179.12 34.9867C177.835 34.8925 176.551 34.7983 174.402 34.7213ZM149.05 32.5742C158.531 31.3343 168.011 30.0943 177.492 28.8544C177.411 28.2661 177.33 27.6777 177.249 27.0894C167.572 28.3854 157.894 29.6799 148.225 31.0375C148.192 31.0422 148.286 31.9584 149.05 32.5742ZM156.837 43.7292C163.95 42.9986 171.062 42.2681 178.175 41.5375C178.1 40.9123 178.025 40.2871 177.95 39.662C168.853 40.6678 159.755 41.6736 150.658 42.6794C150.72 43.2627 150.782 43.846 150.844 44.4292C152.557 44.2104 154.27 43.9916 156.837 43.7292ZM171.755 54.9908C173.897 54.7496 176.039 54.5083 178.181 54.2671C178.118 53.8029 178.055 53.3387 177.992 52.8745C170.026 53.3363 162.059 53.7981 154.092 54.2599C154.117 54.5684 154.141 54.8769 154.166 55.1854C159.739 55.1854 165.312 55.1854 171.755 54.9908ZM171.542 46.7307C165.562 47.3818 159.582 48.0329 153.602 48.6841C153.673 49.1987 153.745 49.7132 153.817 50.2278C161.634 49.5792 169.45 48.9305 177.267 48.2819C177.241 47.7555 177.216 47.2291 177.19 46.7027C175.6 46.7027 174.01 46.7027 171.542 46.7307Z" fill="#FEA0BE"/>
<path d="M203.179 51.5121C203.676 45.127 207.012 40.7419 212.553 37.7226C213.343 37.2919 214.013 35.6372 213.877 34.6703C212.839 27.2902 214.804 23.3265 220.744 21.3846C226.063 19.6458 230.02 21.8386 233.227 28.2823C233.368 28.5661 233.647 28.7818 233.874 29.6992C233.902 33.8809 233.918 37.3927 233.799 41.0774C233.369 41.5699 233.073 41.8895 232.514 42.486C230.178 48.9824 226.868 54.9996 228.504 63.1589C235.016 57.7663 236.715 51.2444 238.901 44.5568C240.025 42.0361 240.951 39.8425 241.934 37.5141C249.123 40.8597 252.74 45.8662 252.514 53.5893C251.061 56.1395 249.814 58.4013 248.422 60.6979C248.089 60.8467 247.997 61.0136 247.77 61.4402C247.342 61.9948 247.143 62.343 246.979 62.6857C247.013 62.6802 247.001 62.6125 246.719 62.668C246.27 63.0396 246.105 63.3557 245.971 63.6763C246.003 63.6807 246.001 63.616 245.687 63.5838C244.895 63.9191 244.416 64.2868 243.969 64.6579C244.001 64.6615 243.976 64.6033 243.606 64.6482C240.539 65.7477 237.841 66.8023 235.484 67.7236C236.042 68.8287 236.503 69.7445 236.639 70.7986C234.331 72.1755 230.642 71.8574 231.592 75.8064C232.232 78.4666 233.167 81.0559 233.972 84.0766C234.841 87.8113 235.709 91.1465 236.573 94.4642C239.619 94.4642 242.225 94.4642 245.32 94.4642C244.98 96.1756 244.572 97.5742 244.443 98.998C243.981 104.073 241.432 106.035 236.24 105.639C231.288 105.261 226.271 105.725 221.283 105.846C212.712 106.055 212.521 105.89 211.514 96.9721C219.853 95.9323 219.858 95.9334 221.952 87.0887C222.295 85.6374 222.578 84.1718 223.008 82.3616C223.41 80.5636 223.694 79.1168 224.146 77.342C224.877 74.8481 225.439 72.682 225.987 70.5689C223.09 69.3022 218.248 73.2474 218.405 66.9357C218.41 66.7545 217.514 66.6149 217.108 66.3497C213.549 64.0279 210.005 61.6819 206.317 59.0137C205.178 56.2936 204.178 53.9028 203.179 51.5121Z" fill="#FCA0BF"/>
<path d="M233.933 40.9044C233.918 37.3927 233.902 33.8809 234.026 30.0283C241.04 25.0544 247.991 20.5282 254.752 15.7353C257.413 13.8497 259.542 13.8108 262.432 15.3379C291.088 30.4808 319.82 45.4803 348.819 61.0209C346.867 64.1296 344.624 66.7378 342.069 69.0877C332.897 64.3239 324.038 59.8183 314.963 55.0643C303.276 49.0333 291.803 43.2506 280.085 37.2123C273.36 33.6012 266.968 30.0549 260.34 27.023C258.658 26.2533 255.779 26.3953 254.217 27.3599C247.303 31.6276 240.669 36.3479 233.933 40.9044Z" fill="#022649"/>
<path d="M342.382 69.3459C344.624 66.7378 346.867 64.1296 349.15 61.1749C350.019 60.0509 350.846 59.2734 351.434 58.7216C349.574 56.8131 347.434 55.2001 346.166 53.0689C345.539 52.0157 346.062 49.7126 346.855 48.4862C349.155 44.9302 357.74 44.6652 361.587 47.7862C365.092 50.6306 364.987 52.9899 360.552 57.8356C366.795 61.3147 372.846 64.6866 380.106 68.7326C380.469 71.0099 376.836 71.7374 374.34 73.6918C373.569 73.8325 373.124 73.8207 371.913 73.8141C361.72 74.8332 352.293 75.847 342.443 76.8736C339.617 76.3816 337.214 75.8769 334.024 75.207C337.657 72.6599 340.019 71.0029 342.382 69.3459Z" fill="#FEA0BE"/>
<path d="M202.861 51.6747C204.178 53.9028 205.178 56.2935 205.985 59.1884C203.576 61.3226 201.359 62.9527 198.82 64.7195C190.316 70.3386 182.134 75.821 173.952 81.3035C173.566 78.3615 173.181 75.4196 172.861 72.1215C182.798 65.1226 192.67 58.48 202.861 51.6747Z" fill="#04274B"/>
<path d="M342.069 69.0877C340.019 71.0028 337.657 72.6598 334.024 75.2069C337.214 75.8768 339.617 76.3816 342.592 77.0715C343.445 77.433 343.728 77.6092 344.128 78.0899C344.544 79.4278 344.843 80.4613 344.791 81.5842C338.995 85.6387 333.549 89.6038 327.483 94.0211C332.635 96.9089 336.757 99.3689 341.015 101.564C345.264 103.754 349.649 105.678 353.981 108.119C353.372 111.57 352.756 114.62 351.783 117.7C343.703 123.266 335.98 128.802 327.714 134.727C340.404 141.746 351.966 148.141 363.421 154.478C361.639 156.411 360.295 157.868 358.534 159.391C354.115 160.232 350.113 161.007 346.14 161.778C346.886 165.226 347.509 168.106 348.018 170.459C344.52 171.873 341.476 173.104 338.117 174.425C335.671 175.955 333.54 177.394 331.103 179.04C334.835 181.548 338.071 183.721 340.939 186.068C338.693 186.586 336.816 186.93 334.585 187.339C336.789 195.368 338.871 202.952 340.621 210.637C336.575 213.648 332.86 216.559 328.452 220.013C336.532 224.646 343.714 228.765 350.958 233.317C350.631 238.735 350.242 243.718 349.581 248.879C341.833 255.516 334.358 261.977 326.466 268.799C336.92 275.83 346.679 282.393 356.438 288.957C349.151 296.13 341.864 303.304 333.978 310.487C323.84 304.501 314.229 298.615 304.806 292.441C302.077 290.653 300.419 290.828 297.961 292.973C288.736 301.019 279.267 308.786 269.614 316.66C268.972 316.656 268.605 316.651 267.911 316.503C265.776 315.172 263.961 313.991 262.159 312.792C253.721 307.178 245.287 301.559 237.129 295.734C238.439 294.328 239.656 293.241 240.454 291.904C241.212 290.634 241.532 289.103 242.239 287.541C242.679 287.177 242.872 286.919 242.999 286.654C242.986 286.686 242.924 286.657 243.277 286.642C251.21 280.862 258.791 275.098 267.573 268.419C255.789 261.468 245.394 255.336 235 249.029C235.001 248.62 235.001 248.387 235.357 248.041C244.706 241.657 253.698 235.385 263.333 228.665C259.267 225.892 256.044 223.695 252.694 221.18C250.918 220.277 248.986 220.047 247.696 219.015C246.144 217.771 244.425 216 244.031 214.186C242.958 209.241 242.545 204.152 242.041 198.797C245.719 195.841 249.226 193.208 252.971 190.876C256.182 194.097 259.074 193.122 260.475 189.983C261.745 187.136 262.649 183.458 261.989 180.537C259.407 169.119 259.153 169.177 247.786 171.294C245.69 169.829 243.755 168.649 241.841 167.072C242.528 162.756 243.194 158.837 244.238 154.874C251.079 150.511 257.543 146.192 264.849 141.311C252.505 134.142 241.519 127.762 229.828 120.972C239.953 113.066 249.504 105.609 259.952 97.4505C250.582 92.4831 242.276 88.08 233.971 83.6769C233.167 81.0559 232.232 78.4666 231.592 75.8063C230.642 71.8574 234.332 72.1754 236.977 70.7271C239.753 68.5461 241.865 66.5747 243.976 64.6032C243.976 64.6032 244.001 64.6614 244.277 64.6451C245.036 64.2911 245.519 63.9535 246.002 63.6159C246.002 63.6159 246.003 63.6806 246.205 63.5623C246.604 63.1668 246.803 62.8896 247.001 62.6124C247.001 62.6124 247.013 62.6801 247.228 62.5045C247.629 61.9637 247.814 61.5987 248 61.2336C247.997 61.0136 248.09 60.8466 248.824 60.7297C252.268 59.2084 255.166 57.69 258.385 56.3653C269.103 62.2009 279.501 67.8428 290.709 73.9244C279.942 82.2346 270.272 89.6975 260.043 97.5922C272.259 104.332 283.819 110.71 296.11 117.491C285.453 125.509 275.428 133.053 264.975 140.918C271.137 144.801 276.723 148.32 282.155 152.148C277.343 156.887 274.948 164.003 266.917 165.076C268.728 166.402 270.615 166.911 272.349 167.739C274.105 168.579 275.71 169.734 277.239 171.065C273.275 174.636 269.454 177.893 264.92 181.76C268.845 183.582 272.33 185.2 275.858 186.822C275.9 186.826 275.843 186.889 275.922 187.217C279.683 189.689 283.365 191.834 287.094 194.384C286.253 200.179 285.492 205.593 284.435 210.949C283.646 214.949 281.72 217.893 276.885 217.724C276.252 217.701 275.555 219.531 274.556 220.604C270.872 223.041 267.519 225.376 263.398 228.247C273.705 235.016 283.195 241.248 293.13 247.773C284.325 254.85 276.135 261.431 267.169 268.636C278.514 275.769 288.959 282.453 299.591 288.827C300.591 289.427 303.15 288.536 304.325 287.55C311.315 281.688 318.111 275.593 325.111 269.503C325.442 269.119 325.356 268.879 324.792 268.439C314.417 261.458 304.24 254.748 293.518 247.677C305.403 238.212 316.584 229.307 328.41 219.89C322.993 216.607 318.406 213.698 313.691 211.012C310.445 209.163 307.023 207.624 303.693 205.905C303.707 205.862 303.79 205.894 303.782 205.643C303.549 205.153 303.324 204.914 302.933 204.359C302.449 202.661 302.131 201.279 302.139 199.74C311.658 193.008 320.85 186.432 330.612 179.449C321.717 174.101 313.804 169.342 306.107 164.315C308.372 162.537 310.422 161.029 312.029 159.848C308.052 157.574 304.836 155.734 301.945 153.73C310.483 147.476 318.696 141.386 327.594 134.788C316.855 128.831 306.96 123.343 296.371 117.469C307.018 109.427 316.875 101.981 327.342 94.075C314.88 87.197 303.2 80.7505 290.721 73.8633C299.361 67.3103 307.27 61.3114 315.179 55.3126C324.038 59.8182 332.897 64.3239 342.069 69.0877Z" fill="#9A7AFF"/>
<path d="M165.796 300.472C155.258 293.455 144.719 286.439 134.174 278.825C145.372 269.768 156.578 261.308 168.317 252.445C158.642 246.222 149.698 240.469 140.852 234.379C151.355 225.931 161.76 217.82 172.948 209.097C162.162 202.172 152.102 195.714 141.502 188.908C150.912 181.543 159.569 174.767 168.831 167.517C158.072 160.498 148.232 154.08 137.769 147.255C141.78 144.168 145.348 141.55 148.773 138.757C155.292 133.441 161.729 128.025 168.454 122.662C169.051 122.675 169.393 122.677 169.927 122.978C180.235 129.748 190.351 136.219 200.849 142.935C190.213 151.212 180.072 159.104 168.914 167.787C178.917 173.843 187.93 179.299 197.017 185.165C197.085 186.968 197.078 188.362 196.682 189.838C188.218 190.593 182.033 194.127 178.783 201.817C177.682 204.422 175.715 207.58 176.368 209.846C178.89 218.61 183.028 226.452 193.464 227.935C193.007 229.119 192.739 229.814 192.383 230.738C194.252 230.738 195.722 230.738 197.004 231.023C187.606 238.263 178.397 245.218 168.656 252.574C179.593 259.692 189.909 266.405 201.068 273.668C195.414 277.809 190.708 281.139 186.13 284.637C179.304 289.853 172.569 295.188 165.796 300.472Z" fill="#524DFE"/>
<path d="M417.293 229.784C408.289 238.63 399.284 247.475 389.706 256.43C381.765 252.218 374.397 247.895 366.873 243.234C366.239 240.236 365.761 237.576 365.599 234.796C373.963 227.913 382.011 221.149 390.699 213.848C384.206 210.113 378.647 206.915 373.036 203.271C373.579 196.167 374.173 189.51 375.05 182.729C380.595 178.495 385.858 174.387 391.634 169.878C382.074 164.565 373.612 159.863 364.521 154.81C375.403 146.836 385.404 139.508 396.507 131.372C390.962 128.853 386.366 126.764 381.577 124.68C381.384 124.683 381.013 124.572 380.934 124.243C377.865 122.171 374.874 120.428 371.651 118.405C370.217 113.73 369.015 109.335 368.129 104.766C369.803 103.634 371.134 102.636 372.522 101.727C377.353 98.5614 382.203 95.4265 387.046 92.28C399.264 98.5174 411.483 104.755 423.619 111.397C414.713 118.216 405.89 124.631 396.335 131.578C405.086 136.487 412.964 140.906 421.708 145.81C411.441 154.083 401.852 161.81 391.882 169.844C402.292 175.644 412.035 181.071 422.25 186.762C411.359 196.117 401.324 204.736 390.924 213.668C392.58 214.717 393.653 215.419 394.748 216.086C402.26 220.656 409.778 225.219 417.293 229.784Z" fill="#9A7AFE"/>
<path d="M168.199 122.651C161.729 128.025 155.292 133.441 148.773 138.757C145.348 141.55 141.78 144.168 137.769 147.255C148.232 154.08 158.072 160.498 168.831 167.517C159.569 174.767 150.912 181.543 141.502 188.908C152.102 195.714 162.161 202.172 172.948 209.098C161.76 217.82 151.355 225.932 140.596 234.368C139.899 234.692 139.556 234.69 139.044 234.383C129.064 227.45 119.252 220.823 109.023 213.913C110.738 212.533 112.041 211.547 113.275 210.481C117.849 206.528 122.4 202.549 126.972 198.602C126.983 198.625 126.935 198.642 127.292 198.657C132.011 195.613 136.373 192.555 141.609 188.883C133.439 184.007 126.263 179.724 118.946 175.07C118.963 170.084 119.122 165.468 119.601 160.75C125.597 156.34 131.272 152.032 137.613 147.219C134.717 145.588 132.891 144.56 131.038 143.169C131.183 141.552 131.355 140.297 131.566 138.755C127.991 138.09 124.608 137.461 120.925 136.642C116.047 133.243 111.468 130.034 106.89 126.825C117.331 119.765 127.772 112.704 138.882 105.638C149.1 111.305 158.65 116.978 168.199 122.651Z" fill="#9A7AFF"/>
<path d="M417.604 229.699C409.778 225.219 402.26 220.656 394.748 216.086C393.653 215.419 392.58 214.717 390.924 213.668C401.324 204.736 411.359 196.117 422.25 186.762C412.035 181.071 402.292 175.644 391.882 169.844C401.852 161.81 411.441 154.083 421.708 145.81C412.964 140.906 405.086 136.487 396.335 131.578C405.89 124.631 414.713 118.216 423.857 111.65C430.535 114.609 437.065 117.433 443.107 121.069C444.348 121.816 443.761 125.601 443.638 128.534C436.427 134.474 429.596 139.864 422.099 145.78C432.304 151.47 441.48 156.586 451.212 162.012C441.347 170.493 432.147 178.403 422.654 186.564C431.406 191.672 439.279 196.266 447.152 200.86C437.406 210.445 427.66 220.03 417.604 229.699Z" fill="#524EFF"/>
<path d="M41.9771 170.779C53.1493 163.157 64.3216 155.535 76.0959 147.952C83.8033 152.222 90.9088 156.453 97.9976 160.679C97.9809 160.672 97.9962 160.64 97.9847 160.85C98.0442 161.35 98.212 161.566 98.6272 162.148C98.519 167.632 98.2602 172.674 97.7089 177.876C90.9096 183.077 84.4027 188.119 77.2572 193.655C87.9707 200.658 97.8945 207.144 108.352 213.979C106.351 215.629 104.99 216.792 103.587 217.903C94.349 225.216 85.1024 232.517 75.8587 239.823C65.6363 232.996 55.4139 226.17 45.1895 218.779C55.4854 210.2 65.7833 202.187 76.6945 193.697C64.6189 185.726 53.298 178.253 41.9771 170.779Z" fill="#9A7AFE"/>
<path d="M166.088 300.691C172.569 295.188 179.304 289.853 186.13 284.637C190.708 281.139 195.414 277.809 201.068 273.668C189.908 266.405 179.593 259.692 168.656 252.574C178.396 245.218 187.606 238.263 197.331 231.02C197.354 234.167 196.984 237.625 196.338 241.031C195.359 246.199 195.148 252.233 186.55 250.038C187.113 253.788 187.541 256.644 188.034 259.932C197.658 258.895 206.772 257.914 215.868 256.934C215.868 253.102 215.868 249.999 215.868 246.473C213.441 247.249 211.329 247.924 208.84 248.72C207.094 242.514 205.404 236.656 203.861 230.759C203.716 230.206 204.505 229.408 205.057 229.006C215.168 235.576 225.084 241.864 234.999 248.153C235 248.387 235.001 248.62 234.687 249.218C230.913 252.443 227.452 255.303 223.678 258.323C216.631 259.253 212.031 263.031 208.667 268.92C208.294 269.253 208.126 269.482 208.004 269.704C208.018 269.672 208.079 269.704 207.724 269.716C205.586 270.91 203.803 272.092 201.266 273.775C203.817 275.075 205.358 275.861 206.943 277.057C207.859 287.53 212.411 292.841 223.006 296.155C222.869 297.11 222.728 298.064 222.645 298.62C224.767 299.016 226.413 299.323 227.764 299.798C217.979 307.569 208.488 315.174 198.997 322.778C188.125 315.489 177.253 308.199 166.088 300.691Z" fill="#9A7AFE"/>
<path d="M76.0332 240.116C85.1026 232.517 94.3492 225.216 103.587 217.903C104.99 216.792 106.352 215.629 108.352 213.979C97.8947 207.144 87.9709 200.658 77.2574 193.655C84.4029 188.119 90.9098 183.077 97.7445 178.279C98.1251 185.945 94.8943 190.032 86.4876 188.639C87.1438 192.502 87.6584 195.532 88.1762 198.58C101.438 198.58 114.199 198.58 126.96 198.58C122.4 202.549 117.849 206.528 113.275 210.481C112.041 211.547 110.738 212.533 109.023 213.913C119.252 220.823 129.064 227.45 138.775 234.604C127.71 243.382 116.747 251.635 105.783 259.888C95.9247 253.396 86.0661 246.903 76.0332 240.116Z" fill="#524DFE"/>
<path d="M268.237 316.645C268.605 316.651 268.972 316.656 269.711 316.994C270.944 318.071 271.73 318.93 272.677 319.543C283.13 326.305 293.608 333.029 304.079 339.763C293.289 350.378 282.499 360.994 271.548 371.768C259.266 363.501 247.262 355.42 235.356 346.886C242.367 340.551 249.394 334.795 256.151 328.738C260.389 324.941 264.223 320.692 268.237 316.645Z" fill="#9A7AFE"/>
<path d="M41.6445 170.839C53.2981 178.253 64.619 185.726 76.6946 193.697C65.7835 202.187 55.4855 210.2 44.9914 218.501C32.4574 210.749 20.1197 202.708 6.89355 194.089C18.89 186.006 30.1009 178.452 41.6445 170.839Z" fill="#514DFE"/>
<path d="M447.444 200.705C439.279 196.266 431.406 191.672 422.654 186.564C432.147 178.403 441.348 170.493 451.212 162.012C441.48 156.586 432.304 151.47 422.099 145.78C429.596 139.864 436.427 134.474 443.538 128.922C443.376 132.187 442.935 135.614 442.449 139.397C439.83 138.902 437.617 138.484 434.94 137.978C435.363 141.441 435.761 144.69 436.158 147.936C445.553 147.936 454.765 147.936 464.35 147.936C464.35 144.456 464.35 141.567 464.35 138.524C461.858 138.524 459.566 138.524 456.889 138.524C455.543 134.818 454.192 131.1 452.927 127.027C453.012 126.672 452.968 126.723 452.968 126.723C461.092 130.703 469.217 134.683 477.458 139.058C469.121 146.768 460.668 154.082 451.75 161.799C459.577 166.317 466.837 170.507 474.096 174.697C465.31 183.315 456.523 191.932 447.444 200.705Z" fill="#9879FD"/>
<path d="M304.397 339.649C293.608 333.029 283.13 326.305 272.677 319.543C271.73 318.931 270.944 318.071 269.987 316.992C279.267 308.787 288.736 301.019 297.961 292.973C300.419 290.828 302.076 290.653 304.806 292.441C314.229 298.615 323.84 304.501 333.685 310.659C324.233 320.392 314.474 329.964 304.397 339.649Z" fill="#524DFE"/>
<path d="M267.911 316.503C264.223 320.692 260.389 324.941 256.151 328.738C249.394 334.795 242.367 340.551 235.16 346.611C223.014 338.978 211.163 331.17 199.154 323.069C208.488 315.173 217.979 307.569 227.77 300.211C227.348 303.697 226.385 306.906 225.957 310.185C225.288 315.308 223.475 318.984 217.494 318.728C217.286 318.72 217.058 319.174 216.564 319.712C216.945 322.159 217.363 324.846 217.844 327.934C227.494 326.909 236.521 325.949 245.512 324.993C245.512 321.23 245.512 318.046 245.512 314.483C243.034 315.302 241.049 315.958 238.622 316.76C236.717 310.128 234.902 303.808 232.983 297.124C234.439 296.679 235.645 296.311 236.852 295.943C245.287 301.559 253.721 307.178 262.159 312.792C263.961 313.991 265.776 315.172 267.911 316.503Z" fill="#534EFE"/>
<path d="M105.985 260.161C116.747 251.635 127.71 243.382 138.943 234.909C139.556 234.69 139.899 234.692 140.498 234.704C149.698 240.469 158.642 246.222 168.317 252.445C156.578 261.308 145.372 269.768 133.997 278.535C124.614 272.707 115.401 266.57 105.985 260.161Z" fill="#9A7AFF"/>
<path d="M381.013 124.572C381.013 124.572 381.384 124.683 381.655 125.141C381.926 129.517 381.926 133.435 381.926 137.501C377.425 137.895 373.479 138.268 369.528 138.577C365.562 138.887 361.595 139.289 357.623 139.381C341.881 139.748 346.043 142.748 342.276 127.894C342.214 127.647 342.463 127.32 342.674 126.729C345.136 127.068 347.648 127.414 350.565 127.816C351.133 124.161 351.637 120.916 352.14 117.671C352.756 114.62 353.372 111.57 354.078 107.724C354.862 102.978 355.556 99.0272 356.355 94.4754C351.586 95.1187 347.75 95.6361 344.394 96.0887C344.651 91.0667 344.896 86.2808 345.141 81.4949C344.842 80.4614 344.544 79.4278 344.567 78.0671C353.838 76.6675 362.786 75.595 371.734 74.5225C372.647 78.1461 373.559 81.7698 374.816 85.876C375.438 86.486 375.717 86.6136 375.997 86.7411C375.997 86.7411 375.995 86.6772 375.948 87.0221C376.405 88.3378 376.91 89.3086 377.5 90.4448C373.132 91.5625 369.039 92.6098 364.319 93.8174C365.593 97.8737 366.703 101.407 367.812 104.94C369.015 109.335 370.217 113.73 371.67 118.803C373.95 127.676 373.536 126.065 381.013 124.572ZM353.21 92.3854C359.893 91.3427 366.576 90.3 373.258 89.2572C373.179 88.7969 373.099 88.3365 373.019 87.8762C364.459 89.1382 355.898 90.4002 347.338 91.6622C347.379 91.9567 347.42 92.2513 347.46 92.5459C349.101 92.5459 350.741 92.5459 353.21 92.3854ZM355.227 88.3826C360.155 87.6427 365.083 86.9028 370.011 86.1629C369.933 85.6622 369.854 85.1615 369.775 84.6608C362.42 85.7351 355.064 86.8095 347.709 87.8838C347.744 88.257 347.779 88.6302 347.815 89.0033C350.005 88.8506 352.195 88.698 355.227 88.3826ZM354.533 83.6333C352.691 83.9528 350.85 84.2723 349.008 84.5917C349.087 85.045 349.165 85.4982 349.244 85.9514C356.074 84.9574 362.904 83.9633 369.735 82.9693C369.658 82.457 369.581 81.9447 369.505 81.4325C364.795 82.1406 360.085 82.8487 354.533 83.6333ZM359.402 78.6575C355.496 79.1814 351.59 79.7052 347.684 80.2291C347.769 80.7165 347.853 81.204 347.938 81.6914C354.663 80.8118 361.388 79.9321 368.113 79.0525C368.049 78.5717 367.984 78.0909 367.92 77.6102C365.372 77.9467 362.824 78.2832 359.402 78.6575Z" fill="#FC9FBE"/>
<path d="M367.029 243.572C374.397 247.895 381.765 252.218 389.445 256.659C378.855 267.438 367.953 278.098 356.744 288.857C346.679 282.394 336.92 275.83 326.466 268.799C334.358 261.977 341.833 255.517 349.628 249.3C351.197 256.657 347.178 259.778 340.852 260.815C344.325 269.604 344.395 269.607 352.744 268.995C356.394 268.728 360.06 268.703 363.718 268.546C376.232 268.01 376.274 267.971 378.693 255.562C378.723 255.408 378.653 255.234 378.603 254.883C378.056 254.741 377.446 254.481 376.821 254.434C368.028 253.768 368.024 253.775 367.016 245.065C366.959 244.574 367.022 244.07 367.029 243.572Z" fill="#504DFB"/>
<path d="M474.406 174.585C466.837 170.507 459.577 166.317 451.75 161.799C460.668 154.082 469.121 146.768 477.782 139.209C485.078 142.519 492.166 146.073 498.047 149.023C490.289 157.485 482.502 165.978 474.406 174.585Z" fill="#514DFD"/>
<path d="M168.454 122.662C158.65 116.978 149.1 111.305 139.208 105.512C144.718 101.258 150.572 97.1257 156.741 92.8676C159.186 100.245 152.924 100.358 148.626 102.071C151.239 110.259 152.442 111.046 160.539 110.467C166.181 110.064 171.832 109.616 177.483 109.556C181.576 109.512 184.067 108.209 184.594 103.839C184.85 101.717 185.693 99.6663 186.755 97.2144C190.077 98.3685 192.914 99.8915 196.761 101.957C187.171 109.31 178.453 115.995 169.735 122.68C169.393 122.677 169.051 122.675 168.454 122.662Z" fill="#554FFD"/>
<path d="M106.572 126.899C111.468 130.034 116.047 133.243 120.867 137.066C120.941 139.448 120.773 141.217 120.578 143.277C118.089 143.277 115.885 143.277 113.537 143.277C113.352 141.3 113.19 139.572 113.021 137.767C109.306 137.767 105.936 137.767 102.548 137.767C102.667 139.923 102.763 141.673 102.871 143.632C100.849 144.012 99.1561 144.329 97.5445 144.632C96.7959 142.428 96.2266 140.752 95.6053 138.924C92.5073 139.888 89.6775 140.768 86.528 141.657C85.7823 141.661 85.3561 141.657 84.9299 141.652C92.0378 136.759 99.1456 131.866 106.572 126.899Z" fill="#4E4CF6"/>
<path d="M368.129 104.766C366.703 101.407 365.593 97.8737 364.319 93.8174C369.039 92.6098 373.132 91.5625 377.5 90.4447C376.91 89.3086 376.405 88.3378 375.917 87.0308C379.505 88.3975 383.076 90.1003 386.847 92.0416C382.204 95.4265 377.353 98.5614 372.522 101.727C371.134 102.636 369.803 103.634 368.129 104.766Z" fill="#5750FC"/>
<path d="M84.605 141.749C85.3563 141.657 85.7824 141.661 86.5442 142.062C87.8788 146.41 88.8776 150.362 89.8563 154.233C96.9623 153.231 97.3856 153.599 98.0144 160.685C90.909 156.453 83.8035 152.222 76.4146 147.814C78.8473 145.707 81.5636 143.776 84.605 141.749Z" fill="#504DFB"/>
<path d="M371.867 74.4137C362.786 75.595 353.838 76.6675 344.45 77.7628C343.728 77.6093 343.445 77.433 343.014 77.0588C352.293 75.847 361.72 74.8332 371.584 73.8907C372.02 73.9621 372 74.3048 371.867 74.4137Z" fill="#FF6E93"/>
<path d="M453.034 126.648C452.905 126.502 452.752 126.38 452.599 126.258C452.711 126.298 452.823 126.338 452.952 126.551C452.968 126.723 453.012 126.672 453.034 126.648Z" fill="#9879FD"/>
<path d="M375.935 86.5084C375.717 86.6137 375.438 86.4861 375.106 86.1137C375.411 85.8329 375.684 85.9685 375.935 86.5084Z" fill="#5750FC"/>
<path d="M169.927 122.978C178.453 115.995 187.171 109.31 196.761 101.957C192.914 99.8915 190.077 98.3685 186.923 96.8536C186.24 96.5099 185.875 96.158 184.946 95.4117C181.34 93.294 178.298 91.5707 175.256 89.8473C174.812 87.2514 174.369 84.6555 173.938 81.6816C182.134 75.8211 190.316 70.3386 199.145 64.8212C207.855 69.0808 215.916 73.3753 223.977 77.6699C223.694 79.1167 223.41 80.5636 222.673 82.4113C213.905 89.0326 205.59 95.2529 196.683 101.916C207.954 108.482 218.356 114.541 229.387 120.967C219.775 128.455 210.867 135.395 201.505 142.689C209.939 148.036 217.494 152.826 224.733 157.805C210.553 162.085 200.669 170.259 196.943 184.756C187.93 179.3 178.917 173.843 168.914 167.787C180.072 159.104 190.213 151.212 200.849 142.935C190.35 136.219 180.235 129.748 169.927 122.978Z" fill="#9A7AFF"/>
<path d="M174.835 34.7128C176.551 34.7984 177.835 34.8926 179.12 34.9868C179.138 35.4296 179.157 35.8724 179.176 36.3152C168.742 37.0491 158.307 37.783 147.873 38.517C147.825 37.9537 147.776 37.3905 147.728 36.8272C156.619 36.1253 165.511 35.4233 174.835 34.7128Z" fill="#FF668C"/>
<path d="M148.685 32.5115C148.286 31.9583 148.192 31.0422 148.226 31.0374C157.894 29.6799 167.572 28.3854 177.249 27.0894C177.33 27.6777 177.411 28.266 177.492 28.8544C168.011 30.0943 158.531 31.3343 148.685 32.5115Z" fill="#FF668C"/>
<path d="M156.41 43.751C154.269 43.9916 152.557 44.2104 150.844 44.4293C150.782 43.846 150.72 43.2627 150.658 42.6794C159.755 41.6736 168.852 40.6678 177.95 39.662C178.025 40.2872 178.1 40.9124 178.175 41.5376C171.062 42.2681 163.95 42.9987 156.41 43.751Z" fill="#FF698F"/>
<path d="M171.32 55.0882C165.312 55.1855 159.739 55.1855 154.166 55.1855C154.141 54.8769 154.117 54.5684 154.092 54.2599C162.059 53.7981 170.026 53.3363 177.992 52.8745C178.055 53.3387 178.118 53.8029 178.18 54.2671C176.039 54.5084 173.897 54.7496 171.32 55.0882Z" fill="#FF668C"/>
<path d="M171.981 46.7166C174.01 46.7026 175.6 46.7026 177.19 46.7026C177.216 47.229 177.241 47.7554 177.267 48.2818C169.45 48.9305 161.634 49.5791 153.817 50.2278C153.745 49.7132 153.673 49.1986 153.602 48.684C159.582 48.0329 165.562 47.3818 171.981 46.7166Z" fill="#FF668C"/>
<path d="M175.254 90.2291C178.298 91.5707 181.34 93.294 184.605 95.2391C182.083 95.4608 179.339 95.4608 176.412 95.4608C175.997 93.7234 175.625 92.1672 175.254 90.2291Z" fill="#5D54FC"/>
<path d="M225.05 157.615C217.495 152.826 209.939 148.036 201.505 142.689C210.868 135.395 219.776 128.455 229.387 120.967C218.356 114.541 207.954 108.482 196.683 101.917C205.59 95.2529 213.905 89.0326 222.555 82.7626C222.579 84.1718 222.295 85.6374 221.952 87.0887C219.858 95.9334 219.853 95.9323 211.514 96.9721C212.521 105.89 212.712 106.055 221.283 105.846C226.271 105.725 231.289 105.261 236.24 105.639C241.432 106.035 243.981 104.073 244.443 98.998C244.572 97.5742 244.98 96.1756 245.32 94.4642C242.225 94.4642 239.619 94.4642 236.573 94.4642C235.709 91.1465 234.841 87.8113 233.972 84.0766C242.276 88.0801 250.582 92.4832 259.951 97.4506C249.504 105.609 239.953 113.066 229.827 120.972C241.518 127.762 252.505 134.142 264.849 141.311C257.543 146.192 251.078 150.511 243.829 154.853C237.046 155.79 231.048 156.703 225.05 157.615Z" fill="#534EFE"/>
<path d="M233.799 41.0773C240.668 36.3479 247.303 31.6276 254.216 27.3598C255.779 26.3953 258.658 26.2533 260.34 27.023C266.967 30.0549 273.36 33.6011 279.874 37.5041C272.623 43.6883 265.336 49.325 257.655 54.9086C255.748 54.3373 254.234 53.8191 252.72 53.3009C252.74 45.8662 249.123 40.8596 241.934 37.514C240.951 39.8424 240.025 42.036 238.55 44.5002C236.26 43.9169 234.519 43.0629 232.778 42.209C233.073 41.8894 233.369 41.5698 233.799 41.0773Z" fill="#9A7AFF"/>
<path d="M224.146 77.3419C215.916 73.3753 207.855 69.0807 199.467 64.6844C201.359 62.9527 203.576 61.3226 206.125 59.5177C210.005 61.6818 213.549 64.0278 217.108 66.3496C217.514 66.6148 218.409 66.7544 218.405 66.9356C218.248 73.2473 223.09 69.3021 225.987 70.5688C225.439 72.682 224.877 74.848 224.146 77.3419Z" fill="#5750FC"/>
<path d="M232.514 42.486C234.519 43.063 236.26 43.9169 238.352 44.8274C236.716 51.2444 235.016 57.7663 228.504 63.1588C226.868 54.9996 230.178 48.9824 232.514 42.486Z" fill="#554FFD"/>
<path d="M252.514 53.5892C254.234 53.8191 255.748 54.3373 257.653 55.1106C258.046 55.6344 258.053 55.903 258.064 56.1716C255.166 57.69 252.268 59.2084 248.968 60.6949C249.814 58.4012 251.061 56.1394 252.514 53.5892Z" fill="#5D54FC"/>
<path d="M243.607 64.6481C241.864 66.5747 239.753 68.5461 237.304 70.5889C236.503 69.7444 236.042 68.8286 235.484 67.7235C237.841 66.8022 240.539 65.7476 243.607 64.6481Z" fill="#5D54FC"/>
<path d="M245.687 63.5837C245.519 63.9536 245.036 64.2912 244.246 64.6416C244.416 64.2867 244.895 63.9191 245.687 63.5837Z" fill="#5D54FC"/>
<path d="M247.77 61.4402C247.814 61.5987 247.628 61.9638 247.194 62.51C247.144 62.3429 247.342 61.9948 247.77 61.4402Z" fill="#5D54FC"/>
<path d="M246.719 62.668C246.803 62.8897 246.604 63.1669 246.172 63.558C246.105 63.3557 246.27 63.0396 246.719 62.668Z" fill="#5D54FC"/>
<path d="M258.385 56.3654C258.053 55.9031 258.046 55.6344 258.046 55.1637C265.336 49.325 272.623 43.6884 280.12 37.7599C291.803 43.2507 303.275 49.0333 314.963 55.0643C307.269 61.3115 299.36 67.3103 290.721 73.8633C303.199 80.7506 314.88 87.1971 327.342 94.075C316.875 101.981 307.017 109.427 296.371 117.469C306.96 123.343 316.855 128.831 327.594 134.788C318.696 141.386 310.483 147.476 301.617 153.648C298.11 151.93 295.255 150.131 292.194 148.201C295.808 145.542 297.849 142.899 294.206 139.39C290.703 136.015 282.966 136.152 280.086 139.513C277.609 142.403 278.763 144.718 284.969 148.992C284.063 149.961 283.186 150.9 282.308 151.839C276.723 148.32 271.137 144.801 264.975 140.919C275.428 133.053 285.453 125.509 296.11 117.491C283.819 110.71 272.259 104.332 260.043 97.5923C270.272 89.6975 279.942 82.2347 290.709 73.9244C279.501 67.8428 269.103 62.2009 258.385 56.3654Z" fill="#524EFF"/>
<path d="M224.733 157.805C231.048 156.703 237.046 155.79 243.452 154.898C243.194 158.838 242.528 162.756 241.63 167.354C241.039 169.697 240.678 171.361 240.189 173.616C243.267 172.808 245.608 172.193 247.948 171.578C259.152 169.177 259.407 169.119 261.988 180.537C262.649 183.458 261.745 187.137 260.474 189.983C259.074 193.122 256.181 194.097 252.929 190.5C252.017 187.031 251.383 184.24 250.628 180.917C244.275 184.235 238.552 187.225 234.431 189.379C237.043 192.8 239.457 195.96 241.871 199.12C242.545 204.152 242.958 209.241 244.031 214.186C244.424 216 246.143 217.771 247.696 219.015C248.986 220.047 250.918 220.277 252.451 221.458C251.885 223.477 251.209 224.871 251.024 226.328C250.45 230.852 247.999 232.139 243.573 231.924C238.12 231.659 232.628 232.273 227.151 232.44C218.918 232.69 218.461 232.338 215.143 223.544C218.047 222.874 220.919 222.211 223.79 221.548C223.766 221.292 223.742 221.036 223.718 220.781C220.17 220.008 216.622 219.235 213.172 218.111C216.38 210.897 215.578 204.284 212.022 197.393C213.044 191.529 214.043 186.121 215.278 180.634C215.709 180.286 215.903 180.02 216.373 179.609C216.49 178.477 216.33 177.488 216.143 176.078C216.134 173.716 216.153 171.773 216.523 169.875C217.68 171.228 218.412 172.592 219.316 173.83C220.046 174.831 221.062 176.532 221.815 176.461C227.317 175.947 232.785 175.063 238.264 174.296C238.195 173.834 238.126 173.371 238.057 172.909C235.312 173.207 232.556 173.433 229.823 173.818C221.963 174.924 221.971 174.948 219.125 168.075C219.019 167.819 218.661 167.667 217.576 166.761C217.041 167.65 216.46 168.617 215.599 169.797C213.336 172.453 213.395 174.718 215.936 177.12C215.954 178.174 215.94 178.878 215.707 179.699C215.215 180.029 215.043 180.306 214.672 180.833C212.965 185.966 211.558 190.914 209.807 195.715C208.799 194.702 208.308 193.372 207.441 193.047C204.049 191.778 200.538 190.826 197.071 189.756C197.078 188.362 197.084 186.968 197.017 185.165C200.669 170.259 210.553 162.085 224.733 157.805Z" fill="#FD9FBE"/>
<path d="M366.873 243.234C367.022 244.07 366.959 244.574 367.016 245.065C368.024 253.775 368.028 253.768 376.821 254.434C377.446 254.481 378.056 254.74 378.603 254.883C378.653 255.234 378.723 255.408 378.693 255.562C376.274 267.971 376.232 268.01 363.718 268.546C360.06 268.703 356.394 268.728 352.744 268.995C344.395 269.607 344.325 269.604 340.852 260.815C347.178 259.778 351.197 256.657 349.901 249.123C350.242 243.718 350.631 238.735 351.073 232.888C351.473 227.994 351.82 223.965 352.247 218.999C344.185 222.035 342.731 217.188 341.678 211.814C341.588 211.359 341.201 210.961 340.952 210.537C338.87 202.952 336.789 195.368 334.585 187.339C336.815 186.93 338.693 186.586 341.347 186.095C344.806 185.527 347.488 185.105 350.422 184.644C349.99 182.177 349.696 180.501 349.368 178.624C346.133 179.476 343.5 180.17 340.772 180.888C339.864 178.343 339.148 176.339 338.432 174.334C341.476 173.104 344.52 171.873 348.018 170.459C347.509 168.106 346.885 165.226 346.14 161.778C350.113 161.007 354.115 160.232 358.58 159.852C358.811 163.323 358.58 166.399 358.311 169.976C361.635 169.533 364.496 169.152 367.644 168.732C367.644 171.532 367.644 174.066 367.644 176.748C364.627 177.17 361.905 177.55 358.957 177.962C359.057 179.896 359.14 181.502 359.238 183.403C361.64 183.126 363.728 182.733 365.825 182.681C368.803 182.607 371.787 182.784 374.768 182.854C374.173 189.51 373.579 196.167 372.941 203.683C372.852 205.035 372.814 205.53 372.759 206.022C371.624 216.111 371.624 216.111 362.111 218.525C363.164 223.967 364.223 229.441 365.283 234.915C365.761 237.576 366.239 240.236 366.873 243.234ZM365.783 188.142C367.41 187.835 369.037 187.529 370.664 187.222C370.564 186.723 370.463 186.223 370.362 185.723C361.683 186.872 353.003 188.022 344.323 189.171C344.387 189.691 344.451 190.21 344.514 190.73C351.327 189.925 358.14 189.12 365.783 188.142ZM346.092 200.843C345.022 201.163 343.951 201.483 342.88 201.803C342.969 202.212 343.057 202.622 343.146 203.032C351.425 202.198 359.703 201.365 367.982 200.531C367.95 200.111 367.918 199.69 367.886 199.27C360.898 199.772 353.911 200.274 346.092 200.843ZM363.773 206.681C357.501 204.841 351.627 207.114 345.551 207.302C345.599 207.841 345.646 208.38 345.694 208.918C352.136 208.405 358.578 207.892 365.02 207.379C364.975 207.221 364.977 207.011 364.873 206.92C364.766 206.826 364.557 206.849 363.773 206.681ZM364.144 213.751C365.067 213.604 365.99 213.458 366.325 213.405C359.724 213.405 352.608 213.405 345.492 213.405C345.525 213.912 345.558 214.419 345.591 214.926C351.494 214.542 357.396 214.159 364.144 213.751Z" fill="#03264D"/>
<path d="M282.154 152.148C283.186 150.9 284.063 149.961 284.969 148.992C278.763 144.718 277.609 142.403 280.086 139.513C282.967 136.152 290.703 136.015 294.207 139.39C297.849 142.899 295.808 145.542 292.194 148.201C295.256 150.131 298.11 151.93 301.293 153.812C304.836 155.734 308.052 157.574 312.029 159.848C310.422 161.029 308.372 162.537 305.754 164.415C302.196 171.442 307.614 175.751 309.98 181.211C305.583 182.386 301.374 183.511 296.838 184.723C298.623 190.168 300.218 195.032 301.812 199.897C302.131 201.279 302.449 202.661 302.928 204.626C303.323 205.437 303.557 205.666 303.79 205.894C303.79 205.894 303.707 205.862 303.657 206.295C304.542 210.024 305.476 213.321 306.382 216.516C309.371 216.171 311.755 215.895 314.494 215.578C314.494 220.074 314.494 223.996 314.494 228.352C305.161 229.051 296.069 229.71 286.98 230.417C277.967 231.119 277.974 231.139 275.623 222.358C275.452 221.72 275.135 221.12 274.887 220.503C275.555 219.531 276.252 217.702 276.885 217.724C281.72 217.893 283.646 214.949 284.435 210.949C285.492 205.593 286.253 200.179 287.342 194.06C287.98 190.823 288.416 188.317 288.929 185.37C284.041 185.937 279.942 186.413 275.843 186.889C275.843 186.889 275.9 186.826 275.973 186.435C276.491 180.946 276.936 175.848 277.382 170.751C275.71 169.734 274.105 168.579 272.349 167.739C270.615 166.911 268.728 166.402 266.917 165.076C274.947 164.003 277.343 156.887 282.154 152.148ZM290.034 182.458C295.143 181.655 300.251 180.853 305.359 180.05C305.285 179.653 305.212 179.256 305.138 178.859C300.233 179.517 295.323 180.139 290.434 180.895C289.995 180.963 289.689 181.894 290.034 182.458Z" fill="#03274D"/>
<path d="M274.556 220.604C275.135 221.12 275.452 221.72 275.623 222.358C277.974 231.139 277.967 231.119 286.98 230.417C296.069 229.71 305.161 229.051 314.494 228.352C314.494 223.996 314.494 220.074 314.494 215.578C311.755 215.895 309.371 216.17 306.382 216.516C305.476 213.321 304.542 210.024 303.643 206.337C307.022 207.624 310.445 209.163 313.691 211.012C318.405 213.698 322.993 216.607 328.409 219.89C316.584 229.307 305.402 238.212 293.518 247.677C304.24 254.748 314.417 261.458 324.79 268.656C324.988 269.143 324.972 269.577 324.972 269.577C318.111 275.594 311.315 281.688 304.325 287.551C303.15 288.536 300.591 289.427 299.591 288.827C288.959 282.453 278.514 275.769 267.169 268.636C276.135 261.431 284.325 254.85 293.13 247.773C283.195 241.248 273.705 235.016 263.398 228.247C267.518 225.377 270.872 223.041 274.556 220.604Z" fill="#524EFE"/>
<path d="M237.129 295.734C235.646 296.311 234.439 296.679 232.983 297.124C234.902 303.808 236.717 310.128 238.622 316.76C241.049 315.958 243.035 315.302 245.512 314.483C245.512 318.046 245.512 321.23 245.512 324.994C236.521 325.949 227.494 326.909 217.844 327.934C217.363 324.846 216.945 322.159 216.564 319.712C217.058 319.174 217.286 318.72 217.494 318.728C223.475 318.985 225.288 315.308 225.957 310.185C226.386 306.906 227.349 303.697 228.066 300.044C226.414 299.323 224.768 299.016 222.646 298.62C222.728 298.063 222.869 297.11 223.007 296.155C212.411 292.841 207.859 287.53 206.999 276.666C207.367 273.812 207.723 271.758 208.079 269.704C208.079 269.704 208.018 269.672 208.226 269.636C208.686 269.388 208.82 269.119 208.837 268.791C212.031 263.031 216.631 259.253 224.082 258.286C232.992 258.086 239.254 261.385 243.093 268.808C246.184 274.785 245.158 280.728 242.924 286.657C242.924 286.657 242.986 286.686 242.757 286.742C242.367 287.095 242.206 287.391 242.045 287.687C241.532 289.103 241.212 290.635 240.454 291.904C239.656 293.241 238.439 294.328 237.129 295.734Z" fill="#FDA0BF"/>
<path d="M375.05 182.729C371.787 182.784 368.803 182.607 365.825 182.681C363.728 182.733 361.64 183.126 359.238 183.403C359.14 181.502 359.057 179.896 358.957 177.962C361.905 177.55 364.628 177.17 367.645 176.748C367.645 174.066 367.645 171.532 367.645 168.732C364.496 169.152 361.635 169.533 358.312 169.976C358.58 166.399 358.812 163.323 358.997 159.787C360.295 157.868 361.639 156.411 363.421 154.478C351.966 148.141 340.404 141.746 327.714 134.727C335.98 128.802 343.703 123.266 351.783 117.701C351.637 120.916 351.133 124.161 350.565 127.816C347.648 127.414 345.136 127.068 342.674 126.729C342.463 127.32 342.214 127.647 342.277 127.894C346.043 142.748 341.881 139.748 357.623 139.381C361.596 139.289 365.562 138.888 369.528 138.577C373.479 138.268 377.425 137.895 381.926 137.501C381.926 133.435 381.926 129.517 381.848 125.137C386.367 126.765 390.962 128.853 396.507 131.372C385.404 139.508 375.404 146.836 364.522 154.81C373.613 159.863 382.074 164.565 391.635 169.879C385.859 174.387 380.596 178.495 375.05 182.729Z" fill="#534EFD"/>
<path d="M213.074 218.463C216.622 219.235 220.17 220.008 223.718 220.781C223.742 221.037 223.766 221.292 223.79 221.548C220.919 222.211 218.047 222.874 215.143 223.544C218.461 232.338 218.918 232.691 227.151 232.44C232.628 232.273 238.12 231.659 243.573 231.924C247.999 232.139 250.45 230.852 251.024 226.328C251.209 224.871 251.885 223.477 252.579 221.776C256.044 223.695 259.267 225.892 263.333 228.665C253.698 235.385 244.706 241.657 235.357 248.041C225.084 241.864 215.168 235.576 205.343 228.777C207.317 226.899 209.555 225.821 210.973 224.077C212.168 222.608 212.41 220.364 213.074 218.463Z" fill="#544FFE"/>
<path d="M243.277 286.642C245.158 280.728 246.184 274.785 243.093 268.808C239.253 261.385 232.992 258.086 224.395 258.127C227.452 255.303 230.913 252.443 234.686 249.394C245.394 255.336 255.789 261.468 267.573 268.419C258.79 275.098 251.21 280.862 243.277 286.642Z" fill="#544FFE"/>
<path d="M302.139 199.74C300.218 195.032 298.623 190.168 296.838 184.723C301.374 183.511 305.583 182.386 309.98 181.211C307.614 175.751 302.196 171.442 305.539 164.684C313.804 169.342 321.717 174.101 330.611 179.449C320.85 186.432 311.658 193.008 302.139 199.74Z" fill="#514DFC"/>
<path d="M344.79 81.5842C344.896 86.2808 344.651 91.0666 344.394 96.0887C347.749 95.6361 351.586 95.1187 356.355 94.4754C355.556 99.0271 354.862 102.978 354.072 107.324C349.649 105.678 345.263 103.754 341.015 101.564C336.756 99.3689 332.635 96.9089 327.483 94.0211C333.549 89.6038 338.994 85.6387 344.79 81.5842Z" fill="#544FFE"/>
<path d="M340.621 210.637C341.201 210.961 341.588 211.359 341.678 211.814C342.731 217.188 344.185 222.035 352.247 218.999C351.82 223.965 351.473 227.994 351.012 232.453C343.714 228.765 336.532 224.646 328.451 220.013C332.86 216.559 336.575 213.648 340.621 210.637Z" fill="#514DFC"/>
<path d="M242.041 198.798C239.457 195.96 237.043 192.8 234.431 189.379C238.553 187.225 244.276 184.236 250.628 180.917C251.383 184.24 252.017 187.031 252.692 190.198C249.226 193.208 245.719 195.841 242.041 198.798Z" fill="#554FFD"/>
<path d="M338.117 174.425C339.148 176.339 339.864 178.343 340.772 180.888C343.5 180.17 346.133 179.476 349.368 178.624C349.696 180.502 349.99 182.177 350.422 184.644C347.488 185.105 344.806 185.527 341.716 185.922C338.071 183.721 334.835 181.548 331.103 179.04C333.54 177.394 335.671 175.955 338.117 174.425Z" fill="#504DFB"/>
<path d="M277.239 171.065C276.936 175.848 276.491 180.946 275.93 186.43C272.33 185.2 268.845 183.582 264.919 181.76C269.454 177.894 273.275 174.636 277.239 171.065Z" fill="#504DFB"/>
<path d="M275.922 187.217C279.942 186.413 284.041 185.937 288.929 185.37C288.416 188.317 287.98 190.823 287.295 193.654C283.365 191.834 279.683 189.689 275.922 187.217Z" fill="#504DFB"/>
<path d="M247.786 171.294C245.608 172.193 243.268 172.808 240.189 173.616C240.678 171.361 241.039 169.697 241.61 167.751C243.755 168.649 245.69 169.829 247.786 171.294Z" fill="#5D54FC"/>
<path d="M325.111 269.503C324.972 269.577 324.988 269.143 324.99 268.926C325.356 268.879 325.442 269.119 325.111 269.503Z" fill="#504DFB"/>
<path d="M242.239 287.541C242.206 287.391 242.367 287.095 242.77 286.71C242.872 286.919 242.679 287.177 242.239 287.541Z" fill="#544FFE"/>
<path d="M303.782 205.643C303.557 205.666 303.323 205.437 303.094 204.942C303.324 204.914 303.549 205.153 303.782 205.643Z" fill="#524EFE"/>
<path d="M213.172 218.111C212.41 220.364 212.168 222.608 210.973 224.077C209.555 225.821 207.317 226.899 205.147 228.495C204.505 229.408 203.716 230.206 203.861 230.759C205.404 236.656 207.094 242.514 208.84 248.72C211.329 247.924 213.441 247.249 215.868 246.473C215.868 249.999 215.868 253.102 215.868 256.934C206.772 257.913 197.658 258.895 188.034 259.932C187.541 256.644 187.113 253.788 186.55 250.038C195.148 252.233 195.359 246.199 196.338 241.031C196.984 237.625 197.354 234.167 197.52 230.735C195.722 230.738 194.251 230.738 192.382 230.738C192.739 229.815 193.007 229.119 193.464 227.935C183.028 226.452 178.89 218.61 176.367 209.846C175.715 207.58 177.682 204.422 178.783 201.817C182.033 194.127 188.218 190.593 196.682 189.838C200.538 190.826 204.049 191.778 207.441 193.048C208.308 193.372 208.799 194.702 209.907 195.966C210.901 196.858 211.449 197.354 211.998 197.85C215.578 204.284 216.38 210.897 213.172 218.111Z" fill="#03264A"/>
<path d="M365.599 234.796C364.224 229.441 363.164 223.967 362.111 218.525C371.624 216.111 371.624 216.111 372.759 206.022C372.814 205.53 372.852 205.035 372.993 204.13C378.647 206.915 384.206 210.113 390.699 213.848C382.012 221.149 373.963 227.913 365.599 234.796Z" fill="#514DFC"/>
<path d="M380.934 124.243C373.536 126.065 373.95 127.676 371.902 119.083C374.874 120.428 377.865 122.171 380.934 124.243Z" fill="#5D54FC"/>
<path d="M97.9975 160.678C97.3853 153.599 96.962 153.231 89.8561 154.233C88.8774 150.362 87.8785 146.41 86.8635 142.053C89.6773 140.768 92.5072 139.888 95.6052 138.924C96.2264 140.752 96.7958 142.428 97.5444 144.632C99.1559 144.329 100.849 144.012 102.871 143.632C102.763 141.673 102.667 139.923 102.548 137.767C105.935 137.767 109.306 137.767 113.021 137.767C113.19 139.572 113.352 141.3 113.537 143.277C115.885 143.277 118.089 143.277 120.578 143.277C120.773 141.217 120.941 139.448 121.167 137.255C124.608 137.461 127.991 138.09 131.566 138.755C131.355 140.297 131.183 141.552 130.843 143.514C129.981 146.686 129.285 149.152 128.464 152.066C121.495 149.525 120.362 154.069 119.497 158.911C119.383 159.551 119.351 160.205 119.28 160.853C119.122 165.468 118.963 170.084 118.896 175.487C119.959 182.026 120.358 188.286 129.346 186.708C128.44 191.191 127.688 194.916 126.935 198.642C126.935 198.642 126.983 198.625 126.972 198.602C114.199 198.58 101.437 198.58 88.1759 198.58C87.6582 195.532 87.1435 192.502 86.4873 188.639C94.8941 190.032 98.1248 185.945 98.0366 178.12C98.2601 172.674 98.519 167.632 98.6623 161.931C98.4959 160.946 98.3123 160.735 97.9962 160.64C97.9962 160.64 97.9808 160.672 97.9975 160.678ZM111.563 178.605C112.237 173.614 110.139 167.255 108.02 167.928C103.416 169.392 104.616 173.983 104.01 177.513C103.938 177.931 104.26 178.416 104.535 179.317C106.595 179.185 108.684 179.051 111.563 178.605ZM111.734 156.628C110.391 154.961 109.047 153.293 107.704 151.626C106.748 153.433 105.572 155.163 104.902 157.071C104.33 158.7 104.338 160.533 104.047 162.572C107.163 162.572 109.735 162.572 112.63 162.572C112.36 160.622 112.138 159.017 111.734 156.628Z" fill="#02264B"/>
<path d="M127.292 198.657C127.688 194.917 128.44 191.191 129.346 186.708C120.358 188.286 119.96 182.027 119.038 175.858C126.264 179.724 133.439 184.007 141.609 188.883C136.373 192.555 132.011 195.613 127.292 198.657Z" fill="#524DFE"/>
<path d="M119.601 160.75C119.351 160.205 119.383 159.551 119.498 158.911C120.363 154.069 121.495 149.525 128.464 152.066C129.286 149.152 129.981 146.686 130.87 143.876C132.891 144.56 134.717 145.588 137.613 147.219C131.272 152.032 125.597 156.34 119.601 160.75Z" fill="#504DFB"/>
<path d="M97.9849 160.85C98.3126 160.735 98.4961 160.946 98.5118 161.489C98.2121 161.566 98.0444 161.35 97.9849 160.85Z" fill="#504DFB"/>
<path d="M207.724 269.716C207.723 271.758 207.367 273.812 206.955 276.256C205.358 275.861 203.817 275.075 201.266 273.775C203.803 272.092 205.586 270.91 207.724 269.716Z" fill="#5750FC"/>
<path d="M208.667 268.92C208.82 269.119 208.686 269.388 208.212 269.667C208.126 269.481 208.294 269.253 208.667 268.92Z" fill="#5750FC"/>
<path d="M352.796 92.4657C350.741 92.5459 349.101 92.5459 347.46 92.5459C347.42 92.2513 347.379 91.9568 347.338 91.6622C355.898 90.4002 364.459 89.1382 373.019 87.8762C373.099 88.3366 373.179 88.7969 373.258 89.2572C366.576 90.3 359.893 91.3427 352.796 92.4657Z" fill="#FF6E93"/>
<path d="M354.806 88.4639C352.195 88.6979 350.005 88.8506 347.815 89.0033C347.779 88.6302 347.744 88.257 347.709 87.8838C355.064 86.8095 362.42 85.7351 369.775 84.6608C369.854 85.1615 369.933 85.6622 370.011 86.1629C365.083 86.9028 360.155 87.6427 354.806 88.4639Z" fill="#FF6E93"/>
<path d="M354.954 83.5951C360.085 82.8487 364.795 82.1406 369.504 81.4325C369.581 81.9447 369.658 82.457 369.734 82.9693C362.904 83.9633 356.074 84.9574 349.244 85.9514C349.165 85.4982 349.087 85.045 349.008 84.5917C350.85 84.2723 352.691 83.9528 354.954 83.5951Z" fill="#FF6E93"/>
<path d="M359.839 78.6387C362.823 78.2833 365.372 77.9468 367.92 77.6102C367.984 78.091 368.048 78.5718 368.113 79.0525C361.388 79.9322 354.663 80.8118 347.938 81.6915C347.853 81.2041 347.769 80.7166 347.684 80.2292C351.59 79.7053 355.496 79.1814 359.839 78.6387Z" fill="#FF6E93"/>
<path d="M215.879 169.584C216.46 168.617 217.041 167.65 217.576 166.761C218.662 167.667 219.019 167.819 219.126 168.075C221.971 174.947 221.963 174.924 229.823 173.818C232.557 173.433 235.312 173.207 238.058 172.909C238.126 173.371 238.195 173.833 238.264 174.296C232.785 175.063 227.317 175.947 221.815 176.461C221.062 176.532 220.046 174.831 219.316 173.83C218.412 172.592 217.68 171.228 216.449 169.812C216.023 169.705 215.879 169.584 215.879 169.584Z" fill="#FF6E93"/>
<path d="M212.022 197.393C211.449 197.354 210.901 196.858 210.251 196.111C211.558 190.914 212.965 185.966 214.689 180.851C215.005 180.682 215.041 180.714 215.041 180.714C214.043 186.121 213.044 191.529 212.022 197.393Z" fill="#FF668C"/>
<path d="M215.905 176.771C213.395 174.718 213.336 172.453 215.599 169.797C215.879 169.584 216.024 169.705 216.098 169.768C216.153 171.773 216.135 173.715 216.078 176.147C216.039 176.636 215.905 176.771 215.905 176.771Z" fill="#FF6E93"/>
<path d="M216.105 176.568C216.33 177.488 216.49 178.477 216.327 179.57C216.004 179.675 215.926 179.583 215.926 179.583C215.94 178.878 215.954 178.174 215.936 177.12C215.905 176.771 216.039 176.636 216.105 176.568Z" fill="#FF6E93"/>
<path d="M216.051 179.714C215.903 180.02 215.709 180.286 215.278 180.634C215.041 180.714 215.005 180.682 214.989 180.664C215.043 180.306 215.215 180.029 215.707 179.699C215.926 179.583 216.004 179.675 216.051 179.714Z" fill="#FF668C"/>
<path d="M365.368 188.229C358.14 189.12 351.327 189.925 344.514 190.73C344.451 190.21 344.387 189.691 344.323 189.171C353.003 188.022 361.683 186.873 370.362 185.723C370.463 186.223 370.564 186.723 370.664 187.222C369.037 187.529 367.41 187.835 365.368 188.229Z" fill="#4045D9"/>
<path d="M346.508 200.809C353.911 200.274 360.898 199.772 367.886 199.27C367.918 199.69 367.95 200.111 367.982 200.531C359.703 201.365 351.425 202.198 343.146 203.032C343.057 202.622 342.969 202.213 342.88 201.803C343.951 201.483 345.022 201.163 346.508 200.809Z" fill="#4045D9"/>
<path d="M364.083 206.751C364.557 206.849 364.766 206.826 364.873 206.92C364.977 207.011 364.976 207.221 365.021 207.379C358.578 207.892 352.136 208.405 345.694 208.918C345.647 208.38 345.599 207.841 345.551 207.302C351.627 207.114 357.502 204.841 364.083 206.751Z" fill="#4045D9"/>
<path d="M363.722 213.763C357.396 214.159 351.494 214.542 345.591 214.926C345.558 214.419 345.525 213.912 345.492 213.405C352.608 213.405 359.724 213.405 366.325 213.405C365.99 213.458 365.067 213.604 363.722 213.763Z" fill="#4045D9"/>
<path d="M289.678 182.441C289.689 181.894 289.995 180.963 290.434 180.895C295.323 180.139 300.233 179.517 305.137 178.859C305.211 179.256 305.285 179.653 305.359 180.05C300.251 180.853 295.143 181.655 289.678 182.441Z" fill="#4045D9"/>
<path d="M111.168 178.761C108.684 179.051 106.595 179.185 104.536 179.317C104.26 178.416 103.938 177.931 104.01 177.513C104.616 173.983 103.416 169.392 108.02 167.928C110.139 167.255 112.237 173.614 111.168 178.761Z" fill="#4E4CF6"/>
<path d="M111.825 157.02C112.138 159.017 112.36 160.622 112.63 162.572C109.735 162.572 107.163 162.572 104.047 162.572C104.338 160.533 104.33 158.7 104.902 157.071C105.572 155.163 106.748 153.433 107.704 151.626C109.047 153.293 110.391 154.961 111.825 157.02Z" fill="#4E4CF6"/>
</svg>
