<svg width="501" height="512" viewBox="0 0 501 512" fill="none" xmlns="http://www.w3.org/2000/svg">
<path d="M406.597 512C404.248 506.885 402.891 501.405 400.068 496.829C398.881 494.905 394.596 494.892 391.72 494.009C390.337 493.585 388.404 493.557 387.726 492.621C387.012 491.636 387.444 489.778 387.519 488.308C387.529 488.102 388.345 487.905 388.806 487.759C399.156 484.485 402.482 475.789 405.211 466.6C405.5 465.629 406.165 464.77 407.48 462.326C410.048 468.282 411.908 472.985 414.126 477.513C414.842 478.976 416.287 480.448 417.761 481.106C422.44 483.196 427.29 484.905 432.257 488.078C428.163 490.041 424.185 492.326 419.935 493.853C417.137 494.858 415.935 496.318 415.022 499.081C413.613 503.346 411.407 507.347 409.868 511.73C409.13 512 408.063 512 406.597 512Z" fill="#E8C01B"/>
<path d="M79.7965 0C81.3208 4.49988 82.1664 8.8921 87.8055 10.4793C91.2709 11.4546 90.6256 14.1944 87.6105 15.1108C83.4881 16.3636 81.4054 19.0795 79.7538 22.7175C78.6867 25.0679 76.3256 26.534 75.3002 23.0854C73.84 18.1741 71.1898 15.4275 66.1663 14.7577C65.5247 14.6722 64.9879 13.8009 63.9851 12.9319C68.2505 8.75998 75.6546 7.98354 76.1671 0.366284C77.2632 0 78.3298 0 79.7965 0ZM83.1533 13.1942C81.3791 11.0801 79.6049 8.96605 78.0087 7.0641C75.7592 8.91864 73.539 10.7492 71.9684 12.044C73.9984 14.2425 76.0436 16.4575 77.8031 18.3631C79.285 16.9318 80.995 15.2803 83.1533 13.1942Z" fill="#261D2A"/>
<path d="M85.0601 483.021C73.2569 478.678 64.1688 470.486 56.2213 461.262C48.9834 452.862 42.2231 443.89 36.4088 434.458C26.7508 418.79 20.2759 401.754 18.1921 383.276C17.5127 377.252 16.1221 371.193 16.3669 365.204C16.7543 355.729 17.8048 346.226 19.3712 336.869C21.8776 321.895 30.1305 309.882 41.0506 299.843C55.7855 286.298 72.1995 274.961 89.6619 265.18C117.329 249.683 146.169 236.911 176.611 227.862C194.454 222.559 212.478 218.525 231.118 216.806C247.085 215.334 262.722 215.453 277.395 222.184C283.927 225.181 290.031 229.802 295.273 234.796C315.748 254.305 328.01 278.56 335.325 305.678C339.381 320.717 341.851 335.913 341.05 351.405C340.452 362.958 338.887 374.554 331.023 384.699C330.493 385.462 330.344 385.763 330.195 386.065C330.195 386.065 330.196 385.999 329.88 386.041C318.526 395.425 306.055 396.833 292.545 392.908C276.105 388.131 261.78 379.482 248.598 368.829C244.951 365.882 242.032 364.47 237.094 366.82C208.529 380.411 179.737 393.524 151.114 406.994C149.385 407.808 147.73 410.126 147.254 412.046C142.379 431.698 136.569 450.971 124.401 467.558C118.069 476.19 110.427 483.414 99.0154 484.447C95.1019 484.802 91.1006 484.186 87.1394 484.014C87.1394 484.014 87.2038 483.997 87.0243 483.774C86.2499 483.373 85.655 483.197 85.0601 483.021ZM296.167 259.564C280.942 239.499 263.746 234.18 239.967 242.743C233.601 245.035 227.627 248.485 221.609 251.661C210.091 257.74 204.738 268.142 203.487 280.435C202.739 287.785 203.101 295.489 204.436 302.765C208.361 324.158 223.705 341.021 241.814 343.78C260.476 346.624 278.093 343.017 293.465 331.76C307.579 321.425 313.55 307.373 310.312 289.799C308.27 278.718 303.01 269.17 296.167 259.564ZM37.4252 343.914C30.3209 364.685 32.7746 384.65 43.2183 403.596C49.1855 414.421 58.3146 422.055 70.8841 423.735C86.1823 425.781 100.811 423.064 113.789 414.241C127.918 404.636 135.019 391.337 134.341 373.997C133.467 351.634 111.289 323.274 89.8442 317.417C71.381 312.374 47.6874 324.116 37.4252 343.914ZM187.099 362.405C193.47 359.315 199.841 356.225 206.409 353.04C205.505 350.925 204.94 349.382 204.207 347.925C198.154 335.894 200.564 335.889 187.206 341.303C178.673 344.762 170.441 348.967 161.607 353.053C164.009 357.832 165.975 361.829 168.02 365.785C169.474 368.597 171.513 369.405 174.566 367.915C178.438 366.025 182.469 364.461 187.099 362.405ZM130.422 264.624C151.803 253.729 174 244.872 196.969 237.956C166.655 243.986 139.056 256.599 112.459 271.638C112.732 272.268 113.005 272.898 113.278 273.528C118.772 270.674 124.266 267.821 130.422 264.624ZM55.5848 446.087C53.6022 443.696 51.6196 441.305 49.6371 438.914C49.2236 439.223 48.8101 439.533 48.3966 439.843C49.079 441.036 49.5703 442.403 50.4755 443.392C55.6387 449.033 60.6029 454.907 66.2088 460.079C72.3843 465.777 79.6642 470.01 88.0769 471.525C94.9149 472.758 101.701 472.612 107.519 467.891C106.575 467.471 105.633 467.362 104.859 467.671C95.4803 471.412 86.1248 470.6 78.0731 465.135C70.1818 459.778 63.3525 452.857 55.5848 446.087ZM319.501 374.73C326.465 362.438 330.28 333.818 325.536 324.258C325.367 326.798 325.236 328.327 325.168 329.859C324.853 337.001 324.935 344.184 324.166 351.276C322.95 362.488 320.662 373.398 310.468 380.504C310.383 380.563 310.615 381.077 311.073 382.724C314.031 380.008 316.571 377.675 319.501 374.73ZM212.939 231.967C212.129 232.533 211.319 233.099 209.385 234.45C223.568 232.017 236.284 229.835 249 227.653C236.803 225.806 225.197 228.518 212.939 231.967Z" fill="#76ADA2"/>
<path d="M148.164 116.876C150.052 95.3669 156.239 75.2123 167.846 56.9555C178.688 39.9028 192.423 25.7573 210.857 16.7476C220.373 12.0965 230.436 9.54401 241.021 8.9798C245.127 8.76098 249.216 8.13794 253.321 8.03176C277.312 7.41126 300.737 11.3617 323.838 17.3534C349.788 24.0842 374.797 33.4486 398.591 45.8339C416.062 54.9279 432.696 65.2497 447.46 78.5608C459 88.9661 468.984 100.192 473.26 115.44C476.676 127.622 476.63 139.981 475.382 152.59C473.283 173.801 466.848 193.583 456.477 211.905C450.321 222.783 442.458 232.75 434.848 242.735C426.644 253.499 415.862 261.046 403.048 265.561C402.142 265.88 401.12 265.87 399.303 265.973C388.311 266.486 379.539 263.02 373.124 255.374C368.267 249.586 363.977 243.084 360.641 236.306C354.273 223.368 351.302 209.302 349.584 195.052C349.134 191.319 347.343 190.085 344.244 189.052C314.576 179.157 284.92 169.221 255.323 159.116C251.459 157.797 248.591 158.275 245.191 160.51C228.561 171.439 211.176 180.771 191.303 184.498C169.624 188.563 155.198 179.399 149.901 158.08C149.621 156.952 149.203 155.816 149.17 154.674C148.798 142.076 148.49 129.476 148.164 116.876ZM460.114 149.145C462.469 127.745 453.73 112.03 434.764 102.604C426.691 98.5922 417.62 96.4436 408.842 94.0334C398.993 91.3295 390.004 94.4589 381.927 99.9859C367.837 109.629 359.03 123.065 355.425 139.686C352.36 153.819 355.053 166.926 364.641 178.019C373.176 187.895 383.798 194.955 396.141 199.322C421.906 208.437 444.651 198.264 454.356 172.728C457.104 165.498 458.188 157.635 460.114 149.145ZM273.261 105.454C276.872 93.6858 277.963 81.7508 276.303 69.4893C271.838 36.5035 231.592 19.8647 204.862 40.0581C193.278 48.8095 184.863 60.063 179.653 73.5233C174.591 86.5988 173.191 100.091 181.249 112.396C191.808 128.521 207.341 137.583 226.535 138.826C248.565 140.252 264.844 128.319 273.261 105.454ZM293.87 144.603C304.446 148.413 315.008 152.264 325.609 156.002C327.789 156.771 330.938 158.555 331.403 154.437C331.971 149.398 339.365 143.227 332.435 139.587C321.852 134.028 310.025 130.834 297.47 126.17C295.985 132.831 294.751 138.37 293.87 144.603ZM396.24 65.3213C398.358 66.3807 400.476 67.4402 402.593 68.4997C392.919 57.3605 324.554 31.753 316.733 35.7294C344.388 42.9858 370.88 51.6372 396.24 65.3213ZM158.82 154.781C164.12 166.371 173.719 174.44 179.929 172.297C179.333 171.834 178.884 171.287 178.31 171.068C167.538 166.963 161.056 158.751 159.25 147.888C157.552 137.676 157.824 127.134 157.278 116.735C157.198 115.23 157.393 113.71 157.509 111.102C152.588 117.916 153.501 139.815 158.82 154.781ZM430.649 227.949C432.908 225.364 435.167 222.78 437.897 219.657C436.178 219.379 435.729 219.174 435.587 219.305C434.49 220.308 433.499 221.428 432.39 222.417C424.476 229.475 416.824 236.868 408.517 243.432C402.835 247.921 395.971 250.23 388.396 248.978C387.792 248.878 387.094 249.342 386.44 249.544C388.085 251.02 389.888 252.021 391.41 251.699C396.386 250.644 401.999 250.215 406.018 247.528C414.515 241.846 422.158 234.888 430.649 227.949ZM437.164 88.4661C440.548 91.1617 443.931 93.8572 448.292 97.3309C445.509 89.8794 422.187 74.1356 414.294 74.0548C422.246 79.0464 429.413 83.5449 437.164 88.4661Z" fill="#BE607A"/>
<path d="M147.812 117.085C148.49 129.476 148.798 142.076 149.17 154.674C149.203 155.816 149.621 156.952 149.901 158.08C155.198 179.399 169.624 188.563 191.303 184.498C211.175 180.771 228.561 171.439 245.19 160.51C248.591 158.275 251.459 157.797 255.323 159.116C284.92 169.221 314.576 179.157 344.244 189.052C347.343 190.085 349.134 191.319 349.584 195.052C351.302 209.302 354.273 223.368 360.641 236.306C363.977 243.084 368.267 249.586 373.124 255.374C379.539 263.02 388.311 266.486 398.908 265.969C386.997 272.766 374.774 271.376 363.238 264.397C346.792 254.448 338.871 238.843 336.276 220.323C335.411 214.145 335.422 207.832 335.246 201.575C335.174 199.002 334.75 197.65 331.794 196.717C305.174 188.313 278.626 179.675 252.099 170.978C247.637 169.515 245.98 173.456 243.704 175.271C229.038 186.971 213.221 196.357 194.573 199.669C184.469 201.464 174.914 199.223 166.363 192.789C153.589 183.179 147.304 170.379 145.043 154.803C143.404 143.512 144.617 132.63 146.895 121.682C147.195 120.242 147.277 118.757 147.812 117.085Z" fill="#E8BF1C"/>
<path d="M87.2976 484.342C91.1006 484.186 95.1019 484.802 99.0154 484.448C110.427 483.414 118.069 476.19 124.401 467.558C136.569 450.972 142.379 431.698 147.254 412.046C147.73 410.126 149.385 407.808 151.114 406.994C179.737 393.524 208.529 380.411 237.094 366.82C242.032 364.47 244.951 365.882 248.598 368.829C261.78 379.482 276.105 388.131 292.545 392.908C306.055 396.833 318.526 395.425 329.913 386.046C326.984 395.835 320.215 402.615 310.683 405.894C288.975 413.36 269.742 407.319 252.404 393.606C247.123 389.429 242.369 384.585 236.883 379.601C235.627 380.15 233.561 380.973 231.563 381.937C209.457 392.609 187.364 403.308 165.254 413.974C163.941 414.607 162.529 415.045 161.146 415.523C157.724 416.705 156.48 418.686 155.994 422.678C153.536 442.865 149.885 462.883 136.876 479.464C131.799 485.935 125.078 490.065 116.147 490.11C106.152 490.161 96.4466 489.529 87.2976 484.342Z" fill="#A17396"/>
<path d="M469.212 398.917C475.98 404.237 482.888 409.39 489.439 414.965C491.77 416.949 495.972 418.681 493.021 423.788C492.469 425.185 492.316 426.065 491.841 427.074C481.745 439.642 471.77 451.932 462.319 464.613C459.436 468.48 457.577 468.287 454.209 465.637C444.626 458.097 434.852 450.799 425.124 443.444C420.864 440.223 416.535 437.093 412.191 433.596C411.248 432.385 410.349 431.499 409.451 430.613C409.529 429.089 409.002 427.078 409.777 426.115C417.866 416.078 426.157 406.203 434.405 396.294C438.151 391.793 441.925 387.315 445.783 382.71C447.892 383.921 449.691 384.955 451.842 385.977C452.194 385.965 452.136 385.992 452.218 386.278C452.925 386.996 453.548 387.429 454.445 388.015C455.296 388.766 455.875 389.362 456.427 390.37C454.924 395.523 453.448 400.266 451.594 405.016C441.807 406.738 435.433 413.23 434.394 422.157C433.499 429.852 438.479 438.368 445.734 441.549C453.692 445.038 462.683 442.962 468.369 436.323C475.291 428.24 474.355 417.913 465.936 408.68C467.052 405.157 468.132 402.037 469.212 398.917Z" fill="#76ACA2"/>
<path d="M445.301 300.872C435.312 279.221 448.64 257.229 471.535 257.038C473.445 257.021 475.361 257.671 477.679 258.502C479.249 273.979 474.114 279.428 459.026 280.138C455.219 280.317 451.185 281.655 447.835 283.507C445.568 284.76 444.313 287.844 442.605 290.109C443.149 290.693 443.693 291.278 444.237 291.862C447.593 283.494 454.324 282.291 461.769 282.236C475.267 282.137 482.897 272.446 480.226 259.034C487.732 260.33 492.103 265.697 495.914 271.795C489.221 271.15 484.71 273.556 481.656 279.251C480.26 281.854 478.69 284.662 476.453 286.439C473.874 288.489 470.438 290.803 467.434 290.725C458.159 290.485 450.531 292.778 445.301 300.872ZM466.408 269.738C470.701 264.575 471.46 261.633 468.856 257.732C468.04 272.147 457.234 271.751 447.359 272.95C454.056 274.502 460.303 274.608 466.408 269.738Z" fill="#CF7C39"/>
<path d="M456.454 389.959C455.875 389.362 455.296 388.766 454.43 387.619C453.473 386.71 452.805 386.351 452.136 385.992C452.136 385.992 452.195 385.965 452.205 385.995C451.876 382.356 451.307 378.69 451.241 375.015C451.102 367.263 456.219 360.925 464.206 358.557C470.89 356.575 480.483 359.734 483.9 365.446C487.51 371.481 488.793 377.902 485.309 384.548C482.287 390.313 477.646 393.679 470.207 394.033C465.082 392.678 460.768 391.318 456.454 389.959ZM477.547 370.497C478.356 374.615 479.164 378.733 479.973 382.851C483.07 371.113 476.692 360.163 467.785 361.882C469.935 363.012 471.831 363.631 473.216 364.836C474.796 366.211 475.922 368.108 477.547 370.497Z" fill="#BD6079"/>
<path d="M30.9776 44.5225C33.1477 38.4 35.149 32.6325 37.1503 26.865C37.6586 26.7859 38.1668 26.7068 38.675 26.6277C40.5298 31.0681 42.4627 35.4781 44.2094 39.9607C45.2261 42.5701 46.1779 44.6237 49.5403 45.2533C52.9671 45.8949 56.2109 47.6422 59.4473 49.0996C60.4999 49.5736 61.2773 50.6589 62.1805 51.4646C61.3379 52.2806 60.5946 53.2536 59.624 53.8671C58.7035 54.4489 57.5472 54.6604 56.4908 55.0237C50.3585 57.1324 45.1526 59.8966 44.0371 67.3834C43.6384 70.0587 41.3379 72.4507 39.9055 74.972C38.0134 72.7119 35.0664 70.7122 34.4317 68.1416C32.6927 61.0985 29.0891 57.3997 21.5847 57.6721C20.1995 57.7224 18.7585 56.2372 16.947 55.2432C19.1434 48.4896 26.5343 48.6679 30.9776 44.5225Z" fill="#E8C11B"/>
<path d="M228.337 451.82C225.328 451.619 222.682 451.35 220.052 451.455C214.801 451.665 208.875 453.778 204.472 452.009C198.032 449.42 192.027 444.767 187.046 439.785C181.229 433.968 185.283 422.268 193.789 418.958C196.704 417.824 198.284 416.454 199.133 413.397C200.476 408.565 205.053 406.566 210.903 408.613C214.994 410.045 218.285 410.402 222.46 408.337C228.552 405.322 236.462 410.062 239.895 417.498C240.862 419.592 242.421 421.83 244.324 422.999C250.589 426.848 252.672 431.539 250.085 438.463C247.514 445.345 237.505 454.541 228.337 451.82ZM240.645 446.082C242.943 443.287 245.821 440.786 247.414 437.635C250.426 431.679 247.596 426.713 241.571 425.185C239.324 427.891 237.564 430.714 235.105 432.648C234.025 433.498 231.521 432.539 229.663 432.401C229.992 430.724 229.773 428.534 230.763 427.476C232.828 425.269 235.532 423.66 238.21 421.627C237.013 416.184 233.931 411.817 228.301 410.545C225.577 409.93 222.351 411.536 218.744 412.257C222.209 417.099 224.232 420.864 220.909 424.813C220.152 425.713 217.182 425.965 216.164 425.227C211.402 421.775 214.324 417.536 215.59 413.568C206.277 408.017 203.245 409.475 199.916 421.044C193.102 420.655 188.407 424.324 187.361 430.858C186.482 436.344 190.039 440.643 197 442.494C197.33 440.874 197.271 439.02 198.078 437.689C199.345 435.597 201.194 433.858 202.797 431.969C204.217 433.204 206.698 434.34 206.826 435.696C207.06 438.201 206.313 441.03 205.188 443.341C204.568 444.615 202.347 445.11 200.842 445.96C204.819 451.58 216.489 451.663 221.955 446.99C221.955 443.625 221.616 440.824 222.106 438.176C222.333 436.948 224.171 436.017 225.279 434.951C226.265 436.121 228.049 437.27 228.079 438.464C228.157 441.471 227.444 444.498 227.013 447.786C231.068 450.843 232.995 450.713 240.645 446.082ZM202.4 442.712C206.356 439.405 206.42 437.935 202.771 434.25C199.114 438.083 198.745 440.956 202.4 442.712ZM216.175 421.985C217.291 422.4 218.407 422.816 219.522 423.232C219.377 420.665 219.232 418.099 219.088 415.532C218.397 415.538 217.706 415.544 217.015 415.55C216.675 417.42 216.335 419.289 216.175 421.985Z" fill="#342C38"/>
<path d="M467.908 11.3202C468.705 12.2082 469.474 12.7512 469.749 13.4804C471.397 17.8376 473.778 21.1735 478.299 23.3701C482.128 25.231 483.247 31.414 481.808 36.384C479.667 43.7779 469.059 52.584 462.25 50.5843C454.707 48.3693 448.207 51.5036 441.24 51.6003C436.994 51.6593 432.707 51.055 430.001 46.6632C429.006 45.0479 426.895 43.8698 425.042 43.0779C418.609 40.3275 415.881 36.1661 416.281 29.0791C416.599 23.4329 420.651 18.8205 426.44 16.9912C427.732 16.5828 429.142 15.2467 429.687 13.987C433.047 6.21912 436.935 4.44004 444.802 8.03768C447.554 9.29622 449.518 9.18185 452.087 7.74757C457.729 4.59647 461.919 5.64354 467.908 11.3202ZM447.543 24.0141C442.777 20.2903 445.864 16.0102 447.309 10.7742C443.169 10.3567 438.744 8.56702 436.089 10.0171C433.384 11.4943 432.421 16.159 430.549 19.7036C424.756 18.9324 419.938 22.623 418.886 29.3752C417.973 35.2364 421.583 39.6037 428.366 40.8442C428.987 38.479 429.26 35.9353 430.351 33.812C431.066 32.4205 432.991 30.7786 434.325 30.8212C435.675 30.8642 437.385 32.602 438.195 34.0212C440.167 37.4765 438.962 40.4544 435.834 42.6395C434.701 43.4303 433.343 43.8969 432.027 44.5412C436.421 50.1482 445.658 50.4305 453.612 45.6348C453.458 42.742 452.906 39.9224 453.328 37.2574C453.55 35.8599 455.481 34.7334 456.639 33.4845C457.633 34.6799 459.42 35.847 459.464 37.0766C459.571 40.067 458.87 43.0864 458.336 47.3555C460.587 47.528 463.41 48.4773 465.746 47.7844C472.469 45.7902 477.339 41.3549 479.478 34.4981C481.199 28.9794 478.071 24.6731 472.805 23.9671C470.754 26.5408 469.272 29.2503 467.015 30.9028C465.72 31.8514 463.169 31.0853 461.184 31.091C461.537 29.2835 461.317 26.9675 462.37 25.7795C464.272 23.6328 466.935 22.16 469.391 20.3225C468.722 14.8672 465.535 10.9272 460.545 9.42051C457.722 8.5684 454.228 9.94161 450.598 10.3635C452.115 13.7227 453.281 15.5943 453.813 17.6314C454.923 21.8763 452.652 24.459 447.543 24.0141ZM436.814 36.6184C436.095 35.2974 435.377 33.9765 434.658 32.6555C434.102 32.6794 433.546 32.7032 432.991 32.727C432.23 35.6052 431.47 38.4833 430.71 41.3615C431.327 41.7069 431.943 42.0524 432.559 42.3978C433.98 40.7136 435.4 39.0294 436.814 36.6184ZM448.808 22.1118C449.787 21.3631 451.638 20.5435 451.584 19.8791C451.421 17.8781 450.516 15.9375 449.901 13.9734C449.188 14.1246 448.476 14.2758 447.764 14.427C447.893 16.8319 448.022 19.2369 448.808 22.1118Z" fill="#342C38"/>
<path d="M500.171 287.97C500.196 307.249 479.132 322.516 458.848 313.205C458.398 312.999 457.919 312.855 457.57 312.151C460.533 305.038 465.267 301.66 472.714 301.731C478.819 301.79 483.148 298.544 486.198 293.113C489.951 286.429 492.603 285.672 500.171 287.97ZM486.404 302.516C479.688 304.062 474.667 307.582 472.422 314.466C477.559 307.577 484.684 304.369 493.25 303.689C493.103 303.225 492.956 302.761 492.808 302.298C490.939 302.298 489.069 302.298 486.404 302.516Z" fill="#CF7C39"/>
<path d="M120.196 198.918C119.847 203.532 119.671 207.684 119.056 211.771C118.842 213.195 117.545 214.456 116.742 215.791C115.444 214.992 113.7 214.488 112.935 213.335C110.922 210.3 109.348 206.975 107.574 203.78C106.712 202.229 105.792 200.711 104.742 198.908C101.857 200.818 99.5105 202.66 96.9143 204.027C92.3164 206.448 89.1171 205.086 88.0825 200.008C86.5638 192.554 85.1887 185.041 84.4203 177.485C84.208 175.397 85.862 172.528 87.5416 170.965C90.7864 167.946 94.6009 165.516 98.2913 163.007C100.782 161.313 102.407 162.471 103.011 165.118C103.922 169.11 104.669 173.139 105.561 177.528C108.558 176.23 111.075 174.982 113.699 174.035C119.289 172.018 120.165 172.647 120.189 178.446C120.217 185.108 120.196 191.769 120.196 198.918ZM92.1679 171.515C90.7153 173.458 88.1219 175.353 88.0382 177.353C87.84 182.092 88.6484 186.91 89.3803 191.645C91.2276 203.599 91.7259 203.768 101.514 196.81C101.785 196.617 102.111 196.478 102.327 196.238C105.544 192.681 107.203 194.556 108.686 197.916C110.647 202.363 112.799 206.726 114.869 211.125C115.402 210.983 115.934 210.841 116.467 210.699C116.467 199.461 116.467 188.224 116.467 176.415C113.226 178.017 110.27 179.45 107.34 180.935C104.356 182.448 102.418 182.438 101.984 178.298C101.566 174.302 100.563 170.367 99.6447 165.488C96.764 167.772 94.7246 169.39 92.1679 171.515Z" fill="#261D2A"/>
<path d="M31.3328 204.985C25.637 202.101 22.3327 198.225 22.9864 191.072C23.4236 186.288 25.9172 183.512 29.0086 180.84C30.5464 179.51 32.6038 178.699 34.5338 177.92C44.909 173.733 45.3136 173.81 48.448 184.798C49.5961 188.822 50.2146 193.192 50.024 197.357C49.7593 203.142 45.2002 206.711 38.309 206.88C35.5006 206.151 33.4167 205.568 31.3328 204.985ZM32.9327 202.059C38.7064 203.862 41.6995 202.806 41.9194 198.309C42.0589 195.455 41.0414 192.489 40.191 189.679C39.9555 188.902 38.0327 187.794 37.6131 188.047C34.6523 189.832 31.1577 191.412 29.245 194.072C27.1418 196.997 28.8785 200.078 32.9327 202.059Z" fill="#C35141"/>
<path d="M401.044 371.149C402.118 374.425 404.392 377.833 404.047 380.951C402.882 391.486 393.856 398.319 383.182 397.298C381.89 397.175 380.098 395.245 379.716 393.834C378.063 387.728 376.242 381.623 378.129 375.101C379.769 369.435 383.3 366.285 390.067 366.105C393.545 367.503 396.315 368.771 399.256 370.363C400.012 370.832 400.598 370.975 401.14 371.092C401.098 371.065 401.044 371.149 401.044 371.149ZM386.2 375.073C386.172 376.401 386.068 377.734 386.131 379.058C386.463 386.097 389.512 387.839 395.309 383.646C397.324 382.189 399.4 378.378 398.826 376.402C398.122 373.974 394.936 371.543 392.308 370.68C390.867 370.207 388.367 372.957 386.2 375.073Z" fill="#C35141"/>
<path d="M456.059 311.859C453.419 309.48 450.778 307.1 447.974 304.02C450.075 296.615 454.845 293.358 461.816 293.66C470.963 294.057 478.244 291.027 482.341 282.535C485.665 275.646 490.563 272.879 498.019 275.086C498.746 278.116 499.472 281.146 499.784 284.621C492.723 283.455 488.447 284.29 485.688 289.66C481.937 296.965 476.292 299.472 468.576 299.959C461.436 300.409 457.765 304.408 456.059 311.859Z" fill="#CE7B3A"/>
<path d="M456.427 390.37C460.768 391.319 465.082 392.678 469.803 394.094C469.875 395.498 469.54 396.845 469.208 398.555C468.132 402.037 467.052 405.157 465.73 408.958C463.714 415.989 461.94 422.339 460.138 428.789C447.028 421.488 447.031 421.489 451.212 407.886C451.503 406.939 451.72 405.969 451.972 405.009C453.448 400.266 454.924 395.523 456.427 390.37Z" fill="#E5BE1D"/>
<path d="M409.386 431.092C410.35 431.499 411.248 432.385 412.178 434.012C412.804 436.89 412.694 439.911 414.098 441.027C428.079 452.14 442.347 462.893 456.441 473.865C459.385 476.158 461.033 475.044 462.914 472.555C472.287 460.154 481.705 447.788 491.214 435.492C493.365 432.711 494.155 430.054 492.164 426.946C492.316 426.065 492.469 425.185 492.919 424.139C497.307 427.731 497.966 431.863 494.954 435.828C484.543 449.532 474.064 463.186 463.671 476.905C461.592 479.649 459.602 480.306 456.647 478.011C441.489 466.237 426.039 454.823 411.257 442.599C409.068 440.789 409.891 435.337 409.386 431.092Z" fill="#271D2B"/>
<path d="M35.3464 247.989C30.9428 252 26.9268 256.594 22.0245 259.856C17.2872 263.007 11.2935 261.097 9.35721 255.739C7.25621 249.926 6.71879 243.548 6.03296 237.41C7.25229 237.546 7.9382 237.687 9.02947 237.931C17.3733 240.645 25.3119 243.257 33.5222 246.008C34.3114 246.761 34.8289 247.375 35.3464 247.989ZM26.5929 250.072C23.1279 252.196 19.663 254.321 15.7167 256.74C21.3822 257.396 24.6651 255.473 26.5929 250.072Z" fill="#C15143"/>
<path d="M399.263 327.929C400.46 321.005 413.226 313.542 420.905 316.331C423.618 317.317 426.163 321.399 426.921 324.519C428.093 329.342 427.662 334.553 427.223 339.85C425.8 340.058 425.064 340.017 424.088 339.718C416.286 335.871 408.724 332.282 400.957 328.526C400.257 328.216 399.76 328.073 399.263 327.929ZM410.988 321.065C409.726 322.355 408.464 323.645 407.203 324.934C407.471 325.115 407.739 325.295 408.008 325.476C411.689 323.709 415.37 321.941 419.051 320.174C418.925 319.735 418.8 319.297 418.674 318.859C416.336 319.482 413.997 320.106 410.988 321.065Z" fill="#C25143"/>
<path d="M8.62427 237.828C7.93836 237.687 7.25244 237.546 6.39409 237.201C6.21401 235.033 6.20636 233.067 6.4878 230.438C8.67226 222.84 10.5676 215.907 12.463 208.974C18.7037 208.669 23.7077 202.725 30.9252 204.999C33.4168 205.568 35.5007 206.151 37.9087 206.928C40.5262 209.039 44.352 209.886 42.5789 214.528C42.3178 215.212 45.3603 217.157 47.0134 219.212C46.1574 223.513 45.2931 227.165 44.1299 230.72C42.9844 234.22 41.5359 237.622 40.2204 241.067C40.2204 241.067 40.2022 241.006 39.9539 240.974C39.5472 241.27 39.3887 241.598 39.2302 241.926C38.0955 243.804 36.9608 245.683 35.5864 247.775C34.8291 247.375 34.3116 246.761 33.6653 245.714C37.0036 238.332 40.623 231.451 43.868 224.398C45.3136 221.256 44.4238 218.845 40.5489 217.698C32.29 215.254 24.1385 212.447 15.5771 209.67C11.2105 218.832 9.25312 228.157 8.62427 237.828ZM26.1085 210.674C30.4135 211.995 34.7185 213.317 39.7716 214.868C39.5927 213.053 39.749 211.306 39.3574 211.173C34.7105 209.595 29.9983 208.194 25.2484 206.957C24.7935 206.839 23.9705 208.134 23.3184 208.772C24.0022 209.299 24.686 209.825 26.1085 210.674Z" fill="#362B36"/>
<path d="M398.922 327.969C399.76 328.073 400.256 328.216 400.67 328.724C396.169 335.842 391.592 342.502 387.493 349.444C386.823 350.578 387.71 354.015 388.816 354.593C396.969 358.855 405.36 362.66 413.93 366.73C419.396 358.075 422.553 349.3 424.328 339.975C425.064 340.017 425.8 340.058 426.902 340.141C426.658 342.238 426.048 344.294 425.191 347.031C422.291 354.481 419.637 361.25 416.983 368.019C411.942 369.022 406.9 370.025 401.451 371.089C401.044 371.149 401.098 371.065 400.976 370.82C400.264 370.396 399.674 370.217 399.085 370.038C396.315 368.771 393.545 367.503 390.467 366.056C389.212 364.614 387.223 363.027 387.498 362.144C388.708 358.249 385.781 356.246 384.27 352.852C384.77 350.424 385.08 348.593 385.903 347.032C388.555 342.003 391.397 337.074 394.165 332.106C395.637 330.74 397.109 329.375 398.922 327.969ZM405.069 368.055C405.05 367.047 405.379 365.347 404.959 365.136C400.471 362.881 395.865 360.861 391.292 358.777C390.903 359.084 390.515 359.391 390.127 359.698C390.659 360.845 390.892 362.611 391.772 363.034C395.897 365.02 400.199 366.637 405.069 368.055Z" fill="#352A35"/>
<path d="M417.163 368.333C419.637 361.25 422.291 354.481 425.077 347.373C433.284 355.153 431.494 371.442 421.56 376.092C420.17 373.638 418.757 371.142 417.163 368.333Z" fill="#C15041"/>
<path d="M12.2701 208.674C10.5675 215.907 8.67217 222.84 6.4723 230.018C-2.34514 225.171 -0.894361 210.248 3.39868 203.79C3.95456 202.954 6.74463 202.571 7.62724 203.2C9.42562 204.483 10.6289 206.601 12.2701 208.674Z" fill="#C15041"/>
<path d="M194.276 471.88C196.071 472.69 197.507 473.396 199.058 474.159C194.254 478.873 189.802 483.242 185.11 487.846C184.552 486.972 183.611 486.11 183.435 485.114C182.725 481.07 180.586 478.683 176.482 477.852C175.374 477.627 174.469 476.404 173.471 475.639C174.377 474.596 175.082 473.099 176.225 472.593C180.016 470.914 183.022 468.697 184.491 464.598C184.837 463.632 186.272 463.056 187.206 462.301C187.944 463.306 188.698 464.299 189.416 465.319C190.926 467.464 192.417 469.623 194.276 471.88ZM187.093 468.609C186.991 468.479 186.913 468.298 186.778 468.234C186.672 468.183 186.439 468.222 186.362 468.31C184.361 470.596 182.372 472.895 180.801 474.707C182.665 476.7 184.592 478.762 186.345 480.637C188.003 478.83 189.827 476.841 191.041 475.519C189.627 473.183 188.423 471.193 187.093 468.609Z" fill="#261D2A"/>
<path d="M393.747 332.063C391.397 337.074 388.555 342.003 385.903 347.032C385.08 348.593 384.77 350.424 384.199 352.505C383.846 352.936 383.521 352.994 383.195 353.05C380.594 353.493 377.993 353.935 375.392 354.378C375.573 351.46 375.23 348.389 376.03 345.652C378.725 336.432 384.544 332.048 393.747 332.063Z" fill="#C15041"/>
<path d="M478.131 220.06C478.408 218.41 478.644 217.077 478.88 215.743C479.377 215.723 479.875 215.702 480.372 215.682C480.785 217.749 481.198 219.817 481.66 222.129C483.497 221.131 485.287 220.158 487.494 218.959C487.828 221.763 488.1 224.043 488.447 226.952C487.673 227.346 486.416 227.986 485.105 228.654C485.374 230.147 485.651 231.681 486.064 233.974C484.043 232.9 482.692 232.183 480.992 231.28C480.424 233.177 479.904 234.916 479.384 236.655C478.976 236.709 478.569 236.763 478.161 236.816C477.635 234.869 477.109 232.921 476.509 230.699C474.701 231.471 472.973 232.208 469.857 233.539C470.837 230.986 471.345 229.661 471.82 228.423C470.8 227.858 469.599 227.192 467.206 225.866C469.854 224.735 471.365 224.089 473.202 223.305C473.034 222.144 472.818 220.652 472.533 218.684C474.704 219.345 476.396 219.861 478.131 220.06Z" fill="#261D2A"/>
<path d="M40.6248 241.042C41.5359 237.622 42.9843 234.22 44.1299 230.72C45.293 227.165 46.1574 223.513 47.1872 219.514C49.955 218.275 52.6882 217.425 55.4615 216.562C58.4632 228.153 51.2628 241.476 40.6248 241.042Z" fill="#C15041"/>
<path d="M171.622 18.8786C170.665 18.7884 169.499 18.7087 169.347 19.0627C168.874 20.1697 168.785 21.4405 168.546 22.6478C168.098 22.7122 167.649 22.7765 167.2 22.8408C166.656 20.8927 166.111 18.9446 165.526 16.8516C163.498 17.5523 161.49 18.2464 159.482 18.9404C159.238 18.5982 158.995 18.256 158.751 17.9138C159.468 16.7984 160.184 15.6829 160.894 14.5784C159.514 13.9993 158.034 13.3785 156.555 12.7576C156.608 12.3286 156.662 11.8997 156.715 11.4707C158.854 11.2103 160.992 10.9499 163.665 10.6245C162.524 9.00454 161.631 7.73708 159.976 5.3883C162.599 5.57545 164.184 5.68858 165.713 5.7976C166.176 4.67988 166.698 3.42295 167.22 2.16602C167.621 2.1751 168.023 2.18419 168.424 2.19327C168.847 4.12117 169.27 6.04908 169.724 8.12221C171.918 7.39756 174.102 6.67644 176.285 5.95531C176.494 6.26954 176.703 6.58377 176.913 6.898C176.125 8.02659 175.338 9.15518 174.451 10.4266C175.246 10.9921 176.175 11.6528 177.731 12.7586C175.771 13.524 174.485 14.0262 173.197 14.523C172.951 19.2044 172.951 19.2044 171.622 18.8786Z" fill="#261D2A"/>
<path d="M498.219 274.937C490.563 272.879 485.665 275.646 482.341 282.535C478.244 291.027 470.964 294.057 461.816 293.66C454.845 293.358 450.075 296.615 447.819 303.703C447.004 303.229 446.179 302.372 445.327 301.193C450.531 292.778 458.159 290.485 467.434 290.726C470.438 290.803 473.874 288.489 476.453 286.439C478.69 284.662 480.26 281.854 481.656 279.251C484.71 273.556 489.221 271.15 496.037 272.137C497.13 272.963 497.774 273.876 498.219 274.937Z" fill="#39282C"/>
<path d="M456.321 311.918C457.765 304.408 461.436 300.409 468.576 299.959C476.292 299.472 481.937 296.965 485.688 289.66C488.447 284.29 492.723 283.455 499.764 285.036C500.189 285.749 500.217 286.491 500.208 287.601C492.603 285.672 489.951 286.429 486.198 293.113C483.148 298.544 478.819 301.79 472.714 301.731C465.267 301.66 460.533 305.038 457.402 311.815C456.939 311.999 456.76 311.988 456.321 311.918Z" fill="#3C2A2C"/>
<path d="M480.041 258.786C482.897 272.446 475.267 282.137 461.769 282.236C454.324 282.291 447.592 283.495 444.237 291.862C443.693 291.278 443.149 290.693 442.605 290.109C444.313 287.844 445.568 284.76 447.834 283.507C451.185 281.655 455.219 280.317 459.026 280.138C474.114 279.428 479.249 273.979 478.097 258.541C478.692 258.238 479.274 258.388 480.041 258.786Z" fill="#3B292C"/>
<path d="M362.835 300.784C367.588 296.446 370.54 296.211 374.227 299.563C377.501 302.539 378.075 306.52 375.7 309.781C373.327 313.04 368.578 313.971 365.026 311.873C361.249 309.643 360.497 306.243 362.835 300.784ZM365.715 307.99C367.691 310.125 370.105 311.037 371.984 308.409C372.997 306.993 373.567 303.963 372.739 302.869C371.803 301.631 368.791 300.917 367.196 301.466C364.756 302.306 363.399 304.624 365.715 307.99Z" fill="#271D2B"/>
<path d="M483.16 79.6112C481.829 84.2487 478.803 86.3711 474.555 85.7843C470.709 85.2528 468.676 82.4727 468.209 78.5546C467.714 74.4039 469.797 71.9041 473.363 70.5124C478.499 68.5077 483.047 72.6037 483.16 79.6112ZM475.166 82.375C479.08 82.8762 480.374 80.2536 479.932 77.3086C479.702 75.7751 477.323 73.4957 475.916 73.4971C474.405 73.4986 471.924 75.6131 471.667 77.1142C471.419 78.5618 473.467 80.4033 475.166 82.375Z" fill="#261D2A"/>
<path d="M1.50486 303.185C0.996161 295.742 4.0431 291.253 9.1332 292.465C11.7089 293.078 14.5616 295.644 15.7752 298.081C17.3247 301.192 16.1211 304.576 12.7603 306.657C9.67394 308.568 6.74913 308.343 3.98107 306.129C3.08715 305.414 2.41153 304.426 1.50486 303.185ZM13.0903 300.44C12.601 296.868 10.6901 294.761 7.1223 296.291C5.75442 296.878 4.47927 299.351 4.49311 300.952C4.50385 302.196 6.815 304.59 7.69278 304.415C9.58986 304.036 11.223 302.336 13.0903 300.44Z" fill="#261D2A"/>
<path d="M77.0142 74.4081C78.7748 73.6107 80.3084 73.0703 82.124 72.4305C82.2723 71.0207 82.4508 69.3236 82.6249 67.6676C85.8499 70.1518 88.8939 72.4965 92.1945 75.039C91.0624 75.4852 89.5542 76.0797 88.0081 76.6891C88.553 78.5479 89.0744 80.3265 89.5959 82.1051C89.0364 82.3788 88.4769 82.6524 87.9174 82.926C86.571 80.6307 85.2246 78.3355 83.8782 76.0402C82.1098 73.9442 78.7112 79.9159 77.0142 74.4081Z" fill="#261D2A"/>
<path d="M355.092 451.628C357.195 453.006 359.191 454.048 361.141 455.065C359.083 458.199 352.275 458.437 345.24 454.889C346.331 454.172 347.323 453.031 347.927 453.209C350.593 453.993 352.198 453.021 353.417 450.772C353.463 450.687 354.44 451.106 355.092 451.628Z" fill="#261D2A"/>
<path d="M296.648 491.348C295.895 491.516 295.095 491.614 294.998 491.397C293.645 488.365 295.51 479.622 298.405 476.247C299.149 479.578 299.831 482.633 300.525 485.739C299.413 487.406 298.17 489.269 296.648 491.348Z" fill="#261D2A"/>
<path d="M60.4556 121.883C63.1072 122.239 65.6453 122.921 68.1834 123.602C68.1931 124.222 68.2029 124.841 68.2126 125.46C66.2027 125.947 64.1139 126.962 62.2193 126.678C61.3893 126.554 60.9557 123.78 60.4556 121.883Z" fill="#261D2A"/>
<path d="M248.492 500.591C249.278 501.894 249.776 502.999 250.273 504.105C249.137 503.866 247.775 503.936 246.925 503.31C245.901 502.555 245.312 501.21 244.535 500.12C245.758 500.212 246.981 500.303 248.492 500.591Z" fill="#261D2A"/>
<path d="M85.2087 483.311C85.655 483.197 86.2499 483.373 87.0293 483.807C86.5949 483.909 85.9761 483.755 85.2087 483.311Z" fill="#A17396"/>
<path d="M330.472 385.97C330.344 385.763 330.492 385.462 330.832 384.987C330.931 385.167 330.84 385.521 330.472 385.97Z" fill="#A17396"/>
<path d="M39.4957 241.914C39.3886 241.598 39.547 241.27 39.9852 240.977C40.0971 241.309 39.9292 241.606 39.4957 241.914Z" fill="#C15041"/>
<path d="M82.9292 13.4115C80.995 15.2803 79.2851 16.9318 77.8032 18.3631C76.0437 16.4575 73.9985 14.2425 71.9685 12.044C73.539 10.7491 75.7593 8.91862 78.0087 7.06409C79.6049 8.96604 81.3792 11.0801 82.9292 13.4115Z" fill="black"/>
<path d="M296.382 259.849C303.011 269.17 308.27 278.718 310.312 289.799C313.55 307.373 307.579 321.426 293.465 331.76C278.093 343.017 260.476 346.624 241.814 343.78C223.706 341.021 208.361 324.158 204.436 302.765C203.101 295.49 202.739 287.785 203.487 280.435C204.738 268.142 210.092 257.74 221.609 251.661C227.627 248.485 233.601 245.035 239.967 242.743C263.746 234.18 280.942 239.499 296.382 259.849ZM285.815 310.724C285.591 309.584 285.466 308.415 285.129 307.311C283.277 301.255 277.53 297.038 271.303 297.102C264.885 297.169 259.031 301.777 257.452 308.006C255.91 314.091 258.625 320.626 264.072 323.889C274.037 329.859 286.067 322.054 285.815 310.724ZM231.631 263.207C230.482 274.92 240.575 283.254 250.929 279.143C257.067 276.706 260.878 270.429 260.09 264.055C259.257 257.315 253.621 252.02 246.622 251.401C240.094 250.823 234.514 254.999 231.631 263.207ZM220.983 298.293C220.031 304.478 222.044 309.508 227.244 312.949C231.923 316.045 237.021 316.092 241.944 313.517C247.799 310.455 250.555 303.847 248.987 297.363C247.619 291.703 242.301 287.232 236.467 286.837C228.8 286.318 224.022 289.659 220.983 298.293ZM268.559 269.066C264.852 274.706 264.951 280.474 268.752 285.853C272.064 290.54 276.907 292.677 282.705 291.568C289.123 290.341 293.606 285.5 294.306 279.454C295.084 272.729 292.049 267.127 286.118 264.345C280.182 261.56 274.677 262.901 268.559 269.066Z" fill="#413A56"/>
<path d="M37.5902 343.573C47.6874 324.116 71.381 312.374 89.8441 317.417C111.289 323.274 133.467 351.634 134.341 373.997C135.019 391.337 127.918 404.636 113.789 414.241C100.811 423.064 86.1823 425.781 70.8841 423.735C58.3145 422.055 49.1854 414.421 43.2183 403.596C32.7746 384.65 30.3209 364.685 37.5902 343.573ZM100.019 375.46C105.182 373.144 110.325 370.781 115.518 368.535C117.734 367.576 118.663 366.337 117.543 363.915C114.909 358.223 112.379 352.484 109.629 346.368C102.61 349.281 96.243 351.923 89.589 354.685C87.0738 348.992 84.9802 343.742 82.3869 338.752C81.7573 337.54 79.1441 336.209 78.0202 336.598C72.4234 338.538 67.0192 341.034 61.3277 343.426C63.8998 350.548 66.2477 357.05 68.6541 363.713C63.0204 366.55 57.7265 368.96 52.74 371.892C51.3346 372.718 49.7432 375.371 50.0988 376.681C51.6926 382.552 53.9581 388.24 56.0449 394.175C63.4729 391.096 70.1496 388.329 76.99 385.494C79.5485 391.206 81.673 396.443 84.2762 401.43C84.9651 402.75 87.5258 404.396 88.5494 404.024C94.7006 401.792 100.654 399.016 106.806 396.365C105.627 393.38 104.778 391.403 104.061 389.38C102.482 384.924 100.969 380.446 100.019 375.46Z" fill="#413A55"/>
<path d="M186.765 362.581C182.469 364.461 178.438 366.025 174.566 367.915C171.513 369.405 169.474 368.597 168.02 365.785C165.975 361.829 164.009 357.832 161.607 353.053C170.441 348.967 178.673 344.762 187.206 341.303C200.564 335.889 198.154 335.894 204.207 347.925C204.94 349.383 205.505 350.925 206.409 353.04C199.841 356.225 193.47 359.315 186.765 362.581Z" fill="#413B56"/>
<path d="M130.092 264.796C124.266 267.821 118.772 270.675 113.278 273.528C113.005 272.898 112.732 272.268 112.459 271.638C139.056 256.599 166.655 243.986 196.969 237.956C174 244.872 151.803 253.729 130.092 264.796Z" fill="#EDF5F4"/>
<path d="M55.821 446.355C63.3526 452.857 70.1819 459.778 78.0733 465.135C86.1249 470.6 95.4804 471.412 104.859 467.671C105.634 467.362 106.575 467.471 107.519 467.891C101.701 472.612 94.915 472.758 88.077 471.526C79.6643 470.01 72.3844 465.777 66.2089 460.079C60.603 454.907 55.6389 449.034 50.4757 443.392C49.5704 442.403 49.0792 441.036 48.3967 439.843C48.8102 439.533 49.2237 439.223 49.6372 438.914C51.6198 441.305 53.6023 443.696 55.821 446.355Z" fill="#EFF5F5"/>
<path d="M319.305 375.036C316.571 377.675 314.031 380.008 311.073 382.724C310.615 381.077 310.383 380.563 310.468 380.504C320.661 373.398 322.949 362.488 324.166 351.276C324.935 344.185 324.853 337.001 325.168 329.859C325.236 328.327 325.367 326.798 325.536 324.258C330.28 333.818 326.465 362.438 319.305 375.036Z" fill="#F1F7F7"/>
<path d="M213.301 231.877C225.198 228.518 236.803 225.806 249 227.653C236.284 229.835 223.568 232.017 209.385 234.45C211.319 233.099 212.129 232.533 213.301 231.877Z" fill="#E7F1F0"/>
<path d="M460.075 149.604C458.188 157.635 457.104 165.498 454.356 172.727C444.651 198.264 421.906 208.437 396.141 199.322C383.798 194.955 373.176 187.895 364.641 178.019C355.053 166.926 352.36 153.819 355.425 139.686C359.03 123.065 367.837 109.629 381.927 99.9859C390.004 94.4589 398.993 91.3295 408.842 94.0334C417.62 96.4436 426.691 98.5922 434.764 102.604C453.73 112.03 462.469 127.745 460.075 149.604ZM397.701 148.932C402.048 142.633 402.412 136.751 398.787 131.387C395.474 126.482 389.053 123.988 383.513 125.452C377.476 127.049 373.27 131.924 372.509 138.209C371.882 143.384 375.001 149.228 379.83 151.925C385.745 155.229 391.184 154.459 397.701 148.932ZM407.346 112.789C403.664 118.341 403.352 124.042 407.229 129.517C410.671 134.376 415.578 136.536 421.55 135.404C427.83 134.214 432.407 129.307 433.169 123.309C433.958 117.102 430.863 111.22 425.354 108.458C419.3 105.423 413.44 106.675 407.346 112.789ZM421.964 156.583C424.874 165.143 431.776 169.425 439.394 167.396C447.126 165.337 451.736 157.826 449.971 150.164C448.328 143.032 440.976 138.027 433.825 139.172C425.835 140.451 420.984 147.147 421.964 156.583ZM392.047 174.702C394.025 182.501 400.113 187.283 407.045 186.483C415.593 185.497 420.951 179.101 420.246 170.724C419.578 162.778 412.985 157.366 404.679 157.947C396.663 158.508 391.49 164.993 392.047 174.702Z" fill="#413A55"/>
<path d="M273.154 105.834C264.844 128.319 248.565 140.252 226.535 138.826C207.342 137.583 191.808 128.521 181.249 112.396C173.191 100.091 174.591 86.5988 179.653 73.5233C184.863 60.063 193.278 48.8095 204.862 40.0581C231.593 19.8647 271.838 36.5035 276.303 69.4893C277.963 81.7508 276.872 93.6857 273.154 105.834ZM196.321 75.7073C192.472 85.6379 192.874 83.8291 201.762 87.3136C205.867 88.9231 209.994 90.476 214.139 92.065C212.084 97.7804 209.997 102.71 208.642 107.833C208.173 109.608 208.94 113.137 210.138 113.683C215.938 116.33 222.077 118.234 227.775 120.286C228.62 119.173 228.893 118.941 229.005 118.647C230.491 114.76 231.954 110.865 233.423 106.972C236.057 99.9932 236.06 99.9859 242.905 102.427C245.884 103.489 248.955 104.368 251.797 105.722C256.143 107.794 258.204 106.152 259.394 101.946C260.525 97.9467 261.852 93.9904 263.323 90.1025C264.428 87.1834 263.95 85.6003 260.735 84.5386C255.276 82.736 249.972 80.4657 244.367 78.3008C246.421 72.6616 248.494 67.5769 250.037 62.336C250.453 60.9201 249.738 57.9962 248.728 57.5308C243.233 54.9986 237.483 53.0188 231.612 50.7687C229.924 54.6645 228.601 57.7049 227.288 60.7497C223.019 70.6496 223.02 70.6502 212.935 67.3848C201.306 63.6198 201.22 63.6598 196.321 75.7073Z" fill="#413A56"/>
<path d="M293.693 144.256C294.751 138.37 295.985 132.831 297.47 126.169C310.025 130.834 321.852 134.027 332.435 139.587C339.365 143.227 331.971 149.398 331.403 154.437C330.938 158.555 327.789 156.771 325.609 156.002C315.008 152.264 304.446 148.413 293.693 144.256Z" fill="#423A56"/>
<path d="M395.911 65.1579C370.88 51.6371 344.388 42.9858 316.733 35.7293C324.555 31.753 392.919 57.3604 402.593 68.4996C400.476 67.4401 398.358 66.3807 395.911 65.1579Z" fill="#F6ECF0"/>
<path d="M158.648 154.436C153.502 139.815 152.588 117.916 157.509 111.102C157.393 113.71 157.199 115.229 157.278 116.735C157.824 127.134 157.552 137.675 159.25 147.888C161.056 158.751 167.538 166.963 178.31 171.068C178.884 171.287 179.333 171.834 179.929 172.297C173.719 174.44 164.12 166.371 158.648 154.436Z" fill="#F5EAEE"/>
<path d="M430.401 228.201C422.158 234.888 414.515 241.846 406.018 247.528C401.999 250.215 396.386 250.644 391.41 251.698C389.888 252.021 388.085 251.02 386.44 249.544C387.094 249.342 387.792 248.878 388.396 248.978C395.971 250.23 402.835 247.921 408.517 243.432C416.824 236.868 424.476 229.475 432.39 222.417C433.499 221.428 434.491 220.308 435.587 219.305C435.729 219.174 436.178 219.379 437.897 219.657C435.167 222.78 432.908 225.364 430.401 228.201Z" fill="#F5E9ED"/>
<path d="M436.872 88.2547C429.413 83.5448 422.246 79.0463 414.294 74.0547C422.187 74.1354 445.509 89.8793 448.292 97.3308C443.931 93.8571 440.548 91.1616 436.872 88.2547Z" fill="#F5E9ED"/>
<path d="M451.594 405.016C451.72 405.969 451.503 406.939 451.211 407.886C447.03 421.489 447.028 421.488 460.138 428.789C461.94 422.339 463.714 415.989 465.694 409.361C474.355 417.913 475.291 428.24 468.369 436.323C462.683 442.962 453.693 445.038 445.734 441.549C438.479 438.368 433.499 429.852 434.394 422.157C435.433 413.23 441.807 406.738 451.594 405.016Z" fill="#423C56"/>
<path d="M491.841 427.074C494.155 430.054 493.365 432.711 491.214 435.492C481.705 447.788 472.286 460.154 462.914 472.555C461.033 475.044 459.385 476.158 456.441 473.865C442.347 462.893 428.079 452.141 414.098 441.027C412.694 439.911 412.804 436.89 412.224 434.337C416.535 437.093 420.864 440.223 425.124 443.444C434.852 450.799 444.626 458.097 454.209 465.637C457.577 468.287 459.436 468.48 462.319 464.613C471.77 451.932 481.745 439.642 491.841 427.074Z" fill="black"/>
<path d="M452.219 386.278C452.804 386.351 453.473 386.71 454.157 387.465C453.548 387.429 452.925 386.996 452.219 386.278Z" fill="black"/>
<path d="M466.126 269.979C460.303 274.608 454.056 274.502 447.359 272.95C457.234 271.75 468.04 272.146 468.856 257.732C471.46 261.633 470.701 264.575 466.126 269.979Z" fill="#37262C"/>
<path d="M477.396 370.137C475.922 368.108 474.796 366.211 473.216 364.836C471.831 363.631 469.935 363.012 467.785 361.882C476.692 360.163 483.07 371.113 479.973 382.851C479.164 378.733 478.355 374.615 477.396 370.137Z" fill="#332331"/>
<path d="M240.364 446.321C232.995 450.713 231.068 450.843 227.013 447.786C227.444 444.498 228.157 441.471 228.079 438.464C228.049 437.27 226.265 436.121 225.279 434.951C224.171 436.017 222.333 436.948 222.106 438.176C221.617 440.824 221.955 443.625 221.955 446.99C216.489 451.663 204.819 451.58 200.842 445.96C202.347 445.11 204.568 444.615 205.188 443.34C206.313 441.03 207.061 438.201 206.826 435.696C206.698 434.34 204.217 433.204 202.797 431.969C201.194 433.858 199.345 435.597 198.078 437.689C197.271 439.02 197.33 440.874 197 442.494C190.039 440.643 186.482 436.344 187.361 430.858C188.407 424.324 193.102 420.655 199.916 421.044C203.245 409.475 206.277 408.017 215.59 413.567C214.324 417.536 211.402 421.775 216.164 425.227C217.182 425.965 220.152 425.713 220.909 424.813C224.232 420.864 222.209 417.099 218.745 412.257C222.351 411.536 225.577 409.93 228.301 410.545C233.931 411.817 237.013 416.184 238.21 421.627C235.532 423.66 232.828 425.269 230.763 427.476C229.773 428.534 229.992 430.724 229.663 432.401C231.521 432.539 234.025 433.498 235.105 432.648C237.564 430.714 239.324 427.891 241.571 425.185C247.596 426.713 250.426 431.679 247.414 437.635C245.821 440.786 242.943 443.287 240.364 446.321Z" fill="#F8F9FA"/>
<path d="M202.028 442.829C198.746 440.956 199.114 438.083 202.771 434.25C206.42 437.935 206.356 439.405 202.028 442.829Z" fill="#EAEAEC"/>
<path d="M216.085 421.571C216.335 419.289 216.675 417.42 217.015 415.55C217.706 415.544 218.397 415.538 219.088 415.532C219.233 418.099 219.377 420.665 219.522 423.232C218.407 422.816 217.291 422.4 216.085 421.571Z" fill="#F0F0F2"/>
<path d="M447.891 24.1785C452.652 24.459 454.923 21.8764 453.813 17.6315C453.281 15.5943 452.115 13.7227 450.598 10.3635C454.228 9.94165 457.722 8.56844 460.545 9.42055C465.535 10.9273 468.722 14.8673 469.391 20.3226C466.935 22.1601 464.272 23.6329 462.37 25.7795C461.317 26.9676 461.537 29.2835 461.184 31.0911C463.169 31.0853 465.72 31.8514 467.015 30.9028C469.272 29.2504 470.754 26.5409 472.805 23.9672C478.071 24.6732 481.199 28.9795 479.478 34.4982C477.339 41.3549 472.469 45.7902 465.746 47.7845C463.41 48.4773 460.587 47.5281 458.336 47.3556C458.87 43.0864 459.571 40.067 459.464 37.0766C459.42 35.847 457.633 34.68 456.639 33.4845C455.481 34.7334 453.55 35.8599 453.328 37.2574C452.906 39.9224 453.458 42.7421 453.612 45.6348C445.658 50.4305 436.421 50.1482 432.027 44.5413C433.343 43.8969 434.701 43.4303 435.834 42.6395C438.962 40.4544 440.167 37.4766 438.195 34.0212C437.385 32.602 435.675 30.8642 434.325 30.8212C432.991 30.7787 431.065 32.4205 430.35 33.812C429.26 35.9353 428.987 38.479 428.367 40.8443C421.583 39.6037 417.973 35.2364 418.886 29.3753C419.938 22.623 424.756 18.9325 430.549 19.7036C432.421 16.1591 433.384 11.4943 436.089 10.0171C438.744 8.56707 443.169 10.3567 447.309 10.7743C445.864 16.0102 442.777 20.2904 447.891 24.1785Z" fill="#F8F9FA"/>
<path d="M436.817 36.9818C435.4 39.0294 433.98 40.7136 432.559 42.3978C431.943 42.0523 431.327 41.7069 430.71 41.3615C431.47 38.4833 432.23 35.6052 432.991 32.727C433.546 32.7032 434.102 32.6794 434.658 32.6555C435.377 33.9765 436.095 35.2974 436.817 36.9818Z" fill="#EEEFF0"/>
<path d="M448.48 21.8769C448.022 19.237 447.893 16.832 447.764 14.427C448.476 14.2758 449.189 14.1246 449.901 13.9734C450.516 15.9375 451.421 17.8781 451.584 19.8791C451.638 20.5435 449.788 21.3631 448.48 21.8769Z" fill="#E4E4E7"/>
<path d="M486.802 302.407C489.069 302.298 490.939 302.298 492.808 302.298C492.956 302.762 493.103 303.225 493.251 303.689C484.685 304.369 477.559 307.577 472.422 314.466C474.667 307.582 479.688 304.062 486.802 302.407Z" fill="#3C2A2C"/>
<path d="M92.4266 171.261C94.7246 169.39 96.764 167.772 99.6447 165.488C100.563 170.367 101.566 174.302 101.984 178.298C102.418 182.438 104.356 182.448 107.34 180.935C110.27 179.45 113.227 178.017 116.467 176.415C116.467 188.223 116.467 199.461 116.467 210.699C115.934 210.841 115.402 210.983 114.869 211.125C112.799 206.726 110.647 202.362 108.686 197.916C107.203 194.556 105.544 192.681 102.327 196.238C102.111 196.477 101.785 196.617 101.514 196.81C91.7259 203.767 91.2276 203.599 89.3803 191.645C88.6485 186.91 87.84 182.092 88.0382 177.353C88.1219 175.353 90.7153 173.458 92.4266 171.261Z" fill="black"/>
<path d="M32.5629 201.925C28.8786 200.078 27.1419 196.997 29.245 194.072C31.1578 191.412 34.6524 189.832 37.6131 188.047C38.0328 187.794 39.9555 188.901 40.191 189.679C41.0415 192.489 42.059 195.455 41.9194 198.309C41.6995 202.806 38.7065 203.862 32.5629 201.925Z" fill="#E7BC1D"/>
<path d="M386.272 374.663C388.367 372.957 390.867 370.207 392.309 370.68C394.936 371.543 398.122 373.974 398.827 376.402C399.4 378.378 397.324 382.189 395.309 383.646C389.512 387.839 386.464 386.097 386.131 379.058C386.068 377.734 386.173 376.402 386.272 374.663Z" fill="#E7BC1C"/>
<path d="M399.256 370.363C399.674 370.217 400.264 370.396 401.018 370.847C400.598 370.975 400.013 370.832 399.256 370.363Z" fill="black"/>
<path d="M9.02954 237.931C9.25304 228.157 11.2104 218.832 15.577 209.67C24.1385 212.447 32.29 215.254 40.5488 217.698C44.4237 218.845 45.3135 221.256 43.8679 224.398C40.6229 231.451 37.0035 238.331 33.3935 245.576C25.312 243.257 17.3734 240.645 9.02954 237.931ZM34.3903 233.336C36.1791 228.987 35.5558 224.684 31.8737 222.092C29.319 220.293 25.4167 219.223 22.347 219.618C17.6352 220.225 15.0727 224.004 14.7149 228.841C14.3712 233.488 17.3452 237.658 21.8279 239.12C26.6244 240.684 30.2993 239.174 34.3903 233.336Z" fill="#F6F6F7"/>
<path d="M26.8323 250.345C24.6652 255.473 21.3823 257.396 15.7168 256.74C19.6631 254.321 23.1281 252.196 26.8323 250.345Z" fill="#39282C"/>
<path d="M424.088 339.718C422.553 349.3 419.396 358.074 413.93 366.73C405.36 362.66 396.969 358.855 388.816 354.593C387.71 354.015 386.823 350.578 387.493 349.444C391.592 342.502 396.169 335.842 400.874 328.891C408.723 332.282 416.286 335.871 424.088 339.718ZM406.769 335.823C399.901 336.952 396.427 340.986 397.014 347.15C397.528 352.541 402.013 356.378 407.579 356.187C412.848 356.006 416.978 352.002 417.3 346.762C417.667 340.788 414.309 337.001 406.769 335.823Z" fill="#F6F7F8"/>
<path d="M411.323 320.897C413.997 320.106 416.335 319.482 418.674 318.859C418.8 319.297 418.925 319.735 419.05 320.174C415.369 321.941 411.688 323.709 408.007 325.476C407.739 325.296 407.471 325.115 407.202 324.934C408.464 323.645 409.726 322.355 411.323 320.897Z" fill="#332331"/>
<path d="M25.7391 210.513C24.686 209.825 24.0022 209.299 23.3184 208.772C23.9705 208.133 24.7934 206.839 25.2484 206.957C29.9982 208.194 34.7105 209.595 39.3573 211.173C39.749 211.306 39.5926 213.053 39.7715 214.868C34.7185 213.317 30.4134 211.995 25.7391 210.513Z" fill="#F0F0F2"/>
<path d="M404.753 368.22C400.199 366.637 395.897 365.021 391.772 363.034C390.892 362.611 390.659 360.845 390.127 359.698C390.515 359.391 390.903 359.084 391.292 358.777C395.865 360.861 400.471 362.881 404.959 365.136C405.379 365.347 405.05 367.047 404.753 368.22Z" fill="#EEEFF0"/>
<path d="M187.156 468.906C188.423 471.193 189.627 473.183 191.041 475.519C189.827 476.841 188.003 478.83 186.345 480.637C184.592 478.762 182.665 476.7 180.801 474.707C182.372 472.895 184.361 470.597 186.362 468.31C186.439 468.222 186.672 468.183 186.778 468.234C186.913 468.299 186.991 468.479 187.156 468.906Z" fill="black"/>
<path d="M365.467 307.716C363.399 304.624 364.756 302.306 367.196 301.466C368.792 300.917 371.803 301.631 372.739 302.869C373.567 303.963 372.997 306.993 371.984 308.409C370.105 311.037 367.691 310.125 365.467 307.716Z" fill="black"/>
<path d="M474.836 82.2234C473.467 80.4033 471.419 78.5618 471.667 77.1142C471.924 75.6131 474.405 73.4985 475.916 73.4971C477.323 73.4957 479.702 75.7751 479.932 77.3086C480.374 80.2535 479.08 82.8762 474.836 82.2234Z" fill="black"/>
<path d="M13.0274 300.808C11.2232 302.336 9.59002 304.036 7.69295 304.415C6.81517 304.59 4.50401 302.196 4.49328 300.952C4.47944 299.351 5.75459 296.878 7.12247 296.292C10.6903 294.761 12.6012 296.868 13.0274 300.808Z" fill="black"/>
<path d="M285.841 311.117C286.067 322.053 274.037 329.859 264.072 323.889C258.625 320.626 255.91 314.091 257.452 308.005C259.031 301.777 264.885 297.169 271.303 297.102C277.53 297.038 283.277 301.255 285.129 307.311C285.466 308.415 285.591 309.584 285.841 311.117Z" fill="#E5BE1C"/>
<path d="M231.747 262.827C234.514 254.999 240.094 250.823 246.622 251.401C253.621 252.02 259.257 257.315 260.09 264.055C260.878 270.429 257.067 276.706 250.929 279.143C240.575 283.254 230.482 274.92 231.747 262.827Z" fill="#9F7195"/>
<path d="M221.066 297.921C224.022 289.659 228.8 286.318 236.467 286.837C242.3 287.232 247.619 291.703 248.987 297.363C250.555 303.847 247.799 310.455 241.944 313.517C237.021 316.092 231.923 316.045 227.244 312.949C222.044 309.508 220.031 304.478 221.066 297.921Z" fill="#75ABA1"/>
<path d="M268.81 268.782C274.677 262.901 280.182 261.56 286.118 264.344C292.049 267.127 295.084 272.729 294.306 279.454C293.606 285.499 289.123 290.341 282.705 291.568C276.907 292.676 272.064 290.54 268.752 285.853C264.951 280.474 264.852 274.706 268.81 268.782Z" fill="#BC5F7A"/>
<path d="M99.7238 375.719C100.969 380.446 102.482 384.924 104.061 389.38C104.778 391.403 105.627 393.38 106.806 396.365C100.654 399.016 94.7005 401.792 88.5493 404.024C87.5258 404.396 84.9651 402.75 84.2761 401.43C81.673 396.443 79.5485 391.206 76.99 385.494C70.1495 388.329 63.4729 391.096 56.0449 394.175C53.9581 388.24 51.6926 382.552 50.0988 376.681C49.7432 375.371 51.3345 372.718 52.7399 371.892C57.7265 368.96 63.0204 366.55 68.654 363.713C66.2477 357.05 63.8997 350.548 61.3277 343.426C67.0192 341.034 72.4233 338.538 78.0202 336.598C79.1441 336.209 81.7572 337.54 82.3869 338.752C84.9802 343.742 87.0737 348.992 89.589 354.685C96.2429 351.923 102.61 349.281 109.629 346.368C112.379 352.484 114.909 358.223 117.543 363.915C118.663 366.337 117.734 367.576 115.518 368.535C110.325 370.781 105.182 373.144 99.7238 375.719Z" fill="#E6BE1C"/>
<path d="M397.443 149.201C391.184 154.459 385.745 155.229 379.83 151.925C375.001 149.228 371.882 143.384 372.509 138.209C373.27 131.924 377.476 127.049 383.513 125.452C389.053 123.988 395.474 126.482 398.787 131.387C402.412 136.751 402.048 142.633 397.443 149.201Z" fill="#D07D3B"/>
<path d="M407.577 112.498C413.44 106.675 419.3 105.423 425.354 108.458C430.863 111.22 433.958 117.103 433.17 123.309C432.407 129.308 427.831 134.214 421.55 135.404C415.578 136.536 410.671 134.376 407.229 129.517C403.352 124.042 403.664 118.341 407.577 112.498Z" fill="#E5BE1C"/>
<path d="M421.862 156.203C420.984 147.147 425.835 140.451 433.825 139.172C440.976 138.027 448.327 143.032 449.971 150.164C451.736 157.826 447.126 165.337 439.394 167.396C431.776 169.425 424.874 165.143 421.862 156.203Z" fill="#75ABA1"/>
<path d="M391.985 174.321C391.49 164.993 396.663 158.508 404.679 157.947C412.985 157.366 419.578 162.778 420.246 170.724C420.951 179.101 415.593 185.497 407.045 186.483C400.113 187.283 394.025 182.501 391.985 174.321Z" fill="#9F7195"/>
<path d="M196.473 75.3501C201.22 63.6598 201.306 63.6198 212.935 67.3848C223.02 70.6502 223.019 70.6495 227.288 60.7496C228.601 57.7049 229.924 54.6645 231.613 50.7687C237.483 53.0187 243.233 54.9986 248.728 57.5308C249.738 57.9962 250.453 60.92 250.037 62.336C248.494 67.5769 246.421 72.6616 244.367 78.3008C249.972 80.4657 255.276 82.7359 260.735 84.5385C263.95 85.6002 264.428 87.1833 263.323 90.1025C261.852 93.9904 260.525 97.9466 259.394 101.946C258.204 106.152 256.143 107.794 251.797 105.722C248.955 104.368 245.884 103.489 242.905 102.427C236.06 99.9859 236.057 99.9932 233.423 106.972C231.954 110.865 230.491 114.76 229.005 118.647C228.893 118.941 228.62 119.173 227.775 120.286C222.077 118.234 215.938 116.33 210.138 113.683C208.94 113.137 208.173 109.608 208.642 107.833C209.997 102.71 212.084 97.7804 214.139 92.0649C209.994 90.4759 205.867 88.9231 201.762 87.3136C192.874 83.8291 192.472 85.6378 196.473 75.3501Z" fill="#A07195"/>
<path d="M34.2562 233.703C30.2993 239.174 26.6245 240.684 21.828 239.12C17.3452 237.658 14.3712 233.488 14.715 228.841C15.0728 224.004 17.6353 220.225 22.347 219.618C25.4167 219.223 29.3191 220.293 31.8737 222.092C35.5558 224.684 36.1791 228.987 34.2562 233.703ZM32.329 226.492C29.3441 221.768 25.7251 220.276 21.6697 222.097C17.9185 223.781 15.9246 228.279 17.4972 232.126C19.0639 235.958 22.0887 237.766 26.2387 237.087C29.2024 236.603 32.9352 230.584 32.329 226.492Z" fill="#3F3743"/>
<path d="M407.185 335.823C414.309 337.001 417.667 340.788 417.3 346.762C416.978 352.002 412.848 356.006 407.579 356.187C402.013 356.378 397.528 352.541 397.014 347.151C396.427 340.986 399.901 336.952 407.185 335.823ZM399.214 347.149C399.618 348.226 399.82 349.446 400.462 350.353C402.85 353.728 406.136 354.949 410.027 353.387C413.878 351.84 415.754 348.711 414.983 344.646C414.181 340.413 411.291 337.742 406.907 338.204C405.289 338.374 404.012 341.594 402.374 341.8C399.106 342.212 399.275 344.166 399.214 347.149Z" fill="#38303C"/>
<path d="M32.4588 226.854C32.9351 230.584 29.2023 236.603 26.2386 237.087C22.0886 237.766 19.0638 235.958 17.4971 232.126C15.9245 228.279 17.9184 223.781 21.6696 222.097C25.7251 220.276 29.344 221.768 32.4588 226.854Z" fill="#F6F7F8"/>
<path d="M399.191 346.742C399.275 344.166 399.106 342.212 402.374 341.8C404.011 341.594 405.289 338.374 406.907 338.204C411.291 337.742 414.181 340.413 414.983 344.646C415.754 348.711 413.878 351.84 410.027 353.387C406.136 354.949 402.85 353.728 400.462 350.354C399.82 349.446 399.618 348.226 399.191 346.742Z" fill="#F3F3F5"/>
</svg>
