<svg width="266" height="74" viewBox="0 0 266 74" fill="none" xmlns="http://www.w3.org/2000/svg">
<path d="M29.5932 73.3834C19.5553 71.6369 11.7695 66.3574 6.12102 57.7284C1.26862 50.3155 -0.702162 42.0418 0.220857 33.3008C1.66994 19.578 9.27601 8.06231 22.6404 2.61557C24.7105 1.77189 26.9435 1.34652 29.5282 0.826614C36.5677 2.9642 42.4954 6.07278 47.4562 11.206C64.5109 28.8531 59.8932 58.6471 38.1981 69.8158C35.4427 71.2344 32.4669 72.2052 29.5932 73.3834Z" fill="#7DDB46"/>
<path d="M125.843 73.3835C115.805 71.637 108.019 66.3574 102.371 57.7284C97.5186 50.3155 95.5478 42.0418 96.4709 33.3008C97.9199 19.578 105.526 8.06232 118.89 2.61556C120.96 1.77187 123.194 1.34653 125.778 0.826614C132.818 2.96417 138.745 6.07277 143.706 11.206C160.761 28.8531 156.143 58.6472 134.448 69.8159C131.693 71.2344 128.717 72.2052 125.843 73.3835Z" fill="#7DDB46"/>
<path d="M222.093 73.3834C212.056 71.637 204.27 66.3574 198.621 57.7284C193.769 50.3155 191.798 42.0418 192.721 33.3008C194.17 19.5779 201.776 8.06229 215.141 2.61555C217.211 1.77187 219.444 1.34651 222.028 0.826614C229.068 2.96412 234.996 6.07276 239.956 11.206C257.011 28.853 252.394 58.6472 230.698 69.8158C227.943 71.2343 224.967 72.2052 222.093 73.3834Z" fill="#7DDB46"/>
<path d="M29.7458 73.5987C32.467 72.2052 35.4427 71.2343 38.1982 69.8158C59.8933 58.6471 64.511 28.8531 47.4563 11.206C42.4954 6.07277 36.5677 2.96419 29.7726 0.798707C36.4086 -0.566485 43.1314 -0.273917 49.5968 2.39574C60.6546 6.96168 68.0498 15.1599 71.1529 26.8975C75.0859 41.7744 70.572 57.0251 58.2489 66.6872C49.7291 73.3672 40.1338 74.7127 29.7458 73.5987Z" fill="#66C73C"/>
<path d="M125.996 73.5987C128.717 72.2052 131.693 71.2344 134.448 69.8159C156.143 58.6471 160.761 28.8531 143.706 11.206C138.745 6.07276 132.818 2.96416 126.023 0.798705C132.659 -0.566478 139.381 -0.273928 145.847 2.39575C156.905 6.96168 164.3 15.1599 167.403 26.8975C171.336 41.7743 166.822 57.0251 154.499 66.6872C145.979 73.3672 136.384 74.7127 125.996 73.5987Z" fill="#66C73C"/>
<path d="M222.246 73.5987C224.967 72.2052 227.943 71.2343 230.698 69.8158C252.393 58.6472 257.011 28.853 239.956 11.206C234.995 6.07277 229.068 2.96412 222.273 0.798712C228.909 -0.566452 235.631 -0.273921 242.097 2.39575C253.155 6.96168 260.55 15.1599 263.653 26.8975C267.586 41.7743 263.072 57.025 250.749 66.6872C242.229 73.3672 232.634 74.7127 222.246 73.5987Z" fill="#66C73C"/>
</svg>
