<svg width="416" height="468" viewBox="0 0 416 468" fill="none" xmlns="http://www.w3.org/2000/svg">
<path d="M0 430.523C0 307.104 4.84288e-08 183.685 0.239303 60.1434C0.841611 59.5947 1.42841 59.2292 1.53471 58.7334C3.85273 47.9212 9.32197 39.4817 16.9155 32.605C24.0868 26.1106 32.2181 22.2441 41.4461 21.993C51.4468 21.7209 61.4569 21.8833 71.4729 22.289C71.4674 34.6844 71.4519 46.6468 71.0614 58.5715C64.8651 58.5228 59.0437 58.4867 53.2225 58.506C40.8291 58.547 32.5119 67.7877 32.5098 81.648C32.4937 190.089 32.4987 298.53 32.5043 406.971C32.5047 414.474 34.5709 416.807 41.2238 416.807C126.379 416.815 211.535 416.814 296.69 416.808C303.513 416.807 305.496 414.501 305.497 406.608C305.503 361.679 305.501 316.749 305.495 271.819C305.494 270.145 305.415 268.472 305.498 266.528C314.16 256.624 322.675 246.966 331.249 237.377C333.406 234.964 335.754 232.767 338.007 230.891C338 294.779 338.094 358.247 337.922 421.714C337.887 434.662 332.43 445.481 324.397 454.275C319.345 459.806 313.306 464.219 306.197 466.21C305.599 466.377 305.186 467.383 304.688 468C214.482 468 124.276 468 33.9608 467.731C30.1829 465.711 26.2544 464.438 22.8936 462.122C12.6578 455.069 5.13384 445.396 1.59533 432.197C1.41394 431.52 0.547487 431.076 0 430.523Z" fill="#64C4FF"/>
<path d="M341.121 116.978C347.953 109.497 354.366 101.438 361.718 94.6699C372.477 84.7639 390.961 85.3283 402.151 94.4749C408.284 99.4877 412.271 106.014 414.627 113.983C414.736 114.349 415.226 114.573 415.769 114.56C416 121.894 416 129.53 416 137.595C415.513 138.134 414.652 138.129 414.592 138.373C412.494 146.899 407.259 152.944 401.904 158.91C398.092 163.157 394.317 167.446 390.268 171.415C390.008 170.352 390.008 169.591 390 168.829C389.831 152.535 384.392 139.057 373.164 128.595C363.84 119.907 353.032 116.554 341.121 116.978Z" fill="#FFCD5F"/>
<path d="M264.501 0C267.577 6.79173 266.161 13.9876 266.511 21.8663C266.532 34.6854 266.547 46.6489 266.539 59.033C266.511 68.2701 266.527 77.0868 266.493 85.9032C266.471 91.6788 264.08 95.0032 260.028 95.0272C255.997 95.0512 253.534 91.6744 253.506 85.9719C253.461 76.852 253.459 67.7319 253.454 58.1762C253.468 45.779 253.466 33.8174 253.479 21.4331C253.84 13.9874 252.425 6.79173 255.125 0C258.126 0 261.126 0 264.501 0Z" fill="#46A9F4"/>
<path d="M209.625 0C212.626 0 215.626 0 218.733 0.276603C219.559 3.00176 220.718 5.40888 220.905 7.90785C221.249 12.5288 221.025 17.2035 221.027 22.2887C221.032 34.685 221.047 46.6485 221.039 59.0326C221.011 68.2698 221.027 77.0865 220.993 85.9029C220.971 91.6791 218.58 95.003 214.528 95.0272C210.497 95.0513 208.034 91.6745 208.006 85.972C207.961 76.8521 207.959 67.7319 207.954 58.1762C207.968 45.779 207.966 33.8174 207.979 21.4331C208.34 13.9874 206.925 6.79173 209.625 0Z" fill="#46A9F4"/>
<path d="M164.125 0C167.126 0 170.126 5.44824e-08 173.233 0.276614C174.059 3.00179 175.218 5.40891 175.405 7.90789C175.749 12.5288 175.525 17.2036 175.527 22.2887C175.532 34.685 175.547 46.6485 175.539 59.0326C175.511 68.2698 175.527 77.0865 175.493 85.9029C175.471 91.679 173.08 95.003 169.028 95.0272C164.997 95.0513 162.534 91.6746 162.506 85.9721C162.461 76.8521 162.458 67.732 162.454 58.1763C162.468 45.7791 162.465 33.8175 162.479 21.4332C162.84 13.9875 161.425 6.79176 164.125 0Z" fill="#46A9F4"/>
<path d="M118.625 0C121.626 0 124.626 2.72412e-08 127.733 0.276612C128.559 3.00178 129.718 5.40891 129.905 7.90789C130.249 12.5288 130.025 17.2036 130.027 22.2887C130.032 34.685 130.047 46.6485 130.039 59.0326C130.011 68.2698 130.027 77.0865 129.993 85.9029C129.971 91.679 127.58 95.003 123.528 95.0272C119.497 95.0513 117.034 91.6746 117.006 85.9721C116.961 76.8521 116.958 67.732 116.954 58.1763C116.968 45.7791 116.965 33.8175 116.979 21.4332C117.34 13.9875 115.925 6.79176 118.625 0Z" fill="#46A9F4"/>
<path d="M71.4729 22.2889C71.4754 17.2038 71.2509 12.5293 71.5954 7.90849C71.7816 5.41007 72.9395 3.00331 73.392 0.277504C76.1255 -0.000196676 79.126 -0.000196676 82.2327 0.276412C83.0591 3.00159 84.2181 5.40872 84.4046 7.90769C84.7494 12.5286 84.5246 17.2034 84.527 22.2886C84.532 34.6849 84.5471 46.6483 84.5393 59.0324C84.5112 68.2699 84.5272 77.0869 84.493 85.9036C84.4707 91.6776 82.0779 95.0038 78.0269 95.027C73.9962 95.0502 71.5342 91.6736 71.506 85.9701C71.4608 76.8499 71.4574 67.7294 71.4364 58.6091C71.4519 46.6467 71.4674 34.6843 71.4729 22.2889Z" fill="#46A9F4"/>
<path d="M71.0612 58.5718C71.4573 67.7298 71.4606 76.8503 71.5058 85.9705C71.5341 91.674 73.996 95.0506 78.0268 95.0274C82.0778 95.0042 84.4705 91.678 84.4929 85.904C84.527 77.0873 84.511 68.2703 84.9141 58.9941C95.8538 58.5605 106.396 58.5863 116.938 58.6121C116.958 67.7322 116.961 76.8523 117.006 85.9723C117.034 91.6748 119.497 95.0515 123.528 95.0274C127.58 95.0032 129.971 91.6792 129.993 85.9031C130.027 77.0867 130.011 68.27 130.414 58.9941C141.354 58.5605 151.896 58.5863 162.438 58.6121C162.458 67.7322 162.461 76.8523 162.506 85.9723C162.534 91.6748 164.997 95.0515 169.028 95.0274C173.08 95.0032 175.471 91.6792 175.493 85.9031C175.527 77.0867 175.511 68.27 175.914 58.9941C186.854 58.5605 197.396 58.5863 207.938 58.6121C207.958 67.7321 207.961 76.8523 208.006 85.9722C208.034 91.6747 210.497 95.0515 214.528 95.0274C218.58 95.0032 220.971 91.6793 220.993 85.9031C221.027 77.0867 221.011 68.27 221.414 58.9941C232.354 58.5605 242.896 58.5863 253.438 58.6121C253.458 67.7321 253.461 76.8522 253.506 85.9721C253.534 91.6746 255.997 95.0514 260.028 95.0274C264.08 95.0033 266.471 91.679 266.493 85.9033C266.527 77.087 266.511 68.2703 266.914 58.9945C272.856 58.5238 278.399 58.499 283.943 58.5036C297.63 58.515 305.477 67.4244 305.5 82.9493C305.536 107.742 305.578 132.535 305.495 157.602C281.991 184.212 258.603 210.543 235.231 236.893C231.802 240.759 228.449 244.711 224.808 248.753C223.425 250.526 221.833 251.985 221.244 253.846C218.743 261.756 216.539 269.785 214.04 278.012C209.999 291.3 206.174 304.358 202.272 317.387C201.222 320.893 200.781 324.225 203.423 327.074C205.895 329.741 208.698 329.384 211.705 328.233C222.253 324.196 232.846 320.309 243.405 316.31C244.65 315.839 245.793 315.027 247.297 314.452C254.456 312.033 261.357 309.704 268.111 306.926C269.966 306.163 271.386 304.057 273.241 302.419C284.108 290.447 294.74 278.623 305.372 266.799C305.415 268.472 305.494 270.146 305.495 271.819C305.501 316.749 305.503 361.679 305.497 406.609C305.496 414.501 303.513 416.808 296.69 416.808C211.534 416.815 126.379 416.815 41.2237 416.808C34.5708 416.807 32.5046 414.475 32.5042 406.972C32.4986 298.531 32.4936 190.089 32.5097 81.6483C32.5118 67.788 40.829 58.5473 53.2224 58.5063C59.0436 58.487 64.865 58.5231 71.0612 58.5718ZM90.6219 151.692C87.1379 150.027 83.7134 148.174 80.1534 146.75C76.6149 145.334 73.1638 147.338 71.917 151.114C70.7473 154.657 72.1392 158.392 75.4463 160.204C77.2653 161.202 79.2109 161.902 81.0657 162.822C100.147 172.287 111.37 188.482 114.72 211.763C117.279 229.548 115.899 247.286 114.979 265.049C114.24 279.331 113.301 293.588 115.342 307.857C118.627 330.822 131.644 345.793 151.726 348.772C162.394 350.354 172.74 347.915 182.778 343.831C187.358 341.968 189.334 338.327 188.168 334.236C186.917 329.843 183.331 328.419 178.538 329.931C173.345 331.569 168.114 333.255 162.797 334.16C145.265 337.144 132.259 327.199 128.743 307.776C127.487 300.838 127.179 293.571 127.238 286.463C127.429 263.206 129.097 239.893 128.124 216.711C126.909 187.776 114.627 165.511 90.6219 151.692Z" fill="#EEF4FF"/>
<path d="M225.061 248.624C228.449 244.711 231.802 240.759 235.231 236.893C258.603 210.543 281.991 184.212 305.671 157.57C305.969 157.264 306.316 157.174 306.697 157.183C312.346 157.202 317.631 156.91 322.878 157.286C334.727 158.136 343.969 164.078 349.961 175.867C353.053 181.95 354.313 188.493 354.308 195.501C354.304 200.731 354.849 205.961 355.149 211.191C349.606 217.534 344.064 223.877 338.268 230.345C335.754 232.767 333.406 234.964 331.249 237.377C322.675 246.967 314.16 256.624 305.498 266.528C294.74 278.623 284.109 290.447 273.233 301.99C273.003 298.97 273.048 296.23 273.026 293.49C272.869 273.9 264.114 260.599 248.948 252.076C241.366 247.815 233.169 248.508 225.061 248.624Z" fill="#FFCD60"/>
<path d="M355.403 211.085C354.849 205.961 354.304 200.731 354.308 195.501C354.314 188.493 353.053 181.95 349.961 175.867C343.969 164.078 334.728 158.136 322.879 157.286C317.631 156.91 312.346 157.202 306.785 156.897C316.221 145.642 325.966 134.699 335.655 123.694C336.656 122.557 337.331 121.058 338.157 119.727C338.99 118.869 339.824 118.011 340.889 117.065C353.033 116.554 363.841 119.907 373.164 128.595C384.392 139.057 389.832 152.535 390.001 168.829C390.008 169.591 390.008 170.353 390.017 171.543C378.568 184.974 367.113 197.976 355.403 211.085Z" fill="#F9A93F"/>
<path d="M338.087 119.306C337.331 121.058 336.656 122.557 335.655 123.694C325.966 134.699 316.221 145.642 306.405 156.889C306.317 157.174 305.969 157.264 305.793 157.296C305.578 132.535 305.537 107.742 305.5 82.9491C305.478 67.4242 297.63 58.5148 283.943 58.5034C278.399 58.4988 272.856 58.5236 266.937 58.5737C266.547 46.6489 266.532 34.6854 266.527 22.2891C276.406 21.8834 286.275 21.7986 296.142 21.9698C305.562 22.1333 313.708 26.2532 321.108 32.609C330.202 40.4196 335.089 51.0702 337.716 63.2706C338.028 64.7152 337.987 66.2749 337.989 67.7814C338.012 84.8156 338.012 101.85 338.087 119.306Z" fill="#64C4FF"/>
<path d="M253.454 58.1762C242.896 58.5861 232.354 58.5603 221.437 58.5732C221.047 46.6485 221.032 34.685 221.027 22.2887C231.595 21.88 242.152 21.9042 253.087 21.8921C253.466 33.8174 253.468 45.779 253.454 58.1762Z" fill="#64C4FF"/>
<path d="M207.954 58.1762C197.396 58.5861 186.854 58.5603 175.937 58.5732C175.547 46.6485 175.532 34.685 175.527 22.2887C186.095 21.88 196.652 21.9042 207.587 21.8921C207.966 33.8174 207.968 45.779 207.954 58.1762Z" fill="#64C4FF"/>
<path d="M162.454 58.1762C151.896 58.5861 141.354 58.5603 130.437 58.5732C130.047 46.6484 130.032 34.685 130.027 22.2887C140.595 21.88 151.152 21.9041 162.087 21.8921C162.466 33.8175 162.468 45.779 162.454 58.1762Z" fill="#64C4FF"/>
<path d="M116.954 58.1762C106.396 58.5861 95.854 58.5603 84.9371 58.5732C84.5471 46.6485 84.5321 34.685 84.5271 22.2887C95.0947 21.88 105.652 21.9041 116.587 21.8921C116.966 33.8175 116.968 45.779 116.954 58.1762Z" fill="#64C4FF"/>
<path d="M90.894 151.84C114.627 165.511 126.91 187.775 128.124 216.711C129.097 239.893 127.429 263.205 127.238 286.463C127.18 293.571 127.487 300.837 128.743 307.775C132.259 327.199 145.266 337.144 162.797 334.16C168.114 333.255 173.345 331.569 178.538 329.93C183.331 328.419 186.917 329.843 188.168 334.235C189.334 338.327 187.358 341.968 182.778 343.831C172.74 347.915 162.394 350.354 151.726 348.771C131.644 345.793 118.627 330.822 115.342 307.857C113.301 293.588 114.24 279.331 114.979 265.048C115.899 247.286 117.28 229.548 114.72 211.762C111.37 188.482 100.147 172.287 81.0659 162.821C79.2111 161.901 77.2655 161.201 75.4465 160.204C72.1394 158.391 70.7475 154.656 71.9172 151.114C73.164 147.338 76.6151 145.334 80.1535 146.749C83.7136 148.174 87.1381 150.027 90.894 151.84Z" fill="#FFCE62"/>
<path d="M224.808 248.753C233.169 248.508 241.366 247.815 248.948 252.076C264.114 260.598 272.869 273.899 273.026 293.49C273.048 296.23 273.003 298.97 272.997 302.139C271.386 304.057 269.967 306.163 268.111 306.926C261.357 309.704 254.456 312.033 247.303 314.031C246.997 311.558 247.023 309.585 246.998 307.612C246.863 296.833 242.931 288.452 234.864 282.408C228.484 277.628 221.381 277.75 214.227 277.771C216.539 269.785 218.743 261.756 221.245 253.845C221.833 251.985 223.425 250.526 224.808 248.753Z" fill="#F9A93E"/>
<path d="M214.04 278.012C221.381 277.751 228.484 277.628 234.864 282.408C242.931 288.452 246.863 296.833 246.998 307.613C247.023 309.585 246.997 311.558 246.989 313.952C245.793 315.027 244.65 315.839 243.405 316.31C232.846 320.309 222.253 324.196 211.705 328.233C208.698 329.384 205.895 329.741 203.423 327.074C200.781 324.225 201.222 320.893 202.272 317.387C206.174 304.358 209.999 291.3 214.04 278.012Z" fill="#EF8F30"/>
</svg>
