<svg width="512" height="366" viewBox="0 0 512 366" fill="none" xmlns="http://www.w3.org/2000/svg">
<path d="M0 68.8552C1.13797 66.5835 2.40411 64.8477 3.39245 62.9659C8.59005 53.07 16.3862 46.5485 27.5674 44.742C36.3237 43.3273 44.1678 47.9935 46.7188 55.6842C48.5662 61.2536 47.2711 62.9037 41.3612 62.6705C33.2049 62.3486 26.5467 65.0787 22.7459 72.6808C18.9512 80.2708 18.8144 87.7204 24.5054 94.6633C28.5444 99.5909 33.8162 100.731 39.7883 99.8813C54.2147 97.8275 66.953 91.7235 78.0491 82.596C88.4495 74.0407 98.0813 64.5583 108.242 55.7029C120.773 44.7823 133.017 33.4347 146.342 23.5623C153.37 18.355 162.121 14.7317 170.645 12.4533C184.413 8.77296 193.356 16.9051 192.953 31.1685C192.916 32.4982 193.153 34.0363 192.582 35.1193C186.846 46.0049 190.038 57.519 189.955 68.8149C189.901 76.1326 189.355 83.4454 189.149 90.7638C189.082 93.1343 189.393 95.5154 189.531 97.8917C190.076 98.1142 190.621 98.3366 191.166 98.5591C193.83 95.76 196.904 93.2467 199.085 90.1118C207.837 77.5301 215.902 64.452 225.015 52.1454C232.814 41.6133 241.413 31.6272 250.206 21.8953C255.503 16.0333 262.441 12.1518 270.341 10.4464C284.594 7.36917 294.756 16.0969 293.901 30.646C293.843 31.6427 293.731 32.6384 293.598 33.6285C292.556 41.3978 292.166 41.5203 285.717 37.0723C277.475 31.388 268.722 32.5748 261.275 37.649C252.977 43.3043 245.221 50.0563 238.277 57.3317C227.486 68.6392 217.705 80.9051 207.225 92.5199C204.023 96.068 199.98 98.8733 196.228 101.902C193.971 103.723 193.138 105.378 195.933 107.402C203.097 112.589 206.383 120.164 208.692 128.314C210.599 135.047 212.534 141.773 214.298 148.544C215.331 152.512 217.656 154.136 221.764 154.482C226.192 154.855 230.741 155.589 234.887 157.117C243.208 160.183 247.63 169.85 245.001 177.949C242.695 185.048 233.594 189.388 225.209 187.411C216.088 185.261 209.445 179.774 204.502 172.026C200.779 166.189 200.457 165.857 194.284 169.314C179.604 177.533 165.084 186.037 150.478 194.391C141.154 199.723 131.565 204.311 120.493 204.459C117.133 204.503 115.619 206.376 114.619 209.481C112.895 214.836 111.394 220.458 108.541 225.213C102.648 235.039 89.482 236.504 82.2517 227.702C77.9872 222.51 74.7248 215.797 73.1161 209.25C67.782 187.546 69.2219 165.517 72.7642 143.722C75.1925 128.781 78.9106 114.051 82.0526 99.226C82.4195 97.4946 82.7891 95.7638 83.4472 92.6709C80.4999 94.2226 78.7183 95.183 76.917 96.105C67.914 100.714 59.1807 105.993 49.8392 109.765C33.0534 116.544 12.2942 111.024 2.7366 93.4728C2.19291 92.4744 1.26877 91.6832 0.260848 90.5911C5.96046e-08 83.3657 0 76.3448 0 68.8552ZM198.183 155.218C195.343 142.045 193.22 128.681 188.02 115.964C186.708 117.687 186.133 119.329 185.884 121.019C184.549 130.084 183.319 139.165 182.001 148.233C181.48 151.82 180.578 155.77 176.242 155.772C173.928 155.774 171.612 153.427 168.931 151.936C165.647 154.346 161.828 158.321 157.163 160.293C150.51 163.104 148.029 156.227 143.962 152.14C141.989 155.339 140.491 158.261 138.538 160.838C133.317 167.725 124.869 168.398 120.018 161.407C116.655 156.561 114.305 150.435 113.4 144.588C111.754 133.942 113.344 123.219 117.155 113.13C118.746 108.916 121.451 104.776 124.635 101.586C130.561 95.6482 138.807 96.4724 144.471 102.748C145.19 103.544 146.069 104.194 146.927 104.96C147.522 104.277 147.925 103.951 148.154 103.53C150.179 99.8188 153.784 97.8339 157.223 99.5216C158.936 100.362 159.613 104.872 159.467 107.654C159.005 116.46 157.894 125.23 157.115 134.021C156.733 138.33 156.172 142.674 156.407 146.963C156.514 148.926 158.346 150.795 159.396 152.706C161.175 151.69 163.545 151.087 164.608 149.569C166.679 146.612 168.417 143.28 169.597 139.863C178.101 115.245 177.924 89.4134 179.92 63.8936C180.223 60.026 178.5 58.6605 174.703 60.4868C172.77 61.4162 170.55 62.6753 168.614 62.4518C165.706 62.1163 162.162 61.3242 160.351 59.3704C158.937 57.8442 158.95 53.9996 159.716 51.6345C161.99 44.616 168.323 40.7475 176.455 40.5718C181.444 40.464 182.859 38.5195 181.478 33.668C179.959 28.3287 174.843 25.3262 168.448 26.0967C159.761 27.1434 152.903 31.8716 146.588 37.416C134.33 48.179 122.114 58.9977 110.156 70.0901C107.868 72.2126 106.026 75.5251 105.369 78.5869C99.227 107.244 92.9207 135.88 87.646 164.703C84.7408 180.578 84.0458 196.817 86.9969 212.906C87.6195 216.301 88.6342 219.767 90.2178 222.81C93.1214 228.389 99.0493 228.723 102.621 223.489C104.944 220.086 106.744 216.255 108.312 212.424C111.346 205.013 111.135 203.765 105.506 199.123C99.2384 193.954 97.4074 186.032 100.962 180.344C102.3 178.202 105.538 176.059 107.877 176.095C109.884 176.126 112.65 178.903 113.632 181.11C115.082 184.368 115.467 188.171 115.91 191.79C116.611 197.512 117.867 199.187 123.486 198.111C128.967 197.062 134.633 195.502 139.469 192.816C158.23 182.396 176.722 171.487 195.21 160.583C196.637 159.742 197.258 157.534 198.183 155.218ZM144.336 132.109C143.288 124.456 142.391 116.777 141.06 109.174C140.808 107.74 138.824 106.611 137.64 105.341C136.336 106.678 134.33 107.807 133.86 109.391C132.448 114.151 131.074 119.047 130.71 123.965C130.052 132.86 129.854 141.818 130.103 150.732C130.168 153.052 132.597 155.306 133.94 157.59C135.645 155.626 138.109 153.929 138.909 151.648C141.046 145.552 142.469 139.204 144.336 132.109ZM234.321 177.489C238.61 175.229 239.73 172.126 237.644 168.28C235.471 164.271 227.729 160.168 223.223 160.549C220.559 160.773 219.422 162.072 220.691 164.5C223.644 170.15 226.871 175.626 234.321 177.489Z" fill="#5F33E1"/>
<path d="M512 50.9701C509.894 52.3396 507.81 53.3426 505.679 54.2366C496.812 57.9573 487.965 61.7287 479.039 65.3046C475.395 66.7646 472.859 66.0982 471.769 61.5026C470.239 55.0442 468.061 48.7316 466.005 42.4072C462.98 33.1069 457.483 29.3603 447.793 28.0844C439.731 27.0229 431.837 24.7287 423.828 23.1897C421.678 22.7765 419.38 23.1271 417.151 23.1271C417.082 22.6807 417.013 22.2342 416.944 21.7877C418.558 21.2475 420.17 20.7001 421.787 20.1681C441.206 13.7798 460.652 7.47382 480.03 0.963414C486.708 -1.28031 489.351 0.256223 487.8 7.04081C486.109 14.439 483.464 21.6672 480.675 28.7493C478.896 33.2674 479.564 36.3657 484.12 37.8648C493.105 40.8206 502.2 43.4428 511.624 46.2949C512 47.7757 512 49.1646 512 50.9701Z" fill="#5F33E1"/>
<path d="M456.973 145.621C454.755 140.586 451.07 138.186 446.103 137.298C434.733 135.267 423.803 137.203 413.296 141.34C388.705 151.023 365.918 164.223 343.526 178.102C333.762 184.154 324.157 190.486 314.754 197.082C312.577 198.609 310.519 201.579 310.111 204.155C306.096 229.487 302.384 254.868 298.758 280.259C298.321 283.317 298.502 286.6 299.107 289.637C300.003 294.134 303.11 295.268 306.835 292.486C309.054 290.828 311.298 288.729 312.531 286.317C315.773 279.974 319.755 273.613 321.144 266.791C325.63 244.778 329.884 222.657 329.99 200.032C329.998 198.367 330.066 196.681 329.846 195.04C329.314 191.059 330.74 188.567 334.842 187.865C338.959 187.159 342.837 188.256 343.536 192.481C344.554 198.642 345.021 205.064 344.495 211.27C343.68 220.877 341.799 230.392 340.434 239.956C340.07 242.509 339.936 245.095 339.697 247.666C340.094 247.83 340.492 247.994 340.89 248.158C341.896 246.796 342.79 245.33 343.931 244.092C347.279 240.457 350.457 236.592 354.213 233.425C357.706 230.479 361.982 229.63 366.314 232.192C370.514 234.677 372.199 238.665 371.836 243.208C371.293 250.005 370.2 256.759 369.291 263.525C368.582 268.806 367.498 274.054 367.121 279.356C366.641 286.118 367.915 287.07 374.599 287.443C378.376 287.654 382.409 287.785 385.819 289.186C394.564 292.78 395.752 299.721 389.292 306.548C380.06 316.304 364.285 315.864 356.074 305.256C353.033 301.328 350.463 302.282 347.187 304.35C328.734 316.001 310.373 327.806 291.741 339.164C270.192 352.3 247.204 361.921 221.905 364.817C207.268 366.493 192.863 366.128 180.671 355.856C168.735 345.8 168.976 327.751 181.253 319.74C185.403 317.032 187.291 317.864 187.934 322.683C189.913 337.516 196.326 344.461 211.07 347.183C230.818 350.829 249.75 347.434 267.394 338.502C286.544 328.807 305.13 317.999 323.982 307.711C331.438 303.642 338.905 299.588 346.449 295.687C349.899 293.903 351.6 291.348 351.957 287.461C353.054 275.537 354.388 263.636 355.563 251.72C355.748 249.851 355.589 247.948 355.589 246.06C355.087 245.806 354.584 245.553 354.082 245.299C352.092 247.3 349.732 249.05 348.174 251.344C340.522 262.612 334.574 274.62 332.913 288.396C332.232 294.049 328.812 295.557 324.319 291.735C320.813 288.753 319.316 289.97 316.809 292.926C313.116 297.279 309.274 302.003 304.467 304.801C296.757 309.287 288.82 305.73 285.295 297.442C281.962 289.607 282.528 281.391 283.59 273.299C286.04 254.636 288.877 236.024 291.481 217.38C292.528 209.88 291.906 209.154 284.469 207.952C273.825 206.233 269.245 201.739 268.726 192.504C268.401 186.72 271.746 180.522 277.01 178.967C279.533 178.222 282.983 178.676 285.373 179.869C289.021 181.691 288.854 184.14 285.326 186.507C281.802 188.871 280.542 192.014 281.556 195.968C282.452 199.463 284.949 201.282 288.585 201.085C292.427 200.877 292.94 197.995 292.928 194.997C292.916 192.172 292.739 189.341 292.503 186.524C292.264 183.672 291.565 180.555 295.077 179.266C298.829 177.888 302.41 178.521 304.941 181.871C306.125 183.438 307.057 185.312 307.645 187.19C309.064 191.722 311.314 191.918 315.013 189.437C328.295 180.528 341.546 171.554 355.101 163.071C374.442 150.967 393.729 138.633 415.689 131.583C427.298 127.857 439.046 124.382 451.433 127.862C460.633 130.447 467.914 135.354 470.251 145.235C472.57 155.045 470.22 163.792 462.868 170.853C460.864 172.776 458.434 174.474 455.898 175.585C446.875 179.539 435.983 176.747 431.747 169.682C426.809 161.443 428.662 147.901 436.081 142.254C438.308 140.558 442.112 139.56 444.739 140.177C447.01 140.711 449.503 143.737 450.204 146.152C450.588 147.479 447.661 150.032 445.873 151.638C444.431 152.932 442.236 153.376 440.765 154.649C436.921 157.972 436.056 164.517 438.775 167.796C441.509 171.094 447.84 171.067 451.971 167.738C458.121 162.783 459.993 154.877 456.973 145.621ZM385.669 294.194C382.36 293.458 379.021 292.055 375.754 292.206C373.337 292.318 371.013 294.454 368.648 295.688C370.117 298.502 371.485 301.378 373.122 304.091C373.56 304.816 374.781 305.167 375.713 305.479C379.86 306.869 383.681 305.588 385.887 302.286C387.087 300.49 386.171 297.281 385.669 294.194Z" fill="#5F33E1"/>
<path d="M426.963 37.7106C427.917 38.2435 429.202 39.2252 430.271 39.0286C436.638 37.8578 443.049 36.7457 449.262 34.9742C456.049 33.0393 459.567 33.9696 461.751 40.6865C466.591 55.5743 470.923 70.6281 475.407 85.6307C476.612 89.6618 475.167 92.7181 471.737 95.0974C460.008 103.234 447.064 108.522 432.946 110.09C407.956 112.865 382.914 115.22 357.861 117.368C336.41 119.207 314.971 120.841 294.804 129.297C291.274 130.777 287.822 132.461 284.408 134.197C280.806 136.028 279.046 135.078 279.045 131.006C279.045 130.339 279.011 129.673 279.011 129.006C279.009 110.508 279.125 92.0086 278.937 73.5122C278.882 68.1126 280.804 64.3944 285.315 61.4537C301.451 50.934 319.141 44.8444 338.257 43.5569C360.01 42.0919 381.81 41.2915 403.598 40.444C408.285 40.2616 409.974 38.1016 410.616 33.8485C411.966 24.9 412.099 24.8638 421.066 26.7151C428.083 28.1639 435.072 29.7464 442.062 31.3248C443.461 31.6408 444.804 32.2067 446.172 32.6573C446.217 33.26 446.261 33.8627 446.305 34.4654C439.936 35.5153 433.566 36.5651 426.963 37.7106ZM353.196 96.1003C357.601 93.7689 358.984 96.2405 360.177 100.033C360.705 101.712 362.661 102.943 363.969 104.378C365.611 102.796 367.284 101.246 368.863 99.605C369.142 99.3152 369.079 98.645 369.083 98.1499C369.161 85.4644 368.45 72.935 362.923 61.1504C360.778 56.5762 357.527 53.9776 352.467 54.2002C347.137 54.4349 344.085 57.5391 342.579 62.5593C340.621 69.0871 338.833 75.3169 340.592 82.4983C342.253 89.2794 341.802 96.5571 342.727 103.557C342.909 104.937 345.126 106.047 346.405 107.281C347.735 105.797 349.359 104.479 350.316 102.784C351.397 100.868 351.878 98.6146 353.196 96.1003ZM404.398 97.6945C411.334 95.8372 411.827 94.1692 407.005 88.8756C406.557 88.3838 406.093 87.9065 405.66 87.4017C402.284 83.4622 400.831 79.8255 404.064 74.5026C407.633 68.6285 407.178 61.6157 403.1 56.0584C399.353 50.9518 393.277 51.4292 387.493 52.2907C382.693 53.0055 379.612 55.4068 379.789 60.3996C380.223 72.6643 380.827 84.9284 381.749 97.1636C381.867 98.7308 384.287 100.124 385.64 101.598C387.016 100.194 388.963 99.0105 389.616 97.3256C390.355 95.4215 389.853 93.06 390.038 90.9102C390.184 89.2152 390.554 87.5395 391.09 84.2039C393.838 87.5606 395.448 89.7808 397.322 91.7491C399.322 93.8488 401.572 95.7104 404.398 97.6945ZM444.612 90.4028C444.568 84.4279 443.299 83.267 437.571 83.9846C436.58 84.1087 435.525 84.5757 434.623 84.3633C432.749 83.9226 430.958 83.1321 429.133 82.4855C430.46 81.1049 431.552 79.2443 433.168 78.454C435.723 77.2042 438.634 75.9976 437.328 72.8751C436.658 71.2733 433.657 70.0166 431.579 69.7876C428.756 69.4767 426.637 69.0739 426.265 65.8758C425.903 62.7572 425.975 59.7502 429.575 58.4112C431.286 57.7745 433.083 57.3719 434.821 56.8011C437.815 55.8179 439.609 53.5769 438.172 50.7533C437.296 49.0316 434.594 47.1421 432.783 47.2103C428.342 47.3776 423.934 48.5883 419.531 49.4716C416.433 50.093 414.915 52.1162 415.299 55.2367C416.804 67.4538 418.392 79.6607 419.963 91.8696C420.436 95.5477 422.502 97.1213 426.192 96.4581C430.94 95.6047 435.724 94.9008 440.416 93.803C441.862 93.4644 443.057 92.0484 444.612 90.4028ZM329.317 100.426C328.421 98.7051 327.525 96.9845 326.629 95.2639C325.012 96.1743 323.309 96.965 321.815 98.0451C321.057 98.5928 320.744 99.7184 320.113 100.486C317.543 103.611 314.81 103.485 313.224 99.7733C309.641 91.3873 310.418 82.8152 313.144 74.3789C313.84 72.2258 315.716 71.4996 317.211 73.8127C318.605 75.9688 319.527 78.5778 322.833 76.7435C326.067 74.9486 326.21 72.0177 325.364 68.9137C324.157 64.4855 321.222 61.6844 316.722 60.8735C311.256 59.8886 307.025 62.4598 304.58 66.9572C298.053 78.9642 297.474 91.4537 303.488 103.842C306.253 109.537 311.198 112.649 317.714 112.074C324.26 111.497 327.564 107.127 329.317 100.426ZM416.977 39.7395C417.372 39.6827 417.768 39.626 418.164 39.5692C418.035 39.3398 417.906 39.1103 417.777 38.8809C417.462 39.0897 417.147 39.2985 416.977 39.7395Z" fill="#5F33E1"/>
<path d="M217.803 309.513C210.497 296.845 209.473 283.324 210.285 269.532C210.577 264.562 211.86 259.65 212.12 254.681C212.296 251.314 212.165 247.631 210.985 244.543C204.631 227.901 210.447 207.135 224.78 196.599C237.723 187.083 260.252 192.191 268.366 207.83C273.181 217.109 276.155 227.663 278.205 237.991C282.506 259.66 278.355 280.41 268.129 299.852C265.607 304.647 262.319 309.245 258.568 313.149C245.373 326.881 229.001 325.389 217.803 309.513ZM234.295 310.469C237.298 314.282 240.705 313.318 243.177 310.364C246.236 306.708 249.044 302.647 251.051 298.338C260.08 278.953 263.702 258.308 262.696 237.124C262.263 227.994 259.977 218.664 256.857 210.029C253.538 200.842 243.587 197.218 236.589 201.566C227.574 207.167 223.905 216.071 222.803 226.246C222.782 226.437 223.239 226.68 223.917 227.313C225.333 226.131 226.68 224.702 228.301 223.726C230.82 222.208 233.394 220.412 236.181 219.786C241.312 218.634 243.099 221.04 241.129 225.868C240.124 228.33 238.602 230.607 237.81 233.124C236.008 238.852 234.511 244.677 232.891 250.462C233.538 250.822 234.185 251.182 234.831 251.542C236.87 249.809 239.573 248.451 240.806 246.264C243.219 241.985 245.47 237.392 246.55 232.647C247.519 228.388 246.726 223.746 246.928 219.282C246.987 217.964 247.782 216.68 248.24 215.38C249.47 216.063 250.805 216.613 251.894 217.474C252.639 218.064 253.08 219.064 253.592 219.919C262.02 234.032 253.843 254.076 237.097 259.503C232.749 260.912 230.453 263.081 230.528 267.483C230.724 279.095 230.921 290.711 231.446 302.311C231.561 304.854 233.039 307.336 234.295 310.469Z" fill="#5F33E1"/>
<path d="M420.66 256.032C417.642 262.014 415.087 267.832 411.841 273.234C408.057 279.531 402.34 283.064 394.703 282.163C387.353 281.295 382.169 277.405 379.095 270.528C371.834 254.281 375.096 234.313 387.338 221.129C392.21 215.881 396.907 214.981 403.386 218.039C404.137 218.394 404.899 218.74 405.685 219.002C414.908 222.074 416.854 225.588 414.758 235.007C413.22 241.917 410.086 247.886 404.387 252.16C402.189 253.807 399.527 255.187 396.871 255.8C391.256 257.095 390.441 257.853 391.73 262.691C393.297 268.573 397.296 271.544 401.722 269.497C403.967 268.459 406.425 266.42 407.345 264.229C412.039 253.055 416.315 241.703 420.619 230.368C421.916 226.951 420.894 224.126 418.368 221.3C413.542 215.901 414.32 205.377 419.491 200.249C423.475 196.297 427.887 197.189 429.294 202.546C430.081 205.539 430.22 208.802 430.069 211.915C429.858 216.284 431.204 219.11 435.481 220.864C444.094 224.398 448.437 230.911 448.016 240.412C447.867 243.782 447.993 247.164 447.993 250.54C448.656 250.697 449.32 250.855 449.984 251.012C451.176 248.99 452.695 247.089 453.501 244.923C456.348 237.279 459.14 229.601 461.532 221.807C462.27 219.404 461.534 216.581 461.705 213.965C462.037 208.891 461.798 203.606 463.236 198.843C464.115 195.93 467.266 193.076 470.119 191.521C475.508 188.583 480.295 192.316 479.563 198.383C479.365 200.026 479.141 201.778 478.421 203.227C474.956 210.208 477.15 215.685 481.828 221.39C489.233 230.42 494.589 240.552 493.935 252.817C493.491 261.158 490.75 268.429 483.955 273.77C478.706 277.895 469.921 277.634 465.55 273.187C460.281 267.826 459.751 260.363 464.401 255.174C465.487 253.962 466.858 252.824 468.33 252.195C469.562 251.668 471.573 251.358 472.428 252.012C473.264 252.651 473.341 254.649 473.256 256.02C473.177 257.298 472.363 258.514 472.016 259.795C470.9 263.927 472.871 267.834 476.511 268.403C481.13 269.126 482.205 265.808 482.703 262.337C483.601 256.07 482.849 250.001 479.517 244.489C476.458 239.428 473.235 234.467 469.388 228.355C467.879 231.194 466.909 232.66 466.282 234.26C463.608 241.082 461.154 247.993 458.365 254.767C457.372 257.177 455.985 259.598 454.212 261.482C448.758 267.276 441.18 266.165 438.061 258.787C436.291 254.6 435.853 249.819 435.048 245.265C434.413 241.67 434.363 237.963 433.584 234.409C433.285 233.047 431.683 231.97 430.674 230.764C429.757 231.973 428.47 233.049 427.986 234.412C425.483 241.462 423.185 248.586 420.66 256.032Z" fill="#5F33E1"/>
<path d="M217.295 104.854C219.021 99.9123 220.371 95.2487 222.375 90.8858C225.258 84.611 229.965 79.6954 237.28 80.3045C244.476 80.9036 249.066 86.4026 252.124 92.4119C257.948 103.858 248.096 123.572 235.429 123.464C231.033 123.426 229.59 126.284 230.417 130.217C231.536 135.536 231.899 142.112 238.541 143.235C245.034 144.332 247.575 138.438 249.694 133.658C251.413 129.782 251.876 125.365 253.147 121.265C253.583 119.86 254.61 117.842 255.669 117.631C256.934 117.38 258.872 118.45 259.877 119.539C260.915 120.665 261.493 122.453 261.738 124.035C263.858 137.677 251.758 151.335 238.004 150.804C229.838 150.488 224.246 146.006 220.865 138.923C215.742 128.191 214.837 116.876 217.295 104.854Z" fill="#5F33E1"/>
<path d="M77.2802 304.726C69.1586 307.189 61.4693 309.934 53.5532 311.604C49.4877 312.462 44.9177 311.911 40.7499 311.1C31.4138 309.285 26.3672 303.515 27.293 296.578C28.1799 289.932 35.6796 285.103 44.6724 285.827C53.2931 286.521 61.8646 287.835 70.4869 288.499C76.4282 288.956 82.4228 288.681 88.3854 288.929C89.8912 288.992 91.3659 289.803 92.8549 290.271C92.3399 291.756 92.2706 293.797 91.2325 294.628C86.8518 298.136 82.1824 301.284 77.2802 304.726Z" fill="#5F33E1"/>
<path d="M31.2603 248.111C31.0625 242.798 32.7465 238.72 37.324 236.611C42.2843 234.326 47.1726 235.219 51.3891 238.591C55.9319 242.225 60.3574 246.02 64.6567 249.939C71.5912 256.26 79.5619 260.448 88.7302 262.428C89.7736 262.654 90.7133 263.359 92.6584 264.31C90.8202 265.509 89.782 266.579 88.5385 266.938C72.2378 271.645 56.332 271.254 41.2032 262.765C35.6535 259.651 32.3726 254.814 31.2603 248.111Z" fill="#5F33E1"/>
<path d="M339.861 121.417C341.949 121.35 343.613 121.28 345.277 121.27C345.572 121.268 345.868 121.517 346.912 121.986C344.634 123.979 342.658 125.844 340.539 127.531C337.433 130.005 337.387 132.635 339.566 135.769C341.841 139.041 344.129 142.349 345.905 145.896C346.575 147.235 346.364 149.652 345.528 150.875C345.006 151.638 342.368 151.582 341.012 151.049C323.578 144.2 305.243 142.04 286.803 140.36C285.814 140.27 284.819 140.121 283.86 139.873C283.42 139.759 283.059 139.338 281.483 138.218C299.81 127.298 319.421 123.711 339.861 121.417Z" fill="#5F33E1"/>
<path d="M100.179 311.819C100.662 313.248 101.476 315.223 100.883 315.835C91.8123 325.191 88.8594 337.032 86.8174 349.302C86.4646 351.422 85.9415 353.552 85.1783 355.556C83.7539 359.296 81.559 362.617 77.0673 362.554C72.3298 362.488 69.0355 359.342 68.1326 355.139C67.1825 350.717 66.6316 345.639 67.8678 341.423C71.9182 327.608 80.6293 317.529 94.491 312.531C96.1583 311.93 98.0612 311.982 100.179 311.819Z" fill="#5F33E1"/>
<path d="M149.69 266.932C148.808 272.303 148.342 277.314 147.061 282.107C145.723 287.106 142.959 291.353 137.178 292.129C131.354 292.911 127.194 289.681 125.287 284.879C123.127 279.436 121.271 273.398 121.372 267.655C121.495 260.643 123.342 253.541 125.282 246.717C126.915 240.972 132.812 236.884 137.397 236.998C141.943 237.11 147.446 241.599 148.551 247.674C149.667 253.81 149.405 260.197 149.69 266.932ZM130.116 251.216C129.606 259.928 128.635 268.648 128.784 277.349C128.856 281.583 131.076 286.565 136.276 286.417C141.401 286.272 142.287 281.161 142.687 277.076C143.411 269.663 143.786 262.196 143.855 254.748C143.879 252.059 143.069 249.114 141.813 246.719C139.892 243.055 135.943 242.764 133.139 245.815C131.942 247.117 131.269 248.9 130.116 251.216Z" fill="#5F33E1"/>
<path d="M162.059 249.042C162.156 253.041 164.092 253.995 167.38 253.414C169.657 253.011 171.999 252.729 174.297 252.808C175.191 252.839 176.604 253.902 176.761 254.696C176.918 255.489 176.01 257.032 175.2 257.376C172.772 258.404 170.207 259.246 167.614 259.721C163.645 260.45 162.039 262.613 161.956 266.599C161.859 271.249 161.385 275.9 160.856 280.526C160.671 282.144 159.837 283.688 159.3 285.266C158.762 285.268 158.223 285.271 157.685 285.273C157.153 283.358 156.137 281.435 156.166 279.529C156.366 266.391 156.755 253.256 157.182 240.124C157.223 238.861 157.684 237.44 158.401 236.404C160.807 232.921 173.794 230.781 179.062 233.882C175.413 235.481 172.637 236.913 169.717 237.936C162.47 240.475 162.177 240.769 162.059 249.042Z" fill="#5F33E1"/>
<path d="M163.139 225.53C149.003 228.089 135.291 230.596 121.563 233.009C120.925 233.121 120.139 232.391 118.234 231.493C120.466 230.065 121.834 228.583 123.436 228.257C140.366 224.816 157.327 221.525 174.301 218.311C175.741 218.039 177.343 218.62 180.304 218.979C174.883 224.467 168.811 223.917 163.139 225.53Z" fill="#5F33E1"/>
<path d="M148.844 297.246C157.301 295.791 165.313 294.255 173.383 293.139C175.123 292.899 177.071 294.169 178.923 294.744C177.479 295.869 176.173 297.699 174.57 298.012C158.735 301.101 142.861 304 126.962 306.748C125.502 307.001 123.798 305.839 122.207 305.334C123.457 304.231 124.549 302.481 125.983 302.133C133.414 300.33 140.932 298.886 148.844 297.246Z" fill="#5F33E1"/>
<path d="M198.218 155.589C197.258 157.534 196.637 159.742 195.21 160.583C176.722 171.487 158.23 182.396 139.469 192.816C134.633 195.502 128.967 197.062 123.486 198.111C117.867 199.187 116.611 197.512 115.91 191.79C115.467 188.171 115.082 184.368 113.632 181.11C112.65 178.903 109.884 176.126 107.877 176.095C105.538 176.059 102.3 178.202 100.962 180.344C97.4074 186.032 99.2384 193.954 105.506 199.123C111.135 203.765 111.346 205.013 108.312 212.424C106.744 216.254 104.944 220.086 102.621 223.489C99.0493 228.723 93.1214 228.389 90.2178 222.81C88.6342 219.767 87.6195 216.301 86.9969 212.906C84.0458 196.817 84.7408 180.578 87.646 164.703C92.9207 135.88 99.227 107.244 105.369 78.5868C106.026 75.525 107.868 72.2125 110.156 70.09C122.114 58.9976 134.33 48.1789 146.588 37.416C152.903 31.8716 159.761 27.1433 168.448 26.0966C174.843 25.3262 179.959 28.3287 181.478 33.6679C182.859 38.5195 181.444 40.464 176.455 40.5718C168.323 40.7475 161.99 44.616 159.716 51.6344C158.95 53.9995 158.937 57.8441 160.351 59.3703C162.162 61.3241 165.706 62.1162 168.614 62.4518C170.55 62.6752 172.77 61.4162 174.703 60.4867C178.5 58.6604 180.223 60.026 179.92 63.8936C177.924 89.4134 178.101 115.245 169.597 139.863C168.417 143.279 166.679 146.611 164.608 149.569C163.545 151.087 161.175 151.69 159.396 152.706C158.346 150.795 156.514 148.926 156.407 146.963C156.172 142.674 156.733 138.33 157.115 134.021C157.894 125.23 159.005 116.46 159.467 107.654C159.613 104.872 158.936 100.362 157.223 99.5215C153.784 97.8338 150.179 99.8187 148.154 103.53C147.925 103.95 147.522 104.277 146.927 104.96C146.069 104.194 145.19 103.544 144.471 102.748C138.807 96.4724 130.561 95.6482 124.635 101.586C121.451 104.776 118.746 108.916 117.155 113.13C113.344 123.219 111.754 133.942 113.4 144.587C114.305 150.435 116.655 156.561 120.018 161.407C124.869 168.398 133.317 167.724 138.538 160.838C140.491 158.261 141.989 155.338 143.962 152.14C148.029 156.227 150.51 163.104 157.163 160.293C161.828 158.321 165.647 154.346 168.931 151.936C171.612 153.427 173.928 155.773 176.242 155.772C180.578 155.77 181.48 151.82 182.001 148.233C183.319 139.165 184.549 130.084 185.884 121.019C186.133 119.329 186.708 117.687 188.02 115.964C193.22 128.681 195.343 142.045 198.218 155.589Z" fill="white"/>
<path d="M144.256 132.533C142.469 139.205 141.046 145.552 138.909 151.648C138.109 153.929 135.645 155.626 133.94 157.59C132.597 155.306 130.168 153.052 130.103 150.732C129.854 141.818 130.052 132.86 130.71 123.965C131.074 119.047 132.448 114.151 133.86 109.391C134.33 107.807 136.336 106.678 137.64 105.341C138.824 106.611 140.808 107.74 141.06 109.174C142.391 116.777 143.288 124.456 144.256 132.533Z" fill="white"/>
<path d="M233.988 177.493C226.871 175.626 223.644 170.151 220.691 164.5C219.423 162.073 220.559 160.774 223.224 160.549C227.729 160.169 235.471 164.272 237.644 168.28C239.73 172.126 238.61 175.229 233.988 177.493Z" fill="white"/>
<path d="M457.013 27.4205C457.03 27.4076 456.996 27.4333 457.013 27.4205Z" fill="white"/>
<path d="M430.037 22.3974C430.04 22.3763 430.035 22.4186 430.037 22.3974Z" fill="white"/>
<path d="M385.939 294.452C386.171 297.281 387.087 300.49 385.887 302.286C383.68 305.588 379.86 306.869 375.712 305.479C374.781 305.167 373.56 304.816 373.122 304.091C371.485 301.378 370.117 298.502 368.648 295.688C371.013 294.454 373.337 292.318 375.754 292.206C379.021 292.054 382.36 293.458 385.939 294.452Z" fill="white"/>
<path d="M352.908 96.3042C351.878 98.6146 351.397 100.868 350.316 102.784C349.359 104.479 347.735 105.797 346.405 107.281C345.126 106.047 342.909 104.936 342.727 103.557C341.802 96.5571 342.253 89.2794 340.592 82.4983C338.833 75.3169 340.621 69.0871 342.579 62.5593C344.085 57.5391 347.137 54.4348 352.467 54.2002C357.527 53.9776 360.778 56.5762 362.923 61.1504C368.45 72.935 369.161 85.4644 369.083 98.1499C369.079 98.645 369.142 99.3152 368.863 99.605C367.284 101.246 365.611 102.796 363.969 104.378C362.661 102.943 360.705 101.712 360.177 100.033C358.984 96.2405 357.601 93.7688 352.908 96.3042Z" fill="white"/>
<path d="M404.055 97.6852C401.572 95.7104 399.322 93.8488 397.322 91.7491C395.448 89.7808 393.838 87.5606 391.09 84.2039C390.554 87.5394 390.184 89.2151 390.038 90.9102C389.853 93.06 390.355 95.4215 389.616 97.3256C388.963 99.0104 387.016 100.194 385.64 101.598C384.287 100.124 381.867 98.7308 381.749 97.1636C380.827 84.9284 380.223 72.6642 379.789 60.3995C379.612 55.4068 382.693 53.0055 387.493 52.2907C393.277 51.4291 399.353 50.9518 403.1 56.0584C407.178 61.6157 407.633 68.6285 404.064 74.5025C400.831 79.8254 402.284 83.4622 405.66 87.4017C406.093 87.9065 406.557 88.3838 407.005 88.8756C411.827 94.1692 411.334 95.8371 404.055 97.6852Z" fill="white"/>
<path d="M444.49 90.7642C443.057 92.0483 441.862 93.4644 440.415 93.8029C435.724 94.9007 430.94 95.6047 426.192 96.4581C422.502 97.1213 420.436 95.5477 419.963 91.8695C418.392 79.6607 416.804 67.4537 415.299 55.2366C414.915 52.1161 416.433 50.0929 419.531 49.4715C423.934 48.5882 428.342 47.3776 432.783 47.2103C434.594 47.1421 437.296 49.0316 438.172 50.7532C439.609 53.5768 437.815 55.8178 434.821 56.8011C433.083 57.3719 431.286 57.7744 429.575 58.4111C425.975 59.7501 425.902 62.7572 426.265 65.8758C426.637 69.0738 428.756 69.4766 431.579 69.7876C433.657 70.0166 436.658 71.2732 437.328 72.8751C438.634 75.9975 435.723 77.2041 433.168 78.4539C431.552 79.2442 430.46 81.1048 429.133 82.4854C430.958 83.1321 432.749 83.9225 434.623 84.3633C435.525 84.5757 436.58 84.1087 437.571 83.9846C443.299 83.2669 444.568 84.4278 444.49 90.7642Z" fill="white"/>
<path d="M329.235 100.79C327.564 107.127 324.261 111.497 317.714 112.075C311.198 112.649 306.253 109.537 303.488 103.842C297.474 91.4539 298.053 78.9644 304.58 66.9574C307.025 62.46 311.256 59.8888 316.722 60.8737C321.222 61.6846 324.157 64.4857 325.364 68.9139C326.21 72.0179 326.067 74.9488 322.833 76.7437C319.528 78.5779 318.605 75.969 317.211 73.8129C315.716 71.4997 313.84 72.2259 313.144 74.3791C310.418 82.8154 309.642 91.3874 313.224 99.7734C314.81 103.486 317.543 103.612 320.113 100.486C320.744 99.7186 321.057 98.5929 321.815 98.0452C323.309 96.9652 325.012 96.1745 326.629 95.2641C327.525 96.9847 328.421 98.7053 329.235 100.79Z" fill="white"/>
<path d="M416.904 39.6234C417.147 39.2984 417.462 39.0897 417.777 38.8809C417.906 39.1103 418.035 39.3397 418.164 39.5691C417.768 39.6259 417.372 39.6827 416.904 39.6234Z" fill="white"/>
<path d="M234.092 310.157C233.04 307.336 231.561 304.854 231.446 302.311C230.921 290.711 230.725 279.095 230.528 267.483C230.454 263.081 232.749 260.912 237.097 259.503C253.843 254.076 262.02 234.032 253.592 219.919C253.081 219.064 252.639 218.064 251.894 217.474C250.805 216.613 249.47 216.063 248.24 215.38C247.782 216.68 246.987 217.964 246.928 219.282C246.727 223.746 247.519 228.388 246.55 232.647C245.47 237.392 243.219 241.985 240.806 246.264C239.573 248.451 236.87 249.809 234.832 251.542C234.185 251.182 233.538 250.822 232.891 250.462C234.512 244.677 236.008 238.852 237.81 233.124C238.602 230.607 240.125 228.33 241.129 225.868C243.099 221.04 241.313 218.634 236.181 219.786C233.394 220.412 230.82 222.208 228.301 223.726C226.681 224.702 225.333 226.131 223.917 227.313C223.239 226.68 222.782 226.437 222.803 226.246C223.905 216.071 227.575 207.167 236.589 201.566C243.587 197.218 253.538 200.842 256.857 210.029C259.977 218.664 262.263 227.994 262.696 237.124C263.702 258.308 260.08 278.953 251.052 298.338C249.044 302.647 246.237 306.708 243.177 310.364C240.705 313.318 237.298 314.282 234.092 310.157Z" fill="white"/>
<path d="M130.237 250.84C131.269 248.9 131.942 247.117 133.139 245.815C135.943 242.764 139.892 243.055 141.813 246.719C143.069 249.114 143.879 252.059 143.855 254.748C143.787 262.197 143.411 269.663 142.687 277.076C142.288 281.161 141.401 286.272 136.276 286.417C131.076 286.565 128.856 281.583 128.784 277.349C128.635 268.648 129.606 259.928 130.237 250.84Z" fill="white"/>
</svg>
