<svg width="409" height="472" viewBox="0 0 409 472" fill="none" xmlns="http://www.w3.org/2000/svg">
<path d="M178.938 0C195.73 0 212.522 0 229.696 0.372678C230.749 1.10624 231.391 1.6566 232.094 1.79757C237.024 2.78543 241.989 3.54714 246.899 4.64473C264.134 8.49739 280.716 14.9563 296.102 24.5046C308.394 32.1328 320.486 40.6802 331.376 50.6893C342.502 60.9154 352.749 72.7217 362.125 85.1026C374.141 100.97 383.641 118.959 391.135 138.338C398.56 157.534 403.935 177.34 406.687 198.124C407.065 200.985 408.21 203.711 409 206.5C409 225.879 409 245.257 408.677 265.075C408.047 266.134 407.565 266.717 407.459 267.38C406.17 275.448 405.224 283.605 403.633 291.591C399.067 314.508 391.285 335.946 380.955 356.219C368.95 379.778 353.711 400.178 335.664 417.702C321.662 431.299 306.21 442.38 289.479 451.154C272.765 459.92 255.463 466.108 237.327 469.329C234.845 469.77 232.481 471.088 230.062 472C213.27 472 196.478 472 179.306 471.627C178.255 470.894 177.615 470.377 176.91 470.196C165.339 467.23 153.571 465.051 142.225 461.211C121.912 454.336 103.385 442.99 86.0729 428.916C71.4608 417.038 58.5142 403.08 47.0469 387.366C33.2434 368.45 22.4011 347.357 14.384 324.413C8.69196 308.122 4.42974 291.346 2.3071 273.885C1.95905 271.022 0.789742 268.292 0 265.5C0 246.121 0 226.743 0.32291 206.922C1.218 203.754 1.99607 201.061 2.33004 198.296C5.20385 174.505 11.4214 151.83 21.1412 130.724C27.499 116.918 35.1298 103.804 42.9728 91.0189C53.6822 73.5616 67.2742 59.1145 82.0313 46.3383C94.092 35.8965 107.115 27.1269 120.976 20.0406C137.25 11.7209 154.063 5.73497 171.674 2.66969C174.155 2.23783 176.519 0.912027 178.938 0ZM196.685 18.6055C182.414 19.3463 168.373 21.777 154.609 26.2308C117.313 38.2996 85.7822 61.0879 60.958 95.3529C23.573 146.956 9.14512 206.517 18.8427 272.794C27.6378 332.903 54.5468 380.794 98.1094 415.237C142.427 450.276 191.397 461.096 244.743 448.501C253.024 445.722 261.5 443.545 269.557 440.073C355.897 402.877 406.538 302.291 389.641 197.457C376.511 115.995 334.408 60.7549 267.456 31.1133C244.992 21.1678 221.468 17.3578 196.685 18.6055Z" fill="#062B76"/>
<path d="M197.376 18.7688C221.468 17.358 244.992 21.168 267.456 31.1135C334.408 60.7551 376.511 115.995 389.641 197.457C406.538 302.291 355.897 402.877 269.557 440.074C261.5 443.545 253.024 445.723 244.184 448.319C234.872 438.786 225.799 429.798 217.428 420.011C196.593 395.649 180.558 367.427 168.072 336.425C154.137 301.826 145.995 265.418 143.998 227.463C142.278 194.762 144.389 162.229 151.523 130.295C159.332 95.3407 171.77 62.8221 189.233 32.8677C191.965 28.1816 194.663 23.4691 197.376 18.7688ZM274.692 216.092C265.98 229.911 266.914 247.468 276.969 258.909C287.022 270.346 302.769 271.607 313.761 261.607C322.848 253.339 326.405 242.266 324.098 229.316C321.888 216.91 315.07 208.424 304.49 204.987C292.921 201.228 282.984 205.114 274.692 216.092ZM218.597 263.88C231.385 254.559 236.05 237.372 229.888 222.279C223.835 207.45 209.113 200.141 195.726 205.318C180.274 211.294 172.41 230.851 178.513 248.128C184.865 266.109 202.314 273.224 218.597 263.88Z" fill="white"/>
<path d="M197.031 18.687C194.663 23.4689 191.965 28.1813 189.233 32.8674C171.77 62.8219 159.332 95.3405 151.523 130.295C144.389 162.229 142.278 194.761 143.998 227.463C145.995 265.418 154.137 301.825 168.072 336.425C180.558 367.427 196.593 395.648 217.429 420.01C225.799 429.798 234.872 438.785 243.872 448.36C191.397 461.096 142.427 450.276 98.1095 415.237C54.5469 380.794 27.6379 332.903 18.8428 272.794C9.14522 206.517 23.5731 146.956 60.9581 95.3528C85.7823 61.0878 117.313 38.2995 154.609 26.2307C168.373 21.777 182.415 19.3463 197.031 18.687ZM138.182 223.72C137.657 222.482 137.19 221.206 136.599 220.012C129.623 205.909 114.629 199.891 101.774 206.014C88.672 212.255 81.5657 228.473 85.1308 243.996C89.2344 261.864 105.043 272.247 120.208 267.033C135.871 261.648 143.89 242.825 138.182 223.72Z" fill="#D2DCFD"/>
<path d="M274.857 215.823C282.984 205.114 292.921 201.228 304.49 204.987C315.07 208.424 321.888 216.91 324.098 229.316C326.405 242.266 322.848 253.339 313.761 261.607C302.769 271.607 287.022 270.346 276.969 258.909C266.914 247.468 265.98 229.911 274.857 215.823ZM303.89 224.878C297.96 220.826 292.513 221.292 288.246 226.218C284.295 230.78 283.508 237.724 286.468 243.121C289.107 247.933 292.951 250.356 297.916 249.785C302.873 249.214 306.39 246 308.023 240.677C309.837 234.761 308.484 229.505 303.89 224.878Z" fill="#082C77"/>
<path d="M218.355 264.078C202.314 273.224 184.865 266.109 178.513 248.128C172.41 230.851 180.274 211.294 195.726 205.318C209.113 200.141 223.834 207.45 229.888 222.279C236.05 237.371 231.385 254.559 218.355 264.078ZM216.205 232.6C215.728 231.339 215.356 230.006 214.754 228.83C212.254 223.951 207.346 221.246 202.503 222.302C197.478 223.397 194.21 226.993 192.807 232.635C191.521 237.807 193.352 243.666 197.188 246.964C201.164 250.382 205.507 251.003 209.917 248.31C215.091 245.152 217.093 239.983 216.205 232.6Z" fill="#072C76"/>
<path d="M138.274 224.064C143.889 242.826 135.87 261.648 120.208 267.033C105.043 272.247 89.2343 261.864 85.1307 243.996C81.5656 228.473 88.6719 212.255 101.774 206.015C114.629 199.891 129.623 205.909 136.599 220.012C137.19 221.206 137.657 222.482 138.274 224.064ZM124.044 238.508C125.238 227.628 116.854 219.291 108.34 222.891C102.923 225.182 99.6366 231.278 100.372 237.674C101.1 244.013 105.505 249.139 110.787 249.796C116.931 250.559 121.738 246.685 124.044 238.508Z" fill="#072C77"/>
<path d="M304.127 225.086C308.484 229.504 309.838 234.761 308.023 240.677C306.391 245.999 302.873 249.214 297.916 249.784C292.951 250.356 289.107 247.933 286.468 243.12C283.509 237.724 284.295 230.78 288.247 226.218C292.513 221.292 297.96 220.825 304.127 225.086Z" fill="#B998F2"/>
<path d="M216.282 232.97C217.093 239.983 215.091 245.152 209.918 248.311C205.507 251.003 201.164 250.382 197.188 246.964C193.352 243.666 191.521 237.808 192.807 232.635C194.21 226.993 197.478 223.398 202.504 222.302C207.346 221.246 212.254 223.951 214.754 228.83C215.357 230.006 215.728 231.339 216.282 232.97Z" fill="#B998F2"/>
<path d="M123.981 238.86C121.738 246.685 116.931 250.559 110.787 249.796C105.505 249.139 101.1 244.013 100.372 237.674C99.6366 231.278 102.922 225.182 108.34 222.891C116.854 219.291 125.238 227.628 123.981 238.86Z" fill="#6663F5"/>
</svg>
