<svg width="428" height="428" viewBox="0 0 428 428" fill="none" xmlns="http://www.w3.org/2000/svg">
<path d="M37.1137 20.3296C55.1941 6.42389 75.5438 -0.646479 97.7506 0.179159C134.489 1.54505 162.795 18.0073 181.033 50.5894C189.277 65.3175 192.853 81.1077 192.738 97.9105C192.599 118.406 192.249 138.915 192.839 159.394C193.381 178.19 178.042 193.579 159.379 193.09C138.73 192.548 118.056 192.84 97.3945 193C74.7803 193.174 54.472 186.536 36.8104 172.481C15.6475 155.639 3.52512 133.743 0.611145 106.666C-2.1406 81.0967 4.42167 58.2026 19.8629 37.953C24.741 31.5558 31.1212 26.304 37.1137 20.3296ZM64.2156 54.958C61.1893 57.9823 57.8877 60.7801 55.1813 64.0678C37.3038 85.785 40.1793 118.69 63.1673 137.621C74.226 146.728 87.4027 149.559 101.234 149.903C113.214 150.202 125.207 149.966 137.195 149.966C149.705 149.966 149.85 149.964 149.669 137.302C149.435 121.019 150.462 104.531 148.255 88.5018C142.831 49.0938 96.9541 30.823 64.2156 54.958Z" fill="#5F33E1"/>
<path d="M183.384 372.621C169.806 400.594 148.044 418.263 118.284 425.115C86.8608 432.35 58.3722 425.434 33.5845 404.385C14.0146 387.768 3.09807 366.658 0.644732 341.158C-2.68107 306.589 9.36606 278.304 35.9237 256.195C53.3377 241.698 73.6293 234.963 96.2222 234.965C117.548 234.968 138.875 234.954 160.201 234.969C178.985 234.983 192.687 248.635 192.701 267.358C192.718 289.35 192.8 311.344 192.67 333.336C192.59 346.975 189.787 360.052 183.384 372.621ZM49.505 307.337C37.7825 331.137 43.9255 357.475 64.9874 373.716C84.7375 388.947 114.855 386.866 132.776 369.515C144.561 358.106 149.092 343.922 149.592 328.24C150.078 312.938 149.642 297.608 149.744 282.291C149.766 279.046 148.547 277.862 145.338 277.935C127.891 278.332 110.43 278.319 92.9966 279.01C73.3716 279.788 59.3986 289.924 49.505 307.337Z" fill="#5F33E1"/>
<path d="M247.027 49.3074C258.202 29.1271 274.609 15.418 295.464 6.93782C307.286 2.13094 319.709 -0.418138 332.455 0.0561854C355.366 0.908751 375.918 8.07969 393.641 23.2405C412.066 39.0012 422.86 58.8518 426.463 82.4949C430.572 109.459 423.989 134.138 407.342 155.636C391.301 176.35 370.068 188.806 343.802 192.002C339.201 192.562 334.544 192.902 329.911 192.924C309.085 193.02 288.259 192.974 267.433 192.963C248.28 192.953 234.72 179.428 234.708 160.319C234.695 139.993 234.897 119.664 234.647 99.3407C234.43 81.6582 238.043 65.0399 247.027 49.3074ZM285.581 70.3414C279.072 79.4747 278.238 90.2026 277.844 100.763C277.297 115.395 277.839 130.064 277.624 144.713C277.561 148.969 279.124 150.088 283.144 150.038C297.794 149.853 312.458 150.297 327.096 149.844C336.523 149.553 346.02 148.545 354.619 143.96C390.116 125.036 394.034 78.1518 362.151 53.9716C337.987 35.6457 300.7 43.3175 285.581 70.3414Z" fill="white"/>
<path d="M342.676 426.966C321.749 429.997 302.645 425.494 284.686 415.894C268.777 407.39 256.404 395.144 247.406 379.361C238.184 363.183 234.331 345.938 234.616 327.396C234.982 303.577 234.835 279.747 234.643 255.924C234.562 245.802 242.591 236.575 252.472 235.041C263.768 233.289 275.045 240.461 277.502 250.573C277.848 251.996 277.697 253.55 277.698 255.044C277.708 277.036 277.568 299.029 277.765 321.02C277.859 331.457 278.242 341.881 282.6 351.763C290.122 368.826 302.932 379.167 321.086 382.962C338.741 386.652 354.476 381.714 367.102 369.689C381.185 356.276 386.975 339.087 382.479 319.692C378.168 301.091 366.516 287.88 348.585 281.757C339.824 278.765 329.843 277.755 320.547 278.262C303.313 279.201 293.033 258.856 301.631 245.359C305.662 239.033 311.185 235.182 318.88 234.97C334.515 234.538 349.916 235.218 364.886 240.84C382.746 247.546 397.201 258.573 408.56 273.626C418.067 286.225 424.409 300.54 426.515 316.156C430.377 344.79 423.762 370.688 404.998 393.32C391.015 410.186 373.199 420.292 352.33 425.622C349.345 426.385 346.203 426.533 342.676 426.966Z" fill="#5F33E1"/>
<path d="M64.4729 54.7092C96.9542 30.8229 142.831 49.0937 148.256 88.5016C150.462 104.531 149.435 121.019 149.669 137.301C149.85 149.964 149.705 149.966 137.195 149.966C125.208 149.966 113.214 150.202 101.234 149.903C87.4027 149.558 74.2261 146.728 63.1673 137.621C40.1794 118.69 37.3039 85.7848 55.1814 64.0677C57.8878 60.78 61.1894 57.9822 64.4729 54.7092Z" fill="white"/>
<path d="M49.6669 307.002C59.3987 289.924 73.3717 279.788 92.9967 279.01C110.43 278.319 127.891 278.332 145.338 277.935C148.547 277.862 149.766 279.046 149.744 282.291C149.642 297.608 150.079 312.938 149.592 328.24C149.093 343.922 144.561 358.106 132.776 369.515C114.855 386.866 84.7376 388.947 64.9875 373.716C43.9256 357.475 37.7826 331.137 49.6669 307.002Z" fill="white"/>
<path d="M285.726 70.0039C300.7 43.3176 337.987 35.6457 362.151 53.9717C394.034 78.1519 390.116 125.036 354.619 143.96C346.02 148.545 336.523 149.553 327.096 149.844C312.458 150.297 297.794 149.853 283.144 150.038C279.124 150.089 277.561 148.969 277.624 144.713C277.839 130.064 277.297 115.395 277.844 100.763C278.238 90.2027 279.072 79.4747 285.726 70.0039Z" fill="#5F33E1"/>
</svg>
