<svg width="391" height="379" viewBox="0 0 391 379" fill="none" xmlns="http://www.w3.org/2000/svg">
<path d="M192.445 1.90476e-08C193.506 -2.94189e-06 194.567 -2.97819e-06 195.714 0.283476C197.084 0.871253 198.353 1.34882 199.654 1.4523C209.635 2.24644 219.771 2.1652 229.576 3.87923C249.905 7.43322 269.418 13.6183 287.772 23.1238C301.798 30.3877 314.933 38.8575 326.684 49.1679C342.509 63.0516 356.226 78.74 366.514 96.9628C378.536 118.257 386.617 140.869 389.531 165.095C389.595 165.629 390.492 166.069 391 166.553C391 182.36 391 198.167 390.721 214.098C390.124 214.717 389.571 215.191 389.52 215.711C388.218 228.969 384.608 241.717 380.158 254.232C375.957 266.049 370.215 277.203 363.299 287.754C353.522 302.669 342.537 316.654 328.508 328.107C321.397 333.912 314.172 339.617 306.659 344.916C295.003 353.139 282.172 359.381 268.807 364.566C256.015 369.53 242.797 373.204 229.197 375.186C220.075 376.515 210.785 376.748 201.58 377.576C200.788 377.648 200.071 378.507 199.318 379C198.746 379 198.173 379 197.545 378.717C196.461 378.129 195.445 377.612 194.402 377.555C188.489 377.236 182.517 377.429 176.667 376.691C166.622 375.423 156.501 374.196 146.685 371.869C130.596 368.055 115.305 362.075 100.738 354.252C85.2379 345.928 71.0499 335.907 58.4136 323.996C50.9034 316.916 44.1087 309.03 37.6745 300.994C28.1526 289.101 20.4223 276.037 14.6188 262.079C8.2282 246.709 2.8718 230.981 1.4557 214.273C1.42198 213.875 0.505004 213.548 0 213.188C0 197.874 0 182.56 0.278575 167.123C0.870277 166.626 1.38694 166.29 1.4662 165.875C2.79161 158.939 3.72233 151.914 5.4094 145.064C10.3434 125.029 18.5754 106.304 30.049 88.9429C39.2921 74.9566 49.8453 62.02 62.9298 51.199C69.1616 46.0453 75.5262 41.0202 82.0785 36.2572C95.7201 26.341 110.767 18.8644 126.683 13.0267C139.588 8.29346 152.912 4.9411 166.548 3.06623C174.348 1.99367 182.305 2.01124 190.182 1.42155C190.97 1.36261 191.693 0.493246 192.445 1.90476e-08ZM319.828 57.3637C319.682 57.1745 319.495 57.0371 319.022 56.5149C317.576 55.3203 316.145 54.1078 314.682 52.9338C294.535 36.773 271.882 25.1867 246.65 18.5667C226.725 13.3388 206.441 10.5818 185.748 12.5958C176.321 13.5132 166.861 14.4937 157.567 16.2107C138.72 19.6925 121.003 26.373 104.397 35.6784C86.2379 45.8547 70.065 58.4194 56.0948 74.1955C55.7385 74.6383 55.3822 75.0811 54.761 75.9476C47.6172 86.0921 39.6886 95.8084 33.4976 106.473C21.6017 126.964 14.9712 149.218 12.8805 172.711C11.2901 190.584 11.8167 208.339 15.7504 225.906C20.178 245.679 27.5523 264.381 38.7947 281.46C43.6848 288.889 49.5435 295.719 55.0076 303.246C55.2625 303.568 55.5175 303.89 55.9982 304.637C56.8965 305.302 57.7949 305.967 58.7765 307.12C62.3377 310.774 65.6842 314.654 69.4933 318.047C108.49 352.779 154.412 369.06 207.39 366.511C223.337 365.744 238.903 363.028 254.049 358.216C288.764 347.185 317.865 328.163 341.216 300.235C350.757 288.354 359.112 275.793 365.518 262.009C375.761 239.969 381.014 216.852 381.74 192.776C382.175 178.355 380.632 163.994 376.877 150.072C373.976 139.318 369.585 128.942 365.806 117.975C365.58 117.63 365.353 117.285 365.039 116.395C364.251 114.591 363.565 112.738 362.66 110.992C354.777 95.7928 344.922 81.8837 333.001 69.4141C328.984 65.2118 324.342 61.5702 319.828 57.3637Z" fill="#FFFEFF"/>
<path d="M58.7644 307C57.8638 306.335 56.9633 305.67 56.06 304.538C56.4936 302.539 57.1388 301.033 57.3305 299.474C58.1971 292.431 59.0197 285.38 59.7004 278.318C60.7693 267.229 61.6875 256.127 62.7154 245.034C63.3928 237.724 64.1389 230.42 64.8769 223.116C65.3497 218.436 65.8637 213.76 66.4777 207.963C65.6834 209.498 65.2322 210.004 65.1657 210.553C64.3123 217.599 63.3907 224.641 62.7356 231.706C62.0566 239.027 61.7222 246.377 61.1064 253.704C60.1632 264.927 59.2775 276.159 58.0264 287.352C57.4315 292.673 56.0496 297.913 55.0242 303.189C49.5922 296.088 43.7192 289.258 38.8171 281.83C27.5472 264.751 20.1548 246.05 15.7163 226.278C11.773 208.712 11.2451 190.958 12.8394 173.086C14.9352 149.595 21.5819 127.341 33.507 106.851C39.7132 96.1873 47.6613 86.4715 55.2732 76.1112C62.5216 76.3856 69.3525 77.5046 76.1067 77.1712C81.64 76.8981 87.0821 74.8955 92.5613 73.6614C92.5581 73.6633 92.5517 73.6671 92.8121 73.6663C93.6689 73.4166 94.2653 73.1678 94.8582 72.921C94.8548 72.9231 94.8482 72.9275 95.1165 72.9252C96.2308 72.4281 97.0769 71.9333 97.92 71.4406C97.9169 71.4427 97.9102 71.4466 98.1998 71.4486C99.8317 70.9532 101.174 70.4559 102.513 69.9604C102.51 69.9623 102.504 69.9662 102.734 69.9509C103.325 69.6965 103.686 69.4573 104.044 69.2202C104.041 69.2222 104.036 69.2274 104.209 69.149C104.601 68.924 104.744 68.726 104.809 68.4793C104.807 68.4818 104.801 68.4855 105.061 68.4865C105.917 68.2379 106.513 67.9885 107.106 67.7403C107.103 67.7417 107.099 67.7446 107.329 67.7314C107.919 67.4784 108.279 67.2384 108.637 67C108.634 67.0015 108.63 67.0045 108.916 67.0088C109.583 67.0296 109.965 67.0461 110.277 67.3173C103.23 77.7221 100.958 89.1026 100.555 101.049C98.6081 101.468 96.9541 101.886 95.3001 102.305C95.4007 102.629 95.5014 102.953 95.602 103.277C97.3498 102.779 99.0975 102.28 100.904 102.117C101.725 120.124 103.738 137.492 113.706 152.955C111.88 152.82 110.387 152.522 108.877 152.357C102.265 151.634 96.1963 152.507 91.5462 158.087C91.1474 158.595 90.9605 159.003 90.5716 159.585C89.5161 163.035 88.1551 166.278 87.9109 169.597C87.3428 177.321 91.5906 183.368 95.8905 189.157C90.6067 188.309 85.6381 187.477 80.903 189.705C84.7733 189.705 88.5599 189.619 92.339 189.744C94.0805 189.801 95.8076 190.27 97.7653 190.634C101.305 192.962 104.336 195.934 108.005 197.281C113.297 199.224 119.052 199.988 124.676 201.523C129.306 217.997 137.26 231.931 153.373 239.896C158.626 242.493 164.454 244.003 170 246.366C169.97 250.464 169.959 254.208 169.887 258.277C169.595 262.534 169.363 266.466 168.881 270.587C168.335 275.376 168.041 279.977 167.527 284.673C167.121 285.014 166.934 285.261 166.432 285.494C161.825 285.925 157.522 286.292 153.242 286.828C138.637 288.655 123.985 290.211 109.455 292.491C91.9601 295.236 74.9438 299.822 58.7644 307ZM78.314 191.373C77.957 191.613 77.6 191.852 77.0238 192.174C77.0995 192.149 77.1751 192.124 77.7091 192.075C78.0684 191.837 78.4277 191.599 79.0062 191.278C78.9279 191.3 78.8495 191.323 78.314 191.373ZM70.0295 200.777C70.3037 200.275 70.578 199.772 70.8523 199.269C70.6135 199.174 70.3747 199.078 70.1359 198.983C69.9519 199.645 69.7678 200.308 69.364 201.052C69.4419 201.03 69.5198 201.007 70.0295 200.777ZM75.5147 111.416C76.719 110.937 77.9233 110.458 79.1276 109.979C78.9152 109.619 78.7028 109.26 78.4904 108.9C77.307 109.734 76.1236 110.569 74.5687 111.423C74.3568 111.514 74.1449 111.605 73.933 111.697C74.0018 111.789 74.1247 111.965 74.1316 111.961C74.4134 111.792 74.6847 111.606 75.5147 111.416ZM62.1421 117.331C60.7953 118.07 59.4484 118.81 57.8831 119.634C57.9602 119.61 58.0373 119.586 58.6679 119.56C60.0151 118.82 61.3624 118.08 62.928 117.257C62.8505 117.28 62.773 117.304 62.1421 117.331ZM83.7044 106.834C83.2521 107.226 82.7998 107.617 82.3475 108.009C82.4938 108.209 82.6401 108.408 82.7864 108.607C83.8836 108.073 84.9808 107.538 86.078 107.003C85.9905 106.774 85.903 106.545 85.8154 106.317C85.2598 106.415 84.7042 106.513 83.7044 106.834ZM68.1371 204.814C68.327 204.225 68.5169 203.635 68.7068 203.045C68.4286 202.984 68.1503 202.922 67.8721 202.861C67.8171 203.548 67.7622 204.235 68.1371 204.814ZM87.7033 105.803C88.3979 105.771 89.0925 105.739 89.7871 105.706C89.7449 105.433 89.7026 105.161 89.6603 104.888C89.0526 105.056 88.445 105.225 87.7033 105.803ZM92.8106 103.333C92.3569 103.615 91.9031 103.897 91.4494 104.179C91.6715 104.408 91.8937 104.637 92.1158 104.866C92.4952 104.372 92.8746 103.878 92.8106 103.333ZM56.0464 120.607C55.8261 120.811 55.6058 121.014 55.3855 121.217C55.4724 121.305 55.6299 121.473 55.6362 121.468C55.8688 121.278 56.0875 121.072 56.0464 120.607ZM67.1017 207.041C67.0106 206.919 66.9196 206.797 66.8286 206.676C66.8472 206.846 66.8659 207.016 67.1017 207.041Z" fill="#FFB9C2"/>
<path d="M67 300.128C85.4902 291.965 104.987 286.921 125.032 283.902C141.68 281.394 158.469 279.683 175.202 277.673C180.107 277.084 185.036 276.68 190.519 276.408C221.53 290.215 252.034 290.853 282.62 277.005C283.768 276.485 285.081 276.279 286.68 276C302.305 277.645 317.565 279.217 333.057 280.836C333.444 280.872 333.6 280.861 334.109 280.911C342.727 282.323 351.081 283.325 359.235 285.113C369.906 287.453 380.419 290.415 391 293.11C364.632 323.54 331.208 344.461 291.335 356.592C273.938 361.885 256.059 364.872 237.743 365.715C176.893 368.518 124.148 350.613 79.3569 312.414C74.9819 308.683 71.1382 304.415 67 300.128Z" fill="#7FA8C5"/>
<path d="M340.232 300C330.828 297.679 321.681 294.986 312.396 292.857C305.301 291.231 298.032 290.321 290.643 288.806C290.876 287.223 291.306 285.926 291.846 284.587C291.878 284.569 291.8 284.592 291.49 284.731C290.643 286.206 290.03 287.566 289.417 288.926C276.139 287.496 262.86 286.066 249.273 284.33C248.694 283.488 248.424 282.952 248.154 282.074C247.705 277.669 247.255 273.606 246.802 269.213C246.548 263.989 246.296 259.094 246.117 253.862C246.073 249.54 245.956 245.554 246.017 241.379C259.369 235.726 268.338 226.129 274.206 213.74C276.682 208.512 278.361 202.929 280.712 197.469C285.549 196.251 290.068 195.044 294.604 193.898C306.216 190.965 313.237 183.162 317.408 172.851C320.42 165.404 320.397 157.898 314.585 151.102C314.091 150.563 313.63 150.233 313.04 149.676C310.2 148.307 307.52 146.31 304.773 146.219C300.262 146.068 295.708 147.154 291.191 147.416C291.954 140.136 292.699 133.16 293.593 126.176C293.742 126.169 294.04 126.15 294.278 126.06C295.623 125.299 296.731 124.629 297.836 123.961C297.835 123.962 297.831 123.964 298.151 123.967C308.975 121.502 319.619 120.697 330.422 120.928C337.239 121.073 344.089 120.736 350.89 120.203C355.642 119.83 360.336 118.759 365.055 118C368.781 128.546 373.17 138.924 376.068 149.679C379.821 163.603 381.363 177.968 380.929 192.391C380.203 216.472 374.953 239.593 364.716 261.637C358.314 275.424 349.965 287.987 340.232 300ZM347.365 179.271C347.295 179.235 347.225 179.198 347.155 179.162C347.249 179.273 347.343 179.383 347.627 179.803C347.9 179.79 348.173 179.777 348.446 179.764C348.113 179.671 347.78 179.578 347.365 179.271ZM293.64 281.425C293.769 281.013 293.899 280.602 294.499 279.955C295.105 278.551 295.711 277.148 296.633 275.559C296.619 275.293 296.605 275.028 296.591 274.762C296.494 275.085 296.396 275.407 295.828 275.964C295.222 277.368 294.616 278.771 293.635 280.421C293.506 280.833 293.378 281.245 292.932 281.841C292.946 282.106 292.96 282.371 292.974 282.635C293.07 282.313 293.166 281.99 293.64 281.425ZM330.504 178.744C334.064 178.07 337.623 177.396 341.183 176.722C337.33 176.915 333.134 175.269 329.513 178.76C329.301 178.851 329.089 178.942 328.878 179.033C328.946 179.125 329.068 179.302 329.074 179.299C329.353 179.127 329.623 178.94 330.504 178.744ZM317.954 190.087C317.314 191.263 316.359 192.375 316.086 193.627C314.495 200.913 313.035 208.227 311.587 215.542C309.211 227.546 307.028 239.588 304.454 251.552C303.439 256.269 301.592 260.817 300.124 265.443C301.156 264.985 301.617 264.312 301.818 263.573C304.587 253.391 307.756 243.286 309.935 232.984C312.034 223.064 312.922 212.908 314.703 202.916C315.493 198.487 317.173 194.208 318.767 189.677C318.754 189.411 318.741 189.146 318.727 188.88C318.629 189.202 318.53 189.524 317.954 190.087ZM300.059 268.076C299.674 268.007 299.288 267.939 298.903 267.87C298.906 268.317 298.909 268.764 298.912 269.211C299.267 268.976 299.622 268.741 300.059 268.076ZM298.534 271.776C298.148 271.708 297.763 271.639 297.377 271.571C297.38 272.018 297.382 272.464 297.385 272.911C297.741 272.676 298.096 272.442 298.534 271.776ZM343.924 177.656C343.754 177.615 343.585 177.573 343.416 177.532C343.524 177.634 343.633 177.736 343.924 177.656Z" fill="#FFB9C2"/>
<path d="M294.065 127C294.065 127 293.767 127.019 293.575 126.716C294.117 120.404 295.476 114.396 295.481 108.387C295.508 75.8862 280.444 51.1026 252.028 35.0953C227.798 21.4459 200.796 18.691 173.375 23.3528C152.393 26.9201 135.099 36.8579 123.538 54.9483C123.089 55.651 122.425 56.2543 121.765 56.7932C117.926 59.9304 114.058 63.0345 110.071 65.9703C109.258 66.1519 108.573 66.513 107.888 66.8741C107.888 66.8741 107.892 66.8711 107.665 66.8814C107.079 67.1334 106.72 67.3751 106.362 67.6167C106.362 67.6167 106.366 67.6138 106.109 67.6113C105.259 67.8593 104.665 68.1097 104.072 68.3602C104.072 68.3602 104.078 68.3564 103.908 68.4326C103.52 68.6561 103.377 68.8547 103.309 69.1046C103.309 69.1046 103.315 69.0995 103.087 69.1104C102.501 69.3629 102.142 69.6044 101.783 69.846C101.783 69.846 101.789 69.842 101.503 69.8385C99.8801 70.3339 98.5424 70.8327 97.2047 71.3315C97.2047 71.3315 97.2113 71.3275 96.9471 71.3276C95.8397 71.8243 94.9965 72.3209 94.1533 72.8174C94.1533 72.8174 94.1598 72.813 93.9028 72.8101C93.0521 73.058 92.4584 73.3088 91.8646 73.5596C91.8646 73.5596 91.8709 73.5557 91.5516 73.5515C86.1587 74.3985 81.0912 75.2859 76.0102 76.0923C69.1879 77.175 62.5251 76.4161 56 74.2894C69.5538 58.6417 85.7107 46.0345 103.852 35.8239C120.441 26.4871 138.14 19.784 156.969 16.2904C166.254 14.5676 175.705 13.5838 185.122 12.6633C205.795 10.6425 226.058 13.4088 245.964 18.6544C271.171 25.2968 293.801 36.9222 313.928 53.1376C315.39 54.3156 316.819 55.5321 318.262 57.2018C317.499 59.9484 316.738 62.2241 315.976 64.4997C316.326 64.5961 316.676 64.6924 317.027 64.7888C317.76 62.4899 318.493 60.191 319.227 57.8921C323.579 61.8031 328.216 65.457 332.229 69.6736C344.138 82.1852 353.983 96.1413 361.858 111.392C362.763 113.144 363.448 115.003 364 117.196C357.327 118.502 350.917 119.869 344.445 120.249C333.876 120.868 323.241 120.497 312.687 121.244C307.68 121.598 302.794 123.568 297.854 124.807C297.854 124.807 297.858 124.804 297.58 124.806C296.223 125.538 295.144 126.269 294.065 127ZM308.841 83.4254C308.297 84.3936 307.752 85.3617 307.208 86.3298C307.563 86.4598 307.917 86.5897 308.272 86.7197C308.618 85.5521 308.964 84.3844 309.686 82.9726C309.816 82.5608 309.946 82.1491 310.55 81.4963C311.491 79.619 312.431 77.7418 313.372 75.8645C312.951 75.7044 312.529 75.5443 312.108 75.3842C311.423 77.4957 310.739 79.6071 309.68 81.9661C309.551 82.3783 309.422 82.7905 308.841 83.4254ZM315.432 66.9653C314.625 69.1675 313.818 71.3698 313.01 73.572C313.447 73.6912 313.883 73.8103 314.32 73.9295C314.84 71.5443 315.36 69.159 315.432 66.9653Z" fill="#FEB9C2"/>
<path d="M55 303.071C55.9648 297.546 57.2947 292.271 57.8671 286.914C59.0711 275.648 59.9234 264.341 60.831 253.044C61.4236 245.668 61.7455 238.269 62.3989 230.9C63.0293 223.788 63.9161 216.7 64.7374 209.607C64.8014 209.054 65.2356 208.545 66 207C65.4091 212.835 64.9144 217.542 64.4595 222.253C63.7493 229.606 63.0313 236.958 62.3795 244.316C61.3903 255.483 60.5067 266.659 59.4781 277.821C58.823 284.93 58.0314 292.027 57.1975 299.117C57.013 300.686 56.3921 302.203 55.8659 304C55.5138 303.933 55.2678 303.609 55 303.071Z" fill="#FBD3CE"/>
<path d="M299 124C303.561 122.816 308.385 120.937 313.328 120.599C323.748 119.887 334.247 120.241 344.681 119.651C351.07 119.289 357.398 117.985 364.029 117C364.528 117.226 364.751 117.556 365 118.089C360.368 119.018 355.736 120.042 351.046 120.399C344.335 120.909 337.574 121.231 330.847 121.092C320.186 120.872 309.682 121.642 299 124Z" fill="#FCD1CD"/>
<path d="M55.9599 73.9262C62.7397 76.1962 69.4555 77.0424 76.3319 75.8351C81.4533 74.936 86.561 73.9466 92 73C86.8181 74.3855 81.3517 76.6262 75.7935 76.9317C69.0091 77.3047 62.1476 76.0527 55 75.5086C55.0395 75.0183 55.3983 74.5229 55.9599 73.9262Z" fill="#FBD4CF"/>
<path d="M319 57.3639C318.587 59.673 318.125 61.8365 317.662 64C317.441 63.9093 317.221 63.8186 317 63.7279C317.48 61.5864 317.96 59.4448 318.519 57.066C318.741 56.9098 318.858 57.0395 319 57.3639Z" fill="#FBD2CE"/>
<path d="M110.101 65.7931C113.972 62.685 117.852 59.5881 121.705 56.4582C122.366 55.9205 123.033 55.3187 123.484 54.6176C135.083 36.5691 152.434 26.6543 173.487 23.0953C200.999 18.4443 228.092 21.1927 252.403 34.8105C280.913 50.7808 296.027 75.507 296 107.933C295.995 113.928 294.632 119.922 293.938 126.226C293.234 133.518 292.487 140.5 291.561 147.982C287.466 150.736 285.875 153.85 285.856 158.46C285.83 164.95 284.765 171.436 284.034 178.048C283.903 178.514 283.884 178.855 283.886 179.516C282.905 185.864 281.903 191.892 280.902 197.921C278.854 203.348 277.17 208.935 274.686 214.167C268.801 226.567 259.806 236.173 246.12 241.858C231.317 246.983 216.411 248.27 201.399 247.956C190.642 247.73 179.907 246.501 169.162 245.72C163.598 243.71 157.772 242.198 152.519 239.599C136.408 231.625 128.454 217.675 123.862 200.845C123.374 192.048 122.685 183.861 122.521 175.665C122.348 167.059 120.914 159.082 113.714 152.946C113.549 152.597 113.367 152.477 113.137 152.446C113.136 152.468 113.181 152.459 113.181 152.459C102.889 137.081 100.877 119.694 100.104 101.484C100.062 100.842 100.031 100.719 100 100.597C100.11 88.6383 102.381 77.2452 109.593 66.758C110.002 66.2522 110.093 66.0392 110.101 65.7931ZM203.724 183.903C203.953 183.757 204.182 183.612 205.079 183.517C214.954 185.054 220.329 178.811 219.275 170.879C217.754 159.416 215.598 148.033 213.727 136.613C213.535 135.441 213.443 134.254 213.304 133.074C214.324 133.623 214.688 134.266 214.824 134.952C216.383 142.808 218.504 150.616 219.277 158.545C220.104 167.039 223.793 176.184 216.054 183.16C223.068 186.02 229.913 188.892 236.822 191.612C249.376 196.555 263.399 192.796 271.851 182.573C279.611 173.188 281.349 162.251 280.563 150.825C279.634 137.311 278.035 123.841 276.92 110.337C276.536 105.692 275.338 101.941 270.872 99.268C262.542 94.2821 254.659 88.5849 246.246 83.7449C240.752 80.5849 234.652 78.4141 228.824 75.8002C228.647 76.0738 228.47 76.3474 228.293 76.621C233.279 82.585 238.264 88.549 243.618 94.9541C206.992 98.8186 175.398 86.6628 145.133 70.2842C145.386 76.4814 146.176 82.3908 145.746 88.2161C144.932 99.264 143.645 110.293 142.139 121.276C140.339 134.409 136.612 146.854 126.737 156.798C125.927 157.614 125.556 159.556 125.947 160.653C128.145 166.819 130.296 173.039 133.097 178.96C142.098 197.993 158.364 204.079 178.382 195.993C186.716 192.627 194.883 188.873 203.107 185.255C203.35 185.148 203.38 184.59 203.724 183.903ZM181.237 212.085C187.063 220.698 193.006 223.016 202.779 221.429C207.949 220.589 213.35 220.236 218.561 220.658C230.863 221.654 235.939 217.115 238.249 209.124C239.33 205.383 238.903 201.233 239.132 197.693C233.811 196.522 229.283 195.843 224.969 194.511C215.958 191.73 207.301 192.361 198.512 195.548C193.44 197.388 188.045 198.423 182.753 199.652C180.859 200.092 178.843 200.038 176.176 200.271C177.909 204.406 179.422 208.015 181.237 212.085Z" fill="#341610"/>
<path d="M170.052 246.033C180.637 246.46 191.195 247.691 201.775 247.917C216.539 248.232 231.2 246.943 245.583 242C245.988 245.967 246.103 249.962 245.906 254.4C237.229 262.337 227.68 267.642 216.206 267.92C200.013 268.312 183.899 267.616 170 257.649C170.011 253.896 170.023 250.143 170.052 246.033Z" fill="#8E391F"/>
<path d="M114.889 153.34C122.102 159.213 123.544 167.054 123.718 175.513C123.883 183.57 124.576 191.617 125 200C119.373 199.085 113.585 198.333 108.262 196.421C104.572 195.096 101.524 192.172 97.8303 189.68C97.1127 189.077 96.7532 188.756 96.3936 188.435C91.7525 182.73 87.4801 176.781 88.0515 169.18C88.2971 165.914 89.666 162.723 91.0212 159.386C102.754 163.433 111.428 170.846 119.607 178.914C112.661 169.197 103.349 162.246 91.9209 157.755C96.3849 152.363 102.488 151.504 109.14 152.215C110.658 152.378 112.16 152.671 113.996 152.804C114.323 152.703 114.278 152.712 114.295 152.852C114.473 153.156 114.665 153.272 114.889 153.34Z" fill="#D2542C"/>
<path d="M169.749 258.192C183.823 267.7 200.069 268.386 216.396 267.999C227.966 267.725 237.594 262.494 246.269 255C246.763 259.734 247.013 264.572 246.999 269.857C239.216 274.204 231.19 276.352 222.676 276.936C217.948 277.261 215.283 279.344 214.346 283.926C213.746 286.856 213.906 289.93 213.377 293C208.765 293.004 204.501 292.949 200.029 292.696C199.429 291.426 198.764 290.372 198.69 289.28C198.037 279.62 196.955 278.609 187.144 276.06C180.995 274.462 175.041 272.162 169 270.177C169.23 266.289 169.46 262.401 169.749 258.192Z" fill="#D2552D"/>
<path d="M169.087 270C175.167 271.85 180.922 274.216 186.867 275.859C196.35 278.481 197.396 279.521 198.027 289.456C198.099 290.578 198.742 291.662 199 293C188.04 292.202 177.712 289.322 168 284.225C168.282 279.547 168.564 274.869 169.087 270Z" fill="#80A8C4"/>
<path d="M191.687 274.739C203.493 280.369 215.781 283.612 229.061 284.739C234.349 284.766 239.253 284.83 244.934 284.856C259.738 283.717 272.926 279.979 285.081 273C285.39 273.613 285.699 274.227 286 275.115C284.761 275.756 283.454 275.97 282.312 276.511C251.868 290.923 221.508 290.258 191 275.905C191.01 275.413 191.223 275.13 191.687 274.739Z" fill="#EAD4CD"/>
<path d="M91.5051 157C102.978 161.588 112.154 168.85 119 179C110.94 170.572 102.391 162.828 91.0285 158.423C90.9245 157.942 91.1098 157.523 91.5051 157Z" fill="#4C1F14"/>
<path d="M95.5278 188.426C96.1791 188.587 96.5256 188.744 97 189C95.4474 188.962 93.7733 188.736 92.0852 188.709C88.422 188.649 84.7516 188.69 81 188.69C85.5898 187.615 90.4061 188.016 95.5278 188.426Z" fill="#FBD5CF"/>
<path d="M99.6949 101C99.9843 101.109 100.012 101.219 99.9968 101.493C98.3926 102.105 96.8312 102.553 95.2697 103C95.1798 102.709 95.0899 102.418 95 102.128C96.4777 101.752 97.9554 101.376 99.6949 101Z" fill="#FBD3CE"/>
<path d="M58 118.993C59.4614 118.328 60.9228 117.663 62.6878 117C62.9915 117.002 63 117.007 63 117.007C61.5381 117.672 60.0763 118.337 58.3111 119C58.0077 118.998 58 118.993 58 118.993Z" fill="#FBD3CE"/>
<path d="M75 110.987C76.1305 109.991 77.2609 108.996 78.3914 108C78.5943 108.429 78.7971 108.858 79 109.287C77.8496 109.859 76.6993 110.43 75.2791 111C75.0094 110.998 75 110.987 75 110.987Z" fill="#FBD3CE"/>
<path d="M83.6931 105.531C84.5269 105.257 85.1227 105.129 85.7184 105C85.8123 105.299 85.9061 105.599 86 105.898C84.8235 106.599 83.6471 107.299 82.4706 108C82.3137 107.739 82.1569 107.478 82 107.217C82.485 106.703 82.9699 106.19 83.6931 105.531Z" fill="#FBD3CE"/>
<path d="M98 71C99.0457 70.6654 100.379 70.3322 102 70C100.954 70.3345 99.621 70.6679 98 71Z" fill="#FBD4CF"/>
<path d="M95 72C95.4553 71.6682 96.122 71.3348 97 71C96.5447 71.3318 95.878 71.6651 95 72Z" fill="#FBD4CF"/>
<path d="M67.1187 205C66.939 204.054 67.0007 203.027 67.0624 202C67.3749 202.092 67.6875 202.184 68 202.276C67.7867 203.157 67.5734 204.038 67.1187 205Z" fill="#FBD3CE"/>
<path d="M93 103C92.8008 103.689 92.3214 104.345 91.842 105C91.5614 104.696 91.2807 104.392 91 104.088C91.5733 103.714 92.1466 103.34 93 103Z" fill="#FBD3CE"/>
<path d="M110.948 66C111.072 66.4593 110.979 66.6894 110.631 66.9604C110.072 67.0191 109.682 67.0012 109 66.9787C109.41 66.5849 110.113 66.1958 110.948 66Z" fill="#FBD4CF"/>
<path d="M69 200C69.1451 199.333 69.2902 198.667 69.4353 198C69.6235 198.096 69.8118 198.192 70 198.288C69.7838 198.794 69.5676 199.299 69.1788 199.906C69.0062 200.006 69 200 69 200Z" fill="#FBD3CE"/>
<path d="M105 68C105.375 67.6653 106.042 67.3319 107 67C106.625 67.3348 105.958 67.668 105 68Z" fill="#FBD4CF"/>
<path d="M93 73C93.3751 72.6671 94.0415 72.333 95 72C94.6252 72.3336 93.9582 72.6663 93 73Z" fill="#FBD4CF"/>
<path d="M102 70C102.12 69.6868 102.453 69.3524 103 69C102.88 69.3142 102.546 69.6465 102 70Z" fill="#FBD4CF"/>
<path d="M75 111.016C74.7365 111.358 74.4707 111.693 74.1946 112C74.1878 112.007 74.0674 111.688 74 111.521C74.2076 111.356 74.4152 111.19 74.8048 111.008C74.9867 110.99 74.9963 111.007 75 111.016Z" fill="#FBD3CE"/>
<path d="M336 276C335.391 277.49 334.782 278.981 334.018 280.735C333.67 281.01 333.477 281.022 333 280.985C333.584 279.374 334.452 277.812 335.655 276.122C335.989 275.993 336 276 336 276Z" fill="#FBD3CE"/>
<path d="M281 198C281.677 192.035 282.658 186.032 283.837 179.75C284.827 178.587 285.827 177.814 286.38 176.803C292.704 165.264 300.806 155.698 314.308 152C319.984 158.563 320.006 166.044 317.048 173.465C312.95 183.742 306.053 191.518 294.647 194.441C290.191 195.583 285.751 196.786 281 198Z" fill="#D2542C"/>
<path d="M248 282.381C237.642 288.807 226.406 292.067 214.132 293C213.989 289.935 213.833 286.831 214.42 283.873C215.339 279.248 217.951 277.145 222.584 276.817C230.928 276.227 238.794 274.059 246.423 270C247.123 273.932 247.562 277.986 248 282.381Z" fill="#80A8C4"/>
<path d="M284 178C284.615 171.585 285.669 165.171 285.695 158.753C285.713 154.195 287.288 151.116 291.322 148.692C295.985 147.94 300.506 146.865 304.984 147.014C307.712 147.105 310.373 149.081 313 150.624C304.354 153.617 297.437 158.525 292.199 165.496C289.205 169.48 286.716 173.82 284 178Z" fill="#D1542C"/>
<path d="M318 190C316.816 194.314 315.257 198.56 314.525 202.954C312.872 212.869 312.049 222.947 310.102 232.791C308.08 243.014 305.14 253.041 302.572 263.145C302.386 263.878 301.958 264.545 301 265C302.362 260.41 304.076 255.897 305.017 251.216C307.405 239.345 309.43 227.395 311.634 215.483C312.977 208.225 314.332 200.967 315.807 193.737C316.061 192.495 316.946 191.392 317.766 190.109C317.992 189.994 318 190 318 190Z" fill="#FBD3CE"/>
<path d="M284.098 177.803C286.93 173.417 289.424 168.993 292.424 164.931C297.674 157.825 304.606 152.821 313.399 150C314.05 150.14 314.508 150.472 315 151.017C301.359 154.973 293.153 164.657 286.748 176.339C286.188 177.362 285.175 178.145 284.151 179C283.949 178.617 283.969 178.273 284.098 177.803Z" fill="#4E2015"/>
<path d="M331 178.997C334.165 175.907 338.249 177.371 342 177.199C338.535 177.798 335.069 178.398 331.305 178.999C331.006 179.002 331 178.997 331 178.997Z" fill="#FBD5CF"/>
<path d="M297 276C296.212 277.584 295.424 279.168 294.324 280.879C294.012 281.007 294 281 294 281C294.788 279.416 295.576 277.832 296.676 276.121C296.988 275.993 297 276 297 276Z" fill="#FBD3CE"/>
<path d="M295 126C295.77 125.392 296.757 124.697 298 124C297.243 124.636 296.23 125.275 295 126Z" fill="#FCD1CD"/>
<path d="M301 268.627C300.645 269.299 300.327 269.649 300.008 270C300.005 269.333 300.003 268.667 300 268C300.346 268.102 300.691 268.204 301 268.627Z" fill="#FBD3CE"/>
<path d="M299 272.628C298.645 273.299 298.326 273.65 298.007 274C298.005 273.333 298.002 272.667 298 272C298.346 272.102 298.691 272.204 299 272.628Z" fill="#FBD3CE"/>
<path d="M337 273C337.166 272.441 337.332 271.882 337.74 271.155C337.983 270.988 337.994 270.996 338 271.002C337.839 271.567 337.672 272.125 337.256 272.845C337.008 273.005 337 273 337 273Z" fill="#FBD3CE"/>
<path d="M318 189.998C318.315 189.662 318.645 189.331 318.974 189C319.019 189.273 319.064 189.547 318.576 189.914C318.045 190.009 318.014 190.002 318 189.998Z" fill="#FBD3CE"/>
<path d="M347 180C347.333 180.325 347.667 180.65 348 180.974C347.726 181.019 347.453 181.064 347.087 180.564C346.996 180.019 347 180 347 180Z" fill="#FBD5CF"/>
<path d="M331 179.008C330.735 179.349 330.469 179.688 330.193 180C330.188 180.006 330.067 179.685 330 179.517C330.209 179.353 330.418 179.188 330.809 179.008C330.992 178.993 330.998 179.003 331 179.008Z" fill="#FBD5CF"/>
<path d="M316 67C315.776 68.9458 315.383 70.9729 314.99 73C314.66 72.8987 314.33 72.7975 314 72.6962C314.61 70.8246 315.22 68.953 316 67Z" fill="#FBD2CE"/>
<path d="M310 80.9999C310.825 78.9999 311.651 77 312.476 75C312.984 75.1517 313.492 75.3033 314 75.455C312.866 77.2331 311.732 79.0112 310.306 80.8984C310.014 81.0075 310 80.9999 310 80.9999Z" fill="#FBD2CE"/>
<path d="M310 83.0001C309.506 84.3334 309.012 85.6667 308.519 87C308.012 86.8516 307.506 86.7032 307 86.5549C307.777 85.4493 308.554 84.3438 309.659 83.1158C309.988 82.9933 310 83.0001 310 83.0001Z" fill="#FBD2CE"/>
<path d="M203.747 183.901C203.618 184.246 203.587 184.799 203.344 184.905C195.117 188.489 186.947 192.209 178.611 195.543C158.585 203.554 142.313 197.525 133.309 178.668C130.508 172.802 128.356 166.64 126.156 160.531C125.765 159.445 126.137 157.52 126.947 156.712C136.826 146.86 140.553 134.53 142.354 121.519C143.86 110.637 145.149 99.7111 145.963 88.7656C146.392 82.9943 145.603 77.1397 145.35 71C175.625 87.2267 207.231 99.2698 243.87 95.4412C238.514 89.0955 233.526 83.1868 228.539 77.278C228.716 77.007 228.893 76.7359 229.07 76.4648C234.9 79.0545 241.003 81.2052 246.498 84.3359C254.915 89.131 262.8 94.7754 271.133 99.7151C275.601 102.363 276.799 106.08 277.183 110.681C278.298 124.06 279.898 137.405 280.828 150.794C281.614 162.114 279.875 172.95 272.113 182.248C263.657 192.376 249.629 196.1 237.071 191.203C230.16 188.508 223.312 185.663 216.295 182.829C224.038 175.918 220.347 166.858 219.52 158.443C218.747 150.587 216.624 142.851 215.065 135.069C214.929 134.389 214.565 133.751 213.545 133.207C213.683 134.377 213.776 135.553 213.968 136.714C215.839 148.028 217.996 159.306 219.518 170.662C220.572 178.521 215.195 184.706 204.792 182.98C202.948 182.043 201.694 181.152 200.293 180.617C198.478 179.923 196.573 179.377 194.655 179.027C193.253 178.771 191.313 179.46 190.446 178.769C189.526 178.034 189.59 176.167 189.225 174.794C188.312 176.043 187.61 177.933 188.279 178.657C189.374 179.843 191.603 181.165 192.924 180.837C196.047 180.062 198.337 180.82 200.689 182.543C201.56 183.182 202.719 183.459 203.747 183.901ZM236.767 131.613C243.967 133.459 251.242 134.243 258.572 132.515C262.63 131.558 264.024 128.878 262.872 125.006C259.999 115.35 243.442 110.7 235.627 117.363C231.914 120.528 230.03 128.618 236.767 131.613ZM171.265 118.319C168.012 118.205 164.68 117.602 161.523 118.076C154.235 119.171 148.77 124.277 147.486 130.455C146.605 134.694 148.695 137.471 153.095 137.812C160.29 138.371 167.028 136.534 173.461 133.755C177.514 132.004 178.969 128.417 177.045 124.571C175.905 122.292 173.578 120.558 171.265 118.319ZM253.865 150.74C255.718 147.397 255.544 144.212 252.994 141.254C250.737 138.637 247.711 137.87 244.422 138.589C240.951 139.348 238.662 141.482 237.897 144.959C237.128 148.454 238.932 152.076 242.365 153.767C246.315 155.714 249.866 154.898 253.865 150.74ZM176.464 151.594C177.048 147.821 175.646 144.804 172.226 142.991C169.144 141.359 165.849 141.49 162.879 143.486C159.732 145.601 158.564 149.054 159.669 152.487C160.772 155.915 163.788 158.137 167.556 158.297C171.699 158.473 174.421 156.551 176.464 151.594Z" fill="#D2542B"/>
<path d="M180.914 212.012C179.249 208.191 177.734 204.6 176 200.486C178.669 200.254 180.687 200.307 182.582 199.869C187.877 198.647 193.276 197.617 198.352 195.787C207.147 192.615 215.81 191.987 224.827 194.755C229.144 196.079 233.676 196.755 239 197.92C238.771 201.443 239.198 205.572 238.116 209.295C235.805 217.246 230.725 221.763 218.415 220.771C213.2 220.351 207.795 220.703 202.621 221.538C192.842 223.118 186.895 220.811 180.914 212.012ZM202.618 201.299C210.266 204.541 218.996 201.291 218.799 195.275C211.113 202.197 211.113 202.197 199.349 198.539C200.274 199.363 201.199 200.188 202.618 201.299Z" fill="#D1532B"/>
<path d="M203.413 184C202.308 183.724 201.181 183.445 200.333 182.802C198.045 181.067 195.816 180.304 192.778 181.084C191.492 181.414 189.323 180.083 188.258 178.889C187.607 178.16 188.29 176.258 189.179 175C189.534 176.382 189.472 178.262 190.367 179.002C191.21 179.698 193.098 179.004 194.462 179.262C196.328 179.614 198.182 180.164 199.947 180.862C201.311 181.402 202.531 182.299 204 183.216C203.962 183.541 203.739 183.686 203.413 184Z" fill="#4C1F14"/>
<path d="M236.262 131.035C229.796 128.208 231.678 120.216 235.388 117.09C243.197 110.508 259.74 115.102 262.611 124.64C263.762 128.465 262.368 131.113 258.314 132.058C250.991 133.765 243.721 132.99 236.262 131.035Z" fill="#361610"/>
<path d="M171.556 118.55C173.636 120.657 175.993 122.389 177.148 124.667C179.098 128.511 177.624 132.095 173.517 133.845C166.999 136.623 160.173 138.458 152.883 137.9C148.426 137.558 146.308 134.783 147.201 130.547C148.501 124.374 154.039 119.271 161.423 118.177C164.621 117.703 167.997 118.306 171.556 118.55Z" fill="#361610"/>
<path d="M253.647 151.295C249.898 155.114 246.419 155.907 242.549 154.014C239.187 152.368 237.419 148.845 238.172 145.445C238.922 142.063 241.164 139.987 244.564 139.249C247.786 138.55 250.751 139.296 252.961 141.842C255.46 144.718 255.63 147.817 253.647 151.295Z" fill="#361611"/>
<path d="M176.83 151.727C174.793 156.29 171.957 158.161 167.641 157.989C163.715 157.833 160.573 155.671 159.424 152.334C158.273 148.993 159.49 145.633 162.769 143.575C165.862 141.632 169.295 141.504 172.505 143.094C176.069 144.858 177.529 147.794 176.83 151.727Z" fill="#361611"/>
<path d="M202.107 200.679C200.902 199.744 199.951 198.948 199 198.152C211.094 201.684 211.094 201.684 218.997 195C219.2 200.81 210.224 203.948 202.107 200.679Z" fill="#4F2015"/>
</svg>
