<svg width="443" height="512" viewBox="0 0 443 512" fill="none" xmlns="http://www.w3.org/2000/svg">
<path d="M6.57085 512C6.26359 511.754 6.42498 511.509 6.58636 511.263C-1.29963 506.383 0.0948542 498.528 0.0956742 491.1C0.10359 419.464 0.120564 347.828 0.0878465 276.192C0.0783245 255.348 4.1845 235.344 11.6132 215.911C17.9881 199.235 26.8035 183.989 37.6991 169.914C54.2078 148.586 74.3169 131.32 97.3175 117.346C97.722 117.101 98.2224 117.016 98.6717 116.84C106.806 113.653 110.555 107.98 112.409 99.0742C116.426 79.7851 125.444 62.6245 138.153 47.3077C156.742 24.9042 181.059 11.9098 208.082 2.98807C209.699 2.45414 211.155 1.43378 212.394 0.319884C217.79 1.01328e-06 223.478 1e-06 229.634 0C231.317 1.00108 232.377 2.48538 233.77 2.92905C248.995 7.78132 263.536 14.0795 276.857 22.9851C299.535 38.1454 316.075 58.2367 325.053 84.135C327.88 92.292 329.745 100.781 332.157 109.087C332.413 109.967 333.257 110.838 334.055 111.375C348.085 120.815 363.095 129.077 375.976 139.88C393.049 154.2 407.526 171.198 418.639 190.879C427.068 205.808 433.783 221.386 437.471 238.047C439.85 248.797 441.849 259.897 441.905 270.851C442.285 345.322 442.045 419.795 442.202 494.267C442.217 501.112 441.72 507.229 435.813 511.703C293.081 512 150.06 512 6.57085 512ZM429.096 381.071C429.088 371.041 429.08 361.01 429.121 350.046C429.127 327.385 429.463 304.716 429.003 282.064C428.768 270.49 428.106 258.751 425.911 247.42C418.161 207.409 396.656 175.447 366.21 149.087C353.181 137.806 338.586 128.882 323.295 121.016C321.941 120.32 320.701 118.602 320.261 117.107C319.522 114.594 319.587 111.858 319.109 109.253C315.276 88.3549 306.767 69.7175 292.507 53.7825C274.208 33.3347 250.867 21.6449 224.879 14.4971C223.51 14.1206 221.865 14.0327 220.515 14.4083C193.578 21.903 169.288 33.8966 150.831 55.7193C136.36 72.8284 127.804 92.5477 125.209 114.755C124.784 118.393 123.547 120.364 120.347 121.972C86.5966 138.925 58.8468 162.639 39.3363 195.273C25.2845 218.777 16.3393 244.159 16.1952 271.721C15.8069 346.037 16.0354 420.355 16.0373 494.672C16.0373 495.953 16.2658 497.235 16.436 499.024C22.8149 499.024 28.9344 499.024 35.9867 499.179C46.0465 499.233 56.1063 499.288 66.4511 499.734C67.203 499.593 67.9548 499.453 69.6897 499.407C109.108 499.37 148.527 499.332 188.387 499.714C188.939 499.589 189.491 499.464 190.985 499.41C224.423 499.414 257.86 499.422 291.298 499.405C292.951 499.405 294.604 499.182 296.686 499.356C297.47 499.269 298.253 499.183 299.98 499.171C331.689 499.112 363.398 499.053 396.041 499.067C406.943 499.067 417.845 499.067 429.067 499.067C429.067 459.487 429.067 420.748 429.096 381.071Z" fill="#FEFEFE"/>
<path d="M35.054 499.024C28.9344 499.024 22.8148 499.024 16.4359 499.024C16.2657 497.235 16.0373 495.953 16.0373 494.672C16.0354 420.355 15.8068 346.037 16.1952 271.721C16.3392 244.159 25.2845 218.777 39.3362 195.273C58.8467 162.639 86.5965 138.925 120.347 121.972C123.547 120.364 124.784 118.393 125.209 114.755C127.804 92.5476 136.36 72.8284 150.831 55.7192C169.288 33.8966 193.578 21.9029 220.515 14.4083C221.865 14.0326 223.51 14.1205 224.879 14.4971C250.867 21.6449 274.208 33.3346 292.507 53.7825C306.767 69.7174 315.276 88.3549 319.109 109.253C319.587 111.858 319.522 114.594 320.261 117.107C320.701 118.602 321.941 120.32 323.295 121.016C338.586 128.882 353.181 137.806 366.21 149.087C396.656 175.447 418.161 207.409 425.911 247.42C428.106 258.751 428.768 270.49 429.003 282.064C429.463 304.716 429.127 327.385 428.691 350.509C415.301 347.01 403.09 349.935 390.933 354.667C388.683 343.927 387.358 333.301 381.215 323.797C380.571 321.353 380.111 319.228 379.21 317.309C374.286 306.813 366.39 298.666 357.119 292.193C345.337 283.968 332.89 276.697 320.813 268.578C321.151 266.177 321.475 264.22 321.649 262.249C323.093 245.833 324.509 229.413 325.996 212.561C326.017 210.087 325.975 208.046 325.995 205.547C325.762 185.506 323.468 166.281 315.907 147.737C315.773 146.992 315.599 146.512 315.391 145.669C314.991 144.483 314.624 143.661 314.226 142.457C310.179 132.484 306.756 122.584 301.987 113.382C296.881 103.531 290.295 94.5279 280.029 88.6513C279.31 88.2078 278.761 88.0069 277.965 87.5741C275.848 86.5484 273.978 85.7548 271.886 84.7217C270.46 84.0391 269.255 83.596 268.518 83.11C280.079 83.0671 291.171 83.0671 302.949 83.0671C298.196 73.2942 291.225 66.4769 283.212 60.8322C270.372 51.7865 256.348 47.9515 240.57 52.8007C239.122 49.7021 237.904 46.8441 236.678 43.9662C235.767 47.734 234.887 51.3721 233.659 55.057C230.909 56.247 228.405 57.2164 226.126 58.5638C216.791 64.0811 208.213 70.4915 201.776 79.7981C200.889 79.8294 200.379 79.7975 199.743 79.4828C184.567 62.216 158.76 68.1246 152.76 83.1555C165.053 83.1555 177.142 83.1555 189.053 83.4357C180.13 89.8557 174.235 98.3943 168.982 107.457C168.764 107.833 169.079 108.519 169.122 109.033C169.099 109.005 169.156 109.049 168.943 108.762C168.529 109.045 168.327 109.615 167.977 110.488C165.591 115.21 163.353 119.63 161.106 124.025C161.096 124 161.15 123.997 160.879 124.146C160.432 124.872 160.257 125.448 160.084 126.005C160.087 125.987 160.123 125.974 159.87 126.089C159.457 126.531 159.298 126.86 158.956 127.486C153.95 137.117 152.587 147.159 151.839 157.529C150.412 177.322 149.571 196.959 156.498 215.946C150.645 215.734 145.033 214.583 139.775 215.488C122.095 218.532 107.473 227.216 96.1513 241.276C95.2755 242.364 94.0701 243.186 93.0752 244.08C74.9111 228.662 50.2156 230.185 45.6182 247.102C88.2102 247.102 130.673 247.102 173.205 247.532C173.862 254.477 171.207 259.752 166.688 264.232C161.17 257.532 156.932 256.911 152.454 262.026C151.603 262.998 150.868 264.07 149.696 265.06C146.865 266.459 143.375 267.312 142.184 269.448C139.568 274.138 138.226 279.523 136.142 284.532C135.048 287.16 133.486 289.594 131.844 292.186C131.294 292.743 131.034 293.229 130.746 293.717C130.718 293.719 130.662 293.734 130.292 293.591C118.984 296.965 108.045 300.481 96.8207 304.011C96.3829 304.319 96.2314 304.613 96.0717 304.872C96.0634 304.839 96.0295 304.778 95.66 304.751C90.6544 307.859 85.6973 310.614 81.4459 314.205C71.0057 323.022 64.2934 334.645 57.948 346.38C56.6659 343.697 55.6613 341.3 54.4018 338.295C52.7217 350.37 49.6572 361.121 39.438 367.63C43.0261 370.341 46.1401 372.694 49.1838 375.444C48.7666 377.464 48.3096 379.071 48.0898 380.711C45.8849 397.164 43.397 413.588 41.6197 430.088C39.1479 453.036 37.2166 476.043 35.054 499.024ZM378.419 245.691C376.478 252.778 372.304 258.326 365.719 262.946C375.684 267.059 381.824 274.046 385.501 283.501C387.122 273.408 391.69 265.383 399.719 258.953C389.98 252.705 384.436 244.182 381.645 232.836C380.508 237.568 379.62 241.264 378.419 245.691ZM113.8 204.701C104.335 199.108 99.725 190.064 96.3526 179.074C94.3668 191.397 91.495 202.195 80.3989 209.238C90.715 213.348 96.6527 220.358 100.5 229.578C101.932 219.522 106.976 211.911 113.8 204.701Z" fill="#ACC1D6"/>
<path d="M381.195 324.211C387.358 333.301 388.683 343.927 390.888 355.098C392.073 364.566 393.122 373.252 394.1 382.399C394.581 393.815 395.133 404.769 395.339 415.46C393.794 412.48 392.596 409.763 391.243 406.698C389.406 418.457 386.661 429.488 376.903 435.468C381.708 439.956 386.612 444.049 390.882 448.722C393.138 451.191 394.291 454.669 395.965 458.179C395.694 472.109 395.4 485.551 395.107 498.994C363.398 499.053 331.689 499.112 299.369 498.822C289.165 482.567 279.573 466.66 270.674 451.904C274.507 447.513 277.744 443.718 281.071 440.003C297.187 422.01 307.926 400.824 316.926 378.719C323.378 362.87 328.966 346.672 335.115 330.697C339.262 319.924 347.462 314.736 358.598 316.943C366.307 318.471 373.675 321.727 381.195 324.211Z" fill="#39160F"/>
<path d="M296.257 499.063C294.604 499.182 292.951 499.405 291.298 499.405C257.86 499.422 224.423 499.414 190.454 498.995C179.22 469.486 168.518 440.393 157.662 410.885C165.675 407.775 173.246 404.936 180.738 401.901C189.305 398.43 197.8 394.784 206.644 391.124C207.836 390.467 208.711 389.899 209.865 389.504C215.884 387.85 221.625 386.022 227.436 384.173C229.267 386.911 231.007 389.513 232.856 392.456C248.296 418.319 263.663 443.818 278.939 469.371C284.817 479.205 290.49 489.162 296.257 499.063Z" fill="#39160F"/>
<path d="M296.471 499.209C290.49 489.161 284.817 479.204 278.939 469.371C263.663 443.818 248.296 418.319 233.21 392.417C233.689 392.017 233.925 392 234.532 392.008C240.645 388.685 246.384 385.336 252.114 381.994C252.104 382.001 252.087 382.018 252.437 381.999C253.563 380.98 254.34 379.981 255.109 378.99C255.101 379 255.08 379.011 255.434 379.131C257.738 377.831 259.687 376.411 261.71 374.912C261.783 374.834 262.087 374.533 262.323 374.314C262.746 373.725 262.932 373.354 263.111 372.992C263.103 373 263.087 373.017 263.363 372.973C263.798 372.615 263.958 372.3 264.111 371.993C264.103 372.001 264.088 372.016 264.364 371.975C264.8 371.618 264.959 371.302 265.111 370.993C265.103 371.001 265.088 371.016 265.364 370.975C265.8 370.617 265.959 370.301 266.111 369.993C266.103 370.001 266.087 370.016 266.363 369.974C266.799 369.616 266.959 369.301 267.111 368.993C267.103 369.001 267.091 369.02 267.453 368.85C267.913 367.94 268.012 367.2 268.189 366.388C268.267 366.315 268.569 366.014 268.948 366.079C269.59 365.757 269.854 365.37 270.11 364.991C270.103 364.999 270.086 365.012 270.434 365.088C271.894 363.771 273.006 362.379 274.11 360.994C274.103 361.001 274.091 361.018 274.419 360.928C276.538 358.22 278.328 355.603 280.11 352.994C280.103 353.001 280.091 353.018 280.419 352.922C293.429 335.395 303.289 316.415 311.062 296.38C314.522 287.46 317.062 278.183 320.197 269.053C320.374 269.037 320.73 269.015 320.73 269.015C332.89 276.697 345.338 283.968 357.119 292.193C366.39 298.666 374.286 306.813 379.21 317.309C380.111 319.228 380.571 321.353 381.215 323.797C373.675 321.727 366.307 318.471 358.598 316.943C347.462 314.736 339.262 319.924 335.115 330.697C328.966 346.672 323.378 362.87 316.926 378.719C307.926 400.824 297.187 422.01 281.072 440.003C277.744 443.718 274.507 447.513 270.674 451.904C279.573 466.66 289.165 482.567 298.897 498.785C298.253 499.183 297.47 499.269 296.471 499.209Z" fill="#BD5550"/>
<path d="M35.5204 499.101C37.2167 476.043 39.1479 453.036 41.6198 430.088C43.3971 413.588 45.8849 397.164 48.0899 380.711C48.3096 379.071 48.7667 377.464 49.4884 375.565C52.9322 379.606 56.0012 383.923 59.0628 388.23C60.4223 378.675 64.7506 370.424 72.9484 364.294C65.7825 359.578 60.3693 354.45 58.2256 346.666C64.2934 334.645 71.0057 323.022 81.4459 314.205C85.6973 310.614 90.6544 307.859 95.7341 305.211C95.7563 310.031 95.3348 314.363 94.8834 319.002C97.8339 319.002 100.074 319.002 102.17 319.002C99.4769 320.522 95.4556 321.442 94.431 323.713C93.16 326.53 94.37 330.467 94.1604 334.103C93.5755 335.523 93.3383 336.76 93.1038 338.465C92.6529 360.263 96.575 380.305 109.966 397.711C110.869 398.885 110.746 401.534 110.107 403.089C107.513 409.393 104.533 415.539 101.693 421.742C89.8509 447.609 78.0084 473.476 66.1662 499.343C56.1063 499.288 46.0465 499.233 35.5204 499.101Z" fill="#391710"/>
<path d="M187.946 499.295C148.527 499.332 109.108 499.37 69.2308 498.955C83.017 467.332 97.2258 436.146 111.649 405.059C112.185 403.905 114.964 402.933 116.445 403.212C128.522 405.489 140.559 407.994 152.548 410.692C154.122 411.046 156.101 412.607 156.646 414.073C167.19 442.439 177.549 470.874 187.946 499.295Z" fill="#39160F"/>
<path d="M395.685 415.724C395.133 404.769 394.581 393.815 394.564 382.404C406.422 381.968 417.745 381.989 429.067 382.009C429.067 420.748 429.067 459.487 429.067 499.067C417.845 499.067 406.943 499.067 395.574 499.031C395.4 485.551 395.694 472.109 396.014 457.797C397.001 446.856 401.472 438.713 409.766 432.576C403.335 428.177 397.5 423.601 395.685 415.724Z" fill="#ACC1D5"/>
<path d="M188.166 499.504C177.549 470.874 167.19 442.439 156.646 414.073C156.101 412.607 154.122 411.046 152.548 410.692C140.559 407.994 128.522 405.489 116.445 403.212C114.964 402.933 112.185 403.905 111.649 405.059C97.2258 436.146 83.0171 467.332 68.7393 498.907C67.9547 499.453 67.2029 499.593 66.3086 499.538C78.0083 473.476 89.8508 447.609 101.693 421.742C104.533 415.539 107.513 409.393 110.107 403.089C110.746 401.534 110.869 398.885 109.966 397.711C96.5749 380.305 92.6528 360.263 93.4074 338.682C95.1214 342.703 96.5344 346.973 97.9877 351.604C101.723 358.65 105.418 365.337 109.108 372.012C109.102 372.001 109.083 371.985 109.098 372.318C110.113 373.774 111.113 374.898 112.108 376.011C112.102 376.001 112.084 375.986 112.107 376.33C116.459 380.788 120.787 384.902 125.108 389.008C125.102 389 125.083 388.99 125.187 389.325C126.901 390.444 128.511 391.228 130.113 392.005C130.104 391.999 130.089 391.984 129.984 392.292C130.275 393.097 130.67 393.594 131.085 394.516C131.147 397.9 130.038 401.898 131.529 403.55C133.285 405.495 137.295 405.401 140.323 406.207C140.802 406.335 141.249 406.658 141.728 406.7C147.174 407.175 152.624 407.612 158.463 408.052C168.757 404.302 178.621 400.446 188.581 396.859C194.417 394.757 200.407 393.081 206.327 391.214C197.8 394.784 189.304 398.43 180.738 401.901C173.246 404.936 165.675 407.775 157.662 410.885C168.518 440.393 179.22 469.486 189.983 498.959C189.491 499.463 188.939 499.589 188.166 499.504Z" fill="#BD5550"/>
<path d="M429.081 381.54C417.745 381.989 406.422 381.968 394.636 381.943C393.122 373.252 392.073 364.566 391.069 355.449C403.09 349.935 415.301 347.01 428.667 350.976C429.08 361.011 429.088 371.041 429.081 381.54Z" fill="#F6DED9"/>
<path d="M320.813 268.578C320.73 269.015 320.374 269.037 319.858 269.159C318.967 269.817 318.425 270.302 318.244 270.897C309.685 299.04 297.319 325.376 280.958 349.836C280.379 350.703 280.367 351.949 280.091 353.018C280.091 353.018 280.103 353.001 279.758 352.929C277.639 355.577 275.865 358.297 274.091 361.018C274.091 361.018 274.103 361.001 273.763 360.913C272.311 362.22 271.199 363.616 270.086 365.012C270.086 365.012 270.103 364.999 269.795 365.056C269.181 365.414 268.875 365.714 268.569 366.014C268.569 366.014 268.267 366.315 267.932 366.655C267.428 367.67 267.259 368.345 267.091 369.02C267.091 369.02 267.103 369.001 266.802 368.98C266.362 369.311 266.225 369.664 266.087 370.016C266.087 370.016 266.103 370.001 265.801 369.98C265.362 370.311 265.225 370.664 265.088 371.016C265.088 371.016 265.103 371.001 264.801 370.98C264.362 371.311 264.225 371.664 264.088 372.016C264.088 372.016 264.103 372.001 263.8 371.979C263.36 372.31 263.224 372.663 263.087 373.017C263.087 373.017 263.103 373 262.735 373.062C262.273 373.594 262.18 374.063 262.087 374.533C262.087 374.533 261.783 374.834 261.33 374.765C258.945 376.134 257.012 377.573 255.08 379.011C255.08 379.011 255.101 379 254.759 379.009C253.64 380.018 252.864 381.018 252.087 382.018C252.087 382.018 252.104 382.001 251.749 381.873C245.649 385.157 239.904 388.57 234.16 391.982C233.925 392 233.689 392.018 233.1 392.075C231.007 389.513 229.267 386.911 227.436 384.173C221.625 386.022 215.884 387.849 209.742 389.111C206.239 380.9 202.276 373.479 200.21 365.563C195.671 348.173 192.092 330.533 188.579 313.024C198.272 312.019 207.593 311.474 216.722 309.849C234.189 306.741 250.951 301.457 265.716 291.141C267.018 290.231 268.093 288.995 269.274 287.911C244.497 304.338 216.919 309.668 187.869 310.768C184.436 297.659 181.414 284.769 178.053 271.969C177.559 270.087 175.457 268.627 174.099 266.972C172.628 268.719 171.158 270.467 169.503 271.916C168.54 269.222 167.763 266.825 166.985 264.428C171.207 259.752 173.862 254.477 173.247 247.116C173.211 245.164 173.202 244.06 173.458 243.151C179.605 251.75 187.966 256.464 197.811 257.876C223.739 261.594 246.116 252.843 266.647 237.128C268.044 235.939 269.127 234.869 270.211 233.798C269.629 233.254 269.047 232.71 268.466 232.166C267.523 233.64 266.58 235.114 265.301 236.668C249.972 246.987 234.016 254.794 215.587 256.436C198.431 257.965 182.994 255.36 173.098 239.095C172.794 238.595 172.072 238.35 171.335 237.718C170.934 236.55 170.742 235.649 170.952 234.774C173.297 235.741 175.328 236.536 177.167 237.65C185.69 242.815 194.509 243.438 203.266 238.736C215.379 232.231 229.33 227.608 233.59 211.883C234.298 211.225 234.669 210.575 235.072 209.959C235.105 209.994 235.029 209.938 235.373 210.055C237.852 207.777 239.985 205.382 242.111 202.994C242.103 203.002 242.091 203.02 242.414 202.915C243.632 201.826 244.644 200.925 245.402 199.845C262.596 175.34 273.84 148.006 282.718 119.674C285.899 109.519 286.129 98.9764 279.776 89.3284C279.917 89.1842 280.198 88.894 280.198 88.894C290.295 94.528 296.882 103.531 301.987 113.382C306.756 122.584 310.179 132.484 314.057 142.832C311.346 158.58 308.444 173.539 302.033 187.424C297.754 196.691 292.504 205.509 287.406 214.679C286.473 215.709 285.822 216.587 285.17 217.465C285.506 217.707 285.842 217.95 286.177 218.192C286.893 217.199 287.609 216.206 288.599 215.017C293.586 206.834 298.3 198.848 303.241 191.15C305.396 192.18 306.985 192.617 306.863 189.479C306.814 188.228 307.624 186.943 308.026 185.277C310.43 172.588 312.851 160.295 315.421 148.002C315.57 148.002 315.866 148.003 315.866 148.003C323.468 166.281 325.762 185.506 325.637 205.638C323.611 208.651 322.937 211.016 325.933 212.995C324.509 229.413 323.093 245.833 321.649 262.249C321.476 264.22 321.151 266.177 320.813 268.578ZM277.897 279.844C280.628 275.502 284.475 271.495 285.898 266.76C292.055 246.279 297.504 225.584 303.582 204.728C303.616 204.361 303.65 203.994 303.685 203.626C303.47 203.784 303.256 203.941 302.349 204.296C301.634 206.247 300.761 208.156 300.228 210.156C293.925 233.805 290.594 258.458 276.107 279.827C274.005 281.882 271.903 283.938 269.801 285.993C270.251 286.415 270.701 286.836 271.151 287.257C273.217 284.917 275.284 282.576 277.897 279.844ZM282.15 220.458C281.601 221.133 281.051 221.807 280.501 222.482C280.805 222.75 281.108 223.018 281.412 223.286C282.564 222.05 283.715 220.814 284.867 219.578C284.627 219.336 284.387 219.094 284.146 218.852C283.637 219.226 283.128 219.599 282.15 220.458ZM271.614 231.068C271.603 231.607 271.592 232.146 271.58 232.685C272.746 231.784 273.911 230.883 275.076 229.982C274.82 229.682 274.565 229.381 274.309 229.081C273.571 229.574 272.832 230.067 271.614 231.068ZM305.278 196.668C305.25 195.883 305.223 195.098 305.196 194.313C304.63 194.462 304.063 194.611 303.497 194.76C303.865 195.448 304.233 196.136 305.278 196.668ZM303.678 200.87C304.092 200.311 304.505 199.752 304.918 199.193C304.53 199.059 303.821 198.774 303.802 198.814C303.504 199.445 303.295 200.119 303.678 200.87Z" fill="#BD5550"/>
<path d="M233.253 211.891C229.33 227.608 215.379 232.231 203.266 238.736C194.509 243.438 185.69 242.815 177.167 237.65C175.328 236.536 173.297 235.741 170.779 234.55C165.769 228.184 161.335 222.066 156.902 215.948C149.571 196.959 150.412 177.322 151.839 157.529C152.587 147.159 153.95 137.117 159.186 127.341C159.773 126.591 159.948 126.283 160.123 125.974C160.123 125.974 160.087 125.987 160.36 125.857C160.806 125.151 160.978 124.574 161.15 123.997C161.15 123.997 161.096 124 161.458 124.019C162.623 123.468 163.485 122.965 164.221 122.318C178.616 109.689 200.983 110.669 212.812 125.589C229.839 147.065 238.021 171.644 235.062 199.339C234.678 202.942 233.787 206.49 233.111 210.369C233.146 211.081 233.2 211.486 233.253 211.891ZM217.191 180.371C215.881 178.558 214.82 175.603 213.193 175.25C211.507 174.883 207.894 176.761 207.613 178.159C207.224 180.087 208.581 183.481 210.244 184.461C213.168 186.185 215.896 184.58 217.191 180.371ZM159.976 178.462C163.999 181.98 168.27 181.525 169.09 177.267C169.404 175.64 168.733 172.97 167.549 172.127C166.134 171.119 162.886 170.674 161.878 171.585C160.428 172.895 160.282 175.649 159.976 178.462ZM180.211 179.697C181.331 177.663 182.509 175.658 183.555 173.586C184.552 171.61 185.411 169.564 186.33 167.549C185.762 167.305 185.193 167.062 184.625 166.818C181.571 172.976 178.122 178.978 175.609 185.349C174.082 189.222 176.151 192.605 180.024 194.74C176.365 189.841 176.79 185.119 180.211 179.697ZM225.686 168.938C225.83 167.805 226.505 166.33 226.032 165.597C223.172 161.168 215.258 158.668 210.066 160.386C209.642 160.526 209.443 161.345 208.451 162.992C215.376 162.482 221.042 163.626 225.686 168.938ZM171.776 157.558C166.904 153.56 161.866 155.538 156.948 157.338C156.119 157.642 155.768 159.248 155.584 159.57C160.819 159.57 165.613 159.606 170.405 159.515C170.882 159.506 171.344 158.725 171.776 157.558Z" fill="#FE8F90"/>
<path d="M199.87 79.7656C200.379 79.7974 200.889 79.8293 202.21 79.8714C211.973 79.5122 220.923 79.1427 230.19 78.9373C234.131 83.8668 237.756 88.6324 240.955 92.8375C241.728 90.638 242.896 87.318 244.393 84.1188C248.714 86.4387 252.705 88.6377 256.696 90.8367C256.929 90.4205 257.161 90.0044 257.393 89.5882C253.283 87.0544 249.173 84.5206 245.075 81.6504C245.458 80.7752 245.829 80.2363 246.63 79.7609C254.056 80.9339 261.053 82.0433 268.05 83.1528C269.255 83.5959 270.46 84.039 272.008 85.0386C274.272 86.7351 276.193 87.8751 278.109 89.0073C278.103 88.9995 278.089 88.9855 277.981 89.3545C283.988 99.537 283.7 110.106 280.084 120.352C278.875 123.777 278.672 127.31 277.392 130.553C267.952 154.472 258.939 178.614 243.322 199.492C242.611 200.443 242.488 201.834 242.091 203.02C242.091 203.02 242.103 203.002 241.768 202.901C239.926 203.803 238.42 204.806 236.848 205.401C238.096 198.501 239.523 192.029 240.708 185.512C246.054 156.096 242.644 127.74 229.957 100.629C228.609 97.7495 226.052 95.4364 224.043 92.5209C222.567 90.6876 221.369 88.5905 219.592 87.8093C213.229 85.0114 206.671 82.6593 200.045 80.098C199.903 80.0575 199.87 79.7656 199.87 79.7656ZM263.125 96.6414C263.326 96.8944 263.572 97.0904 264.11 97.8577C265.495 99.2862 266.88 100.715 268.265 102.143C268.635 101.737 269.004 101.331 269.374 100.925C267.755 99.4766 266.136 98.0279 264.252 96.1885C264.049 95.9391 263.806 95.7386 263.291 94.9536C261.79 93.5983 260.288 92.2431 258.787 90.8878C258.452 91.306 258.116 91.7241 257.781 92.1423C259.479 93.5079 261.176 94.8734 263.125 96.6414ZM278.162 120.59C278.337 120.8 278.511 121.01 278.685 121.219C278.519 120.489 278.352 119.758 278.027 118.299C275.981 112.892 274.318 107.261 269.831 103.304C271.719 108.436 273.847 113.407 276.113 118.315C276.457 119.061 277.444 119.51 278.162 120.59Z" fill="#BE5550"/>
<path d="M94.5084 333.921C94.37 330.467 93.16 326.53 94.431 323.713C95.4556 321.442 99.4769 320.522 102.17 319.002C100.074 319.002 97.8339 319.002 94.8834 319.002C95.3348 314.363 95.7563 310.031 96.1037 305.238C96.0295 304.778 96.0634 304.839 96.2967 304.79C96.8126 304.564 97.005 304.315 97.1071 303.997C108.045 300.481 118.984 296.965 130.435 294.063C130.996 299.84 132.007 305.238 130.817 310.098C129.659 314.827 131.401 318.604 131.97 322.82C132.612 327.572 132.911 332.389 133.057 337.187C133.485 351.308 133.94 365.433 133.993 379.558C134.009 383.784 132.738 388.016 131.734 392.159C130.971 392.043 130.53 392.013 130.089 391.984C130.089 391.984 130.104 391.999 129.999 391.675C128.291 390.564 126.687 389.777 125.083 388.99C125.083 388.99 125.102 389 125.188 388.659C120.877 384.207 116.48 380.097 112.084 375.986C112.084 375.986 112.102 376.001 112.224 375.65C111.259 374.194 110.171 373.089 109.083 371.985C109.083 371.985 109.102 372.001 109.225 371.645C105.885 364.208 102.422 357.126 98.9286 349.669C97.4353 344.169 95.9718 339.045 94.5084 333.921ZM113.467 318.224C114.481 318.409 115.495 318.594 116.509 318.779C116.483 318.08 116.458 317.381 116.433 316.682C115.382 316.968 114.331 317.255 113.467 318.224ZM108.939 318.524C108.049 318.47 107.159 318.415 106.269 318.36C106.275 318.916 106.28 319.472 106.286 320.028C107.118 319.748 107.95 319.468 108.939 318.524ZM123.629 316.314C123.081 315.975 122.534 315.636 121.987 315.298C121.852 315.572 121.717 315.846 121.583 316.121C122.118 316.326 122.654 316.531 123.629 316.314Z" fill="#BD5550"/>
<path d="M224.056 92.8608C226.052 95.4366 228.609 97.7496 229.957 100.629C242.644 127.74 246.054 156.096 240.708 185.513C239.523 192.029 238.096 198.501 236.861 205.414C236.942 205.834 236.939 205.866 236.666 205.967C236.359 206.446 236.327 206.824 236.141 207.47C235.669 208.471 235.349 209.205 235.029 209.938C235.029 209.938 235.104 209.994 234.752 209.931C233.977 209.933 233.553 209.998 233.13 210.063C233.787 206.49 234.678 202.942 235.062 199.339C238.021 171.644 229.839 147.065 212.812 125.589C200.983 110.669 178.616 109.689 164.221 122.318C163.485 122.965 162.623 123.468 161.468 124.044C163.353 119.63 165.591 115.21 168.244 110.378C168.825 109.661 168.991 109.355 169.156 109.049C169.156 109.049 169.099 109.005 169.452 108.964C181.346 94.689 196.315 89.351 214.284 91.7476C217.533 92.1809 220.798 92.4929 224.056 92.8608Z" fill="#F7DDD8"/>
<path d="M156.498 215.946C161.335 222.066 165.769 228.184 170.377 234.525C170.742 235.649 170.934 236.55 171.478 238.071C172.284 240.113 172.738 241.534 173.192 242.955C173.202 244.06 173.211 245.164 173.178 246.685C130.673 247.102 88.2102 247.102 45.6182 247.102C50.2156 230.185 74.9111 228.662 93.0752 244.08C94.0701 243.186 95.2755 242.364 96.1513 241.276C107.473 227.216 122.095 218.532 139.775 215.488C145.033 214.583 150.645 215.735 156.498 215.946Z" fill="#F8DFDA"/>
<path d="M132.057 392.246C132.738 388.016 134.009 383.784 133.993 379.558C133.94 365.433 133.485 351.308 133.057 337.187C132.911 332.389 132.612 327.572 131.97 322.82C131.401 318.604 129.659 314.827 130.817 310.098C132.007 305.238 130.996 299.84 130.805 294.205C130.662 293.734 130.718 293.719 131.056 293.706C131.642 293.167 131.889 292.641 132.135 292.116C133.486 289.594 135.048 287.16 136.142 284.532C138.226 279.523 139.568 274.138 142.184 269.448C143.375 267.312 146.865 266.459 149.562 265.401C148.745 272.982 147.678 280.187 146.292 287.339C145.011 288.736 143.53 290.07 143.185 291.652C142.236 296.008 141.038 300.5 141.232 304.882C141.893 319.796 142.422 334.772 144.285 349.563C146.795 369.49 150.587 389.244 158.072 408.059C152.624 407.612 147.174 407.175 141.728 406.7C141.249 406.659 140.802 406.335 140.323 406.207C137.295 405.401 133.285 405.495 131.529 403.55C130.038 401.898 131.147 397.9 131.339 394.382C131.734 393.298 131.895 392.772 132.057 392.246Z" fill="#97443D"/>
<path d="M268.518 83.11C261.053 82.0435 254.056 80.934 246.673 79.4416C248.966 75.7724 251.646 72.4862 254.586 68.8814C248.157 65.4937 243.416 60.1634 240.801 53.0415C256.348 47.9515 270.373 51.7866 283.212 60.8323C291.225 66.477 298.196 73.2942 302.949 83.0672C291.171 83.0672 280.079 83.0672 268.518 83.11Z" fill="#F8DED9"/>
<path d="M378.576 245.326C379.62 241.264 380.508 237.568 381.645 232.836C384.436 244.182 389.98 252.705 399.719 258.953C391.69 265.383 387.122 273.408 385.501 283.501C381.824 274.046 375.684 267.059 365.719 262.946C372.304 258.325 376.478 252.778 378.576 245.326Z" fill="#FDB86A"/>
<path d="M57.948 346.38C60.3693 354.45 65.7825 359.578 72.9483 364.294C64.7506 370.424 60.4223 378.675 59.0628 388.23C56.0012 383.923 52.9321 379.606 49.5586 375.168C46.1401 372.694 43.0261 370.341 39.438 367.63C49.6572 361.121 52.7217 350.37 54.4018 338.295C55.6614 341.3 56.6659 343.697 57.948 346.38Z" fill="#FCB667"/>
<path d="M113.878 205.04C106.976 211.911 101.932 219.522 100.5 229.578C96.6527 220.358 90.715 213.348 80.3989 209.238C91.495 202.195 94.3668 191.397 96.3526 179.074C99.725 190.064 104.335 199.108 113.878 205.04Z" fill="#FDB86A"/>
<path d="M240.57 52.8008C243.416 60.1635 248.157 65.4937 254.586 68.8814C251.646 72.4863 248.966 75.7725 246.243 79.3781C245.829 80.2365 245.458 80.7753 244.811 81.7998C244.378 82.8562 244.221 83.4272 244.064 83.9981C242.896 87.3181 241.728 90.6382 240.955 92.8376C237.756 88.6326 234.131 83.867 230.036 78.6673C227.072 76.4994 224.579 74.7656 221.837 72.8597C228.152 68.0927 232.508 62.4942 234.008 55.0103C234.888 51.3722 235.767 47.7341 236.678 43.9663C237.904 46.8442 239.122 49.7021 240.57 52.8008Z" fill="#FEB868"/>
<path d="M146.61 287.391C147.678 280.187 148.745 272.982 149.946 265.437C150.868 264.07 151.603 262.998 152.454 262.026C156.932 256.911 161.17 257.532 166.688 264.232C167.762 266.825 168.54 269.222 169.572 272.333C172.167 290.656 174.506 308.264 176.846 325.873C176.348 325.963 175.85 326.053 175.352 326.144C174.997 325.16 174.453 324.201 174.318 323.188C172.87 312.305 171.705 301.379 170.013 290.535C168.764 282.53 167.17 274.542 165.052 266.729C164.378 264.244 161.526 262.349 159.671 260.184C159.165 260.53 158.659 260.877 158.153 261.224C160.775 282.725 163.397 304.226 166.019 325.727C165.369 325.804 164.719 325.882 164.068 325.959C161.392 304.749 158.716 283.54 155.867 260.955C149.068 269.733 148.112 278.604 148.824 287.546C149.786 299.645 151.588 311.676 152.991 323.741C153.224 325.747 153.261 327.776 153.388 329.795C152.779 329.842 152.171 329.888 151.563 329.935C149.912 315.754 148.261 301.572 146.61 287.391Z" fill="#522621"/>
<path d="M189.231 83.1555C177.142 83.1555 165.053 83.1555 152.76 83.1555C158.76 68.1246 184.567 62.216 199.743 79.4828C199.87 79.7656 199.903 80.0575 199.635 80.0892C195.987 81.1324 192.609 82.144 189.231 83.1555Z" fill="#F6DEDA"/>
<path d="M189.053 83.4359C192.609 82.1441 195.987 81.1326 199.776 80.1299C206.671 82.6595 213.23 85.0116 219.592 87.8095C221.369 88.5907 222.567 90.6878 224.043 92.5211C220.798 92.4929 217.533 92.181 214.284 91.7477C196.315 89.3511 181.346 94.689 169.475 108.992C169.079 108.519 168.764 107.833 168.982 107.457C174.235 98.3945 180.13 89.8558 189.053 83.4359Z" fill="#3D1B15"/>
<path d="M233.659 55.0571C232.508 62.4942 228.152 68.0927 221.837 72.8597C224.578 74.7656 227.072 76.4994 229.72 78.5033C220.923 79.1429 211.973 79.5123 202.588 79.8084C208.213 70.4916 216.791 64.0812 226.126 58.5639C228.406 57.2165 230.909 56.2471 233.659 55.0571Z" fill="#F6DCD6"/>
<path d="M303.013 190.861C298.3 198.848 293.586 206.834 288.438 214.846C288.004 214.872 287.688 214.527 287.688 214.527C292.503 205.508 297.754 196.691 302.033 187.424C308.444 173.539 311.346 158.579 314.087 143.213C314.624 143.661 314.991 144.483 315.29 145.986C315.239 147.112 315.256 147.557 315.273 148.002C312.851 160.295 310.43 172.588 307.738 185.217C306.621 185.529 305.186 185.211 305.024 185.532C304.177 187.219 303.651 189.069 303.013 190.861Z" fill="#4C2019"/>
<path d="M325.996 212.562C322.937 211.016 323.611 208.651 325.575 206.097C325.975 208.047 326.017 210.087 325.996 212.562Z" fill="#BD5550"/>
<path d="M278.115 89.0153C276.193 87.8753 274.272 86.7353 272.229 85.2783C273.978 85.7549 275.848 86.5486 277.957 87.8782C278.168 88.6145 278.141 88.8149 278.115 89.0153Z" fill="#50221B"/>
<path d="M315.421 148.002C315.256 147.557 315.239 147.112 315.323 146.35C315.599 146.513 315.773 146.992 315.907 147.737C315.866 148.003 315.569 148.002 315.421 148.002Z" fill="#BD5550"/>
<path d="M131.844 292.187C131.889 292.641 131.642 293.167 131.085 293.703C131.034 293.229 131.294 292.743 131.844 292.187Z" fill="#BD5550"/>
<path d="M168.943 108.762C168.991 109.355 168.825 109.661 168.393 110.076C168.327 109.615 168.529 109.045 168.943 108.762Z" fill="#3D1B15"/>
<path d="M160.879 124.146C160.978 124.574 160.806 125.151 160.357 125.876C160.257 125.448 160.432 124.872 160.879 124.146Z" fill="#F7DDD8"/>
<path d="M278.109 89.0074C278.141 88.8147 278.168 88.6143 278.203 88.11C278.761 88.0069 279.31 88.2078 280.029 88.6513C280.198 88.894 279.917 89.1842 279.542 89.1785C278.808 89.1104 278.449 89.048 278.089 88.9856C278.089 88.9856 278.103 88.9996 278.109 89.0074Z" fill="#BD5550"/>
<path d="M96.8207 304.011C97.005 304.315 96.8126 304.564 96.305 304.824C96.2315 304.613 96.3829 304.319 96.8207 304.011Z" fill="#BC5550"/>
<path d="M159.87 126.089C159.948 126.283 159.773 126.591 159.368 127.044C159.298 126.86 159.457 126.531 159.87 126.089Z" fill="#F7DDD8"/>
<path d="M395.339 415.461C397.5 423.601 403.336 428.177 409.766 432.576C401.472 438.713 397.001 446.856 395.992 457.31C394.291 454.669 393.138 451.191 390.882 448.722C386.612 444.049 381.708 439.956 376.903 435.468C386.661 429.488 389.406 418.457 391.243 406.698C392.596 409.763 393.794 412.48 395.339 415.461Z" fill="#FBB566"/>
<path d="M146.292 287.339C148.261 301.572 149.912 315.754 151.563 329.935C152.171 329.888 152.779 329.842 153.388 329.795C153.261 327.776 153.224 325.747 152.991 323.741C151.588 311.676 149.786 299.645 148.824 287.546C148.112 278.604 149.068 269.733 155.867 260.955C158.716 283.54 161.392 304.749 164.068 325.959C164.719 325.882 165.369 325.804 166.019 325.727C163.397 304.226 160.775 282.725 158.153 261.224C158.659 260.877 159.165 260.53 159.671 260.184C161.526 262.349 164.378 264.244 165.052 266.729C167.17 274.542 168.764 282.53 170.013 290.535C171.705 301.379 172.87 312.305 174.318 323.188C174.453 324.201 174.997 325.16 175.352 326.144C175.85 326.053 176.348 325.963 176.846 325.873C174.506 308.264 172.167 290.656 169.757 272.63C171.158 270.466 172.628 268.719 174.099 266.972C175.457 268.627 177.559 270.087 178.053 271.969C181.414 284.769 184.436 297.659 187.797 311.095C188.059 312.113 188.09 312.554 188.122 312.995C192.092 330.533 195.671 348.173 200.21 365.563C202.275 373.479 206.239 380.9 209.464 388.938C208.711 389.899 207.836 390.466 206.644 391.124C200.407 393.081 194.417 394.757 188.581 396.859C178.621 400.446 168.757 404.302 158.463 408.052C150.587 389.244 146.795 369.49 144.285 349.563C142.422 334.772 141.893 319.796 141.232 304.882C141.038 300.5 142.236 296.008 143.185 291.652C143.53 290.07 145.011 288.735 146.292 287.339Z" fill="#FD8E8F"/>
<path d="M280.419 352.922C280.367 351.949 280.379 350.703 280.958 349.836C297.319 325.376 309.685 299.04 318.244 270.897C318.425 270.302 318.967 269.817 319.68 269.175C317.062 278.183 314.522 287.46 311.062 296.38C303.289 316.415 293.429 335.395 280.419 352.922Z" fill="#4E211A"/>
<path d="M234.532 392.008C239.904 388.57 245.649 385.157 251.759 381.866C246.384 385.336 240.645 388.685 234.532 392.008Z" fill="#4E211A"/>
<path d="M274.419 360.928C275.865 358.297 277.639 355.577 279.765 352.921C278.328 355.603 276.538 358.22 274.419 360.928Z" fill="#4E211A"/>
<path d="M255.434 379.131C257.012 377.573 258.945 376.134 261.257 374.843C259.687 376.411 257.738 377.831 255.434 379.131Z" fill="#4E211A"/>
<path d="M270.434 365.088C271.199 363.616 272.311 362.22 273.77 360.905C273.006 362.379 271.894 363.771 270.434 365.088Z" fill="#4E211A"/>
<path d="M252.437 381.999C252.864 381.018 253.64 380.018 254.766 378.999C254.34 379.981 253.563 380.98 252.437 381.999Z" fill="#4E211A"/>
<path d="M267.453 368.85C267.259 368.345 267.428 367.67 267.854 366.728C268.012 367.2 267.913 367.94 267.453 368.85Z" fill="#4E211A"/>
<path d="M268.948 366.079C268.875 365.714 269.181 365.414 269.802 365.049C269.854 365.371 269.59 365.757 268.948 366.079Z" fill="#4E211A"/>
<path d="M265.364 370.975C265.225 370.663 265.362 370.311 265.809 369.972C265.959 370.301 265.8 370.617 265.364 370.975Z" fill="#4E211A"/>
<path d="M266.363 369.974C266.225 369.664 266.362 369.311 266.809 368.972C266.959 369.301 266.799 369.616 266.363 369.974Z" fill="#4E211A"/>
<path d="M262.323 374.315C262.18 374.063 262.273 373.594 262.742 373.054C262.932 373.354 262.746 373.725 262.323 374.315Z" fill="#4E211A"/>
<path d="M263.363 372.973C263.224 372.664 263.36 372.31 263.807 371.971C263.958 372.3 263.798 372.615 263.363 372.973Z" fill="#4E211A"/>
<path d="M264.364 371.975C264.225 371.664 264.362 371.311 264.808 370.972C264.959 371.302 264.8 371.618 264.364 371.975Z" fill="#4E211A"/>
<path d="M94.1605 334.103C95.9719 339.045 97.4353 344.169 98.7051 349.814C98.3234 350.638 98.1354 350.941 97.9474 351.243C96.5344 346.973 95.1215 342.703 93.4049 338.215C93.3384 336.76 93.5755 335.523 94.1605 334.103Z" fill="#55241D"/>
<path d="M97.9877 351.604C98.1353 350.941 98.3233 350.638 98.7348 350.19C102.422 357.126 105.885 364.208 109.231 371.656C105.418 365.337 101.723 358.65 97.9877 351.604Z" fill="#4F211A"/>
<path d="M112.107 376.33C116.48 380.097 120.877 384.207 125.194 388.667C120.787 384.902 116.459 380.788 112.107 376.33Z" fill="#4F211A"/>
<path d="M125.187 389.325C126.687 389.777 128.291 390.564 130.008 391.681C128.511 391.228 126.901 390.444 125.187 389.325Z" fill="#4F211A"/>
<path d="M109.098 372.318C110.171 373.089 111.259 374.194 112.23 375.66C111.113 374.898 110.113 373.774 109.098 372.318Z" fill="#4F211A"/>
<path d="M131.734 392.159C131.895 392.772 131.734 393.298 131.319 393.958C130.67 393.594 130.275 393.097 129.984 392.292C130.53 392.013 130.971 392.043 131.734 392.159Z" fill="#4F211A"/>
<path d="M277.981 89.3547C278.449 89.0482 278.808 89.1105 279.401 89.3228C286.129 98.9765 285.899 109.519 282.718 119.674C273.84 148.006 262.596 175.34 245.402 199.845C244.644 200.925 243.632 201.826 242.414 202.915C242.488 201.834 242.611 200.443 243.322 199.492C258.939 178.614 267.952 154.472 277.392 130.554C278.672 127.31 278.875 123.777 280.084 120.352C283.7 110.107 283.988 99.5372 277.981 89.3547Z" fill="#50221B"/>
<path d="M173.458 243.151C172.738 241.534 172.284 240.113 171.687 238.339C172.072 238.35 172.794 238.595 173.098 239.095C182.994 255.36 198.431 257.965 215.587 256.436C234.016 254.794 249.972 246.987 265.477 236.831C265.988 236.914 266.334 237.246 266.334 237.246C246.116 252.843 223.739 261.593 197.811 257.875C187.966 256.464 179.605 251.75 173.458 243.151Z" fill="#53231C"/>
<path d="M188.579 313.024C188.09 312.554 188.059 312.113 188.1 311.344C216.919 309.668 244.497 304.338 269.274 287.911C268.093 288.995 267.018 290.231 265.716 291.141C250.951 301.457 234.189 306.741 216.722 309.849C207.593 311.474 198.272 312.019 188.579 313.024Z" fill="#52221B"/>
<path d="M303.21 204.966C297.504 225.584 292.055 246.278 285.898 266.76C284.475 271.495 280.628 275.502 277.457 279.864C277.018 279.885 276.692 279.529 276.692 279.529C290.594 258.458 293.925 233.805 300.228 210.155C300.76 208.156 301.634 206.247 302.707 204.42C303.065 204.543 303.21 204.966 303.21 204.966Z" fill="#52221B"/>
<path d="M303.241 191.15C303.651 189.069 304.177 187.22 305.024 185.532C305.186 185.211 306.621 185.53 307.756 185.613C307.624 186.943 306.814 188.228 306.862 189.479C306.985 192.617 305.396 192.18 303.241 191.15Z" fill="#BD5550"/>
<path d="M235.373 210.055C235.349 209.204 235.669 208.471 236.379 207.318C236.825 206.554 236.882 206.21 236.939 205.866C236.939 205.866 236.942 205.834 236.928 205.822C238.42 204.806 239.926 203.803 241.776 202.893C239.985 205.382 237.852 207.777 235.373 210.055Z" fill="#50221B"/>
<path d="M277.184 280.06C275.284 282.575 273.217 284.916 271.151 287.257C270.701 286.836 270.251 286.414 269.801 285.993C271.903 283.938 274.005 281.882 276.399 279.678C276.692 279.529 277.018 279.885 277.184 280.06Z" fill="#52221B"/>
<path d="M265.812 236.751C266.58 235.114 267.523 233.64 268.466 232.166C269.047 232.71 269.629 233.254 270.211 233.798C269.127 234.869 268.044 235.939 266.647 237.128C266.334 237.246 265.988 236.914 265.812 236.751Z" fill="#53231C"/>
<path d="M282.384 220.215C283.128 219.599 283.637 219.226 284.146 218.852C284.387 219.094 284.627 219.336 284.867 219.578C283.715 220.814 282.564 222.05 281.412 223.286C281.108 223.018 280.805 222.75 280.501 222.482C281.051 221.807 281.601 221.132 282.384 220.215Z" fill="#4C2019"/>
<path d="M271.854 230.814C272.832 230.067 273.571 229.574 274.309 229.081C274.565 229.381 274.82 229.682 275.076 229.982C273.911 230.883 272.746 231.784 271.58 232.685C271.592 232.146 271.603 231.607 271.854 230.814Z" fill="#53231C"/>
<path d="M304.939 196.746C304.233 196.136 303.865 195.448 303.497 194.76C304.063 194.611 304.63 194.462 305.196 194.313C305.223 195.098 305.25 195.883 304.939 196.746Z" fill="#BD5550"/>
<path d="M303.372 200.826C303.295 200.118 303.504 199.445 303.802 198.814C303.821 198.774 304.53 199.059 304.918 199.193C304.505 199.752 304.091 200.311 303.372 200.826Z" fill="#BD5550"/>
<path d="M288.164 215.042C287.609 216.206 286.893 217.199 286.177 218.192C285.842 217.95 285.506 217.707 285.17 217.464C285.822 216.587 286.473 215.709 287.406 214.679C287.688 214.527 288.004 214.872 288.164 215.042Z" fill="#4C2019"/>
<path d="M233.111 210.369C233.553 209.998 233.977 209.932 234.719 209.896C234.669 210.575 234.298 211.225 233.59 211.883C233.2 211.486 233.146 211.081 233.111 210.369Z" fill="#50221B"/>
<path d="M303.396 204.847C303.21 204.966 303.065 204.543 303.053 204.321C303.256 203.941 303.47 203.784 303.685 203.626C303.65 203.994 303.616 204.361 303.396 204.847Z" fill="#BD5550"/>
<path d="M217.143 180.769C215.896 184.58 213.168 186.185 210.244 184.461C208.581 183.481 207.224 180.087 207.613 178.159C207.894 176.761 211.507 174.883 213.193 175.25C214.82 175.603 215.881 178.558 217.143 180.769Z" fill="#3F1B14"/>
<path d="M159.778 178.124C160.282 175.649 160.428 172.895 161.878 171.585C162.886 170.674 166.134 171.119 167.549 172.127C168.733 172.97 169.404 175.64 169.09 177.267C168.27 181.525 163.999 181.98 159.778 178.124Z" fill="#3F1B14"/>
<path d="M180.053 180.036C176.79 185.119 176.365 189.841 180.024 194.74C176.151 192.605 174.082 189.222 175.609 185.35C178.122 178.978 181.571 172.976 184.625 166.818C185.193 167.062 185.762 167.305 186.33 167.549C185.411 169.564 184.552 171.61 183.555 173.586C182.509 175.658 181.331 177.663 180.053 180.036Z" fill="#582924"/>
<path d="M225.333 168.848C221.042 163.626 215.376 162.482 208.451 162.992C209.443 161.345 209.642 160.526 210.066 160.386C215.258 158.668 223.172 161.168 226.032 165.597C226.505 166.33 225.83 167.805 225.333 168.848Z" fill="#C25854"/>
<path d="M171.794 157.93C171.344 158.725 170.882 159.506 170.405 159.515C165.613 159.606 160.819 159.57 155.584 159.57C155.768 159.248 156.119 157.642 156.948 157.338C161.866 155.538 166.904 153.56 171.794 157.93Z" fill="#C65C58"/>
<path d="M278.134 120.097C277.444 119.51 276.457 119.061 276.113 118.315C273.847 113.407 271.719 108.436 269.831 103.304C274.318 107.262 275.981 112.893 278.057 118.929C278.103 119.738 278.118 119.918 278.134 120.097Z" fill="#52221C"/>
<path d="M244.393 84.1188C244.221 83.427 244.378 82.8561 244.798 82.136C249.173 84.5206 253.283 87.0544 257.393 89.5883C257.161 90.0044 256.929 90.4206 256.696 90.8367C252.705 88.6377 248.714 86.4387 244.393 84.1188Z" fill="#52221C"/>
<path d="M264.517 96.5793C266.136 98.028 267.755 99.4767 269.374 100.925C269.004 101.331 268.635 101.737 268.265 102.143C266.88 100.715 265.495 99.2863 264.152 97.3831C264.194 96.9084 264.517 96.5793 264.517 96.5793Z" fill="#52221C"/>
<path d="M262.874 96.2391C261.176 94.8735 259.479 93.508 257.781 92.1424C258.116 91.7242 258.452 91.3061 258.787 90.8879C260.288 92.2432 261.79 93.5984 263.241 95.4325C263.191 95.9113 262.874 96.2391 262.874 96.2391Z" fill="#52221C"/>
<path d="M278.148 120.344C278.118 119.918 278.103 119.738 278.137 119.293C278.352 119.759 278.519 120.489 278.685 121.219C278.511 121.01 278.337 120.8 278.148 120.344Z" fill="#BC5550"/>
<path d="M264.029 97.0689C263.572 97.0905 263.326 96.8945 263 96.4403C262.874 96.2391 263.191 95.9112 263.357 95.7492C263.806 95.7387 264.05 95.9392 264.385 96.384C264.517 96.5793 264.194 96.9083 264.029 97.0689Z" fill="#52221C"/>
<path d="M113.373 317.882C114.331 317.255 115.382 316.968 116.433 316.682C116.458 317.381 116.484 318.08 116.509 318.779C115.495 318.594 114.481 318.409 113.373 317.882Z" fill="#BC5550"/>
<path d="M108.86 318.856C107.95 319.468 107.118 319.748 106.286 320.028C106.28 319.472 106.275 318.916 106.269 318.36C107.159 318.415 108.049 318.47 108.86 318.856Z" fill="#BC5550"/>
<path d="M123.409 316.525C122.654 316.531 122.118 316.326 121.583 316.121C121.717 315.846 121.852 315.572 121.987 315.298C122.534 315.636 123.081 315.975 123.409 316.525Z" fill="#BC5550"/>
<path d="M236.665 205.967C236.882 206.21 236.825 206.554 236.531 207.05C236.327 206.824 236.359 206.446 236.665 205.967Z" fill="#BE5550"/>
</svg>
