<svg width="469" height="512" viewBox="0 0 469 512" fill="none" xmlns="http://www.w3.org/2000/svg">
<path d="M9.43983 512C8.59257 511.126 8.45003 509.971 7.79754 509.423C3.12321 505.5 1.91069 500.443 1.8861 494.551C1.83844 483.134 1.22628 471.72 0.997194 460.302C0.850156 452.973 1.0951 445.636 0.938701 438.308C0.730575 428.556 -0.35607 418.776 0.119026 409.067C0.895097 393.205 2.41334 377.369 4.02235 361.564C5.37312 348.295 6.92885 335.024 9.07083 321.864C11.4553 307.215 14.8138 292.725 17.3377 278.096C18.6669 270.39 19.0576 262.526 19.985 254.747C21.2375 244.242 22.6352 233.754 23.9017 223.25C24.9751 214.347 25.6544 205.385 27.0395 196.533C29.0857 183.455 31.4994 170.431 33.9612 157.423C35.2889 150.408 40.4811 147.122 46.9578 146.155C49.6904 145.747 50.2598 144.513 51.0214 142.431C53.497 135.663 58.5469 128.543 68.1577 129.879C70.5861 130.217 73.2212 129.089 75.7578 128.616C76.7101 128.438 77.7079 127.892 78.5903 128.049C85.2939 129.236 92.0631 129.788 98.807 130.571C105.209 131.315 109.663 137.305 109.884 144.028C110.218 154.181 109.99 164.353 109.925 174.517C109.919 175.415 109.353 176.309 108.963 177.449C117.974 176.239 127.104 175.902 131.618 185.506C135.6 193.979 131.652 202.46 130.046 211.231C134.239 204.77 138.493 198.347 142.552 191.802C143.094 190.927 143.127 189.13 142.583 188.28C135.506 177.223 131.545 165.023 130.067 152.143C128.314 136.864 127.76 121.441 125.839 106.188C123.92 90.9582 125.48 76.2753 130.546 61.9563C137.995 40.901 152.238 25.1999 170.62 13.1279C179.255 7.45748 188.737 3.47755 199.09 1.91362C199.632 1.83172 200.078 1.11468 200.27 0.346666C212.325 -2.98023e-08 224.68 0 237.503 0C238.457 0.662462 238.843 1.79192 239.443 1.9196C258.008 5.87182 274.838 13.2388 289.365 25.7896C306.948 40.9807 316.612 60.4246 319.774 82.962C321.551 95.6248 321.605 108.565 321.872 121.392C322.064 130.588 320.667 139.84 321.172 149.001C321.761 159.684 324.904 170.325 324.659 180.931C324.344 194.605 321.769 208.226 320.16 221.927C328.063 226.262 336.764 230.664 345.068 235.719C350.571 239.068 355.696 243.124 360.648 247.272C368.94 254.216 377.215 261.217 385.029 268.685C395.549 278.74 403.062 291.078 410.235 303.639C424.316 328.3 434.308 354.691 442.132 381.814C448.895 405.257 454.352 429.09 459.897 452.865C463.084 466.53 465.498 480.389 467.87 494.227C469.084 501.312 466.593 507.292 460.683 511.703C310.617 512 160.263 512 9.43983 512ZM156.135 197.601C155.692 198.41 155.25 199.219 154.338 200.476C142.946 215.421 131.596 230.399 120.121 245.279C118.106 247.892 116.518 250.361 117.048 253.853C111.441 255.872 105.834 257.891 100.188 259.098C102.012 238.088 106.274 217.79 116.915 199.202C118.294 196.793 118.158 193.518 118.999 189.923C117.499 189.377 115.599 187.968 114.574 188.444C111.352 189.941 108.289 191.931 105.476 194.128C101.218 197.456 97.2229 201.119 93.2903 203.751C94.8371 183.248 97.2852 162.771 95.2472 142.055C88.1627 158.522 84.4859 175.802 80.1324 193.298C79.3728 193.202 78.6133 193.106 77.9278 192.141C79.182 178.718 80.5554 165.305 81.6163 151.868C81.9257 147.949 81.3436 143.959 81.1702 140.002C80.5943 139.976 80.0183 139.951 79.4424 139.925C73.2647 151.825 72.6998 165.582 67.8621 177.95C67.8487 171.744 68.5659 165.696 68.817 159.629C69.0658 153.617 68.8447 147.587 68.8296 141.564C67.8658 141.439 66.9019 141.314 65.938 141.189C62.0828 156.765 58.2277 172.341 54.3725 187.917C52.7593 177.794 53.4198 167.572 49.617 157.843C48.3443 159.908 47.3928 161.981 47.0844 164.146C43.9877 185.883 40.9673 207.632 37.984 229.385C35.0704 250.63 32.8566 271.993 29.224 293.113C20.4678 344.021 11.612 394.861 16.9365 447.805C16.9683 461.289 16.9822 474.774 17.0397 488.258C17.0683 494.952 17.1045 494.962 23.565 494.963C129.609 494.965 235.654 494.967 341.698 494.944C343.503 494.943 345.308 494.635 347.506 494.51C347.506 494.51 347.9 494.548 348.655 494.89C383.582 494.89 418.509 494.89 453.756 494.89C453.756 493.246 453.918 492.098 453.733 491.009C446.11 445.959 436.407 401.417 420.931 358.313C411.287 331.45 400.045 305.351 381.845 282.971C374.935 274.475 367.497 266.294 357.015 261.095C349.59 251.353 339.592 245.042 328.438 239.266C327.661 238.968 326.884 238.669 325.629 237.927C316.409 234.253 307.189 230.579 298.046 226.213C297.975 225.532 297.904 224.852 298.52 223.998C303.474 219.746 306.695 214.589 307.513 207.952C308.362 201.062 309.731 194.233 310.502 187.337C312.23 171.877 310.278 156.741 306.015 141.144C306.507 139.439 307.183 137.757 307.397 136.018C307.477 135.365 306.482 134.58 306.044 133.04C308.176 119.871 309.408 106.712 308.159 93.3035C304.785 57.0759 287.904 30.8969 253.081 17.6811C228.319 8.28324 203.833 7.46886 180.613 21.7605C155.724 37.0794 141.155 59.27 140.367 88.9763C140.032 101.571 141.162 114.284 142.637 126.824C144.068 138.995 146.202 151.161 149.153 163.05C151.26 171.542 155.332 179.507 162.65 185.906C162.927 186.85 163.204 187.794 162.99 189.282C160.959 192.022 158.928 194.763 156.135 197.601Z" fill="#FEFEFE"/>
<path d="M100.227 259.909C105.834 257.891 111.441 255.872 117.622 254.14C120.449 259.426 122.424 264.573 124.999 269.402C150.68 317.569 211.977 338.554 257.553 331.714C290.247 326.808 316.543 309.998 338.167 285.559C344.871 277.983 350.792 269.714 357.071 261.763C367.497 266.294 374.935 274.474 381.845 282.971C400.045 305.351 411.287 331.45 420.931 358.312C436.407 401.417 446.11 445.959 453.733 491.009C453.918 492.098 453.756 493.246 453.756 494.89C418.509 494.89 383.582 494.89 348.602 494.447C348.754 493.213 349.048 492.432 349.152 491.626C354.994 446.651 356.894 401.505 354.97 356.197C354.927 355.171 354.471 354.162 354.207 353.145C353.787 353.159 353.366 353.173 352.946 353.187C352.83 354.982 352.566 356.782 352.62 358.572C353.72 395.36 353.066 432.087 349.209 468.725C348.308 477.285 347.801 485.887 347.113 494.47C345.308 494.635 343.503 494.943 341.698 494.944C235.654 494.967 129.609 494.965 23.565 494.963C17.1046 494.962 17.0683 494.952 17.0397 488.257C16.9822 474.773 16.9684 461.289 17.2564 447.656C17.6975 448.159 17.8198 448.811 17.9398 449.463C20.095 461.181 22.9426 472.641 31.7707 481.424C40.3467 489.957 51.8764 490.799 60.8993 482.763C65.2542 478.885 68.7919 473.719 71.5957 468.538C79.7518 453.469 83.7241 436.927 86.9178 420.248C94.9761 378.164 97.7665 335.563 98.9966 292.82C99.3124 281.847 99.8119 270.879 100.227 259.909ZM99.7647 421.548C100.371 396.861 106.781 373.061 111.468 348.998C106.836 354.203 95.573 408.409 96.9136 434.121C97.9757 454.492 100.687 474.452 108.616 493.487C102.464 470.207 98.6578 446.67 99.7647 421.548Z" fill="#FFA7BE"/>
<path d="M100.208 259.504C99.812 270.879 99.3124 281.847 98.9966 292.82C97.7666 335.563 94.9761 378.164 86.9178 420.248C83.7241 436.927 79.7518 453.469 71.5957 468.539C68.7919 473.719 65.2542 478.885 60.8993 482.764C51.8764 490.799 40.3468 489.957 31.7707 481.424C22.9426 472.641 20.095 461.181 17.9399 449.464C17.8199 448.811 17.6976 448.159 17.3519 447.188C11.612 394.861 20.4679 344.021 29.224 293.113C32.8566 271.993 35.0705 250.63 37.9841 229.385C40.9674 207.632 43.9877 185.884 47.0845 164.146C47.3929 161.981 48.3444 159.908 49.6171 157.843C53.4199 167.573 52.7594 177.794 54.3725 187.917C58.2277 172.341 62.0829 156.765 65.9381 141.189C66.902 141.314 67.8658 141.439 68.8297 141.564C68.8447 147.587 69.0659 153.617 68.8171 159.629C68.566 165.696 67.8487 171.744 67.8622 177.95C72.6999 165.582 73.2647 151.825 79.4425 139.925C80.0184 139.951 80.5943 139.976 81.1702 140.002C81.3437 143.959 81.9257 147.949 81.6163 151.868C80.5555 165.305 79.1821 178.718 77.4336 192.628C67.2007 192.971 57.486 193.091 47.9081 194.727C47.9432 195.164 47.9783 195.6 48.0133 196.036C60.8789 196.036 73.7444 196.036 86.6099 196.036C86.6529 195.599 86.6959 195.162 86.7389 194.724C84.788 194.184 82.8372 193.643 80.8864 193.102C84.4859 175.802 88.1628 158.523 95.2473 142.055C97.2852 162.771 94.8372 183.248 93.0261 204.448C84.1171 212.593 77.1162 221.299 72.1699 231.642C73.3238 231.516 74.2841 231.134 74.6972 230.43C83.1128 216.093 95.7283 205.712 108.192 195.279C111.017 192.914 115.178 192.146 118.724 190.644C118.158 193.518 118.294 196.794 116.915 199.202C106.274 217.79 102.013 238.088 100.208 259.504ZM67.3754 182.059C67.0601 182.372 66.7448 182.685 66.4295 182.999C66.6413 183.179 66.8531 183.36 67.065 183.54C67.3773 183.034 67.6897 182.528 68.4067 181.761C68.3892 181.402 68.3717 181.043 68.3542 180.684C68.2159 181.112 68.0776 181.54 67.3754 182.059Z" fill="#DC5E2B"/>
<path d="M305.945 141.866C310.278 156.741 312.23 171.877 310.502 187.336C309.732 194.233 308.362 201.062 307.513 207.952C306.695 214.589 303.474 219.746 297.778 224.175C272.132 227.928 224.029 221.546 216.181 213.624C236.659 208.228 266.708 190.595 269.875 181.821C268.453 182.264 267.258 182.636 266.006 182.606C269.719 167.613 270.833 152.792 269.855 137.357C268.922 128.853 268.403 120.691 266.875 112.721C262.864 91.8009 255.368 72.4409 239.645 57.2359C230.965 48.8414 220.937 43.4523 208.252 44.2312C207.908 44.2868 207.71 44.2823 207.061 44.2496C187.041 45.9119 174.262 57.6459 163.961 73.0147C163.987 73.0124 163.983 72.9595 163.649 73.0541C163.095 73.9096 162.874 74.6705 162.471 75.6575C161.852 76.5232 161.417 77.163 160.707 77.9208C160.267 78.3654 160.101 78.6918 159.96 79.015C159.986 79.0117 159.978 78.9603 159.645 79.0564C156.82 83.6301 153.923 87.94 151.972 92.6422C150.587 95.9788 150.478 99.8448 149.77 103.913C150.156 115.14 149.869 126.016 151.177 136.696C152.581 148.167 155.181 159.525 157.825 170.8C160.095 180.479 166.779 186.008 176.468 187.988C180.992 188.912 185.497 189.925 189.989 191.376C189.973 198.317 189.98 204.781 189.62 211.229C179.274 206.019 172.065 198.043 166.274 188.571C165.439 187.205 163.854 186.297 162.616 185.177C155.332 179.507 151.26 171.542 149.153 163.05C146.202 151.161 144.069 138.995 142.637 126.824C141.162 114.284 140.032 101.571 140.367 88.9762C141.155 59.2699 155.724 37.0793 180.613 21.7604C203.833 7.46875 228.319 8.28313 253.081 17.681C287.904 30.8968 304.786 57.0758 308.159 93.3034C309.408 106.712 308.176 119.871 305.865 133.783C305.458 134.969 305.175 135.393 305.01 135.859C294.852 164.479 280.534 190.796 261.53 214.531C260.809 215.431 260.438 216.612 259.904 217.661C260.693 218.363 261.481 219.064 262.27 219.765C262.898 218.245 263.303 216.58 264.188 215.228C272.655 202.299 281.824 189.782 289.535 176.422C295.888 165.412 300.54 153.422 305.945 141.866Z" fill="#7091B2"/>
<path d="M357.043 261.429C350.792 269.715 344.871 277.983 338.167 285.559C316.543 309.998 290.247 326.808 257.553 331.714C211.977 338.554 150.68 317.57 124.999 269.402C122.425 264.574 120.449 259.426 118.007 254.09C116.518 250.361 118.106 247.892 120.121 245.279C131.597 230.399 142.946 215.421 154.643 200.691C155.651 219.594 161.945 236.07 174.939 249.635C192.763 268.242 215.742 274.822 240.469 275.816C275.144 277.211 304.526 264.677 328.729 239.884C339.592 245.042 349.59 251.353 357.043 261.429Z" fill="#7091B3"/>
<path d="M297.968 226.905C307.188 230.579 316.409 234.253 325.712 238.492C295.936 268.75 260.263 278.98 219.224 270.452C201.013 266.668 185.055 258.577 173.066 243.793C162.119 230.295 157.893 214.468 156.897 197.503C158.928 194.763 160.959 192.022 163.457 189.254C168.964 195.794 174.004 202.36 178.978 208.842C177.608 208.597 175.969 208.304 174.33 208.011C177.928 212.592 183 213.114 187.973 214.054C198.015 215.952 208.261 214.036 218.394 217.91C243.994 227.699 270.768 229.851 297.968 226.905Z" fill="#7090B2"/>
<path d="M156.516 197.552C157.893 214.468 162.119 230.295 173.066 243.793C185.055 258.577 201.013 266.668 219.224 270.452C260.263 278.98 295.936 268.75 325.951 238.714C326.884 238.669 327.661 238.968 328.584 239.575C304.526 264.677 275.144 277.211 240.468 275.816C215.742 274.822 192.763 268.242 174.939 249.635C161.945 236.07 155.651 219.594 154.878 200.467C155.25 199.219 155.693 198.41 156.516 197.552Z" fill="#301013"/>
<path d="M298.007 226.559C270.768 229.851 243.994 227.698 218.394 217.91C208.261 214.035 198.015 215.952 187.974 214.054C183.001 213.114 177.928 212.592 174.33 208.011C175.969 208.304 177.609 208.597 178.978 208.842C174.004 202.36 168.965 195.794 163.703 188.983C163.204 187.794 162.927 186.85 162.633 185.542C163.854 186.297 165.439 187.205 166.274 188.571C172.065 198.043 179.274 206.019 189.949 211.469C198.738 211.468 206.957 212.013 214.897 210.771C226.737 208.919 237.869 204.61 247.815 197.019C248.447 196.656 248.733 196.331 248.992 196.01C248.965 196.013 248.99 196.061 249.341 196.037C255.148 191.677 260.605 187.343 266.062 183.009C267.258 182.636 268.453 182.264 269.874 181.822C266.708 190.595 236.659 208.228 216.181 213.624C224.029 221.546 272.131 227.928 297.434 224.262C297.904 224.852 297.975 225.532 298.007 226.559Z" fill="#310F10"/>
<path d="M347.31 494.49C347.801 485.887 348.308 477.285 349.209 468.725C353.066 432.088 353.719 395.36 352.62 358.572C352.566 356.782 352.83 354.982 352.946 353.187C353.366 353.173 353.787 353.159 354.207 353.145C354.471 354.162 354.927 355.171 354.97 356.197C356.893 401.505 354.994 446.651 349.152 491.626C349.048 492.432 348.754 493.213 348.225 494.276C347.9 494.548 347.506 494.51 347.31 494.49Z" fill="#431517"/>
<path d="M305.98 141.505C300.54 153.422 295.888 165.413 289.535 176.422C281.824 189.782 272.655 202.3 264.188 215.228C263.303 216.58 262.898 218.246 262.27 219.766C261.481 219.064 260.693 218.363 259.904 217.661C260.438 216.612 260.809 215.431 261.53 214.531C280.534 190.796 294.852 164.479 305.01 135.859C305.175 135.393 305.458 134.969 305.832 134.19C306.482 134.58 307.477 135.365 307.397 136.018C307.184 137.757 306.507 139.439 305.98 141.505Z" fill="#311113"/>
<path d="M118.862 190.283C115.178 192.146 111.017 192.914 108.192 195.279C95.7284 205.712 83.1129 216.093 74.6972 230.43C74.2842 231.134 73.3239 231.516 72.1699 231.642C77.1162 221.299 84.1172 212.593 92.9389 204.893C97.223 201.119 101.218 197.456 105.476 194.128C108.289 191.931 111.352 189.942 114.574 188.445C115.599 187.969 117.499 189.377 118.862 190.283Z" fill="#3E0F09"/>
<path d="M80.5093 193.2C82.8371 193.643 84.7879 194.183 86.7387 194.724C86.6958 195.161 86.6528 195.599 86.6098 196.036C73.7443 196.036 60.8787 196.036 48.0132 196.036C47.9781 195.6 47.9431 195.164 47.908 194.727C57.4859 193.091 67.2006 192.971 77.3965 193.063C78.6132 193.106 79.3728 193.202 80.5093 193.2Z" fill="#440F07"/>
<path d="M99.7404 422.041C98.6577 446.67 102.464 470.207 108.616 493.487C100.687 474.452 97.9756 454.493 96.9135 434.121C95.5729 408.409 106.836 354.203 111.468 348.998C106.781 373.061 100.371 396.861 99.7404 422.041Z" fill="#421517"/>
<path d="M68.002 182.021C67.6897 182.528 67.3773 183.034 67.0649 183.54C66.8531 183.36 66.6413 183.179 66.4294 182.999C66.7447 182.685 67.06 182.372 67.6721 182.028C67.9689 181.997 68.002 182.021 68.002 182.021Z" fill="#DD6130"/>
<path d="M67.9541 181.982C68.0776 181.54 68.2159 181.112 68.3542 180.684C68.3717 181.043 68.3892 181.402 68.2044 181.891C68.0021 182.021 67.9689 181.997 67.9541 181.982Z" fill="#DD6130"/>
<path d="M266.006 182.606C260.605 187.343 255.148 191.677 249.287 195.651C249.593 193.41 250.304 191.53 251.293 188.916C249.162 189.211 247.914 189.419 246.657 189.552C235.839 190.696 225.039 192.4 214.193 192.772C206.163 193.048 198.074 191.586 190.011 190.898C185.497 189.925 180.992 188.912 176.468 187.988C166.779 186.008 160.095 180.479 157.825 170.8C155.181 159.525 152.581 148.167 151.177 136.696C149.869 126.016 150.156 115.14 150.097 103.71C153.627 95.0332 156.803 86.9967 159.978 78.9603C159.978 78.9603 159.986 79.0117 160.3 79.0331C160.737 78.6372 160.859 78.22 160.981 77.8027C161.417 77.163 161.852 76.5232 162.738 75.498C163.453 74.3948 163.718 73.6772 163.983 72.9595C163.983 72.9595 163.987 73.0124 164.308 73.1516C169.926 68.06 176.896 66.3687 183.653 64.1126C194.138 60.6118 202.172 54.0083 207.513 44.2495C207.71 44.2823 207.908 44.2868 208.387 44.5672C212.453 48.2942 215.902 52.2273 220.109 55.015C225.765 58.7628 232.026 61.592 237.992 64.8788C244.796 68.6268 248.303 74.4855 249.056 82.1683C249.575 87.4578 250.113 92.7601 251.001 97.9959C253.544 112.995 258.375 126.965 269.809 137.785C270.833 152.792 269.719 167.613 266.006 182.606ZM234.285 86.9996C230.708 86.5111 227.14 85.7992 223.55 85.6666C222.434 85.6254 220.406 87.0687 220.314 87.984C220.182 89.3147 221.062 91.5546 222.143 92.0656C228.58 95.1063 235.25 95.7043 241.938 93.2776C242.166 92.7188 242.393 92.16 242.621 91.6013C240.098 90.1326 237.575 88.6638 234.285 86.9996ZM173.599 95.4593C175.916 94.6024 178.469 94.0978 180.463 92.7594C181.704 91.9262 182.872 89.6863 182.62 88.3514C182.43 87.3412 179.669 85.823 178.525 86.1555C173.356 87.6565 168.303 89.6132 163.339 91.7137C162.383 92.1183 162.011 93.9032 161.006 95.7011C165.615 95.7011 169.195 95.7011 173.599 95.4593ZM198.791 137.814C200.962 138.626 203.133 139.437 205.304 140.249C205.465 139.748 205.625 139.247 205.785 138.746C204.693 138.111 203.656 137.341 202.499 136.864C195.966 134.172 192.892 129.328 193.87 122.343C194.785 115.804 196.15 109.33 197.283 102.821C197.586 101.081 197.762 99.3194 197.996 97.5677C197.502 97.5038 197.008 97.4399 196.515 97.376C193.343 105.8 191.395 114.52 191.048 123.598C190.822 129.505 192.875 134.312 198.791 137.814ZM176.818 119.801C177.781 117.728 180.038 115.025 179.407 113.727C178.436 111.731 175.27 109.352 173.43 109.641C171.644 109.923 169.189 113.311 169.095 115.427C168.907 119.663 172.267 120.634 176.818 119.801ZM227.221 110.763C225.246 113.637 225.202 116.666 228.157 118.51C229.739 119.497 232.859 119.708 234.3 118.765C235.78 117.795 236.882 114.912 236.694 113.01C236.31 109.122 232.428 108.09 227.221 110.763ZM218.623 142.04C212.579 148.853 205.158 150.584 196.387 147.336C200.441 151.835 207.72 152.684 213.249 149.168C215.764 147.568 217.341 144.493 218.623 142.04Z" fill="#DB5D2A"/>
<path d="M269.855 137.357C258.375 126.965 253.544 112.995 251.001 97.9961C250.113 92.7603 249.575 87.458 249.056 82.1685C248.303 74.4857 244.796 68.627 237.992 64.879C232.026 61.5923 225.765 58.763 220.109 55.0152C215.902 52.2275 212.453 48.2944 208.532 44.5355C220.937 43.4525 230.965 48.8416 239.645 57.2361C255.368 72.4411 262.864 91.8011 266.875 112.721C268.403 120.691 268.922 128.854 269.855 137.357Z" fill="#2C0403"/>
<path d="M189.989 191.376C198.074 191.586 206.163 193.048 214.193 192.772C225.039 192.4 235.839 190.696 246.658 189.552C247.914 189.419 249.162 189.211 251.293 188.917C250.304 191.53 249.593 193.41 248.936 195.676C248.99 196.062 248.965 196.013 248.683 196.093C248.091 196.467 247.781 196.762 247.47 197.057C237.869 204.61 226.737 208.919 214.897 210.771C206.957 212.013 198.738 211.468 190.315 211.484C189.98 204.781 189.973 198.317 189.989 191.376Z" fill="#812F15"/>
<path d="M207.061 44.2498C202.172 54.0085 194.138 60.612 183.653 64.1128C176.896 66.3689 169.926 68.0602 164.281 73.154C174.262 57.646 187.041 45.9121 207.061 44.2498Z" fill="#2E0706"/>
<path d="M159.645 79.0564C156.803 86.9968 153.628 95.0332 150.126 103.272C150.478 99.8448 150.587 95.9788 151.971 92.6422C153.923 87.94 156.82 83.6301 159.645 79.0564Z" fill="#340C0A"/>
<path d="M163.649 73.0542C163.718 73.6773 163.453 74.395 162.921 75.2721C162.874 74.6706 163.094 73.9097 163.649 73.0542Z" fill="#2E0706"/>
<path d="M160.707 77.9209C160.859 78.22 160.737 78.6373 160.274 79.0364C160.1 78.6919 160.267 78.3654 160.707 77.9209Z" fill="#340C0A"/>
<path d="M247.815 197.019C247.78 196.762 248.091 196.467 248.71 196.089C248.733 196.331 248.447 196.657 247.815 197.019Z" fill="#DB5D2A"/>
<path d="M234.668 87.0976C237.575 88.6641 240.098 90.1328 242.621 91.6015C242.394 92.1603 242.166 92.719 241.938 93.2778C235.25 95.7045 228.58 95.1065 222.143 92.0658C221.062 91.5549 220.182 89.3149 220.315 87.9843C220.406 87.0689 222.434 85.6257 223.551 85.6669C227.14 85.7994 230.709 86.5114 234.668 87.0976Z" fill="#310502"/>
<path d="M173.187 95.5803C169.195 95.7012 165.615 95.7012 161.006 95.7012C162.011 93.9033 162.383 92.1183 163.339 91.7137C168.303 89.6133 173.356 87.6566 178.525 86.1556C179.669 85.8231 182.43 87.3413 182.62 88.3515C182.872 89.6864 181.704 91.9263 180.463 92.7595C178.469 94.0978 175.916 94.6025 173.187 95.5803Z" fill="#2F0401"/>
<path d="M198.482 137.61C192.875 134.312 190.822 129.505 191.048 123.598C191.394 114.521 193.342 105.8 196.515 97.3762C197.008 97.4401 197.502 97.504 197.996 97.5679C197.762 99.3196 197.585 101.081 197.283 102.821C196.15 109.33 194.785 115.805 193.87 122.343C192.892 129.328 195.966 134.172 202.499 136.864C203.656 137.341 204.693 138.111 205.785 138.746C205.625 139.247 205.464 139.748 205.304 140.249C203.133 139.437 200.962 138.626 198.482 137.61Z" fill="#410D06"/>
<path d="M176.428 119.916C172.267 120.634 168.907 119.663 169.095 115.427C169.189 113.311 171.644 109.923 173.43 109.641C175.27 109.351 178.436 111.731 179.407 113.727C180.038 115.025 177.781 117.728 176.428 119.916Z" fill="#310502"/>
<path d="M227.503 110.479C232.428 108.09 236.31 109.122 236.694 113.01C236.882 114.912 235.78 117.795 234.3 118.765C232.859 119.708 229.739 119.497 228.157 118.51C225.202 116.666 225.246 113.637 227.503 110.479Z" fill="#300502"/>
<path d="M218.983 142.063C217.341 144.493 215.764 147.568 213.249 149.168C207.72 152.684 200.441 151.835 196.387 147.336C205.158 150.584 212.579 148.854 218.983 142.063Z" fill="#380904"/>
</svg>
