<svg width="439" height="432" viewBox="0 0 439 432" fill="none" xmlns="http://www.w3.org/2000/svg">
<path d="M270 415.645C243.702 421.494 217.189 422.618 190.452 418.689C186.129 418.054 181.821 417.333 177.229 416.246C176.908 415.697 176.864 415.555 176.876 415.072C176.229 398.691 174.695 382.636 175.054 366.616C175.436 349.554 177.61 332.526 179.305 315.506C181.861 316.569 184.102 317.632 186.369 318.645C204.652 326.81 223.475 325.924 242.384 321.142C249.141 319.434 255.646 316.884 262.394 315C264.438 332.15 266.861 348.986 268.126 365.896C269.364 382.44 269.423 399.059 270 415.645Z" fill="#FEC17D"/>
<path d="M270.382 414C269.456 397.815 269.396 381.562 268.148 365.383C266.872 348.847 264.429 332.382 262.398 315.297C262.177 314.078 262.076 313.446 261.931 312.822C260.625 307.214 259.311 301.607 258 296C266.229 300.745 274.194 305.921 282.763 310.108C290.61 313.941 299.11 316.705 307.585 320.307C307.949 321.022 308.049 321.372 308.149 321.722C308.328 321.439 308.507 321.156 308.686 320.873C309.786 321.071 310.93 321.156 311.981 321.483C328.856 326.722 345.647 332.188 362.616 337.17C370.847 339.587 376.994 343.824 381.475 350.847C381.837 351.334 381.918 351.463 382 351.591C369.22 366.275 353.664 378.231 336.413 388.482C320.272 398.073 302.923 405.437 284.107 410.314C283.81 408.975 283.838 407.958 284.171 406.91C285.987 405.605 287.498 404.33 289.187 402.962C289.586 402.712 289.754 402.518 290.044 402.192C290.442 401.941 290.608 401.747 290.893 401.421C291.283 401.171 291.445 400.979 291.852 400.709C293.474 399.499 294.797 398.331 296.12 397.162C295.529 396.759 294.937 396.356 294.345 395.953C293.389 397.529 292.433 399.105 291.299 400.771C290.899 401.011 290.732 401.201 290.441 401.521C290.038 401.768 289.871 401.961 289.579 402.285C289.177 402.532 289.009 402.725 288.61 402.999C286.797 404.298 285.272 405.555 283.497 406.939C282.288 408.293 281.33 409.52 280.371 410.747C280.371 410.747 280.346 410.705 280.186 410.769C279.789 410.944 279.612 411.108 279.496 411.324C276.573 412.204 273.65 413.084 270.382 414ZM316.051 377.011C315.828 377.165 315.66 377.358 315.19 377.776C314.966 377.93 314.799 378.123 314.112 378.439C312.578 379.699 311.044 380.959 309.284 382.332C309.395 382.327 309.507 382.322 310.239 382.277C311.759 381.002 313.279 379.728 315.154 378.266C315.376 378.109 315.542 377.915 316.009 377.494C316.23 377.338 316.396 377.144 316.855 376.723C317.072 376.568 317.234 376.375 317.932 376.067C319.174 375.11 320.416 374.154 321.657 373.198C318.226 372.341 317.367 373.861 316.912 376.258C316.689 376.409 316.522 376.598 316.051 377.011ZM298.006 326.083C298.511 325.757 299.016 325.43 299.521 325.104C299.374 324.93 299.227 324.756 299.08 324.582C298.516 324.939 297.953 325.296 297.09 325.737C296.975 325.915 296.804 326.013 296.044 326.308C293.856 327.319 291.669 328.331 289.481 329.342C289.778 329.751 290.076 330.16 290.373 330.568C292.424 329.039 294.475 327.51 296.98 326.112C297.136 326.11 297.293 326.108 298.006 326.083ZM297.344 394.578C298.864 393.304 300.384 392.029 302.13 390.64C302.017 390.645 301.904 390.65 301.216 390.74C299.682 392 298.149 393.26 296.39 394.634C296.501 394.629 296.612 394.624 297.344 394.578ZM305.047 388.367C306.369 387.198 307.692 386.029 309.015 384.86C308.417 384.467 307.82 384.074 307.222 383.681C306.272 385.247 305.321 386.813 304.145 388.485C304.246 388.473 304.347 388.461 305.047 388.367ZM276.137 335.56C275.246 336.059 274.355 336.557 273.055 337.284C274.253 338.242 275.18 338.983 276.348 339.917C276.468 338.164 276.551 336.944 277.022 335.726C281.114 334.097 285.205 332.468 289.297 330.838C289.062 330.423 288.827 330.007 288.592 329.592C284.625 331.602 280.658 333.613 276.137 335.56ZM306.906 321.747C304.032 321.202 302.49 322.698 301.357 324.834C303.21 323.942 305.064 323.049 306.906 321.747ZM289.884 349.759C289.836 349.375 289.789 348.991 289.742 348.607C289.357 348.695 288.973 348.784 288.588 348.872C288.848 349.2 289.109 349.528 289.884 349.759ZM295.424 352.819C294.927 352.733 294.429 352.647 293.932 352.561C293.927 352.876 293.923 353.192 293.919 353.508C294.418 353.433 294.918 353.358 295.424 352.819ZM300.199 357.448C300.152 357.064 300.105 356.68 300.057 356.296C299.673 356.384 299.288 356.472 298.904 356.56C299.164 356.888 299.424 357.216 300.199 357.448ZM307.129 362.999C307.348 362.883 307.677 362.805 307.749 362.638C307.806 362.507 307.543 362.266 307.423 362.074C307.302 362.266 307.181 362.458 307.129 362.999ZM312.287 366.844C312.506 366.727 312.835 366.649 312.908 366.482C312.964 366.351 312.701 366.11 312.58 365.918C312.459 366.11 312.338 366.303 312.287 366.844ZM292.227 351.481C292.144 351.168 292.062 350.855 291.98 350.542C291.875 350.61 291.674 350.691 291.683 350.745C291.732 351.063 291.831 351.375 292.227 351.481ZM301.971 359.155C302.19 359.039 302.519 358.96 302.591 358.793C302.648 358.662 302.385 358.422 302.265 358.23C302.144 358.422 302.023 358.614 301.971 359.155ZM317.765 369.768C317.654 370.07 317.526 370.368 317.449 370.676C317.434 370.737 317.618 370.838 317.71 370.92C317.821 370.618 317.931 370.317 317.765 369.768ZM296.828 354.6C296.91 354.913 296.993 355.226 297.075 355.539C297.18 355.47 297.381 355.39 297.372 355.335C297.323 355.017 297.224 354.706 296.828 354.6ZM281.926 343.081C281.707 343.197 281.377 343.276 281.306 343.442C281.25 343.574 281.512 343.814 281.632 344.006C281.753 343.814 281.874 343.622 281.926 343.081ZM287.084 346.925C286.865 347.042 286.535 347.12 286.464 347.287C286.407 347.418 286.67 347.659 286.79 347.851C286.911 347.659 287.032 347.466 287.084 346.925Z" fill="#341611"/>
<path d="M178.488 316.477C177.089 333.33 174.903 350.168 174.519 367.04C174.158 382.881 175.701 398.757 176.21 415.043C175.845 415.616 175.732 415.793 175.676 416C170.312 414.791 164.875 413.799 159.597 412.333C144.106 408.032 129.348 402.184 115.396 394.673C93.7124 382.999 74.9129 368.324 59 350.241C60.4992 349.291 62.1222 348.585 64.2402 347.741C65.1412 347.38 65.5472 347.158 65.9531 346.935C84.88 340.477 103.791 333.981 122.739 327.574C138.504 322.243 154.129 316.668 168.113 307.955C171.99 305.54 175.892 303.158 180 301C179.641 306.319 179.065 311.398 178.488 316.477ZM122.808 379.502C122.681 379.357 122.534 379.232 122.086 378.732C121.703 378.43 121.319 378.128 120.798 377.457C120.566 377.314 120.334 377.172 119.964 376.66C119.733 376.518 119.502 376.375 119.227 375.802C119.223 375.515 119.218 375.228 119.623 374.827C119.888 374.691 120.054 374.488 120.591 374.08C121.048 373.521 121.505 372.962 121.962 372.403C121.815 372.301 121.668 372.199 121.521 372.096C120.806 372.612 120.09 373.128 119.118 373.802C118.953 373.916 118.808 374.048 118.198 374.474C118.344 375.28 118.49 376.086 118.83 377.148C118.974 377.311 119.14 377.452 119.542 377.876C119.728 378.046 119.924 378.205 120.421 378.728C120.791 379.028 121.162 379.327 121.671 379.994C121.833 380.227 122.063 380.37 122.501 380.792C122.732 380.936 122.963 381.08 123.335 381.594C123.566 381.738 123.798 381.881 124.229 382.471C125.085 383.16 125.941 383.849 126.797 384.538C126.964 384.391 127.132 384.244 127.299 384.097C126.422 383.207 125.544 382.318 124.455 381.097C124.296 380.879 124.092 380.703 123.6 380.255C123.439 380.036 123.232 379.861 122.808 379.502ZM142.113 331.096C140.827 330.533 139.541 329.971 138.255 329.409C138.102 329.701 137.95 329.994 137.797 330.286C139.783 331.234 141.769 332.182 143.756 333.13C143.9 332.908 144.044 332.686 144.187 332.464C143.699 332.088 143.211 331.712 142.113 331.096ZM146.344 333.89C147.818 334.795 149.291 335.7 150.764 336.605C150.998 336.245 151.231 335.886 151.464 335.526C149.938 334.876 148.411 334.226 146.344 333.89ZM134.86 361.778C135.198 361.781 135.535 361.785 135.873 361.788C135.874 361.661 135.885 361.423 135.876 361.423C135.54 361.399 135.202 361.398 134.86 361.778ZM123.716 370.33C124.053 370.333 124.391 370.336 124.729 370.339C124.73 370.212 124.741 369.975 124.731 369.974C124.395 369.951 124.057 369.949 123.716 370.33ZM146.353 352.597C146.349 352.903 146.346 353.209 146.342 353.515C146.482 353.517 146.744 353.526 146.745 353.518C146.77 353.213 146.772 352.907 146.353 352.597ZM157.924 344.077C157.679 344.289 157.435 344.5 157.19 344.712C157.287 344.804 157.463 344.98 157.469 344.975C157.727 344.777 157.97 344.563 157.924 344.077ZM145.669 333.246C145.497 333.142 145.326 333.038 145.154 332.935C145.183 333.168 145.211 333.401 145.669 333.246Z" fill="#351712"/>
<path d="M423.831 243C423.427 242.975 423.022 242.951 421.989 242.897C420.689 242.862 420.018 242.855 419.347 242.849C417.617 242.15 415.888 241.452 414.051 240.432C413.943 240.111 414.041 240 414.041 240C418.805 240.302 423.57 240.604 428.694 240.86C429.061 241.017 429.067 241.22 428.873 241.787C428.439 242.294 428.316 242.502 428.305 242.773C428.305 242.773 428.312 242.731 428.331 242.741C428.191 242.732 428.033 242.712 427.278 242.715C425.731 242.824 424.781 242.912 423.831 243Z" fill="#DED2D0"/>
<path d="M394 336C394.171 334.074 393.616 331.599 398 331C396.995 332.617 395.633 334.239 394 336Z" fill="#7EA8C5"/>
<path d="M284 408.016C283.965 408.819 283.93 409.623 283.894 410.667C282.742 410.932 281.589 410.955 280 411C280.781 410.053 281.998 409.084 283.569 408.041C283.922 407.967 284 408.016 284 408.016Z" fill="#351712"/>
<path d="M388.199 344C387.645 341.724 388.048 339.607 392 339C391.107 340.621 389.8 342.231 388.199 344Z" fill="#7EA8C5"/>
<path d="M418.911 291C417.605 289.188 417.488 287.361 420 286C419.891 287.562 419.499 289.166 418.911 291Z" fill="#7EA8C5"/>
<path d="M402.309 325C399.748 322.487 401.283 321.552 404 321C403.725 322.263 403.126 323.535 402.309 325Z" fill="#7EA8C5"/>
<path d="M416.549 297C414.02 295.767 414.646 294.751 418 294C417.883 294.932 417.357 295.892 416.549 297Z" fill="#7EA8C5"/>
<path d="M410 312C410.246 311.12 410.875 310.074 412 309C411.792 309.926 411.087 310.88 410 312Z" fill="#7EA8C5"/>
<path d="M423.134 278C422.841 277.158 423.007 276.102 423.847 275C424.212 275.898 423.902 276.842 423.134 278Z" fill="#7EA8C5"/>
<path d="M425.413 265C424.871 264.738 424.8 264.379 425.579 264C426.248 264.288 426.066 264.596 425.413 265Z" fill="#7EA8C5"/>
<path d="M427.61 254C426.96 253.224 426.737 252.145 427.402 251C428.205 251.855 428.121 252.776 427.61 254Z" fill="#7EA8C5"/>
<path d="M385 347C385.178 346.433 385.788 345.722 387 345C386.879 345.612 386.156 346.233 385 347Z" fill="#7EA8C5"/>
<path d="M421.13 283C420.838 282.461 421.02 281.744 421.854 281C422.206 281.589 421.905 282.206 421.13 283Z" fill="#7EA8C5"/>
<path d="M176.078 415.88C175.883 415.065 176.059 414.608 176.543 414C176.832 414.136 176.901 414.499 177 415.425C176.807 416.047 176.584 416.104 176.078 415.88Z" fill="#351712"/>
<path d="M428.185 243C427.797 242.17 428.028 241.579 428.804 241C429.193 241.699 429.011 242.442 428.185 243Z" fill="#7EA8C5"/>
<path d="M179 315.813C179.27 310.695 179.843 305.6 180.491 300.113C181.259 297.48 181.952 295.239 183.003 292.794C196.877 299.964 211.391 302.851 226.933 300.174C237.338 298.382 246.933 294.756 254.879 288.015C254.919 288.003 255.001 288 255.001 288C255.077 288.529 255.153 289.058 255.307 290.078C255.901 290.912 256.417 291.255 256.932 291.599C257.115 292.703 257.299 293.807 257.624 295.165C259.066 301.107 260.369 306.794 261.664 312.482C261.809 313.115 261.908 313.757 262 314.713C255.35 317.18 248.844 319.709 242.087 321.404C223.175 326.147 204.35 327.026 186.065 318.927C183.798 317.922 181.556 316.868 179 315.813Z" fill="#FE8476"/>
<path d="M256 288.125C247.968 294.725 238.22 298.281 227.65 300.039C211.862 302.664 197.117 299.833 183.103 292.519C182.923 289.939 183.025 287.442 183.07 284.612C206.939 286.802 230.572 285.522 254.236 280C254.896 282.172 255.195 284.348 255.614 287.09C255.823 287.812 255.911 287.969 256 288.125Z" fill="#361712"/>
<path d="M336 319.952C338.315 313.129 340.751 306.338 342.902 299.472C344.283 295.06 345.244 290.538 346.595 285.585C346.865 284.668 346.933 284.233 347.002 283.797C347.054 283.461 347.105 283.125 347.365 282.357C347.662 281.262 347.752 280.6 347.842 279.938C349.023 272.218 350.203 264.499 351.646 256.404C352.272 256.018 352.636 256.009 353 256C352.414 260.906 351.827 265.813 351.04 271.239C350.764 272.423 350.689 273.087 350.613 273.751C350.547 274.32 350.48 274.889 350.212 275.927C349.925 277.058 349.841 277.721 349.756 278.384C349.116 281.488 348.476 284.592 347.632 288.178C347.354 289.096 347.279 289.531 347.204 289.967C346.021 294.113 344.837 298.259 343.442 302.868C343.133 303.768 343.037 304.203 342.941 304.639C342.031 307.436 341.122 310.232 340.007 313.496C339.418 314.711 339.032 315.46 338.647 316.209C337.995 317.416 337.343 318.622 336.415 319.946C336.139 320.064 336 319.952 336 319.952Z" fill="#D6CECF"/>
<path d="M352.463 254.214C352.926 254.018 353.274 254.017 353.88 254C354.085 254.617 354.031 255.25 353.691 255.914C353.033 255.952 352.662 255.96 352.015 256C351.942 255.492 352.145 254.951 352.463 254.214Z" fill="#7EA8C5"/>
<path d="M336 320.101C336.005 320.732 335.96 321.303 335.748 322.321C335.478 323.223 335.375 323.679 335.271 324.135C335.021 324.408 334.771 324.682 334.317 324.993C334.113 325.03 334 324.91 334 324.91C334.496 323.351 334.993 321.791 335.667 320.076C335.844 319.921 335.948 320.041 336 320.101Z" fill="#D6CECF"/>
<path d="M410 238.07C410.667 237.962 411.605 237.982 412.807 238.106C413.335 238.595 413.598 238.98 413.958 239.587C414.054 239.81 413.963 239.935 413.916 240C412.669 239.443 411.47 238.82 410 238.07Z" fill="#DED2D0"/>
<path d="M351.297 273C350.764 272.709 350.977 272.398 351.715 272C352.174 272.269 352.108 272.624 351.297 273Z" fill="#7EA8C5"/>
<path d="M256.004 286C256.911 286.374 257.456 286.98 258 287.586C257.534 287.724 257.068 287.862 256.603 288C256.282 287.411 255.961 286.822 256.004 286Z" fill="#87A6BF"/>
<path d="M347.763 280C348.228 280.878 347.988 281.814 347.225 283C346.82 282.186 346.939 281.122 347.763 280Z" fill="#7EA8C5"/>
<path d="M350.261 278C349.767 277.416 349.998 276.794 350.751 276C351.178 276.54 351.082 277.25 350.261 278Z" fill="#7EA8C5"/>
<path d="M339 317C339.07 316.403 339.431 315.771 340 315C339.902 315.563 339.597 316.264 339 317Z" fill="#7EA8C5"/>
<path d="M346.689 285C347.24 285.281 347.027 285.584 346.299 286C345.831 285.75 345.877 285.386 346.689 285Z" fill="#7EA8C5"/>
<path d="M335.11 325C334.809 324.417 335.142 323.815 335.909 323C336.143 323.519 335.943 324.25 335.11 325Z" fill="#7EA8C5"/>
<path d="M343.209 305C342.772 304.716 343.043 304.413 343.807 304C344.172 304.254 344.044 304.617 343.209 305Z" fill="#7EA8C5"/>
<path d="M334 325.147C333.94 326.159 333.795 327.079 333.649 328C333.433 327.952 333.216 327.904 333 327.855C333.103 327.034 333.205 326.212 333.525 325.133C333.743 324.875 333.915 325.056 334 325.147Z" fill="#D6CECF"/>
<path d="M309 320.26C308.9 320.576 308.656 320.788 308.413 321C308.277 320.738 308.141 320.475 308 320.065C308.358 319.93 308.645 320.01 309 320.26Z" fill="#351712"/>
<path d="M75.5038 255.209C74.2706 263.013 73.0751 270.492 71.875 278C68.8556 272.423 74.1605 249.252 80 244C78.3825 247.948 76.962 251.416 75.5038 255.209Z" fill="#D8CFCF"/>
<path d="M65.7256 346.022C65.2479 346.579 64.7682 346.799 64 347C64.9551 337.987 66.1987 328.994 67.4422 320C67.9615 320.03 68.4807 320.06 69 320.09C67.9078 328.621 66.8157 337.153 65.7256 346.022Z" fill="#D3CCCD"/>
<path d="M70.4053 300.23C70.3004 302.715 70.2029 304.857 70.1054 307C69.7369 306.97 69.3685 306.939 69 306.909C69.3176 302.273 69.6351 297.636 69.9527 293C70.3018 293.024 70.6509 293.048 71 293.072C70.8042 295.344 70.6085 297.616 70.4053 300.23Z" fill="#D8CFCF"/>
<path d="M133.758 242.294C133.967 242.5 133.986 242.834 134 243C129.009 241.824 124.005 240.483 119 239.141C119.145 238.761 119.29 238.38 119.434 238C124.139 239.363 128.844 240.726 133.758 242.294Z" fill="#D8CFCF"/>
<path d="M81 241.174C80.7939 241.783 80.5878 242.391 80.3817 243C80.2545 242.866 80.1272 242.732 80 242.598C80.165 242.063 80.3299 241.528 80.6995 241C80.9041 241.007 81 241.174 81 241.174Z" fill="#D8CFCF"/>
<path d="M83 239.672C83.0269 238.926 83.1786 238.441 83.6285 238.006C83.8671 237.955 84 238.257 84 238.257C83.9264 238.876 83.7739 239.36 83.3709 239.926C83.1994 240.143 83.0655 239.831 83 239.672Z" fill="#D8CFCF"/>
<path d="M277.01 335.899C280.783 333.599 284.556 331.3 288.329 329C288.553 329.475 288.776 329.951 289 330.426C285.108 332.29 281.216 334.153 277.136 336C276.948 335.983 277.01 335.899 277.01 335.899Z" fill="#C4A79E"/>
<path d="M304 388.981C305.023 387.321 306.046 385.66 307.07 384C307.713 384.417 308.357 384.834 309 385.25C307.576 386.49 306.152 387.729 304.386 388.992C304.045 389.015 304 388.981 304 388.981Z" fill="#351712"/>
<path d="M292 401.982C292.824 400.321 293.647 398.661 294.471 397C294.981 397.425 295.49 397.849 296 398.274C294.86 399.506 293.721 400.737 292.309 401.992C292.036 402.015 292 401.982 292 401.982Z" fill="#351712"/>
<path d="M317 375.984C317.114 373.866 318.092 372.414 322 373.231C320.586 374.145 319.172 375.059 317.402 375.993C317.046 376.013 317 375.984 317 375.984Z" fill="#351712"/>
<path d="M296.999 326C294.961 327.667 292.924 329.333 290.886 331C290.591 330.555 290.295 330.109 290 329.664C292.173 328.562 294.347 327.459 296.775 326.193C297.029 326.03 296.999 326 296.999 326Z" fill="#C4A79E"/>
<path d="M307 321.255C305.004 322.681 303.002 323.84 301 325C302.224 322.225 303.89 320.28 307 321.255Z" fill="#351712"/>
<path d="M297 394.96C298.45 393.978 299.9 392.996 301.646 392.002C301.942 391.991 302 392.025 302 392.025C300.563 393.019 299.126 394.012 297.373 395C297.056 394.995 297 394.96 297 394.96Z" fill="#351712"/>
<path d="M315 379.025C313.563 380.018 312.126 381.012 310.373 382C310.056 381.995 310 381.96 310 381.96C311.45 380.978 312.901 379.996 314.647 379.002C314.942 378.991 315 379.025 315 379.025Z" fill="#351712"/>
<path d="M284 407.906C285.43 406.251 286.887 404.637 288.643 403.004C288.942 402.985 289 403.041 289 403.041C287.556 404.678 286.113 406.315 284.378 407.99C284.086 408.028 284.027 407.948 284 407.906Z" fill="#351712"/>
<path d="M276.816 336C277.048 336.036 276.993 336.121 276.997 336.137C276.93 337.563 276.861 338.974 276.76 341C275.781 339.921 275.004 339.064 274 337.957C275.09 337.116 275.837 336.54 276.816 336Z" fill="#351712"/>
<path d="M289.869 350C289.436 349.767 289.218 349.494 289 349.221C289.322 349.147 289.644 349.074 289.966 349C290.006 349.32 290.045 349.64 289.869 350Z" fill="#351712"/>
<path d="M299.869 358C299.436 357.767 299.218 357.494 299 357.221C299.322 357.147 299.644 357.074 299.966 357C300.006 357.32 300.045 357.64 299.869 358Z" fill="#351712"/>
<path d="M298.003 325.762C298.267 325.508 298.53 325.254 298.794 325C298.863 325.124 298.931 325.248 299 325.372C298.764 325.604 298.528 325.836 298.13 326C297.968 325.932 298.003 325.762 298.003 325.762Z" fill="#351712"/>
<path d="M312 367.951C312.13 366.999 312.313 366.499 312.495 366C312.677 366.499 313.073 367.125 312.988 367.464C312.879 367.898 312.382 368.101 312 367.951Z" fill="#351712"/>
<path d="M302 359.951C302.13 358.998 302.313 358.499 302.495 358C302.677 358.499 303.073 359.124 302.988 359.465C302.88 359.898 302.382 360.101 302 359.951Z" fill="#351712"/>
<path d="M287 347.049C286.87 348.001 286.687 348.501 286.505 349C286.323 348.501 285.927 347.876 286.012 347.535C286.12 347.102 286.618 346.899 287 347.049Z" fill="#351712"/>
<path d="M291 402.963C291.1 402.636 291.287 402.391 291.735 402.079C291.934 401.962 291.98 402.003 292 402.028C291.899 402.349 291.717 402.598 291.28 402.922C291.085 403.045 291.025 402.994 291 402.963Z" fill="#351712"/>
<path d="M316 377.036C315.881 377.656 315.704 378.176 315.28 378.847C315.091 379.098 315.026 378.981 315 378.908C315.091 378.213 315.269 377.695 315.722 377.102C315.938 376.921 316 377.036 316 377.036Z" fill="#351712"/>
<path d="M316 376.964C316.1 376.637 316.288 376.391 316.736 376.079C316.936 375.963 316.981 376.002 317 376.026C316.899 376.348 316.717 376.597 316.279 376.922C316.083 377.044 316.025 376.994 316 376.964Z" fill="#351712"/>
<path d="M142.338 330.942C143.083 331.476 143.541 331.88 144 332.285C143.865 332.523 143.73 332.762 143.595 333C141.73 331.981 139.865 330.962 138 329.943C138.143 329.629 138.286 329.314 138.429 329C139.637 329.605 140.845 330.209 142.338 330.942Z" fill="#C1A59B"/>
<path d="M147 333C148.852 333.515 150.426 334.194 152 334.873C151.759 335.248 151.519 335.624 151.278 336C149.759 335.055 148.24 334.109 147 333Z" fill="#C1A59B"/>
<path d="M124.501 381C125.667 381.858 126.834 382.716 128 383.575C127.777 383.716 127.555 383.858 127.332 384C126.195 383.335 125.057 382.671 124 381.648C124.221 381.193 124.361 381.097 124.501 381Z" fill="#C2A69D"/>
<path d="M119 372.628C119.83 372.085 120.659 371.543 121.489 371C121.659 371.107 121.83 371.215 122 371.322C121.47 371.91 120.94 372.498 119.929 373C119.299 372.819 119.149 372.723 119 372.628Z" fill="#C2A69D"/>
<path d="M118.244 376C118.053 375.316 117.863 374.632 118.137 374C118.733 374.149 118.865 374.247 118.998 374.345C119.004 374.588 119.01 374.832 118.829 375.393C118.509 375.808 118.376 375.904 118.244 376Z" fill="#C2A69D"/>
<path d="M121.295 377C121.548 377.336 121.8 377.671 122 378.345C121.861 378.789 121.774 378.895 121.688 379C121.444 378.667 121.199 378.335 121 377.662C121.128 377.215 121.212 377.107 121.295 377Z" fill="#C2A69D"/>
<path d="M120.377 376C120.566 376.118 120.755 376.237 121 376.508C120.954 376.742 120.851 376.822 120.575 377C120.233 376.975 120.073 376.843 120 376.473C120.178 376.162 120.278 376.081 120.377 376Z" fill="#C2A69D"/>
<path d="M119.971 373.297C120.067 373.659 119.926 373.834 119.527 374C119.268 373.95 119.182 373.851 119 373.581C119.01 373.28 119.133 373.166 119.382 373C119.6 373.011 119.709 373.089 119.971 373.297Z" fill="#C2A69D"/>
<path d="M119.287 376.001C119.592 375.985 119.769 376.12 120 376.43C119.959 376.696 119.865 376.789 119.615 377C119.313 377.005 119.185 376.871 119 376.596C119.003 376.368 119.082 376.26 119.287 376.001Z" fill="#C2A69D"/>
<path d="M0 190.899C0.570431 189.945 1.58654 189.432 1.64608 188.827C3.11857 173.861 7.03556 159.469 12.0054 145.338C19.6466 123.612 30.2459 103.419 44.742 85.4015C51.4772 77.0302 58.2617 68.5824 65.9488 61.1048C80.2954 47.1495 96.3417 35.347 114.099 25.7625C131.657 16.2857 150.222 9.59257 169.587 5.34392C180.839 2.87533 192.489 2.06979 204.001 0.9304C211.173 0.220558 218.442 -0.190238 225.635 0.0875613C249.63 1.01425 273.065 5.1076 295.76 13.1187C316.175 20.3248 335.237 30.1595 352.392 43.1904C362.103 50.567 371.199 58.9151 379.665 67.6866C391.405 79.8495 401.281 93.5476 409.637 108.268C417.488 122.1 424.529 136.337 428.637 151.708C432.027 164.392 434.441 177.331 437.329 190.148C437.469 190.766 438.017 191.294 438.687 191.608C439 208.378 439 225.404 439 242.83C438.43 243.784 437.428 244.287 437.351 244.904C434.945 264.33 429.373 282.865 421.625 300.811C413.578 319.45 403.314 336.825 390.172 352.323C372.604 373.039 352.238 390.516 328.226 403.792C308.074 414.935 286.685 422.627 264.307 427.527C254.538 429.666 244.386 430.176 234.378 431.119C228.049 431.715 221.653 432.148 215.309 431.953C195.058 431.33 175.135 428.561 155.652 422.729C133.712 416.161 113.371 406.425 94.379 393.775C79.048 383.565 65.6392 371.124 53.3792 357.606C39.9074 342.752 28.8432 326.084 20.2656 307.947C12.5288 291.588 6.52563 274.622 3.4022 256.737C2.6308 252.32 1.55895 247.955 0.312609 243.822C-2.55532e-08 226.485 0 208.892 0 190.899ZM19.1069 170.554C19.0801 171.305 19.0533 172.056 18.8026 173.429C18.5424 174.382 18.2184 175.322 18.0315 176.288C12.9752 202.435 12.8306 228.613 18.0101 254.734C24.4285 287.103 37.9262 316.266 59.2012 342.455C74.9932 361.968 93.7961 378.022 115.484 390.792C129.439 399.009 144.199 405.406 159.693 410.111C164.971 411.715 170.41 412.8 176.137 414.362C176.279 414.338 176.422 414.313 177.084 414.689C181.423 415.426 185.755 416.206 190.102 416.893C216.989 421.142 243.651 419.927 270.785 413.522C273.701 412.548 276.616 411.574 279.979 410.684C280.129 410.436 280.278 410.187 280.379 409.916C280.379 409.916 280.404 409.963 281.089 409.903C281.995 409.87 282.901 409.837 284.454 409.839C302.899 404.089 320.203 395.943 336.301 385.334C353.508 373.995 369.024 360.771 382.147 344.351C382.345 344.141 382.458 343.894 382.975 343.362C383.716 342.338 384.458 341.313 385.613 340.044C385.959 339.517 386.305 338.989 387.093 338.203C387.549 337.488 388.006 336.773 388.945 335.742C390.02 334.14 391.096 332.537 392.588 330.62C393.216 329.604 393.843 328.587 394.946 327.242C396.141 325.317 397.336 323.393 398.899 321.006C400.066 318.938 401.232 316.871 402.807 314.477C403.366 313.405 403.925 312.333 404.837 310.764C406.518 307.264 408.198 303.764 410.307 299.904C410.702 298.872 411.097 297.84 411.84 296.306C413.203 292.8 414.566 289.294 416.35 285.389C416.74 284.092 417.131 282.796 417.824 281.013C418.058 280.104 418.292 279.195 418.946 277.824C419.366 276.213 419.786 274.602 420.52 272.523C420.717 271.619 420.914 270.715 421.51 269.365C421.637 268.589 421.764 267.814 422.198 266.532C422.387 265.576 422.575 264.62 423.165 263.214C423.301 262.222 423.436 261.229 423.891 259.647C424.455 256.489 425.02 253.332 425.902 249.709C425.964 248.967 426.025 248.225 426.248 246.787C426.627 243.674 427.006 240.561 427.66 236.958C427.687 236.214 427.714 235.471 427.878 233.958C427.886 231.101 427.894 228.244 427.867 225.367C427.867 225.367 427.86 225.408 428.277 225.447C428.488 225.238 428.581 224.986 428.596 224.106C428.59 223.91 428.584 223.715 428.669 222.745C428.436 214.685 428.462 206.607 427.923 198.567C426.422 176.184 420.628 154.836 411.54 133.809C411.227 133.422 410.914 133.035 410.492 132.06C407.993 127.135 405.682 122.107 402.96 117.307C395.107 103.461 386.089 90.4309 374.568 78.5489C373.499 77.5117 372.429 76.4745 371.099 74.9624C369.525 73.4727 367.95 71.983 366.082 70.0108C364.973 69.0142 363.863 68.0176 362.501 66.5646C361.713 65.8816 360.925 65.1986 359.923 64.0948C359.432 63.7095 358.941 63.3242 358.061 62.5229C355.633 60.5501 353.23 58.5461 350.774 56.6093C329.096 39.5194 304.831 27.4434 278.218 19.9997C253.688 13.1384 228.703 10.7244 202.764 12.7893C202.132 12.9363 201.499 13.0833 200.086 13.3744C183.126 14.9499 166.612 18.6285 150.65 24.4381C103.207 41.7049 66.6463 72.0422 41.1627 115.312C31.7105 131.362 24.4909 148.405 20.1091 167.136C19.9093 168.145 19.7095 169.154 19.1069 170.554Z" fill="#FEFEFE"/>
<path d="M412.128 133.957C421.224 154.401 427.038 175.682 428.544 197.995C429.085 206.01 429.059 214.062 428.9 222.528C423.932 222.667 419.356 222.377 414.68 221.897C414.307 221.379 414.033 221.05 413.743 220.402C410.683 219.71 410.406 213.713 404.391 216.763C406.911 218.359 408.598 219.426 410.567 220.603C412.095 221.243 413.341 221.774 414.741 222.558C416.555 223.482 418.215 224.153 419.921 225.088C420.791 225.231 421.615 225.11 422.729 224.944C423.407 224.922 423.795 224.946 424.241 225.225C425.402 225.228 426.506 224.976 427.839 224.699C428.219 224.693 428.371 224.712 428.523 224.731C428.515 227.579 428.507 230.427 428.144 233.712C427.86 235.017 427.932 235.886 428.004 236.754C427.624 239.858 427.244 242.961 426.494 246.458C426.149 247.715 426.173 248.578 426.197 249.441C425.631 252.588 425.065 255.736 424.042 259.226C423.513 260.675 423.44 261.782 423.367 262.888C423.178 263.841 422.989 264.794 422.37 266.034C421.863 267.219 421.786 268.117 421.709 269.016C421.511 269.917 421.314 270.818 420.655 271.994C417.796 273.59 417.921 275.419 419.115 277.464C418.881 278.37 418.646 279.277 417.955 280.463C415.302 281.715 414.836 283.084 416.51 284.943C415.142 288.438 413.774 291.933 411.953 295.708C411.146 297.116 410.793 298.245 410.439 299.373C408.753 302.862 407.067 306.351 404.9 310.096C402.178 310.807 400.741 311.593 402.934 313.867C401.764 315.928 400.593 317.989 398.923 320.288C394.879 321.227 395.368 324.153 394.979 326.594C394.349 327.608 393.72 328.621 392.539 329.78C389.068 330.539 388.735 332.64 388.95 335.055C388.492 335.768 388.034 336.481 387.066 337.331C386.263 338.07 385.97 338.672 385.677 339.273C384.933 340.294 384.189 341.315 382.937 342.451C382.256 342.575 382.083 342.584 381.67 342.437C377.227 334.934 371.075 330.262 362.838 327.597C345.856 322.104 329.052 316.076 312.164 310.299C311.113 309.939 309.968 309.845 308.761 309.474C308.5 309.108 308.289 308.99 307.762 308.784C299.283 305.031 290.776 301.983 282.924 297.757C274.348 293.14 266.376 287.432 257.998 281.924C257.671 280.447 257.486 279.247 257.266 277.797C256.738 277.17 256.245 276.793 255.667 276.138C255.506 275.285 255.429 274.71 255.371 273.925C255.326 273.427 255.165 273.209 254.796 272.726C254.391 269.977 254.094 267.565 254 264.936C255.881 264.314 258.367 261.961 257.901 266.422C257.783 266.9 257.849 267.239 257.915 267.578C258.273 267.134 258.63 266.69 259.008 265.931C259.131 262.029 262.313 261.688 264.647 260.629C279.126 254.059 290.075 244.703 292.761 228.115C293.97 220.652 296.02 213.321 298.092 205.928C304.206 205.68 309.99 205.922 315.609 205.087C326.95 203.403 335.2 197.195 339.255 186.528C342.844 177.092 340.591 168.504 333.796 160.759C333.072 160.12 332.299 159.79 331.35 159.206C326.288 155.057 320.604 154.026 314.679 154.211C315.217 153.317 315.589 152.667 316.195 151.957C316.816 151.62 317.202 151.344 317.836 151.012C318.271 150.485 318.458 150.013 318.645 149.541C318.202 149.945 317.76 150.348 317.08 150.808C316.451 151.135 316.06 151.407 315.408 151.743C314.798 152.372 314.45 152.936 313.801 153.504C312.826 154.029 312.152 154.552 311.177 155.235C309.778 155.851 308.68 156.306 307.627 156.379C309.718 150.071 311.114 143.818 313.98 138.306C317.212 132.086 319.687 125.864 320.502 118.812C324.001 117.026 327.207 115.336 330.406 113.651C330.399 113.654 330.39 113.666 330.624 113.622C330.996 113.317 331.134 113.056 331.265 112.801C331.259 112.805 331.247 112.816 331.555 112.851C332.526 112.292 333.19 111.697 333.846 111.106C333.84 111.11 333.828 111.12 334.098 111.149C334.771 110.871 335.173 110.563 335.569 110.259C335.562 110.263 335.552 110.275 335.846 110.254C336.811 109.392 337.482 108.552 338.147 107.715C338.141 107.72 338.133 107.73 338.368 107.694C338.74 107.393 338.877 107.128 339.008 106.867C339.002 106.872 338.993 106.883 339.229 106.847C339.601 106.546 339.737 106.28 339.868 106.019C339.862 106.024 339.854 106.035 340.089 105.999C340.461 105.698 340.597 105.433 340.728 105.171C340.723 105.176 340.715 105.187 341 105.187C341.675 104.615 342.065 104.044 342.449 103.477C342.443 103.481 342.437 103.494 342.688 103.384C343.064 102.773 343.189 102.271 343.308 101.777C343.303 101.784 343.29 101.799 343.527 101.766C343.901 101.465 344.038 101.196 344.17 100.932C344.164 100.937 344.156 100.949 344.46 100.933C345.14 100.073 345.517 99.2279 345.889 98.3882C345.884 98.3937 345.875 98.4055 346.109 98.3719C346.481 98.0713 346.619 97.8042 346.751 97.5418C346.745 97.5463 346.738 97.5594 347.014 97.4494C348.833 94.013 350.376 90.6865 351.912 87.3665C351.907 87.3731 351.9 87.389 352.156 87.2211C353.06 85.5178 353.795 84.0117 354.342 82.4421C356.438 76.427 358.473 70.3915 360.531 64.3636C361.321 65.0445 362.112 65.7254 363.013 66.9744C363.096 70.0691 364.654 70.5648 366.789 70.3226C368.369 71.8076 369.949 73.2926 371.634 75.3591C371.638 78.4066 373.114 79.0207 375.258 78.8499C386.569 90.1977 395.617 103.187 403.497 116.989C406.228 121.774 408.547 126.787 410.785 132.038C406.025 133.431 401.535 134.482 397.045 135.533C397.128 135.904 397.211 136.275 397.294 136.646C402.239 135.75 407.184 134.853 412.128 133.957ZM393.228 204.637C392.425 204.187 391.622 203.737 390.442 202.803C384.234 198.319 373.35 200.094 368.45 205.111C368.056 205.38 367.662 205.648 366.774 206.045C366.439 206.615 366.104 207.185 365.77 207.755C365.96 207.87 366.15 207.985 366.34 208.099C366.755 207.494 367.17 206.888 368.051 206.152C368.437 205.878 368.823 205.603 369.796 205.212C371.266 204.603 372.735 203.994 374.487 203.812C374.989 203.439 375.492 203.067 376.627 202.381C381.252 202.805 385.878 203.229 390.737 204.017C391.008 204.353 391.278 204.688 391.589 205.656C392.467 206.051 393.345 206.446 394.575 206.841C394.575 206.841 394.922 206.896 394.929 207.518C395.94 208.614 396.951 209.709 397.961 210.804C398.492 210.06 399.637 208.951 399.445 208.635C398.676 207.375 397.507 206.346 396.438 205.278C396.304 205.143 395.888 205.282 395.002 205.22C394.397 205.215 393.792 205.21 393.201 205.214C393.201 205.214 393.213 205.226 393.228 204.637ZM360.229 215.227C360.646 214.468 361.063 213.708 361.944 212.651C362.543 211.822 363.141 210.994 363.739 210.165C363.338 209.963 362.937 209.76 362.536 209.558C362.08 210.578 361.624 211.598 360.648 212.814C360.246 213.605 359.843 214.397 359.099 215.42C358.9 215.619 358.761 215.852 358.295 216.425C357.907 216.934 357.518 217.442 356.492 218.035C356.154 218.943 355.815 219.85 355.496 221.439C354.595 226.471 353.694 231.504 352.562 237.064C352.359 237.791 352.156 238.519 351.968 239.984C350.762 248.46 349.557 256.936 347.809 265.501C347.764 266.328 347.719 267.156 347.651 268.542C347.598 268.911 347.545 269.28 346.99 269.72C346.975 270.294 346.959 270.868 346.87 272.14C345.696 277.051 344.715 282.016 343.304 286.859C341.107 294.399 338.618 301.855 335.769 309.666C335.092 311.277 334.414 312.888 333.344 314.85C333.252 315.412 333.16 315.973 333.067 316.535C333.262 316.567 333.457 316.6 333.652 316.633C333.783 316.004 333.914 315.376 334.447 314.545C334.789 314.263 335.13 313.98 336.01 313.668C336.096 313.097 336.181 312.525 336.349 311.364C336.411 310.774 336.474 310.184 336.96 309.211C337.626 307.886 338.292 306.562 339.593 305.146C339.926 304.234 340.259 303.322 340.556 301.745C341.485 298.675 342.415 295.604 343.858 292.471C343.904 291.899 343.951 291.326 344.073 290.08C345.281 285.528 346.49 280.976 348.205 276.356C348.227 275.781 348.249 275.206 348.344 273.93C348.998 270.521 349.652 267.113 350.849 263.614C350.885 262.783 350.921 261.953 350.978 260.493C351.046 259.868 351.113 259.243 351.723 258.524C351.747 257.691 351.771 256.857 351.822 255.29C352.421 249.902 353.02 244.515 354.192 239.046C354.246 238.194 354.3 237.341 354.389 235.767C355.918 229.316 357.448 222.865 359.332 216.206C359.535 216.014 359.686 215.788 360.229 215.227ZM391.569 136.489C389.911 136.224 388.253 135.741 386.592 135.731C376.775 135.667 366.957 135.713 356.688 135.73C356.478 135.826 356.268 135.922 356.058 136.019C356.418 136.185 356.779 136.352 357.777 136.84C359.161 137.031 360.544 137.381 361.928 137.386C372.046 137.42 382.164 137.384 392.73 137.36C392.938 137.263 393.147 137.166 393.355 137.07C392.997 136.902 392.64 136.734 391.569 136.489ZM335.429 141.769C341.08 140.309 346.73 138.85 352.381 137.39C352.25 136.93 352.119 136.47 351.988 136.01C344.843 137.94 337.699 139.87 330.554 141.799C330.718 142.352 330.881 142.905 331.045 143.458C332.302 142.972 333.558 142.486 335.429 141.769ZM403.387 214.699C403.523 214.73 403.664 214.798 403.793 214.781C403.906 214.766 404.106 214.613 404.097 214.594C403.65 213.579 403.185 212.571 402.722 211.563C402.402 211.737 402.082 211.91 401.761 212.083C402.163 212.848 402.565 213.613 403.387 214.699ZM323.844 147.318C324.54 146.806 325.237 146.294 325.933 145.782C325.676 145.511 325.418 145.24 325.161 144.968C324.538 145.766 323.915 146.563 323.844 147.318ZM256.649 272.09C256.815 272.552 256.98 273.015 257.146 273.478C257.386 273.369 257.627 273.261 257.868 273.153C257.587 272.677 257.305 272.2 256.649 272.09ZM320.41 148.178C320.595 148.429 320.779 148.681 320.964 148.932C321.156 148.758 321.348 148.584 321.54 148.41C321.281 148.225 321.023 148.04 320.41 148.178ZM329.335 143.776C329.188 143.761 329.041 143.746 328.894 143.731C328.961 143.8 329.028 143.869 329.335 143.776ZM327.412 144.42L327.275 144.685C327.275 144.685 327.607 144.627 327.412 144.42Z" fill="#7EA8C5"/>
<path d="M59.7321 341.455C38.7233 315.885 25.2374 286.816 18.8246 254.551C13.6497 228.514 13.7941 202.42 18.846 176.358C19.0327 175.395 19.3565 174.458 19.9579 173.063C20.9538 171.801 21.6084 170.986 22.2548 170.175C22.2466 170.18 22.2344 170.195 22.456 170.137C22.8248 169.826 22.972 169.573 23.1115 169.326C23.1039 169.332 23.0935 169.349 23.347 169.255C23.7355 168.378 23.8707 167.595 23.6713 166.806C22.6669 166.791 21.9971 166.783 21.3273 166.776C25.2997 148.565 32.513 131.577 41.9569 115.579C67.4182 72.4481 103.947 42.2086 151.348 24.9974C167.296 19.2065 183.796 15.5398 201 14.1818C200.623 15.1436 199.986 15.893 199.02 16.6624C186.567 19.1528 175.812 24.2518 166.752 32.7327C165.72 33.6992 164.091 34.6296 162.759 34.6008C153.554 34.4018 145.335 37.3254 137.872 42.2964C128.684 48.4167 120.083 55.1635 117.464 67.0604C117.462 67.9913 117.52 68.6135 117.413 69.5008C115.083 75.2029 111.945 79.7914 106.03 82.1071C105.826 82.0761 105.415 82.1165 105.085 82.1186C98.8244 83.5314 92.8947 84.942 86.965 86.3526C87.0177 86.6637 87.0704 86.9747 87.1231 87.2858C92.5774 86.356 98.0317 85.4262 103.67 84.5235C103.854 84.5507 104.22 84.61 104.328 84.6007C104.436 84.5913 104.636 84.5096 104.438 84.7227C94.3343 94.3148 91.75 106.114 92.6644 119.09C92.7477 120.272 92.5382 121.473 92.1514 122.661C90.4455 123.249 89.053 123.841 87.6604 124.433C87.8313 124.776 88.0021 125.119 88.1729 125.462C89.6327 124.761 91.0925 124.06 92.8253 123.507C94.4199 125.929 95.7414 128.204 97.0293 130.77C97.2003 131.971 97.4049 132.881 97.6448 134.091C99.6695 137.549 101.659 140.708 103.747 144.123C104.628 144.786 105.409 145.194 106.231 145.904C108.788 148.889 111.303 151.572 113.947 154.458C114.589 155.038 115.102 155.415 115.8 155.997C117.302 157.478 118.62 158.756 119.575 160.017C111.884 158.174 105.138 159.113 98.9156 164.036C97.7457 163.936 96.9056 163.912 96.0656 163.888C96.3921 164.543 96.7186 165.199 96.8732 166.105C82.5662 182.691 93.4234 201.811 107.908 207.667C115.644 210.794 123.71 210.948 131.898 210.968C132.385 212.928 132.974 214.519 133.249 216.162C133.754 219.18 134.074 222.229 134.271 225.035C129.57 223.28 125.069 221.755 120.568 220.23C120.429 220.655 120.291 221.081 120.152 221.506C124.94 223.008 129.728 224.509 134.794 226.16C136.876 231.437 138.694 236.56 140.48 241.693C144.453 253.114 150.775 262.412 163.349 265.741C170.038 267.511 176.83 268.903 183.633 270.833C183.589 273.969 183.488 276.737 183.307 279.817C182.531 282.566 181.835 285.002 180.847 287.603C176.667 290.382 172.767 292.979 168.893 295.613C154.918 305.113 139.305 311.192 123.55 317.005C104.615 323.991 85.7178 331.075 66.8024 337.744C67.7242 327.951 68.6478 318.531 69.5714 309.11C69.1323 309.077 68.6932 309.044 68.254 309.011C67.2024 318.942 66.1509 328.873 64.8485 338.975C62.9759 339.916 61.354 340.685 59.7321 341.455ZM84.3151 221.123C84.0897 221.297 83.9276 221.517 83.5118 221.97C83.5429 222.164 83.5739 222.358 83.6049 222.553C83.7739 222.391 83.9428 222.23 84.4781 221.872C84.7251 221.714 84.888 221.494 85.32 221.011C85.5435 220.842 85.7064 220.628 86.3047 220.309C86.689 220.019 87.0733 219.729 87.8253 219.26C88.0602 219.105 88.233 218.899 88.7248 218.469C88.968 218.315 89.1448 218.106 89.8952 217.768C99.879 212.254 109.204 216.47 118.742 219.496C113.57 217.071 108.273 215.218 102.832 213.985C97.7494 212.832 93.0307 214.276 88.5603 217.708C88.3023 217.848 88.1266 218.057 87.6787 218.535C87.4448 218.692 87.2765 218.901 86.6789 219.227C86.2983 219.519 85.9178 219.811 85.176 220.294C84.9502 220.461 84.7872 220.675 84.3151 221.123ZM32.8943 159.185C32.6413 159.338 32.4585 159.55 31.9674 160.002C31.744 160.18 31.5827 160.402 31.161 160.847C31.1952 161.038 31.2293 161.229 31.2635 161.42C31.4344 161.263 31.6054 161.107 32.1474 160.763C32.3865 160.601 32.5516 160.383 33.013 159.912C33.2585 159.742 33.4036 159.511 33.857 159.084C34.0043 158.848 34.1516 158.612 34.7674 158.318C35.0164 158.042 35.2654 157.767 35.5144 157.491C35.3402 157.344 35.1659 157.196 34.9917 157.049C34.7168 157.448 34.4419 157.847 33.751 158.368C33.6043 158.606 33.4576 158.844 32.8943 159.185ZM44.1635 150.642C44.4028 150.483 44.5775 150.272 45.0675 149.831C45.3021 149.664 45.4698 149.447 46.0639 149.109C46.4198 148.798 46.7756 148.487 47.5662 148.076C47.7086 147.831 47.851 147.586 48.5085 147.361C48.9192 147.088 49.3299 146.815 50.2364 146.439C50.4253 145.971 50.6142 145.503 50.8031 145.035C50.3684 145.443 49.9336 145.852 49.0136 146.359C48.6432 146.656 48.2728 146.954 47.4688 147.357C47.3282 147.602 47.1876 147.848 46.5261 148.073C46.1083 148.347 45.6904 148.62 44.8951 149.07C44.6457 149.22 44.4743 149.432 44.0067 149.891C43.7506 150.036 43.58 150.249 43.1932 150.719C43.2178 150.901 43.2423 151.083 43.2669 151.264C43.4384 151.114 43.6099 150.964 44.1635 150.642ZM40.531 152.361C40.3424 152.751 40.1539 153.142 39.9653 153.533C40.3993 153.201 40.8333 152.869 41.5609 152.351C41.5375 152.174 41.5142 151.997 41.4908 151.821C41.3232 151.967 41.1556 152.114 40.531 152.361ZM62.2606 138.659C62.5165 138.285 62.7723 137.911 63.0281 137.537C62.5713 137.68 62.1145 137.824 61.1377 138.031C60.7291 138.531 60.3205 139.032 59.9119 139.532C60.0294 139.632 60.147 139.732 60.2646 139.831C60.7677 139.468 61.2708 139.105 62.2606 138.659ZM81.559 224.388C81.3054 224.831 81.0518 225.274 80.7982 225.718C80.9938 225.829 81.1894 225.94 81.385 226.051C81.7019 225.547 82.0187 225.043 82.6213 224.344C82.5927 224.162 82.564 223.98 82.5353 223.798C82.3725 223.95 82.2097 224.103 81.559 224.388ZM79.203 87.5686C80.4724 87.7048 81.7418 87.8409 83.0112 87.9771C83.0266 87.6856 83.0421 87.3942 83.0575 87.1028C81.6351 87.1028 80.2126 87.1028 78.6696 86.4942C77.3486 86.0685 76.0275 85.6428 74.7065 85.2171C74.6198 85.6192 74.5331 86.0213 74.4463 86.4233C75.8928 86.6516 77.3393 86.8798 79.203 87.5686ZM69.4608 133.61C67.9571 134.458 66.4533 135.307 64.6342 136.336C64.6577 136.52 64.6812 136.703 64.7048 136.887C64.8873 136.743 65.0699 136.599 65.8467 136.391C67.3485 135.543 68.8503 134.695 70.6687 133.669C70.6469 133.487 70.625 133.306 70.6032 133.124C70.4214 133.267 70.2397 133.411 69.4608 133.61ZM75.2877 131.298C77.7815 130.147 80.2753 128.995 82.7691 127.843C82.5439 127.414 82.3187 126.984 82.0936 126.554C79.5212 128.06 76.9487 129.566 74.0558 131.245C74.0756 131.425 74.0953 131.605 74.115 131.786C74.2967 131.642 74.4784 131.498 75.2877 131.298ZM76.2707 238.644C77.5716 234.88 78.8725 231.117 80.3537 226.831C75.006 232.531 70.1479 257.683 72.913 263.737C74.012 255.588 75.1068 247.469 76.2707 238.644ZM71.1513 286.953C71.4001 284.388 71.6489 281.824 71.8977 279.259C71.454 279.232 71.0102 279.205 70.5665 279.178C70.1629 284.411 69.7593 289.644 69.3557 294.878C69.824 294.912 70.2923 294.946 70.7606 294.98C70.8845 292.562 71.0084 290.143 71.1513 286.953ZM57.7402 140.26C57.9737 140.502 58.2072 140.744 58.4408 140.986C58.542 140.89 58.7366 140.717 58.7311 140.71C58.5131 140.455 58.2769 140.215 57.7402 140.26ZM53.3863 143.299C53.1357 143.636 52.8851 143.973 52.6345 144.31C53.0027 144.079 53.371 143.849 53.3863 143.299ZM86.0562 125.86C86.1359 125.807 86.2155 125.754 86.2952 125.7C86.2291 125.631 86.1683 125.514 86.0955 125.506C86.0224 125.499 85.9374 125.599 86.0562 125.86ZM84.1332 126.497C84.2781 126.512 84.423 126.527 84.5679 126.542C84.502 126.474 84.4361 126.405 84.1332 126.497ZM72.3411 132.638C72.4196 132.584 72.4981 132.53 72.5766 132.475C72.5116 132.406 72.4517 132.289 72.3802 132.281C72.308 132.274 72.2242 132.375 72.3411 132.638ZM55.001 142.59L55.2967 142.706C55.2967 142.706 55.2203 142.43 55.001 142.59ZM29.5982 162.017L29.4801 162.26C29.4801 162.26 29.7438 162.208 29.5982 162.017Z" fill="#7EA8C5"/>
<path d="M203.102 12.7526C228.508 10.6175 253.485 13.0332 278.007 19.8992C304.611 27.348 328.869 39.4323 350.539 56.5339C352.995 58.472 355.397 60.4773 358 62.9937C357.816 64.8795 357.478 66.2293 357.093 67.5655C355.169 74.232 353.233 80.895 351.301 87.5592C351.301 87.5592 351.308 87.5432 351.027 87.6229C349.217 91.0578 347.688 94.4132 346.158 97.7685C346.158 97.7685 346.165 97.7554 345.937 97.7843C345.573 98.0814 345.435 98.3496 345.298 98.6178C345.298 98.6178 345.307 98.606 345.05 98.6975C344.39 99.5829 343.988 100.377 343.585 101.171C343.585 101.171 343.594 101.159 343.382 101.216C343.021 101.523 342.872 101.773 342.723 102.024C342.723 102.024 342.735 102.01 342.508 102.132C342.145 102.745 342.009 103.235 341.873 103.726C341.873 103.726 341.879 103.713 341.602 103.711C340.936 104.282 340.546 104.853 340.157 105.425C340.157 105.425 340.165 105.414 339.947 105.462C339.585 105.765 339.442 106.021 339.299 106.276C339.299 106.276 339.308 106.265 339.09 106.313C338.728 106.617 338.585 106.872 338.442 107.127C338.442 107.127 338.451 107.116 338.233 107.164C337.871 107.467 337.728 107.723 337.585 107.978C337.585 107.978 337.593 107.968 337.305 107.983C336.35 108.843 335.681 109.688 335.013 110.533C335.013 110.533 335.023 110.52 334.76 110.488C334.097 110.764 333.696 111.072 333.295 111.381C333.295 111.381 333.307 111.371 333.034 111.375C332.082 111.947 331.403 112.515 330.724 113.083C330.724 113.083 330.736 113.073 330.511 113.116C330.148 113.418 330.009 113.677 329.87 113.937C329.87 113.937 329.879 113.925 329.56 113.892C326.084 114.941 322.927 116.022 319.758 116.727C319.961 108.807 318.48 101.689 314.309 94.9819C313.7 94.3403 313.163 93.9422 312.756 93.2616C313.708 91.2291 314.905 89.5567 315.291 87.7166C317.797 75.7746 315.952 64.4433 309.481 54.0723C306.923 49.972 304.48 45.4251 299.028 43.8382C298.425 42.9064 297.87 42.2424 297.148 41.3435C293.378 39.2532 289.775 37.3979 286.206 35.2415C287.366 32.339 288.491 29.7375 289.788 27.0254C289.946 26.6133 289.932 26.3116 289.919 26.01C289.802 26.372 289.686 26.7341 289.272 27.1512C287.757 29.4294 286.539 31.6526 285.116 33.9637C284.746 34.2902 284.582 34.529 284.07 34.7696C274.823 33.0205 265.924 31.2695 257.006 29.3218C256.845 28.9279 256.704 28.7306 256.563 28.5333C256.419 28.8751 256.275 29.2168 256.154 29.6406C256.177 29.7228 256.215 29.8892 255.922 29.8519C255.239 29.7695 254.849 29.7244 254.442 29.4224C254.4 28.8258 254.374 28.486 254.475 28.063C254.495 28.012 254.387 28.0444 254.007 27.9794C250.901 25.5377 248.066 23.1957 245.235 20.8484C240.631 17.0314 235.457 14.4169 229.371 14.3548C220.585 14.2651 211.797 14.4511 203.009 14.2444C203.001 13.7862 202.994 13.6029 203.008 13.2517C203.03 13.0837 203.102 12.7526 203.102 12.7526Z" fill="#7FA8C5"/>
<path d="M352 87.2727C353.629 80.8278 355.509 74.2168 357.377 67.6024C357.752 66.2766 358.08 64.9373 358.447 63.2727C358.942 63.3238 359.419 63.7064 360 64.2979C358.113 70.5105 356.143 76.5219 354.115 82.5129C353.586 84.0762 352.875 85.5763 352 87.2727Z" fill="#D4CECF"/>
<path d="M412 134.128C406.763 135.004 401.514 135.684 396.264 136.364C396.176 136.082 396.088 135.801 396 135.52C400.766 134.723 405.533 133.925 410.644 133.091C411.321 133.347 411.655 133.639 412 134.128Z" fill="#D2CDCF"/>
<path d="M20.7443 166.021C21.5545 165.736 22.1764 165.746 23 166.086C22.992 167.286 22.7822 168.155 22.5725 169.024C22.5725 169.024 22.5821 169.003 22.368 169.036C22.0276 169.415 21.9012 169.762 21.7748 170.108C21.7748 170.108 21.7862 170.089 21.4935 170.049C20.8006 170.067 20.4003 170.124 20 170.182C20.1854 168.893 20.3707 167.604 20.7443 166.021Z" fill="#7FA9C5"/>
<path d="M366 69.7602C364.298 69.9333 362.964 69.7555 363.001 68.7273C363.968 68.9614 364.921 69.3177 366 69.7602Z" fill="#7FA8C5"/>
<path d="M375 78.4206C372.607 78.8596 370.859 78.2165 371.009 75.2727C372.311 75.9946 373.582 77.0775 375 78.4206Z" fill="#7FA8C5"/>
<path d="M19.1882 170.563C19.8184 170.262 20.2481 170.205 21 170.182C20.6699 171.238 20.0176 172.261 19.1365 173.455C18.9343 172.686 18.961 171.747 19.1882 170.563Z" fill="#DAD1D1"/>
<path d="M198.535 15.8354C199.672 15.7145 200.479 15.6137 201.698 15.2105C202.253 14.667 202.396 14.4258 202.539 14.1847C202.539 14.1847 202.517 14.2016 202.716 14.2901C203.065 14.3764 203.215 14.374 203.364 14.3717C212.145 14.3029 220.926 14.1156 229.705 14.2059C235.787 14.2685 240.957 16.9014 245.557 20.7452C248.386 23.109 251.22 25.4675 254.377 27.907C254.703 27.9856 254.663 28.0945 254.663 28.0945C254.689 28.4366 254.715 28.7787 254.845 29.5875C255.475 29.9859 256.002 29.9178 256.529 29.8496C256.529 29.8496 256.492 29.6821 256.693 29.6141C257.043 29.5229 257.191 29.4996 257.339 29.4763C266.231 31.2396 275.123 33.0029 284.548 34.7696C285.081 34.773 285.449 34.7776 285.556 34.9773C285.93 35.299 286.197 35.4209 286.463 35.5428C290.064 37.4111 293.665 39.2795 297.225 41.6187C296.019 42.4337 294.854 42.778 293.689 43.1222C293.731 43.4703 293.774 43.8184 293.816 44.1665C295.664 44.1665 297.512 44.1665 299.36 44.1665C304.758 45.4949 307.199 50.0738 309.756 54.203C316.221 64.6469 318.066 76.058 315.561 88.084C315.175 89.937 313.98 91.6212 312.825 93.8473C312.01 95.4933 311.527 96.6755 311.045 97.8577C311.209 98.0027 311.372 98.1478 311.536 98.2928C312.575 97.4104 313.613 96.5281 314.652 95.6457C318.748 102.154 320.228 109.323 319.972 117.65C319.952 118.849 319.973 119.319 319.994 119.788C319.474 126.819 317.01 133.109 313.791 139.397C310.939 144.969 309.548 151.291 307.337 157.822C305.392 160.872 303.622 163.381 301.614 165.892C301.061 165.892 300.746 165.89 300.383 165.501C300.248 163.118 300.318 161.101 300.046 159.132C298.147 145.359 299.764 131.926 303.918 118.607C303.934 118.243 303.811 117.978 303.383 117.708C302.501 117.336 301.565 117.086 301.401 116.583C300.043 112.429 298.348 108.306 297.663 104.028C295.867 92.824 289.444 81.7149 275.983 80.7811C265.325 80.0417 257.558 74.6868 253.056 64.6947C252.805 64.0045 252.46 63.5455 251.768 63.0625C249.767 63.3752 248.09 63.6239 246.465 64.0626C235.362 67.0596 224.883 65.3626 214.991 59.7622C213.693 59.0271 212.864 57.4616 212.094 56.2442C212.814 55.9301 213.258 55.6523 213.868 55.2563C214.02 54.8299 214.006 54.5216 213.992 54.2134C213.86 54.5705 213.728 54.9275 213.329 55.3233C212.63 55.6622 212.197 55.9623 211.429 56.3117C209.729 56.0928 208.262 55.3567 207.015 55.6302C196.61 57.9134 186.838 56.1644 177.56 51.2445C172.678 59.8425 166.884 62.5271 149.15 73.3641C148.503 73.8359 148.105 74.2833 147.43 74.8264C146.961 74.9597 146.769 74.9972 146.28 75.0467C143.614 76.1801 141.246 77.3015 138.878 78.423C139.061 78.6703 139.244 78.9177 139.427 79.165C141.386 78.6785 143.344 78.192 145.195 78.0069C144.231 82.5592 143.385 86.8122 142.513 91.0597C142.124 92.9554 141.681 94.8401 141.101 96.9154C140.332 98.6671 139.724 100.233 138.753 102.739C140.629 101.697 141.439 101.247 142.324 101.161C142.182 104.113 141.965 106.703 141.555 109.414C141.439 110.027 141.516 110.518 141.633 111.385C141.691 113.269 141.71 114.778 141.663 116.574C141.037 119.796 140.476 122.731 139.8 125.867C139.318 126.487 138.951 126.906 138.585 127.325C138.923 127.463 139.261 127.601 139.6 127.738C139.744 127.023 139.889 126.307 140.189 125.376C140.852 125.037 141.36 124.913 141.871 125.175C141.658 127.966 141.613 130.403 141.196 132.773C138.914 145.73 134.593 158.064 129.349 170.182C128.783 170.181 128.459 170.18 127.956 169.948C125.007 166.739 122.237 163.76 119.467 160.782C118.15 159.49 116.833 158.198 115.441 156.445C115.563 155.257 115.76 154.53 116.208 152.873C114.748 153.929 114.049 154.435 113.35 154.94C110.835 152.227 108.32 149.515 105.89 146.214C106.2 144.398 106.424 143.169 106.696 141.677C105.239 142.821 104.21 143.629 103.181 144.437C101.192 141.243 99.2035 138.05 97.1885 134.251C96.9742 132.732 96.7858 131.817 96.5975 130.903C95.2761 128.603 93.9548 126.303 92.3426 123.678C92.0517 123.353 92 123.003 92 123.003C92.0735 121.798 92.2829 120.583 92.1997 119.388C91.2854 106.27 93.8693 94.3409 104.192 84.5501C104.99 83.7295 105.369 83.2175 105.748 82.5366C105.749 82.3677 105.767 82.0304 105.767 82.0304C111.477 79.658 114.615 75.019 117.186 69.1294C119.045 67.7954 120.497 66.8542 121.95 65.9131C121.742 65.6072 121.535 65.3013 121.327 64.9954C119.903 65.4886 118.479 65.9819 117.055 66.4751C119.613 54.7595 128.213 47.9385 137.399 41.751C144.861 36.7254 153.078 33.7697 162.282 33.9709C163.613 34 165.242 33.0594 166.274 32.0823C175.332 23.5082 186.085 18.3532 198.535 15.8354ZM132.691 111.76C132.909 111.58 133.072 111.359 133.753 110.984C134.144 110.171 134.534 109.359 135.45 108.437C135.848 107.904 136.246 107.372 137.179 106.717C137.675 106.028 138.17 105.339 138.665 104.651C138.248 104.465 137.83 104.279 137.413 104.093C137.108 104.96 136.804 105.828 135.973 106.805C135.573 107.336 135.174 107.868 134.205 108.54C133.836 109.365 133.467 110.191 132.736 111.218C132.508 111.386 132.337 111.601 131.877 112.065C131.657 112.233 131.492 112.443 130.987 113.003C130.819 113.465 130.651 113.928 129.843 114.438C128.703 114.887 127.563 115.336 126.424 115.784C126.726 116.275 127.028 116.766 127.331 117.256C128.43 116.341 129.529 115.426 131.026 114.211C131.185 113.745 131.344 113.28 131.849 112.609C132.063 112.437 132.225 112.225 132.691 111.76ZM130.204 60.6814C130.217 60.9901 130.23 61.2988 130.243 61.6075C130.364 61.2422 130.485 60.8769 130.835 60.397C130.738 60.4146 130.642 60.4321 130.204 60.6814ZM304.906 115.019C305.064 114.292 305.223 113.564 305.761 112.476C305.722 111.817 305.683 111.157 305.645 110.498C305.377 110.531 305.109 110.565 304.841 110.598C304.971 111.296 305.1 111.994 304.734 112.797C304.613 113.619 304.492 114.44 303.972 115.329C303.75 115.449 303.528 115.569 303.305 115.69C303.696 115.589 304.087 115.489 304.906 115.019ZM137.729 58.8036C137.244 59.1895 136.76 59.5753 136.275 59.9611C136.52 60.171 136.764 60.3808 137.008 60.5907C137.442 59.9942 137.877 59.3978 138.717 58.7594C138.948 58.6514 139.178 58.5433 139.408 58.4353C139.026 58.5378 138.644 58.6403 137.729 58.8036ZM123.059 119.596C122.4 120.153 121.741 120.709 120.576 121.372C120.192 121.909 119.807 122.446 119.423 122.984C119.608 123.108 119.794 123.232 119.98 123.356C120.383 122.699 120.787 122.043 121.782 121.348C122.456 120.8 123.13 120.252 124.278 119.593C124.539 119.314 124.801 119.034 125.062 118.754C124.88 118.595 124.698 118.437 124.516 118.278C124.227 118.701 123.937 119.124 123.059 119.596ZM259.165 60.4427C257.965 60.7645 256.766 61.0863 255.566 61.4081C255.703 61.7679 255.84 62.1276 255.976 62.4874C257.307 61.8337 258.638 61.1801 260.368 60.3135C260.593 60.0115 260.818 59.7095 261.044 59.4075C260.868 59.3041 260.693 59.2007 260.518 59.0974C260.283 59.5299 260.049 59.9624 259.165 60.4427ZM125.659 146.239C124.512 147.089 123.364 147.939 122.217 148.789C122.557 149.142 122.897 149.494 123.238 149.847C124.279 148.643 125.32 147.438 126.59 146.103C126.473 146.106 126.355 146.108 125.659 146.239ZM110.711 98.2222C111.93 97.0851 113.149 95.948 114.596 94.6823C114.481 94.6856 114.365 94.6889 113.684 94.7831C112.443 95.9079 111.203 97.0327 109.465 98.4519C109.05 99.4834 108.635 100.515 107.701 101.843C102.897 106.657 99.7943 112.331 98.0547 118.694C98.386 118.863 98.7172 119.032 99.0485 119.201C102.16 113.368 105.272 107.535 108.97 101.535C109.346 100.447 109.722 99.3584 110.711 98.2222ZM233.966 42.442C235.073 41.6372 236.181 40.8324 237.288 40.0276C236.907 39.6519 236.526 39.2763 236.145 38.9006C235.206 40.0907 234.267 41.2808 232.987 42.6952C233 42.9989 233.014 43.3027 233.027 43.6064C233.145 43.243 233.263 42.8796 233.966 42.442ZM97.3981 122.245C96.8735 123.833 96.349 125.421 95.8244 127.009C96.3769 127.115 96.9294 127.222 97.4818 127.328C97.6819 125.627 97.8821 123.926 98.4203 121.991C98.4049 121.676 98.3896 121.361 98.3743 121.045C98.2325 121.402 98.0907 121.758 97.3981 122.245ZM110.276 131.837C107.795 133.855 106.593 136.451 105.708 139.19C106.059 139.349 106.41 139.508 106.761 139.666C108.156 137.009 109.551 134.351 111.528 131.572C112.604 130.09 113.68 128.608 114.757 127.126C114.304 126.869 113.852 126.612 113.399 126.355C112.532 128.086 111.665 129.817 110.276 131.837ZM132.962 140.121C135.079 136.75 138.529 134.041 138.968 129.835C138.599 129.641 138.229 129.447 137.859 129.253C135.973 132.869 134.088 136.486 131.728 140.215C131.465 140.493 131.203 140.771 130.94 141.049C131.121 141.21 131.301 141.37 131.482 141.53C131.782 141.113 132.083 140.697 132.962 140.121ZM271.365 52.3674C271.149 52.8453 270.932 53.3232 270.377 54.5514C273.427 52.7898 275.79 51.4252 278.153 50.0606C277.925 49.6828 277.696 49.305 277.468 48.9272C275.57 49.9577 273.672 50.9882 271.365 52.3674ZM145.809 57.0939C144.955 57.7296 144.101 58.3654 143.246 59.0011C143.416 59.2802 143.586 59.5592 143.756 59.8382C145.263 59.3015 146.771 58.7648 148.279 58.228C148.196 57.9377 148.113 57.6474 148.031 57.3572C147.491 57.2616 146.952 57.166 145.809 57.0939ZM227.538 45.4744C227.069 46.2438 226.6 47.0132 226.13 47.7826C226.305 47.9178 226.48 48.0531 226.654 48.1883C228.191 46.9125 229.728 45.6366 231.265 44.3607C231.115 44.1726 230.966 43.9844 230.817 43.7962C229.886 44.2691 228.955 44.742 227.538 45.4744ZM220.381 50.7045C219.204 51.4676 218.027 52.2307 216.85 52.9937C218.736 53.1114 220.118 52.4153 221.467 51.6598C221.486 51.6492 221.088 50.8938 220.381 50.7045ZM279.925 47.4836C279.556 48.0665 279.187 48.6494 278.253 50.1239C280.474 48.6852 281.717 47.8796 282.961 47.0741C282.772 46.7734 282.584 46.4728 282.396 46.1721C281.727 46.5049 281.059 46.8378 279.925 47.4836ZM176.037 46.7391C175.972 46.8646 175.86 46.9885 175.856 47.1162C175.852 47.2115 175.987 47.3117 176.06 47.4097C176.779 46.7429 177.498 46.076 178.217 45.4091C177.928 45.1189 177.638 44.8288 177.349 44.5386C177.039 45.1544 176.729 45.7702 176.037 46.7391ZM128.56 83.3709C128.329 83.5217 128.083 83.655 127.876 83.8343C127.817 83.8855 127.874 84.0703 127.878 84.1939C129.074 84.0312 130.27 83.8685 131.466 83.7058C131.349 83.2687 131.233 82.8316 131.116 82.3945C130.407 82.6381 129.698 82.8817 128.56 83.3709ZM286.202 44.499C285.903 45.1106 285.604 45.7221 285.305 46.3337C285.681 46.409 286.057 46.4844 286.433 46.5598C286.54 45.9024 286.648 45.245 286.202 44.499ZM309.099 102.615C309.076 102.478 309.087 102.318 309.018 102.21C308.955 102.111 308.804 102.069 308.692 102.001C308.47 102.695 308.207 103.381 308.074 104.091C308.055 104.194 308.663 104.414 308.98 104.579C309.025 104.081 309.069 103.583 309.099 102.615ZM264.806 56.9382C264 57.3937 263.194 57.8493 262.389 58.3048C262.577 58.557 262.765 58.8092 262.953 59.0614C263.625 58.4993 264.297 57.9372 264.806 56.9382ZM135.884 81.1465C136.607 80.8094 137.33 80.4723 138.054 80.1352C137.86 79.8389 137.666 79.5425 137.472 79.2461C136.907 79.7346 136.342 80.2231 135.884 81.1465ZM307.638 107.724C307.52 107.256 307.402 106.788 307.284 106.32C306.975 106.483 306.667 106.646 306.359 106.809C306.66 107.238 306.962 107.666 307.638 107.724ZM169.597 53.1105C169.982 52.8728 170.367 52.635 170.752 52.3972C170.386 52.1718 170.02 51.9465 169.654 51.7212C169.491 52.1983 169.327 52.6755 169.597 53.1105ZM173.404 51.3639C173.539 50.8995 173.675 50.435 173.811 49.9705C173.467 49.98 173.123 49.9894 172.779 49.9988C172.856 50.5391 172.933 51.0793 173.404 51.3639ZM120.437 150.407C120.285 150.8 120.134 151.193 119.983 151.586C120.223 151.655 120.464 151.724 120.705 151.792C120.747 151.284 120.789 150.775 120.437 150.407ZM266.34 55.7235C266.279 56.1988 266.217 56.674 266.156 57.1493C266.357 57.1583 266.557 57.1672 266.758 57.1762C266.758 56.6544 266.758 56.1326 266.34 55.7235ZM248.184 33.2013C247.955 33.0054 247.725 32.8095 247.496 32.6135C247.383 33.0065 247.271 33.3994 247.158 33.7924C247.443 33.7264 247.728 33.6605 248.184 33.2013ZM123.135 88.0487C122.945 87.8402 122.755 87.6317 122.565 87.4232C122.436 87.8637 122.307 88.3041 122.177 88.7446C122.44 88.6444 122.703 88.5442 123.135 88.0487ZM123.197 64.9527C123.474 64.5155 123.751 64.0784 124.028 63.6412C123.788 63.5788 123.358 63.4269 123.339 63.468C123.17 63.8279 123.075 64.2223 123.197 64.9527ZM223.403 49.5219C223.745 49.5256 224.087 49.5294 224.428 49.5331C224.429 49.3912 224.44 49.1259 224.43 49.1251C224.09 49.0985 223.748 49.0971 223.403 49.5219ZM151.774 58.7495C152.148 58.6421 152.521 58.5347 152.895 58.4273C152.805 58.236 152.715 58.0447 152.625 57.8533C152.191 58.128 151.758 58.4027 151.774 58.7495ZM118.519 152.749C118.326 152.535 118.134 152.321 117.941 152.107C117.795 152.554 117.648 153 117.502 153.447C117.808 153.358 118.114 153.269 118.519 152.749ZM238.56 38.4967C238.751 38.709 238.942 38.9213 239.132 39.1336C239.278 38.6897 239.425 38.2458 239.571 37.8019C239.267 37.8908 238.964 37.9797 238.56 38.4967ZM164.9 54.9314C165.024 55.1402 165.149 55.3491 165.273 55.5579C165.388 55.3426 165.642 55.0718 165.584 54.9259C165.511 54.745 165.18 54.6677 164.9 54.9314ZM124.639 86.6422C124.765 86.8528 124.891 87.0634 125.017 87.2739C125.133 87.0568 125.39 86.7822 125.331 86.6371C125.256 86.4539 124.923 86.3763 124.639 86.6422ZM118.644 90.9236C118.77 91.1351 118.896 91.3467 119.021 91.5582C119.138 91.34 119.395 91.0662 119.336 90.9176C119.264 90.7348 118.928 90.6564 118.644 90.9236ZM310.19 99.9034C310.255 100.106 310.319 100.309 310.383 100.511C310.609 100.283 310.834 100.055 311.06 99.8264C310.857 99.7636 310.654 99.7009 310.19 99.9034ZM245.923 34.4703C245.709 34.3674 245.494 34.2645 245.279 34.1616C245.217 34.3675 245.154 34.5735 245.092 34.7794C245.387 34.8016 245.683 34.8239 245.923 34.4703ZM167.25 54.4629C167.168 54.115 167.086 53.7671 167.005 53.4191C166.901 53.4955 166.702 53.5851 166.711 53.646C166.759 53.9993 166.857 54.3457 167.25 54.4629ZM128.458 61.1331C128.348 61.4682 128.221 61.7993 128.144 62.1419C128.129 62.2097 128.312 62.3216 128.403 62.4131C128.513 62.078 128.622 61.7429 128.458 61.1331ZM268.534 54.9324C268.659 55.1426 268.785 55.3528 268.91 55.563C269.027 55.3462 269.283 55.0724 269.224 54.9272C269.15 54.7444 268.817 54.6669 268.534 54.9324ZM134.454 80.8464C134.343 81.1834 134.215 81.5164 134.138 81.8609C134.123 81.9291 134.307 82.0416 134.399 82.1336C134.509 81.7966 134.619 81.4596 134.454 80.8464ZM132.991 82.7463C132.909 82.3967 132.826 82.0471 132.744 81.6974C132.641 81.7743 132.44 81.8644 132.449 81.9257C132.498 82.2806 132.596 82.6287 132.991 82.7463ZM154.405 56.4089C154.453 56.5528 154.5 56.6966 154.548 56.8405C154.594 56.6958 154.641 56.5511 154.405 56.4089ZM161.558 56.849C161.51 56.7047 161.462 56.5605 161.414 56.4162C161.368 56.5613 161.321 56.7065 161.558 56.849ZM157.447 57.507C157.263 57.4599 157.079 57.4127 156.895 57.3656C157.013 57.4817 157.131 57.5978 157.447 57.507ZM162.801 54.8935C162.983 54.9403 163.165 54.9871 163.346 55.0338C163.23 54.9188 163.113 54.8038 162.801 54.8935ZM216.014 54.3351C215.871 54.3828 215.727 54.4305 215.583 54.4782C215.728 54.5247 215.873 54.5711 216.014 54.3351ZM241.283 37.186C241.383 37.3225 241.482 37.459 241.581 37.5955C241.561 37.4055 241.541 37.2156 241.283 37.186Z" fill="#F9DDD2"/>
<path d="M128 170.182C128.324 170.183 128.649 170.184 129.297 170.505C133.413 184.624 139.019 197.7 146.012 210.185C148.485 214.6 151.153 218.996 154.357 222.901C157.285 226.469 159.786 226.019 162.696 222.451C165.372 219.17 168.098 215.929 171.037 212.545C171.755 211.695 172.238 210.97 172.897 210.116C173.183 209.728 173.293 209.469 173.394 209.205C173.384 209.201 173.397 209.224 173.667 209.127C181.887 199.639 191.831 193.621 204.133 191.567C207.988 190.924 211.834 190.227 216.01 189.614C219.658 189.628 222.981 189.582 226.684 189.61C235.294 190.152 243.103 192.213 250.534 195.722C250.542 195.709 250.563 195.713 250.63 195.919C250.935 196.285 251.173 196.446 251.549 196.809C252.188 197.432 252.688 197.854 253.327 198.524C258.955 202.987 262.22 208.616 264.487 215.013C264.981 216.408 266.616 217.755 268.057 218.395C270.099 219.301 272.434 219.607 274.67 220.037C283.997 221.834 288.148 218.895 290.42 209.91C293.213 198.866 296.503 187.944 299.875 176.971C300.761 176.973 301.35 176.975 302 177.344C301.83 180.868 301.599 184.024 301.315 187.445C301.279 188.441 301.296 189.17 301.291 190.218C300.133 196.147 298.997 201.758 297.861 207.369C296.196 214.762 294.15 222.095 292.944 229.561C290.262 246.154 279.334 255.513 264.882 262.085C262.554 263.145 259.378 263.486 259.03 267.41C258.634 267.744 258.483 267.742 258.333 267.741C258.615 263.418 256.134 265.772 253.899 266.399C230.239 272.738 206.814 274.157 183.097 271.361C176.335 269.798 169.527 268.406 162.822 266.635C150.219 263.305 143.883 254.003 139.9 242.577C138.11 237.442 136.288 232.317 134.188 226.852C133.895 226.516 133.877 226.142 133.877 226.142C133.479 223.105 133.158 220.054 132.652 217.035C132.377 215.392 131.786 213.8 131.305 211.504C130.724 207.463 130.174 204.104 129.647 200.433C129.599 199.496 129.53 198.871 129.509 197.848C129.038 188.359 128.519 179.271 128 170.182ZM203.339 232.105C208.692 234.412 213.39 232.138 218.041 229.949C223.774 227.249 229.399 225.56 235.625 228.845C237.06 229.602 239.855 229.418 241.193 228.493C245.948 225.206 250.345 221.412 254.854 217.828C239.509 214.852 225.973 208.81 218.615 193.125C214.125 208.62 202.495 215.887 188.217 221.003C193.463 224.92 198.093 228.377 203.339 232.105Z" fill="#FADDD2"/>
<path d="M298 206.182C298.719 200.456 299.835 194.727 301.251 188.585C302.611 186.853 303.712 185.568 304.722 184.211C312.317 173.997 321.578 165.869 332.943 160.364C339.651 167.958 341.859 176.73 338.342 186.368C334.367 197.262 326.282 203.603 315.168 205.323C309.66 206.175 303.992 205.929 298 206.182Z" fill="#FD8476"/>
<path d="M301 185.454C301.232 182.274 301.464 179.093 301.702 175.15C301.735 170.941 301.761 167.494 301.786 164.048C303.568 161.546 305.349 159.044 307.261 156.387C308.492 155.773 309.592 155.315 311.301 154.721C312.681 154.358 313.452 154.128 314.251 153.907C314.279 153.915 314.337 153.908 314.337 153.908C320.438 153.475 326.132 154.515 331 158.935C318.798 165.63 309.143 174.686 301 185.454Z" fill="#FC8376"/>
<path d="M301.014 186.386C309.279 175.563 319.017 166.68 331.5 160.364C332.487 160.458 333.269 160.785 334 161.417C322.233 167.052 312.686 174.92 304.855 184.807C303.814 186.121 302.679 187.365 301.3 188.727C300.995 188.091 300.977 187.37 301.014 186.386Z" fill="#47201A"/>
<path d="M357.001 136.396C366.778 136.384 376.556 136.324 386.334 136.406C387.988 136.42 389.638 137.039 391.659 137.685C392.027 137.992 392 138.507 392 138.507C381.923 138.525 371.847 138.571 361.77 138.527C360.392 138.522 359.014 138.072 357.304 137.367C356.972 136.906 357.001 136.396 357.001 136.396Z" fill="#C4C6CD"/>
<path d="M374.12 204.173C372.696 204.852 371.272 205.531 369.493 206.182C369.138 206.153 369 205.964 369 205.964C373.292 200.501 383.841 198.521 389.963 203.898C390.069 204.273 389.916 204.472 389.916 204.472C385.433 203.999 380.95 203.526 375.916 203.235C374.95 203.669 374.535 203.921 374.12 204.173Z" fill="#D2CDCE"/>
<path d="M334.604 141.526C333.028 142.055 331.762 142.482 330.496 142.909C330.33 142.423 330.165 141.937 330 141.451C337.201 139.755 344.403 138.059 351.604 136.364C351.736 136.768 351.868 137.172 352 137.576C346.305 138.859 340.609 140.142 334.604 141.526Z" fill="#D7CFCF"/>
<path d="M358 217.183C356.516 223.799 355.032 230.415 353.28 237.423C352.675 237.816 352.337 237.817 352 237.818C352.874 232.658 353.749 227.497 354.831 221.803C355.428 220.433 355.818 219.596 356.208 218.76C356.585 218.238 356.961 217.717 357.596 217.115C357.855 217.034 358 217.183 358 217.183Z" fill="#D3CDCF"/>
<path d="M409.843 220.357C408.171 219.598 406.499 218.838 404 217.703C409.964 215.533 410.238 219.799 413 220.229C411.777 220.381 410.81 220.369 409.843 220.357Z" fill="#7EA8C5"/>
<path d="M394.556 206.255C394.884 206.243 395.363 206.107 395.517 206.239C396.746 207.282 398.091 208.287 398.975 209.517C399.197 209.826 397.879 210.909 397.269 211.636C396.107 210.567 394.944 209.497 394 207.989C394.331 207.119 394.443 206.687 394.556 206.255Z" fill="#7EA8C5"/>
<path d="M346 98.1818C347.636 94.6566 349.632 91.0115 352 87.2727C350.368 90.8066 348.364 94.4343 346 98.1818Z" fill="#D4CECF"/>
<path d="M320.317 118.909C320 118.523 319.979 118.035 320.011 117.183C323.266 115.687 326.468 114.555 330 113.455C327.091 115.259 323.852 117.033 320.317 118.909Z" fill="#D4CECF"/>
<path d="M402.818 214.66C402.032 213.72 401.516 212.942 401 212.165C401.411 211.989 401.823 211.812 402.234 211.636C402.829 212.661 403.426 213.685 404 214.716C404.011 214.736 403.754 214.891 403.609 214.907C403.443 214.924 403.262 214.855 402.818 214.66Z" fill="#7EA8C5"/>
<path d="M323 147.273C323.441 146.558 324.23 145.825 325.02 145.091C325.347 145.34 325.673 145.59 326 145.84C325.116 146.311 324.233 146.782 323 147.273Z" fill="#D7CFCF"/>
<path d="M361 213.659C361.532 212.257 362.064 210.856 362.595 209.455C363.064 209.733 363.532 210.011 364 210.289C363.302 211.427 362.604 212.565 361.541 213.796C361.177 213.89 361 213.659 361 213.659Z" fill="#D3CDCF"/>
<path d="M335 110.182C335.562 109.473 336.562 108.745 338 108C337.438 108.71 336.438 109.437 335 110.182Z" fill="#D4CECF"/>
<path d="M314 154.945C313.118 155.311 312.235 155.677 311 156C311.421 155.115 312.195 154.274 313.375 153.818C313.854 154.451 313.927 154.698 314 154.945Z" fill="#7FA8C5"/>
<path d="M314.302 155.997C314.201 155.729 314.13 155.474 314 154.817C314.326 153.477 314.713 152.54 315.469 151.636C315.839 151.67 316 151.951 316 151.951C315.588 153.03 315.176 154.109 314.581 155.594C314.398 155.999 314.333 156.01 314.302 155.997Z" fill="#D7CFCF"/>
<path d="M361 213.894C360.656 214.244 360.231 214.56 359.491 214.903C359.176 214.93 359 214.86 359 214.86C359.411 214.53 359.822 214.201 360.499 213.83C360.764 213.79 360.919 213.86 361 213.894Z" fill="#D3CDCF"/>
<path d="M367 206.408C366.543 207.06 366.085 207.712 365.628 208.364C365.419 208.24 365.209 208.117 365 207.993C365.369 207.38 365.737 206.766 366.466 206.182C366.826 206.211 367 206.408 367 206.408Z" fill="#D2CDCE"/>
<path d="M331 113.455C331.556 113.078 332.569 112.723 334 112.364C333.431 112.731 332.444 113.104 331 113.455Z" fill="#D4CECF"/>
<path d="M344 101.454C344.171 100.42 344.86 99.3653 346 98.1818C345.806 99.18 345.162 100.307 344 101.454Z" fill="#D4CECF"/>
<path d="M394.904 206.253C395.086 206.895 394.998 207.487 394.736 208.263C394.562 208.446 394.249 208.373 393.975 208.095C393.467 207.272 393.233 206.727 393 206.182C393.545 206.189 394.089 206.196 394.904 206.253Z" fill="#D2CDCE"/>
<path d="M393 206.052C392.569 206.216 392.147 206.198 391.413 206.144C390.795 205.901 390.487 205.693 390.047 205.372C389.915 205.259 390.093 205.149 390.183 205.091C391.185 205.312 392.097 205.591 393 206.052Z" fill="#D2CDCE"/>
<path d="M357 218.182C356.851 218.835 356.127 219.523 355 220.364C355.206 219.75 355.816 218.984 357 218.182Z" fill="#7EA8C5"/>
<path d="M374 205.091C374.411 204.023 375.025 203.474 376 202.909C375.642 203.799 374.922 204.705 374 205.091Z" fill="#7EA8C5"/>
<path d="M340 104.727C340.18 104.364 340.848 104.001 342 103.636C341.818 103.999 341.153 104.363 340 104.727Z" fill="#D4CECF"/>
<path d="M317 151.495C317.333 151.178 317.667 150.862 318 150.545C317.859 150.915 317.718 151.285 317.339 151.636C317.101 151.617 317 151.495 317 151.495Z" fill="#D7CFCF"/>
<path d="M342.084 103.636C341.84 103.08 342.131 102.362 342.92 101.455C343.151 102.001 342.885 102.738 342.084 103.636Z" fill="#D4CECF"/>
<path d="M392.198 138.545C391.987 138.564 392.013 137.107 392 136.379C392.325 136.259 392.662 136.867 393 137.476C392.803 137.826 392.606 138.176 392.198 138.545Z" fill="#7FA8C5"/>
<path d="M316 151.444C316.179 151.113 316.399 150.86 316.753 150.556C316.886 150.505 316.962 150.65 317 150.724C316.821 151.054 316.604 151.311 316.255 151.625C316.123 151.681 316.041 151.523 316 151.444Z" fill="#D7CFCF"/>
<path d="M334 112.364C334.109 111.568 334.443 110.84 335 110.182C334.891 110.978 334.557 111.705 334 112.364Z" fill="#D4CECF"/>
<path d="M358 216.784C358.007 216.094 358.155 215.624 358.546 214.989C358.726 214.755 358.909 215.093 359 215.267C358.987 215.965 358.827 216.421 358.425 217.018C358.237 217.227 358.078 216.934 358 216.784Z" fill="#D3CDCF"/>
<path d="M338.057 108C337.863 107.694 338.167 107.338 338.946 106.909C339.131 107.207 338.843 107.579 338.057 108Z" fill="#D4CECF"/>
<path d="M129.348 198.928C129.901 202.224 130.454 205.519 131 209.143C122.771 209.792 114.633 209.641 106.826 206.572C92.2109 200.825 81.2557 182.058 95.9804 165.818C99.3962 167.281 102.539 168.705 105.269 170.663C114.308 177.147 120.54 185.866 125.919 195.249C126.725 196.654 128.189 197.71 129.348 198.928Z" fill="#FD8476"/>
<path d="M127.573 169.368C128.255 178.811 128.762 188.022 129 197.455C121.711 183.85 112.87 171.727 99 164.31C104.77 159.243 111.375 158.29 118.905 160.158C121.972 163.163 124.684 166.15 127.573 169.368Z" fill="#FC8477"/>
<path d="M97.8346 164.872C112.253 172.103 121.233 183.802 128.59 197.321C128.884 198.109 128.953 198.72 129 199.636C127.836 198.728 126.392 197.676 125.598 196.274C120.296 186.921 114.154 178.229 105.244 171.766C102.553 169.814 99.4546 168.394 96.2586 166.691C95.6495 166.01 95.3247 165.369 95 164.727C95.8355 164.751 96.671 164.774 97.8346 164.872Z" fill="#49211C"/>
<path d="M88 218.187C92.119 214.577 96.8689 212.976 101.985 214.253C107.462 215.621 112.794 217.676 118 220.364C108.399 217.009 99.0126 212.334 88.5607 218.401C88.1584 218.355 88 218.187 88 218.187Z" fill="#D8CFCF"/>
<path d="M105 82.3857C104.646 82.9382 104.291 83.4907 103.73 84.1438C103.523 84.2444 103.336 84.3335 103.262 84.1561C102.942 84.0624 102.695 84.1462 102.448 84.2299C97.3479 85.2442 92.2478 86.2585 87.1478 87.2728C87.0985 86.9334 87.0493 86.5941 87 86.2548C92.5446 84.716 98.0891 83.1772 104.016 81.8182C104.558 82.2123 104.759 82.3416 105 82.3857Z" fill="#D0CBCE"/>
<path d="M74 130.697C76.452 128.95 78.9041 127.202 81.3561 125.455C81.5708 125.953 81.7854 126.452 82 126.951C79.6229 128.287 77.2458 129.624 74.5034 130.909C74.138 130.858 74 130.697 74 130.697Z" fill="#D6CECF"/>
<path d="M117 66.386C118.497 65.4771 119.935 64.9204 121.372 64.3636C121.581 64.7089 121.791 65.0542 122 65.3994C120.535 66.4617 119.069 67.524 117.359 68.7273C117.056 68.1582 116.998 67.4482 117 66.386Z" fill="#F8DCD2"/>
<path d="M103 144.153C103.817 143.328 104.72 142.703 106 141.818C105.761 142.972 105.564 143.922 105.256 145.091C104.459 144.99 103.773 144.672 103 144.153Z" fill="#F7DAD0"/>
<path d="M64 136.131C65.3917 135.099 66.7834 134.066 68.5182 133.091C68.8613 133.148 69 133.322 69 133.322C67.6101 134.354 66.2202 135.386 64.4865 136.364C64.1427 136.31 64 136.131 64 136.131Z" fill="#D6CECF"/>
<path d="M78 87.2727C76.6667 87.141 75.3333 87.0093 74 86.8776C74.0799 86.6457 74.1599 86.4137 74.2398 86.1818C75.4575 86.4273 76.6752 86.6729 77.9472 87.0949C78.0014 87.2713 78 87.2727 78 87.2727Z" fill="#80A9C6"/>
<path d="M91.6071 122.182C91.9286 122.187 91.9816 122.592 92 122.794C90.5209 123.816 89.0233 124.635 87.5258 125.454C87.3505 125.054 87.1753 124.653 87 124.253C88.4286 123.561 89.8571 122.869 91.6071 122.182Z" fill="#D6CECF"/>
<path d="M113 154.581C113.627 153.661 114.395 153.005 116 151.636C115.507 153.784 115.291 154.727 114.953 156C114.269 155.836 113.705 155.341 113 154.581Z" fill="#F7DAD0"/>
<path d="M22.0042 170.182C21.9536 169.019 22.369 167.669 23 165.818C22.9671 166.877 22.7186 168.435 22.0042 170.182Z" fill="#DAD1D1"/>
<path d="M96 130.909C96.3767 131.401 96.6963 132.126 97 133.091C96.637 132.601 96.2899 131.871 96 130.909Z" fill="#F7DBD0"/>
<path d="M60.6255 138.546C60.91 138.528 60.9629 138.759 61 138.874C60.4867 139.204 59.9363 139.42 59.3859 139.636C59.2573 139.577 59.1286 139.518 59 139.458C59.447 139.161 59.894 138.863 60.6255 138.546Z" fill="#7FA9C5"/>
<path d="M49 147.021C49.3333 146.378 49.6667 145.734 50 145.091C49.8552 145.828 49.7103 146.566 49.3292 147.273C49.0928 147.243 49 147.021 49 147.021Z" fill="#DAD0CF"/>
<path d="M40 151.931C39.6667 152.56 39.3333 153.189 39 153.818C39.1448 153.078 39.2897 152.338 39.6625 151.636C39.8905 151.675 40 151.931 40 151.931Z" fill="#DAD0CF"/>
<path d="M85 220.002C85.3963 219.368 85.7927 218.734 86.5197 218.182C86.8504 218.263 87 218.56 87 218.56C86.5998 219.189 86.1996 219.818 85.4704 220.364C85.1414 220.28 85 220.002 85 220.002Z" fill="#D8CFCF"/>
<path d="M87 218.005C87.0816 217.663 87.2354 217.405 87.6269 217.124C87.7925 217.016 87.9303 217.202 88 217.299C87.9731 217.723 87.8183 217.982 87.371 218.181C87.1367 218.191 87 218.005 87 218.005Z" fill="#D8CFCF"/>
<path d="M47 147.321C46.8666 147.657 46.7089 147.963 46.3105 148.332C46.0698 148.396 46.0237 148.348 46 148.32C46.132 147.984 46.2877 147.677 46.6834 147.304C46.9235 147.238 46.9757 147.292 47 147.321Z" fill="#DAD0CF"/>
<path d="M44 150.211C44.0838 149.539 44.2376 149.018 44.6307 148.433C44.8 148.217 44.9325 148.559 45 148.739C44.977 149.575 44.8265 150.108 44.3768 150.544C44.1376 150.572 44 150.211 44 150.211Z" fill="#DAD0CF"/>
<path d="M31 160.185C31.0246 159.778 31.1731 159.51 31.6202 159.274C31.8617 159.254 32 159.426 32 159.426C31.9162 159.755 31.7643 160.017 31.3736 160.326C31.2029 160.439 31.0668 160.271 31 160.185Z" fill="#DAD1D1"/>
<path d="M286.827 34.8469C286.546 34.9908 286.298 34.894 286.019 34.462C285.994 34.0029 285.999 33.879 286.004 33.755C287.137 31.9776 288.27 30.2002 289.69 28.3874C289.977 28.3521 290 28.3666 290 28.3666C288.953 30.4465 287.907 32.5264 286.827 34.8469Z" fill="#82AAC6"/>
<path d="M299 43.3818C297.08 43.6364 295.107 43.6364 293.135 43.6364C293.09 43.3078 293.045 42.9792 293 42.6506C294.243 42.3256 295.487 42.0006 296.952 41.4546C297.765 41.8647 298.356 42.4959 299 43.3818Z" fill="#F8DCD1"/>
<path d="M315 95.9069C313.906 96.7938 312.731 97.4878 311.556 98.1818C311.371 98.0677 311.185 97.9536 311 97.8395C311.546 96.9097 312.092 95.9799 312.868 94.9091C313.705 95.0834 314.312 95.3987 315 95.9069Z" fill="#F8DBD1"/>
<path d="M257 29.1908C256.808 29.4214 256.588 29.4457 256.035 29.4546C255.915 29.0807 256.128 28.7222 256.342 28.3636C256.552 28.5706 256.762 28.7776 257 29.1908Z" fill="#82AAC6"/>
<path d="M285.755 32.7273C286.049 32.908 286.041 33.3251 285.924 34.3368C285.815 34.9314 285.274 34.919 285.003 34.9049C284.972 34.2485 285.212 33.6061 285.755 32.7273Z" fill="#F8DCD1"/>
<path d="M215.37 187.707C211.509 188.382 207.653 189.081 203.788 189.727C191.454 191.787 181.483 197.826 173.214 207.003C175.23 201.137 177.545 195.516 180.303 188.82C174.32 195.79 170.737 202.608 170.37 210.9C167.659 214.17 164.926 217.423 162.242 220.715C159.325 224.295 156.817 224.746 153.882 221.166C150.67 217.248 147.995 212.837 145.515 208.407C138.504 195.881 132.883 182.76 129 168.594C133.946 156.241 138.289 143.995 140.583 131.13C141.003 128.777 141.047 126.357 141.459 123.314C141.475 120.027 141.296 117.394 141.118 114.761C141.099 113.263 141.081 111.765 141.238 109.79C141.322 108.815 141.23 108.316 141.139 107.817C141.356 105.245 141.574 102.674 141.794 99.4814C141.415 97.6876 141.033 96.5154 140.65 95.3433C141.071 93.4671 141.516 91.5958 141.907 89.7136C142.784 85.4963 143.633 81.2736 144.831 76.624C145.442 75.3975 145.717 74.6001 145.991 73.8026C146.184 73.7654 146.377 73.7282 147.078 73.5782C148 73.0169 148.414 72.5683 148.828 72.1196C166.403 61.384 172.226 58.7186 177.133 50.1818C186.459 55.0667 196.281 56.8032 206.74 54.5362C207.993 54.2647 209.468 54.9955 211.206 55.1798C211.572 55.0979 211.567 55.182 211.567 55.182C212.619 56.3546 213.452 57.909 214.757 58.6388C224.699 64.1993 235.232 65.8843 246.392 62.9087C248.025 62.473 249.71 62.2261 251.768 62.1735C252.417 62.892 252.671 63.3289 252.924 63.7659C257.542 73.4572 265.348 78.774 276.061 79.5082C289.591 80.4353 296.047 91.4653 297.852 102.59C298.541 106.837 300.244 110.931 301.609 115.055C301.775 115.554 302.715 115.803 303.602 116.422C303.938 116.839 303.969 117.001 304 117.164C299.964 130.289 298.339 143.627 300.248 157.301C300.521 159.257 300.45 161.259 300.491 163.982C300.123 168.176 299.803 171.628 299.483 175.08C296.399 186.092 293.1 197.05 290.3 208.132C288.022 217.146 283.861 220.096 274.509 218.293C272.267 217.861 269.926 217.554 267.879 216.645C266.434 216.003 264.796 214.651 264.3 213.251C262.027 206.833 258.753 201.185 253.34 196.542C252.659 192.164 250.47 189.15 247.033 186.956C248.122 189.273 249.212 191.591 250.302 193.909C242.86 190.375 235.03 188.307 226.579 187.524C231.419 182.623 232.947 177.363 229.986 173.007C229.872 174.709 229.75 175.916 229.716 177.126C229.495 184.927 224.066 188.651 216.665 186.031C215.323 185.555 214.011 184.976 212.727 184.36C208.088 182.133 203.4 181.139 198.215 182.612C194.111 183.777 190.284 183.477 189.043 177.896C188.789 179.612 188.707 181.181 189.424 182.199C191.399 185.003 194.441 185.419 197.498 184.465C204.091 182.409 209.843 184.316 215.37 187.707ZM180.888 160.619C178.802 162.55 176.716 164.481 174.631 166.412C175.099 166.83 175.567 167.248 176.035 167.666C177.898 165.333 179.761 162.999 182.125 160.372C183.441 158.207 184.758 156.042 186.074 153.877C185.523 153.605 184.972 153.333 184.421 153.061C183.438 155.553 182.455 158.044 180.888 160.619ZM251.439 111.434C250.329 111.167 249.195 110.603 248.115 110.691C245.397 110.913 241.464 110.516 240.305 112.052C238.775 114.082 239.112 117.736 239.27 120.659C239.351 122.169 240.48 123.911 241.644 125.031C251.934 134.936 264.4 138.688 278.48 136.776C283.898 136.041 286.002 131.966 284.454 126.699C282.713 120.774 278.673 116.926 272.663 115.557C265.875 114.011 258.975 112.945 251.439 111.434ZM181.29 132.755C187.044 130.247 192.167 126.951 194.654 120.935C197.608 113.789 194.018 109.216 186.475 110.516C178.631 111.868 170.806 113.357 163.024 115.024C156.661 116.387 151.735 119.655 149.656 126.184C147.85 131.854 149.852 135.735 155.751 136.898C164.487 138.621 172.684 136.23 181.29 132.755ZM181.159 153.736C181.424 146.652 176.422 141.853 170.193 143.216C165.724 144.193 162.591 147.979 162.685 152.289C162.78 156.617 166.028 160.283 170.515 161.125C174.964 161.96 178.804 159.472 181.159 153.736ZM255.329 157.22C260.429 156.867 263.773 154.678 264.801 150.724C265.821 146.804 264.805 143.396 261.416 140.943C258.207 138.62 254.679 138.516 251.293 140.368C247.827 142.263 246.373 145.411 246.843 149.315C247.393 153.884 250.283 156.256 255.329 157.22ZM222.714 140.047C224.466 147.967 226.217 155.887 227.969 163.806C228.538 163.678 229.108 163.55 229.677 163.421C225.914 147.128 222.15 130.836 218.387 114.543C217.816 114.668 217.245 114.793 216.674 114.918C218.627 123.066 220.579 131.213 222.714 140.047ZM237.973 158.804C240.338 161.146 242.702 163.488 245.067 165.831C245.36 165.516 245.654 165.201 245.948 164.886C242.197 160.484 238.446 156.082 234.695 151.68C234.474 151.79 234.253 151.9 234.032 152.01C235.235 154.102 236.438 156.195 237.973 158.804ZM245.695 184.911C245.496 184.804 245.304 184.678 245.093 184.607C245.048 184.592 244.934 184.777 244.851 184.869C245.052 184.977 245.252 185.085 245.695 184.911Z" fill="#FF8476"/>
<path d="M108 101.482C104.987 107.291 101.975 113.1 98.9622 118.909C98.6414 118.741 98.3207 118.572 98 118.404C99.6841 112.067 102.688 106.416 107.631 101.513C107.922 101.404 108 101.482 108 101.482Z" fill="#F7DBD0"/>
<path d="M299 176.727C299.031 172.983 299.467 169.241 300.032 165.111C300.593 164.726 301.023 164.727 301.778 164.727C302.068 168.446 302.032 172.166 301.906 176.31C301.011 176.731 300.208 176.73 299 176.727Z" fill="#F8DBD1"/>
<path d="M132 139.58C133.951 136.326 135.902 133.072 137.852 129.818C138.235 129.993 138.617 130.168 139 130.342C138.545 134.126 134.977 136.564 132.44 139.629C132.093 139.661 132 139.58 132 139.58Z" fill="#F7DAD0"/>
<path d="M140.813 115.636C140.926 117.906 141.008 120.452 140.999 123.259C140.672 123.641 140.436 123.759 140.114 124.103C140.028 124.329 140 124.364 140 124.364C140.261 121.546 140.522 118.729 140.813 115.636Z" fill="#F7DAD0"/>
<path d="M145.999 75.2727C146.021 75.9015 145.763 76.5397 145.29 77.2817C143.223 77.7722 141.371 78.1588 139.52 78.5454C139.346 78.3489 139.173 78.1523 139 77.9558C141.239 77.0646 143.478 76.1734 145.999 75.2727Z" fill="#F7DBD0"/>
<path d="M111 130.932C109.402 133.47 107.804 136.008 106.206 138.545C105.804 138.394 105.402 138.242 105 138.091C106.013 135.475 107.391 132.997 110.574 130.966C110.916 130.862 111 130.932 111 130.932Z" fill="#F7DAD0"/>
<path d="M271.227 52.2582C273.391 51.0897 275.343 50.0903 277.296 49.0909C277.531 49.4574 277.765 49.8238 278 50.1902C275.569 51.5136 273.138 52.837 270 54.5455C270.572 53.3544 270.794 52.8909 271.227 52.2582Z" fill="#F8DCD1"/>
<path d="M140.971 96C141.426 96.9319 141.746 98.0377 142 99.3899C141.255 100.058 140.575 100.479 139 101.455C139.815 99.1077 140.325 97.6408 140.971 96Z" fill="#F7DAD0"/>
<path d="M145.846 57.8182C146.682 57.8846 147.218 57.9603 147.754 58.0359C147.836 58.2657 147.918 58.4955 148 58.7253C146.502 59.1503 145.004 59.5752 143.506 60.0001C143.337 59.7792 143.169 59.5583 143 59.3374C143.849 58.8341 144.698 58.3308 145.846 57.8182Z" fill="#F8DCD2"/>
<path d="M111 130.836C111.846 129.018 112.731 127.236 113.615 125.455C114.077 125.719 114.538 125.983 115 126.247C113.902 127.773 112.804 129.298 111.41 130.885C111.113 130.948 111.038 130.872 111 130.836Z" fill="#F7DAD0"/>
<path d="M98 122.2C97.7341 123.285 97.4682 124.37 97.2023 125.454C96.4682 125.387 95.7341 125.319 95 125.251C95.697 124.238 96.394 123.225 97.4994 122.19C97.9078 122.167 98 122.2 98 122.2Z" fill="#F7DBD0"/>
<path d="M227.929 45.5594C229.301 44.8109 230.389 44.2236 231.476 43.6364C231.651 43.87 231.825 44.1037 232 44.3374C230.204 45.9219 228.408 47.5064 226.612 49.0909C226.408 48.9229 226.204 48.755 226 48.587C226.548 47.6315 227.097 46.676 227.929 45.5594Z" fill="#F8DCD1"/>
<path d="M220.277 50.1818C220.672 50.4519 221.016 51.1353 220.999 51.1449C219.831 51.8285 218.634 52.4582 217 52.3518C218.02 51.6614 219.039 50.971 220.277 50.1818Z" fill="#F8DCD1"/>
<path d="M130 113.53C128.954 114.596 127.909 115.662 126.863 116.727C126.575 116.156 126.288 115.585 126 115.014C127.084 114.491 128.169 113.968 129.591 113.455C129.928 113.464 130 113.53 130 113.53Z" fill="#F7DAD0"/>
<path d="M233 41.4471C234.186 40.3586 235.371 39.2702 236.557 38.1818C237.038 38.5253 237.519 38.8689 238 39.2125C236.602 39.9485 235.203 40.6846 233.42 41.4433C233.035 41.466 233 41.4471 233 41.4471Z" fill="#F8DCD1"/>
<path d="M280.023 47.0936C280.98 46.5533 281.69 46.1858 282.4 45.8182C282.6 46.1502 282.8 46.4822 283 46.8142C281.679 47.7037 280.359 48.5932 278 50.1819C278.992 48.5537 279.384 47.9101 280.023 47.0936Z" fill="#F8DCD1"/>
<path d="M114 94.9497C112.893 96.0287 111.786 97.1077 110.371 98.1818C110.063 98.1769 110 98.1253 110 98.1253C111.126 97.058 112.253 95.9907 113.66 94.911C113.942 94.8986 114 94.9497 114 94.9497Z" fill="#F7DBD0"/>
<path d="M126 145.122C124.995 146.203 123.99 147.283 122.986 148.364C122.657 148.047 122.329 147.731 122 147.414C123.108 146.652 124.215 145.889 125.629 145.099C125.935 145.072 126 145.122 126 145.122Z" fill="#F7DAD0"/>
<path d="M176.316 45.9434C176.74 45.0402 177.002 44.3383 177.265 43.6364C177.51 43.9671 177.755 44.2979 178 44.6287C177.391 45.3888 176.782 46.149 176.173 46.9091C176.111 46.7974 175.997 46.6831 176 46.5745C176.004 46.4289 176.098 46.2877 176.316 45.9434Z" fill="#F8DCD2"/>
<path d="M128.768 82.8533C129.534 82.409 130.122 82.1136 130.71 81.8182C130.807 82.3482 130.903 82.8782 131 83.4082C130.008 83.6055 129.016 83.8028 128.023 84.0001C128.02 83.8502 127.973 83.6262 128.022 83.564C128.193 83.3466 128.398 83.185 128.768 82.8533Z" fill="#F7DBD0"/>
<path d="M260 61.1695C258.791 61.8706 257.582 62.5717 256.373 63.2728C256.248 62.8869 256.124 62.501 256 62.1151C257.09 61.77 258.18 61.4248 259.599 61.0909C259.928 61.1023 260 61.1695 260 61.1695Z" fill="#F8DCD1"/>
<path d="M309 102.532C308.964 103.462 308.921 104.095 308.878 104.727C308.57 104.517 307.982 104.238 308 104.108C308.129 103.206 308.384 102.335 308.599 101.455C308.707 101.54 308.853 101.594 308.914 101.719C308.981 101.857 308.97 102.06 309 102.532Z" fill="#F8DBD1"/>
<path d="M110 98.2143C109.619 99.2746 109.202 100.307 108.46 101.419C108.135 101.499 108.046 101.424 108 101.388C108.414 100.372 108.874 99.3932 109.611 98.2748C109.887 98.1351 109.964 98.1867 110 98.2143Z" fill="#F7DBD0"/>
<path d="M265 57.8182C264.291 58.7123 263.484 59.3562 262.677 60.0001C262.452 59.7112 262.226 59.4222 262 59.1333C262.967 58.6116 263.934 58.0898 265 57.8182Z" fill="#F8DCD1"/>
<path d="M136 106.845C136.281 105.775 136.562 104.706 136.844 103.636C137.229 103.866 137.615 104.095 138 104.324C137.543 105.173 137.085 106.023 136.347 106.903C136.066 106.933 136 106.845 136 106.845Z" fill="#F7DAD0"/>
<path d="M135 80.7272C135.691 79.812 136.453 79.1787 137.216 78.5454C137.477 78.9297 137.739 79.3139 138 79.6982C137.024 80.1352 136.048 80.5721 135 80.7272Z" fill="#F7DBD0"/>
<path d="M135 108.043C134.573 108.741 134.145 109.44 133.382 110.169C133.047 110.199 133 110.167 133 110.167C133.404 109.457 133.808 108.746 134.565 108.007C134.918 107.979 135 108.043 135 108.043Z" fill="#F7DAD0"/>
<path d="M121 121.001C121.484 120.298 121.969 119.594 122.698 118.909C122.943 118.927 123 119.027 123 119.027C122.505 119.72 122.01 120.413 121.278 121.091C121.042 121.075 121 121.001 121 121.001Z" fill="#F7DAD0"/>
<path d="M138 60.0104C137.573 60.3706 137.146 60.7307 136.719 61.0909C136.48 60.9642 136.24 60.8375 136 60.7107C136.476 60.4777 136.952 60.2447 137.701 60.0027C137.974 59.9936 138 60.0104 138 60.0104Z" fill="#F8DCD2"/>
<path d="M140 124.364C139.837 125.435 139.633 126.536 139.429 127.636C138.953 127.425 138.476 127.213 138 127.001C138.516 126.356 139.033 125.712 139.711 124.758C139.873 124.449 139.959 124.393 140 124.364Z" fill="#F7DAD0"/>
<path d="M304.465 112.345C304.31 111.657 304.155 110.968 304 110.28C304.321 110.247 304.641 110.215 304.962 110.182C305.008 110.832 305.054 111.482 304.828 112.275C304.555 112.418 304.465 112.345 304.465 112.345Z" fill="#F8DBD1"/>
<path d="M305 112.46C304.876 113.441 304.713 114.375 304.304 115.505C304.058 115.699 304 115.621 304 115.621C304.124 114.566 304.249 113.51 304.628 112.387C304.884 112.32 304.961 112.414 305 112.46Z" fill="#F8DBD1"/>
<path d="M120.856 148.364C121.06 149.02 121.004 149.783 120.949 150.545C120.633 150.443 120.316 150.34 120 150.237C120.199 149.648 120.398 149.058 120.856 148.364Z" fill="#F7DAD0"/>
<path d="M266.653 55.6364C267 56.3093 267 57.0637 267 57.8182C266.667 57.8052 266.333 57.7922 266 57.7792C266.102 57.0921 266.204 56.4049 266.653 55.6364Z" fill="#F8DCD1"/>
<path d="M123 88.6319C122.602 89.1237 122.301 89.2891 122 89.4545C122.148 88.7273 122.296 88 122.444 87.2727C122.662 87.617 122.88 87.9613 123 88.6319Z" fill="#F7DBD0"/>
<path d="M121 121.122C120.567 121.486 120.103 121.834 119.64 122.182C119.426 122.116 119.213 122.05 119 121.985C119.442 121.7 119.883 121.415 120.615 121.102C120.905 121.074 120.97 121.105 121 121.122Z" fill="#F7DAD0"/>
<path d="M123 118.78C123.364 118.055 123.786 117.391 124.207 116.727C124.471 116.976 124.736 117.225 125 117.474C124.62 117.914 124.24 118.353 123.515 118.879C123.171 118.966 123.057 118.842 123 118.78Z" fill="#F7DAD0"/>
<path d="M135 107.953C135.202 107.606 135.424 107.28 135.793 106.921C135.94 106.888 135.98 106.931 136 106.954C135.799 107.302 135.577 107.628 135.209 107.988C135.062 108.022 135.021 107.976 135 107.953Z" fill="#F7DAD0"/>
<path d="M151 60.0001C151.31 59.2118 151.954 58.515 152.598 57.8182C152.732 58.3035 152.866 58.7888 153 59.2741C152.445 59.5466 151.889 59.8191 151 60.0001Z" fill="#F8DCD2"/>
<path d="M118 151.243C117.632 151.491 117.316 151.564 117 151.636C117.151 151.273 117.303 150.909 117.454 150.545C117.653 150.72 117.852 150.894 118 151.243Z" fill="#F7DAD0"/>
<path d="M124 86.2154C124.378 86.1241 124.875 86.2233 124.987 86.4578C125.076 86.6434 124.691 86.9948 124.517 87.2727C124.329 87.0032 124.141 86.7338 124 86.2154Z" fill="#F7DBD0"/>
<path d="M260 61.0515C260.165 60.6829 260.362 60.3414 260.559 60C260.706 60.0816 260.853 60.1632 261 60.2448C260.811 60.4832 260.622 60.7216 260.266 61.0441C260.098 61.1282 260.031 61.0787 260 61.0515Z" fill="#F8DCD1"/>
<path d="M128.991 61.0909C129.051 61.9931 128.811 62.6329 128.57 63.2728C128.37 63.0979 127.969 62.8844 128.002 62.7548C128.169 62.1007 128.449 61.4685 128.991 61.0909Z" fill="#F8DCD2"/>
<path d="M268 54.579C268.378 54.4877 268.876 54.587 268.987 54.8213C269.075 55.0074 268.692 55.3585 268.517 55.6363C268.329 55.3669 268.141 55.0974 268 54.579Z" fill="#F8DCD1"/>
<path d="M253 64.3636C252.615 64.1947 252.333 63.8387 252 63.2727C252.334 63.434 252.719 63.8053 253 64.3636Z" fill="#F8DCD1"/>
<path d="M149 73.0909C148.732 73.7823 148.054 74.5132 147 75.2728C147.279 74.5778 147.934 73.8541 149 73.0909Z" fill="#F7DBD0"/>
<path d="M134.991 80.7273C135.051 81.1783 134.811 81.4983 134.57 81.8182C134.37 81.7308 133.969 81.624 134.002 81.5593C134.169 81.2322 134.45 80.9161 134.991 80.7273Z" fill="#F7DBD0"/>
<path d="M138 59.8158C138.327 59.0862 138.663 58.4522 139 57.8182C138.797 58.4865 138.594 59.1547 138.213 59.9532C138.034 60.0833 138.01 59.9114 138 59.8158Z" fill="#F8DCD2"/>
<path d="M130 113.43C130.135 113.104 130.306 112.8 130.705 112.416C130.934 112.336 131 112.372 131 112.372C130.839 112.678 130.678 112.984 130.314 113.39C130.112 113.488 130.035 113.451 130 113.43Z" fill="#F7DAD0"/>
<path d="M241.013 37.0909C241.777 37.3355 241.888 37.7587 242 38.1819C241.454 37.8778 240.907 37.5737 241.013 37.0909Z" fill="#F8DCD1"/>
<path d="M133 110.248C132.906 110.995 132.732 111.577 132.28 112.252C132.063 112.454 132 112.32 132 112.32C132.12 111.632 132.302 111.067 132.74 110.358C132.934 110.092 132.98 110.191 133 110.248Z" fill="#F7DAD0"/>
<path d="M202.894 231.297C197.929 227.662 193.274 224.165 188 220.203C202.355 215.027 214.049 207.676 218.563 192C225.961 207.867 239.571 213.98 255 216.991C250.466 220.616 246.046 224.455 241.265 227.78C239.92 228.716 237.109 228.901 235.666 228.136C229.406 224.813 223.75 226.521 217.986 229.252C213.31 231.467 208.586 233.767 202.894 231.297Z" fill="#FF8577"/>
<path d="M216.074 188.725C210.17 185.155 204.366 183.182 197.714 185.309C194.63 186.295 191.561 185.866 189.569 182.965C188.845 181.911 188.928 180.288 189.184 178.513C190.436 184.286 194.297 184.597 198.437 183.391C203.67 181.868 208.399 182.897 213.079 185.2C214.375 185.838 215.698 186.437 217.052 186.929C224.519 189.639 229.996 185.787 230.219 177.716C230.254 176.465 230.377 175.216 230.492 173.455C233.479 177.961 231.938 183.404 226.67 188.397C223.126 188.692 219.764 188.739 216.074 188.725Z" fill="#522721"/>
<path d="M171 211.636C171.135 203.114 174.83 196 181 188.727C178.156 195.714 175.768 201.58 173.41 207.803C173.44 208.16 173.426 208.135 173.216 208.237C172.918 208.635 172.829 208.931 172.74 209.228C172.241 209.987 171.742 210.746 171 211.636Z" fill="#DB5E3A"/>
<path d="M250.187 194.934C249.119 192.511 248.06 190.074 247 187.636C250.343 189.944 252.472 193.113 253 197.455C252.288 197.184 251.8 196.739 251.132 195.845C250.707 195.238 250.461 195.082 250.216 194.925C250.216 194.925 250.196 194.921 250.187 194.934Z" fill="#DA5D39"/>
<path d="M172.093 209.455C171.847 209.247 172.081 208.867 172.897 208.364C173.177 208.587 172.876 208.935 172.093 209.455Z" fill="#FF8476"/>
<path d="M250 194.235C250.252 193.98 250.594 194.642 251 196.304C250.739 196.586 250.415 195.869 250 194.235Z" fill="#FF8476"/>
<path d="M251.705 113.221C258.926 114.593 265.853 115.644 272.667 117.167C278.699 118.515 282.754 122.306 284.503 128.143C286.057 133.333 283.945 137.346 278.505 138.071C264.372 139.954 251.858 136.258 241.529 126.5C240.36 125.396 239.227 123.68 239.146 122.193C238.988 119.313 238.649 115.714 240.185 113.714C241.348 112.2 245.296 112.591 248.025 112.373C249.109 112.286 250.247 112.841 251.705 113.221Z" fill="#FADDD2"/>
<path d="M180.522 134.139C172.329 137.348 164.25 139.652 155.64 137.992C149.825 136.871 147.852 133.133 149.632 127.67C151.681 121.381 156.537 118.232 162.808 116.919C170.478 115.314 178.19 113.879 185.922 112.576C193.356 111.324 196.895 115.729 193.983 122.614C191.531 128.409 186.482 131.585 180.522 134.139Z" fill="#FADDD2"/>
<path d="M180.982 154.781C178.776 160.602 175.017 163.272 170.664 162.376C166.273 161.472 163.094 157.538 163.002 152.893C162.91 148.269 165.976 144.206 170.349 143.157C176.444 141.695 181.339 146.844 180.982 154.781Z" fill="#3A1913"/>
<path d="M255.036 157.091C250.445 156.181 247.621 153.896 247.084 149.496C246.625 145.735 248.045 142.703 251.432 140.877C254.741 139.093 258.187 139.194 261.323 141.432C264.634 143.794 265.627 147.076 264.631 150.853C263.626 154.661 260.358 156.769 255.036 157.091Z" fill="#371712"/>
<path d="M222.948 140.709C220.904 132.248 218.952 124.129 217 116.01C217.571 115.886 218.142 115.761 218.713 115.636C222.475 131.872 226.238 148.108 230 164.344C229.431 164.471 228.861 164.599 228.292 164.727C226.541 156.835 224.79 148.943 222.948 140.709Z" fill="#542720"/>
<path d="M237.802 158.517C236.424 156.161 235.212 154.064 234 151.967C234.223 151.857 234.445 151.747 234.668 151.636C238.445 156.048 242.223 160.46 246 164.872C245.704 165.187 245.408 165.503 245.112 165.818C242.731 163.471 240.35 161.123 237.802 158.517Z" fill="#E96C51"/>
<path d="M182 160.424C180.135 162.95 178.27 165.475 176.405 168C175.937 167.548 175.468 167.095 175 166.643C177.087 164.553 179.175 162.463 181.593 160.364C181.923 160.356 182 160.424 182 160.424Z" fill="#E96C51"/>
<path d="M182 160.327C182.829 158.138 183.69 155.978 184.551 153.818C185.034 154.054 185.517 154.29 186 154.525C184.846 156.402 183.693 158.279 182.32 160.283C182.1 160.411 182.033 160.355 182 160.327Z" fill="#E96C51"/>
</svg>
