<svg width="64" height="66" viewBox="0 0 64 66" fill="none" xmlns="http://www.w3.org/2000/svg">
<path d="M0 58.947C0 39.3157 0 19.6843 0 0C21.2596 0 42.5194 0 63.8896 0C63.8896 21.8334 63.8896 43.7205 63.8896 65.947C45.9805 65.947 27.9589 65.947 9.2664 65.6823C5.73032 63.2608 2.86516 61.1039 0 58.947ZM32.6197 13.1007C28.3661 15.3456 23.9987 17.4072 19.9234 19.9391C18.5723 20.7785 17.2939 22.7697 17.16 24.335C16.7923 28.6345 16.7484 33.0198 17.2098 37.303C17.39 38.976 18.9524 40.902 20.4273 41.9503C23.5351 44.1593 26.903 46.0762 30.3658 47.677C31.8247 48.3514 34.0289 48.5016 35.4934 47.9053C48.2739 42.7019 49.1075 41.3467 49.0636 27.7205C49.0603 26.7207 49.3194 25.6184 48.9857 24.7432C48.3645 23.1137 47.7903 20.987 46.5003 20.1798C42.2961 17.5488 37.7778 15.4198 32.6197 13.1007Z" fill="#EDE4FF"/>
<path d="M33.0001 13.0991C37.7779 15.4198 42.2962 17.5488 46.5004 20.1798C47.7903 20.987 48.3645 23.1137 48.9858 24.7432C49.3194 25.6184 49.0604 26.7207 49.0636 27.7205C49.1075 41.3467 48.2739 42.7019 35.4935 47.9053C34.029 48.5015 31.8247 48.3514 30.3658 47.677C26.9031 46.0761 23.5351 44.1593 20.4273 41.9503C18.9525 40.902 17.39 38.976 17.2098 37.303C16.7484 33.0198 16.7924 28.6345 17.1601 24.335C17.2939 22.7697 18.5724 20.7785 19.9235 19.9391C23.9987 17.4072 28.3662 15.3456 33.0001 13.0991ZM29.8686 38.9917C31.1866 38.9943 32.5713 39.2571 33.8071 38.9397C35.7569 38.4389 37.6067 37.5484 39.4989 36.8228C37.4945 35.5961 35.6109 33.7797 33.446 33.3361C31.8249 33.0039 29.5653 34.0725 28.0892 35.1817C26.2481 36.5652 26.2791 38.2824 29.8686 38.9917ZM36.0734 29.3368C35.8178 27.329 35.9296 25.141 35.0863 23.4214C34.8281 22.8949 31.3985 23.0712 30.4289 23.9896C29.4881 24.8806 29.1725 28.2288 29.7545 28.5856C31.3496 29.5633 33.5611 29.5355 36.0734 29.3368Z" fill="#9564F4"/>
<path d="M29.4396 38.9739C26.279 38.2824 26.248 36.5652 28.0891 35.1817C29.5653 34.0725 31.8248 33.004 33.446 33.3361C35.6109 33.7797 37.4945 35.5961 39.4989 36.8228C37.6067 37.5484 35.7569 38.4389 33.807 38.9397C32.5713 39.2571 31.1865 38.9943 29.4396 38.9739Z" fill="#E5D9FE"/>
<path d="M35.8011 29.6213C33.5611 29.5355 31.3496 29.5633 29.7545 28.5856C29.1725 28.2288 29.4881 24.8806 30.4289 23.9896C31.3986 23.0712 34.8281 22.8949 35.0863 23.4214C35.9296 25.141 35.8179 27.329 35.8011 29.6213Z" fill="#E7DBFE"/>
</svg>
