<svg width="322" height="451" viewBox="0 0 322 451" fill="none" xmlns="http://www.w3.org/2000/svg">
<path d="M117.109 208.937C125.431 213.566 130.319 221.101 132.973 229.767C138.438 247.616 142.253 266.023 148.548 283.553C155.832 303.838 165.054 323.427 173.435 343.319C174.039 343.394 174.644 343.468 175.248 343.543C178.445 339.609 181.754 335.762 184.819 331.728C198.166 314.16 211.446 296.542 224.739 278.934C227.669 275.052 230.55 271.133 233.926 267.379C246.004 282.06 257.61 296.593 269.216 311.125C265.986 319.154 263.064 327.324 259.462 335.183C251.647 352.232 242.337 368.512 230.946 383.392C218.377 399.81 204.254 414.821 184.969 423.625C173.04 429.07 160.688 431.419 147.326 425.995C102.91 391.879 79.7884 345.556 66.6958 292.376C66.3389 293.607 66.1285 293.939 66.1762 294.228C66.7696 297.827 67.38 301.424 68.0252 305.014C72.9716 332.543 78.5294 359.841 92.1631 384.812C93.9692 388.121 93.7331 393.319 92.7553 397.219C90.312 406.964 82.5156 413.04 75.1508 418.923C58.5193 432.207 39.4139 441.281 20.1253 449.949C13.6539 449.949 7.18246 449.949 0.0867557 449.949C0.0867557 448.299 0.0867557 446.707 0.0867557 445.115C0.0866647 423.973 -0.156439 402.826 0.171648 381.689C0.391519 367.523 1.15135 353.35 2.16721 339.216C3.13951 325.688 4.37114 312.155 6.17402 298.716C9.13876 276.616 11.3751 254.305 19.159 233.188C21.5804 226.619 25.299 220.528 28.9866 214.008C29.879 213.648 30.062 213.393 30.0982 213.033C30.0982 213.033 30.0947 213.101 30.4176 213.084C31.4579 212.659 32.2139 212.305 32.8872 211.834C47.9799 201.265 64.7347 197.781 82.6893 201.044C94.2584 203.147 105.642 206.271 117.109 208.937ZM177.877 353.981C177.204 351.722 176.53 349.464 175.856 347.205C171.784 369.785 168.057 392.201 169.731 415.086C180.245 396.048 182.594 375.894 177.877 353.981Z" fill="#86EBF9"/>
<path d="M150.924 59.0588C151.731 74.2324 153.329 89.2175 156.829 104.127C160.635 120.343 157.181 136.222 150.402 151.275C147.221 158.337 143.723 165.272 140.044 172.089C134.607 182.165 125.575 186.045 114.535 186.097C113.369 186.103 112.204 186.107 110.332 185.887C94.9477 181.566 81.202 175.537 69.1067 166.097C67.0878 164.522 65.1224 162.878 63.1323 161.265C62.6541 161.579 62.176 161.892 61.6978 162.205C63.753 166.568 65.3079 171.271 67.9862 175.211C71.5746 180.489 76.0327 185.176 79.7114 190.125C74.7242 188.862 70.0219 187.911 65.5962 186.231C61.2287 184.573 57.1412 182.178 52.9308 180.106C52.982 171.089 53.0331 162.071 53.1673 152.146C53.5629 140.818 51.3477 131.036 46.2722 121.566C39.0653 126.093 32.4469 125.438 26.3777 120.703C19.9405 115.682 16.8494 108.789 17.2277 100.663C17.5295 94.1831 20.0788 88.6698 26.347 85.7534C32.6636 82.8145 38.301 84.6767 43.5 88.6771C44.4078 89.3756 45.2631 90.1422 45.9672 90.7308C53.5017 88.4565 56.4655 83.3038 56.2721 75.9976C56.2063 73.5136 56.1757 71.0286 56.4096 68.3803C62.2736 65.6599 67.8604 63.1103 73.4401 60.5451C99.0524 48.7701 124.907 49.716 150.924 59.0588ZM99.1436 143.052C98.885 143.083 98.6265 143.114 98.3679 143.145C98.5529 143.512 98.738 143.88 99.2823 144.751C99.5656 144.71 99.8489 144.67 100.132 144.63C99.9491 144.237 99.7661 143.844 99.1436 143.052ZM101.918 145.412C101.631 145.43 101.343 145.448 101.056 145.467C101.228 145.834 101.401 146.201 101.91 146.962C102.233 147.076 102.556 147.191 103.319 147.865C106.451 149.001 109.582 150.138 112.714 151.274C112.843 150.851 112.973 150.427 113.102 150.003C109.913 148.892 106.725 147.782 103.222 146.269C102.909 146.139 102.597 146.01 101.918 145.412ZM90.2798 93.8948C87.6404 97.7255 87.6493 101.769 90.1618 105.462C91.0607 106.783 93.4262 107.961 94.979 107.802C98.0002 107.493 99.6717 101.932 98.2012 97.5961C97.0316 94.1473 95.5079 90.8452 90.2798 93.8948ZM132.688 94.1511C132.608 94.8091 132.251 95.5996 132.493 96.1028C133.791 98.8059 135.076 101.551 136.785 103.988C137.087 104.419 140.367 103.76 140.568 103.092C141.471 100.085 142.45 96.7945 142.018 93.806C141.752 91.9608 139 90.4744 137.365 88.8269C135.865 90.3463 134.365 91.8656 132.688 94.1511ZM132.095 69.5299C136.302 70.1037 140.51 70.6775 144.909 71.2774C138.427 64.9092 124.698 66.3071 120.355 73.8348C124.155 72.4119 127.738 71.07 132.095 69.5299ZM92.5431 71.9336C95.2754 72.2698 98.0076 72.606 102.004 73.0977C93.2671 67.1218 79.7452 70.0094 77.6278 76.3339C81.9635 74.9712 86.814 73.4467 92.5431 71.9336ZM97.9097 141.679C97.7146 141.607 97.5195 141.534 97.3245 141.462C97.3842 141.664 97.4439 141.866 97.9097 141.679Z" fill="#F4B393"/>
<path d="M150.997 58.6428C124.907 49.7159 99.0527 48.77 73.4403 60.545C67.8607 63.1102 62.2738 65.6598 56.0381 68.5035C47.8615 71.9129 40.3602 75.0925 32.8067 78.143C23.5892 81.8656 14.3279 85.4797 5.08553 89.1407C-3.79512 68.291 -1.2272 44.516 14.9031 27.7683C28.954 13.1797 46.5869 5.36527 66.127 2.31465C78.0989 0.44558 90.5559 -0.69369 102.539 0.471016C118.542 2.02639 131.315 10.705 139.969 24.6642C145.555 33.6744 149.027 43.4324 150.086 54.0234C150.228 55.4431 150.733 56.8266 150.997 58.6428Z" fill="#86EBF9"/>
<path d="M20.584 450.023C39.414 441.281 58.5195 432.207 75.151 418.923C82.5158 413.04 90.3122 406.964 92.7555 397.219C93.7333 393.319 93.9694 388.121 92.1632 384.812C78.5295 359.842 72.9717 332.543 68.0253 305.014C67.3802 301.424 66.7698 297.827 66.1763 294.228C66.1287 293.939 66.3391 293.607 66.696 292.376C79.7885 345.556 102.91 391.879 146.95 425.902C147.098 433.849 147.063 441.509 147.016 449.169C147.015 449.304 146.862 449.438 146.458 450.098C104.869 450.098 62.9556 450.098 20.584 450.023Z" fill="#41C2D6"/>
<path d="M224.804 42.8756C229.357 38.6725 233.518 34.5674 237.996 30.8431C239.894 29.264 242.458 28.484 245.775 26.8069C236.006 50.9911 239.032 72.3195 257.505 89.7895C275.851 107.14 297.032 108.914 321.136 97.4128C319.107 101.572 317.995 104.699 316.21 107.376C304.791 124.505 289.112 133.397 268.102 133.236C252.69 133.118 239.553 128.027 228.957 117.292C210.159 98.2477 207.439 68.5545 222.344 46.3327C223.066 45.2572 223.808 44.1956 224.804 42.8756Z" fill="#EFBD42"/>
<path d="M293.089 326.251C292.581 324.966 292.073 323.68 291.472 322.16C286.49 322.673 285.285 320.711 286.632 315.698C287.346 313.04 285.726 309.81 285.417 306.812C284.525 298.16 280.527 290.05 281.382 281.026C281.66 278.083 279.917 274.948 279.08 271.133C278.863 268.558 278.968 266.649 278.403 264.963C276.895 260.46 275.003 256.087 273.452 251.597C272.449 248.696 271.912 245.632 270.897 242.735C270.408 241.342 269.295 240.167 268.367 238.525C268.599 234.843 268.542 231.626 266.016 229.017C266.291 227.074 268.586 225.347 266.299 223.028C265.859 222.582 267.064 219.251 267.91 219.065C269.607 218.691 271.581 219.568 273.754 220.455C273.615 224.94 273.1 228.895 272.799 232.866C272.769 233.263 274.033 233.759 274.766 234.564C274.826 236.659 274.332 238.579 274.902 240.101C276.345 243.953 277.978 247.799 280.086 251.317C281.8 254.18 280.083 258.985 285.016 260.464C286.083 266.103 287.183 271.293 288.058 276.521C289.141 282.984 289.969 289.488 291.045 295.952C291.52 298.809 293.411 301.886 292.773 304.38C291.45 309.549 293.421 313.872 294.633 318.531C295.416 315.506 295.881 312.483 296.08 309.443C296.264 306.619 295.534 303.59 296.308 300.978C298.747 292.744 297.295 284.397 297.437 276.134C297.546 269.743 296.548 263.287 295.537 256.94C294.95 253.254 293.367 249.727 292.298 245.801C292.999 244.299 293.634 243.126 294.269 241.953C299.304 240.452 300.517 241.581 300.352 246.677C300.259 249.559 300.94 252.495 301.498 255.362C302.578 260.909 304.227 266.379 304.85 271.969C305.275 275.787 304.264 279.749 304.076 283.655C303.965 285.974 304.281 288.311 304.271 290.639C304.244 296.658 304.549 302.719 303.935 308.682C303.502 312.884 301.829 316.967 300.609 321.073C300.113 322.741 299.349 324.329 297.96 326.12C295.838 326.275 294.463 326.263 293.089 326.251Z" fill="#E64047"/>
<path d="M5.09204 89.5478C14.3277 85.4797 23.5891 81.8656 32.8066 78.1431C40.36 75.0926 47.8613 71.9129 55.7574 68.6672C56.1758 71.0285 56.2064 73.5135 56.2722 75.9976C56.4656 83.3037 53.5018 88.4565 45.9673 90.7307C45.2632 90.1422 44.4078 89.3756 43.5001 88.6771C38.3011 84.6766 32.6637 82.8144 26.3471 85.7533C20.0788 88.6697 17.5295 94.1831 17.2278 100.663C16.8494 108.789 19.9406 115.681 26.3777 120.703C32.447 125.438 39.0653 126.093 46.2722 121.566C51.3477 131.036 53.563 140.818 53.1083 151.683C42.7662 147.961 34.3812 141.133 26.9416 133.297C15.3731 121.111 7.64206 106.789 5.09204 89.5478Z" fill="#301C2B"/>
<path d="M268.464 238.894C269.295 240.167 270.408 241.342 270.897 242.735C271.913 245.632 272.449 248.696 273.452 251.598C275.004 256.087 276.895 260.46 278.403 264.963C278.968 266.649 278.863 268.558 279.011 270.738C276.882 274.727 274.805 278.345 272.103 281.966C270.298 280.581 269.084 279.221 267.947 277.8C260.705 268.749 253.48 259.685 246.25 250.626C248.654 239.817 250.866 228.958 253.656 218.249C254.104 216.53 257.667 214.018 258.86 214.449C260.976 215.213 263.14 217.697 263.888 219.929C264.792 222.629 264.246 225.815 264.638 229.389C263.881 233.841 263.337 237.486 268.464 238.894Z" fill="#F5B393"/>
<path d="M52.5491 180.106C57.1413 182.178 61.2288 184.573 65.5963 186.231C70.022 187.911 74.7244 188.862 80.0563 190.3C90.5733 192.629 100.34 194.792 110.106 196.954C113.847 199.814 116.815 203.154 117.102 208.553C105.642 206.271 94.2585 203.147 82.6893 201.044C64.7348 197.781 47.98 201.265 32.8873 211.834C32.214 212.305 31.458 212.659 30.384 213.081C34.7875 202.554 39.366 191.925 44.4188 181.527C45.9195 178.439 49.2775 179.01 52.5491 180.106Z" fill="#917FEC"/>
<path d="M245.949 250.851C253.48 259.685 260.705 268.749 267.947 277.8C269.084 279.221 270.298 280.581 271.777 282.136C274.323 285.093 276.569 287.883 279.011 290.916C276.027 297.402 272.941 304.108 269.536 310.97C257.61 296.592 246.004 282.06 234.243 267.221C237.941 261.634 241.794 256.355 245.949 250.851Z" fill="#917FEC"/>
<path d="M299.358 62.865C300.413 63.7144 301.21 64.313 302.734 65.4566C297.53 66.4494 293.4 67.6647 289.216 67.8967C286.015 68.0742 285.14 69.8927 284.047 72.1611C282.385 75.6057 280.535 78.9592 278.247 83.3445C276.153 79.1265 274.081 76.1458 273.179 72.8452C271.926 68.262 268.573 67.6284 264.874 67.1073C261.683 66.6577 258.482 66.2834 253.687 65.6722C256.492 63.4423 258.164 61.7988 260.115 60.6186C267.26 56.2978 266.337 49.942 264.756 43.3315C264.386 41.7842 264.206 40.1914 263.805 37.8304C269.18 40.4767 273.857 44.5781 278.524 44.5665C283.108 44.555 287.681 40.365 293.666 37.2839C290.738 47.447 289.073 56.6425 299.358 62.865Z" fill="#EFBD42"/>
<path d="M294.255 241.597C293.634 243.126 292.999 244.299 292.142 246.13C289.596 251.203 287.273 255.618 284.951 260.033C280.083 258.985 281.801 254.18 280.086 251.317C277.978 247.799 276.345 243.953 274.902 240.101C274.332 238.579 274.826 236.659 275.147 234.498C280.438 229.847 287.561 226.557 289.92 221.178C293.885 212.136 294.821 201.765 297.032 191.953C298.637 190.678 300.243 189.402 301.848 188.127C302.596 189.756 303.714 191.317 304.034 193.026C307.288 210.4 303.648 226.417 294.255 241.597Z" fill="#F5B393"/>
<path d="M110.098 196.509C100.34 194.792 90.5733 192.629 80.4623 190.291C76.0328 185.176 71.5748 180.489 67.9864 175.211C65.308 171.271 63.7532 166.568 61.698 162.205C62.1761 161.892 62.6543 161.578 63.1324 161.265C65.1225 162.878 67.088 164.522 69.1068 166.097C81.2021 175.537 94.9479 181.566 109.88 185.93C110.12 189.487 110.105 192.775 110.098 196.509Z" fill="#EBA285"/>
<path d="M296.673 191.885C294.821 201.765 293.885 212.136 289.92 221.178C287.561 226.557 280.438 229.847 275.077 234.143C274.033 233.759 272.769 233.263 272.799 232.866C273.101 228.895 273.615 224.94 274.086 220.62C275.098 217.112 276.351 214.018 277.014 210.803C277.666 207.636 277.693 204.344 278.041 201.112C278.45 197.309 280.203 197.571 282.494 199.779C283.449 197.44 284.367 195.194 285.715 191.895C287.577 194.462 288.822 196.177 290.222 198.106C292.57 196.5 290.006 189.551 296.673 191.885Z" fill="#EBA284"/>
<path d="M293.089 326.69C294.464 326.263 295.838 326.275 297.624 326.297C300.382 331.549 302.661 336.824 305.126 342.01C305.735 343.292 306.95 344.287 307.614 345.734C300.997 345.033 295.724 346.706 291.955 352.166C291.798 347.84 291.377 343.503 291.563 339.193C291.737 335.157 292.555 331.149 293.089 326.69Z" fill="#EFBD42"/>
<path d="M292.194 352.506C295.724 346.706 300.997 345.033 307.748 346.05C308.287 346.656 308.698 347.688 308.509 347.814C303.646 351.032 298.708 354.114 292.194 352.506Z" fill="#D8991B"/>
<path d="M268.367 238.525C263.337 237.487 263.881 233.841 265.008 229.621C265.067 229.254 265.534 229.102 265.775 229.06C268.542 231.626 268.599 234.843 268.367 238.525Z" fill="#EBA284"/>
<path d="M29.8529 213.075C30.062 213.393 29.8791 213.648 29.3128 213.851C29.0978 213.537 29.275 213.274 29.8529 213.075Z" fill="#917FEC"/>
<path d="M177.96 354.383C182.594 375.894 180.245 396.048 169.731 415.086C168.057 392.201 171.784 369.785 175.856 347.205C176.53 349.464 177.204 351.722 177.96 354.383Z" fill="#42C3D7"/>
<path d="M90.541 93.6306C95.5079 90.8452 97.0316 94.1473 98.2012 97.5961C99.6717 101.932 98.0002 107.493 94.979 107.802C93.4262 107.961 91.0607 106.783 90.1618 105.462C87.6493 101.769 87.6404 97.7254 90.541 93.6306Z" fill="#38212F"/>
<path d="M132.777 93.768C134.365 91.8656 135.865 90.3462 137.365 88.8269C139 90.4744 141.752 91.9608 142.018 93.806C142.45 96.7945 141.471 100.085 140.568 103.092C140.367 103.76 137.087 104.419 136.785 103.988C135.076 101.551 133.791 98.8059 132.493 96.1028C132.251 95.5996 132.608 94.809 132.777 93.768Z" fill="#38212F"/>
<path d="M131.708 69.629C127.738 71.07 124.155 72.4118 120.355 73.8347C124.699 66.3071 138.427 64.9092 144.909 71.2773C140.51 70.6774 136.302 70.1036 131.708 69.629Z" fill="#4E333B"/>
<path d="M92.1039 71.9278C86.8141 73.4466 81.9636 74.9711 77.6279 76.3338C79.7453 70.0093 93.2672 67.1217 102.004 73.0976C98.0077 72.6059 95.2755 72.2697 92.1039 71.9278Z" fill="#4E333B"/>
<path d="M103.536 146.671C106.725 147.781 109.913 148.892 113.102 150.003C112.973 150.427 112.843 150.851 112.714 151.274C109.582 150.138 106.451 149.001 103.264 147.427C103.208 146.988 103.536 146.671 103.536 146.671Z" fill="#724E4E"/>
<path d="M61.6066 159.585C61.6188 159.613 61.5943 159.558 61.6066 159.585Z" fill="#EBA285"/>
<path d="M102.285 145.881C102.597 146.01 102.909 146.139 103.379 146.47C103.536 146.671 103.208 146.988 103.044 147.147C102.556 147.191 102.233 147.076 101.923 146.597C101.935 146.231 102.285 145.881 102.285 145.881Z" fill="#724E4E"/>
<path d="M101.754 146.4C101.401 146.201 101.228 145.834 101.056 145.467C101.343 145.448 101.631 145.43 102.102 145.646C102.285 145.881 101.935 146.231 101.754 146.4Z" fill="#724E4E"/>
<path d="M99.5831 143.451C99.7662 143.844 99.9493 144.237 100.132 144.63C99.8491 144.67 99.5658 144.71 99.2788 144.309C99.3778 143.729 99.4805 143.59 99.5831 143.451Z" fill="#724E4E"/>
<path d="M99.099 144.057C98.738 143.88 98.5529 143.512 98.3679 143.145C98.6265 143.114 98.8851 143.083 99.3633 143.251C99.4803 143.59 99.3777 143.729 99.099 144.057Z" fill="#724E4E"/>
<path d="M97.7067 141.873C97.444 141.865 97.3842 141.664 97.3245 141.462C97.5195 141.534 97.7146 141.607 97.7067 141.873Z" fill="#724E4E"/>
<path d="M285.017 260.464C287.274 255.618 289.596 251.203 292.076 246.458C293.367 249.727 294.951 253.254 295.537 256.94C296.548 263.287 297.546 269.743 297.437 276.134C297.295 284.397 298.747 292.744 296.308 300.978C295.534 303.59 296.265 306.619 296.08 309.443C295.881 312.483 295.416 315.506 294.633 318.531C293.421 313.872 291.45 309.549 292.773 304.38C293.411 301.886 291.52 298.809 291.045 295.952C289.969 289.488 289.141 282.984 288.058 276.521C287.183 271.293 286.083 266.103 285.017 260.464Z" fill="black"/>
</svg>
