<svg width="494" height="512" viewBox="0 0 494 512" fill="none" xmlns="http://www.w3.org/2000/svg">
<path d="M151.681 162.058C148.773 161.706 145.859 161.031 142.959 161.086C139.738 161.148 138.268 160.167 137.674 156.819C134.723 140.193 132.97 123.443 133.837 106.593C134.873 86.4701 138.111 66.7048 147.547 48.5228C160.898 22.7972 182.323 7.88246 210.395 1.96714C211.269 1.78292 212.058 1.19602 212.81 0.398426C218.422 2.05636e-06 224.11 2e-06 230.266 0C234.168 3.55866 237.229 7.60069 241.101 10.593C258.611 24.124 277.652 35.318 297.558 44.8196C332.317 61.4106 368.345 74.7665 405.771 84.041C429.623 89.9516 453.612 95.309 477.559 100.832C480.751 101.569 484.055 101.821 487.186 102.687C481.052 104.982 474.906 106.55 469.051 108.859C451.136 115.923 435.312 125.876 424.007 142.05C406.064 167.723 403.96 196.494 408.555 226.035C410.911 241.183 415.974 255.91 419.814 270.827C418.398 270.248 416.981 269.668 415.075 268.774C406.64 264.26 398.695 260.061 390.592 255.57C387.544 253.86 384.656 252.442 381.586 250.797C380.606 250.089 379.806 249.607 378.654 249.014C361.016 240.449 343.932 231.55 326.398 223.645C300.101 211.789 273.489 200.632 246.668 189.005C237.139 185.3 227.951 181.768 218.375 178.179C210.919 175.944 203.854 173.766 196.517 171.42C195.409 171.138 194.573 171.023 193.514 170.622C189.173 169.269 185.054 168.203 180.576 166.968C170.705 165.218 161.193 163.638 151.681 162.058Z" fill="#145993"/>
<path d="M263.151 512C261.447 503.559 260.161 495.118 259.047 487.81C257.601 492.536 255.916 498.502 253.867 504.341C253.467 505.482 251.719 506.659 250.473 506.807C249.681 506.901 248.057 505.241 247.852 504.168C246.361 496.368 245.136 488.518 243.984 481.619C241.411 487.38 238.33 494.28 235.25 501.18C234.684 501.112 234.119 501.045 233.553 500.977C228.827 492.088 229.096 481.976 227.076 470.979C226.399 473.266 226.009 474.372 225.745 475.508C224.544 480.677 223.599 485.92 222.071 490.988C221.597 492.562 219.577 493.669 218.264 494.99C217.095 493.612 215.331 492.413 214.855 490.827C212.358 482.511 210.187 474.097 207.936 465.841C206.628 470.23 205.425 475.1 203.669 479.762C202.927 481.732 201.021 483.264 199.644 484.995C198.249 483.434 196.328 482.098 195.55 480.275C192.097 472.187 188.972 463.959 185.637 455.55C185.057 457.677 184.437 460.103 183.73 462.504C182.87 465.423 182.222 468.454 180.928 471.173C180.194 472.713 178.35 473.725 177.005 474.975C175.924 473.669 174.246 472.517 173.861 471.03C172.023 463.925 170.535 456.73 168.868 449.324C165.394 455.816 165.847 464.61 158.038 469.727C153.532 460.108 153.813 450.144 152.344 439.997C150.021 445.321 147.873 450.255 145.712 455.183C145.324 456.068 145.095 457.183 144.421 457.751C142.603 459.281 140.584 460.574 138.646 461.961C137.675 459.888 136.172 457.899 135.834 455.728C134.792 449.033 134.195 442.269 133.533 436.474C130.506 441.735 127.22 447.697 123.632 453.473C122.892 454.664 120.254 456.132 119.827 455.792C118.46 454.704 117.048 452.904 116.858 451.242C116.206 445.545 116.057 439.79 115.743 434.056C115.68 432.908 115.734 431.753 115.734 429.655C111.292 436.543 109.415 444.222 103.393 448.951C102.801 448.861 102.209 448.77 101.616 448.679C100.795 439.666 99.9733 430.653 99.1503 421.624C96.103 426.281 92.9133 431.152 89.7321 436.028C89.556 436.298 89.5321 436.738 89.3004 436.889C86.6754 438.597 84.0237 440.264 81.3791 441.941C80.4973 439.1 79.1193 436.304 78.8477 433.406C78.4192 428.832 78.7337 424.19 78.7337 420.013C75.6827 424.516 72.6543 429.314 69.2336 433.813C68.3304 435.001 66.2163 435.739 64.6595 435.737C64.0022 435.736 62.835 433.306 62.7827 431.946C62.5663 426.329 62.6881 420.698 62.6859 415.073C62.6854 413.913 62.6858 412.752 62.6858 411.348C59.9909 416.222 57.6212 420.982 54.7706 425.434C53.587 427.283 51.3762 428.474 49.6326 429.963C48.672 428.204 47.1385 426.533 46.8517 424.67C45.7244 417.344 44.9895 409.957 44.1276 402.75C41.0842 407.682 37.9404 412.837 34.7228 417.945C34.0341 419.038 33.2464 420.222 32.2032 420.902C30.8032 421.815 29.1104 422.278 27.5432 422.935C26.9401 421.343 25.8108 419.745 25.8315 418.161C25.8956 413.246 26.4234 408.338 26.7127 403.424C26.8089 401.79 26.7279 400.145 26.7279 397.97C21.34 404.961 20.4762 414.498 12.9923 419.351C12.4134 419.14 11.8345 418.929 11.2555 418.717C11.9817 410.329 12.7079 401.942 13.4683 393.16C9.62304 398.809 8.53865 406.339 0.358528 409.548C-1.51223 395.559 4.41523 383.507 7.12598 370.491C8.17335 370.155 8.84273 370.204 9.47866 370.376C60.0568 384.062 109.889 400.055 158.879 418.66C200.747 434.56 241.753 452.35 280.908 474.197C283.112 475.426 284.901 477.402 286.883 479.031C284.944 489.814 283.005 500.596 281.4 511.69C280.345 512 278.956 512 277.146 511.588C275.807 505.67 274.89 500.164 274.113 495.497C272.226 500.378 269.98 506.189 267.734 512C266.345 512 264.956 512 263.151 512Z" fill="#EDDEDA"/>
<path d="M287.266 479C284.901 477.402 283.112 475.426 280.908 474.196C241.753 452.35 200.747 434.56 158.879 418.66C109.889 400.055 60.0569 384.062 9.47872 370.376C8.84279 370.203 8.17341 370.155 7.12311 370.086C3.51644 370.191 3.25082 368.603 4.22715 366.006C8.22313 355.375 11.6177 344.484 16.1904 334.11C25.7943 312.323 36.7985 291.197 50.557 271.716C60.4347 257.73 70.7516 244.004 81.651 230.805C91.4956 218.883 101.869 207.288 112.973 196.545C125.242 184.674 138.607 173.936 151.588 162.381C161.193 163.638 170.705 165.218 180.423 167.267C144.404 204.282 108.18 240.826 71.6394 277.69C81.6532 283.386 88.916 291.493 94.6028 301.051C105.121 318.731 111.075 338.057 114.736 358.151C115.385 361.715 116.642 363.875 120.326 365.282C136.015 371.275 151.545 377.682 167.144 383.911C176.511 387.651 185.897 391.342 195.305 395.067C206.308 378.85 221.882 370.169 239.67 364.72C259.666 358.595 280.171 357.346 300.919 357.827C303.134 357.878 306.083 356.565 307.527 354.883C319.457 340.985 331.084 326.827 342.857 312.793C358.796 293.795 374.784 274.837 390.75 255.862C398.695 260.061 406.64 264.26 414.739 268.777C408.216 274.853 401.295 280.354 394.905 286.416C371.9 308.238 352.201 332.763 335.76 359.888C319.634 386.493 306.787 414.596 297.83 444.393C294.652 454.963 292.422 465.817 289.649 476.513C289.408 477.442 288.335 478.155 287.266 479ZM62.5076 340.967C78.9478 335.267 86.0392 338.495 99.2362 357.688C104.843 327.943 88.2845 298.363 66.9169 289.577C71.7181 301.209 72.7358 312.967 68.8036 324.778C66.9442 330.363 64.1588 335.64 61.4822 340.99C61.5616 340.982 61.641 340.974 62.5076 340.967ZM235.35 400.771C248.004 402.342 258.207 408.764 267.533 418.051C266.477 394.407 281.164 383.646 299.371 375.413C271.765 364.02 223.633 378.954 213.799 400.628C220.331 400.628 227.409 400.628 235.35 400.771ZM57.1272 311.364C53.0385 311.778 48.7184 312.463 48.3025 317.469C47.994 321.183 51.2837 322.646 54.4967 323.43C59.0712 324.547 64.3146 322.243 65.3301 318.743C66.3122 315.358 63.804 312.898 57.1272 311.364ZM85.8813 356.56C85.886 354.604 86.5996 352.207 85.7235 350.799C84.5172 348.86 81.9069 346.209 80.2549 346.438C75.6799 347.072 73.7204 351.226 74.0447 355.331C74.254 357.981 76.0901 361.843 78.2049 362.713C82.1949 364.355 84.2708 360.694 85.8813 356.56ZM246.711 422.484C247.146 421.779 247.665 421.112 248 420.362C249.659 416.658 250.267 412.797 247.159 409.72C246.091 408.663 243.287 408.224 241.886 408.856C238.044 410.588 236.333 414.238 236.829 418.292C237.101 420.506 238.322 423.345 240.038 424.397C241.33 425.188 244.089 423.585 246.711 422.484ZM292.852 404.677C291.535 399.554 287.652 397.296 282.942 397.279C280.89 397.272 277.892 399.21 276.982 401.074C275.426 404.258 279.542 408.808 284.342 410.059C289.059 411.287 291.51 409.976 292.852 404.677Z" fill="#4D91C0"/>
<path d="M420.227 270.893C415.974 255.91 410.911 241.183 408.555 226.035C403.96 196.494 406.064 167.723 424.007 142.05C435.312 125.876 451.136 115.923 469.051 108.859C474.906 106.55 481.052 104.982 487.447 102.987C489.13 109.71 491.056 116.471 491.601 123.343C492.708 137.318 493.857 151.37 493.56 165.36C493.067 188.565 488.972 211.18 477.363 231.742C465.232 253.229 446.627 265.927 422.632 270.975C421.997 271.109 421.305 270.97 420.227 270.893ZM453.74 204.009C453.74 204.009 453.682 203.962 453.673 203.156C454.082 196.898 458.458 191.254 457.381 184.765C456.802 184.641 456.224 184.517 455.646 184.393C453.345 193.598 451.045 202.803 448.497 212.082L448.474 212.407C448.474 212.407 448.727 211.991 449.413 211.919C455.704 207.804 460.402 202.323 463.412 195.435C469.908 180.57 469.241 164.915 468.408 149.254C468.388 148.878 467.81 148.531 467.205 147.845C465.794 148.628 464.303 149.31 462.97 150.222C455.28 155.483 450.435 162.956 446.789 171.323C440.386 186.016 438.182 201.644 436.865 217.414C436.389 223.111 436.789 228.881 436.789 235.226C449.42 231.514 457.663 223.779 463.371 213.509C475.889 190.985 476.967 166.222 476.449 141.269C476.365 137.246 475.597 133.237 475.097 128.788C473.222 129.521 471.978 129.92 470.809 130.477C451.537 139.664 440.764 155.765 434.883 175.518C428.357 197.436 428.495 219.769 431.604 242.233C432.022 245.254 433.116 246.058 435.981 246.143C448.733 246.52 457.999 240.334 464.993 230.463C479.003 210.693 482.287 187.579 484.672 164.316C485.536 155.893 485.763 147.39 485.953 138.917C486.165 129.518 486.002 120.111 486.002 110.02C482.863 111.087 480.682 111.761 478.549 112.563C456.384 120.891 438.541 134.497 427.804 155.968C411.814 187.943 414.434 221.038 423.011 254.311C423.238 255.189 424.165 255.887 424.766 256.669C425.481 255.012 425.378 253.751 425.09 252.533C420.641 233.707 417.746 214.83 419.585 195.299C422.478 164.569 435.056 139.823 461.985 123.56C468.396 119.689 475.426 116.845 483.153 113.046C483.4 116.652 483.732 118.597 483.634 120.52C482.69 138.935 482.402 157.422 480.462 175.734C478.711 192.276 474.966 208.602 466.541 223.323C460.52 233.843 452.419 241.655 439.696 243.649C435.483 244.31 434.185 242.714 433.838 239.202C432.116 221.767 431.475 204.31 434.838 187.013C438.207 169.681 444.644 153.735 458.458 141.863C462.5 138.389 467.203 135.684 472.533 131.979C473.038 136.514 473.751 139.473 473.628 142.397C473.118 154.51 473.018 166.696 471.51 178.697C469.804 192.271 466.359 205.583 457.818 216.791C453.225 222.817 448.262 228.635 440.438 230.726C440.087 230.068 439.809 229.787 439.8 229.496C439.103 208.25 442.198 187.665 451.334 168.324C454.36 161.92 458.424 156.021 465.539 152.132C467.876 164.601 466.283 176.232 463.206 187.62C461.549 193.754 459.608 200.122 453.74 204.009Z" fill="#4B90C0"/>
<path d="M247.01 189.177C273.489 200.632 300.101 211.789 326.398 223.645C343.931 231.55 361.016 240.449 378.606 249.361C378.792 250.128 378.745 250.494 378.548 250.738C353.092 282.213 327.661 313.709 302.037 345.047C300.933 346.398 297.916 347.08 296.017 346.754C256.493 339.956 221.902 350.475 191.375 375.936C189.974 377.104 187.062 377.721 185.392 377.114C165.531 369.901 145.789 362.363 125.967 355.043C123.529 354.143 122.781 352.962 122.742 350.373C122.621 342.225 122.698 334.01 121.678 325.951C118.988 304.714 111.638 285.613 94.509 271.483C94.1915 271.221 94.0956 270.69 93.8096 270.108C128.175 237.23 162.482 204.409 196.788 171.587C203.854 173.766 210.919 175.944 218.282 178.506C217.648 179.51 216.782 180.27 215.777 180.729C202.45 186.82 190.424 194.803 180.547 205.686C165.987 221.728 157.675 240.069 161.702 262.25C165.46 282.947 178.008 297.645 196.047 307.047C238.504 329.173 280.429 325.082 321.482 302.536C321.9 302.307 322.125 301.727 322.499 301.232C314.47 302.358 306.784 303.897 299.028 304.435C276.676 305.984 255.536 301.899 236.722 289.082C208.541 269.885 203.084 236.693 224.382 210.044C230.714 202.121 239.402 196.08 247.01 189.177ZM267.267 214.279C265.624 213.9 263.98 213.521 261.68 212.991C263.408 215.835 264.686 217.94 266.142 220.336C263.18 222.715 260.36 224.98 256.813 227.828C261.875 227.052 266.445 224.934 269.522 226.266C272.793 227.682 274.649 232.367 277.639 236.303C278.157 231.451 278.59 227.408 279.007 223.498C282.518 222.598 285.684 221.785 289.564 220.789C284.551 218.468 276.952 220.025 279.899 210.649C275.43 212.533 272.834 217.374 267.267 214.279Z" fill="#FED450"/>
<path d="M246.668 189.005C239.402 196.08 230.715 202.121 224.382 210.044C203.084 236.693 208.542 269.885 236.722 289.082C255.537 301.899 276.676 305.984 299.029 304.435C306.784 303.897 314.47 302.358 322.499 301.232C322.125 301.727 321.9 302.307 321.483 302.536C280.429 325.082 238.504 329.173 196.048 307.047C178.008 297.645 165.46 282.947 161.702 262.25C157.675 240.069 165.987 221.728 180.547 205.686C190.425 194.803 202.451 186.82 215.777 180.729C216.782 180.27 217.649 179.51 218.672 178.563C227.951 181.768 237.139 185.3 246.668 189.005Z" fill="#1A7D5A"/>
<path d="M390.592 255.57C374.784 274.837 358.796 293.795 342.858 312.793C331.084 326.827 319.457 340.985 307.527 354.884C306.084 356.565 303.135 357.878 300.919 357.827C280.171 357.346 259.666 358.595 239.671 364.72C221.882 370.169 206.309 378.85 195.305 395.067C185.897 391.342 176.511 387.651 167.144 383.911C151.546 377.682 136.015 371.275 120.326 365.282C116.642 363.875 115.385 361.715 114.736 358.151C111.075 338.057 105.122 318.731 94.6031 301.052C88.9162 291.493 81.6534 283.386 71.6396 277.69C108.18 240.826 144.404 204.282 180.782 167.438C185.054 168.204 189.174 169.269 193.227 170.801C158.554 204.406 123.946 237.546 89.1266 270.888C105.287 282.568 113.702 298.496 117.191 316.763C119.358 328.11 119.255 339.903 119.947 351.509C120.096 354.014 120.115 355.806 122.986 356.866C144.063 364.644 165.058 372.648 186.16 380.355C187.723 380.926 190.477 380.375 191.754 379.274C222.261 353.001 257.068 342.306 296.981 349.87C299.916 350.426 301.905 349.878 303.866 347.442C329.777 315.257 355.784 283.15 381.767 251.023C384.656 252.442 387.545 253.86 390.592 255.57Z" fill="#FBD353"/>
<path d="M381.586 250.797C355.783 283.15 329.776 315.257 303.865 347.442C301.904 349.877 299.915 350.426 296.98 349.87C257.067 342.306 222.26 353.001 191.754 379.274C190.476 380.375 187.723 380.926 186.16 380.355C165.057 372.648 144.062 364.644 122.985 356.866C120.114 355.806 120.096 354.014 119.946 351.509C119.255 339.903 119.357 328.11 117.19 316.763C113.702 298.496 105.286 282.568 89.126 270.888C123.946 237.546 158.553 204.406 193.448 171.088C194.572 171.023 195.409 171.138 196.517 171.42C162.482 204.408 128.175 237.23 93.8095 270.108C94.0956 270.69 94.1914 271.221 94.5089 271.482C111.638 285.613 118.988 304.714 121.678 325.951C122.698 334.01 122.621 342.225 122.742 350.373C122.781 352.961 123.529 354.143 125.966 355.043C145.789 362.363 165.531 369.901 185.392 377.114C187.062 377.721 189.974 377.104 191.374 375.935C221.902 350.475 256.492 339.956 296.017 346.754C297.916 347.08 300.932 346.398 302.037 345.047C327.66 313.709 353.092 282.213 378.548 250.738C378.745 250.494 378.792 250.128 378.958 249.472C379.806 249.607 380.606 250.089 381.586 250.797Z" fill="#5C97B7"/>
<path d="M234.919 400.7C227.409 400.628 220.331 400.628 213.799 400.628C223.633 378.954 271.765 364.02 299.371 375.413C281.164 383.646 266.477 394.407 267.532 418.051C258.207 408.764 248.004 402.342 234.919 400.7Z" fill="#FCD452"/>
<path d="M61.7931 341.056C64.159 335.64 66.9444 330.363 68.8038 324.778C72.7361 312.967 71.7183 301.21 66.9171 289.577C88.2847 298.363 104.843 327.943 99.2364 357.688C86.0394 338.495 78.948 335.267 62.131 340.99C61.7541 341.013 61.7931 341.056 61.7931 341.056Z" fill="#FBD452"/>
<path d="M57.5074 311.403C63.8039 312.898 66.312 315.358 65.3299 318.743C64.3145 322.243 59.071 324.548 54.4965 323.431C51.2836 322.646 47.9939 321.183 48.3024 317.47C48.7183 312.463 53.0383 311.778 57.5074 311.403Z" fill="#F8D254"/>
<path d="M85.7941 356.938C84.2708 360.694 82.1949 364.355 78.2049 362.713C76.0901 361.843 74.254 357.981 74.0447 355.331C73.7204 351.226 75.6799 347.072 80.2549 346.438C81.9069 346.209 84.5172 348.86 85.7235 350.799C86.5996 352.207 85.886 354.604 85.7941 356.938Z" fill="#F9D354"/>
<path d="M246.453 422.766C244.089 423.585 241.33 425.189 240.038 424.397C238.323 423.345 237.101 420.506 236.829 418.292C236.333 414.238 238.044 410.588 241.886 408.856C243.287 408.224 246.091 408.663 247.159 409.72C250.268 412.797 249.659 416.658 248 420.362C247.665 421.112 247.146 421.779 246.453 422.766Z" fill="#F8D354"/>
<path d="M292.883 405.074C291.51 409.976 289.059 411.287 284.342 410.059C279.542 408.808 275.426 404.258 276.981 401.074C277.892 399.21 280.89 397.272 282.942 397.279C287.652 397.296 291.535 399.555 292.883 405.074Z" fill="#FAD353"/>
<path d="M61.7373 340.99C61.6412 340.974 61.5618 340.982 61.6377 341.023C61.7931 341.056 61.7541 341.013 61.7373 340.99Z" fill="#FBD452"/>
<path d="M448.744 212.008C451.045 202.803 453.345 193.598 455.646 184.393C456.224 184.517 456.803 184.641 457.381 184.765C458.458 191.254 454.082 196.898 453.498 203.681C453.273 204.49 453.223 204.774 453.174 205.058C453.381 204.725 453.588 204.392 453.795 204.059C459.608 200.122 461.549 193.754 463.206 187.62C466.283 176.232 467.877 164.601 465.539 152.132C458.425 156.022 454.36 161.92 451.334 168.324C442.198 187.666 439.103 208.25 439.8 229.496C439.81 229.787 440.087 230.068 440.438 230.726C448.262 228.636 453.225 222.818 457.818 216.791C466.36 205.583 469.804 192.271 471.51 178.697C473.018 166.696 473.118 154.51 473.628 142.397C473.751 139.473 473.039 136.514 472.533 131.979C467.203 135.684 462.5 138.389 458.458 141.863C444.644 153.735 438.207 169.681 434.838 187.013C431.475 204.31 432.116 221.767 433.838 239.202C434.185 242.714 435.483 244.31 439.696 243.649C452.419 241.655 460.52 233.843 466.541 223.324C474.966 208.602 478.711 192.276 480.463 175.734C482.402 157.422 482.69 138.935 483.634 120.52C483.732 118.597 483.4 116.652 483.153 113.046C475.426 116.845 468.396 119.689 461.986 123.56C435.056 139.823 422.479 164.569 419.585 195.3C417.746 214.83 420.641 233.707 425.09 252.533C425.378 253.751 425.481 255.012 424.766 256.669C424.165 255.887 423.238 255.189 423.011 254.311C414.434 221.038 411.814 187.943 427.804 155.968C438.542 134.498 456.384 120.891 478.549 112.563C480.682 111.761 482.863 111.087 486.002 110.02C486.002 120.111 486.165 129.518 485.953 138.917C485.763 147.39 485.536 155.893 484.672 164.316C482.287 187.579 479.003 210.693 464.993 230.463C457.999 240.334 448.733 246.52 435.981 246.143C433.116 246.058 432.022 245.254 431.604 242.233C428.495 219.769 428.358 197.436 434.883 175.519C440.764 155.765 451.538 139.664 470.81 130.477C471.978 129.92 473.222 129.521 475.097 128.788C475.597 133.237 476.365 137.246 476.449 141.269C476.967 166.222 475.889 190.985 463.371 213.509C457.663 223.78 449.42 231.514 436.789 235.226C436.789 228.881 436.389 223.111 436.865 217.414C438.182 201.644 440.386 186.016 446.789 171.323C450.435 162.956 455.28 155.483 462.97 150.222C464.303 149.31 465.795 148.628 467.205 147.845C467.81 148.531 468.388 148.878 468.408 149.254C469.241 164.915 469.908 180.571 463.412 195.435C460.402 202.324 455.704 207.804 449.073 211.96C448.734 212 448.744 212.008 448.744 212.008Z" fill="#195E97"/>
<path d="M448.731 211.996C448.727 211.991 448.474 212.407 448.474 212.407C448.474 212.407 448.497 212.082 448.62 212.045C448.744 212.008 448.734 212 448.731 211.996Z" fill="#195E97"/>
<path d="M267.641 214.424C272.834 217.374 275.43 212.533 279.899 210.649C276.952 220.025 284.551 218.468 289.564 220.789C285.684 221.785 282.518 222.598 279.007 223.498C278.59 227.408 278.157 231.451 277.639 236.303C274.649 232.367 272.793 227.682 269.522 226.266C266.445 224.934 261.875 227.052 256.813 227.828C260.36 224.98 263.18 222.715 266.142 220.336C264.687 217.94 263.408 215.835 261.68 212.991C263.98 213.521 265.624 213.9 267.641 214.424Z" fill="#248159"/>
<path d="M453.767 204.034C453.588 204.392 453.381 204.725 453.174 205.058C453.223 204.774 453.273 204.49 453.502 204.084C453.682 203.963 453.74 204.009 453.767 204.034Z" fill="#4B90C0"/>
</svg>
