<svg width="427" height="512" viewBox="0 0 427 512" fill="none" xmlns="http://www.w3.org/2000/svg">
<path d="M241.594 3.30757e-09C242.716 0.665011 243.31 1.83576 244.032 1.92128C263.535 4.23071 281.919 10.2023 299.929 17.8954C328.679 30.1764 352.614 48.9514 373.292 71.9236C388.154 88.433 399.665 107.213 408.566 127.726C415.925 144.686 420.716 162.264 423.91 180.308C425.389 188.661 425.965 197.274 425.978 205.771C426.116 301.557 426.001 397.344 426.185 493.13C426.201 501.001 424.173 507.115 417.775 511.708C281.709 512 145.354 512 8.53154 512C7.91464 511.37 7.96797 510.374 7.58788 510.164C1.95015 507.059 -0.00564875 502.276 1.22486e-05 495.964C0.0866513 399.365 -0.0033067 302.766 0.12954 206.167C0.149273 191.82 2.40994 177.69 5.6593 163.66C9.82011 145.696 16.2987 128.71 24.9508 112.484C32.1221 99.0359 40.6068 86.5325 50.5413 74.9326C63.9572 59.2678 78.9777 45.473 96.3091 34.2955C119.188 19.5402 143.739 8.80545 170.689 3.9509C175.389 3.1042 180.009 1.81324 184.365 0.363733C203.084 -9.53674e-07 222.105 -9.96692e-07 241.594 3.30757e-09ZM17.8129 379.938C17.8129 418.514 17.8129 457.09 17.8129 495.855C45.6844 495.855 72.9746 495.855 101.158 496.052C109.142 496.06 117.126 496.078 125.11 496.074C182.831 496.048 240.551 496.017 299.175 496.115C336.764 496.115 374.353 496.115 412.317 496.115C412.317 493.785 412.317 492.147 412.317 490.51C412.317 403.546 412.319 316.583 412.303 229.619C412.303 227.796 412.095 225.973 412.047 223.192C411.926 213.801 411.806 204.41 411.529 193.997C409.525 182.71 408.413 171.176 405.378 160.173C374.026 46.5416 253.126 -14.2821 143.272 28.0573C69.6229 56.4429 19.2553 127.466 17.9869 206.518C17.1317 259.828 17.7345 313.161 17.7063 366.484C17.7057 367.636 17.9616 368.788 18.0615 370.851C18.0683 373.579 18.0751 376.308 17.8129 379.938Z" fill="#FEFDFD"/>
<path d="M411.984 224.149C412.095 225.973 412.303 227.796 412.303 229.619C412.319 316.583 412.317 403.546 412.317 490.51C412.317 492.147 412.317 493.785 412.317 496.115C374.353 496.115 336.764 496.115 298.748 495.633C294.547 480.927 290.773 466.704 286.887 452.06C284.725 453.65 283.129 454.823 281.534 455.996C281.359 455.769 281.184 455.542 281.009 455.315C306.052 428.548 331.094 401.781 356.158 374.992C344.899 350.904 333.884 327.338 322.659 303.322C321.339 304.44 320.53 304.991 319.885 305.692C306.586 320.14 293.381 334.675 279.998 349.045C268.444 361.451 256.692 373.673 244.798 385.852C244.371 385.446 244.174 385.163 244.148 384.579C246.99 382.341 247.036 379.971 246.127 376.953C243.864 369.438 241.957 361.815 240.023 353.883C245.886 340.474 252.534 327.729 257.186 314.293C265.776 289.487 264.882 265.04 251.47 241.638C243.128 227.082 232.898 214.082 221.359 201.998C219.894 200.464 219.205 198.191 218.393 196.024C218.782 194.925 218.935 194.064 219.329 193.172C219.571 193.142 220.028 192.971 220.465 192.987C230.469 190.604 240.134 188.531 249.562 185.674C254.827 184.079 257.109 179.609 257.061 174.012C256.986 165.384 257.051 156.756 257.087 147.781C257.095 146.97 257.074 146.506 257.061 145.616C256.437 141.09 257.932 139.1 262.335 138.796C265.319 138.59 268.225 137.25 272.558 136.022C267.443 130.922 263.065 126.925 259.176 122.499C257.596 120.7 256.422 118.027 256.201 115.646C255.526 108.39 256.205 100.935 254.903 93.8237C252.104 78.5362 243.81 66.6959 229.956 58.5829C228.67 54.4571 228.035 50.9152 222.422 50.727C206.683 50.1995 190.968 48.2856 175.241 48.2568C163.17 48.2347 151.156 50.5202 139.662 55.8373C138.767 56.2467 138.205 56.5901 137.292 56.9589C126.031 61.2195 117.159 67.9778 110.657 78.1147C109.835 78.7744 109.283 79.323 108.398 79.9484C81.7112 95.5158 63.1952 117.392 55.3585 147.174C46.4654 180.972 52.638 211.387 79.4189 235.358C88.7164 243.68 99.918 249.875 110.172 257.386C103.327 267.333 99.0314 278.023 95.9703 289.304C91.2576 306.671 89.8092 324.463 88.3292 342.324C61.2364 342.706 41.3484 355.932 25.2263 375.689C22.6798 373.636 20.3888 371.788 18.0979 369.941C17.9616 368.788 17.7056 367.636 17.7063 366.484C17.7345 313.161 17.1316 259.828 17.9869 206.519C19.2553 127.466 69.6229 56.4429 143.272 28.0573C253.126 -14.282 374.026 46.5416 405.378 160.173C408.413 171.176 409.525 182.71 411.198 194.314C374.106 177.362 347.828 194.977 323.921 220.672C303.236 203.045 277.619 204.443 269.503 224.149C317.119 224.149 364.551 224.149 411.984 224.149ZM389.066 253.003C389.066 253.003 389.126 253.034 388.568 253.107C388.411 253.426 388.254 253.744 388.066 254.003C388.066 254.003 388.126 254.034 387.568 254.108C387.411 254.427 387.255 254.745 387.066 255.004C387.066 255.004 387.127 255.034 386.581 255.126C386.419 255.439 386.257 255.753 386.071 256.004C386.071 256.004 386.136 256.017 385.531 256.261C385.387 256.857 385.242 257.453 385.064 258.001C385.064 258.001 385.118 258.023 384.521 258.032C384.379 258.373 384.237 258.715 384.069 258.998C384.069 258.998 384.121 259.035 383.392 258.997C382.96 260.014 382.529 261.031 382.065 261.999C382.065 261.999 382.117 262.027 381.377 261.953C380.949 262.985 380.522 264.016 380.066 264.998C380.066 264.998 380.116 265.026 379.377 264.935C378.953 265.973 378.528 267.011 378.065 268C378.065 268 378.12 268.029 377.531 268.017C377.384 268.365 377.237 268.714 377.073 268.999C377.073 268.999 377.127 269.036 376.622 268.989C376.454 269.002 376.285 269.016 375.644 268.46C371.613 269.645 366.805 269.822 363.704 272.213C355.874 278.249 348.832 285.301 341.429 291.896C339.762 293.382 337.911 294.662 335.497 295.83C334.57 294.59 333.643 293.35 332.908 292.366C330.737 294.346 328.963 296.108 327.038 297.685C324.066 300.121 324.15 302.582 325.88 305.906C329.25 312.382 332.089 319.133 335.184 325.753C342.488 341.379 349.813 356.995 357.494 373.394C361.353 368.347 364.839 363.788 369.034 358.301C366.474 353.425 362.714 346.265 359.656 338.98C366.288 334.285 373.181 329.907 379.45 324.768C382.953 321.896 386.903 318.194 388.095 314.119C393.246 296.504 397.522 278.63 401.926 260.804C402.55 258.276 399.453 255.46 402.386 252.203C403.401 250.492 404.415 248.781 405.43 247.07C405.06 246.473 404.691 245.877 404.321 245.281C401.573 246.209 398.824 247.137 396.068 248.002C396.068 248.002 396.115 248.044 395.395 247.925C394.628 248.636 393.861 249.347 393.061 250.005C393.061 250.005 393.118 250.029 392.521 250.044C392.374 250.38 392.227 250.717 392.063 251C392.063 251 392.111 251.029 391.463 250.885C391.004 251.28 390.544 251.675 390.067 252.006C390.067 252.006 390.127 252.034 389.574 252.118C389.415 252.433 389.256 252.748 389.066 253.003ZM56.9291 249.317C52.2314 259.749 45.0086 267.767 33.7555 272.301C44.0065 280.269 49.8932 289.802 50.9265 302.463C55.973 291.021 63.415 282.087 75.2449 277.167C64.5523 267.362 61.2228 255.245 60.7859 240.701C59.2199 244.178 58.218 246.403 56.9291 249.317ZM319.677 174.114C321.851 162.23 326.509 151.722 336.964 144.282C324.33 137.077 318.275 125.86 314.346 111.889C312.323 127.152 308.634 140.353 295.248 149.215C307.656 154.13 314.773 162.707 319.677 174.114ZM352.72 409.716C350.697 423.108 346.585 435.4 335.071 442.768C339.919 446.486 344.994 449.494 348.891 453.616C352.702 457.649 355.312 462.818 358.472 467.523C363.728 450.098 364.858 448.171 375.412 438.594C363.321 430.213 359.447 424.867 354.08 409.261C354.015 409.072 353.311 409.102 352.72 409.716Z" fill="#BE5550"/>
<path d="M108.732 79.8715C109.284 79.323 109.835 78.7744 110.74 78.5422C113.062 87.2319 114.195 95.9172 117.177 103.913C123.054 119.669 134.108 132.015 145.903 143.681C160.345 157.966 175.391 171.702 189.069 186.686C221.666 222.396 237.34 264.266 232.348 313.013C230.863 327.513 234.894 340.953 239.907 354.236C241.957 361.815 243.864 369.438 246.127 376.953C247.036 379.971 246.991 382.341 243.857 384.741C238.503 390.482 233.611 395.758 228.72 401.034C229.249 401.502 229.778 401.971 230.307 402.44C235.213 396.952 240.12 391.464 245.027 385.976C256.692 373.673 268.444 361.451 279.998 349.045C293.381 334.675 306.586 320.14 319.885 305.692C320.53 304.991 321.339 304.44 322.659 303.322C333.884 327.338 344.899 350.904 356.158 374.992C331.094 401.781 306.052 428.548 281.009 455.315C281.184 455.542 281.359 455.769 281.534 455.996C283.129 454.823 284.725 453.65 286.887 452.06C290.773 466.704 294.547 480.927 298.296 495.569C240.551 496.017 182.831 496.048 125.11 496.074C117.126 496.078 109.142 496.06 100.698 495.513C100.143 493.314 100.107 491.648 99.9448 489.994C96.3274 453.015 92.6962 416.037 89.1345 378.589C89.0508 366.186 88.9003 354.252 88.7498 342.318C89.8093 324.463 91.2577 306.671 95.9704 289.304C99.0315 278.023 103.327 267.333 110.451 257.231C130.148 234.962 155.162 236.227 181.077 239.257C172.269 231.487 163.088 224.413 154.062 217.147C142.536 207.87 130.546 199.06 119.833 188.91C107.366 177.098 100.217 162.186 99.5881 144.617C98.9905 127.937 102.625 111.933 106.858 95.9542C108.226 90.7902 108.148 85.2433 108.732 79.8715ZM271.438 463.253C263.015 470.137 254.248 476.499 243.538 479.333C224.525 484.364 206.869 483.131 194.271 465.77C184.23 451.933 173.912 438.073 165.851 423.076C153.501 400.099 142.992 376.134 131.676 352.6C131.074 351.349 130.232 350.214 129.501 349.024C129.138 349.255 128.774 349.485 128.41 349.715C128.759 350.758 129.006 351.849 129.472 352.837C139.676 374.508 149.456 396.395 160.268 417.759C169.361 435.729 179.848 452.971 193.262 468.192C199.05 474.759 205.402 480.939 214.293 482.65C237.149 487.051 256.546 479.819 273.723 463.72C274.188 462.957 274.653 462.194 275.119 461.431C274.875 461.252 274.632 461.074 274.389 460.895C273.612 461.594 272.835 462.293 271.438 463.253ZM181.183 181.38C171.864 172.34 162.652 163.186 153.204 154.284C134.906 137.045 117.548 119.189 110.451 92.517C108.554 99.8654 106.737 105.859 105.483 111.969C102.529 126.361 100.257 140.848 103.553 155.51C107.727 174.069 119.725 187.344 133.918 198.786C147.902 210.059 162.601 220.446 176.552 231.757C183.213 237.157 188.714 243.967 197.051 247.169C198.539 247.741 199.759 249.076 201.025 250.151C214.358 261.471 221.936 276.181 226.065 292.888C227.258 297.713 228.27 302.584 229.365 307.433C230.671 288.258 230.072 269.372 224.292 250.988C215.917 224.349 199.992 202.385 181.183 181.38Z" fill="#391710"/>
<path d="M89.0676 379.059C92.6962 416.037 96.3273 453.015 99.9447 489.994C100.106 491.648 100.143 493.314 100.251 495.414C72.9747 495.855 45.6845 495.855 17.813 495.855C17.813 457.09 17.813 418.514 18.4135 379.526C42.3652 379.096 65.7164 379.078 89.0676 379.059Z" fill="#BE5550"/>
<path d="M412.015 223.671C364.551 224.149 317.119 224.149 269.503 224.149C277.619 204.443 303.236 203.045 323.921 220.672C347.828 194.977 374.106 177.362 411.276 194.825C411.806 204.41 411.926 213.801 412.015 223.671Z" fill="#F8DED9"/>
<path d="M89.1344 378.589C65.7163 379.077 42.3651 379.096 18.5478 379.075C18.075 376.308 18.0683 373.579 18.0797 370.396C20.3888 371.788 22.6798 373.636 25.2263 375.689C41.3484 355.932 61.2364 342.706 88.3292 342.324C88.9002 354.252 89.0507 366.186 89.1344 378.589Z" fill="#F4D7D2"/>
<path d="M240.023 353.883C234.894 340.953 230.863 327.513 232.348 313.013C237.34 264.266 221.666 222.396 189.069 186.686C175.391 171.702 160.345 157.966 145.903 143.681C134.108 132.015 123.054 119.669 117.177 103.913C114.195 95.9172 113.062 87.2319 111.011 78.431C117.16 67.9778 126.031 61.2195 137.495 57.2632C159.501 76.1086 176.457 98.1527 187.623 124.225C193.557 138.079 197.38 152.829 203.125 166.775C207.314 176.942 213.089 186.456 218.157 196.261C219.205 198.191 219.895 200.464 221.359 201.998C232.898 214.082 243.129 227.082 251.47 241.637C264.882 265.04 265.776 289.487 257.187 314.293C252.534 327.729 245.886 340.474 240.023 353.883Z" fill="#ABC0D5"/>
<path d="M108.398 79.9484C108.148 85.2432 108.226 90.7901 106.858 95.9541C102.624 111.933 98.9904 127.937 99.588 144.617C100.217 162.186 107.366 177.098 119.833 188.91C130.546 199.059 142.536 207.87 154.062 217.147C163.088 224.413 172.269 231.487 181.077 239.257C155.162 236.227 130.148 234.962 110.529 256.887C99.918 249.875 88.7164 243.68 79.4189 235.358C52.6381 211.387 46.4654 180.972 55.3586 147.174C63.1953 117.392 81.7113 95.5158 108.398 79.9484Z" fill="#ACC0D5"/>
<path d="M220.028 192.971C220.028 192.971 219.571 193.142 219.089 192.907C209.992 180.56 205.225 166.714 201.069 152.689C189.788 114.621 170.29 81.815 139.994 55.7714C151.156 50.5202 163.17 48.2346 175.241 48.2568C190.968 48.2856 206.683 50.1995 222.422 50.727C228.036 50.9152 228.671 54.4571 229.943 58.9915C232.162 74.3453 234.232 88.9599 236.229 103.937C236.199 106.033 236.242 107.768 236.212 109.985C233.889 125.811 232.136 141.249 229.231 156.467C226.883 168.772 223.148 180.813 220.028 192.971Z" fill="#ACC0D5"/>
<path d="M336.146 296.037C337.911 294.662 339.762 293.382 341.429 291.896C348.832 285.301 355.874 278.249 363.704 272.213C366.805 269.822 371.613 269.645 375.794 268.988C375.808 269.829 375.671 270.143 375.315 270.657C374.573 271.705 374.049 272.554 373.267 273.56C372.805 274.057 372.6 274.397 372.395 274.738C373.009 274.557 373.624 274.376 374.5 274.027C375.265 272.972 375.769 272.085 376.536 271.009C376.908 270.226 377.018 269.631 377.127 269.036C377.127 269.036 377.073 268.999 377.39 269.068C377.845 268.769 377.982 268.399 378.12 268.029C378.12 268.029 378.065 268 378.388 267.92C379.18 266.903 379.648 265.964 380.116 265.026C380.116 265.026 380.066 264.998 380.367 264.887C381.151 263.86 381.634 262.944 382.117 262.027C382.117 262.027 382.065 261.999 382.385 261.911C383.176 260.894 383.649 259.964 384.121 259.035C384.121 259.035 384.069 258.998 384.363 258.997C384.811 258.672 384.965 258.347 385.118 258.023C385.118 258.023 385.064 258.001 385.412 257.907C385.885 257.214 386.011 256.615 386.136 256.017C386.136 256.017 386.071 256.004 386.424 256.134C386.894 255.853 387.01 255.444 387.127 255.034C387.127 255.034 387.066 255.004 387.414 255.097C387.883 254.804 388.004 254.419 388.126 254.034C388.126 254.034 388.066 254.003 388.411 254.084C388.879 253.788 389.002 253.411 389.126 253.034C389.126 253.034 389.066 253.003 389.418 253.086C389.889 252.79 390.008 252.412 390.127 252.034C390.127 252.034 390.067 252.006 390.383 252.176C391.17 251.907 391.641 251.468 392.111 251.029C392.111 251.029 392.063 251 392.345 250.978C392.791 250.647 392.955 250.338 393.118 250.029C393.118 250.029 393.061 250.005 393.41 250.044C394.545 249.403 395.33 248.724 396.115 248.044C396.115 248.044 396.068 248.002 396.442 248.109C397.808 248.049 398.799 247.882 399.988 247.909C400.329 248.219 400.472 248.336 400.51 248.785C399.127 251.592 397.849 254.068 396.372 256.788C396.278 257.401 396.384 257.768 396.489 258.135C396.752 257.83 397.016 257.524 397.55 257.014C399.243 255.479 400.665 254.149 402.087 252.82C399.453 255.46 402.55 258.276 401.926 260.804C397.522 278.63 393.246 296.504 388.095 314.119C386.903 318.194 382.953 321.897 379.45 324.768C373.181 329.907 366.288 334.285 359.049 338.813C351.727 326.271 344.987 313.909 338.324 301.506C337.402 299.789 336.862 297.865 336.146 296.037ZM390.555 289.627C393.075 282.332 395.596 275.036 398.117 267.741C397.586 267.577 397.056 267.412 396.525 267.247C393.806 275.352 391.087 283.456 388.368 291.561C388.769 291.687 389.17 291.813 389.571 291.939C389.761 291.346 389.951 290.753 390.555 289.627ZM386.43 276.947C387.019 275.69 387.607 274.433 388.196 273.176C387.857 273.017 387.517 272.858 387.178 272.7C386.141 274.704 385.105 276.708 384.069 278.712C384.348 278.86 384.628 279.008 384.908 279.157C385.302 278.644 385.697 278.131 386.43 276.947ZM380.251 284.709C379.852 285.74 379.453 286.772 379.054 287.804C379.383 287.933 379.712 288.062 380.041 288.192C381.109 286.204 382.176 284.217 383.244 282.229C382.949 282.065 382.653 281.901 382.358 281.736C381.797 282.513 381.236 283.29 380.251 284.709ZM377.578 291.911C378.088 291.018 378.599 290.125 379.109 289.232C378.765 289.066 378.42 288.899 378.076 288.733C377.668 289.806 377.261 290.879 377.578 291.911ZM395.503 260.846C395.687 260.293 395.871 259.739 396.055 259.185C395.75 259.05 395.445 258.916 395.14 258.781C394.7 259.824 394.261 260.867 393.821 261.91C394.251 261.758 394.681 261.607 395.503 260.846ZM389 269.622C388.695 270.393 388.391 271.164 388.087 271.935C388.444 272.025 388.801 272.116 389.158 272.206C389.314 271.231 389.471 270.256 389 269.622ZM384.008 280.503C383.787 280.422 383.565 280.341 383.344 280.261C383.416 280.499 383.489 280.737 384.008 280.503Z" fill="#FC8D8E"/>
<path d="M236.301 103.574C234.232 88.9599 232.162 74.3453 230.106 59.322C243.81 66.6959 252.105 78.5362 254.903 93.8237C256.205 100.935 255.526 108.39 256.201 115.646C256.422 118.027 257.596 120.7 259.176 122.499C263.065 126.925 267.444 130.922 272.558 136.022C268.225 137.25 265.319 138.59 262.335 138.796C257.932 139.1 256.437 141.09 256.68 145.588C252.663 144.645 249.036 143.305 244.126 141.49C248.2 146.374 252.389 147.742 257.057 148.128C257.051 156.756 256.986 165.384 257.061 174.012C257.109 179.608 254.827 184.079 249.562 185.674C240.134 188.531 230.469 190.604 220.465 192.987C223.148 180.813 226.882 168.772 229.231 156.467C232.135 141.249 233.889 125.811 236.603 110.049C240.399 108.874 243.869 108.458 247.004 107.204C248.363 106.66 249.03 104.389 250.012 102.902C248.454 101.931 246.716 99.9523 245.375 100.192C242.249 100.752 239.314 102.38 236.301 103.574ZM249.654 121.129C247.617 117.947 245.363 117.952 243.955 121.35C243.332 122.853 244.01 125.075 244.595 126.803C244.796 127.397 247.308 127.911 247.405 127.732C248.405 125.867 249.128 123.853 249.654 121.129Z" fill="#FE8F90"/>
<path d="M335.822 295.933C336.862 297.865 337.402 299.789 338.325 301.506C344.987 313.909 351.727 326.271 358.698 338.875C362.714 346.265 366.474 353.425 369.035 358.301C364.839 363.788 361.353 368.347 357.494 373.394C349.813 356.995 342.488 341.379 335.184 325.753C332.089 319.133 329.25 312.382 325.88 305.906C324.15 302.582 324.066 300.121 327.038 297.685C328.963 296.108 330.737 294.346 332.908 292.366C333.643 293.35 334.571 294.59 335.822 295.933Z" fill="#3B1711"/>
<path d="M57.0727 248.972C58.2181 246.403 59.22 244.178 60.786 240.701C61.2229 255.245 64.5524 267.362 75.245 277.167C63.4151 282.087 55.9731 291.021 50.9266 302.463C49.8933 289.802 44.0066 280.268 33.7556 272.301C45.0087 267.767 52.2315 259.749 57.0727 248.972Z" fill="#FEB667"/>
<path d="M319.38 173.996C314.773 162.707 307.656 154.13 295.248 149.215C308.634 140.353 312.323 127.152 314.346 111.889C318.275 125.86 324.33 137.077 336.964 144.282C326.509 151.722 321.851 162.229 319.38 173.996Z" fill="#FEB667"/>
<path d="M352.813 409.372C353.311 409.102 354.015 409.072 354.08 409.261C359.447 424.866 363.321 430.213 375.412 438.594C364.858 448.171 363.728 450.098 358.472 467.523C355.312 462.818 352.702 457.649 348.891 453.616C344.994 449.494 339.919 446.486 335.071 442.768C346.586 435.4 350.697 423.108 352.813 409.372Z" fill="#FEB667"/>
<path d="M139.662 55.8373C170.29 81.815 189.788 114.621 201.069 152.689C205.225 166.714 209.992 180.56 218.847 192.937C218.935 194.064 218.782 194.925 218.393 196.024C213.089 186.456 207.314 176.942 203.125 166.775C197.38 152.829 193.557 138.079 187.623 124.225C176.457 98.1527 159.501 76.1085 137.846 57.2377C138.205 56.59 138.768 56.2466 139.662 55.8373Z" fill="#422521"/>
<path d="M244.798 385.852C240.12 391.464 235.213 396.952 230.307 402.44C229.778 401.971 229.249 401.502 228.72 401.034C233.612 395.758 238.503 390.482 243.686 385.043C244.174 385.163 244.372 385.446 244.798 385.852Z" fill="#A94B46"/>
<path d="M402.237 252.511C400.665 254.149 399.243 255.479 397.377 256.841C396.932 256.874 396.572 256.543 396.572 256.543C397.849 254.068 399.127 251.592 400.625 248.597C400.493 247.956 400.142 247.836 399.791 247.715C398.799 247.882 397.808 248.049 396.446 248.14C398.824 247.137 401.573 246.209 404.321 245.281C404.691 245.877 405.061 246.473 405.43 247.07C404.415 248.781 403.401 250.492 402.237 252.511Z" fill="#5A2A25"/>
<path d="M257.087 147.781C252.389 147.742 248.2 146.374 244.125 141.49C249.036 143.305 252.663 144.645 256.672 146.014C257.074 146.506 257.095 146.97 257.087 147.781Z" fill="#592A24"/>
<path d="M383.756 259.016C383.649 259.964 383.176 260.894 382.4 261.936C382.529 261.031 382.96 260.014 383.756 259.016Z" fill="#602D28"/>
<path d="M381.747 261.99C381.634 262.944 381.151 263.86 380.381 264.912C380.522 264.016 380.949 262.985 381.747 261.99Z" fill="#602D28"/>
<path d="M379.747 264.98C379.648 265.964 379.18 266.903 378.407 267.945C378.528 267.011 378.953 265.973 379.747 264.98Z" fill="#602D28"/>
<path d="M395.755 247.985C395.33 248.724 394.545 249.403 393.427 250.071C393.861 249.347 394.628 248.636 395.755 247.985Z" fill="#602D28"/>
<path d="M376.875 269.012C377.018 269.631 376.908 270.226 376.354 270.821C375.784 270.699 375.659 270.579 375.533 270.458C375.671 270.143 375.808 269.829 376.031 269.272C376.285 269.016 376.454 269.002 376.875 269.012Z" fill="#602D28"/>
<path d="M385.834 256.139C386.011 256.615 385.886 257.214 385.429 257.931C385.242 257.453 385.387 256.857 385.834 256.139Z" fill="#602D28"/>
<path d="M391.787 250.957C391.641 251.468 391.17 251.907 390.392 252.208C390.544 251.675 391.004 251.28 391.787 250.957Z" fill="#602D28"/>
<path d="M392.82 250.036C392.955 250.338 392.791 250.647 392.354 251.005C392.227 250.717 392.374 250.38 392.82 250.036Z" fill="#602D28"/>
<path d="M377.826 268.023C377.982 268.399 377.845 268.769 377.399 269.1C377.237 268.714 377.384 268.366 377.826 268.023Z" fill="#602D28"/>
<path d="M384.82 258.027C384.965 258.347 384.811 258.672 384.376 259.026C384.238 258.715 384.379 258.373 384.82 258.027Z" fill="#602D28"/>
<path d="M386.854 255.08C387.01 255.443 386.894 255.853 386.436 256.165C386.257 255.753 386.419 255.439 386.854 255.08Z" fill="#602D28"/>
<path d="M387.847 254.071C388.005 254.419 387.883 254.804 387.43 255.127C387.255 254.745 387.411 254.427 387.847 254.071Z" fill="#602D28"/>
<path d="M388.847 253.071C389.003 253.411 388.879 253.787 388.427 254.113C388.254 253.744 388.411 253.425 388.847 253.071Z" fill="#602D28"/>
<path d="M389.851 252.076C390.008 252.412 389.889 252.79 389.434 253.115C389.256 252.748 389.415 252.433 389.851 252.076Z" fill="#602D28"/>
<path d="M181.428 181.635C199.992 202.385 215.917 224.349 224.292 250.988C230.072 269.372 230.671 288.258 229.365 307.433C228.27 302.584 227.258 297.713 226.066 292.888C221.936 276.181 214.358 261.471 201.025 250.151C199.759 249.076 198.539 247.741 197.051 247.169C188.714 243.967 183.213 237.157 176.552 231.757C162.601 220.446 147.902 210.059 133.918 198.786C119.725 187.344 107.727 174.069 103.553 155.51C100.257 140.848 102.529 126.361 105.483 111.969C106.737 105.86 108.554 99.8654 110.451 92.517C117.548 119.189 134.906 137.045 153.204 154.284C162.652 163.186 171.864 172.34 181.428 181.635Z" fill="#ABC0D4"/>
<path d="M273.131 464.038C256.546 479.819 237.149 487.051 214.293 482.65C205.403 480.939 199.05 474.759 193.262 468.192C179.849 452.971 169.361 435.729 160.268 417.759C149.456 396.395 139.676 374.508 129.472 352.837C129.006 351.849 128.759 350.758 128.41 349.715C128.774 349.485 129.138 349.255 129.502 349.024C130.232 350.214 131.074 351.349 131.676 352.6C142.992 376.134 153.501 400.099 165.851 423.076C173.912 438.073 184.231 451.933 194.271 465.77C206.869 483.131 224.525 484.364 243.538 479.333C254.248 476.499 263.015 470.137 271.868 463.351C272.575 463.645 272.853 463.841 273.131 464.038Z" fill="#AB4C47"/>
<path d="M273.427 463.879C272.853 463.841 272.575 463.645 272.178 463.22C272.835 462.293 273.612 461.594 274.389 460.895C274.632 461.074 274.875 461.252 275.119 461.431C274.653 462.194 274.188 462.957 273.427 463.879Z" fill="#BE5550"/>
<path d="M236.229 103.937C239.314 102.38 242.249 100.752 245.375 100.192C246.716 99.9523 248.454 101.931 250.012 102.902C249.03 104.389 248.363 106.66 247.004 107.204C243.869 108.458 240.399 108.874 236.675 109.566C236.242 107.768 236.199 106.033 236.229 103.937Z" fill="#411C16"/>
<path d="M390.348 289.894C389.951 290.753 389.761 291.346 389.572 291.939C389.17 291.813 388.769 291.687 388.368 291.561C391.087 283.456 393.806 275.352 396.525 267.247C397.056 267.412 397.586 267.577 398.117 267.741C395.596 275.036 393.075 282.332 390.348 289.894Z" fill="#713934"/>
<path d="M386.26 277.283C385.697 278.131 385.302 278.644 384.908 279.156C384.628 279.008 384.349 278.86 384.069 278.712C385.105 276.708 386.141 274.704 387.178 272.7C387.517 272.858 387.857 273.017 388.196 273.176C387.607 274.433 387.019 275.69 386.26 277.283Z" fill="#62302A"/>
<path d="M380.464 284.388C381.236 283.29 381.797 282.513 382.358 281.736C382.653 281.901 382.949 282.065 383.244 282.229C382.176 284.217 381.109 286.204 380.041 288.192C379.712 288.062 379.383 287.933 379.054 287.804C379.453 286.772 379.852 285.74 380.464 284.388Z" fill="#62302A"/>
<path d="M377.215 291.931C377.261 290.879 377.669 289.806 378.076 288.733C378.421 288.899 378.765 289.066 379.109 289.232C378.599 290.125 378.088 291.018 377.215 291.931Z" fill="#62302A"/>
<path d="M395.307 261.151C394.681 261.607 394.251 261.758 393.821 261.91C394.261 260.867 394.7 259.824 395.14 258.781C395.445 258.916 395.75 259.05 396.055 259.185C395.871 259.739 395.687 260.293 395.307 261.151Z" fill="#5A2A25"/>
<path d="M389.313 269.451C389.471 270.256 389.315 271.231 389.158 272.206C388.801 272.116 388.444 272.025 388.087 271.935C388.391 271.164 388.695 270.393 389.313 269.451Z" fill="#62302A"/>
<path d="M376.091 271.009C375.769 272.085 375.265 272.972 374.326 273.825C373.769 273.662 373.647 273.533 373.525 273.404C374.049 272.554 374.573 271.705 375.315 270.657C375.659 270.578 375.784 270.699 376.091 271.009Z" fill="#602D28"/>
<path d="M374.065 273.993C373.624 274.376 373.009 274.557 372.395 274.738C372.6 274.397 372.805 274.056 373.267 273.56C373.647 273.533 373.769 273.662 374.065 273.993Z" fill="#602D28"/>
<path d="M383.785 280.739C383.489 280.737 383.417 280.499 383.344 280.26C383.566 280.341 383.787 280.422 383.785 280.739Z" fill="#62302A"/>
<path d="M397.105 257.046C397.016 257.524 396.752 257.83 396.489 258.135C396.384 257.768 396.278 257.401 396.372 256.788C396.572 256.543 396.932 256.874 397.105 257.046Z" fill="#5A2A25"/>
<path d="M249.791 121.504C249.129 123.853 248.406 125.867 247.405 127.732C247.308 127.911 244.796 127.397 244.595 126.803C244.01 125.075 243.332 122.853 243.955 121.35C245.363 117.952 247.617 117.947 249.791 121.504Z" fill="#441D17"/>
<path d="M399.988 247.909C400.142 247.836 400.493 247.956 400.73 248.265C400.472 248.336 400.329 248.219 399.988 247.909Z" fill="#FC8D8E"/>
</svg>
