<svg width="361" height="501" viewBox="0 0 361 501" fill="none" xmlns="http://www.w3.org/2000/svg">
<path d="M27.109 297.422C29.7794 288.253 32.6585 279.566 35.026 270.742C37.7445 260.61 42.3098 251.866 51.0914 245.643C52.4215 244.701 53.8144 242.914 53.963 241.399C54.5891 235.011 54.3035 228.515 55.1862 222.174C56.8569 210.173 58.9263 198.217 61.25 186.324C61.7377 183.828 63.8756 181.561 65.5354 179.406C69.5579 174.183 74.2625 169.407 77.7074 163.842C80.5326 159.277 84.8094 157.93 89.1293 156.41C91.4487 155.594 91.8183 155.27 91.3857 152.521C90.1406 144.61 89.5493 136.571 89.1475 128.56C88.5838 117.323 88.4654 106.063 88.0797 94.8155C87.3989 74.958 93.4829 57.105 104.849 41.1475C120.725 18.8579 142.306 5.28853 169.522 1.32211C198.923 -2.96258 226.239 3.1012 250.296 20.4755C268.385 33.539 278.734 52.0394 282.024 74.1836C283.128 81.613 283.852 89.1567 283.95 96.6585C284.022 102.139 282.712 107.63 282.18 113.132C282.044 114.54 282.152 116.197 282.777 117.418C287.653 126.949 286.238 136.732 283.499 146.28C280.232 157.669 276.387 168.956 265.765 176.667C275.384 185.832 274.608 198.191 277.247 209.48C277.678 211.323 279.83 213.463 281.68 214.166C295.448 219.394 309.778 223.351 323.082 229.537C339.41 237.128 351.872 249.299 357.403 267.164C358.445 270.531 358.953 274.179 359.026 277.712C359.488 299.956 360.963 322.268 359.767 344.432C358.466 368.518 356.361 392.803 348.945 416.002C343.261 433.782 331.61 446.882 314.085 454.675C314.085 458.062 314.085 461.543 314.085 465.843C298.788 471.824 283.725 478.861 267.966 483.571C250.125 488.904 231.719 492.436 213.451 496.235C187.709 501.589 161.505 501.17 135.505 500.013C110.604 498.906 86.1805 493.593 62.3629 485.971C53.0833 483.001 53.0891 482.982 53.0891 472.885C53.0891 469.892 53.0891 466.898 53.0891 463.151C45.8983 460.878 38.443 459.029 31.3909 456.181C18.9051 451.139 9.77515 441.731 1.79478 431.252C0.396041 429.415 0.251548 426.36 0.150161 423.843C-0.385987 410.531 0.426391 397.395 4.00915 384.402C11.606 356.853 18.7628 329.182 26.1003 301.561C26.4295 300.322 26.7611 299.083 27.109 297.422ZM93.2867 170.983C91.8592 172.075 90.4318 173.168 88.2749 174.253C82.5633 175.816 83.0412 181.371 80.4581 185.489C79.6109 186.368 78.7636 187.248 77.2326 188.312C75.8669 190.418 73.8284 192.354 73.2419 194.658C68.5174 213.223 67.5486 232.171 67.3733 251.398C58.9153 255.958 51.8446 261.9 49.1653 271.548C38.7655 308.999 28.4299 346.468 18.2307 383.973C14.9071 396.195 12.3992 408.605 13.8039 421.397C14.0246 423.406 14.781 425.701 16.0665 427.195C26.0856 438.843 38.001 447.028 54.4466 447.612C59.3194 450.572 62.336 446.685 66.0877 445.4C66.3131 453.224 66.7239 461.049 66.676 468.871C66.6559 472.151 67.8426 473.397 70.8814 474.311C96.5363 482.025 122.77 486.249 149.503 486.941C198.071 488.197 244.776 479.148 289.927 461.268C297.569 458.241 302.094 454.662 300.198 445.958C300.141 445.693 300.413 445.357 300.467 445.219C321.077 437.737 334.767 424.021 338.395 402.155C341.578 382.973 344.827 363.652 345.751 344.284C346.812 322.051 345.312 299.697 344.995 277.395C344.896 270.426 342.711 264.093 338.026 259.167C332.912 253.791 327.6 248.117 321.28 244.467C303.878 234.415 284.416 229.503 265.118 223.266C263.411 213.02 261.811 202.754 259.87 192.554C259.614 191.21 257.615 190.197 256.119 188.431C254.777 187.386 253.435 186.342 252.094 184.531C250.74 180.116 250.281 175.038 244.133 173.357C242.842 172.574 241.551 171.791 240.244 170.207C241.978 169.601 243.771 168.345 245.434 168.499C253.427 169.236 259.955 166.442 263.156 159.301C266.841 151.082 269.587 142.356 271.848 133.619C273.052 128.963 272.089 123.934 267.085 120.479C267.363 119.172 267.641 117.865 268.123 115.717C268.449 114.436 269.048 113.157 269.057 111.874C269.131 100.968 269.859 89.995 268.912 79.1716C267.605 64.2423 261.849 50.514 251.09 40.0451C225.215 14.8691 193.863 7.44343 159.759 17.6041C128.057 27.0488 109.115 49.8774 102.401 82.3257C101.34 87.4504 102.168 92.966 102.067 99.2347C103.067 115.957 104.033 132.682 105.078 149.402C105.829 161.415 108.544 172.683 117.331 181.699C124.746 189.308 132.173 196.862 142.143 202.022C142.83 203.428 143.516 204.835 144.199 207.077C143.831 209.243 143.464 211.409 142.484 213.239C141.692 212.288 140.899 211.337 139.568 209.741C137.717 214.002 136.141 217.628 133.947 221.2C132.973 221.505 131.999 221.809 131.004 221.218C131.043 218.589 131.505 215.864 130.938 213.373C130.665 212.172 127.618 210.345 127.257 210.627C124.968 212.418 123.079 214.72 120.439 217.022C120.018 217.077 119.597 217.133 118.954 216.417C117.988 210.365 117.028 204.311 116.055 198.259C114.811 190.516 113.577 182.766 107.188 176.375C105.848 175.235 104.508 174.095 103.135 172.275C99.3412 167.319 97.6869 167.078 93.2867 170.983Z" fill="#FEFEFF"/>
<path d="M265.213 224.111C284.416 229.503 303.878 234.415 321.28 244.467C327.6 248.117 332.912 253.791 338.026 259.167C342.711 264.093 344.896 270.426 344.995 277.395C345.312 299.697 346.812 322.051 345.751 344.284C344.827 363.652 341.578 382.972 338.395 402.155C334.767 424.021 321.077 437.737 300.467 445.219C300.413 445.357 300.141 445.693 300.198 445.957C302.094 454.662 297.569 458.241 289.927 461.268C244.776 479.148 198.071 488.197 149.503 486.941C122.77 486.249 96.5363 482.025 70.8814 474.31C67.8426 473.397 66.6559 472.151 66.676 468.871C66.7239 461.049 66.3131 453.224 66.2655 444.783C70.0073 439.83 74.1346 435.839 77.0392 431.098C90.5158 409.105 99.2993 385.013 105.681 360.248C111.199 338.839 114.652 316.895 118.857 295.156C119.265 293.048 118.534 290.719 118.332 288.493C117.639 288.407 116.946 288.321 116.253 288.236C115.525 289.859 114.469 291.415 114.12 293.117C111.038 308.168 107.912 323.215 105.123 338.323C99.8827 366.72 90.903 393.872 77.8351 419.582C72.693 429.699 67.6264 440.309 55.6517 444.617C54.9548 444.867 54.6354 446.167 54.1403 446.979C38.001 447.028 26.0856 438.843 16.0665 427.195C14.781 425.701 14.0246 423.406 13.8039 421.397C12.3992 408.605 14.9071 396.195 18.2307 383.973C28.4299 346.468 38.7655 308.999 49.1653 271.548C51.8446 261.9 58.9153 255.958 67.8168 251.721C69.2664 258.932 70.2725 265.82 71.2519 272.525C82.8944 276.496 95.2166 280.699 108.044 285.075C109.362 276.549 113.578 269.285 119.163 262.475C124.578 255.871 128.022 248.224 128.421 239.295C128.678 233.54 130.117 227.838 131.026 222.113C131.999 221.809 132.973 221.505 134.409 221.565C145.904 240.682 159.647 256.166 182.116 261.597C181.445 273.989 180.788 285.902 180.116 297.814C179.462 309.394 178.777 320.972 178.132 332.552C177.109 350.92 176.051 369.286 175.113 387.658C174.353 402.564 173.847 417.484 173.036 432.387C172.613 440.148 171.709 447.88 171.147 455.635C170.704 461.749 170.287 467.875 170.238 474C170.226 475.386 171.781 476.786 172.615 478.179C173.447 477.065 174.89 476.014 175.012 474.828C175.857 466.6 176.511 458.35 177.064 450.097C177.806 439.023 178.423 427.94 179.054 416.859C180.081 398.825 181.057 380.788 182.087 362.754C183.059 345.717 184.187 328.689 185.035 311.646C185.868 294.91 186.435 278.161 187.538 261.336C195.041 259.232 202.124 257.21 209.497 255.364C217.147 265.746 224.719 275.839 227.149 288.636C227.185 288.824 227.626 288.936 227.191 288.681C239.557 283.279 251.491 278.064 262.32 273.333C265.244 256.952 265.929 240.554 265.213 224.111ZM242.919 382.885C246.946 391.283 250.737 399.805 255.057 408.05C261.545 420.433 268.58 432.566 279.337 441.82C282.31 444.376 286.438 445.686 290.197 447.155C291.02 447.476 292.532 446.035 293.726 445.406C292.917 444.446 292.246 442.831 291.278 442.626C282.254 440.724 277.077 433.906 272.714 426.988C265.565 415.652 259.307 403.74 252.956 391.919C242.03 371.58 236.061 349.441 229.929 327.369C227.134 317.306 224.225 307.271 221.11 297.304C220.639 295.793 218.765 294.721 217.539 293.447C217.156 295.209 216.748 296.966 216.412 298.737C216.359 299.016 216.64 299.35 216.738 299.668C225.234 327.216 231.217 355.55 242.919 382.885ZM285.585 315.321C293.026 333.324 300.468 351.328 307.952 369.435C313.772 367.256 311.199 364.104 310.126 361.474C305.49 350.111 300.705 338.809 296.016 327.467C288.664 309.688 281.409 291.869 273.899 274.157C273.262 272.656 271.009 271.84 269.507 270.705C269.47 272.455 268.887 274.422 269.482 275.922C274.614 288.873 279.959 301.739 285.585 315.321ZM60.0744 272.858C54.6094 289.94 49.0957 307.007 43.6947 324.11C39.2965 338.037 34.9499 351.983 30.8167 365.99C30.307 367.717 31.2544 369.874 31.5265 371.832C32.8384 370.406 34.8219 369.196 35.3612 367.521C43.193 343.197 50.8282 318.809 58.5179 294.438C60.5663 287.947 62.7333 281.49 64.6167 274.951C64.9612 273.755 64.1984 272.24 63.9467 270.872C62.7234 271.286 61.5001 271.699 60.0744 272.858Z" fill="#01ABFE"/>
<path d="M265.165 223.688C265.929 240.554 265.244 256.952 262.32 273.333C251.49 278.064 239.557 283.279 227.191 288.681C227.626 288.936 227.185 288.824 227.149 288.636C224.719 275.839 217.146 265.746 209.426 254.998C207.301 247.622 205.536 240.788 203.601 233.293C194.206 234.505 188.118 240.387 185.351 248.252C181.978 245.006 178.727 241.083 174.714 238.232C170.413 235.177 165.384 233.151 160.692 230.641C153.202 226.633 147.383 220.892 143.096 213.575C143.464 211.409 143.831 209.243 144.53 206.783C152.783 208.722 160.728 212.882 168.62 212.783C184.716 212.581 199.764 206.9 213.942 199.123C217.448 197.199 218.876 194.737 218.764 190.617C217.246 191.327 215.98 191.76 214.882 192.459C204.947 198.782 194.031 202.65 182.71 205.593C170.852 208.675 159.406 208.15 148.312 202.502C146.501 201.581 144.174 201.674 142.085 201.298C132.173 196.862 124.746 189.308 117.33 181.699C108.544 172.683 105.828 161.415 105.078 149.402C104.033 132.682 103.067 115.957 102.402 98.6348C116.846 85.8646 133.594 79.9208 151.819 78.4252C174.883 76.5325 197.024 81.2869 218.453 90.0153C218.14 95.9461 218.077 101.452 217.5 106.904C217.12 110.483 217.687 113.327 220.454 115.824C227.019 121.749 229.473 129.534 230.163 138.084C230.535 142.694 231.094 147.289 231.579 151.998C233.542 151.998 235.277 151.998 237.012 151.998C237.777 146.947 238.417 142.167 239.242 137.419C240.243 131.66 242.225 126.497 248.135 123.904C254.176 121.254 260.327 119.502 266.987 121.133C272.089 123.934 273.052 128.963 271.848 133.619C269.587 142.356 266.841 151.082 263.156 159.301C259.955 166.442 253.427 169.236 245.434 168.499C243.771 168.345 241.977 169.601 239.951 170.936C239.459 173.293 239.131 174.918 239.083 176.551C238.744 188.183 238.366 199.815 238.226 211.45C238.189 214.527 237.144 215.506 234.139 215.448C231.312 215.393 229.752 214.8 229.981 211.542C230.424 205.251 230.714 198.946 230.92 192.642C231.099 187.15 231.176 181.648 231.045 176.157C231.023 175.216 229.735 174.306 229.031 173.382C228.104 174.159 226.676 174.776 226.364 175.751C225.876 177.275 226.178 179.043 226.082 180.704C225.476 191.138 224.928 201.577 224.128 211.997C224.037 213.184 222.52 214.281 221.618 215.382C220.857 216.309 220.029 217.181 219.231 218.077C220.348 218.831 221.389 220.051 222.596 220.245C225.529 220.715 228.537 220.805 231.519 220.877C240.004 221.081 248.491 221.253 256.977 221.276C257.919 221.278 259.306 220.433 259.659 219.621C259.916 219.03 258.839 217.828 258.299 216.932C257.595 215.763 256.21 214.634 256.198 213.477C256.118 205.33 256.315 197.18 256.423 189.032C257.615 190.197 259.614 191.21 259.87 192.554C261.811 202.754 263.411 213.02 265.165 223.688ZM246.255 139.244C245.557 143.471 244.715 147.684 244.268 151.938C244.164 152.924 245.183 154.414 246.109 154.984C246.707 155.352 248.056 154.371 249.103 154.167C250.917 153.813 252.764 153.629 254.585 153.305C255.845 153.081 257.084 152.742 258.332 152.454C257.851 151.228 257.717 149.515 256.819 148.875C254.849 147.472 252.491 146.612 250.327 145.547C251.89 136.692 254.372 134.532 263.16 134.27C263.824 134.25 264.631 134.488 265.123 134.193C266.15 133.578 267.01 132.687 267.938 131.909C267.108 131.049 266.356 129.545 265.434 129.432C258.846 128.625 249.791 129.364 246.255 139.244ZM232.638 247.534C233.193 250.126 233.474 252.824 234.419 255.264C234.885 256.467 236.577 257.196 237.715 258.139C238.355 256.946 239.826 255.425 239.505 254.612C237.039 248.372 234.896 241.844 231.342 236.236C227.306 229.866 218.278 227.484 216.635 218.798C216.523 218.206 214.591 217.388 213.834 217.644C213.057 217.907 211.983 219.705 212.245 220.24C214.227 224.278 215.599 229.394 218.894 231.836C224.546 236.024 229.306 240.502 232.638 247.534ZM145.16 179.302C157.123 177.975 169.097 176.731 181.035 175.206C182.421 175.029 183.607 173.296 184.886 172.284C183.391 171.624 181.828 170.273 180.411 170.412C168.757 171.558 157.125 172.939 145.504 174.386C144.393 174.524 143.4 175.599 142.352 176.239C143 177.228 143.647 178.218 145.16 179.302Z" fill="#FFAD92"/>
<path d="M218.485 89.5674C197.024 81.2869 174.883 76.5325 151.819 78.4252C133.594 79.9208 116.846 85.8646 102.43 98.1679C102.168 92.966 101.34 87.4504 102.401 82.3257C109.115 49.8773 128.057 27.0488 159.759 17.6041C193.863 7.44341 225.215 14.8691 251.09 40.045C261.849 50.514 267.605 64.2423 268.912 79.1715C269.859 89.995 269.131 100.968 269.057 111.874C269.048 113.157 268.449 114.436 267.74 115.948C253.052 103.661 235.947 96.2871 218.485 89.5674Z" fill="#EAE5DB"/>
<path d="M131.015 221.666C130.117 227.839 128.678 233.54 128.421 239.295C128.022 248.224 124.578 255.871 119.163 262.475C113.578 269.285 109.362 276.549 108.044 285.075C95.2166 280.699 82.8944 276.496 71.2519 272.525C70.2725 265.82 69.2664 258.932 68.154 251.641C67.5485 232.171 68.5174 213.223 73.2418 194.658C73.8283 192.354 75.8669 190.418 77.6165 188.698C77.9998 195.234 78.2698 201.401 77.8854 207.527C77.6906 210.632 76.3329 213.667 75.4634 216.723C75.1314 217.89 74.6947 219.026 74.3057 220.177C75.4764 220.572 76.6552 221.333 77.8165 221.307C88.9262 221.06 100.035 220.728 111.137 220.258C112.136 220.216 113.088 219.039 114.061 218.389C113.355 217.414 112.722 216.373 111.924 215.481C111.068 214.525 109.291 213.758 109.229 212.822C108.443 200.929 107.893 189.021 107.284 177.117C113.577 182.766 114.811 190.516 116.055 198.259C117.028 204.311 117.988 210.365 118.744 216.957C117.767 218.354 116.553 219.098 116.307 220.084C114.995 225.341 111.145 228.117 107.057 231.183C99.8886 236.559 95.7706 244.181 94.2956 253.011C94.0359 254.567 95.4024 256.394 96.0179 258.095C97.064 256.757 98.6746 255.564 99.0629 254.057C101.246 245.583 104.654 237.835 112.632 233.427C119.429 229.672 121.18 223.863 121.058 216.853C123.079 214.72 124.968 212.418 127.257 210.627C127.618 210.345 130.665 212.172 130.938 213.373C131.505 215.864 131.043 218.589 131.015 221.666Z" fill="#FEAD92"/>
<path d="M142.79 213.407C147.383 220.892 153.203 226.633 160.692 230.641C165.384 233.151 170.413 235.177 174.714 238.232C178.727 241.083 181.978 245.006 185.351 248.252C188.118 240.387 194.206 234.505 203.601 233.292C205.536 240.788 207.301 247.622 209.136 254.822C202.124 257.21 195.041 259.232 187.127 261.252C184.906 261.205 183.515 261.162 182.124 261.118C159.647 256.166 145.904 240.682 134.719 221.592C136.141 217.628 137.717 214.002 139.568 209.74C140.899 211.337 141.692 212.288 142.79 213.407Z" fill="#FD625D"/>
<path d="M218.453 90.0153C235.947 96.2871 253.052 103.661 267.638 116.368C267.641 117.865 267.363 119.172 267.036 120.806C260.327 119.502 254.176 121.254 248.135 123.904C242.226 126.497 240.243 131.66 239.242 137.419C238.417 142.167 237.778 146.946 237.012 151.998C235.278 151.998 233.542 151.998 231.579 151.998C231.094 147.289 230.535 142.694 230.163 138.084C229.473 129.534 227.019 121.749 220.454 115.824C217.687 113.327 217.121 110.483 217.5 106.904C218.077 101.452 218.14 95.9461 218.453 90.0153Z" fill="#21203F"/>
<path d="M54.2935 447.296C54.6354 446.167 54.9548 444.867 55.6518 444.617C67.6264 440.309 72.6931 429.699 77.8351 419.582C90.903 393.872 99.8828 366.72 105.123 338.323C107.912 323.215 111.038 308.168 114.12 293.116C114.469 291.415 115.525 289.859 116.253 288.236C116.946 288.321 117.639 288.407 118.332 288.493C118.534 290.719 119.265 293.048 118.857 295.156C114.653 316.895 111.199 338.839 105.681 360.248C99.2994 385.013 90.5159 409.105 77.0392 431.098C74.1346 435.839 70.0074 439.83 66.1324 444.347C62.336 446.685 59.3194 450.571 54.2935 447.296Z" fill="#0194E6"/>
<path d="M256.271 188.731C256.315 197.18 256.118 205.33 256.198 213.477C256.21 214.634 257.595 215.763 258.299 216.932C258.839 217.828 259.916 219.03 259.659 219.621C259.306 220.433 257.919 221.278 256.977 221.276C248.491 221.253 240.004 221.081 231.519 220.877C228.537 220.805 225.529 220.715 222.596 220.245C221.389 220.051 220.347 218.831 219.231 218.077C220.029 217.181 220.857 216.309 221.618 215.382C222.52 214.281 224.037 213.184 224.128 211.997C224.928 201.577 225.476 191.138 226.082 180.704C226.178 179.043 225.876 177.275 226.364 175.751C226.676 174.776 228.104 174.159 229.031 173.382C229.735 174.306 231.023 175.216 231.045 176.157C231.176 181.648 231.099 187.15 230.92 192.642C230.714 198.946 230.424 205.251 229.981 211.542C229.752 214.8 231.312 215.393 234.139 215.448C237.144 215.506 238.189 214.527 238.226 211.449C238.366 199.815 238.744 188.183 239.083 176.551C239.13 174.918 239.459 173.293 239.959 171.336C241.551 171.791 242.842 172.574 244.147 174.186C244.16 188.661 244.16 202.307 244.16 215.832C246.314 215.832 248.529 215.832 251.023 215.832C251.023 208.603 250.912 201.815 251.072 195.034C251.148 191.782 251.737 188.542 252.094 185.297C253.435 186.342 254.777 187.386 256.271 188.731Z" fill="#EE7052"/>
<path d="M107.236 176.746C107.893 189.021 108.443 200.929 109.229 212.822C109.291 213.758 111.068 214.525 111.924 215.481C112.722 216.373 113.355 217.414 114.061 218.389C113.088 219.039 112.136 220.216 111.137 220.258C100.035 220.728 88.9262 221.06 77.8165 221.307C76.6552 221.333 75.4764 220.572 74.3057 220.177C74.6947 219.026 75.1314 217.89 75.4633 216.723C76.3329 213.667 77.6906 210.632 77.8854 207.527C78.2698 201.401 77.9998 195.234 77.9584 188.606C78.7636 187.248 79.6108 186.368 80.9792 185.755C82.0185 188.031 82.9396 190.032 82.984 192.053C83.158 199.966 83.0551 207.885 83.0551 215.792C85.7821 215.792 87.7929 215.792 89.9804 215.792C89.9804 202.352 89.9962 189.396 89.9388 176.44C89.9355 175.712 89.3297 174.987 89.0043 174.261C90.4317 173.168 91.8592 172.075 93.717 171.41C94.4512 179.924 94.8496 188.01 95.0293 196.1C95.1753 202.669 95.059 209.244 95.059 216.319C98.4568 215.797 101.002 215.407 103.75 214.985C103.865 213.64 104.101 212.507 104.034 211.392C103.466 201.832 102.716 192.281 102.308 182.714C102.17 179.479 102.858 176.209 103.168 172.955C104.508 174.095 105.848 175.235 107.236 176.746Z" fill="#EE6F50"/>
<path d="M142.114 201.66C144.174 201.674 146.501 201.581 148.312 202.502C159.406 208.15 170.852 208.675 182.711 205.593C194.031 202.65 204.947 198.782 214.882 192.459C215.98 191.76 217.246 191.327 218.764 190.617C218.876 194.737 217.449 197.199 213.942 199.123C199.764 206.9 184.716 212.581 168.62 212.783C160.728 212.882 152.783 208.722 144.532 206.365C143.516 204.835 142.83 203.428 142.114 201.66Z" fill="#EE7152"/>
<path d="M103.152 172.615C102.858 176.209 102.17 179.479 102.308 182.714C102.716 192.28 103.466 201.832 104.034 211.392C104.101 212.507 103.865 213.639 103.75 214.985C101.002 215.407 98.4568 215.797 95.0589 216.319C95.0589 209.244 95.1753 202.669 95.0293 196.1C94.8495 188.01 94.4512 179.924 94.0984 171.392C97.6868 167.078 99.3412 167.319 103.152 172.615Z" fill="#FFAC91"/>
<path d="M88.6396 174.257C89.3297 174.987 89.9355 175.712 89.9388 176.44C89.9962 189.396 89.9804 202.352 89.9804 215.792C87.7929 215.792 85.7821 215.792 83.0551 215.792C83.0551 207.885 83.158 199.966 82.984 192.053C82.9396 190.032 82.0186 188.031 81.302 185.695C83.0412 181.371 82.5633 175.816 88.6396 174.257Z" fill="#FEAB90"/>
<path d="M252.094 184.914C251.737 188.542 251.148 191.782 251.072 195.034C250.912 201.815 251.023 208.603 251.023 215.832C248.529 215.832 246.314 215.832 244.16 215.832C244.16 202.307 244.16 188.661 244.236 174.533C250.281 175.038 250.74 180.116 252.094 184.914Z" fill="#FEAB90"/>
<path d="M120.749 216.938C121.18 223.863 119.429 229.672 112.632 233.427C104.654 237.835 101.246 245.583 99.0629 254.057C98.6746 255.564 97.064 256.757 96.0179 258.095C95.4024 256.393 94.0359 254.567 94.2956 253.011C95.7706 244.181 99.8887 236.558 107.057 231.183C111.145 228.117 114.995 225.341 116.307 220.084C116.553 219.098 117.767 218.354 118.855 217.343C119.597 217.132 120.018 217.077 120.749 216.938Z" fill="#EE6F50"/>
<path d="M182.116 261.597C183.515 261.162 184.906 261.205 186.708 261.333C186.435 278.161 185.868 294.91 185.035 311.646C184.187 328.689 183.059 345.717 182.087 362.754C181.058 380.788 180.081 398.825 179.054 416.859C178.424 427.94 177.806 439.023 177.064 450.097C176.511 458.35 175.857 466.6 175.012 474.828C174.89 476.014 173.447 477.065 172.615 478.179C171.781 476.785 170.226 475.386 170.238 473.999C170.287 467.875 170.704 461.749 171.147 455.635C171.709 447.88 172.613 440.148 173.036 432.387C173.847 417.484 174.353 402.564 175.113 387.657C176.051 369.286 177.109 350.92 178.132 332.552C178.777 320.972 179.462 309.394 180.116 297.814C180.788 285.902 181.445 273.989 182.116 261.597Z" fill="#0094E6"/>
<path d="M242.748 382.543C231.217 355.55 225.234 327.216 216.738 299.668C216.64 299.35 216.359 299.016 216.412 298.737C216.749 296.966 217.156 295.209 217.539 293.447C218.765 294.721 220.639 295.794 221.11 297.304C224.225 307.271 227.134 317.306 229.929 327.369C236.061 349.441 242.03 371.58 252.957 391.919C259.307 403.74 265.565 415.652 272.714 426.988C277.077 433.906 282.254 440.724 291.278 442.626C292.246 442.831 292.917 444.446 293.726 445.406C292.532 446.035 291.02 447.476 290.197 447.155C286.438 445.686 282.31 444.376 279.337 441.82C268.58 432.566 261.545 420.433 255.057 408.05C250.737 399.805 246.946 391.283 242.748 382.543Z" fill="#0094E6"/>
<path d="M285.412 314.975C279.959 301.739 274.614 288.873 269.482 275.922C268.887 274.422 269.47 272.455 269.506 270.705C271.009 271.839 273.262 272.656 273.899 274.157C281.409 291.869 288.664 309.688 296.016 327.467C300.705 338.809 305.489 350.111 310.126 361.474C311.199 364.104 313.772 367.256 307.952 369.435C300.467 351.328 293.026 333.324 285.412 314.975Z" fill="#0094E6"/>
<path d="M60.1755 272.485C61.5 271.699 62.7233 271.286 63.9467 270.872C64.1983 272.24 64.9612 273.755 64.6166 274.951C62.7332 281.49 60.5662 287.947 58.5179 294.438C50.8281 318.809 43.1929 343.197 35.3611 367.521C34.8218 369.196 32.8383 370.406 31.5264 371.832C31.2543 369.874 30.3069 367.717 30.8166 365.99C34.9498 351.983 39.2964 338.037 43.6947 324.11C49.0957 307.007 54.6093 289.94 60.1755 272.485Z" fill="#0094E6"/>
<path d="M246.408 138.884C249.791 129.364 258.846 128.625 265.434 129.432C266.356 129.545 267.108 131.049 267.938 131.909C267.01 132.687 266.15 133.578 265.123 134.193C264.631 134.488 263.824 134.25 263.16 134.27C254.372 134.532 251.89 136.692 250.327 145.547C252.491 146.612 254.849 147.472 256.819 148.875C257.717 149.515 257.851 151.228 258.332 152.454C257.084 152.742 255.845 153.081 254.585 153.305C252.764 153.629 250.917 153.813 249.103 154.167C248.056 154.371 246.707 155.352 246.109 154.984C245.183 154.414 244.164 152.924 244.268 151.938C244.715 147.684 245.557 143.471 246.408 138.884Z" fill="#EE7152"/>
<path d="M232.471 247.184C229.306 240.502 224.546 236.024 218.894 231.836C215.599 229.394 214.227 224.278 212.245 220.24C211.983 219.705 213.057 217.907 213.834 217.644C214.592 217.388 216.524 218.206 216.636 218.799C218.278 227.484 227.306 229.866 231.342 236.236C234.896 241.844 237.039 248.372 239.505 254.612C239.826 255.425 238.356 256.946 237.715 258.139C236.578 257.196 234.886 256.467 234.42 255.264C233.475 252.824 233.193 250.126 232.471 247.184Z" fill="#EE7051"/>
<path d="M144.727 179.255C143.647 178.218 143 177.228 142.352 176.239C143.4 175.599 144.394 174.524 145.504 174.386C157.125 172.939 168.757 171.558 180.411 170.412C181.828 170.273 183.391 171.624 184.886 172.284C183.607 173.296 182.421 175.029 181.035 175.206C169.097 176.731 157.123 177.975 144.727 179.255Z" fill="#EE7051"/>
</svg>
