<svg width="480" height="458" viewBox="0 0 480 458" fill="none" xmlns="http://www.w3.org/2000/svg">
<path d="M197.094 370.073C170.833 378.696 146.326 374.624 124.4 358.311C112.293 349.304 101.54 338.477 89.9106 328.236C103.522 306.207 113.272 282.186 130.404 262.764C160.672 228.451 198.831 210.77 244.575 209.932C265.564 209.548 286.572 209.527 307.56 209.944C339.844 210.586 364.36 225.134 378.617 254.091C392.776 282.85 389.47 311.06 370.441 336.861C358.488 353.069 345.599 368.586 333.215 384.479C330.341 388.167 326.106 391.537 328.825 397.221C331.527 402.868 336.7 401.85 341.446 401.854C368.757 401.877 396.069 401.865 423.687 401.865C423.687 420.442 423.687 438.846 423.687 457.6C422.578 457.681 421.313 457.854 420.048 457.854C379.222 457.868 338.397 457.884 297.572 457.856C284.122 457.846 275.433 450.833 272.683 437.25C278.878 431.167 284.794 425.56 290.543 419.787C306.057 404.208 309.394 378.19 295.956 360.927C285.209 347.12 271.98 335.213 259.563 322.751C254.321 317.49 247.847 314.048 240.098 313.824C236.532 311.034 232.838 309.419 227.884 312.701C225.709 313.183 224.269 313.52 222.838 313.89C207.721 317.8 195.253 332.013 193.966 346.795C191.189 350.528 190.506 354.314 193.82 358.936C195.008 363.141 196.051 366.607 197.094 370.073Z" fill="white"/>
<path d="M152.674 104.575C149.87 110.144 147.065 115.714 143.799 121.627C143.071 122.175 142.927 122.444 142.907 122.779C142.907 122.779 142.996 122.855 142.701 122.92C142.265 123.291 142.124 123.596 141.983 123.901C141.983 123.901 141.978 123.851 141.74 123.93C141.342 124.324 141.183 124.639 141.023 124.953C141.023 124.953 141.011 124.881 140.772 124.954C140.373 125.352 140.214 125.677 140.054 126.001C140.054 126.001 140.051 125.915 139.725 125.892C138.222 126.462 136.939 126.908 135.88 127.668C101.406 152.403 55.552 146.691 28.848 114.305C5.85658 86.4223 4.73908 47.5186 26.0194 18.1582C26.9386 16.89 27.2802 15.2033 27.8909 13.7115C27.8909 13.7115 27.9268 13.7926 28.1669 13.7536C28.5934 13.3986 28.7798 13.0826 28.9662 12.7666C28.9662 12.7666 28.9733 12.8418 29.2072 12.7839C29.6309 12.4237 29.8207 12.1215 30.0105 11.8192C30.0105 11.8192 30.0044 11.8794 30.2371 11.8249C30.6754 11.4888 30.881 11.2071 31.0866 10.9254C36.6559 7.28359 42.2251 3.64179 47.7944 0C48.0337 0.390284 48.2729 0.78057 48.5122 1.17085C22.4043 38.8855 35.4289 80.4636 58.9723 101.047C85.6071 124.333 123.632 126.04 152.565 104.8C152.767 104.58 152.674 104.575 152.674 104.575Z" fill="#FEEF77"/>
<path d="M60.0093 370.031C67.8133 370.226 75.6244 370.685 83.4174 370.474C86.1449 370.4 89.2663 369.243 91.4264 367.571C94.5363 365.163 96.9323 361.834 99.8407 358.672C104.353 362.581 108.185 366.182 112.315 369.399C116.476 372.639 120.933 375.498 126.707 379.536C124.436 381.173 122.371 382.576 120.398 384.099C115.346 387.998 114.666 392.508 117.005 398.594C126.459 423.203 111.908 450.895 86.2665 456.428C78.1003 458.19 69.3935 457.448 60.4668 457.318C60.0028 427.866 60.0061 398.949 60.0093 370.031Z" fill="#EFD4C4"/>
<path d="M231.883 328.908C245.906 342.869 260.166 356.603 273.864 370.875C282.192 379.553 282.585 393.333 274.389 401.804C257.286 419.48 239.537 436.532 222.351 453.545C215.129 446.307 207.781 438.942 200.082 431.227C206.784 424.539 213.942 417.402 221.095 410.259C226.159 405.201 231.219 400.139 236.276 395.075C243.229 388.113 243.201 385.233 236.103 378.128C227.517 369.533 218.924 360.944 210.186 351.627C209.876 339.318 219.475 329.654 231.883 328.908Z" fill="#FDFDFD"/>
<path d="M27.5569 13.7773C27.28 15.2032 26.9384 16.8899 26.0192 18.1581C4.73888 47.5185 5.85638 86.4222 28.8478 114.305C55.5518 146.691 101.406 152.403 135.88 127.667C136.938 126.908 138.221 126.462 139.764 125.91C129.786 139.166 115.979 146.971 100.038 151.227C64.3961 160.741 26.4861 143.937 9.16979 111.096C-8.00786 78.5177 -0.441128 37.7559 27.5569 13.7773Z" fill="#FBE31E"/>
<path d="M35.9971 422.866C35.9971 434.479 35.9971 445.592 35.9971 456.758C15.6574 453.915 -0.0890391 434.843 0.00037893 413.603C0.0886819 392.629 15.8579 373.763 35.9971 370.958C35.9971 388.129 35.9971 405.247 35.9971 422.866Z" fill="#FDFDFD"/>
<path d="M460.256 442.583C459.784 441.463 459.398 440.717 459.157 439.927C456.336 430.673 452.476 422.788 440.216 426.247C440.216 417.762 440.216 410.026 440.216 402.078C453.464 402.078 466.527 402.078 479.793 402.078C479.793 420.566 479.793 438.844 479.793 457.858C476.012 457.858 472.091 458.013 468.199 457.743C467.288 457.68 466.147 456.33 465.677 455.311C463.8 451.242 462.146 447.069 460.256 442.583Z" fill="#EFD4C4"/>
<path d="M240.199 314.141C247.847 314.048 254.321 317.49 259.563 322.751C271.98 335.212 285.209 347.119 295.956 360.927C309.394 378.19 306.057 404.208 290.543 419.787C284.794 425.56 278.878 431.167 272.715 436.886C271.033 431.03 272.16 426.295 277.029 421.945C282.051 417.457 286.858 412.34 290.388 406.648C300.025 391.11 297.265 371.706 283.979 358.199C269.529 343.511 254.869 329.03 240.199 314.141Z" fill="#E4E0DC"/>
<path d="M380.024 362.069C394.53 362.069 409.037 362.069 423.984 362.069C423.984 367.102 423.984 372.011 423.449 377.391C405.248 377.86 387.581 377.86 369.087 377.86C371.054 375.253 372.587 373.376 373.947 371.382C376.035 368.32 378.004 365.178 380.024 362.069Z" fill="white"/>
<path d="M379.586 361.975C378.004 365.177 376.035 368.32 373.947 371.382C372.587 373.376 371.054 375.253 369.088 377.86C387.581 377.86 405.248 377.86 423.374 377.851C423.832 380.324 423.832 382.805 423.832 385.577C400.423 385.577 377.004 385.577 352.816 385.577C355.95 381.529 358.911 377.694 361.883 373.867C363.415 371.896 365.25 370.098 366.451 367.945C369.304 362.826 373.417 360.766 379.586 361.975Z" fill="#E7E3DF"/>
<path d="M59.5592 369.957C60.0061 398.949 60.0028 427.866 60.0045 457.242C57.537 457.7 55.0645 457.7 52.2939 457.7C52.2939 428.583 52.2939 399.475 52.2939 369.884C54.5741 369.884 56.8416 369.884 59.5592 369.957Z" fill="#EBC4A6"/>
<path d="M130.541 31.4625C129.561 32.7842 128.74 33.8683 127.711 34.693C122.799 38.6289 120.741 43.4039 122.865 49.6397C123.277 50.8491 123.158 52.2394 123.431 55.0717C115.681 48.7435 108.397 48.1583 100.688 54.5383C104.1 44.3788 101.021 37.0052 92.8125 31.0265C102.549 30.9171 109.394 27.4268 111.234 17.8615C112.113 17.9575 112.397 17.9414 112.412 17.9969C114.893 27.3468 121.853 30.467 130.541 31.4625Z" fill="#FAE11D"/>
<path d="M440.16 377.851C440.16 372.715 440.16 367.578 440.16 362.154C453.304 362.154 466.369 362.154 479.98 362.154C479.98 367.056 479.98 371.992 479.446 377.395C465.996 377.858 453.078 377.855 440.16 377.851Z" fill="#EFD4C4"/>
<path d="M231.743 328.603C219.474 329.654 209.876 339.318 210.039 351.324C208.723 350.529 207.361 349.356 206.099 348.084C202.667 344.627 198.947 343.56 194.313 346.667C195.253 332.013 207.721 317.8 222.838 313.89C224.269 313.519 225.709 313.183 227.535 312.834C223.992 319.008 224.503 321.155 231.743 328.603Z" fill="#E7E3DF"/>
<path d="M188.781 443.94C193.392 448.43 197.737 452.669 202.81 457.619C185.813 457.619 170.021 457.619 153.769 457.619C156.494 450.865 161.156 446.762 167.676 444.89C172.767 443.429 177.944 442.128 183.172 441.362C184.804 441.122 186.726 442.858 188.781 443.94Z" fill="#EFD4C4"/>
<path d="M440.087 378.301C453.078 377.854 465.996 377.858 479.371 377.856C479.829 380.317 479.829 382.783 479.829 385.557C466.722 385.557 453.599 385.557 440.013 385.557C440.013 383.264 440.013 381.008 440.087 378.301Z" fill="#EBC4A6"/>
<path d="M197.465 370.06C196.051 366.607 195.008 363.141 193.973 359.286C196.931 361.689 199.882 364.479 203.552 367.951C201.251 368.795 199.544 369.421 197.465 370.06Z" fill="#E4E0DC"/>
<path d="M140.341 125.951C140.214 125.677 140.373 125.352 140.808 124.957C140.931 125.225 140.779 125.562 140.341 125.951Z" fill="#FBE31E"/>
<path d="M141.299 124.893C141.183 124.638 141.342 124.324 141.765 123.927C141.877 124.173 141.726 124.503 141.299 124.893Z" fill="#FBE31E"/>
<path d="M142.235 123.816C142.124 123.596 142.265 123.291 142.651 122.891C142.759 123.108 142.623 123.419 142.235 123.816Z" fill="#FBE31E"/>
<path d="M143.127 122.681C142.927 122.444 143.071 122.175 143.548 121.859C143.774 122.102 143.637 122.38 143.127 122.681Z" fill="#FBE31E"/>
<path d="M152.794 104.543C152.821 104.505 152.801 104.716 152.801 104.716C152.801 104.716 152.785 104.506 152.73 104.541C152.674 104.575 152.767 104.58 152.794 104.543Z" fill="#FEEF77"/>
<path d="M28.6746 12.7987C28.7797 13.0826 28.5933 13.3986 28.1225 13.7538C28.0198 13.4722 28.2014 13.1515 28.6746 12.7987Z" fill="#FBE31E"/>
<path d="M29.7295 11.8643C29.8206 12.1215 29.6309 12.4238 29.1698 12.7786C29.0818 12.5239 29.2652 12.2166 29.7295 11.8643Z" fill="#FBE31E"/>
<path d="M30.8166 10.9689C30.8812 11.2071 30.6756 11.4888 30.2073 11.8215C30.1452 11.5858 30.3458 11.2991 30.8166 10.9689Z" fill="#FBE31E"/>
</svg>
