<svg width="207" height="178" viewBox="0 0 207 178" fill="none" xmlns="http://www.w3.org/2000/svg">
<path d="M0 43.5475C0.494562 42.8867 1.02783 42.4708 1.47718 41.9673C3.77259 39.3952 7.29536 38.5455 9.87505 40.7441C12.0942 42.6356 14.1605 42.1099 16.4324 41.7453C20.2515 41.1324 24.0353 40.7287 27.6793 42.757C30.6598 44.4159 32.9121 46.774 34.4543 49.9951C36.6841 54.6523 39.0288 59.2456 41.226 63.9203C41.9447 65.4493 42.7892 65.9711 44.2785 65.3082C44.8932 65.0345 45.5788 64.9394 46.2375 64.7902C47.3354 64.5414 47.7634 64.0557 47.5186 62.6593C46.5553 57.1623 45.7904 51.625 44.8696 46.1188C44.1025 41.5314 44.9075 39.7946 48.9969 37.8946C48.9969 34.8593 48.7261 31.736 49.0551 28.6884C49.6787 22.9117 51.8282 17.9001 56.5265 14.5863C61.3993 11.1494 69.0332 12.1727 73.5652 16.7155C76.6797 19.8373 79.2182 23.3298 80.6052 27.7454C80.7772 28.2929 81.6963 28.9388 82.2456 28.9145C85.8102 28.7572 87.5461 30.102 88.6299 33.8452C90.1795 39.1979 91.8586 44.5068 93.4253 49.8539C93.8176 51.1927 94.2934 51.6768 95.729 51.3193C102.721 49.5781 102.772 49.6423 104.421 42.2154C107.202 29.6918 109.939 17.1565 112.67 4.61999C113.595 0.37558 115.099 -0.659117 119.06 0.367196C125.866 2.13077 132.674 3.88109 139.474 5.67022C142.341 6.42459 143.285 8.18801 142.589 11.333C140.647 20.1108 138.696 28.886 136.765 37.6667C136.604 38.3984 136.574 39.1637 136.45 40.1894C137.933 39.8336 139.103 39.5679 140.267 39.271C144.833 38.1057 148.162 40.9167 148.166 46.0202C148.181 64.6245 148.178 83.2287 148.168 101.833C148.166 106.455 146.528 108.677 142.198 109.856C130.315 113.09 118.421 116.275 106.539 119.507C95.8975 122.402 85.2646 125.332 74.6303 128.256C74.1321 128.393 73.6553 128.621 72.926 128.899C74.4565 131.882 75.8742 134.676 77.3191 137.454C79.5629 141.768 81.7172 146.143 84.1093 150.359C86.6324 154.806 89.7097 156 94.3883 154.743C94.9026 154.605 95.4112 154.442 96.0871 154.242C95.0197 149.746 93.9729 145.341 92.9287 140.936C92.6612 139.807 92.3861 138.68 92.1416 137.546C91.362 133.929 92.4275 131.799 95.7769 130.799C100.124 129.502 104.515 128.379 108.891 127.196C116.338 125.184 123.785 123.177 131.236 121.184C134.046 120.432 136.126 121.791 136.844 124.862C138.162 130.497 139.448 136.14 140.809 142.044C143.96 141.218 147.143 140.386 150.326 139.547C150.98 139.374 151.626 139.17 152.279 138.994C153.951 138.543 155.062 139.46 155.713 140.937C156.409 142.517 155.618 144.455 154.144 145.14C153.409 145.482 152.623 145.697 151.673 146.037C155.432 151.255 155.771 156.59 151.795 161.723C149.172 165.109 144.264 166.2 140.53 164.622C135.492 162.493 133.86 159.224 133.786 150.782C124.486 153.291 115.254 155.781 105.677 158.364C109.626 164.915 109.977 171.12 103.901 175.955C100.102 178.978 95.1108 178.466 91.812 175.623C87.9588 172.302 86.8248 167.721 88.5035 161.867C86.8708 161.012 85.1614 160.236 83.5595 159.254C80.1414 157.159 78.6351 153.393 76.8274 149.915C73.5615 143.631 70.3469 137.317 67.0412 131.058C66.693 130.399 65.9379 129.727 65.2705 129.573C61.168 128.626 58.6618 125.858 56.7507 121.941C49.9622 108.028 42.986 94.2212 36.1659 80.3253C35.0888 78.1307 34.1294 75.7447 33.7389 73.3293C33.5284 72.0268 34.6974 70.4947 35.1316 69.0273C35.3843 68.1731 35.7853 67.0482 35.4852 66.3767C33.4627 61.8516 31.3453 57.3708 29.1116 52.9628C26.9604 48.7179 23.6206 47.1789 19.0809 48.0324C18.4876 48.1439 17.8691 48.0876 17.2677 48.1614C14.9898 48.4411 12.9233 48.5153 11.504 51.3561C9.74805 54.8709 3.92574 54.7208 1.40584 51.5538C1.06626 51.127 0.657128 50.765 0.140102 50.3604C-1.20657e-08 48.1492 0 45.9505 0 43.5475ZM123.505 43.7985C123.505 43.7985 123.491 43.8477 123.828 43.8585C125.319 43.4581 126.811 43.0577 128.302 42.6573C128.282 42.4991 128.262 42.3408 128.241 42.1826C127.2 41.9709 126.159 41.7593 124.887 41.3444C123.678 41.061 122.468 40.7776 121.205 40.4816C120.87 42.0327 120.595 43.3105 120.257 44.88C121.439 44.5391 122.268 44.2998 123.284 44.0718C123.422 44.0456 123.51 43.9599 123.505 43.7985ZM81.5912 55.1918C81.5912 55.1918 81.5913 55.2138 81.9434 55.2359C83.5799 54.7756 85.2164 54.3154 87.2096 53.8475C88.9032 53.3227 90.5968 52.7979 92.3242 51.9129C91.7017 49.8781 91.0792 47.8433 90.3823 45.4936C90.0292 44.342 89.676 43.1904 89.312 41.8433C89.2686 41.7095 89.1843 41.6218 89.0517 41.5941C89.0517 41.5941 89.0631 41.6036 89.0793 41.264C88.6657 40.0057 88.2522 38.7474 87.8373 37.1817C87.1825 35.4231 86.5276 33.6645 85.7367 31.6281C84.6693 30.6145 83.5086 30.2498 81.8503 31.0309C80.6639 31.3614 79.4776 31.692 78.0162 32.0088C76.1294 32.568 74.2425 33.1272 72.0389 33.6725C68.0897 34.7516 64.1405 35.8307 59.8584 36.9675C58.0705 37.4864 56.2826 38.0053 54.1849 38.5047C52.553 38.9403 50.9163 39.3563 49.2903 39.816C46.5107 40.602 45.759 42.0295 46.4596 45.4673C46.5148 45.7901 46.5701 46.1129 46.5883 46.703C46.7056 46.9069 46.8229 47.1107 46.9412 47.2817C46.9412 47.2817 46.9125 47.2933 46.7958 47.6597C47.6476 53.0829 48.4994 58.5062 49.3819 64.1243C50.0612 63.9001 50.5529 63.7379 51.3713 63.5794C53.0328 63.1008 54.6943 62.6222 56.6675 62.1622C58.5891 61.5995 60.5108 61.0368 62.6512 60.4693C62.9573 60.3893 63.2634 60.3093 63.9507 60.1931C65.5917 59.7002 67.2327 59.2073 69.1963 58.7269C70.8661 58.2533 72.536 57.7797 74.5119 57.3262C76.2971 56.7691 78.0823 56.2121 80.106 55.6909C80.2612 55.6479 80.4165 55.605 80.8601 55.5774C81.1084 55.4435 81.3567 55.3096 81.5912 55.1918ZM135.53 126.205C135.078 125.269 134.626 124.332 133.98 123.135C133.077 123.065 132.117 122.739 131.282 122.962C119.645 126.066 108.023 129.234 96.4031 132.413C93.5343 133.198 92.9545 134.481 93.9348 137.865C94.3158 139.34 94.6967 140.814 95.0702 142.637C95.3487 143.701 95.6272 144.765 95.8972 146.177C96.2127 147.525 96.5281 148.873 96.8342 150.535C97.7748 154.011 97.9698 154.14 101.106 153.15C112.826 149.964 124.546 146.775 136.268 143.594C139.138 142.815 139.408 142.283 138.442 138.867C138.106 137.494 137.771 136.122 137.397 134.405C137.086 133.232 136.776 132.058 136.469 130.534C136.156 129.194 135.842 127.853 135.53 126.205ZM2.94021 50.6518C3.5041 51.0399 4.02969 51.5293 4.63854 51.7985C7.19927 52.9309 10.168 51.5282 11.1546 48.7778C12.169 45.95 11.0038 43.0274 8.21577 41.944C6.24632 40.8467 4.0282 41.3853 2.5675 43.3156C0.986417 45.405 1.07741 48.0692 2.94021 50.6518ZM58.7605 122.025C59.801 125.124 62.0759 126.565 64.8003 127.636C67.3115 128.623 69.5641 127.786 72.1733 127.046C73.0759 126.772 73.9786 126.498 75.2133 126.176C79.1379 125.106 83.0624 124.035 87.2929 122.955C88.0341 122.654 88.7754 122.352 89.836 122.101C94.1821 120.955 98.5281 119.809 103.177 118.656C104.014 118.347 104.851 118.038 106.012 117.748C110.197 116.565 114.381 115.383 118.874 114.244C119.736 114.031 120.598 113.818 121.788 113.528C125.85 112.438 129.912 111.348 134.282 110.246C135.161 109.948 136.04 109.651 137.219 109.345C139.107 108.83 141.012 108.375 142.879 107.784C145.272 107.026 146.476 105.349 146.507 102.686C146.55 98.9783 146.498 95.2692 146.52 91.1603C146.5 90.223 146.48 89.2857 146.508 87.9534C146.515 82.5722 146.523 77.1909 146.555 71.4164C146.539 70.3636 146.523 69.3107 146.544 67.8541C146.534 62.2654 146.525 56.6767 146.563 50.7043C146.571 49.0405 146.619 47.3757 146.579 45.7133C146.506 42.6765 144.987 41.0414 141.765 40.7346C141.433 40.789 141.095 40.8143 140.772 40.9021C113.508 48.3059 86.2452 55.712 58.9837 63.1247C52.3315 64.9335 45.6743 66.7231 39.0391 68.6028C35.3623 69.6444 34.2029 72.6712 35.975 76.3178C36.6627 77.7331 37.4106 79.1141 38.181 80.8098C40.601 85.7352 43.0168 90.6629 45.4549 95.5777C45.562 95.7937 45.8734 95.8913 46.0643 96.3452C46.4691 97.2169 46.8739 98.0886 47.3856 99.2514C49.7978 103.982 52.21 108.712 54.6581 113.733C55.1187 114.497 55.5792 115.261 56.0157 116.366C56.901 118.156 57.7863 119.946 58.7605 122.025ZM99.7544 157.309C94.7627 156.66 90.6487 159.439 89.5355 164.211C88.4558 168.839 90.5508 173.412 94.8395 175.467C100.136 177.391 105.167 174.641 106.592 169.043C107.911 163.864 104.918 158.586 99.7544 157.309ZM140.546 162.783C141.454 163.045 142.348 163.417 143.272 163.549C147.832 164.199 152.094 160.511 152.859 155.313C153.553 150.603 150.541 145.959 145.841 144.808C141.501 143.834 137.245 146.425 135.783 150.931C134.285 155.548 136.157 160.359 140.546 162.783ZM139.916 7.55956C136.357 6.61823 132.798 5.67691 129.125 4.7055C126.58 16.2225 124.091 27.4828 121.563 38.9199C123.235 39.3306 124.733 39.6982 126.499 40.217C128.136 40.641 129.756 41.1827 131.414 41.4527C132.802 41.6787 134.244 41.7383 134.7 39.6465C136.812 29.9373 139.003 20.2475 141.043 10.5206C141.209 9.73161 140.446 8.71509 139.916 7.55956ZM78.0737 30.1513C78.3548 29.6202 78.9958 28.9296 78.8638 28.5817C76.4339 22.1725 72.9852 16.7917 66.3437 14.8688C62.71 13.8168 59.3535 14.6063 56.4835 17.1363C52.6027 20.5572 50.88 25.2286 50.6329 30.5292C50.5282 32.7746 50.7621 35.0385 50.8541 37.6326C60.2126 35.0516 68.9946 32.6295 78.0737 30.1513ZM123.004 25.9376C124.564 18.8079 126.124 11.6783 127.729 4.34517C124.063 3.42275 120.613 2.49748 117.137 1.7074C115.675 1.37497 114.907 2.34282 114.584 3.82722C113.703 7.86502 112.795 11.8957 111.906 15.9311C110.49 22.3524 109.08 28.7752 107.642 35.3189C111.891 36.4177 115.978 37.4746 120.167 38.5577C121.112 34.3359 122.013 30.312 123.004 25.9376ZM112.472 46.9793C114.166 46.5187 115.874 46.1088 117.545 45.5667C118.044 45.4048 118.693 44.9634 118.837 44.4939C119.268 43.0833 119.485 41.5957 119.805 40.0399C115.541 38.9448 111.466 37.8983 107.287 36.825C106.377 40.9915 105.522 44.9074 104.602 49.1208C107.363 48.3835 109.76 47.7435 112.472 46.9793ZM35.399 62.1836C35.9221 63.2842 36.4961 64.3605 36.9569 65.4907C37.7592 67.4585 38.9166 67.3005 40.5141 66.1907C37.6613 60.4328 35.1104 54.5521 31.9446 49.0879C28.3389 42.8643 18.9919 40.8579 12.7516 44.4468C12.5921 46.5289 13.5042 47.1472 15.3056 46.7527C16.5545 46.4792 17.8394 46.4046 19.1007 46.1899C24.1961 45.3222 28.2796 47.4926 30.6862 52.4071C32.2296 55.5586 33.7383 58.73 35.399 62.1836ZM120.57 152.498C124.619 151.409 128.639 150.155 132.729 149.293C135.183 148.776 136.385 147.006 138.08 144.666C124.873 148.257 112.196 151.704 99.0787 155.271C101.929 156.626 104.147 157.221 106.758 156.341C111.185 154.85 115.746 153.825 120.57 152.498ZM91.0897 157.109C86.9643 156.723 84.1374 154.328 82.1775 150.495C78.8212 143.93 75.3665 137.423 72.0643 130.827C71.1071 128.915 70.0863 128.755 68.5611 129.884C68.6262 130.164 68.6352 130.394 68.7282 130.574C72.7069 138.264 76.5926 146.014 80.75 153.59C81.7666 155.442 83.563 156.887 85.2157 158.205C86.2529 159.031 87.6998 159.675 88.9459 159.643C89.9307 159.617 90.8898 158.436 91.8603 157.768C91.6992 157.554 91.5382 157.34 91.0897 157.109ZM148.427 141.859C147.412 142.157 146.397 142.455 145.172 142.814C147.916 143.994 150.428 145.166 153.063 143.605C153.607 143.282 153.845 142.353 154.225 141.704C153.632 141.401 153.011 140.796 152.451 140.856C151.201 140.991 149.982 141.458 148.427 141.859Z" fill="#051143"/>
<path d="M207 128.433C206.776 128.772 206.424 128.845 206.348 129.045C203.85 135.616 198.883 138.999 193.191 141.474C187.973 143.744 182.607 144.872 177.057 143.496C172.827 142.448 169.597 139.742 167.796 135.301C165.731 130.21 164.468 124.853 163.975 119.311C163.408 112.924 165.181 107.644 170.989 103.972C169.545 103.296 168.502 102.959 167.614 102.347C166.849 101.819 165.705 100.954 165.73 100.282C165.763 99.3698 166.574 98.1579 167.358 97.6699C171.158 95.3047 174.997 95.6293 178.651 98.131C179.761 98.8904 180.622 98.9907 181.908 98.5043C186.435 96.7922 191.092 95.89 195.59 98.5136C198.608 100.274 200.603 103.273 202.102 106.564C203.495 109.62 204.607 112.829 205.864 115.96C206.097 116.539 206.431 117.067 206.859 117.645C207 121.19 207 124.709 207 128.433ZM174.783 140.841C176.236 141.312 177.669 142.082 179.146 142.204C187.239 142.874 194.482 140.252 200.751 134.667C204.444 131.377 206.134 126.912 205.455 121.653C204.688 115.717 202.475 110.34 199.568 105.328C198.697 103.826 197.418 102.61 196.169 101.023C192.755 97.9609 188.799 98.1062 184.998 99.3836C181.757 100.473 179.077 100.875 175.927 98.6974C173.011 96.6815 168.928 97.8559 167.181 100.279C169.276 101.349 171.839 101.628 173.083 104.445C172.337 105.026 171.672 105.613 170.949 106.095C167.133 108.642 165.377 112.328 165.531 117.254C165.723 123.408 167.103 129.233 169.382 134.8C170.438 137.38 172.166 139.41 174.783 140.841Z" fill="#031449"/>
<path d="M36.9942 129.332C36.4798 129.934 36.073 130.42 35.6072 130.976C36.6258 132.23 39.2252 131.664 38.7565 134.832C37.4911 134.465 36.3436 134.133 35.0672 133.762C35.4902 135.038 35.8859 136.231 36.3184 137.535C33.7835 138.436 33.7776 135.714 32.5163 134.859C32.3721 135.809 32.3293 136.772 32.0574 137.643C31.879 138.214 31.3696 138.653 31.0084 139.151C30.7057 138.663 30.1698 138.189 30.1479 137.685C30.0992 136.567 30.308 135.434 30.4195 134.225C29.1756 134.98 28.0576 135.658 26.9397 136.337C26.7114 136.076 26.483 135.816 26.2547 135.555C26.8519 134.516 27.4492 133.477 27.9499 132.606C26.807 132.334 25.4299 132.006 23.7188 131.599C25.4898 128.796 27.6934 130.117 29.4566 129.552C27.9474 126.477 27.9474 126.477 29.4346 125.055C30.1402 126.074 30.8434 127.089 31.5461 128.103C32.1078 126.487 32.6735 124.859 33.3526 122.905C35.4755 125.054 33.8373 126.905 33.7094 129.13C34.5691 128.487 35.094 127.922 35.7163 127.684C36.2002 127.499 36.8055 127.721 37.3569 127.761C37.2719 128.246 37.1868 128.73 36.9942 129.332Z" fill="#FD8A02"/>
<path d="M166.87 78.1976C165.563 78.856 164.256 79.5145 162.573 80.3628C162.319 77.2451 164.773 77.165 165.873 75.8902C164.901 74.8581 162.607 75.8609 162.438 73.4034C163.674 73.3484 164.838 73.2965 166.023 73.2438C165.995 71.539 163.979 69.9165 165.965 67.8096C166.771 69.2294 167.472 70.4651 168.174 71.7007C169.395 70.7975 167.972 67.8706 170.987 68.1522C170.987 69.3152 170.987 70.4505 170.856 71.8276C170.701 72.2656 170.678 72.4617 170.654 72.6578C170.859 72.5417 171.063 72.4257 171.268 72.3097C172.154 71.6339 173.04 70.9582 174.155 70.1078C174.556 70.5294 174.973 70.968 175.533 71.5562C174.281 72.7292 173.214 73.73 171.818 75.0384C172.955 75.0384 173.889 74.9196 174.771 75.0855C175.257 75.1769 175.656 75.7469 176.094 76.1011C175.668 76.4679 175.289 77.0325 174.804 77.1547C174.086 77.3353 173.292 77.2014 172.529 77.2014C173.584 78.4985 174.586 79.7291 175.757 81.1674C172.491 82.3229 171.901 79.2208 170.135 78.5159C168.847 79.4119 170.244 82.4397 167.151 81.8644C167.151 80.8986 167.151 79.9045 167.282 78.6723C167.437 78.2383 167.462 78.0424 167.486 77.8465C167.281 77.9635 167.076 78.0806 166.87 78.1976Z" fill="#FD8A02"/>
<path d="M158.832 28.9643C158.042 28.818 157.42 28.6717 156.798 28.5254C156.761 28.3187 156.724 28.1119 156.688 27.9052C157.586 27.4306 158.485 26.9561 159.522 26.4084C158.862 25.249 158.123 23.9509 157.383 22.6527C157.625 22.4069 157.866 22.161 158.108 21.9152C159.156 22.6711 160.204 23.427 161.36 24.2604C161.38 23.8684 161.34 23.5117 161.424 23.1914C161.66 22.281 161.947 21.3855 162.214 20.4841C162.646 21.3984 163.105 22.2997 163.494 23.2343C163.617 23.5294 163.553 23.9138 163.58 24.3463C165.012 23.8093 165 21.0202 167.471 22.0908C167.17 22.7894 166.883 23.4583 166.592 24.1249C166.308 24.7768 166.018 25.4263 165.731 26.0779C166.941 26.6113 168.334 24.1359 169.231 26.2367C169.396 26.6241 167.931 27.8075 167.144 28.7091C167.5 28.887 168.313 29.0815 168.82 29.6111C169.266 30.0767 169.37 30.9176 169.625 31.5927C169.021 31.6207 168.367 31.8207 167.824 31.6388C166.869 31.3184 165.981 30.7649 164.867 30.2103C164.808 31.4874 164.758 32.5664 164.708 33.6528C161.89 34.8128 163.2 31.6398 162.006 30.7715C161.463 31.5125 161.033 32.3728 160.374 32.9092C159.885 33.3065 159.098 33.2828 158.443 33.4466C158.519 32.8506 158.452 32.1721 158.702 31.6768C159.147 30.7961 159.783 30.0265 160.507 28.9643C159.89 28.9643 159.444 28.9643 158.832 28.9643Z" fill="#FD8A02"/>
<path d="M180.221 56.3745C178.573 56.3539 178.782 55.6041 179.538 54.9008C180.201 54.2832 181.054 53.873 181.612 53.5095C180.897 52.7089 180.224 51.9541 179.551 51.1994C180.353 50.9899 181.155 50.7803 182.107 50.5316C181.927 49.6304 181.665 48.3266 181.403 47.0229C181.647 46.8882 181.891 46.7536 182.135 46.619C182.846 47.5817 183.557 48.5444 184.061 49.2258C184.583 48.55 185.222 47.725 185.86 46.9C186.19 47.9541 186.521 49.0082 186.818 49.9567C187.699 49.6008 188.775 49.1656 189.851 48.7305C190.024 48.9862 190.198 49.2419 190.372 49.4976C189.51 50.4261 188.649 51.3546 187.707 52.37C188.113 53.5273 190.873 51.4108 190.418 54.2018C189.574 54.2634 188.733 54.3249 187.821 54.3915C188.206 55.7749 190.852 56.422 188.935 58.627C187.793 57.5346 186.702 56.4906 185.556 55.3938C185.101 56.5641 184.731 57.5175 184.361 58.4709C184.118 58.4812 183.876 58.4916 183.633 58.5019C183.393 57.4509 183.153 56.3999 182.885 55.2236C182.108 55.5812 181.247 55.9773 180.221 56.3745Z" fill="#FD8A02"/>
<path d="M38.1801 80.5239C37.462 79.1068 36.7167 77.7055 36.0312 76.2695C34.2651 72.5694 35.4206 69.4983 39.085 68.4414C45.6979 66.5342 52.3326 64.7184 58.9625 62.8831C86.1322 55.3618 113.303 47.8472 140.475 40.3349C140.798 40.2458 141.134 40.2201 141.594 40.3631C141.101 44.4526 140.479 48.3439 139.824 52.3146C139.791 52.394 139.731 52.5558 139.573 52.5548C137.929 52.9992 136.445 53.4447 134.806 53.8837C133.798 54.128 132.942 54.3787 131.923 54.6508C125.803 56.3513 119.846 58.0305 113.742 59.7012C112.742 59.9593 111.891 60.2259 110.88 60.4996C105.027 62.0816 99.333 63.6567 93.4872 65.2626C92.5107 65.5304 91.6864 65.7674 90.7134 66.0119C84.6338 67.6818 78.7028 69.3443 72.6114 71.0315C71.6243 71.3008 70.7977 71.5454 69.8184 71.7969C63.86 73.4301 58.0542 75.0565 52.0847 76.7005C51.0936 76.9819 50.2662 77.2457 49.2801 77.5082C45.4743 78.5126 41.8272 79.5182 38.1801 80.5239ZM128.281 50.7861C130.772 49.9054 133.285 49.0926 135.736 48.0958C136.34 47.8502 136.743 47.0049 137.238 46.4354C136.553 46.2091 135.819 45.6793 135.188 45.8008C116.326 49.4385 97.8281 54.6922 79.6228 61.2027C78.7426 61.5174 77.2842 62.6927 77.3784 63.021C77.8955 64.8235 79.3218 63.7474 80.2671 63.5604C96.3924 60.3705 112.279 56.0732 128.281 50.7861Z" fill="#03D3FD"/>
<path d="M69.8361 71.2259C70.665 70.9811 71.494 70.7363 72.5374 70.6349C74.4954 75.8293 76.239 80.8803 77.9115 86.0469C77.0387 87.6348 76.237 89.1072 75.2755 90.6003C70.3103 91.9441 65.5051 93.2672 60.5136 94.6415C62.157 98.3537 63.6033 101.767 65.1651 105.115C67.626 110.39 66.3152 109.906 71.667 108.474C74.7794 107.642 77.877 106.742 81.1172 105.835C79.7157 101.394 78.4187 97.2834 77.2796 93.2242C78.4055 93.4969 79.3734 93.7188 80.3795 94.0905C81.4393 97.2884 82.5008 100.321 83.4626 103.392C83.8392 104.594 84.3105 105.023 85.5233 104.66C89.3485 103.517 93.1937 102.446 97.056 101.466C98.45 101.112 98.7665 100.439 98.4099 98.9706C97.3531 94.6202 96.3883 90.2429 95.5418 85.8354C96.5212 85.5498 97.3462 85.3049 98.2113 85.24C99.1547 89.2837 100.065 93.1458 100.959 97.0121C101.689 100.168 101.676 100.148 104.647 99.3477C106.667 98.8038 108.703 98.3336 110.687 97.9703C108.914 99.4935 107.185 100.877 105.336 102.355C104.316 102.997 103.415 103.544 102.397 104.148C101.574 104.893 100.868 105.581 100.045 106.25C99.8513 106.225 99.7732 106.22 99.7226 106.035C99.89 103.927 98.7203 104.298 97.7489 104.558C94.1672 105.516 90.5968 106.526 87.0271 107.538C86.4153 107.711 85.8279 107.988 85.3145 108.184C85.3145 108.618 85.2801 108.776 85.3199 108.907C85.6795 110.094 86.0521 111.276 86.2826 112.489C85.4056 112.964 84.6668 113.409 83.8382 113.836C83.7484 113.817 83.5682 113.785 83.5713 113.617C83.1044 111.951 82.6344 110.453 82.1351 108.862C77.5158 110.153 73.1743 111.367 68.614 112.641C69.4996 114.665 70.2794 116.447 70.9031 118.241C69.931 118.398 69.115 118.542 68.2167 118.667C68.1344 118.647 67.968 118.62 67.9106 118.472C67.5023 117.526 67.0706 116.76 66.8164 115.928C66.2049 113.926 65.1642 113.428 63.2831 114.078C60.8608 114.915 58.3349 115.39 55.8537 116.021C55.3934 115.245 54.933 114.47 54.5943 113.469C57.8508 112.331 60.9857 111.418 64.292 110.456C62.129 105.606 60.1445 101.095 58.0815 96.627C57.874 96.1778 57.109 95.6384 56.7424 95.7413C53.5094 96.6489 50.308 97.6925 47.0972 98.6959C46.6926 97.8109 46.288 96.9259 46 95.7529C49.3956 94.4791 52.6746 93.4933 56.2024 92.4326C53.8099 87.1079 51.5276 82.0283 49.2453 76.9487C50.075 76.6848 50.9048 76.4208 51.9702 76.2894C54.2747 80.9755 56.3752 85.5123 58.3909 90.094C58.9243 91.3064 59.4907 91.671 60.7324 91.2976C64.8738 90.052 69.0391 88.894 73.2207 87.8223C74.7771 87.4234 74.9325 86.6666 74.4193 85.1651C72.8386 80.5405 71.3565 75.8753 69.8361 71.2259Z" fill="#4419A9"/>
<path d="M62.4813 60.5971C60.529 61.1645 58.5767 61.7319 56.3846 62.1538C53.7236 60.2955 52.1451 60.8132 50.9116 63.7245C50.4121 63.8881 49.9127 64.0517 49.2224 64.2778C48.3259 58.6127 47.4605 53.1441 46.7986 47.5224C49.0737 49.411 51.855 48.0508 52.4199 46.0813C52.9764 44.1412 51.9095 42.0856 50.0793 41.6486C48.1911 41.1977 46.6908 42.5608 46.2455 45.1316C45.5417 41.9982 46.3054 40.5587 49.1294 39.7662C50.7814 39.3026 52.4442 38.8832 54.2836 38.6187C55.4669 40.815 56.8153 41.5813 58.375 40.8356C59.9603 40.0777 60.9327 38.8725 60.2044 36.8357C64.2167 35.7476 68.229 34.6594 72.4185 33.7433C73.182 35.7451 74.4328 36.4353 76.1256 36.0826C77.8614 35.7209 78.6895 34.2188 78.5935 31.9076C79.7988 31.5743 81.004 31.2409 82.3746 31.0793C82.6761 31.8994 82.8123 32.5477 82.8807 33.3481C83.0025 34.8803 83.1923 36.2606 83.375 37.8421C82.9612 41.8558 82.5544 45.6684 82.0661 49.484C81.9845 49.487 81.8215 49.4966 81.7053 49.3924C79.3681 48.4659 77.8091 49.0893 77.0858 51.089C76.4061 52.9684 77.3145 54.6464 79.6739 55.6164C79.9604 55.6965 80.0776 55.7171 80.1948 55.7377C78.3811 56.2994 76.5674 56.8611 74.5146 57.275C71.9652 55.3733 70.2839 55.9163 69.0256 58.8226C67.3584 59.3196 65.6911 59.8167 63.9461 60.1649C64.1435 59.5954 64.4696 59.2026 64.6851 58.7492C65.5629 56.9026 64.8286 54.7255 63.105 53.9765C61.3804 53.2271 59.4076 54.2851 58.8593 56.2534C58.2365 58.4887 59.7043 60.249 62.4813 60.5971ZM54.7955 53.9563C53.8548 51.7081 52.3922 50.7997 50.7094 51.5208C49.1449 52.1912 48.2796 53.4923 48.5944 55.3024C48.9034 57.0783 50.0611 58.0936 51.7783 58.105C53.5801 58.1169 54.6693 56.7078 54.7955 53.9563ZM70.6051 46.4957C67.8675 46.4566 66.2266 48.1335 66.7565 50.4811C67.1166 52.0764 68.0435 53.0499 69.6382 53.1207C71.2915 53.1942 72.4452 52.3705 72.8835 50.6801C73.3857 48.7428 72.5395 47.4243 70.6051 46.4957ZM74.8064 43.6797C75.602 45.4017 76.8405 46.293 78.6392 45.7383C80.1095 45.2849 80.9071 44.1255 80.9036 42.4522C80.9 40.7598 80.042 39.7035 78.5757 39.2245C76.3188 38.4873 74.6584 40.2749 74.8064 43.6797ZM65.024 38.0577C64.1051 39.6116 64.001 41.3745 65.3809 42.3875C66.3197 43.0766 68.0871 43.3442 69.0547 42.8439C69.8939 42.41 70.592 40.6073 70.5394 39.4522C70.4155 36.7337 67.6962 35.9716 65.024 38.0577ZM61.7429 49.9202C63.7939 48.0721 62.6744 44.7117 60.4625 44.2009C59.0078 43.8649 57.4958 44.1562 57.0247 45.7293C56.6827 46.8711 56.7752 48.5571 57.3556 49.5336C58.3105 51.1402 59.9466 51.2128 61.7429 49.9202Z" fill="#FA0BB2"/>
<path d="M78.0901 29.9535C69.0095 32.4134 60.08 34.8452 50.5643 37.4365C50.4707 34.832 50.2329 32.5591 50.3394 30.3047C50.5906 24.983 52.3422 20.293 56.2882 16.8584C59.2065 14.3184 62.6194 13.5257 66.3141 14.5819C73.0672 16.5125 76.5739 21.9148 79.0446 28.3494C79.1788 28.6988 78.5271 29.3921 78.0901 29.9535Z" fill="black"/>
<path d="M123.158 25.9987C122.211 30.0963 121.308 34.023 120.361 38.1428C116.165 37.0859 112.07 36.0545 107.812 34.9822C109.254 28.5967 110.666 22.3291 112.084 16.0629C112.976 12.125 113.886 8.19175 114.768 4.25152C115.092 2.80299 115.861 1.85852 117.326 2.18292C120.808 2.9539 124.265 3.85682 127.937 4.75695C126.33 11.9128 124.766 18.8703 123.158 25.9987ZM114.37 31.8399C118.264 19.989 120.586 7.85832 119.153 5.63176C118.719 6.5454 118.219 7.28934 117.996 8.11607C116.746 12.7506 115.475 17.3828 114.388 22.0611C113.702 25.0127 113.286 28.0374 112.842 31.0446C112.765 31.5672 113.152 32.1658 113.325 32.7292C113.637 32.5311 113.95 32.3329 114.37 31.8399Z" fill="#FC8DDC"/>
<path d="M105.656 102.161C107.391 100.801 109.126 99.4404 111.034 97.8729C112.038 97.3846 112.868 97.1038 113.857 96.839C114.949 96.4706 116.762 96.9691 115.846 94.5883C115.859 94.2471 115.879 94.0526 116.03 93.8174C116.971 93.3634 117.782 92.9501 118.611 92.7107C118.66 95.0175 119.59 95.3941 121.405 94.8294C124.838 93.7609 128.319 92.8601 131.802 91.9887C133.125 91.6579 133.738 91.0879 133.654 89.4967C133.428 85.22 133.393 80.9318 133.168 76.6551C133.14 76.1103 132.436 75.6065 132.069 74.927C133.292 72.3876 134.492 70.0049 135.705 67.8096C135.831 70.9455 135.834 70.959 138.465 70.2503C141.186 69.5176 143.899 68.7551 146.615 68.0056C146.631 69.0567 146.647 70.1078 146.485 71.337C143.494 72.238 140.694 73.035 137.861 73.6527C136.431 73.9644 136.005 74.7331 136.073 76.2132C136.258 80.2674 136.424 84.3258 136.456 88.3838C136.471 90.3149 137.192 90.5498 138.714 90.1062C141.313 89.3492 143.948 88.7359 146.567 88.0622C146.588 88.9979 146.608 89.9336 146.46 91.0833C143.751 91.9835 141.226 92.762 138.661 93.3222C137.055 93.6729 136.431 94.4088 136.54 96.243C136.794 100.499 136.858 104.768 136.999 109.032C136.117 109.329 135.236 109.626 134.215 109.729C133.946 104.698 133.817 99.8594 133.68 94.7189C129.054 95.9643 124.742 97.0873 120.463 98.3397C120.064 98.4566 119.567 99.4353 119.63 99.9396C120.186 104.395 120.857 108.833 121.495 113.276C120.63 113.489 119.765 113.701 118.726 113.722C117.891 108.901 117.23 104.27 116.54 99.4383C112.704 100.398 109.18 101.279 105.656 102.161Z" fill="#33178E"/>
<path d="M126.214 39.5556C124.692 39.1958 123.17 38.836 121.469 38.434C124.039 27.2392 126.57 16.2175 129.158 4.94446C132.892 5.89529 136.511 6.81667 140.156 7.98844C138.701 11.2852 137.066 14.2629 135.767 17.3916C132.68 24.826 130.695 32.7711 126.214 39.5556Z" fill="#FD8CDC"/>
<path d="M121.338 113.722C120.54 109.354 119.871 104.953 119.318 100.535C119.255 100.034 119.75 99.0639 120.147 98.948C124.409 97.706 128.702 96.5922 133.308 95.3572C133.445 100.455 133.574 105.253 133.687 110.249C129.616 111.526 125.559 112.605 121.338 113.722Z" fill="#6C49CD"/>
<path d="M105.474 102.391C108.941 101.423 112.293 100.548 115.942 99.5952C116.598 104.393 117.227 108.99 117.875 113.756C113.902 115.096 109.909 116.268 105.77 117.254C104.675 112.741 103.728 108.414 102.781 104.086C103.641 103.552 104.5 103.017 105.474 102.391Z" fill="#6C49CD"/>
<path d="M49.4836 77.6984C51.9873 82.7009 54.3278 87.7022 56.7812 92.9448C53.1636 93.9891 49.801 94.9598 46.3318 96.0634C46.0036 96.0438 45.6845 95.9463 45.5747 95.7303C43.0757 90.8174 40.5997 85.8916 38.0938 80.8187C41.8189 79.6785 45.5697 78.6878 49.4836 77.6984Z" fill="#905DFB"/>
<path d="M93.8899 137.738C92.8944 134.646 93.4714 133.347 96.3255 132.552C107.886 129.332 119.449 126.123 131.027 122.98C131.858 122.754 132.813 123.083 133.688 123.379C133.155 124.758 132.645 125.912 132.07 127.149C131.907 127.335 131.802 127.425 131.53 127.509C126.367 128.907 121.367 130.321 116.355 131.685C108.871 133.721 101.379 135.722 93.8899 137.738Z" fill="#FA8903"/>
<path d="M94.1562 137.351C101.61 135.178 109.057 133.187 116.496 131.161C121.478 129.804 126.448 128.397 131.531 127.143C130.347 129.087 129.056 130.901 127.643 132.777C126.945 133.099 126.368 133.359 125.668 133.629C125.328 133.762 125.112 133.886 124.828 134.019C124.761 134.027 124.627 134.054 124.459 134.046C114.62 136.684 104.948 139.33 95.2765 141.976C94.8998 140.49 94.523 139.004 94.1562 137.351Z" fill="#FFCD00"/>
<path d="M146.606 87.9408C143.903 88.8259 141.209 89.4492 138.552 90.2187C136.995 90.6696 136.258 90.4308 136.242 88.4681C136.21 84.3435 136.041 80.2186 135.851 76.0979C135.781 74.5936 136.217 73.8123 137.679 73.4954C140.576 72.8677 143.439 72.0576 146.485 71.3413C146.646 76.82 146.639 82.2802 146.606 87.9408Z" fill="#6C49CD"/>
<path d="M47.4375 99.1904C50.4824 98.0349 53.5699 96.9873 56.6879 96.0763C57.0414 95.973 57.7792 96.5144 57.9793 96.9654C59.9688 101.45 61.8827 105.979 63.9687 110.847C60.7801 111.812 57.7568 112.728 54.5989 113.722C52.1392 108.98 49.8141 104.159 47.4375 99.1904Z" fill="#905DFB"/>
<path d="M126.5 40.2437C130.678 33.178 132.586 24.9928 135.555 17.3338C136.804 14.1105 138.376 11.0428 139.873 7.7699C140.269 8.55377 141.014 9.57882 140.852 10.3744C138.858 20.1829 136.716 29.954 134.65 39.7448C134.205 41.8541 132.794 41.794 131.437 41.5661C129.816 41.2939 128.232 40.7476 126.5 40.2437Z" fill="#FA4CC6"/>
<path d="M99.8055 106.659C99.8838 106.663 99.9621 106.668 100.172 106.854C101.13 110.822 101.956 114.608 102.781 118.395C98.4269 119.489 94.0726 120.582 89.566 121.492C88.5718 118.446 87.7298 115.585 86.9688 112.588C89.6483 111.223 92.2366 109.97 94.8492 108.772C96.4824 108.024 98.1522 107.36 99.8055 106.659Z" fill="#6C49CD"/>
<path d="M137.161 134.206C137.496 135.57 137.83 136.933 138 138.482C131.204 140.479 124.581 142.325 117.939 144.093C113.127 145.373 108.291 146.549 103.5 147.627C105.014 145.695 106.493 143.907 108.083 142.057C108.635 141.753 109.078 141.511 109.688 141.268C111.939 140.748 114.026 140.248 116.105 139.708C123.125 137.882 130.143 136.041 137.161 134.206Z" fill="#D1AC0B"/>
<path d="M146.622 67.8117C143.92 68.7635 141.24 69.5267 138.553 70.2601C135.954 70.9694 135.951 70.9559 135.844 67.6507C135.869 67.075 135.892 66.8534 136.001 66.5279C137.452 61.8541 138.817 57.2842 140.182 52.7143C140.182 52.7143 140.241 52.5549 140.433 52.4672C142.621 51.872 144.616 51.3646 146.611 50.8572C146.621 56.4415 146.63 62.0257 146.622 67.8117Z" fill="#6C49CD"/>
<path d="M137.181 108.778C136.891 104.708 136.828 100.63 136.575 96.5639C136.466 94.8116 137.087 94.1085 138.687 93.7735C141.243 93.2383 143.757 92.4945 146.44 91.8254C146.602 95.349 146.654 98.8865 146.61 102.423C146.579 104.962 145.377 106.562 142.986 107.285C141.121 107.849 139.218 108.282 137.181 108.778Z" fill="#6C49CD"/>
<path d="M103.89 148.093C108.573 146.895 113.265 145.742 117.934 144.487C124.38 142.754 130.807 140.944 137.395 139.151C138.494 142.133 138.234 142.65 135.459 143.409C124.127 146.508 112.797 149.613 101.344 152.571C101.866 151.143 102.512 149.86 103.251 148.52C103.527 148.34 103.709 148.217 103.89 148.093Z" fill="#CB730E"/>
<path d="M83.7866 113.722C83.7866 113.722 83.9648 113.755 84.0809 113.944C85.121 117.165 86.0449 120.198 86.9687 123.231C83.0881 124.345 79.2074 125.459 75.1189 126.436C73.8662 123.682 72.8213 121.064 71.875 118.312C75.9112 116.692 79.8489 115.207 83.7866 113.722Z" fill="#6C49CD"/>
<path d="M111.875 46.7073C109.34 47.3929 106.96 48.018 104.219 48.738C105.132 44.6232 105.981 40.7991 106.885 36.7301C111.034 37.7783 115.079 38.8002 119.313 39.8697C118.994 41.389 118.779 42.8419 118.351 44.2194C118.208 44.678 117.564 45.1091 117.069 45.2671C115.409 45.7965 113.713 46.1969 111.875 46.7073Z" fill="#FA8CDB"/>
<path d="M35.1539 61.6396C33.5883 58.4706 32.105 55.4325 30.5876 52.4133C28.2215 47.7054 24.2068 45.6262 19.1972 46.4574C17.9572 46.6631 16.6939 46.7346 15.4661 46.9966C13.695 47.3746 12.7982 46.7822 12.9551 44.7875C19.0903 41.3495 28.2798 43.2716 31.8248 49.2337C34.9373 54.4682 37.4453 60.1019 40.25 65.6178C38.6793 66.681 37.5414 66.8323 36.7527 64.9473C36.2997 63.8645 35.7353 62.8335 35.1539 61.6396Z" fill="#4017A2"/>
<path d="M139.991 162.46C135.981 160.271 134.173 155.505 135.619 150.932C137.03 146.468 141.14 143.901 145.502 145.093C146.034 147.15 146.393 148.98 146.625 150.734C145.295 150.277 144.063 149.499 142.895 149.603C140.779 149.792 139.326 152.114 139.502 154.364C139.713 157.062 141.49 158.584 144.411 158.734C142.909 160.063 141.45 161.262 139.991 162.46Z" fill="#00D1FB"/>
<path d="M120.416 152.633C115.774 153.898 111.235 154.917 106.83 156.398C104.232 157.271 102.024 156.68 99.1875 155.334C112.242 151.792 124.857 148.368 138 144.802C136.313 147.126 135.117 148.884 132.675 149.397C128.605 150.253 124.605 151.499 120.416 152.633Z" fill="#4017A2"/>
<path d="M90.6818 157.116C90.9732 157.338 91.1272 157.551 91.2813 157.764C90.3532 158.431 89.436 159.608 88.4942 159.634C87.3025 159.666 85.9189 159.024 84.927 158.2C83.3465 156.887 81.6286 155.446 80.6564 153.599C76.6807 146.047 72.9647 138.321 69.1598 130.654C69.0709 130.475 69.0623 130.245 69 129.966C70.4586 128.841 71.4348 129 72.3502 130.907C75.5081 137.482 78.8118 143.969 82.0215 150.514C83.8958 154.336 86.5991 156.723 90.6818 157.116Z" fill="#4017A2"/>
<path d="M140.156 162.897C141.515 161.54 142.989 160.294 144.638 158.841C148.091 157.045 148.775 154.397 146.871 150.673C146.508 148.77 146.146 146.868 145.753 144.802C150.017 145.679 152.955 150.463 152.278 155.313C151.531 160.667 147.376 164.466 142.929 163.797C142.028 163.661 141.156 163.277 140.156 162.897Z" fill="#10A2E3"/>
<path d="M81.9375 49.4426C82.3254 45.6474 82.7133 41.8523 83.2344 37.9304C84.9323 39.0144 86.3894 38.5962 87.7976 37.4365C88.1983 38.6996 88.5989 39.9626 88.8253 41.4067C88.3909 41.5751 88.1306 41.565 87.8706 41.5492C86.0192 41.4367 84.8132 42.4379 84.5134 44.4251C84.2586 46.1148 85.0327 47.4112 86.4905 48.009C88.1624 48.6947 89.3769 47.9509 90.3339 45.7872C90.937 47.8297 91.5401 49.8721 92 51.9971C89.3326 50.5257 87.7958 51.0726 86.8428 53.8641C85.2573 54.3261 83.6719 54.788 81.9956 55.0953C83.286 53.1181 83.3384 51.2858 81.9375 49.4426Z" fill="#BB0D95"/>
<path d="M109.514 141.532C109.069 141.775 108.624 142.019 107.901 142.329C103.651 143.433 99.6794 144.47 95.708 145.508C95.4291 144.442 95.1502 143.377 94.875 142.137C104.674 139.334 114.469 136.705 124.344 134.206C122.945 134.985 121.445 135.582 119.993 136.293C116.488 138.01 113.006 139.782 109.514 141.532Z" fill="#FD8A02"/>
<path d="M109.969 141.976C113.171 140.177 116.526 138.355 119.903 136.588C121.302 135.856 122.747 135.243 124.259 134.45C124.346 134.324 124.476 134.297 124.665 134.279C125.062 134.134 125.272 134.007 125.482 133.88C126.045 133.614 126.608 133.348 127.45 133.017C130.367 132.193 133.006 131.434 135.645 130.675C135.944 131.883 136.244 133.092 136.563 134.478C129.782 136.558 122.985 138.466 116.184 140.359C114.171 140.919 112.149 141.438 109.969 141.976Z" fill="#CF750D"/>
<path d="M67.9663 118.667C67.9663 118.667 68.1408 118.692 68.2372 118.861C69.514 121.649 70.6945 124.269 71.875 126.889C69.4369 127.557 67.0768 128.366 64.4457 127.412C61.5913 126.378 59.2077 124.985 58.2188 121.781C59.1352 121.349 59.9569 121.148 60.7645 120.901C63.1681 120.166 65.5661 119.413 67.9663 118.667Z" fill="#6C49CD"/>
<path d="M68.2813 118.286C66.0213 119.2 63.7054 119.974 61.3841 120.73C60.6041 120.984 59.8106 121.191 58.8805 121.492C57.8419 119.785 56.9461 118.006 56.0625 116.057C58.5867 115.269 61.1439 114.804 63.5963 113.985C65.5007 113.349 66.5544 113.836 67.1734 115.796C67.4308 116.61 67.8678 117.361 68.2813 118.286Z" fill="#905DFB"/>
<path d="M146.568 50.5985C144.47 51.2765 142.396 51.7686 140.156 52.2698C140.634 48.5629 141.276 44.8468 141.948 40.9683C144.97 41.0494 146.534 42.6338 146.609 45.5763C146.651 47.1872 146.601 48.8004 146.568 50.5985Z" fill="#01A3CE"/>
<path d="M2.85865 50.1508C1.05727 47.9613 0.962589 45.432 2.60776 43.4485C4.12767 41.616 6.4357 41.1046 8.625 42.3806C8.44466 46.9888 7.06763 48.7458 2.85865 50.1508Z" fill="#00D1FB"/>
<path d="M96.3125 145.776C100.095 144.637 103.874 143.661 107.813 142.682C106.557 144.373 105.142 146.067 103.694 147.898C103.482 148.154 103.303 148.274 102.882 148.465C100.83 148.94 99.02 149.343 97.2102 149.746C96.9097 148.477 96.6091 147.208 96.3125 145.776Z" fill="#FFCD00"/>
<path d="M2.875 50.5987C6.84483 48.9879 8.16509 47.1454 8.47211 42.381C10.9852 43.1458 12.1476 46.0555 11.1356 48.8706C10.1514 51.6088 7.18965 53.0052 4.63496 51.8779C4.02755 51.6099 3.5032 51.1226 2.875 50.5987Z" fill="#11A4E6"/>
<path d="M103.126 118.667C102.202 114.564 101.421 110.457 100.625 106.173C101.28 105.294 101.949 104.593 102.73 103.833C103.782 108.295 104.723 112.815 105.656 117.52C104.856 118.024 104.063 118.343 103.126 118.667Z" fill="#33178E"/>
<path d="M62.1725 60.0396C59.2254 59.7193 57.7276 58.088 58.3631 56.0165C58.9226 54.1925 60.9356 53.212 62.6954 53.9065C64.4542 54.6006 65.2035 56.6182 64.3077 58.3295C64.0878 58.7496 63.7551 59.1136 63.3561 59.6583C62.9205 59.8879 62.6032 59.9626 62.1725 60.0396Z" fill="#FF87DC"/>
<path d="M46.7188 45.1606C47.1204 42.6053 48.4857 41.333 50.2042 41.7538C51.8698 42.1617 52.8408 44.0805 52.3343 45.8916C51.8202 47.73 49.289 48.9997 47.2724 47.0644C47.1411 47.0348 47.1676 47.0239 47.1783 46.9223C47.0845 46.623 46.9801 46.4253 46.8756 46.2276C46.8245 45.9238 46.7735 45.6199 46.7188 45.1606Z" fill="#FF87DC"/>
<path d="M89.8438 45.5463C88.9358 47.745 87.7384 48.4493 86.0902 47.8C84.653 47.2339 83.8898 46.0062 84.1411 44.4061C84.4366 42.5242 85.6255 41.5761 87.4508 41.6827C87.7071 41.6976 87.9637 41.7072 88.3842 41.7091C88.5483 41.699 88.5374 41.69 88.5481 41.7747C88.608 41.9764 88.6872 42.0609 88.7964 42.1128C89.1337 43.2074 89.4709 44.302 89.8438 45.5463Z" fill="#BE69B4"/>
<path d="M86.5709 122.905C85.4063 119.927 84.4054 116.944 83.375 113.794C84.1372 113.179 84.929 112.73 85.9704 112.31C86.291 112.368 86.3618 112.399 86.4327 112.43C87.3329 115.498 88.2331 118.565 89.125 121.803C88.3227 122.283 87.5287 122.592 86.5709 122.905Z" fill="#33178E"/>
<path d="M136.563 131.194C133.743 132.075 130.926 132.787 127.938 133.5C129.112 131.763 130.457 130.025 131.853 128.156C132.023 127.952 132.132 127.866 132.465 127.68C133.664 127.443 134.63 127.293 135.596 127.143C135.919 128.437 136.242 129.731 136.563 131.194Z" fill="#D1AC0B"/>
<path d="M87.6875 36.9763C86.2833 38.2278 84.8296 38.626 83.1423 37.4029C82.8356 36.0242 82.6551 34.7156 82.6563 33.1782C83.8213 32.5616 84.8047 32.1737 85.7881 31.7858C86.421 33.467 87.054 35.1482 87.6875 36.9763Z" fill="#BE69B4"/>
<path d="M72.2044 127.143C71.0538 124.559 70.0313 121.952 69 119.195C69.7321 118.909 70.4731 118.772 71.4387 118.667C71.6633 118.697 71.833 118.771 71.833 118.771C72.792 121.191 73.751 123.611 74.75 126.18C73.9709 126.592 73.1517 126.856 72.2044 127.143Z" fill="#33178E"/>
<path d="M148.443 142.25C149.77 141.881 150.932 141.41 152.123 141.274C152.656 141.213 153.248 141.823 153.812 142.128C153.451 142.783 153.224 143.718 152.705 144.044C150.195 145.617 147.802 144.436 145.188 143.247C146.354 142.885 147.322 142.585 148.443 142.25Z" fill="#4017A2"/>
<path d="M77.5867 31.7858C77.8159 34.0865 77.0108 35.5773 75.323 35.9363C73.6772 36.2863 72.461 35.6013 71.875 33.6215C73.723 32.8982 75.5869 32.3385 77.5867 31.7858Z" fill="#F983D8"/>
<path d="M60.0429 36.7301C60.912 38.7331 59.9702 39.9355 58.4349 40.6916C56.9244 41.4356 55.6186 40.6711 54.625 38.4898C56.3608 37.8032 58.12 37.2812 60.0429 36.7301Z" fill="#FF87DC"/>
<path d="M97.0312 150.351C98.8998 149.826 100.764 149.441 102.781 149.04C102.28 150.207 101.624 151.391 100.94 152.707C98.1412 153.732 97.9498 153.616 97.0312 150.351Z" fill="#FA8903"/>
<path d="M122.651 43.7105C121.886 43.941 121.121 44.1715 120.031 44.5001C120.343 42.9878 120.597 41.7565 120.905 40.262C122.07 40.5472 123.185 40.8203 124.344 41.3113C123.929 42.188 123.471 42.8467 123.013 43.5054C123.013 43.5054 123.026 43.4579 122.967 43.4776C122.8 43.5349 122.714 43.6059 122.651 43.7105Z" fill="#F983D8"/>
<path d="M81.4722 49.4445C83.0855 51.1101 83.0283 52.7686 81.4344 54.5481C81.3475 54.6781 81.3473 54.6582 81.2065 54.6573C80.8004 54.7691 80.5351 54.8818 80.2699 54.9945C80.1058 55.0335 79.9417 55.0725 79.6515 55.0953C79.4035 55.0605 79.2816 55.0419 79.0625 54.8483C79.7162 52.9341 80.467 51.195 81.2178 49.4558C81.2178 49.4558 81.3873 49.4471 81.4722 49.4445Z" fill="#BE69B4"/>
<path d="M86.9688 53.6826C87.759 50.6662 89.3153 50.0744 92 51.8622C90.4668 52.5385 88.8052 53.1084 86.9688 53.6826Z" fill="#BE69B4"/>
<path d="M69 58.627C70.0652 55.5451 71.7014 54.9705 74.0313 56.972C72.4616 57.6231 70.8105 58.1284 69 58.627Z" fill="#F983D8"/>
<path d="M51.0312 63.5714C52.2234 61.2538 53.9863 60.842 56.7813 62.3129C54.987 62.8051 53.1019 63.189 51.0312 63.5714Z" fill="#F983D8"/>
<path d="M135.125 126.382C134.218 126.756 133.311 126.944 132.25 127.143C132.59 125.774 133.086 124.395 133.698 122.905C134.251 123.928 134.688 125.062 135.125 126.382Z" fill="#CB730E"/>
<path d="M123.625 43.7936C123.93 43.1241 124.391 42.4599 124.916 41.6746C125.947 41.7592 126.914 41.9648 127.881 42.1704C127.9 42.3242 127.919 42.4779 127.937 42.6317C126.552 43.0207 125.167 43.4098 123.625 43.7936Z" fill="#FA4CC6"/>
<path d="M85.5312 31.6005C84.7782 32.2029 83.9713 32.6517 83.0683 33.1984C82.8659 32.5853 82.7596 31.8742 82.6562 30.9745C83.7103 29.9225 84.6309 30.3258 85.5312 31.6005Z" fill="#BB0D95"/>
<path d="M173.784 140.564C171.337 139.356 169.583 137.32 168.511 134.731C166.199 129.146 164.798 123.301 164.603 117.126C164.447 112.184 166.23 108.485 170.102 105.93C170.835 105.446 171.511 104.857 172.267 104.275C171.005 101.448 168.404 101.168 166.278 100.094C168.051 97.663 172.195 96.4846 175.154 98.5073C178.35 100.692 181.071 100.289 184.36 99.1958C188.217 97.9141 192.232 97.7684 195.7 101.125C195.446 102.757 195.104 104.092 194.949 105.453C194.555 108.898 195.92 111.881 197.19 114.875C197.782 116.27 198.485 117.619 198.967 119.057C201.167 125.611 199.043 130.772 192.939 132.951C189.189 134.291 185.262 135.057 181.403 136.026C178.462 136.764 175.736 137.884 173.784 140.564ZM183.18 131.413C184.616 132.998 185.324 131.132 186.086 130.621C186.15 129.28 186.293 128.013 186.717 126.869C187.499 124.757 186.878 122.479 184.811 121.273C183.831 120.702 182.633 120.585 181.556 120.192C180.74 119.894 179.895 119.588 179.195 119.072C178.947 118.889 178.977 118.04 179.111 117.574C179.162 117.399 180.095 117.239 180.24 117.426C181.811 119.445 182.783 117.389 184.695 116.785C183.423 115.496 182.591 114.419 181.558 113.672C180.536 112.934 179.31 112.53 178.173 111.979C178.217 111.746 178.26 111.513 178.303 111.28C177.415 111.715 176.526 112.151 175.638 112.586C175.83 112.714 176.023 112.841 176.215 112.969C175.93 114.129 175.792 115.365 175.325 116.431C174.664 117.94 174.611 119.412 175.696 120.482C176.7 121.471 178.024 122.109 179.268 122.765C180.287 123.302 181.446 123.533 182.437 124.114C182.848 124.354 183.039 125.133 183.2 125.71C183.239 125.849 182.695 126.397 182.534 126.344C182.08 126.196 181.655 125.873 181.278 125.54C180.987 125.283 180.787 124.906 180.325 124.287C179.413 125.036 178.569 125.728 177.726 126.42C178.613 127.621 179.453 128.872 180.42 129.991C180.667 130.277 181.349 130.061 181.775 130.237C182.232 130.425 182.622 130.804 183.18 131.413ZM192.322 116.639C191.36 113.828 190.419 111.01 189.429 108.212C188.984 106.956 187.946 106.448 187.018 107.186C186.483 107.612 186.358 108.868 186.338 109.759C186.324 110.339 186.829 110.934 187.104 111.52C188.589 114.689 190.074 117.857 191.57 121.047C190.664 121.608 189.981 122.031 188.94 122.676C191.157 124.452 193.128 126.031 195.546 127.968C195.859 124.611 196.098 122.042 196.369 119.131C195.204 119.531 194.407 119.804 193.52 120.108C193.143 118.995 192.796 117.973 192.322 116.639ZM167.811 121.684C168.244 123.353 168.459 125.153 170.164 126.589C170.311 125.596 170.487 125.037 170.46 124.491C170.209 119.389 171.236 114.639 173.588 110.207C173.881 109.654 173.834 108.887 173.944 108.22C173.287 108.366 172.482 108.297 171.997 108.692C168.087 111.88 166.99 116.241 167.811 121.684Z" fill="#01D3FC"/>
<path d="M173.938 140.42C175.8 137.678 178.547 136.579 181.511 135.854C185.4 134.903 189.357 134.151 193.137 132.836C199.288 130.696 201.428 125.631 199.212 119.197C198.725 117.786 198.017 116.462 197.421 115.093C196.14 112.154 194.765 109.226 195.162 105.844C195.318 104.508 195.663 103.198 195.999 101.714C197.192 102.88 198.501 104.078 199.392 105.557C202.364 110.493 204.628 115.789 205.412 121.635C206.107 126.815 204.378 131.212 200.601 134.452C194.19 139.953 186.782 142.535 178.505 141.875C176.994 141.755 175.529 140.996 173.938 140.42Z" fill="#11A4E6"/>
<path d="M166.75 78.1823C166.922 77.9588 167.195 77.8286 167.469 77.6984C167.436 77.9163 167.404 78.1343 167.216 78.4047C166.991 78.3966 166.922 78.3361 166.75 78.1823Z" fill="black"/>
<path d="M114.281 59.8671C120.233 58.2107 126.184 56.5544 132.313 55.0952C132.638 60.1664 132.729 65.0436 132.962 69.9128C133.037 71.4865 132.489 72.1041 131.158 72.433C127.961 73.2238 124.791 74.148 121.606 74.9983C120.001 75.4267 118.387 75.8113 116.498 76.2857C115.733 70.6212 115.007 65.2441 114.281 59.8671Z" fill="#905EFC"/>
<path d="M69.6502 72.0476C71.3572 76.5921 72.869 81.1587 74.4814 85.6855C75.0049 87.1553 74.8463 87.8961 73.2588 88.2865C68.9934 89.3356 64.7446 90.4691 60.5203 91.6883C59.2536 92.0539 58.6759 91.697 58.1318 90.5102C56.0758 86.0253 53.9332 81.5845 51.75 76.9801C57.616 75.2402 63.555 73.6472 69.6502 72.0476Z" fill="#905EFC"/>
<path d="M128.088 51.4985C112.109 56.567 96.0868 60.7213 79.824 63.805C78.8706 63.9858 77.4322 65.0262 76.9106 63.2836C76.8156 62.9662 78.2864 61.8301 79.1741 61.5258C97.5349 55.2319 116.191 50.1529 135.214 46.6363C135.85 46.5188 136.59 47.031 137.281 47.2497C136.782 47.8004 136.376 48.6175 135.766 48.8549C133.294 49.8186 130.759 50.6043 128.088 51.4985Z" fill="#B9F3FF"/>
<path d="M77.8707 86.1746C76.1295 81.257 74.3883 76.3393 72.5938 71.258C78.48 69.4747 84.4197 67.8551 90.5353 66.3969C91.4206 69.8251 92.1298 73.0921 92.7187 76.4324C91.7407 76.8792 90.8598 77.2019 90.0297 77.6357C87.7414 78.8317 87.3732 80.2029 88.6404 82.612C88.8339 82.9798 89.0378 83.3414 89.0737 83.7423C87.6612 84.1813 86.4118 84.5839 84.9989 84.9664C82.5139 85.3556 80.1923 85.7651 77.8707 86.1746ZM77.4778 78.7234C77.4524 79.1532 77.3759 79.5877 77.4104 80.0118C77.5855 82.1662 79.0257 83.543 81.0338 83.5116C82.8792 83.4828 84.4929 81.9665 84.633 80.1294C84.7723 78.3035 83.2142 76.3672 81.3326 76.1482C79.6199 75.9489 78.3248 76.6768 77.4778 78.7234Z" fill="#905EFB"/>
<path d="M94.1562 65.7796C99.6474 64.2775 105.139 62.7754 110.807 61.4524C111.661 66.6878 112.336 71.7441 112.844 76.8309C110.672 77.6225 108.669 78.3835 106.516 79.1596C105.202 79.4491 104.037 79.7234 102.861 79.8175C102.799 75.9066 101.914 75.0214 98.5623 75.3785C97.7996 75.4597 97.0419 75.5956 96.2789 75.5357C95.5694 72.1698 94.8628 68.9747 94.1562 65.7796ZM111.12 70.94C110.983 70.7022 110.88 70.4305 110.706 70.2322C109.433 68.7828 107.819 68.5667 106.341 69.6272C104.948 70.6273 104.311 72.6576 104.885 74.2683C105.427 75.7886 107.105 76.6583 108.747 76.2701C110.471 75.8625 111.496 74.4498 111.462 72.4768C111.455 72.0625 111.335 71.6506 111.12 70.94Z" fill="#905EFB"/>
<path d="M112.882 76.7718C112.159 71.7094 111.436 66.647 110.688 61.3985C111.541 60.9579 112.42 60.7032 113.451 60.4568C114.354 65.6701 115.104 70.8752 115.894 76.3585C117.845 75.8993 119.513 75.527 121.171 75.1123C124.461 74.2892 127.736 73.3946 131.039 72.6291C132.413 72.3106 132.98 71.7128 132.902 70.1894C132.662 65.4759 132.567 60.7548 132.4 55.8254C133.268 55.3747 134.151 55.1353 135.203 55.0952C135.53 59.2392 135.687 63.1838 135.844 67.1285C135.82 67.3434 135.797 67.5582 135.756 67.9345C134.508 70.4083 133.278 72.7207 131.934 75.2613C131.6 75.5719 131.38 75.6542 131.001 75.7571C126.47 76.9194 122.097 78.0612 117.617 79.1111C115.967 78.27 114.424 77.5209 112.882 76.7718Z" fill="#451AA9"/>
<path d="M135.731 66.3968C135.47 62.5454 135.303 58.5931 135.125 54.4473C136.736 53.8276 138.36 53.4014 140.156 52.9762C138.828 57.4168 137.328 61.8563 135.731 66.3968Z" fill="#905EFB"/>
<path d="M93.6768 65.6904C94.7373 68.8452 95.6156 72.0292 96.3125 75.4395C95.1348 75.8725 94.1383 76.0791 93.1419 76.2857C92.2929 73.0986 91.4439 69.9114 90.5625 66.5599C91.5182 66.1702 92.5063 65.9449 93.6768 65.6904Z" fill="#451AA9"/>
<path d="M77.1767 93.5019C78.4889 97.5421 79.801 101.582 81.2188 105.948C77.9408 106.84 74.8071 107.724 71.6584 108.543C66.2442 109.95 67.5703 110.426 65.0807 105.24C63.5007 101.949 62.0376 98.5942 60.375 94.9451C65.4247 93.5942 70.2859 92.2936 75.3525 91.119C76.0974 91.9973 76.6371 92.7496 77.1767 93.5019Z" fill="#905DFB"/>
<path d="M95.3163 85.6169C96.3155 89.9869 97.2789 94.3675 98.334 98.7211C98.6901 100.19 98.374 100.864 96.9822 101.218C93.1258 102.2 89.2865 103.271 85.4672 104.415C84.2562 104.777 83.7856 104.349 83.4096 103.146C82.4492 100.073 81.3894 97.0377 80.5 93.8059C81.4251 93.489 82.2426 93.4426 83.0102 93.2027C86.6311 92.0714 88.1342 90.2439 88.3925 86.8052C89.8498 86.2919 91.182 85.8908 92.6881 85.4683C93.6801 85.5035 94.4982 85.5602 95.3163 85.6169Z" fill="#915DFC"/>
<path d="M114.166 97.2531C113.309 97.5465 112.453 97.84 111.464 98.2063C109.231 98.7962 107.123 99.2792 105.031 99.8379C101.956 100.66 101.969 100.68 101.213 97.4386C100.287 93.4668 99.3451 89.4993 98.4688 85.2629C99.2657 84.5261 100.004 84.0563 100.836 83.5158C101.045 83.3398 101.16 83.2345 101.266 83.1484C101.256 83.1675 101.221 83.147 101.396 83.1832C102.831 82.99 104.092 82.7607 105.468 82.6428C106.818 85.3491 108.96 85.9815 111.38 85.7683C112.611 85.6599 113.817 85.2172 115.064 85.1177C115.542 88.2584 115.99 91.2071 116.437 94.1557C116.417 94.3589 116.396 94.5621 116.261 94.9951C115.487 95.9009 114.826 96.577 114.166 97.2531Z" fill="#915DFC"/>
<path d="M100.748 83.8414C100.042 84.3038 99.3359 84.7662 98.5336 85.3097C97.6202 85.6383 96.8028 85.8858 95.8326 86.1746C94.8681 86.1586 94.0564 86.1013 92.9863 85.9451C91.7228 85.1333 90.7179 84.4205 89.7129 83.7076C89.5154 83.329 89.3131 82.9534 89.1212 82.5713C87.8641 80.0692 88.2293 78.6451 90.4994 77.4029C91.323 76.9523 92.1968 76.6171 93.1671 76.1531C94.1124 75.857 94.9383 75.637 95.9175 75.3572C96.8537 75.1799 97.6343 75.0357 98.42 74.9495C101.873 74.5707 102.784 75.5099 102.781 79.7944C102.22 81.2168 101.713 82.3128 101.207 83.4087C101.207 83.4087 101.241 83.4289 101.132 83.4282C100.931 83.5655 100.84 83.7035 100.748 83.8414Z" fill="#FDFCFE"/>
<path d="M88.4062 87.7212C88.272 90.7934 86.7563 92.4811 83.105 93.5259C82.331 93.7474 81.5066 93.7902 80.5353 93.9445C79.3905 93.7685 78.4159 93.5634 77.2824 93.3113C76.5863 92.557 76.0492 91.8497 75.4688 91.0048C76.2326 89.5065 77.0398 88.1457 77.9185 86.6781C80.3309 86.1826 82.6717 85.7938 85.3203 85.4683C86.5542 86.2613 87.4802 86.9913 88.4062 87.7212Z" fill="#FD8DDE"/>
<path d="M71.8008 118.59C71.7051 118.728 71.5255 118.647 71.4377 118.6C70.6005 116.694 69.8511 114.834 69 112.722C73.3827 111.392 77.5552 110.125 81.9947 108.778C82.4745 110.438 82.9262 112.001 83.375 113.74C79.5469 115.428 75.7217 116.941 71.8008 118.59Z" fill="#905DFB"/>
<path d="M87.113 112.235C86.9668 112.351 86.9009 112.319 86.7409 112.229C86.2794 110.953 85.9084 109.737 85.5503 108.516C85.5108 108.381 85.545 108.218 85.545 107.772C86.0561 107.57 86.6411 107.285 87.2501 107.107C90.8042 106.067 94.359 105.028 97.9251 104.042C98.8923 103.775 100.057 103.393 99.8902 105.561C98.2206 106.515 96.5622 107.241 94.94 108.06C92.3451 109.37 89.7743 110.741 87.113 112.235Z" fill="#905DFB"/>
<path d="M55.3438 53.7955C55.1752 56.4746 54.0574 57.933 52.2083 57.9206C50.446 57.9088 49.2579 56.858 48.9409 55.0201C48.6177 53.1467 49.5058 51.8002 51.1114 51.1063C52.8384 50.36 54.3394 51.3002 55.3438 53.7955Z" fill="#FF87DC"/>
<path d="M70.5466 46.6226C72.154 47.4673 72.918 48.7413 72.4645 50.6134C72.0689 52.2468 71.0273 53.0428 69.5346 52.9718C68.0948 52.9034 67.258 51.9626 66.9329 50.4211C66.4545 48.1526 67.936 46.5321 70.5466 46.6226Z" fill="#FF87DC"/>
<path d="M74.7548 43.6858C74.6517 40.6848 76.2066 39.0238 78.3201 39.7089C79.6932 40.1539 80.4966 41.1354 80.5 42.7079C80.5033 44.2628 79.7564 45.3401 78.3796 45.7614C76.6951 46.2768 75.5353 45.4487 74.7548 43.6858Z" fill="#FF87DC"/>
<path d="M64.7837 37.9628C67.4629 35.759 70.3051 36.6178 70.4346 39.6811C70.4896 40.9826 69.7599 43.0139 68.8827 43.5029C67.8714 44.0666 66.0242 43.7651 65.0429 42.9885C63.6006 41.8472 63.7095 39.8607 64.7837 37.9628Z" fill="#FF87DC"/>
<path d="M61.4009 50.0108C59.7888 51.2482 58.212 51.1724 57.2917 49.4942C56.7323 48.4741 56.6432 46.7129 56.9728 45.5202C57.4268 43.877 58.884 43.5728 60.286 43.9237C62.4177 44.4573 63.4966 47.9675 61.4009 50.0108Z" fill="#FD8CDC"/>
<path d="M81.2188 49.1522C80.6793 51.1573 80.0363 53.0599 79.3256 55.0952C77.3065 54.3306 76.4971 52.6768 77.1027 50.8243C77.7472 48.8534 79.1363 48.2389 81.2188 49.1522Z" fill="#FF87DC"/>
<path d="M114.267 32.4442C113.916 32.7955 113.616 32.9969 113.317 33.1984C113.151 32.6255 112.779 32.017 112.853 31.4858C113.279 28.4286 113.678 25.3536 114.336 22.353C115.378 17.5969 116.596 12.8879 117.795 8.17633C118.008 7.33586 118.487 6.57956 118.904 5.65076C120.278 7.9143 118.052 20.2465 114.267 32.4442Z" fill="#FFC5EE"/>
<path d="M130.524 75.9105C130.739 75.8261 130.954 75.7417 131.258 75.5793C131.738 76.021 132.445 76.5218 132.473 77.0633C132.699 81.3146 132.735 85.5773 132.961 89.8285C133.045 91.4101 132.43 91.9767 131.101 92.3056C127.602 93.1718 124.105 94.0672 120.656 95.1294C118.833 95.6907 117.898 95.3163 117.875 92.8503C117.899 92.3891 117.916 92.2737 118.009 92.0663C120.696 89.0512 123.437 86.2459 125.871 83.1655C127.633 80.9363 128.988 78.342 130.524 75.9105Z" fill="#6C49CD"/>
<path d="M117.875 91.9915C117.86 92.1062 117.846 92.2209 117.808 92.5074C117.064 93.0876 116.343 93.4959 115.506 93.9445C115.004 91.1964 114.618 88.4081 114.281 85.3299C115.115 84.4138 115.9 83.7877 116.692 83.3492C117.091 86.355 117.483 89.1733 117.875 91.9915Z" fill="#451AA9"/>
<path d="M113.562 96.7699C114.196 96.3085 115.04 95.8583 116.038 95.3572C117.388 96.8604 115.001 96.5136 113.562 96.7699Z" fill="#451AA9"/>
<path d="M147.505 150.827C149.78 154.294 149.015 156.707 145.199 158.221C141.701 158.267 139.692 156.824 139.454 154.267C139.255 152.135 140.898 149.934 143.29 149.755C144.609 149.656 146.002 150.394 147.505 150.827Z" fill="#001243"/>
<path d="M183.653 131.367C183.163 130.92 182.772 130.545 182.315 130.359C181.888 130.185 181.205 130.399 180.957 130.116C179.987 129.008 179.146 127.771 178.256 126.582C179.102 125.897 179.947 125.213 180.862 124.472C181.324 125.085 181.525 125.458 181.816 125.712C182.194 126.041 182.62 126.361 183.075 126.508C183.237 126.56 183.781 126.017 183.742 125.88C183.581 125.309 183.389 124.539 182.978 124.301C181.985 123.727 180.823 123.498 179.802 122.966C178.556 122.317 177.228 121.686 176.222 120.707C175.135 119.649 175.189 118.193 175.851 116.7C176.318 115.645 176.457 114.422 176.743 113.274C176.55 113.148 176.357 113.022 176.164 112.896C177.055 112.465 177.945 112.034 178.835 111.603C178.792 111.834 178.749 112.064 178.705 112.295C179.844 112.84 181.073 113.24 182.097 113.97C183.133 114.709 183.966 115.775 185.241 117.05C183.325 117.648 182.351 119.682 180.776 117.684C180.63 117.499 179.696 117.657 179.645 117.83C179.511 118.292 179.48 119.132 179.729 119.313C180.43 119.823 181.277 120.126 182.095 120.421C183.175 120.809 184.375 120.925 185.357 121.49C187.429 122.683 188.051 124.937 187.267 127.027C186.842 128.158 186.699 129.412 186.634 130.739C185.871 131.244 185.162 133.091 183.653 131.367Z" fill="#001545"/>
<path d="M192.942 117.014C193.354 118.156 193.702 119.148 194.08 120.227C194.97 119.932 195.769 119.667 196.938 119.28C196.666 122.102 196.426 124.594 196.113 127.849C193.687 125.971 191.709 124.439 189.486 122.717C190.53 122.092 191.215 121.682 192.124 121.138C190.623 118.045 189.133 114.973 187.644 111.9C187.368 111.331 186.862 110.754 186.875 110.192C186.896 109.328 187.021 108.11 187.558 107.697C188.489 106.981 189.53 107.473 189.976 108.692C190.97 111.405 191.914 114.138 192.942 117.014Z" fill="#001545"/>
<path d="M168.404 121.86C167.693 116.4 168.678 111.872 172.189 108.562C172.624 108.151 173.348 108.223 173.937 108.071C173.838 108.765 173.881 109.561 173.618 110.135C171.506 114.736 170.583 119.668 170.809 124.965C170.833 125.532 170.675 126.112 170.543 127.143C169.012 125.653 168.819 123.784 168.404 121.86Z" fill="#B9F3FF"/>
<path d="M77.0453 78.8524C77.9142 76.8746 79.3285 76.1099 81.1988 76.3192C83.2536 76.5493 84.9552 78.5835 84.803 80.5018C84.65 82.4318 82.8878 84.0248 80.8725 84.0551C78.6796 84.088 77.1068 82.6415 76.9155 80.3783C76.8779 79.9326 76.9615 79.4761 77.0453 78.8524Z" fill="#051143"/>
<path d="M88.6091 87.5873C87.5463 86.928 86.611 86.1596 85.5312 85.3451C86.6591 84.8965 87.9314 84.4942 89.3698 84.0555C90.5675 84.705 91.599 85.3908 92.7188 86.1926C91.4501 86.6984 90.0933 87.0884 88.6091 87.5873Z" fill="#451AA9"/>
<path d="M117.176 82.7593C116.279 83.3386 115.383 83.9179 114.4 84.5975C113.114 84.9529 111.925 85.3402 110.712 85.4351C108.327 85.6216 106.216 85.0682 104.938 82.5758C105.393 81.2939 105.91 80.2339 106.426 79.1739C108.552 78.4562 110.678 77.7385 112.982 76.9921C114.689 77.6689 116.218 78.3745 117.875 79.3237C117.727 80.6314 117.451 81.6953 117.176 82.7593Z" fill="#FD8DDE"/>
<path d="M111.121 70.7478C111.271 71.3378 111.398 71.7704 111.405 72.2054C111.441 74.2773 110.356 75.7608 108.53 76.1889C106.792 76.5965 105.016 75.6832 104.442 74.0868C103.834 72.3953 104.508 70.2632 105.984 69.213C107.549 68.0993 109.257 68.3263 110.605 69.8484C110.789 70.0565 110.898 70.3419 111.121 70.7478Z" fill="#051143"/>
<path d="M106.375 79.1111C106.04 80.4086 105.559 81.7238 105.028 83.1935C103.821 83.5969 102.663 83.8458 101.344 84.0555C101.669 82.8075 102.156 81.5988 102.706 80.241C103.923 79.7708 105.075 79.4498 106.375 79.1111Z" fill="#451AA9"/>
<path d="M117.156 83.8686C117.418 82.5136 117.688 81.3486 117.937 80.0117C122.164 78.6621 126.411 77.4845 130.812 76.2858C129.444 78.7129 128.101 81.3251 126.354 83.5697C123.94 86.6713 121.222 89.4959 118.558 92.5318C118.043 89.7691 117.604 86.9139 117.156 83.8686Z" fill="#915DFC"/>
<path d="M100.625 84.0556C100.629 83.9224 100.846 83.6535 101.343 83.3492C101.361 83.5159 101.099 83.7179 100.625 84.0556Z" fill="#451AA9"/>
</svg>
