<svg width="259" height="270" viewBox="0 0 259 270" fill="none" xmlns="http://www.w3.org/2000/svg">
<g clip-path="url(#clip0_192_371)">
<path d="M0.505859 227.005C0.86218 226.519 1.35341 226.368 1.55449 226.029C4.31488 221.379 8.2596 218.893 13.5363 218.853C18.1391 218.819 22.7423 218.845 27.6487 219.075C27.9653 223.345 27.9631 227.385 27.9958 231.424C28.0367 236.481 30.1215 238.731 34.9029 238.747C45.6016 238.781 56.3005 238.779 66.9992 238.748C71.626 238.734 73.79 236.428 73.8109 231.63C73.8243 228.581 73.8134 225.532 73.8134 222.255C75.2196 222.255 76.3004 222.255 77.3812 222.255C114.701 222.255 152.02 222.256 189.34 222.254C190.35 222.254 191.364 222.283 192.371 222.219C197.92 221.863 201.291 218.123 201.316 212.285C201.343 206.05 201.342 199.815 201.354 193.58C209.359 193.565 217.364 193.504 225.369 193.55C230.332 193.579 233.95 198.219 232.133 202.342C230.871 205.204 228.415 206.655 225.342 206.709C222.562 206.759 219.762 206.516 217.008 206.8C215.464 206.959 213.843 207.682 212.534 208.587C210.858 209.747 209.848 211.753 210.61 213.769C211.461 216.021 213.026 217.96 215.623 218.304C218.733 218.715 221.898 218.798 224.965 219.419C230.51 220.54 234.888 226.333 234.72 231.928C234.561 237.199 229.593 242.784 224.174 243.604C221.88 243.95 219.542 244.139 217.224 244.14C150.652 244.167 84.0802 244.126 17.5086 244.215C10.5056 244.225 4.72226 242.287 0.646029 236.089C0.505859 233.25 0.505859 230.251 0.505859 227.005Z" fill="#905EFC"/>
<path d="M259.506 146.376C257.993 148.4 256.46 150.182 254.975 152.005C254.333 152.793 253.789 153.666 253.2 154.501C252.601 153.675 251.964 152.876 251.411 152.018C250.18 150.109 248.933 148.207 247.817 146.225C247.435 145.547 247.025 144.394 247.315 143.879C248.839 141.172 250.572 138.592 252.265 135.991C252.532 135.581 252.967 135.291 253.344 134.927C255.36 137.952 257.297 140.857 259.37 143.6C259.506 144.342 259.506 145.246 259.506 146.376Z" fill="#FD8A02"/>
<path d="M201.344 193.33C201.342 199.815 201.343 206.05 201.316 212.285C201.291 218.123 197.92 221.863 192.371 222.219C191.364 222.283 190.35 222.254 189.34 222.254C152.02 222.255 114.701 222.255 77.3812 222.255C76.3004 222.255 75.2196 222.255 73.8134 222.255C73.8134 225.532 73.8243 228.581 73.8109 231.63C73.7899 236.428 71.626 238.734 66.9992 238.748C56.3005 238.779 45.6015 238.78 34.9028 238.747C30.1214 238.731 28.0367 236.481 27.9958 231.424C27.9631 227.385 27.9653 223.345 27.8853 219.065C28.1864 214.918 26.8486 210.798 29.4239 206.911C33.1231 205.975 36.563 205.263 39.9404 204.564C39.9404 201.065 39.9404 197.323 39.9404 193.581C39.9506 192.088 39.9832 190.594 39.9654 189.101C39.9423 187.153 40.6289 185.584 42.4345 184.939C43.8649 184.428 44.0425 183.492 44.0395 182.137C44.0067 167.201 44.0257 152.265 43.9983 137.329C43.997 136.589 43.9365 135.594 43.4995 135.149C39.0737 130.639 38.4512 125.286 39.4915 119.185C41.0574 110.001 42.2025 100.74 43.5199 91.5105C44.5545 84.2628 45.5313 77.0058 46.6281 69.7684C47.1874 66.0777 49.2792 64.352 52.9388 64.3484C66.6765 64.3351 80.4145 64.2974 94.1516 64.3888C96.374 64.4036 97.4428 63.9165 97.1641 61.3614C96.8827 58.7812 97.7953 54.9987 96.4917 53.8724C94.9068 52.503 91.5255 53.0648 88.9671 53.3101C81.4341 54.0326 76.7201 47.3576 76.8807 41.2876C77.0481 34.9628 81.9846 29.5999 88.2627 29.5758C111.355 29.4871 134.449 29.4555 157.541 29.6082C162.433 29.6405 166.167 32.2364 168.068 37.2154C169.842 41.862 168.962 46.1415 165.879 49.6782C163.994 51.8402 161.5 53.4514 158.332 53.285C155.558 53.1393 152.771 53.2937 149.99 53.2432C148.693 53.2197 148.167 53.7584 148.2 55.1111C148.253 57.3062 148.33 59.5128 148.176 61.6975C148.027 63.7969 148.761 64.3981 150.753 64.3847C163.141 64.3013 175.531 64.3428 187.92 64.3429C189.69 64.3429 191.46 64.3175 193.23 64.3494C196.209 64.4029 198.262 65.9225 198.815 68.9662C199.779 74.2757 200.54 79.6268 201.313 84.972C202.597 93.8551 203.915 102.735 205.039 111.641C205.672 116.653 206.298 121.72 206.224 126.75C206.19 129.03 204.803 131.579 203.371 133.461C202.029 135.224 201.273 136.772 201.283 139.048C201.362 157.058 201.332 175.07 201.344 193.33ZM50.9189 135.703C57.8968 135.974 63.145 130.833 62.5224 124.049C60.4044 124.049 58.2575 124.049 55.6432 124.007C50.9469 124.007 46.2506 124.007 41.5513 124.007C41.7464 130.769 45.2188 135.105 50.9189 135.703ZM59.6399 220.936C63.6376 220.936 67.6352 220.936 71.7427 220.936C71.7427 217.453 71.9767 214.36 71.631 211.34C71.4865 210.078 70.11 208.97 68.9156 207.603C63.3236 207.603 57.7315 207.603 52.0667 207.603C52.0667 212.134 52.0667 216.404 52.0667 220.87C54.5035 220.87 56.8353 220.87 59.6399 220.936ZM49.926 225.738C49.926 224.902 49.926 224.066 49.926 223.219C43.1907 223.219 36.7579 223.219 30.4296 223.219C30.4296 226.957 30.4296 230.528 30.4768 234.467C31.8291 235.171 33.137 236.337 34.5428 236.484C37.5383 236.797 40.5847 236.581 43.6102 236.582C45.6759 236.583 47.7417 236.582 49.8329 236.582C49.8329 232.812 49.8329 229.496 49.926 225.738ZM51.9966 226.194C51.9966 229.578 51.9966 232.962 51.9966 236.501C57.6605 236.501 62.9528 236.556 68.2431 236.471C70.152 236.441 71.5432 235.246 71.6519 233.246C71.8312 229.947 71.7005 226.629 71.7005 223.118C66.703 223.118 61.9256 223.118 56.6879 223.062C55.1485 223.062 53.609 223.062 51.9384 223.062C52.0009 224.173 52.0442 224.94 51.9966 226.194ZM43.221 204.997C50.8615 205.052 58.5021 205.108 66.1426 205.162C67.7304 205.173 68.4216 204.279 68.4044 202.691C68.356 198.23 68.305 193.768 68.3239 188.875C67.4851 188.25 66.6565 187.101 65.8059 187.083C58.8125 186.936 51.8149 187.023 44.8188 186.983C42.7761 186.971 41.9429 187.904 41.9805 190.023C42.0522 194.063 41.9506 198.108 42.0419 202.147C42.0612 202.999 42.6008 203.838 43.221 204.997ZM89.4566 51.1246C112.121 51.1303 134.785 51.1555 157.449 51.1251C161.932 51.1191 165.476 48.0405 166.348 43.6608C167.291 38.9294 165.331 34.9127 160.762 32.7007C158.436 32.4545 156.111 31.9995 153.784 31.9948C133.651 31.9537 113.517 31.9925 93.3838 32.0115C91.5309 32.0132 89.6737 31.9637 87.8258 32.073C82.6624 32.3783 78.92 36.7518 79.191 42.0795C79.4649 47.4661 83.7444 51.3651 89.4566 51.1246ZM178.077 97.0728C177.111 86.9695 176.144 76.8662 175.177 66.7564C168.574 66.7564 162.289 66.7564 155.784 66.7564C156.666 80.626 157.54 94.3513 158.362 108.538C158.646 112.949 158.93 117.359 159.21 121.691C166.566 121.691 173.562 121.691 180.677 121.691C180.46 119.471 180.29 117.469 180.064 115.474C179.387 109.493 178.689 103.514 178.077 97.0728ZM197.083 71.7692C196.878 69.5053 196.569 66.954 193.893 66.8295C188.376 66.5728 182.84 66.7522 177.161 66.7522C177.48 70.0289 177.751 73.0774 178.079 76.1192C178.719 82.0459 179.391 87.9687 180.001 94.36C180.907 103.479 181.813 112.599 182.719 121.725C190.066 121.725 197.098 121.725 204.333 121.725C201.893 105.097 199.481 88.6571 197.083 71.7692ZM156.295 108.656C155.473 94.694 154.65 80.7319 153.827 66.7542C147.22 66.7542 141.023 66.7542 134.573 66.7542C134.573 67.8197 134.557 68.7576 134.575 69.6947C134.757 79.2549 134.921 88.8157 135.141 98.375C135.24 102.668 135.457 106.958 135.537 111.74C135.537 115.038 135.537 118.336 135.537 121.646C142.921 121.646 149.906 121.646 157.168 121.646C156.837 117.301 156.527 113.214 156.295 108.656ZM89.2047 111.66C89.0228 114.957 88.8408 118.254 88.6527 121.663C95.8664 121.663 102.928 121.663 110.234 121.663C110.234 117.872 110.234 114.298 110.307 110.238C110.621 95.7843 110.935 81.3302 111.25 66.8324C104.646 66.8324 98.3875 66.8324 91.9575 66.8324C91.7298 70.4373 91.499 73.8455 91.302 77.2559C90.6486 88.5625 90.0074 99.8699 89.2047 111.66ZM112.329 111.713C112.329 115.074 112.329 118.435 112.329 121.761C119.522 121.761 126.446 121.761 133.37 121.761C133.37 118.15 133.37 114.681 133.446 110.736C133.131 96.1156 132.816 81.4955 132.498 66.7533C126.048 66.7533 119.781 66.7533 113.07 66.7533C113.07 69.5503 113.107 72.2438 113.063 74.9357C112.867 87.0323 112.648 99.1284 112.329 111.713ZM65.5466 116.954C65.4095 118.5 65.2723 120.047 65.1208 121.755C72.3185 121.755 79.3154 121.755 87.0585 121.755C87.0585 118.214 87.0585 114.754 87.2198 110.888C88.1239 96.2126 89.0281 81.537 89.9379 66.7699C83.4068 66.7699 77.134 66.7699 70.6887 66.7699C70.5542 67.9169 70.4211 68.9443 70.3149 69.9747C69.7124 75.8176 69.0953 81.659 68.5229 87.5051C67.5746 97.188 66.6566 106.874 65.5466 116.954ZM63.296 118.211C63.404 117.607 63.5519 117.007 63.6142 116.398C64.8192 104.614 66.0226 92.8293 67.2072 81.0428C67.6785 76.3525 68.1035 71.6572 68.582 66.6239C63.6704 66.6239 59.0564 66.6195 54.4424 66.6252C50.0456 66.6307 49.1934 67.4693 48.5825 71.958C47.5065 79.864 46.3554 87.7587 45.2413 95.6591C44.0208 104.314 42.8067 112.969 41.577 121.715C47.7333 121.715 53.6961 121.715 60.094 121.843C61.0503 121.843 62.0067 121.843 63.1697 121.843C63.1697 120.505 63.1697 119.567 63.296 118.211ZM142.667 210.877C142.667 213.831 142.667 216.785 142.667 219.767C154.933 219.767 166.897 219.767 178.942 219.767C178.942 215.072 178.942 210.61 179.013 205.664C179.018 188.729 179.036 171.794 179.02 154.859C179.016 150.403 176.911 148.194 172.694 148.18C164.697 148.154 156.701 148.149 148.705 148.183C144.957 148.199 142.678 150.338 142.674 154.054C142.651 172.83 142.702 191.606 142.667 210.877ZM127.278 161.889C127.306 159.521 127.358 157.153 127.356 154.785C127.353 151.403 126.839 150.889 123.504 150.889C102.88 150.885 82.255 150.885 61.6302 150.889C58.3168 150.89 57.8352 151.399 57.8307 154.836C57.8185 164.05 57.8066 173.265 57.8077 182.479C57.8077 183.229 57.9075 183.979 57.9752 184.928C59.2756 184.928 60.3629 184.85 61.4364 184.944C64.0023 185.167 66.5618 185.472 69.3166 186.095C69.8542 188.404 70.3918 190.713 71.002 193.334C71.6192 193.334 72.4461 193.337 73.273 193.333C85.0748 193.287 96.8766 193.234 108.679 193.196C113.906 193.179 119.133 193.168 124.36 193.205C126.01 193.216 127.322 192.736 127.321 190.811C127.313 181.328 127.224 171.845 127.278 161.889ZM73.3203 208.809C73.492 211.772 73.7686 214.733 73.7951 217.697C73.8105 219.421 74.3705 220.071 76.008 219.957C77.5171 219.852 79.0379 219.93 80.5536 219.93C99.6679 219.929 118.782 219.902 137.896 219.969C139.908 219.976 140.845 219.517 140.655 217.222C140.468 214.955 140.575 212.662 140.596 209.892C140.604 191.453 140.603 173.013 140.626 154.574C140.633 149.171 143.607 146.085 148.794 146.07C156.627 146.048 164.461 146.06 172.294 146.065C178.162 146.07 181.067 149.134 181.075 155.323C181.097 171.743 181.115 188.162 181.1 205.08C181.096 209.121 181.206 213.166 181.042 217.2C180.949 219.467 181.757 220.107 183.801 219.965C186.066 219.809 188.349 219.931 190.624 219.929C196.904 219.925 199.294 217.428 199.295 210.849C199.298 191.085 199.303 171.32 199.291 151.556C199.288 147.254 199.215 142.952 199.225 138.288C199.497 136.481 198.456 136.991 197.564 137.276C192.787 138.805 188.579 137.602 184.932 134.226C183.781 133.161 182.934 131.739 181.913 130.435C177.237 139.199 165.087 141.512 158.163 130.279C155.69 135.206 151.767 137.853 146.589 137.921C141.305 137.991 137.419 135.14 134.749 130.337C129.346 139.63 117.381 141.052 110.92 130.379C108.403 135.242 104.438 137.843 99.2731 137.919C93.9904 137.997 90.1729 134.976 87.3795 130.14C84.6205 135.375 80.6486 137.943 75.4481 137.918C70.2782 137.894 66.4921 135.015 63.7666 130.212C59.6698 137.263 53.9147 139.242 46.5374 137.027C46.5374 138.424 46.5374 139.377 46.5374 140.329C46.5374 152.892 46.5374 165.454 46.5374 178.017C46.5374 184.76 46.538 184.674 53.0526 184.73C55.1702 184.748 55.7809 184.044 55.757 181.877C55.6582 172.917 55.7071 163.956 55.7209 154.995C55.7282 150.311 57.1937 148.75 61.5602 148.749C82.2907 148.744 103.021 148.743 123.752 148.75C127.888 148.751 129.439 150.34 129.443 154.593C129.454 166.013 129.45 177.434 129.446 188.854C129.444 194.046 128.014 195.524 122.927 195.53C111.635 195.543 100.342 195.534 89.0502 195.534C83.5726 195.534 78.0944 195.492 72.6182 195.584C71.8787 195.597 70.4916 196.337 70.5154 196.648C70.8255 200.695 68.5405 205.456 73.3203 208.809ZM103.985 64.3429C117.136 64.3429 130.287 64.2861 143.436 64.3968C145.713 64.416 146.449 63.6899 146.233 61.3988C146.068 59.6581 146.056 57.8708 146.235 56.1333C146.482 53.7391 145.552 53.1881 143.373 53.2059C131.066 53.3065 118.758 53.2544 106.451 53.2544C99.6454 53.2544 99.6373 53.2544 99.6503 60.4201C99.6582 64.7796 99.284 64.3087 103.985 64.3429ZM49.9705 218.471C49.9705 214.899 49.9705 211.327 49.9705 207.488C44.2347 207.488 38.7831 207.398 33.3369 207.537C31.4394 207.586 30.2444 208.965 30.1929 211.008C30.1115 214.239 30.1713 217.473 30.1713 220.952C36.4773 220.952 42.603 220.991 48.7256 220.867C49.1522 220.858 49.5559 219.63 49.9705 218.471ZM70.286 134.356C74.3185 136.498 78.2762 136.387 81.9652 133.618C85.0007 131.339 86.4742 128.161 86.3988 124.117C79.1056 124.117 72.0554 124.117 64.8031 124.117C64.8534 128.526 66.5444 131.804 70.286 134.356ZM123.941 135.727C130.142 134.72 134.244 129.672 133.311 124.162C126.309 124.162 119.304 124.162 112.311 124.162C111.9 130.91 116.521 135.619 123.941 135.727ZM176.759 133.437C179.562 131.088 180.929 128.045 180.951 124.143C173.716 124.143 166.597 124.143 159.33 124.143C159.371 128.587 161.048 131.966 164.573 134.152C168.572 136.632 172.593 136.343 176.759 133.437ZM136.127 127.674C138.43 133.95 143.698 136.991 149.453 135.394C154.554 133.979 158.122 127.872 157.018 124.212C149.954 124.212 142.882 124.212 135.576 124.212C135.761 125.396 135.906 126.33 136.127 127.674ZM183.702 128.674C186.429 134.372 191.451 136.94 196.77 135.356C201.654 133.901 204.765 129.323 204.248 124.2C197.247 124.2 190.234 124.2 182.907 124.2C183.163 125.727 183.377 126.998 183.702 128.674ZM109.401 128.327C109.61 126.998 109.819 125.67 110.052 124.188C102.652 124.188 95.6591 124.188 88.4601 124.188C88.5804 125.343 88.5771 126.308 88.7931 127.216C89.8862 131.812 93.4339 135.115 97.7417 135.63C102.959 136.253 106.755 133.979 109.401 128.327Z" fill="#081144"/>
<path d="M39.7059 193.561C39.9404 197.323 39.9404 201.065 39.9404 204.564C36.563 205.263 33.1231 205.975 29.501 206.742C27.3913 206.739 25.4121 206.951 23.5475 206.564C19.95 205.816 17.4172 202.487 17.7063 199.36C17.9803 196.395 21.5273 193.567 25.1025 193.543C29.892 193.511 34.6818 193.539 39.7059 193.561Z" fill="#915EFD"/>
<path d="M223.219 174.954C220.307 171.913 220.468 172.058 222.96 169.034C224.651 166.982 225.79 164.439 227.229 162.151C227.549 161.643 228.039 161.087 228.552 160.943C228.815 160.869 229.373 161.603 229.674 162.06C231.534 164.885 233.454 167.676 235.126 170.619C235.518 171.309 235.335 172.727 234.899 173.489C233.312 176.268 231.532 178.93 229.761 181.59C229.385 182.154 228.648 182.968 228.236 182.877C227.628 182.744 227.024 181.99 226.661 181.35C225.498 179.3 224.447 177.182 223.219 174.954Z" fill="#FD8A02"/>
<path d="M23.6652 86.3336C21.909 89.0145 20.2943 91.5693 18.6335 94.0912C18.2951 94.605 17.7636 95.375 17.357 95.3515C16.7741 95.3178 16.0474 94.7908 15.6903 94.2523C13.926 91.5912 12.1613 88.9171 10.6311 86.1089C10.2129 85.3414 10.2628 83.8928 10.6883 83.1021C12.2441 80.2112 14.0132 77.4409 15.7891 74.6863C16.1686 74.0977 16.8687 73.5673 17.5119 73.4077C17.7881 73.3392 18.3551 74.2459 18.6888 74.7784C20.4307 77.5577 22.075 80.4064 23.8914 83.131C24.672 84.3019 24.768 85.2056 23.6652 86.3336Z" fill="#FD8A02"/>
<path d="M59.3099 41.4596C60.228 42.3796 61.0485 43.1358 61.5523 43.6001C59.2661 47.4701 57.2178 51.0591 55.04 54.5605C54.2365 55.8523 53.3813 55.6935 52.6034 54.2705C51.0254 51.3839 49.2126 48.6326 47.7225 45.7007C47.2808 44.8316 47.1884 43.3011 47.6352 42.4947C49.1923 39.6841 51.0343 37.0424 52.8193 34.3738C53.2141 33.7834 53.8191 33.3458 54.3273 32.8379C54.7666 33.4164 55.2823 33.949 55.6313 34.5816C56.856 36.8011 58.0233 39.055 59.3099 41.4596Z" fill="#FD8A02"/>
<path d="M234.716 110.198C236.026 112.288 237.427 114.109 238.52 116.112C238.932 116.867 239.002 118.27 238.595 118.988C237.013 121.782 235.196 124.433 233.421 127.104C233.031 127.692 232.468 128.528 231.959 128.549C231.479 128.567 230.848 127.739 230.487 127.148C228.821 124.421 227.089 121.72 225.687 118.846C225.261 117.974 225.483 116.381 225.988 115.466C227.336 113.026 228.98 110.761 230.547 108.458C231.02 107.763 231.628 107.17 232.175 106.53C232.726 107.161 233.316 107.761 233.816 108.434C234.168 108.906 234.399 109.475 234.716 110.198Z" fill="#FD8A02"/>
<path d="M13.1641 37.2579C13.3133 36.409 13.327 35.6664 13.6545 35.1335C15.1163 32.7548 16.6535 30.4257 18.199 28.1044C18.5019 27.6494 19.0673 26.9202 19.3277 26.9968C19.8419 27.1481 20.323 27.7078 20.65 28.216C22.2019 30.6275 23.7705 33.0347 25.1584 35.5482C25.4822 36.1346 25.3824 37.2867 25.0345 37.9095C23.6835 40.3279 22.1919 42.6652 20.6647 44.9694C20.2716 45.5624 19.6085 46.1198 18.9673 46.3014C18.6898 46.3799 18.0751 45.5164 17.7477 44.99C16.1974 42.4975 14.6934 39.9736 13.1641 37.2579Z" fill="#FD8A02"/>
<path d="M181.134 204.581C181.115 188.162 181.097 171.743 181.075 155.323C181.066 149.134 178.162 146.07 172.294 146.066C164.461 146.06 156.627 146.048 148.794 146.07C143.607 146.085 140.633 149.171 140.626 154.574C140.603 173.013 140.604 191.453 140.345 210.146C134.9 210.229 129.707 209.999 124.512 209.9C113.015 209.68 101.517 209.528 90.0194 209.345C89.6 209.339 89.1809 209.304 88.7618 209.28C83.5861 208.982 78.4105 208.683 73.2348 208.385C68.5405 205.456 70.8255 200.695 70.5154 196.648C70.4916 196.337 71.8787 195.597 72.6182 195.584C78.0944 195.492 83.5726 195.534 89.0502 195.534C100.342 195.534 111.635 195.543 122.927 195.53C128.014 195.524 129.444 194.046 129.446 188.854C129.45 177.434 129.454 166.013 129.443 154.593C129.439 150.34 127.888 148.751 123.752 148.75C103.021 148.743 82.2907 148.744 61.5601 148.749C57.1937 148.75 55.7281 150.311 55.7209 154.995C55.7071 163.956 55.6582 172.917 55.757 181.877C55.7809 184.044 55.1701 184.748 53.0526 184.73C46.538 184.674 46.5373 184.76 46.5374 178.017C46.5374 165.454 46.5374 152.892 46.5374 140.329C46.5374 139.377 46.5374 138.424 46.5374 137.027C53.9147 139.242 59.6698 137.263 63.7666 130.212C66.4921 135.015 70.2782 137.894 75.448 137.918C80.6486 137.943 84.6204 135.375 87.3795 130.14C90.1729 134.976 93.9904 137.997 99.2731 137.919C104.438 137.843 108.403 135.242 110.92 130.379C117.381 141.052 129.346 139.63 134.748 130.337C137.419 135.14 141.305 137.991 146.589 137.921C151.767 137.853 155.69 135.206 158.163 130.279C165.087 141.512 177.237 139.2 181.913 130.435C182.934 131.739 183.781 133.161 184.932 134.226C188.579 137.602 192.787 138.805 197.564 137.277C198.456 136.991 199.497 136.481 199.04 138.514C197.7 140.423 196.271 141.973 195.44 143.815C192.099 151.221 191.341 159.253 190.748 167.265C190.239 174.138 190.285 181.061 189.629 187.914C188.993 194.559 186.396 200.373 181.134 204.581Z" fill="#4117A5"/>
<path d="M69.1239 185.744C66.5618 185.472 64.0024 185.167 61.4365 184.944C60.363 184.85 59.2757 184.928 57.9752 184.928C57.9076 183.979 57.8078 183.229 57.8077 182.479C57.8066 173.265 57.8186 164.05 57.8307 154.836C57.8352 151.399 58.3169 150.89 61.6303 150.889C82.255 150.885 102.88 150.885 123.504 150.889C126.839 150.889 127.353 151.403 127.356 154.785C127.358 157.153 127.306 159.521 127.078 162.192C123.997 167.116 121.115 171.737 118.093 176.252C114.485 172.736 109.181 172.054 105.42 174.535C102.79 176.269 102.632 179.003 105.074 180.981C105.6 181.407 106.215 181.714 106.711 182.26C104.612 182.796 102.595 183.406 100.565 183.455C94.6943 183.598 88.8016 183.234 82.9493 183.61C78.3164 183.907 73.7306 185.003 69.1239 185.744ZM74.9492 182.928C76.67 182.284 78.5677 181.93 80.0718 180.931C82.554 179.283 82.3914 176.398 79.9821 174.664C76.9563 172.487 71.4581 172.603 68.5125 174.907C65.839 176.998 65.9261 180.076 68.9573 181.604C70.6263 182.445 72.6489 182.525 74.9492 182.928ZM93.6178 175.216C89.7275 175.493 87.1639 173.137 86.4775 168.812C86.3521 168.022 85.7475 167.314 85.3641 166.568C85.076 167.444 84.4774 168.349 84.551 169.19C84.9681 173.959 88.7714 177.7 92.8138 177.503C96.9492 177.302 100.493 173.377 100.646 168.68C100.668 167.985 100.118 167.27 99.8332 166.565C99.4436 167.223 98.8215 167.839 98.7047 168.546C98.2015 171.594 97.0351 174.047 93.6178 175.216ZM70.0627 163.321C71.4038 167.404 73.5363 169.22 76.4496 168.761C79.1591 168.334 81.4896 165.315 81.6537 161.827C81.6844 161.176 81.1984 160.498 80.9509 159.833C80.5337 160.354 80.0905 160.855 79.7134 161.405C79.5806 161.599 79.6148 161.915 79.5641 162.173C79.1175 164.446 78.3501 166.487 75.7272 166.667C73.8947 166.793 72.3679 164.905 71.8849 162.148C71.8397 161.89 71.9215 161.575 71.8074 161.369C71.5078 160.828 71.1327 160.333 70.7876 159.819C70.4588 160.414 70.0476 160.978 69.8324 161.614C69.7063 161.987 69.8922 162.475 70.0627 163.321ZM106.165 167.594C110.298 170.218 114.411 168.023 115.227 162.65C115.361 161.768 114.867 160.782 114.663 159.844C114.208 160.605 113.693 161.335 113.318 162.137C113.029 162.753 113.109 163.681 112.686 164.082C111.644 165.07 110.426 166.458 109.241 166.498C108.234 166.533 106.99 165.057 106.201 163.972C105.65 163.215 105.774 161.959 105.434 160.988C105.272 160.523 104.732 160.201 104.362 159.814C104.065 160.268 103.423 160.846 103.525 161.154C104.222 163.244 105.076 165.276 106.165 167.594Z" fill="#01D2FB"/>
<path d="M142.726 210.383C142.702 191.606 142.651 172.83 142.674 154.054C142.678 150.338 144.957 148.199 148.704 148.183C156.701 148.149 164.697 148.154 172.694 148.18C176.911 148.194 179.016 150.403 179.02 154.859C179.036 171.794 179.018 188.729 178.805 205.947C177.095 206.736 175.592 207.242 174.064 207.503C174.035 202.887 174.051 198.514 174.022 194.142C173.997 190.461 172.097 188.232 169.042 188.222C166.039 188.213 164.041 190.484 164.016 194.139C163.979 199.384 164.044 204.631 163.829 209.879C161.535 210.049 159.478 210.216 157.418 210.164C157.466 204.347 157.648 198.745 157.517 193.151C157.444 190.055 155.151 188.112 152.374 188.226C149.611 188.34 147.679 190.437 147.659 193.6C147.623 199.203 147.702 204.806 147.503 210.41C145.758 210.402 144.242 210.392 142.726 210.383ZM157.64 161.269C157.638 160.918 157.654 160.566 157.632 160.216C157.391 156.474 155.474 154.355 152.422 154.448C149.395 154.54 147.65 156.745 147.632 160.575C147.61 165.138 147.557 169.704 147.673 174.264C147.705 175.51 148.043 176.908 148.68 177.941C149.905 179.928 151.893 180.449 154.024 179.804C156.431 179.077 157.557 177.17 157.603 174.66C157.682 170.361 157.634 166.06 157.64 161.269ZM163.997 161.737C164 166.035 163.919 170.336 164.033 174.631C164.121 177.92 166.241 180.057 169.078 180.03C171.742 180.005 173.924 177.961 173.984 175.072C174.094 169.811 174.083 164.545 173.982 159.284C173.934 156.829 172.167 154.912 169.99 154.511C167.716 154.092 165.394 155.208 164.589 157.393C164.152 158.581 164.179 159.954 163.997 161.737ZM165.258 183.037C164.923 183.038 164.55 182.937 164.263 183.059C163.585 183.345 162.948 183.738 162.294 184.088C162.929 184.442 163.553 185.076 164.199 185.103C166.953 185.216 169.714 185.199 172.469 185.102C172.972 185.084 173.455 184.471 173.948 184.132C173.468 183.77 173.001 183.119 172.505 183.094C170.254 182.979 167.995 183.04 165.258 183.037Z" fill="#FA09B1"/>
<path d="M59.6591 121.716C53.6963 121.716 47.7334 121.716 41.5771 121.716C42.8068 112.97 44.021 104.314 45.2414 95.6591C46.3555 87.7588 47.5067 79.864 48.5827 71.9581C49.1936 67.4694 50.0458 66.6307 54.4426 66.6252C59.0566 66.6195 63.6706 66.624 68.5821 66.624C68.1037 71.6573 67.6787 76.3526 67.2073 81.0428C66.0228 92.8294 64.8194 104.614 63.6143 116.398C63.552 117.007 63.4042 117.607 63.0632 118.452C61.7732 119.7 60.7162 120.708 59.6591 121.716Z" fill="#FA09B1"/>
<path d="M65.7258 116.559C66.6566 106.874 67.5747 97.1881 68.5229 87.5052C69.0954 81.659 69.7125 75.8176 70.315 69.9747C70.4212 68.9443 70.5542 67.9169 70.6888 66.7699C77.134 66.7699 83.4069 66.7699 89.9379 66.7699C89.0281 81.537 88.124 96.2127 86.9266 111.102C79.441 112.097 72.4156 113.6 65.7258 116.559Z" fill="#FCFCFD"/>
<path d="M112.437 111.225C112.648 99.1285 112.867 87.0323 113.063 74.9358C113.107 72.2438 113.07 69.5504 113.07 66.7534C119.781 66.7534 126.048 66.7534 132.498 66.7534C132.816 81.4956 133.131 96.1157 133.183 110.971C126.091 111.212 119.264 111.218 112.437 111.225Z" fill="#FCFCFD"/>
<path d="M89.3616 111.177C90.0074 99.8699 90.6486 88.5625 91.302 77.2559C91.4991 73.8456 91.7298 70.4373 91.9575 66.8324C98.3875 66.8324 104.646 66.8324 111.25 66.8324C110.935 81.3302 110.621 95.7843 110.037 110.495C102.965 110.893 96.1632 111.035 89.3616 111.177Z" fill="#F909B1"/>
<path d="M135.62 111.25C135.457 106.958 135.24 102.668 135.141 98.3751C134.92 88.8158 134.757 79.255 134.575 69.6948C134.557 68.7576 134.573 67.8198 134.573 66.7543C141.023 66.7543 147.219 66.7543 153.827 66.7543C154.65 80.732 155.473 94.6941 156.042 108.89C149.066 109.833 142.343 110.541 135.62 111.25Z" fill="#F909B1"/>
<path d="M197.069 72.2175C199.481 88.6571 201.893 105.097 204.333 121.725C197.098 121.725 190.066 121.725 182.719 121.725C181.813 112.599 180.907 103.479 180.177 94.0372C182.868 89.3787 185.295 84.9836 187.926 80.7253C190.201 77.0428 192.651 73.4491 197.069 72.2175Z" fill="#BC0B95"/>
<path d="M181.117 204.831C186.396 200.373 188.993 194.559 189.629 187.914C190.285 181.061 190.239 174.138 190.748 167.265C191.342 159.253 192.099 151.221 195.44 143.815C196.272 141.973 197.7 140.423 199.014 138.695C199.215 142.953 199.288 147.254 199.291 151.556C199.303 171.32 199.298 191.085 199.295 210.849C199.294 217.428 196.904 219.925 190.624 219.929C188.349 219.931 186.066 219.809 183.801 219.965C181.757 220.107 180.95 219.467 181.042 217.2C181.206 213.166 181.096 209.121 181.117 204.831Z" fill="#31158C"/>
<path d="M158.413 108.077C157.54 94.3514 156.667 80.6261 155.784 66.7565C162.29 66.7565 168.575 66.7565 175.177 66.7565C176.144 76.8663 177.111 86.9696 177.866 97.3167C176.95 98.1631 176.237 98.7554 175.543 99.37C170.543 103.793 164.846 106.719 158.413 108.077Z" fill="#FCFCFD"/>
<path d="M88.9886 51.006C83.7445 51.3652 79.465 47.4662 79.1911 42.0795C78.9201 36.7519 82.6625 32.3784 87.8259 32.073C89.6738 31.9638 91.5309 32.0133 93.3839 32.0115C113.517 31.9926 133.651 31.9538 153.784 31.9948C156.111 31.9996 158.436 32.4545 160.867 33.0577C160.927 34.2783 160.9 35.1433 160.834 36.0052C160.482 40.6298 159.112 42.4148 154.858 43.6141C155.693 42.3454 156.542 41.2607 157.391 40.176C157.43 39.9174 157.468 39.6588 157.506 39.4002C153.886 40.5399 152.713 37.9639 151.141 34.6992C150.401 38.7161 148.228 39.8317 145.074 39.8483C146.516 41.9926 148.821 43.2347 147.396 45.9191C143.359 46.2788 139.518 46.5918 135.644 46.6749C135.612 45.3146 135.612 44.1841 135.612 43.0835C139.377 42.0476 140.899 40.1099 140.131 37.4368C139.396 34.8793 136.069 33.8465 132.479 35.1753C132.479 39.0472 132.479 42.9819 132.299 46.9118C131.713 46.6943 131.308 46.4814 130.952 46.0624C131.172 43.3361 131.445 40.8175 131.479 38.2954C131.51 35.941 130.129 34.8859 127.949 34.761C125.73 34.6339 124.247 35.6295 124.172 37.9543C124.088 40.5529 124.393 43.1651 124.431 45.9122C123.914 46.1577 123.495 46.2625 123.031 46.1265C122.987 42.2279 122.987 38.57 122.987 34.6227C121.608 34.774 120.926 34.8488 120.135 34.9356C120.135 36.2313 120.228 37.2946 120.093 38.3251C120.032 38.7816 119.509 39.1718 119.197 39.5921C118.797 39.1525 118.161 38.7705 118.047 38.2612C117.805 37.1856 117.836 36.0434 117.757 34.95C115.544 34.895 115.483 34.8952 115.489 36.6359C115.498 39.7043 115.589 42.7724 115.464 45.8458C114.797 45.8593 114.312 45.8677 113.843 45.6787C114.595 42.3418 113.946 41.1933 110.789 39.6474C110.297 39.4065 110.042 38.6397 109.677 38.1161C110.246 38.1622 110.836 38.1258 111.38 38.2734C112.244 38.5079 113.077 38.8651 114.035 39.2109C114.237 36.3236 113.486 35.2175 111.442 34.8241C109.218 34.3962 107.154 35.5957 106.709 37.6829C106.27 39.74 106.881 41.3238 108.898 42.0931C109.29 42.2429 109.83 42.196 110.086 42.4637C110.549 42.9481 110.851 43.6012 111.22 44.1839C110.594 44.2478 109.952 44.4357 109.347 44.3472C108.386 44.2066 107.451 43.8814 106.149 43.5414C106.466 44.7189 106.622 45.2971 106.571 45.9142C103.688 46.2869 101.012 46.6208 98.2802 46.7251C96.9965 43.7548 98.8606 42.0292 101.026 39.6684C97.2505 40.0478 95.4751 38.368 94.835 36.1283C92.7864 37.6786 90.859 39.1372 88.7695 40.7186C90.7559 42.077 91.5144 44.4954 90.2614 47.8447C92.8529 46.8048 94.8612 44.7957 96.7291 47.406C94.0208 48.6643 91.5047 49.8351 88.9886 51.006Z" fill="#F90AB1"/>
<path d="M73.2776 208.597C78.4105 208.683 83.5861 208.982 88.7618 209.28C89.1809 209.304 89.6 209.339 90.0194 209.345C101.517 209.528 113.015 209.68 124.512 209.9C129.707 209.999 134.9 210.229 140.323 210.39C140.575 212.662 140.468 214.955 140.655 217.222C140.845 219.517 139.908 219.976 137.896 219.969C118.782 219.902 99.6679 219.929 80.5536 219.93C79.0379 219.93 77.5171 219.852 76.008 219.957C74.3705 220.071 73.8105 219.421 73.7951 217.697C73.7686 214.733 73.492 211.772 73.2776 208.597Z" fill="#31158C"/>
<path d="M69.2202 185.92C73.7305 185.003 78.3163 183.907 82.9493 183.61C88.8016 183.234 94.6943 183.598 100.565 183.455C102.595 183.406 104.612 182.796 106.894 182.287C109.834 182.16 112.608 182.655 115.17 182.094C118.108 181.45 118.826 179.501 118.233 176.358C121.115 171.737 123.997 167.116 127.021 162.428C127.225 171.845 127.313 181.328 127.321 190.811C127.322 192.736 126.01 193.216 124.36 193.205C119.133 193.168 113.906 193.179 108.679 193.196C96.8767 193.234 85.0748 193.287 73.273 193.333C72.4461 193.337 71.6193 193.334 71.002 193.334C70.3918 190.713 69.8542 188.404 69.2202 185.92Z" fill="#11A5E6"/>
<path d="M103.739 64.343C99.284 64.3088 99.6583 64.7797 99.6504 60.4202C99.6374 53.2545 99.6454 53.2545 106.451 53.2545C118.758 53.2545 131.066 53.3066 143.373 53.206C145.552 53.1882 146.482 53.7392 146.235 56.1334C146.056 57.8709 146.068 59.6582 146.233 61.3989C146.449 63.69 145.713 64.4161 143.436 64.3969C130.287 64.2862 117.136 64.3429 103.739 64.343Z" fill="black"/>
<path d="M113.827 45.876C114.312 45.8677 114.797 45.8593 115.515 46.0546C116.545 48.2299 117.448 47.9544 118.603 46.3945C119.306 46.3926 119.817 46.3898 120.389 46.5825C121.489 47.7724 122.454 48.2639 123.076 46.3673C123.495 46.2625 123.914 46.1577 124.57 46.0241C126.655 48.377 128.272 48.4495 130.902 46.2686C131.308 46.4814 131.713 46.6943 132.424 47.0719C133.711 47.1261 134.694 47.0154 135.676 46.9047C139.518 46.5918 143.359 46.2789 147.447 46.104C148.165 46.4545 148.866 46.9886 149.073 46.8284C150.768 45.5182 152.315 45.8532 153.9 46.9982C154.186 47.2045 154.602 47.2144 155.096 47.354C155.012 46.0135 154.942 44.9058 154.873 43.7981C159.112 42.4148 160.482 40.6298 160.834 36.0052C160.9 35.1433 160.927 34.2783 161.039 33.1669C165.331 34.9128 167.291 38.9295 166.348 43.6608C165.476 48.0406 161.932 51.1191 157.449 51.1251C134.785 51.1556 112.121 51.1304 89.2227 51.0653C91.5047 49.8351 94.0208 48.6643 96.8866 47.431C97.603 47.2306 97.9698 47.0927 98.3365 46.9547C101.012 46.6208 103.688 46.2869 106.727 46.007C109.727 48.1879 111.48 48.1398 113.827 45.876Z" fill="#BB0C94"/>
<path d="M158.387 108.307C164.846 106.719 170.543 103.792 175.543 99.3699C176.237 98.7554 176.95 98.163 177.827 97.5477C178.689 103.515 179.387 109.493 180.064 115.474C180.29 117.469 180.46 119.471 180.677 121.691C173.562 121.691 166.566 121.691 159.21 121.691C158.93 117.359 158.646 112.949 158.387 108.307Z" fill="#BEC2CE"/>
<path d="M174.09 207.747C175.592 207.242 177.095 206.736 178.77 206.189C178.942 210.61 178.942 215.072 178.942 219.767C166.897 219.767 154.933 219.767 142.667 219.767C142.667 216.785 142.667 213.831 142.697 210.63C144.242 210.392 145.758 210.402 147.628 210.531C150.79 215.043 154.561 214.936 157.422 210.383C159.479 210.216 161.535 210.049 163.933 210.012C165.678 213.069 167.423 214.162 169.94 213.691C172.543 213.204 173.837 211.351 174.09 207.747Z" fill="#BC0B95"/>
<path d="M197.076 71.9934C192.651 73.4491 190.201 77.0428 187.926 80.7253C185.295 84.9836 182.869 89.3787 180.202 93.8038C179.391 87.9688 178.719 82.0459 178.079 76.1193C177.751 73.0775 177.48 70.0289 177.161 66.7523C182.841 66.7523 188.376 66.5728 193.893 66.8296C196.569 66.9541 196.878 69.5053 197.076 71.9934Z" fill="#F709B0"/>
<path d="M49.9704 218.721C49.5559 219.631 49.1522 220.858 48.7256 220.867C42.603 220.991 36.4774 220.952 30.1713 220.952C30.1713 217.473 30.1115 214.239 30.1929 211.008C30.2444 208.965 31.4394 207.586 33.3369 207.538C38.7831 207.398 44.2348 207.488 49.9705 207.488C49.9705 211.327 49.9705 214.899 49.9704 218.721Z" fill="#F88703"/>
<path d="M42.9007 204.683C42.6008 203.838 42.0611 202.999 42.0419 202.147C41.9506 198.108 42.0522 194.063 41.9805 190.022C41.9428 187.904 42.7761 186.971 44.8188 186.983C51.8149 187.023 58.8125 186.936 65.8059 187.083C66.6565 187.101 67.4851 188.25 68.1184 189.114C66.199 190.744 64.4852 192.134 62.7483 193.299C62.4222 192 62.119 190.926 61.8159 189.851C61.4439 190.935 61.0093 192.001 60.7258 193.109C60.579 193.682 60.6166 194.345 60.7162 194.942C60.97 196.46 60.4812 197.558 59.0033 198.301C57.7643 198.659 56.7091 198.996 55.6907 199.146C55.8394 198.723 56.0776 198.304 56.0451 198.28C53.8552 196.648 55.0824 194.235 54.7118 192.194C54.5641 191.38 54.1095 190.627 53.7947 189.847C53.4326 190.606 52.8527 191.335 52.7532 192.129C52.5378 193.85 53.1657 196.082 52.3334 197.212C51.4685 198.386 51.9078 198.904 52.0684 199.942C51.3989 200.405 50.8196 200.691 50.2425 200.981C47.7949 202.215 45.3479 203.449 42.9007 204.683Z" fill="#FA8803"/>
<path d="M57.1481 223.118C61.9255 223.118 66.703 223.118 71.7005 223.118C71.7005 226.629 71.8311 229.947 71.6518 233.246C71.5431 235.246 70.152 236.441 68.243 236.472C62.9528 236.556 57.6604 236.501 51.9966 236.501C51.9966 232.962 51.9966 229.578 52.2374 225.947C54.0349 224.839 55.5915 223.979 57.1481 223.118Z" fill="#CB720E"/>
<path d="M135.578 111.495C142.343 110.541 149.066 109.832 156.003 109.125C156.527 113.214 156.837 117.301 157.167 121.646C149.906 121.646 142.921 121.646 135.537 121.646C135.537 118.336 135.537 115.038 135.578 111.495Z" fill="#BD0B95"/>
<path d="M89.2832 111.418C96.1633 111.035 102.965 110.893 110 110.738C110.234 114.298 110.234 117.872 110.234 121.663C102.928 121.663 95.8665 121.663 88.6528 121.663C88.8409 118.254 89.0229 114.957 89.2832 111.418Z" fill="#BC0B95"/>
<path d="M112.383 111.469C119.264 111.218 126.091 111.212 133.145 111.209C133.37 114.681 133.37 118.15 133.37 121.761C126.446 121.761 119.522 121.761 112.329 121.761C112.329 118.435 112.329 115.074 112.383 111.469Z" fill="#BEC2CE"/>
<path d="M70.131 134.244C66.5445 131.804 64.8535 128.526 64.8032 124.118C72.0556 124.118 79.1058 124.118 86.3989 124.118C86.4743 128.161 85.0009 131.339 81.9654 133.618C78.2764 136.387 74.3186 136.498 70.131 134.244Z" fill="#BBBFCC"/>
<path d="M123.739 135.755C116.521 135.619 111.901 130.91 112.311 124.162C119.304 124.162 126.309 124.162 133.311 124.162C134.244 129.672 130.143 134.72 123.739 135.755Z" fill="#BBBFCC"/>
<path d="M176.613 133.558C172.593 136.343 168.572 136.632 164.573 134.152C161.048 131.966 159.371 128.587 159.33 124.143C166.597 124.143 173.716 124.143 180.951 124.143C180.929 128.045 179.562 131.088 176.613 133.558Z" fill="#BBBFCC"/>
<path d="M136.089 127.468C135.906 126.33 135.761 125.396 135.576 124.212C142.882 124.212 149.954 124.212 157.018 124.212C158.122 127.872 154.554 133.979 149.452 135.394C143.698 136.991 138.429 133.95 136.089 127.468Z" fill="#B90B93"/>
<path d="M183.646 128.471C183.377 126.998 183.163 125.727 182.907 124.2C190.235 124.2 197.247 124.2 204.248 124.2C204.765 129.323 201.655 133.901 196.77 135.356C191.451 136.94 186.429 134.372 183.646 128.471Z" fill="#B90B93"/>
<path d="M109.334 128.527C106.755 133.979 102.959 136.253 97.7419 135.63C93.434 135.115 89.8864 131.812 88.7933 127.216C88.5772 126.308 88.5806 125.343 88.4602 124.188C95.6592 124.188 102.652 124.188 110.052 124.188C109.819 125.67 109.61 126.999 109.334 128.527Z" fill="#B90B93"/>
<path d="M65.6362 116.756C72.4155 113.6 79.441 112.097 86.8458 111.305C87.0585 114.754 87.0585 118.214 87.0585 121.755C79.3154 121.755 72.3185 121.755 65.1208 121.755C65.2723 120.047 65.4095 118.5 65.6362 116.756Z" fill="#BEC2CF"/>
<path d="M49.8329 226.18C49.8329 229.496 49.8329 232.812 49.8329 236.582C47.7416 236.582 45.6759 236.583 43.6102 236.582C40.5847 236.581 37.5383 236.797 34.5428 236.484C33.1369 236.337 31.829 235.171 30.5786 234.176C32.5073 232.257 34.1667 230.34 36.1962 229.06C40.3555 226.438 45.0592 225.98 49.8329 226.18Z" fill="#C8710F"/>
<path d="M55.6538 199.334C56.709 198.996 57.7642 198.659 59.1498 198.396C60.152 199.639 60.8238 200.807 61.7234 202.371C62.6674 200.681 63.4006 199.368 64.1124 198.094C61.8645 196.991 62.9965 195.056 62.7713 193.524C64.4851 192.134 66.199 190.744 68.0839 189.33C68.3049 193.768 68.3559 198.23 68.4043 202.691C68.4215 204.279 67.7303 205.173 66.1425 205.162C58.502 205.108 50.8615 205.052 43.0608 204.84C45.3479 203.449 47.7948 202.215 50.2425 200.981C50.8195 200.691 51.3988 200.405 52.2067 200.05C52.8308 200.681 53.2251 201.379 53.7295 202.272C54.4926 201.107 55.0732 200.22 55.6538 199.334Z" fill="#CE730D"/>
<path d="M59.1671 220.87C56.8353 220.87 54.5035 220.87 52.0667 220.87C52.0667 216.404 52.0667 212.134 52.0667 207.603C57.7315 207.603 63.3235 207.603 68.9981 207.837C67.4661 209.114 65.7474 210.019 64.2588 211.231C61.2756 213.66 60.4702 217.426 59.1671 220.87Z" fill="#F68704"/>
<path d="M59.4036 220.903C60.4702 217.426 61.2757 213.66 64.2589 211.231C65.7475 210.019 67.4661 209.114 69.1872 207.931C70.11 208.97 71.4866 210.078 71.631 211.34C71.9767 214.36 71.7427 217.453 71.7427 220.936C67.6353 220.936 63.6376 220.936 59.4036 220.903Z" fill="#CD730E"/>
<path d="M50.5919 135.545C45.2187 135.105 41.7463 130.769 41.5513 124.007C46.2506 124.007 50.9469 124.007 55.8837 124.214C55.7157 125.266 55.3162 126.116 54.897 126.955C53.4657 129.82 52.0275 132.682 50.5919 135.545Z" fill="#F909B1"/>
<path d="M49.8795 225.959C45.0594 225.98 40.3557 226.438 36.1963 229.06C34.1668 230.34 32.5075 232.257 30.5551 233.993C30.4297 230.528 30.4297 226.957 30.4297 223.219C36.7579 223.219 43.1908 223.219 49.9261 223.219C49.9261 224.066 49.9261 224.902 49.8795 225.959Z" fill="#FD8A02"/>
<path d="M50.7554 135.624C52.0275 132.682 53.4657 129.821 54.897 126.955C55.3162 126.116 55.7157 125.266 56.1174 124.235C58.2575 124.049 60.4044 124.049 62.5224 124.049C63.145 130.833 57.8968 135.974 50.7554 135.624Z" fill="#BB0B94"/>
<path d="M56.9181 223.09C55.5916 223.978 54.035 224.839 52.283 225.704C52.0443 224.941 52.0011 224.173 51.9385 223.062C53.6092 223.062 55.1486 223.062 56.9181 223.09Z" fill="#FA8803"/>
<path d="M59.8765 121.779C60.716 120.708 61.773 119.7 62.9999 118.66C63.1697 119.567 63.1697 120.505 63.1697 121.843C62.0067 121.843 61.0503 121.843 59.8765 121.779Z" fill="#BC0B95"/>
<path d="M118.094 176.252C118.826 179.501 118.108 181.45 115.17 182.094C112.608 182.655 109.834 182.16 106.971 182.104C106.215 181.714 105.6 181.407 105.074 180.981C102.632 179.003 102.79 176.269 105.42 174.535C109.181 172.054 114.485 172.736 118.094 176.252Z" fill="#FA8FDF"/>
<path d="M74.7307 182.938C72.649 182.525 70.6264 182.445 68.9574 181.604C65.9262 180.076 65.8391 176.998 68.5126 174.907C71.4582 172.603 76.9564 172.487 79.9822 174.664C82.3915 176.398 82.5541 179.283 80.0719 180.931C78.5678 181.93 76.6701 182.284 74.7307 182.938Z" fill="#F990DF"/>
<path d="M93.8229 175.169C97.035 174.047 98.2014 171.594 98.7046 168.546C98.8214 167.839 99.4435 167.223 99.8331 166.565C100.118 167.27 100.668 167.985 100.645 168.68C100.493 173.377 96.9491 177.302 92.8137 177.503C88.7713 177.7 84.9679 173.959 84.5509 169.19C84.4773 168.349 85.0759 167.444 85.364 166.568C85.7474 167.314 86.352 168.022 86.4774 168.812C87.1638 173.137 89.7274 175.494 93.8229 175.169Z" fill="#001A4B"/>
<path d="M70.0001 163.116C69.8921 162.475 69.7062 161.987 69.8323 161.614C70.0476 160.978 70.4587 160.414 70.7875 159.819C71.1326 160.333 71.5077 160.828 71.8074 161.37C71.9214 161.575 71.8396 161.89 71.8848 162.148C72.3678 164.905 73.8947 166.793 75.7272 166.667C78.35 166.487 79.1174 164.446 79.564 162.173C79.6148 161.915 79.5805 161.599 79.7134 161.405C80.0904 160.855 80.5336 160.354 80.9508 159.833C81.1983 160.498 81.6843 161.176 81.6536 161.827C81.4895 165.315 79.159 168.334 76.4496 168.761C73.5362 169.22 71.4037 167.404 70.0001 163.116Z" fill="#001A4B"/>
<path d="M106.023 167.46C105.076 165.276 104.222 163.244 103.525 161.154C103.423 160.846 104.065 160.268 104.362 159.814C104.732 160.201 105.272 160.523 105.434 160.988C105.774 161.959 105.65 163.215 106.201 163.972C106.99 165.057 108.234 166.533 109.241 166.498C110.426 166.458 111.644 165.07 112.686 164.082C113.109 163.681 113.029 162.753 113.318 162.137C113.693 161.335 114.208 160.605 114.663 159.844C114.867 160.782 115.361 161.768 115.227 162.65C114.411 168.023 110.298 170.218 106.023 167.46Z" fill="#001A4B"/>
<path d="M157.64 161.515C157.635 166.06 157.682 170.361 157.603 174.66C157.557 177.17 156.431 179.077 154.025 179.804C151.893 180.449 149.905 179.928 148.68 177.941C148.043 176.908 147.705 175.51 147.673 174.264C147.557 169.704 147.61 165.138 147.632 160.575C147.65 156.745 149.395 154.54 152.422 154.448C155.474 154.355 157.391 156.474 157.632 160.216C157.654 160.566 157.638 160.918 157.64 161.515ZM155.559 159.461C155.207 157.42 154.094 156.283 152.057 156.63C150.109 156.963 149.634 158.483 149.646 160.335C149.676 165.059 149.618 169.783 149.675 174.506C149.703 176.815 151.013 178.109 152.918 177.864C155.052 177.59 155.592 175.988 155.602 174.085C155.627 169.361 155.604 164.637 155.559 159.461Z" fill="#10104A"/>
<path d="M163.997 161.491C164.179 159.954 164.152 158.581 164.589 157.393C165.394 155.208 167.716 154.092 169.99 154.511C172.167 154.912 173.934 156.829 173.982 159.284C174.083 164.545 174.094 169.811 173.984 175.072C173.924 177.961 171.742 180.005 169.079 180.03C166.241 180.057 164.121 177.92 164.033 174.631C163.919 170.336 164 166.035 163.997 161.491ZM166.011 161.763C166.015 166.051 165.966 170.339 166.047 174.624C166.083 176.503 167.017 177.83 168.971 177.869C170.747 177.904 171.925 176.864 171.957 175.026C172.048 169.779 172.112 164.522 171.86 159.285C171.815 158.342 170.212 156.759 169.335 156.763C168.268 156.769 167.075 158.014 166.204 158.984C165.808 159.425 166.055 160.493 166.011 161.763Z" fill="#0C0F47"/>
<path d="M174.064 207.503C173.837 211.351 172.543 213.204 169.94 213.691C167.423 214.162 165.678 213.069 164.17 210.009C164.044 204.631 163.979 199.385 164.016 194.139C164.041 190.484 166.039 188.213 169.042 188.222C172.097 188.232 173.998 190.461 174.022 194.143C174.051 198.514 174.035 202.887 174.064 207.503ZM171.985 208.311C171.992 203.404 172.024 198.497 171.994 193.59C171.983 191.643 171.029 190.425 169.094 190.35C167.259 190.278 166.11 191.46 166.095 193.204C166.046 198.613 166.223 204.025 166.365 209.803C167.426 210.418 168.584 211.637 169.522 211.475C170.435 211.318 171.123 209.746 171.985 208.311Z" fill="#0B0F46"/>
<path d="M157.418 210.164C154.561 214.936 150.79 215.043 147.858 210.53C147.702 204.806 147.623 199.203 147.659 193.601C147.679 190.437 149.611 188.34 152.374 188.226C155.151 188.112 157.444 190.055 157.517 193.151C157.648 198.745 157.466 204.347 157.418 210.164ZM155.629 199.089C155.625 197.338 155.671 195.585 155.602 193.837C155.525 191.88 154.776 190.35 152.647 190.351C150.404 190.352 149.633 191.851 149.64 193.997C149.657 198.636 149.678 203.277 149.63 207.916C149.607 210.14 150.472 211.501 152.676 211.486C154.782 211.471 155.593 210.023 155.616 208.014C155.649 205.213 155.628 202.412 155.629 199.089Z" fill="#081147"/>
<path d="M165.498 183.037C167.995 183.04 170.254 182.979 172.505 183.094C173.001 183.119 173.468 183.77 173.948 184.132C173.455 184.471 172.972 185.084 172.469 185.102C169.714 185.199 166.953 185.216 164.199 185.103C163.553 185.077 162.929 184.442 162.294 184.088C162.948 183.738 163.585 183.346 164.263 183.059C164.55 182.937 164.923 183.038 165.498 183.037Z" fill="#0E0E45"/>
<path d="M98.2803 46.7252C97.9698 47.0927 97.603 47.2306 97.0788 47.3436C94.8612 44.7957 92.853 46.8048 90.2615 47.8448C91.5144 44.4954 90.7559 42.0771 88.7695 40.7186C90.8591 39.1372 92.7864 37.6787 94.835 36.1283C95.4752 38.368 97.2505 40.0479 101.026 39.6684C98.8606 42.0292 96.9966 43.7548 98.2803 46.7252Z" fill="#FFF5FC"/>
<path d="M154.858 43.6141C154.942 44.9058 155.012 46.0135 155.096 47.354C154.602 47.2144 154.185 47.2045 153.9 46.9982C152.315 45.8532 150.768 45.5182 149.073 46.8284C148.866 46.9886 148.165 46.4544 147.643 46.0571C148.821 43.2347 146.515 41.9926 145.074 39.8483C148.228 39.8317 150.401 38.7161 151.141 34.6992C152.713 37.9639 153.886 40.5399 157.506 39.4002C157.468 39.6588 157.429 39.9174 157.391 40.176C156.542 41.2607 155.693 42.3454 154.858 43.6141Z" fill="#F4EFF5"/>
<path d="M123.031 46.1266C122.454 48.2639 121.489 47.7724 120.426 46.3581C120.402 45.3255 120.541 44.6667 120.369 44.112C120.177 43.4911 119.705 42.9646 119.354 42.397C118.991 42.945 118.439 43.4502 118.314 44.052C118.16 44.7904 118.363 45.6095 118.412 46.3937C117.448 47.9545 116.545 48.2299 115.697 46.0494C115.589 42.7724 115.498 39.7043 115.489 36.6359C115.483 34.8953 115.544 34.8951 117.757 34.9501C117.836 36.0434 117.805 37.1856 118.047 38.2612C118.161 38.7705 118.797 39.1525 119.197 39.5922C119.509 39.1719 120.032 38.7816 120.093 38.3252C120.228 37.2946 120.135 36.2313 120.135 34.9356C120.926 34.8488 121.608 34.774 122.987 34.6227C122.987 38.5701 122.987 42.2279 123.031 46.1266Z" fill="#0B0E44"/>
<path d="M135.644 46.6749C134.693 47.0154 133.711 47.1261 132.603 47.0767C132.479 42.9819 132.479 39.0472 132.479 35.1753C136.069 33.8465 139.396 34.8793 140.131 37.4368C140.899 40.11 139.376 42.0476 135.612 43.0835C135.612 44.1842 135.612 45.3146 135.644 46.6749Z" fill="#0C0E45"/>
<path d="M113.843 45.6786C111.48 48.1398 109.727 48.1879 106.934 45.9681C106.622 45.2971 106.466 44.7188 106.149 43.5413C107.451 43.8813 108.386 44.2066 109.347 44.3472C109.952 44.4357 110.594 44.2478 111.22 44.1838C110.851 43.6012 110.549 42.9481 110.086 42.4637C109.829 42.1959 109.29 42.2428 108.898 42.0931C106.881 41.3237 106.27 39.7399 106.709 37.6828C107.154 35.5956 109.218 34.3961 111.442 34.8241C113.485 35.2174 114.237 36.3235 114.035 39.2108C113.077 38.8651 112.244 38.5078 111.38 38.2734C110.836 38.1258 110.246 38.1622 109.677 38.1161C110.042 38.6397 110.297 39.4064 110.789 39.6474C113.946 41.1932 114.595 42.3417 113.843 45.6786Z" fill="#0B0E44"/>
<path d="M130.952 46.0624C128.272 48.4495 126.655 48.377 124.668 45.8833C124.393 43.1651 124.088 40.5529 124.172 37.9543C124.247 35.6295 125.73 34.6339 127.948 34.761C130.129 34.8859 131.51 35.941 131.478 38.2954C131.445 40.8175 131.171 43.3361 130.952 46.0624ZM129.331 40.4803C129.308 40.1331 129.394 39.7168 129.24 39.4519C128.816 38.7219 128.291 38.0553 127.806 37.3636C127.203 38.0877 126.285 38.7249 126.074 39.5571C125.787 40.6884 125.853 42.017 126.127 43.1684C126.309 43.9336 127.117 44.5368 127.646 45.2126C128.2 44.4808 128.893 43.8164 129.261 42.9941C129.52 42.4178 129.336 41.626 129.331 40.4803Z" fill="#0E0E45"/>
<path d="M118.603 46.3945C118.363 45.6094 118.16 44.7903 118.314 44.0519C118.439 43.4501 118.991 42.945 119.354 42.397C119.704 42.9645 120.177 43.4911 120.369 44.1119C120.541 44.6666 120.402 45.3254 120.364 46.1627C119.816 46.3898 119.306 46.3925 118.603 46.3945Z" fill="#E809A9"/>
<path d="M55.6907 199.146C55.0733 200.22 54.4927 201.107 53.7296 202.272C53.2252 201.379 52.8308 200.681 52.2981 199.876C51.9079 198.904 51.4685 198.386 52.3334 197.212C53.1658 196.082 52.5378 193.85 52.7533 192.129C52.8528 191.335 53.4326 190.606 53.7947 189.847C54.1095 190.627 54.5641 191.38 54.7118 192.194C55.0824 194.235 53.8552 196.648 56.0451 198.28C56.0776 198.304 55.8394 198.723 55.6907 199.146Z" fill="#12173B"/>
<path d="M62.7485 193.299C62.9967 195.056 61.8647 196.991 64.1126 198.094C63.4008 199.368 62.6676 200.681 61.7236 202.371C60.824 200.807 60.1522 199.639 59.3337 198.376C60.4813 197.558 60.9702 196.461 60.7164 194.942C60.6167 194.345 60.5791 193.682 60.7259 193.109C61.0095 192.001 61.4441 190.935 61.816 189.851C62.1192 190.926 62.4223 192 62.7485 193.299Z" fill="#08123D"/>
<path d="M155.579 159.687C155.604 164.637 155.627 169.361 155.602 174.085C155.592 175.988 155.053 177.59 152.918 177.864C151.013 178.109 149.703 176.815 149.675 174.506C149.618 169.783 149.676 165.059 149.646 160.335C149.634 158.483 150.109 156.963 152.057 156.63C154.094 156.283 155.207 157.42 155.579 159.687Z" fill="#8C5BF6"/>
<path d="M166.011 161.52C166.055 160.493 165.808 159.425 166.204 158.984C167.075 158.014 168.268 156.769 169.335 156.764C170.213 156.759 171.815 158.342 171.861 159.285C172.112 164.522 172.048 169.779 171.957 175.026C171.925 176.864 170.747 177.904 168.971 177.869C167.017 177.83 166.083 176.503 166.047 174.624C165.966 170.339 166.015 166.051 166.011 161.52Z" fill="#8E5CF9"/>
<path d="M166.312 209.436C166.223 204.025 166.046 198.613 166.095 193.204C166.11 191.46 167.258 190.278 169.094 190.35C171.029 190.425 171.983 191.643 171.994 193.59C172.024 198.496 171.992 203.404 171.74 208.567C169.768 209.027 168.04 209.232 166.312 209.436Z" fill="#8E5CF9"/>
<path d="M166.339 209.62C168.04 209.232 169.767 209.027 171.703 208.809C171.123 209.746 170.435 211.318 169.522 211.475C168.584 211.637 167.426 210.418 166.339 209.62Z" fill="#6948C9"/>
<path d="M155.629 199.35C155.628 202.412 155.649 205.213 155.617 208.014C155.593 210.023 154.782 211.471 152.676 211.486C150.472 211.501 149.607 210.14 149.63 207.916C149.679 203.276 149.657 198.636 149.641 193.997C149.633 191.851 150.404 190.352 152.647 190.351C154.776 190.35 155.525 191.88 155.602 193.837C155.671 195.585 155.625 197.338 155.629 199.35Z" fill="#8B5BF5"/>
<path d="M129.341 40.7054C129.336 41.626 129.52 42.4177 129.261 42.994C128.893 43.8163 128.2 44.4807 127.646 45.2125C127.117 44.5368 126.309 43.9335 126.127 43.1683C125.853 42.017 125.787 40.6884 126.074 39.557C126.285 38.7248 127.203 38.0876 127.807 37.3635C128.291 38.0552 128.816 38.7219 129.24 39.4519C129.394 39.7168 129.308 40.1331 129.341 40.7054Z" fill="#E809A9"/>
</g>
<defs>
<clipPath id="clip0_192_371">
<rect width="259" height="270" fill="white"/>
</clipPath>
</defs>
</svg>
