<svg width="507" height="435" viewBox="0 0 507 435" fill="none" xmlns="http://www.w3.org/2000/svg">
<path d="M152.945 72.0326C153.437 74.2418 153.929 76.451 154.504 79.0329C156.395 79.0329 158.372 79.0329 160.349 79.0329C268.815 79.0327 377.282 78.9993 485.749 79.109C492.759 79.1161 499.707 79.9139 503.939 87.2095C507.33 93.0561 506.528 98.7543 504.215 104.743C497.442 104.882 491.361 104.958 485.317 104.677C486.692 101.754 488.029 99.1875 489.672 96.0361C468.002 96.0361 447.367 95.9865 426.733 96.1603C425.504 96.1706 423.73 97.7199 423.165 98.9812C420.346 105.266 417.847 111.695 414.763 118.065C408.883 117.345 403.476 116.634 398.099 115.546C400.544 108.965 402.959 102.761 405.526 96.1646C380.995 96.1646 357.358 96.1646 333.455 96.1646C331.944 103.494 330.445 110.763 328.489 118.032C322.685 118.021 317.339 118.009 312.047 117.573C313.32 110.208 314.538 103.268 315.755 96.3365C291.529 96.3365 267.465 96.3365 242.947 96.3365C242.947 103.767 242.947 110.899 242.49 118.032C236.782 118.033 231.53 118.032 226.209 117.568C226.139 110.176 226.139 103.249 226.139 96.3037C202.455 96.3037 179.393 96.3037 156.286 96.3037C156.854 103.394 157.4 110.214 157.549 117.123C151.861 117.486 146.57 117.759 141.209 117.591C140.199 109.235 139.18 101.329 138.342 93.4033C137.555 85.9569 136.959 78.4903 136.695 71.0424C142.389 71.379 147.667 71.7058 152.945 72.0326Z" fill="#07B9F5"/>
<path d="M226.279 118.031C231.53 118.032 236.782 118.033 242.564 118.482C242.732 124.796 242.369 130.661 241.99 136.795C264.247 136.795 285.972 136.795 307.38 136.795C308.954 130.379 310.474 124.188 311.993 117.996C317.339 118.009 322.685 118.021 328.553 118.284C329.037 118.704 328.999 118.874 328.798 119.208C328.441 119.617 328.281 119.881 328.139 120.587C327.231 126.234 326.34 131.461 325.419 136.86C346.836 136.86 368.235 136.86 389.477 136.86C392.378 129.792 395.223 122.857 398.068 115.923C403.476 116.634 408.883 117.345 414.705 118.443C412.796 124.773 410.473 130.715 408.003 137.034C424.911 137.034 441.334 136.858 457.75 137.134C463.239 137.226 468.08 137.161 470.737 131.035C477.437 131.028 483.68 131.021 489.923 131.014C484.366 140.473 478.809 149.931 472.69 159.744C465.748 160.396 459.369 160.693 453.054 160.634C454.352 157.994 455.585 155.711 456.961 153.165C438.018 153.165 419.812 153.165 401.735 153.165C399.762 157.891 397.854 162.461 395.488 167.032C389.35 167.023 383.67 167.013 378.052 166.621C379.666 161.923 381.217 157.606 382.86 153.035C363.292 153.035 344.196 152.984 325.102 153.146C323.77 153.157 321.634 154.5 321.277 155.657C320.142 159.338 319.672 163.225 318.489 167.033C312.71 166.665 307.387 166.296 302.087 165.506C302.722 161.256 303.335 157.427 303.989 153.335C283.432 153.335 262.918 153.335 241.945 153.335C241.945 158.099 241.945 162.566 241.488 167.033C235.781 167.033 230.53 167.032 225.209 166.57C225.138 161.852 225.138 157.595 225.138 153.264C204.195 153.264 183.853 153.264 162.908 153.264C163.269 157.704 163.607 161.868 163.549 166.122C157.861 166.485 152.57 166.758 147.207 166.608C146.777 162.81 146.43 159.434 146.057 156.06C144.733 144.098 143.4 132.137 141.964 119.966C141.699 119.479 141.499 119.238 141.203 118.781C141.193 118.364 141.236 118.198 141.279 118.032C146.57 117.759 151.861 117.486 157.76 117.491C158.951 122.427 159.983 127.084 159.981 131.74C159.979 135.904 161.22 137.168 165.403 137.123C184.026 136.919 202.653 137.041 221.278 137.019C222.529 137.018 223.779 136.801 224.854 136.7C225.351 130.179 225.815 124.105 226.279 118.031Z" fill="#0CADF6"/>
<path d="M132.229 292.081C131.596 293.56 130.801 294.993 130.367 296.529C129.694 298.912 130.039 300.83 133.132 301.111C135.39 301.316 137.63 301.993 139.878 301.994C222.701 302.041 305.524 302.007 388.346 302.061C402.012 302.07 410.914 309.07 411.62 323.536C405.861 323.582 400.569 323.308 395.113 322.702C392.951 319.488 390.195 318.959 386.786 318.962C303.082 319.055 219.377 319.093 135.673 318.985C118.917 318.964 108.254 304.179 115.225 289.292C117.224 290.116 119.041 290.758 120.909 290.996C124.668 291.475 128.454 291.732 132.229 292.081Z" fill="#1987FB"/>
<path d="M395.278 323.034C400.57 323.308 405.861 323.582 411.55 323.945C410.772 334.635 405.393 342.287 395.292 346.593C392.879 345.804 390.999 345.084 389.118 345.083C299.513 345.028 209.907 345.028 120.301 345.082C118.223 345.083 116.146 345.777 114.068 346.148C101.702 342.56 92.3507 335.174 86.0938 323.906C85.1471 322.201 84.2624 320.462 83.7705 318.386C90.1153 317.702 96.0387 317.37 102.104 317.348C111.791 329.581 124.61 333.142 139.336 333.112C219.3 332.949 299.266 333.006 379.231 333.081C386.879 333.088 392.596 330.647 395.278 323.034Z" fill="#1B81FC"/>
<path d="M114.266 346.48C116.146 345.777 118.223 345.083 120.301 345.082C209.907 345.028 299.513 345.028 389.118 345.083C390.999 345.084 392.879 345.804 394.935 346.528C391.096 347.923 387.13 349.528 383.052 349.903C377.338 350.427 371.54 350.035 365.207 350.035C370.678 360.409 373.862 370.798 370.561 382.606C364.784 382.7 359.531 382.367 354.21 381.61C354.146 380.521 353.995 379.809 354.18 379.199C358 366.616 348.273 349.712 331.995 349.977C316.326 350.232 305.419 358.518 295.754 370.067C289.183 370.038 283.087 370.019 276.991 370C281.008 363.422 285.026 356.845 289.035 350.28C266.3 350.28 243.122 350.28 219.64 350.28C221.115 353.941 222.594 357.611 223.554 361.658C220.246 362.035 217.423 361.761 214.681 362.115C212.099 362.448 209.603 363.444 206.753 363.982C202.617 351.538 187.804 348.163 177.122 350.862C168.338 353.082 161.461 357.907 154.817 363.993C147.93 363.604 141.461 363.301 134.992 362.998C137.729 358.84 140.466 354.683 142.813 351.117C133.821 349.751 124.143 348.281 114.266 346.48Z" fill="#1C7DFC"/>
<path d="M447.229 204.075C445.108 208.306 442.986 212.536 440.123 216.889C433.253 217.006 427.124 217 421.052 216.633C421.928 214.598 422.747 212.925 423.603 211.177C408.422 211.177 393.484 211.177 378.947 211.177C377.598 214.015 376.379 216.581 374.886 218.868C369.168 218.071 363.723 217.553 358.211 216.655C358.79 214.683 359.438 213.091 360.272 211.039C343.973 211.039 328.185 210.973 312.402 211.18C311.292 211.195 309.749 213.044 309.213 214.367C308.214 216.835 307.809 219.543 306.86 221.908C301.373 221.109 296.182 220.552 291.044 219.572C291.425 216.601 291.753 214.053 292.102 211.338C275.027 211.338 258.193 211.338 240.946 211.338C240.946 214.438 240.946 217.236 240.496 220.034C234.789 220.367 229.533 220.7 224.207 220.579C224.136 217.198 224.136 214.272 224.136 211.233C205.512 211.233 187.484 211.233 169.21 211.233C169.467 214.309 169.707 217.171 169.496 220.034C163.789 220.367 158.534 220.7 153.207 220.602C152.517 214.459 151.898 208.747 151.737 203.035C247.416 203.035 342.636 203.025 437.857 203.079C440.981 203.081 444.105 203.728 447.229 204.075Z" fill="#119FF8"/>
<path d="M132.545 291.939C128.454 291.732 124.668 291.475 120.909 290.996C119.041 290.758 117.224 290.116 115.253 288.929C122.371 272.235 135.752 265.254 152.309 264.198C164.527 263.42 176.842 264.146 189.29 264.541C191.509 265.266 193.549 265.982 195.591 265.986C233.471 266.066 271.352 266.06 309.232 266.073C304.518 276.214 295.899 280.838 285.387 280.909C241.809 281.206 198.227 280.932 154.648 281.12C145.922 281.157 138.194 284.305 132.545 291.939Z" fill="#1690FA"/>
<path d="M447.546 203.934C444.105 203.728 440.981 203.081 437.856 203.079C342.636 203.025 247.416 203.035 151.665 202.617C150.85 199.144 150.564 196.089 150.735 193.035C156.443 193.035 161.695 193.035 167.189 193.407C185.694 193.86 203.956 193.953 222.218 193.981C222.904 193.983 223.592 193.364 224.735 193.035C230.443 193.035 235.695 193.035 241.188 193.407C259.027 193.86 276.622 193.953 294.218 193.981C294.904 193.983 295.592 193.364 296.736 193.035C302.54 193.047 307.887 193.06 313.406 193.467C330.43 193.919 347.282 194.021 364.133 193.945C365.424 193.939 366.709 192.673 368.413 192.079C374.535 192.454 380.241 192.744 386.188 193.406C401.523 193.862 416.616 193.993 431.708 193.94C432.833 193.936 433.952 192.621 435.409 192.166C441.812 192.621 447.879 192.827 453.946 193.034C451.918 196.62 449.89 200.206 447.546 203.934Z" fill="#10A1F8"/>
<path d="M0.27836 29.0317C-2.24083 14.7949 12.7691 -0.0142163 27.9098 0.0163167C56.379 0.0737357 84.8491 -0.0911888 113.317 0.0810712C129.596 0.179575 143.12 8.88856 147.945 26.6937C148.241 27.7854 148.075 29.0024 147.703 30.5856C141.952 31.3436 136.62 31.6771 131.213 31.6361C128.584 22.4521 121.541 17.0423 112.535 17.0383C85.2946 17.0262 58.054 17.0282 30.8133 17.0372C22.3338 17.04 17.4354 21.6495 16.5482 29.9438C10.8603 29.5807 5.56931 29.3062 0.27836 29.0317Z" fill="#01CCF2"/>
<path d="M0.204737 29.462C5.56972 29.3062 10.8607 29.5807 16.6293 30.327C18.0556 34.6306 20.882 35.0767 24.2546 35.0688C50.4026 35.0069 76.5508 35.0259 102.699 35.0408C110.294 35.0451 114.105 37.1674 114.899 42.7984C116.218 52.1667 116.961 61.6164 117.489 71.0327C111.781 71.0329 106.53 71.0322 101.279 71.0315C100.391 64.915 99.5039 58.7985 98.5225 52.0344C97.1253 52.0344 95.3555 52.0344 93.5857 52.0344C69.7854 52.0344 45.9841 51.9 22.1853 52.0876C9.09072 52.1908 -1.29709 40.535 0.204737 29.462Z" fill="#04C4F3"/>
<path d="M428.158 237.144C425.19 242.559 422.221 247.974 418.679 253.702C413.474 253.688 408.843 253.089 404.21 253.078C368.233 252.999 332.255 253.034 296.101 252.686C293.894 251.571 291.87 250.151 289.835 250.135C269.063 249.971 248.29 250.034 227.517 250.034C207.076 250.034 186.635 250.05 166.195 250.025C159.349 250.017 157.207 248.297 156.47 242.066C204.603 242.05 252.261 242.073 299.918 241.945C302.331 241.939 304.741 240.624 307.474 240.066C308.642 241.387 309.783 242.449 310.28 243.755C311.629 247.302 313.921 248.402 317.709 248.13C323.139 247.74 328.689 247.469 334.058 248.16C342.531 249.25 348.366 247.17 350.47 238.003C356.373 238.365 361.802 238.719 367.18 239.456C366.274 242.489 365.419 245.139 364.486 248.031C373.295 248.031 381.63 247.552 389.884 248.164C398.26 248.785 405.114 247.723 408.103 238.599C408.295 238.012 408.878 237.553 409.735 237.035C412.17 237.035 414.148 237.024 416.127 237.038C420.137 237.066 424.148 237.108 428.158 237.144Z" fill="#1495F9"/>
<path d="M354.279 382.034C359.531 382.367 364.784 382.7 370.491 383.033C367.305 402.521 356.514 417.25 339.489 426.707C324.166 435.218 307.734 437.508 291.45 428.674C281.292 423.164 275.345 414.283 273.421 402.296C279.14 401.445 284.543 401.24 290.023 401.395C293.402 405.65 296.072 410.453 300.124 413.269C311.881 421.439 327.796 415.18 337.718 406.915C345.699 400.268 351.101 391.887 354.279 382.034Z" fill="#2170FE"/>
<path d="M222.231 392.075C218.926 398.161 216.222 404.683 212.195 410.247C202.474 423.675 188.717 431.203 172.567 433.686C156.15 436.21 135.327 428.551 128.87 409.226C127.249 404.373 126.984 399.067 126.528 393.511C132.291 393.382 137.622 393.71 143.022 394.459C143.692 397.708 143.804 400.759 144.977 403.325C151.251 417.055 165.341 420.228 180.399 413.868C190.788 409.48 198.398 401.737 204.468 392.005C210.706 392.034 216.469 392.055 222.231 392.075Z" fill="#2170FE"/>
<path d="M296.278 253.033C332.255 253.034 368.233 252.999 404.21 253.078C408.842 253.089 413.474 253.688 418.521 254.023C414.092 261.987 407.092 265.234 397.728 265.137C370.242 264.85 342.752 265.023 315.263 265.063C313.501 265.065 311.739 265.47 309.604 265.88C271.351 266.06 233.471 266.066 195.591 265.986C193.549 265.982 191.508 265.266 189.754 264.47C220.975 264.052 251.908 264.053 282.842 264.03C290.097 264.025 294.816 260.123 296.278 253.033Z" fill="#1593FA"/>
<path d="M84.2734 277.039C91.0404 261.188 102.004 249.157 117.422 241.461C120.806 239.772 119.889 237.313 120.662 234.447C126.441 233.7 131.693 233.366 137.018 233.473C137.416 236.327 137.657 238.756 138.081 241.152C139.135 247.104 137.14 251.656 131.969 253.6C118.93 258.501 109.46 267.458 101.831 278.911C95.718 278.178 89.9957 277.608 84.2734 277.039Z" fill="#1593FA"/>
<path d="M114.279 184.031C112.229 167.876 110.159 151.724 108.159 135.563C107.936 133.761 108.112 131.909 108.368 129.379C111.95 128.145 115.257 127.534 118.589 127.115C120.424 126.883 122.3 126.974 124.523 127.145C125.733 135.8 126.517 144.234 127.438 152.654C128.547 162.786 129.771 172.906 130.549 183.122C124.861 183.485 119.57 183.758 114.279 184.031Z" fill="#0DABF7"/>
<path d="M124.158 126.919C122.3 126.974 120.424 126.883 118.589 127.114C115.257 127.534 111.95 128.145 108.349 128.939C107.474 125.943 106.695 122.704 106.323 119.42C104.532 103.588 102.851 87.743 101.205 71.4672C106.53 71.0322 111.781 71.0329 117.564 71.4603C118.782 78.544 119.427 85.2056 120.166 91.8567C121.466 103.548 122.824 115.232 124.158 126.919Z" fill="#08B8F5"/>
<path d="M114.206 184.46C119.57 183.758 124.861 183.485 130.623 183.547C133.044 200.266 134.995 216.649 136.945 233.032C131.693 233.366 126.441 233.7 120.734 234.033C119.245 227.336 118.036 220.661 117.217 213.938C116.04 204.273 115.146 194.574 114.206 184.46Z" fill="#119EF8"/>
<path d="M84.0997 277.386C89.9953 277.608 95.7176 278.178 101.674 279.251C101.15 281.504 100.273 283.213 99.6516 285.011C95.8482 296.005 95.3941 306.781 101.962 317.037C96.0383 317.37 90.1149 317.702 83.7346 318.034C78.3586 304.517 78.8059 291.087 84.0997 277.386Z" fill="#188AFB"/>
<path d="M131.289 32.0106C136.621 31.6771 141.952 31.3436 147.756 30.9991C148.817 34.241 149.595 37.4727 149.96 40.7504C151.087 50.8777 152.057 61.0224 153.016 71.5965C147.667 71.7058 142.389 71.379 136.624 70.6172C135.461 64.2075 134.852 58.2243 134.09 52.2605C133.228 45.5015 132.229 38.7598 131.289 32.0106Z" fill="#04C2F4"/>
<path d="M142.954 394.038C137.622 393.71 132.291 393.382 126.487 393.061C125.349 382.176 128.521 372.358 134.673 363.142C141.461 363.301 147.93 363.604 154.678 364.305C147.048 372.883 142.316 382.362 142.954 394.038Z" fill="#1E79FD"/>
<path d="M289.945 401.034C284.543 401.239 279.14 401.445 273.4 401.898C271.361 394.262 271.435 386.441 273.846 378.691C274.705 375.929 275.511 373.15 276.666 370.189C283.087 370.019 289.182 370.038 295.604 370.393C290.159 380.085 287.365 390.029 289.945 401.034Z" fill="#1F75FE"/>
<path d="M222.563 391.872C216.469 392.055 210.706 392.034 204.528 391.632C208.621 382.601 210.119 373.623 207.069 364.149C209.603 363.444 212.099 362.448 214.681 362.115C217.423 361.76 220.246 362.035 223.49 362.034C227.119 372.037 225.301 381.864 222.563 391.872Z" fill="#1E79FD"/>
<path d="M490.09 130.696C483.68 131.021 477.437 131.028 470.771 130.682C475.325 121.898 480.302 113.466 485.279 105.035C491.361 104.958 497.442 104.882 503.871 104.945C499.565 113.515 494.911 121.946 490.09 130.696Z" fill="#09B3F6"/>
<path d="M452.989 160.991C459.369 160.693 465.748 160.396 472.537 160.065C468.566 167.971 464.186 175.911 459.325 183.643C457.353 182.97 455.878 182.166 454.37 182.101C449.918 181.909 445.454 182.01 441.048 181.634C445.063 174.511 449.026 167.751 452.989 160.991Z" fill="#0EA6F7"/>
<path d="M428.481 236.996C424.148 237.108 420.137 237.066 416.127 237.038C414.148 237.024 412.17 237.035 409.77 236.684C413.231 229.888 417.113 223.441 420.994 216.995C427.123 217 433.253 217.006 439.808 217.05C436.423 223.675 432.613 230.261 428.481 236.996Z" fill="#129BF9"/>
<path d="M440.995 181.996C445.454 182.01 449.918 181.909 454.37 182.101C455.877 182.166 457.353 182.97 459.001 183.803C457.521 186.913 455.885 189.655 454.097 192.716C447.879 192.827 441.812 192.621 435.55 191.846C437.236 188.183 439.115 185.089 440.995 181.996Z" fill="#0FA3F8"/>
<path d="M395.488 167.032C392.664 175.45 389.382 183.868 386.023 192.66C380.241 192.744 374.535 192.454 368.414 192.079C371.112 183.783 374.227 175.573 377.666 167.183C383.67 167.013 389.35 167.023 395.488 167.032Z" fill="#0FA3F8"/>
<path d="M318.173 169.193C316.754 177.012 315.335 184.831 313.575 192.861C307.887 193.06 302.54 193.047 296.736 193.035C297.974 184.138 299.668 175.241 301.714 166.136C307.387 166.296 312.709 166.665 318.489 167.033C318.989 167.194 319.033 167.356 318.861 167.934C318.437 168.603 318.28 168.884 318.173 169.193Z" fill="#0FA3F8"/>
<path d="M163.548 166.122C164.993 174.749 166.041 183.466 167.018 192.609C161.695 193.035 156.443 193.035 150.735 193.035C149.23 184.654 148.181 176.274 147.206 167.462C152.57 166.758 157.861 166.485 163.548 166.122Z" fill="#0FA3F8"/>
<path d="M241.488 167.033C241.66 175.411 241.375 183.79 241.018 192.602C235.695 193.035 230.444 193.035 224.736 193.035C224.564 184.676 224.848 176.317 225.206 167.495C230.53 167.032 235.781 167.033 241.488 167.033Z" fill="#0FA3F8"/>
<path d="M328.798 119.208C328.862 119.355 328.763 119.668 328.41 120.074C328.281 119.881 328.441 119.617 328.798 119.208Z" fill="#07B9F5"/>
<path d="M141.964 119.966C141.775 119.977 141.479 119.778 141.22 119.306C141.499 119.238 141.699 119.479 141.964 119.966Z" fill="#07B9F5"/>
<path d="M156.47 242.066C155.372 238.853 154.62 235.651 154.164 232.406C153.675 228.919 153.465 225.393 153.206 221.459C158.533 220.7 163.789 220.367 169.569 220.454C170.434 223.279 171.187 225.713 171.022 228.082C170.738 232.164 172.406 233.178 176.243 233.111C188.025 232.903 199.814 233.035 211.599 233.035C215.686 233.035 219.773 233.035 224.277 233.035C224.277 228.619 224.277 224.826 224.277 221.034C229.533 220.7 234.789 220.367 240.568 220.495C241.091 224.885 241.091 228.816 241.091 232.878C256.968 232.878 272.224 232.878 287.587 232.878C288.732 228.548 289.862 224.272 290.992 219.995C296.182 220.552 301.373 221.109 306.842 222.328C306.909 224.408 306.484 225.831 306.525 227.241C306.648 231.469 302.372 235.933 307.152 239.919C304.741 240.624 302.332 241.939 299.918 241.945C252.261 242.073 204.604 242.05 156.47 242.066Z" fill="#1398F9"/>
<path d="M374.886 218.868C372.73 225.672 370.3 232.198 367.551 238.898C361.803 238.719 356.373 238.365 350.471 238.003C352.649 231.23 355.301 224.466 358.116 217.369C363.723 217.553 369.168 218.071 374.886 218.868Z" fill="#129AF9"/>
<path d="M318.444 169.102C318.28 168.884 318.437 168.603 318.822 168.183C318.904 168.348 318.809 168.68 318.444 169.102Z" fill="#0CADF6"/>
</svg>
