<svg width="265" height="217" viewBox="0 0 265 217" fill="none" xmlns="http://www.w3.org/2000/svg">
<path d="M177.186 75.414C177.879 79.616 178.811 83.7873 179.208 88.0272C179.792 94.2636 181.106 100.796 180.138 106.765C177.672 121.973 178.197 138.092 171.096 152.021C169.71 154.739 168.208 157.447 166.409 159.792C159.999 168.151 151.889 169.833 143.268 164.765C136.692 160.9 131.768 154.836 127.473 148.037C117.261 131.87 111.504 113.444 107.965 94.0039C104.615 75.5998 103.505 57.0324 106.206 38.3408C107.575 28.8672 109.786 19.708 114.447 11.645C118.953 3.84823 124.873 -1.05299 133.391 0.19292C138.511 0.941812 142.792 3.92236 146.666 7.70486C148.61 9.60374 150.643 11.5424 152.118 13.9048C157.561 22.6179 163.568 31.0272 167.887 40.4734C172.74 51.0864 175.597 62.8401 176.951 75.2778C175.179 71.8925 172.011 71.3236 168.95 70.2719C168.746 68.4401 168.555 66.8434 168.558 65.1907C169.853 63.9724 171.982 62.6197 171.856 61.6841C171.506 59.0959 169.336 60.3042 167.833 60.2674C167.482 60.2589 167.128 60.4088 166.716 60.2375C165.234 55.575 163.811 51.1607 162.358 46.5143C161.068 43.2273 159.938 40.0869 158.523 37.1337C154.241 28.2019 149.373 19.813 141.825 14.1068C134.06 8.23585 125.532 9.174 120.456 17.2553C117.666 21.6971 115.471 26.8927 113.935 32.1208C110.168 44.9439 110.278 58.3463 110.656 71.9519C110.808 73.268 110.983 74.3489 111.139 75.7085C111.309 78.0791 111.31 80.2217 111.715 82.254C113.443 90.9213 115.29 99.5559 117.133 108.422C120.829 121.487 125.51 133.735 132.96 144.254C136.064 148.635 139.327 152.949 144.521 154.594C146.584 155.469 148.475 156.241 150.607 157.018C154.137 157.289 157.07 156.233 159.816 153.769C161.128 152.555 162.439 151.53 163.348 150.144C169.889 140.159 171.829 128.411 172.669 115.96C172.864 112.642 173.037 109.622 173.223 106.362C173.068 105.231 172.902 104.339 172.735 103.151C172.368 96.902 172.001 90.9499 171.795 84.8764C176.039 83.4325 177.143 79.8299 177.186 75.414Z" fill="#F1EAEB"/>
<path d="M63.2793 132.168C61.1308 132.372 58.9824 132.575 56.5385 132.533C54.7899 129.725 53.1767 127.265 51.9111 124.581C45.968 111.976 44.4796 98.5727 46.9323 84.5192C48.0148 84.01 49.0973 83.5007 50.5446 83.1037C51.2263 84.074 51.5509 84.9284 51.8588 85.7909C53.1108 89.2987 54.122 92.958 55.6588 96.2854C58.3257 102.06 64.4435 103.119 67.1962 98.4085C67.9677 97.0883 68.1693 95.2839 68.532 93.6706C69.4989 89.3689 70.4211 89.1222 73.8909 90.3848C75.9323 91.1275 78.7858 91.3187 80.4965 90.1715C82.6532 88.7253 83.0867 85.4676 82.6257 82.2425C81.7909 76.4024 79.3744 71.5586 76.3181 67.0305C84.1891 59.8772 91.514 52.0563 97.9845 42.9373C98.1617 42.9001 98.1479 42.8802 98.1479 42.8802C97.8249 46.3381 97.5018 49.7959 96.9708 53.6422C93.3517 60.6954 91.4205 67.5318 93.83 75.4033C96.4505 83.9641 95.4166 86.5553 88.5857 90.5985C88.505 90.6463 88.4207 90.6856 88.3402 90.7337C83.5224 93.6115 81.9499 97.7893 83.2759 104.301C82.2389 106.456 81.2373 108.404 80.2356 110.353C80.1883 109.494 80.141 108.635 80.0937 107.776C81.0585 109.518 82.0232 111.26 82.8148 113.101C81.4056 114.536 80.1696 115.872 78.8 117.074C78.345 116.386 78.0236 115.833 77.6599 115.206C77.1671 115.874 76.7267 116.472 76.0326 117.023C72.8063 116.396 70.5102 117.653 69.4995 120.94C68.1607 125.295 66.0387 128.946 63.2793 132.168Z" fill="#FD515E"/>
<path d="M83.1603 104.136C81.79 97.8306 83.3728 93.6521 88.2224 90.7738C88.3034 90.7257 88.3883 90.6864 88.4695 90.6386C95.3454 86.5947 96.3861 84.0031 93.7483 75.4408C91.323 67.5681 93.2669 60.7305 96.8423 53.9252C96.9529 59.1895 96.8851 64.5937 96.9245 69.9968C96.9315 70.9505 97.3865 71.8997 97.8666 73.2158C98.7546 87.2792 101.288 100.545 104.926 113.556C104.909 114.705 104.543 116.054 104.93 116.973C108.449 125.315 112.097 133.585 115.716 141.869C116.027 142.58 116.407 143.25 117.232 144.883C99.657 135.502 82.0177 131.242 63.251 132.27C65.7741 128.993 67.9101 125.341 69.2577 120.986C70.2751 117.698 72.5863 116.44 75.7074 117.242C74.439 119.942 77.252 119.729 77.6675 121.29C76.8302 119.357 80.8939 119.594 78.7539 117.253C79.998 115.916 81.2421 114.58 82.8025 113.28C83.4557 114.271 83.7927 115.225 83.8952 115.516C85.6117 113.227 87.4192 110.818 88.815 108.957C87.3212 106.838 85.4993 104.253 83.9055 101.993C83.8272 102.218 83.4937 103.177 83.1603 104.136Z" fill="#F63B4D"/>
<path d="M46.6556 84.4611C44.4143 98.5376 45.8927 111.985 51.7959 124.631C53.053 127.324 54.6553 129.792 56.1625 132.573C47.1323 134.075 38.0382 135.368 28.6512 136.437C23.8299 128.822 20.7405 120.647 20.2602 111.533C19.9392 105.442 20.6105 99.2786 20.8377 93.1477C23.961 91.9178 27.1369 89.5143 30.1963 89.706C36.2825 90.0873 41.0611 86.2248 46.6556 84.4611Z" fill="#F3EBEB"/>
<path d="M48.8963 205.867C46.7176 201.095 44.3146 196.438 42.4227 191.519C40.4852 186.48 39.0482 181.183 37.6235 175.747C42.2931 175.451 44.8115 173.891 45.3856 170.011C45.7382 167.628 45.2881 165.02 44.9102 162.573C44.1917 157.92 44.1364 154.693 48.6931 153.094C51.1484 152.233 53.7163 150.722 54.1013 147.468C54.558 143.607 54.3256 139.638 54.3919 135.715C55.9879 135.531 57.5839 135.346 59.379 135.138C59.853 139.038 60.3006 142.72 60.5884 146.717C55.6864 148.588 55.3263 148.96 56.3232 154.398C57.0095 158.141 58.2631 161.745 59.3242 165.63C60.0925 166.193 60.7999 166.536 61.4592 167.118C60.621 170.263 60.6013 172.987 62.266 175.633C63.1353 177.015 63.7828 178.689 64.1772 180.345C64.9198 183.461 63.0095 185.295 61.198 187.022C60.7994 186.361 60.5263 185.841 60.3071 185.423C59.471 186.509 58.654 187.439 58.0014 188.505C57.8339 188.779 58.1852 189.478 58.1276 190.131C57.7621 192.285 57.117 194.399 57.4548 196.275C58.5658 202.445 56.1332 206.594 50.7936 205.874C50.1694 205.79 49.5291 205.865 48.8963 205.867Z" fill="#509CFE"/>
<path d="M247.006 77.6153C248.097 77.6154 248.92 77.6152 249.743 77.6156C254.086 77.6177 256.938 82.606 255.226 87.345C254.969 88.0583 254.178 89.0139 253.639 89.0089C248.549 88.9619 243.46 88.5591 238.373 88.6167C235.283 88.6517 234.377 86.2447 233.924 83.6996C231.425 69.6539 229.074 55.5721 226.73 41.4896C226.235 38.5118 225.663 35.467 225.749 32.4773C225.793 30.96 226.924 28.8399 228.08 28.127C232.223 25.5731 236.588 23.5063 240.867 21.2507C242.848 20.2065 244.13 20.9716 245.012 23.2137C247.12 28.5752 245.77 32.3022 241.011 34.1716C239.561 34.7411 238.163 35.4888 236.717 36.0733C235.278 36.6548 233.809 37.1338 232.312 37.6726C233.023 41.8018 233.864 45.7532 234.332 49.7635C234.6 52.0596 235.394 52.3043 237.061 51.8511C239.509 51.1857 241.982 50.4767 244.475 50.2581C246.555 50.0758 248.104 52.8024 248.042 56.6408C248.006 58.855 247.842 61.3484 245.02 61.7074C242.26 62.0587 239.532 62.7541 236.627 63.3306C237.438 68.1149 238.249 72.8955 239.049 77.6154C241.704 77.6154 244.221 77.6154 247.006 77.6153Z" fill="#1B38AB"/>
<path d="M49.074 206.483C49.6584 206.274 50.3005 206.199 50.9265 206.283C56.2814 207.007 58.721 202.839 57.6068 196.642C57.2681 194.757 57.915 192.634 58.4451 190.557C59.3168 191.335 59.8537 192.178 60.3051 192.887C61.207 191.695 62.0831 190.537 62.9793 189.353C62.5676 188.839 62.0271 188.164 61.4865 187.489C63.1774 185.613 65.0933 183.771 64.3485 180.641C63.953 178.979 63.3037 177.297 62.4318 175.909C60.7624 173.251 60.7821 170.515 61.8207 167.268C63.0289 166.734 63.991 166.529 64.9531 166.323C67.1779 173.001 69.2527 179.755 71.7091 186.317C72.5671 188.609 74.696 190.236 75.6676 192.5C77.848 197.581 78.8526 202.926 77.0182 208.573C75.8846 212.063 70.7208 217.447 67.9935 216.97C60.8763 215.726 53.5202 214.772 49.074 206.483Z" fill="#318CEE"/>
<path d="M20.4943 93.5569C20.4813 99.5629 19.8054 105.633 20.1286 111.632C20.6123 120.608 23.723 128.661 28.3539 136.138C25.202 136.812 21.9891 137.516 18.7531 137.712C14.8049 137.951 11.0432 136.475 8.27898 133.357C5.83126 130.595 2.26961 129.262 1.04165 124.789C-2.68466 111.218 3.86786 98.0271 16.2051 94.8506C17.5759 94.4976 18.9213 94.0129 20.4943 93.5569ZM8.81354 126.809C10.9931 127.412 11.7342 125.96 11.5011 123.885C11.0265 119.659 10.4381 115.437 9.64069 111.28C9.42598 110.16 8.36086 108.583 7.55978 108.476C6.73208 108.365 5.47663 109.571 4.88269 110.575C1.93403 115.562 3.70308 123.276 8.81354 126.809ZM15.7391 128.546C14.6197 128.077 13.2664 126.848 12.6513 128.973C12.4759 129.579 13.456 131.043 14.1876 131.472C14.9027 131.89 15.9771 131.488 16.8938 131.446C16.6147 130.571 16.3355 129.696 15.7391 128.546Z" fill="#FD525F"/>
<path d="M105.151 113.641C101.34 100.544 98.8141 87.2374 98.1482 73.2151C98.3931 71.5683 98.8846 70.1994 98.8705 68.8377C98.7278 55.1003 99.6981 41.5956 104.596 28.8533C104.929 27.9859 105.321 27.1446 105.738 26.328C105.864 26.0828 106.168 25.9625 106.13 25.9926C98.0758 71.893 105.261 114.362 128.138 153.979C126.992 152.914 126.151 152.244 125.421 151.436C116.961 142.075 111.643 130.404 107.396 117.933C106.886 116.435 106.032 115.098 105.151 113.641Z" fill="#BFBCBC"/>
<path d="M188.37 48.9099C190.589 48.2604 191.634 49.4076 192.631 51.3681C197.545 61.0307 202.596 70.5994 207.582 80.2125C207.904 80.832 208.322 81.5617 208.29 82.2133C208.221 83.6224 208.19 85.9551 207.6 86.2091C206.51 86.6785 204.871 86.2679 203.76 85.5761C202.837 85.0011 202.262 83.5518 201.673 82.3939C199.688 78.491 198.338 77.7425 194.517 78.6371C193.993 78.7599 193.47 79.1951 192.975 79.1395C189.37 78.7348 186.39 79.0956 186.055 84.5708C186.019 85.1616 183.628 86.0597 182.436 85.8766C181.65 85.7558 180.36 83.8114 180.493 82.9259C181.212 78.1389 182.362 73.4422 183.253 68.6862C184.182 63.7231 184.864 58.6937 185.907 53.7656C186.268 52.0627 187.389 50.577 188.37 48.9099ZM195.139 69.8671C193.778 67.3398 192.416 64.8125 190.681 61.5914C189.984 65.9147 189.442 69.2703 188.89 72.6921C191.361 72.2312 193.624 71.8092 196.091 71.349C195.673 70.7461 195.505 70.5039 195.139 69.8671Z" fill="#1B38AB"/>
<path d="M207.98 59.2817C207.183 54.1239 206.359 49.2543 205.683 44.3563C205.509 43.0966 205.474 41.5286 205.97 40.5008C206.47 39.4628 207.815 38.1875 208.597 38.3456C209.568 38.542 210.898 39.9594 211.11 41.098C212.907 50.7908 214.491 60.5386 216.125 70.2734C216.576 72.9626 216.977 75.6636 217.411 78.4244C220.308 78.4244 223.197 78.6628 226.043 78.3508C228.431 78.0891 229.81 79.5834 230.325 81.6896C230.769 83.5044 230.852 86.4552 229.946 87.4493C228.905 88.5928 226.6 88.3387 224.845 88.3278C222.419 88.3128 219.964 87.5739 217.576 87.8372C213.846 88.2487 212.284 85.1749 211.756 81.9316C210.54 74.4666 209.262 67.0159 207.98 59.2817Z" fill="#1B38AB"/>
<path d="M257.014 69.6724C255.782 64.2844 254.516 59.1437 253.59 53.92C251.933 44.5724 250.43 35.1858 248.982 25.7903C248.632 23.5213 248.551 21.1305 248.744 18.8419C248.827 17.8594 249.872 16.3279 250.578 16.2489C251.422 16.1544 252.948 17.1395 253.178 18.0173C254.383 22.6122 255.421 27.2855 256.238 31.998C258.04 42.3966 259.688 52.8322 261.364 63.2604C261.595 64.7019 261.822 66.2124 261.689 67.6446C261.583 68.7772 261.074 70.5948 260.472 70.7613C259.473 71.0376 258.257 70.232 257.014 69.6724Z" fill="#1B38AB"/>
<path d="M71.5117 70.7467C72.2528 70.1224 72.9939 69.4981 74.1023 68.8683C78.679 72.9813 80.5617 78.4727 80.6978 84.6518C80.7789 88.3326 78.1664 89.7876 75.2471 88.1937C70.0431 85.3525 67.9879 86.4836 66.6299 92.9353C66.5223 93.4464 66.41 93.9562 66.2947 94.465C65.2468 99.0916 62.3057 100.103 59.2992 96.8748C55.3872 92.6737 54.2645 87.0495 53.4363 81.2744C54.0645 80.9448 54.6927 80.6152 55.6845 80.3306C56.7013 81.7116 57.2246 83.1697 58.0422 84.351C58.9498 85.6624 60.1261 86.7212 61.1854 87.89C62.2009 86.5777 63.5412 85.4448 64.1633 83.9151C65.3966 80.8824 66.4892 80.1825 68.9368 81.6713C71.5767 83.277 73.2984 82.1868 73.0852 78.634C72.9257 75.9752 72.0619 73.3737 71.5117 70.7467Z" fill="#FD515E"/>
<path d="M45.6976 136.452C47.731 136.134 49.7643 135.816 52.0226 135.787C53.8495 145.476 53.1894 147.13 46.1799 151.524C43.684 153.088 42.1004 155.355 42.4767 158.874C42.7865 161.772 43.3496 164.644 43.5117 167.55C43.6773 170.518 42.0438 172.424 39.4858 172.698C38.5888 172.793 37.6833 172.782 36.7817 172.82C36.0876 170.008 35.3935 167.196 34.8972 164.096C38.7005 162.051 39.2619 160.588 38.3971 155.61C37.8882 152.682 37.3328 149.429 40.375 148.002C45.0515 145.81 46.3918 141.845 45.6976 136.452Z" fill="#509CFE"/>
<path d="M45.518 136.437C46.4671 141.965 45.112 146.005 40.3836 148.239C37.3076 149.692 37.8691 153.006 38.3836 155.99C39.2581 161.062 38.6904 162.552 34.8364 164.374C33.1071 155.942 31.5865 147.48 29.9897 138.593C35.5051 137.803 40.388 137.103 45.518 136.437Z" fill="#318CEE"/>
<path d="M53.1645 81.4489C54.1844 87.2104 55.3111 92.8792 59.2372 97.1136C62.2545 100.368 65.2063 99.3479 66.258 94.6847C66.3736 94.1719 66.4864 93.658 66.5943 93.1429C67.9572 86.6401 70.0198 85.5 75.2426 88.3638C78.1724 89.9703 80.7943 88.5038 80.7129 84.7938C80.5763 78.5657 78.6869 73.0308 74.2623 68.8323C74.7196 68.1807 75.3771 67.5764 76.2092 66.9192C79.4511 71.4141 81.8763 76.2789 82.7141 82.1442C83.1767 85.3833 82.7417 88.6551 80.5773 90.1075C78.8603 91.2597 75.9965 91.0677 73.9478 90.3217C70.4655 89.0537 69.54 89.3014 68.5696 93.6218C68.2057 95.242 68.0033 97.0542 67.229 98.3802C64.4664 103.111 58.3266 102.047 55.65 96.2479C54.1077 92.9061 53.0929 89.2309 51.8364 85.7079C51.5274 84.8417 51.2016 83.9837 50.71 82.9779C51.3495 82.392 52.1627 81.9501 53.1645 81.4489Z" fill="#F63B4D"/>
<path d="M71.2664 70.8174C72.0126 73.4671 72.8866 76.1359 73.048 78.8636C73.2637 82.5084 71.5216 83.6268 68.8504 81.9795C66.3737 80.4522 65.2682 81.1702 64.0202 84.2814C63.3907 85.8508 62.0345 87.013 61.0069 88.3593C59.9351 87.1602 58.7449 86.074 57.8265 84.7286C56.9991 83.5167 56.4696 82.0209 55.6174 80.595C60.643 77.314 65.86 74.0883 71.2664 70.8174Z" fill="#F63B4D"/>
<path d="M59.5665 165.674C58.5616 161.948 57.3018 158.286 56.6122 154.483C55.6104 148.957 55.9723 148.579 60.9339 146.925C61.7359 146.695 62.3706 146.625 62.9424 146.365C66.327 144.826 67.1335 145.209 68.1582 149.333C66.1601 152.066 63.1304 153.775 64.4708 158.054C64.5926 158.443 63.8509 159.213 63.4952 159.793C63.1391 160.374 62.4034 160.993 62.4581 161.503C62.7452 164.178 61.2109 164.94 59.5665 165.674Z" fill="#FDCC3C"/>
<path d="M37.0781 173.174C37.9493 172.914 38.8458 172.925 39.734 172.828C42.2667 172.552 43.8841 170.629 43.7201 167.635C43.5596 164.704 43.002 161.807 42.6953 158.884C42.3228 155.334 43.8907 153.047 46.362 151.469C53.3023 147.036 53.9559 145.368 52.3622 135.633C52.9392 135.287 53.5238 135.195 54.3288 135.138C54.4838 139.14 54.7132 143.156 54.2624 147.061C53.8824 150.353 51.3479 151.881 48.9245 152.753C44.4271 154.37 44.4817 157.635 45.1909 162.341C45.5638 164.817 46.0081 167.455 45.6601 169.865C45.0935 173.791 42.6078 175.369 37.9909 175.419C37.5361 174.749 37.3179 174.073 37.0781 173.174Z" fill="#318CEE"/>
<path d="M59.4341 165.79C61.0118 164.831 62.5407 164.067 62.2547 161.384C62.2001 160.873 62.9333 160.253 63.2881 159.67C63.6426 159.088 64.3818 158.316 64.2604 157.926C62.9246 153.636 65.9438 151.922 67.9006 149.431C69.0024 153.583 70.0178 157.758 70.8135 161.99C71.1829 163.954 70.0699 165.085 68.5019 165.493C67.4531 165.767 66.381 165.916 65.1085 166.189C63.9369 166.466 62.9763 166.675 61.8179 166.973C60.9118 166.713 60.2035 166.363 59.4341 165.79Z" fill="#FCBA13"/>
<path d="M264.455 81.4229C264.665 82.6279 265.129 83.6432 264.966 84.489C264.624 86.2596 263.951 87.9408 263.414 89.6587C262.087 88.5489 260.348 87.747 259.545 86.2455C258.688 84.642 258.427 82.3713 258.459 80.4046C258.48 79.1461 259.503 77.9105 260.077 76.6647C261.242 77.4829 262.469 78.2051 263.544 79.1646C264.001 79.5726 264.141 80.4775 264.455 81.4229Z" fill="#1B38AB"/>
<path d="M98.1543 42.8473C98.2576 42.6466 98.3508 42.4385 98.444 42.2305C98.5272 42.2464 98.6103 42.2623 98.6935 42.2782C98.621 42.4978 98.5485 42.7174 98.3007 42.8802C98.1254 42.8234 98.1442 42.8399 98.1543 42.8473Z" fill="#FD515E"/>
<path d="M162.654 46.5837C164.081 51.0102 165.509 55.4367 166.833 60.209C163.943 62.6719 160.877 64.4263 158.446 67.0013C155.633 69.981 156.598 72.9939 160.362 73.9856C161.944 74.4023 163.596 74.4428 165.21 74.7044C166.731 74.951 168.301 75.0637 169.739 75.6256C170.54 75.939 171.63 77.0266 171.653 77.8036C171.679 78.6631 170.792 79.9615 170.028 80.3787C167.436 81.7927 164.774 81.7183 162.21 80.0433C160.322 78.8098 158.517 78.5329 156.602 81.1531C161.397 85.143 166.523 85.7299 171.926 84.9418C172.294 90.9104 172.661 96.8791 172.85 103.059C171.94 102.839 171.228 102.359 170.477 101.985C164.43 98.9792 160.353 101.584 160.44 109.147C160.448 109.784 160.52 110.44 160.422 111.057C159.639 115.989 160.254 119.406 153.874 118.862C151.551 118.664 149.607 120.296 149.437 123.02C149.266 125.749 149.581 128.693 150.325 131.291C152.054 137.327 151.509 138.947 146.423 140.507C142.686 141.654 141.109 144.983 142.432 149.19C143.019 151.057 143.85 152.819 144.57 154.629C139.533 153.083 136.261 148.757 133.15 144.363C125.679 133.815 120.987 121.532 117.479 108.341C121.7 106.053 125.762 104.075 130.014 102.055C132.843 100.608 135.481 99.2021 138.31 97.7521C140.868 97.0173 142.528 95.4204 143.206 92.612C144.979 85.2644 143.764 78.5518 139.889 72.5066C138.374 70.1446 136.328 68.9168 133.462 69.7128C127.912 70.0946 122.594 70.5129 117.274 70.6286C117.27 68.089 117.174 65.8455 117.287 63.6164C117.515 59.1302 118.943 57.4686 122.411 57.4159C129.716 57.3048 129.701 57.2036 129.911 48.6009C129.955 46.817 130.623 44.3552 131.73 43.5176C132.685 42.7942 134.851 43.5328 136.17 44.3297C139.816 46.532 140.856 46.6231 144.014 43.6961C146.272 41.6034 148.653 39.9402 151.6 40.3414C150.535 41.5001 149.549 42.4638 148.956 43.044C150.665 45.5707 152.231 47.8871 153.427 49.6559C154.944 47.7631 156.723 45.5427 158.685 43.3315C160.13 44.4217 161.392 45.5027 162.654 46.5837ZM129.347 130.477C129.703 131.093 129.962 131.844 130.43 132.3C132.979 134.784 135.49 137.349 138.224 139.524C138.931 140.086 140.394 139.346 141.51 139.204C141.383 138.012 141.612 136.497 141.071 135.681C137.752 130.676 134.311 125.777 130.764 120.99C130.266 120.317 128.867 120.065 128.078 120.35C127.565 120.537 126.999 122.158 127.157 122.945C127.643 125.368 128.465 127.698 129.347 130.477ZM126.501 109.599C125.804 110.044 124.583 110.385 124.5 110.952C124.155 113.316 124.824 115.362 126.952 116.954C127.948 114.373 127.978 112.17 126.501 109.599Z" fill="#D7D6D6"/>
<path d="M162.49 46.3911C161.262 45.5496 160.005 44.477 158.427 43.2264C156.421 40.9806 154.737 38.9128 153.155 36.9721C152.789 37.7347 152.188 38.9849 151.587 40.2352C148.573 40.0305 146.203 41.6807 143.954 43.7571C140.808 46.6612 139.771 46.5709 136.14 44.3858C134.826 43.595 132.67 42.8622 131.718 43.5799C130.616 44.411 129.95 46.8536 129.907 48.6236C129.698 57.1593 129.713 57.2597 122.436 57.37C118.982 57.4223 117.559 59.071 117.333 63.5222C117.22 65.7339 117.316 67.9599 117.136 70.6211C114.929 71.1974 112.904 71.3322 110.879 71.467C110.48 58.1637 110.37 44.8286 114.133 32.0699C115.667 26.868 117.859 21.6986 120.645 17.2791C125.714 9.23837 134.23 8.30493 141.985 14.1464C149.523 19.8239 154.384 28.1707 158.66 37.0576C160.074 39.996 161.202 43.1206 162.49 46.3911Z" fill="#C6C4C4"/>
<path d="M173.395 106.528C173.221 109.57 173.048 112.611 172.655 115.903C167.038 113.373 165.562 114.402 164.69 121.25C164.534 122.476 163.915 123.965 163.098 124.671C159.437 127.839 159.305 127.793 161.142 132.711C162.276 135.747 161.901 137.846 159.413 139.702C157.005 141.497 155.158 144.268 156.141 147.759C156.796 150.081 158.561 151.968 159.829 154.049C157.272 156.509 154.343 157.572 150.711 157.129C149.221 155.746 148.028 154.596 146.945 153.317C142.386 147.934 143.001 144.677 149.007 142.182C152.652 140.667 154.015 137.516 152.883 133.135C152.382 131.196 151.722 129.309 151.3 127.348C150.44 123.345 151.699 121.44 155.134 121.34C159.594 121.21 161.749 118.73 162.025 113.525C162.138 111.408 162.32 109.289 162.595 107.193C162.926 104.67 164.091 102.769 166.42 103.437C168.815 104.125 171.075 105.471 173.395 106.528Z" fill="#D7D6D6"/>
<path d="M110.689 72.1392C112.739 71.769 114.767 71.6336 116.98 71.3563C122.468 70.7976 127.772 70.3808 133.202 70.1677C132.47 71.8311 131.252 73.1587 130.819 74.7737C129.116 81.1323 130.221 93.478 137.953 97.982C135.322 99.3826 132.691 100.783 129.846 102.003C128.911 99.3909 128.119 96.9841 127.491 94.5202C126.967 92.4661 126.352 90.9614 124.112 91.8593C121.827 92.7754 120.479 91.4785 119.899 88.9492C119.622 87.7383 119.326 86.4612 119.378 85.2337C119.492 82.5366 118.26 80.9818 116.312 80.2974C114.022 79.4928 112.294 78.0784 111.191 75.6142C111.017 74.5342 110.842 73.4541 110.689 72.1392Z" fill="#509CFE"/>
<path d="M160.125 153.979C158.658 151.936 156.878 150.064 156.219 147.761C155.227 144.297 157.089 141.549 159.517 139.768C162.027 137.927 162.405 135.845 161.261 132.833C159.409 127.954 159.541 127.999 163.234 124.857C164.057 124.156 164.681 122.68 164.839 121.463C165.718 114.67 167.207 113.649 172.85 116.457C172.225 128.646 170.271 140.382 163.682 150.358C162.767 151.742 161.447 152.766 160.125 153.979Z" fill="#C6C4C4"/>
<path d="M111.234 76.015C112.358 78.1643 114.092 79.555 116.389 80.3462C118.342 81.0191 119.578 82.5478 119.464 85.1998C119.412 86.4069 119.709 87.6626 119.987 88.8533C120.568 91.3402 121.921 92.6155 124.213 91.7146C126.46 90.8318 127.076 92.3113 127.602 94.3311C128.232 96.7538 129.027 99.1203 129.773 101.729C125.733 103.886 121.669 105.824 117.406 107.85C115.398 99.4435 113.545 90.9605 111.812 82.4455C111.405 80.4489 111.404 78.3439 111.234 76.015Z" fill="#338DEF"/>
<path d="M171.863 84.7375C166.34 85.6489 161.251 85.061 156.492 81.0653C158.393 78.4412 160.185 78.7186 162.059 79.9539C164.604 81.6313 167.247 81.7058 169.819 80.2897C170.578 79.872 171.459 78.5717 171.433 77.7109C171.41 76.9327 170.328 75.8435 169.532 75.5297C168.106 74.9669 166.547 74.8541 165.037 74.6071C163.434 74.3451 161.795 74.3046 160.225 73.8873C156.488 72.8941 155.531 69.8768 158.323 66.8927C160.736 64.3139 163.78 62.557 166.706 60.3398C167.218 60.1656 167.571 60.015 167.92 60.0236C169.416 60.0605 171.576 58.8471 171.924 61.4463C172.05 62.3859 169.93 63.7444 168.42 64.9181C166.344 65.5852 164.639 66.1309 163.048 66.9742C162.548 67.2393 162.009 68.39 162.115 68.9775C162.217 69.5434 163.109 70.2427 163.691 70.2941C165.465 70.4509 167.258 70.3235 169.044 70.3067C172.078 71.1269 175.231 71.6983 177.047 75.369C177.242 75.2517 177.195 75.2754 177.212 75.2551C177.186 79.6695 176.087 83.2875 171.863 84.7375Z" fill="#223EAD"/>
<path d="M173.395 106.27C171.049 105.462 168.775 104.13 166.364 103.45C164.021 102.789 162.849 104.67 162.516 107.167C162.239 109.241 162.055 111.338 161.942 113.433C161.664 118.584 159.496 121.038 155.008 121.166C151.551 121.265 150.285 123.151 151.15 127.112C151.574 129.052 152.239 130.92 152.743 132.838C153.882 137.173 152.511 140.292 148.843 141.791C142.798 144.261 142.18 147.483 146.768 152.811C147.857 154.076 149.058 155.214 150.315 156.578C148.521 155.977 146.62 155.208 144.547 154.336C143.654 152.434 142.821 150.683 142.232 148.828C140.907 144.647 142.487 141.339 146.233 140.199C151.332 138.648 151.878 137.039 150.145 131.04C149.4 128.458 149.083 125.532 149.254 122.821C149.425 120.114 151.374 118.492 153.703 118.688C160.098 119.229 159.481 115.834 160.266 110.932C160.364 110.319 160.292 109.667 160.285 109.034C160.198 101.518 164.284 98.9293 170.347 101.917C171.099 102.288 171.813 102.765 172.725 103.279C173.073 104.254 173.24 105.142 173.395 106.27Z" fill="#C6C4C4"/>
<path d="M169.033 70.5005C167.219 70.7748 165.385 70.913 163.57 70.7429C162.975 70.6871 162.063 69.9283 161.958 69.3143C161.85 68.6767 162.401 67.4281 162.913 67.1404C164.54 66.2253 166.284 65.6331 168.209 64.9701C168.631 66.7642 168.826 68.5044 169.033 70.5005Z" fill="#D7D6D6"/>
<path d="M83.2965 104.374C83.6585 103.198 83.9856 102.23 84.0624 102.003C85.6259 104.284 87.4132 106.891 88.8786 109.029C87.5093 110.907 85.7362 113.338 84.0524 115.647C83.9517 115.354 83.6211 114.39 83.1514 113.291C82.0596 111.397 81.1069 109.639 80.1543 107.881C80.201 108.748 80.2477 109.615 80.2943 110.481C81.2835 108.515 82.2726 106.549 83.2965 104.374Z" fill="#FDFDFD"/>
<path d="M78.9064 117.006C81.1874 119.669 77.112 119.414 77.9518 121.494C77.5351 119.815 74.714 120.044 76.2421 117.189C76.8135 116.358 77.2581 115.716 77.7555 114.997C78.1227 115.671 78.4471 116.266 78.9064 117.006Z" fill="#F3EBEB"/>
<path d="M15.8842 128.902C16.3322 129.918 16.6178 130.796 16.9034 131.674C15.9654 131.716 14.866 132.12 14.1344 131.7C13.3857 131.27 12.3829 129.801 12.5624 129.193C13.1917 127.06 14.5765 128.293 15.8842 128.902Z" fill="#FDFDFD"/>
<path d="M195.457 70.152C195.72 70.5892 195.885 70.8303 196.296 71.4301C193.868 71.888 191.64 72.308 189.208 72.7665C189.751 69.3619 190.284 66.0231 190.971 61.7216C192.679 64.9264 194.02 67.4411 195.457 70.152Z" fill="black"/>
<path d="M138.296 98.1048C130.409 93.5649 129.309 80.9976 131.004 74.5249C131.435 72.8809 132.648 71.5295 133.607 69.8734C136.328 68.8587 138.36 70.1039 139.864 72.4996C143.713 78.6309 144.919 85.4392 143.158 92.8915C142.486 95.7398 140.836 97.3595 138.296 98.1048Z" fill="#1D7EC6"/>
<path d="M129.139 130.228C128.364 127.656 127.553 125.326 127.074 122.905C126.918 122.118 127.476 120.497 127.982 120.311C128.759 120.025 130.139 120.277 130.63 120.95C134.127 125.735 137.519 130.633 140.791 135.636C141.325 136.452 141.099 137.967 141.224 139.158C140.124 139.3 138.682 140.04 137.985 139.478C135.29 137.303 132.814 134.739 130.301 132.257C129.839 131.8 129.584 131.049 129.139 130.228Z" fill="#FDFDFD"/>
<path d="M151.463 40.57C152.135 39.0927 152.73 37.8134 153.092 37.033C154.657 39.0189 156.323 41.1349 158.127 43.4237C156.512 45.8509 154.758 48.1053 153.264 50.027C152.085 48.2312 150.542 45.8793 148.858 43.3139C149.443 42.7248 150.414 41.7463 151.463 40.57Z" fill="#FDFDFD"/>
<path d="M126.565 109.799C127.896 112.18 127.866 114.374 126.867 116.946C124.732 115.361 124.061 113.322 124.407 110.966C124.49 110.401 125.715 110.062 126.565 109.799Z" fill="#FDFDFD"/>
</svg>
