<svg width="146" height="180" viewBox="0 0 146 180" fill="none" xmlns="http://www.w3.org/2000/svg">
<path d="M59.2364 179.323C50.4698 179.343 41.7031 179.362 32.7434 179.267C32.5504 179.153 32.4818 179.003 32.5188 178.82C33.3409 161.209 34.1147 143.78 34.9152 126.353C35.4669 114.343 36.0556 102.334 36.7296 90.4125C38.3048 92.5032 39.5757 94.7064 41.2952 96.4669C44.4924 99.7403 48.2865 99.3887 50.7291 95.5044C52.283 93.0335 53.2241 90.1732 54.5202 87.6316C55.4519 96.5288 56.7003 105.265 57.0764 114.038C58.0087 135.791 58.5425 157.561 59.2364 179.323Z" fill="#FEFEFF"/>
<path d="M36.6276 90.325C36.0554 102.334 35.4668 114.343 34.9151 126.353C34.1146 143.78 33.3408 161.208 32.4054 178.811C32.1038 178.979 31.9524 178.972 31.7093 178.856C26.7202 177.266 21.8392 175.726 16.9167 174.334C15.177 173.842 14.9879 173.079 15.8861 171.678C16.9173 170.07 17.9412 168.455 18.8924 166.799C19.8831 165.074 20.5703 163.224 19.1243 161.441C16.8558 158.643 16.4792 155.335 16.4283 151.949C16.3611 147.479 16.4869 143.005 16.3711 138.536C16.3256 136.781 16.0631 134.968 15.5301 133.301C14.2248 129.218 12.7086 125.202 11.2637 121.164C11.1327 120.798 10.9038 120.467 10.5678 119.831C10.5351 120.394 10.4872 120.593 10.518 120.778C11.7264 128.077 13.9974 135.221 12.9131 142.82C12.3105 147.044 12.3083 151.356 12.0805 155.63C11.6595 163.528 11.2715 171.428 10.8698 179.327C9.49961 179.327 8.12937 179.327 6.52463 179.327C6.52463 178.479 6.52463 177.708 6.52463 176.937C6.52459 156.413 6.50123 135.889 6.53903 115.365C6.55005 109.38 9.56308 104.783 13.9371 101.146C18.4669 97.3783 23.7159 94.7361 29.0454 92.2425C30.273 91.6681 30.9771 89.9936 31.965 88.8633C33.2709 87.3692 34.6191 85.9125 36.2016 84.5032C36.512 86.4861 36.5698 88.4056 36.6276 90.325ZM30.8916 116.156C31.2761 116.113 31.6606 116.07 32.0451 116.028C32.2214 116.133 32.3978 116.239 32.5741 116.344C28.7222 118.631 28.8318 121.65 30.2235 125.116C31.2372 127.64 31.8502 130.327 32.6418 132.942C32.7017 129.841 32.4249 126.813 32.0294 123.8C31.7507 121.676 31.4919 119.63 32.9791 117.775C33.5799 117.026 33.9507 116.09 34.5444 115.028C33.2352 114.727 32.1088 114.262 30.9806 114.257C29.1493 114.25 29.0698 113.316 29.0963 111.839C29.1864 106.815 29.1307 101.789 29.1307 96.567C28.1506 103.271 27.1956 109.803 26.2634 116.179C27.9662 116.179 29.2702 116.179 30.8916 116.156Z" fill="#287EEF"/>
<path d="M27.8177 62.1375C21.7075 60.3226 15.8437 58.0073 10.6099 54.223C5.51735 50.5408 1.6162 45.9364 0.389384 39.7018C-0.690229 34.2153 0.469978 28.9577 3.93486 24.3819C9.28102 17.3215 16.6855 13.485 24.8645 10.8592C25.3482 10.7039 25.8443 10.5878 26.647 10.4344C31.3164 9.63802 35.6474 8.54006 40.0384 8.17775C44.0541 7.84641 48.1555 8.09465 52.181 8.48472C56.2485 8.87885 60.2692 9.76096 64.3104 10.4293C70.513 12.0314 76.2302 14.6072 81.306 18.6182C85.3604 21.822 88.5934 25.6203 90.0431 30.6337C91.9381 37.1871 90.6051 43.1712 86.3245 48.4939C80.9285 55.2034 73.6024 58.7562 65.6712 61.3359C65.3089 61.4538 64.9546 61.5962 64.4226 61.5842C64.7865 60.3297 65.0537 58.5784 65.9074 58.2134C70.4893 56.2547 72.0477 50.0633 69.4721 46.2034C69.8454 44.2386 70.2616 42.4233 70.4052 40.5865C70.8133 35.3695 71.1371 30.1404 69.4038 25.0582C67.9408 20.7684 65.1697 17.913 60.5641 17.2932C56.0686 16.6883 51.565 16.0268 47.0435 15.7643C40.9789 15.4122 34.93 15.7361 29.1526 17.9642C24.5412 19.7426 21.174 22.8042 20.4944 27.8857C19.6209 34.4176 20.3972 40.9307 21.4704 47.5433C20.2053 51.8548 21.308 55.94 24.6116 57.4045C26.9099 58.4233 27.5927 59.9846 27.8177 62.1375Z" fill="#917EEB"/>
<path d="M27.8455 62.2884C27.5927 59.9847 26.9099 58.4233 24.6117 57.4045C21.308 55.94 20.2053 51.8548 21.5514 47.4354C22.7661 46.3887 23.8272 45.0026 24.9653 44.9355C27.2214 44.8023 27.5045 43.3799 27.7171 41.8339C27.8759 40.6787 27.757 39.4632 27.6169 38.2921C27.1655 34.5188 27.8613 31.0464 30.1927 28.0012C31.6036 26.1584 33.427 25.3839 35.8342 25.3841C40.5555 25.3845 45.3014 25.3008 49.9922 24.8142C56.7905 24.109 60.7298 26.7169 62.0123 33.4909C62.4153 35.6196 62.3514 37.8338 62.593 39.9984C62.7794 41.6678 63.1094 43.321 63.3986 45.1254C65.922 44.2496 67.7605 44.8816 69.3907 46.3431C72.0477 50.0633 70.4893 56.2547 65.9075 58.2134C65.0537 58.5784 64.7865 60.3297 64.2718 61.5978C63.227 64.2804 62.1591 66.8065 60.9396 69.5266C59.6816 71.4305 58.5752 73.1405 57.349 74.898C56.3852 75.7061 55.5413 76.4668 54.5613 77.2475C50.6191 79.5652 46.6237 81.0405 42.224 79.2571C40.1411 78.4127 38.2372 77.1219 36.2522 76.0333C32.4206 72.1489 29.7796 67.5229 27.8455 62.2884ZM50.4644 63.6949C47.4911 64.2481 44.5178 64.8013 41.5979 65.3446C42.6659 67.1859 44.3976 68.013 46.7366 67.6887C48.8079 67.4015 50.3209 65.98 51.0115 63.7184C50.9323 63.7049 50.8531 63.6914 50.4644 63.6949ZM36.0417 48.3556C35.8704 49.5959 35.5243 50.8496 35.6168 52.0697C35.652 52.5342 36.6768 53.24 37.2815 53.2735C38.3352 53.3319 39.1769 51.3884 38.7595 49.901C38.4286 48.7217 38.0884 47.3149 36.0417 48.3556ZM56.2861 51.3951C56.1915 50.6195 56.2763 49.7529 55.9463 49.0971C55.6775 48.5626 54.9125 48.2803 54.3675 47.8862C53.8415 48.7201 52.8773 49.5671 52.9016 50.3845C52.9312 51.3847 53.7892 52.36 54.289 53.3461C54.9283 52.7984 55.5676 52.2507 56.2861 51.3951ZM40.7422 42.6664C38.8564 40.3923 34.3285 40.7434 32.3211 43.5788C34.9543 41.8782 37.6731 41.5006 40.7422 42.6664ZM53.8836 41.1611C52.8579 41.5159 51.8322 41.8708 50.8066 42.2256C50.8513 42.4962 50.896 42.7668 50.9408 43.0374C53.8919 41.1459 56.6403 42.0923 59.3939 43.4028C57.9818 41.7773 56.1918 41.2271 53.8836 41.1611Z" fill="#F4B393"/>
<path d="M59.3435 179.359C58.5424 157.56 58.0086 135.791 57.0762 114.038C56.7001 105.265 55.4518 96.5287 54.5179 87.4535C54.5528 85.4095 54.6701 83.6877 54.9292 81.9816C55.3565 81.9879 55.6419 81.9786 56.0756 81.9829C57.0972 82.6006 58.0078 83.158 58.8324 83.8232C59.5198 84.3778 60.1062 85.0589 60.7597 85.819C61.5251 86.3752 62.2216 86.9974 63.019 87.1838C67.2313 88.1685 71.4689 89.0434 75.6917 90.0977C75.6588 90.676 75.632 91.113 75.6224 91.2699C74.6155 90.7672 73.5545 90.2375 72.4935 89.7078C72.2431 90.4197 71.9927 91.1316 71.62 91.8966C71.321 91.9543 71.1444 91.959 70.9136 91.8353C70.6222 91.4797 70.4221 91.1697 70.1403 91.0427C69.573 90.787 68.9612 90.631 68.3677 90.4338C68.1823 91.0367 67.8104 91.6532 67.8528 92.2395C67.9268 93.264 68.2554 94.2699 68.4314 95.3116C68.4068 95.4209 68.4593 95.4644 68.5483 95.6087C68.6764 96.1874 68.7992 96.6274 68.8103 97.1496C68.95 97.9797 69.2014 98.7275 69.3701 99.6077C68.5512 99.5325 67.8134 99.3304 67.0791 99.1161C65.6181 98.6897 64.1763 98.0562 62.6906 97.9271C62.1123 97.8769 60.9831 98.918 60.9297 99.5342C60.8734 100.185 61.6947 101.046 62.3259 101.588C62.9963 102.163 63.8938 102.471 64.6784 103.095C64.6593 106.266 64.6206 109.24 64.6646 112.212C64.6831 113.461 64.4055 114.167 62.9583 114.263C61.8065 114.34 60.6817 114.828 59.1227 115.247C62.5937 118.643 62.4524 122.294 61.5933 126.201C61.0604 128.623 61.01 131.153 60.743 133.635C62.1073 130.114 63.0255 126.481 64.3082 122.984C65.0898 120.852 64.6479 119.382 63.0953 117.948C62.5849 117.477 62.3028 116.756 61.8511 116.047C63.8679 116.047 65.5351 116.047 67.4087 116.047C67.0175 112.132 66.642 108.375 66.3803 104.7C67.012 106.124 67.6925 107.429 68.0134 108.817C68.6392 111.525 70.1792 113.389 72.637 114.677C72.7294 114.884 72.8314 114.944 72.9615 114.96C72.9559 114.975 72.9862 114.975 72.9929 115.089C73.1054 115.401 73.2113 115.6 73.2079 115.909C73.2176 117.712 73.3552 119.403 73.4521 121.098C73.8167 127.473 74.4781 133.853 74.4153 140.224C74.3735 144.474 73.2319 148.655 70.6564 152.311C69.0245 154.627 68.7907 157.312 70.3631 159.789C71.5875 161.717 73.0417 163.518 74.5415 165.246C76.5995 167.617 76.7048 169.198 74.419 171.305C73.1289 172.495 71.6881 173.617 70.1296 174.393C66.7914 176.056 63.3327 177.474 59.9139 179.076C59.9046 179.161 59.8971 179.331 59.8971 179.331C59.7483 179.352 59.5995 179.373 59.3435 179.359Z" fill="#297FEF"/>
<path d="M60.7374 85.684C60.1062 85.059 59.5198 84.3779 58.8324 83.8233C58.0079 83.1581 57.0972 82.6007 56.1407 81.8419C56.5279 79.4083 56.9983 77.1294 57.4687 74.8505C58.5751 73.1405 59.6815 71.4305 60.9135 69.6697C64.1011 70.4284 67.1437 71.3227 70.2284 72.0325C82.4784 74.8514 94.7374 77.6317 107.002 80.3873C113.261 81.7937 119.538 83.1176 125.857 84.7739C125.7 85.9608 125.491 86.852 125.288 87.7444C124.576 90.8649 123.867 93.9858 123.03 97.1251C122.732 97.4019 122.56 97.6602 122.369 98.0642C121.959 99.1868 121.49 100.141 121.195 101.146C120.762 102.62 119.989 102.89 118.562 102.397C116.524 101.695 114.402 101.245 112.327 100.65C109.685 99.8913 107.013 99.2074 104.427 98.286C101.381 97.2009 98.4121 95.896 95.3397 94.5797C85.8234 88.8552 76.3773 83.2374 66.867 77.5814C64.7824 80.337 62.7599 83.0105 60.7374 85.684Z" fill="#40C2D6"/>
<path d="M109.732 179.332C100.225 179.351 90.7188 179.37 80.9764 179.275C80.646 179.064 80.5346 178.995 80.4222 178.777C81.4096 165.546 82.381 152.492 83.3759 139.122C88.4715 143.544 93.9926 146.588 100.117 148.527C100.126 148.519 100.145 148.505 100.222 148.601C100.539 148.728 100.779 148.759 101.134 148.889C103.547 149.335 105.847 149.681 108.145 150.201C107.889 153.917 107.454 157.458 107.429 161.002C107.406 164.411 107.655 167.842 108.069 171.228C108.403 173.956 109.162 176.632 109.732 179.332Z" fill="#CC3745"/>
<path d="M109.864 179.311C109.162 176.632 108.403 173.956 108.069 171.227C107.655 167.842 107.406 164.411 107.429 161.002C107.454 157.458 107.889 153.917 108.308 150.169C114.973 149.408 119.752 145.413 120.666 139.544C121.317 135.361 119.842 131.619 117.76 127.947C117.573 127.64 117.421 127.452 117.264 127.284C117.259 127.302 117.293 127.284 117.267 127.147C115.657 124.731 114.072 122.451 112.49 119.994C112.729 118.569 112.533 116.841 113.28 116.162C115.686 113.975 118.44 112.176 121.101 110.405C121.284 112.629 121.429 114.675 121.566 116.722C122.403 129.265 123.206 141.81 124.108 154.349C124.252 156.358 124.84 158.335 125.223 160.326C125.608 162.082 125.76 163.937 126.444 165.567C127.15 167.25 126.39 167.925 125.206 168.661C122.199 170.531 119.143 172.332 116.23 174.342C114.053 175.845 112.068 177.63 109.864 179.311Z" fill="#E53F47"/>
<path d="M100.107 148.535C93.9926 146.588 88.4715 143.544 83.3759 139.122C82.381 152.492 81.4095 165.546 80.3349 178.793C80.2317 178.986 80.0655 179.049 80.0655 179.049C79.4958 179.156 78.9261 179.264 78.0862 179.235C71.8518 179.063 65.8876 179.027 59.9235 178.992C63.3328 177.474 66.7915 176.056 70.1297 174.394C71.6882 173.617 73.129 172.495 74.4192 171.306C76.7049 169.199 76.5997 167.617 74.5417 165.246C73.0418 163.518 71.5876 161.718 70.3633 159.789C68.7909 157.312 69.0247 154.627 70.6565 152.311C73.232 148.655 74.3737 144.474 74.4155 140.225C74.4782 133.853 73.8168 127.473 73.4522 121.098C73.3554 119.404 73.2177 117.712 73.2194 115.908C73.3401 115.797 73.3328 115.819 73.349 115.941C73.5324 116.211 73.6997 116.359 73.8432 116.502C73.8195 116.496 73.8566 116.464 73.8302 116.615C73.8473 116.958 73.8522 117.169 73.94 117.337C79.4229 127.823 86.5296 136.993 95.6763 144.525C97.2122 145.789 98.6333 147.195 100.107 148.535Z" fill="#1673D8"/>
<path d="M95.4099 94.6864C98.412 95.896 101.381 97.2009 104.426 98.2859C107.013 99.2073 109.684 99.8913 112.327 100.65C114.402 101.245 116.524 101.695 118.561 102.397C119.989 102.89 120.762 102.62 121.195 101.146C121.49 100.141 121.959 99.1868 122.497 98.0717C122.953 98.2228 123.262 98.5121 123.568 98.8478C123.565 98.8943 123.559 98.9871 123.555 99.1583C124.084 100.976 124.617 102.621 125.147 104.265C125.146 104.262 125.142 104.256 125.145 104.379C125.281 104.688 125.413 104.875 125.543 105.059C125.541 105.057 125.538 105.051 125.532 105.216C126.06 107.03 126.595 108.68 127.127 110.375C127.124 110.422 127.118 110.514 127.114 110.685C127.643 112.502 128.175 114.148 128.706 115.792C128.704 115.789 128.701 115.783 128.704 115.905C128.839 116.215 128.972 116.402 129.102 116.586C129.1 116.584 129.097 116.577 129.091 116.743C129.619 118.557 130.153 120.206 130.685 121.902C130.683 121.949 130.676 122.043 130.673 122.214C131.334 124.296 131.998 126.206 132.66 128.113C132.658 128.111 132.656 128.104 132.649 128.27C133.177 130.084 133.712 131.733 134.244 133.429C134.241 133.476 134.235 133.569 134.231 133.741C134.892 135.822 135.557 137.733 136.219 139.64C136.217 139.637 136.214 139.631 136.208 139.797C136.736 141.611 137.271 143.261 137.802 144.957C137.8 145.003 137.794 145.095 137.79 145.266C138.451 147.348 139.115 149.259 139.778 151.167C139.776 151.164 139.773 151.158 139.767 151.317C139.906 152.18 140.052 152.885 140.198 153.59C137.918 156.219 135.638 158.848 133.218 161.288C133.027 160.507 133.045 159.9 132.914 159.327C129.287 143.409 125.501 127.525 122.106 111.557C121.261 107.58 119.824 105.069 115.746 104.059C112.462 103.245 109.32 101.852 106.128 100.706C106.141 100.697 106.161 100.722 106.1 100.605C105.787 100.421 105.537 100.355 105.158 100.253C103.551 99.3621 102.118 98.4115 100.584 97.6714C96.0892 95.5023 91.4468 95.0229 86.5751 96.7118C86.3138 96.8059 86.1501 96.8979 85.8294 96.9986C84.8628 97.1639 84.0532 97.3205 83.2411 97.3263C83.9544 96.6085 84.6703 96.0414 85.528 95.5003C88.9165 95.2464 92.1632 94.9664 95.4099 94.6864Z" fill="#85EAF8"/>
<path d="M130.676 122.043C130.676 122.043 130.683 121.949 130.689 121.73C130.162 119.867 129.63 118.222 129.097 116.577C129.097 116.577 129.1 116.584 129.099 116.464C128.966 116.157 128.834 115.97 128.701 115.783C128.701 115.783 128.704 115.789 128.713 115.626C128.187 113.814 127.652 112.164 127.118 110.514C127.118 110.514 127.124 110.422 127.13 110.203C126.604 108.34 126.071 106.695 125.539 105.051C125.539 105.051 125.541 105.057 125.541 104.937C125.407 104.63 125.275 104.443 125.143 104.256C125.143 104.256 125.146 104.262 125.154 104.099C124.628 102.287 124.094 100.637 123.559 98.9871C123.559 98.9871 123.566 98.8943 123.572 98.6896C123.438 98.0255 123.297 97.566 123.157 97.1065C123.867 93.9858 124.577 90.8649 125.288 87.7444C125.492 86.8519 125.7 85.9608 125.932 84.9114C127.924 90.6007 129.928 96.4353 131.848 102.298C134.693 110.982 137.467 119.69 140.294 128.38C142.074 133.851 143.784 139.348 145.757 144.748C146.444 146.627 145.55 147.693 144.613 148.855C143.428 150.324 142.103 151.68 140.694 152.99C140.29 152.316 140.032 151.737 139.773 151.158C139.773 151.158 139.776 151.164 139.781 151.006C139.123 148.931 138.458 147.013 137.794 145.095C137.794 145.095 137.8 145.003 137.806 144.785C137.28 142.921 136.747 141.276 136.215 139.631C136.215 139.631 136.217 139.637 136.223 139.479C135.564 137.404 134.9 135.487 134.235 133.569C134.235 133.569 134.241 133.476 134.248 133.257C133.721 131.393 133.189 129.749 132.656 128.104C132.656 128.104 132.659 128.111 132.664 127.953C132.005 125.877 131.341 123.96 130.676 122.043Z" fill="#86EBF9"/>
<path d="M11.0533 179.355C11.2715 171.428 11.6594 163.528 12.0804 155.63C12.3083 151.356 12.3105 147.044 12.9131 142.82C13.9974 135.221 11.7264 128.077 10.5179 120.778C10.4872 120.593 10.535 120.394 10.5677 119.831C10.9038 120.467 11.1327 120.798 11.2637 121.164C12.7086 125.202 14.2248 129.218 15.5301 133.301C16.0631 134.968 16.3255 136.781 16.3711 138.536C16.4869 143.005 16.3611 147.479 16.4283 151.949C16.4792 155.335 16.8557 158.643 19.1243 161.441C20.5703 163.223 19.8831 165.074 18.8924 166.799C17.9411 168.455 16.9173 170.07 15.8861 171.678C14.9879 173.079 15.1769 173.842 16.9167 174.334C21.8392 175.726 26.7202 177.266 31.5274 178.868C28.4982 178.996 25.5586 178.972 22.6204 179.026C21.2153 179.052 19.8128 179.225 18.4092 179.331C16.0184 179.349 13.6275 179.366 11.0533 179.355Z" fill="#1673D8"/>
<path d="M106.115 100.716C109.32 101.852 112.462 103.246 115.746 104.059C119.824 105.069 121.261 107.58 122.107 111.557C125.501 127.525 129.287 143.409 132.915 159.327C133.045 159.9 133.027 160.507 133.078 161.265C130.57 161.062 128.062 160.693 125.389 160.325C124.84 158.335 124.253 156.358 124.108 154.349C123.206 141.81 122.403 129.265 121.566 116.722C121.429 114.675 121.284 112.629 121.092 110.273C120.565 109.63 120.104 109.271 119.609 108.968C115.114 106.212 110.614 103.465 106.115 100.716Z" fill="#43C1D5"/>
<path d="M54.7875 81.966C54.6702 83.6878 54.5529 85.4096 54.4378 87.3094C53.224 90.1731 52.2829 93.0335 50.7291 95.5044C48.2865 99.3887 44.4923 99.7403 41.2952 96.4669C39.5757 94.7064 38.3047 92.5032 36.7295 90.4124C36.5699 88.4056 36.5121 86.4862 36.3302 84.4491C36.2072 83.4077 36.2082 82.4838 36.3817 81.3897C42.6022 83.8383 48.6494 83.9475 54.7246 81.337C54.7649 81.6289 54.7762 81.7974 54.7875 81.966Z" fill="#F4B393"/>
<path d="M64.2542 10.3056C60.2692 9.76095 56.2485 8.87885 52.181 8.48471C48.1555 8.09464 44.0541 7.8464 40.0384 8.17774C35.6474 8.54005 31.3164 9.63801 26.8021 10.4226C29.1089 5.93725 32.9039 2.96756 37.6322 1.34489C47.2282 -1.94836 57.304 0.84013 63.3637 9.34098C63.5901 9.65859 63.9176 9.90332 64.2542 10.3056Z" fill="#6D5FDE"/>
<path d="M54.6955 81.2137C48.6493 83.9475 42.6021 83.8383 36.4071 81.2175C36.2362 79.6098 36.2122 78.0039 36.2202 76.2157C38.2371 77.1219 40.141 78.4127 42.2239 79.257C46.6235 81.0404 50.619 79.5652 54.5904 77.4266C54.7357 78.795 54.7156 80.0043 54.6955 81.2137Z" fill="#EBA284"/>
<path d="M30.7329 116.167C29.2702 116.179 27.9662 116.179 26.2634 116.179C27.1956 109.803 28.1506 103.271 29.1307 96.5671C29.1307 101.789 29.1864 106.815 29.0963 111.839C29.0698 113.317 29.1493 114.251 30.9806 114.257C32.1088 114.262 33.2352 114.727 34.5444 115.028C33.9507 116.09 33.5798 117.026 32.9791 117.775C31.4919 119.63 31.7507 121.676 32.0294 123.8C32.4249 126.813 32.7017 129.841 32.6418 132.942C31.8502 130.328 31.2372 127.64 30.2235 125.116C28.8318 121.65 28.7222 118.631 32.5741 116.344C32.3978 116.239 32.2214 116.133 32.0451 116.028C31.6606 116.071 31.276 116.113 30.7329 116.167Z" fill="#1673D8"/>
<path d="M69.4721 46.2033C67.7605 44.8815 65.922 44.2495 63.3985 45.1253C63.1093 43.321 62.7793 41.6678 62.593 39.9984C62.3513 37.8337 62.4153 35.6195 62.0123 33.4908C60.7298 26.7168 56.7905 24.1089 49.9922 24.8141C45.3014 25.3008 40.5555 25.3845 35.8342 25.3841C33.427 25.3838 31.6036 26.1583 30.1927 28.0011C27.8613 31.0464 27.1654 34.5187 27.6169 38.292C27.757 39.4632 27.8759 40.6786 27.7171 41.8339C27.5045 43.3799 27.2214 44.8023 24.9653 44.9354C23.8272 45.0026 22.7661 46.3886 21.5892 47.2862C20.3972 40.9307 19.6209 34.4176 20.4944 27.8857C21.174 22.8042 24.5412 19.7425 29.1526 17.9641C34.93 15.736 40.9789 15.4122 47.0435 15.7642C51.565 16.0267 56.0686 16.6882 60.5641 17.2932C65.1697 17.9129 67.9408 20.7683 69.4038 25.0582C71.1371 30.1403 70.8133 35.3694 70.4052 40.5864C70.2616 42.4232 69.8454 44.2385 69.4721 46.2033Z" fill="#2F1B2B"/>
<path d="M50.8855 63.7904C50.3207 65.9799 48.8077 67.4014 46.7365 67.6886C44.3975 68.0129 42.6658 67.1858 41.5978 65.3445C44.5177 64.8012 47.491 64.248 50.6464 63.715C50.8286 63.7352 50.8855 63.7904 50.8855 63.7904Z" fill="#FEFEFF"/>
<path d="M36.1594 48.2552C38.0881 47.3148 38.4284 48.7216 38.7593 49.901C39.1767 51.3883 38.335 53.3318 37.2813 53.2734C36.6766 53.2399 35.6518 52.5341 35.6166 52.0696C35.5241 50.8495 35.8702 49.5958 36.1594 48.2552Z" fill="#2F1B2B"/>
<path d="M56.2466 51.5489C55.5678 52.2505 54.9284 52.7983 54.2891 53.346C53.7893 52.3599 52.9314 51.3845 52.9017 50.3843C52.8774 49.567 53.8416 48.72 54.3676 47.8861C54.9126 48.2802 55.6776 48.5625 55.9465 49.0969C56.2764 49.7528 56.1917 50.6194 56.2466 51.5489Z" fill="#2F1B2B"/>
<path d="M54.7244 81.337C54.7155 80.0043 54.7356 78.795 54.7264 77.4066C55.541 76.4668 56.385 75.7061 57.3487 74.8979C56.9982 77.1294 56.5278 79.4083 55.9923 81.8282C55.6418 81.9787 55.3564 81.988 54.9292 81.9816C54.7759 81.7974 54.7646 81.6289 54.7244 81.337Z" fill="black"/>
<path d="M40.6206 42.7257C37.6729 41.5005 34.9541 41.8781 32.3209 43.5787C34.3283 40.7433 38.8562 40.3922 40.6206 42.7257Z" fill="#2F1B2B"/>
<path d="M54.0474 41.1492C56.1919 41.2271 57.9819 41.7773 59.3939 43.4028C56.6404 42.0923 53.892 41.1459 50.9408 43.0374C50.8961 42.7668 50.8514 42.4962 50.8066 42.2256C51.8323 41.8708 52.858 41.5159 54.0474 41.1492Z" fill="#2F1B2B"/>
<path d="M50.8011 63.7064C50.853 63.6913 50.9322 63.7048 50.9485 63.7543C50.8856 63.7902 50.8286 63.7351 50.8011 63.7064Z" fill="#FEFEFF"/>
<path d="M85.3863 95.4744C84.6705 96.0415 83.9546 96.6086 83.2372 97.4869C83.2339 98.3315 83.2321 98.8649 83.1153 99.432C82.9219 99.4808 82.8435 99.4959 82.6821 99.5802C82.5456 99.8576 82.4921 100.066 82.5347 100.409C84.0009 100.59 85.371 100.637 86.7538 100.852C87.0524 103.141 87.3383 105.262 87.6103 107.538C86.1061 113.081 82.3237 116.17 77.5757 115.763C76.0348 115.631 74.5155 115.245 72.9863 114.975C72.9863 114.975 72.956 114.975 72.9195 114.886C72.8114 114.703 72.7214 114.633 72.613 114.588C70.1793 113.39 68.6393 111.525 68.0135 108.817C67.6927 107.429 67.0121 106.125 66.3718 104.711C66.2495 104.639 66.2753 104.646 66.2631 104.531C66.1095 104.246 65.9681 104.076 65.7859 103.781C65.3941 103.402 65.0432 103.149 64.6922 102.896C63.8939 102.471 62.9965 102.163 62.3261 101.588C61.6948 101.046 60.8735 100.185 60.9299 99.5343C60.9832 98.9182 62.1125 97.877 62.6907 97.9272C64.1765 98.0563 65.6183 98.6899 67.0792 99.1162C67.8135 99.3305 68.5513 99.5327 69.4588 99.5276C69.3941 98.5658 69.1581 97.8167 68.9221 97.0676C68.7993 96.6275 68.6766 96.1875 68.5554 95.5728C68.5569 95.398 68.4775 95.2837 68.4775 95.2837C68.2555 94.27 67.9269 93.2641 67.8529 92.2396C67.8106 91.6533 68.1825 91.0369 68.3678 90.434C68.9613 90.6311 69.5731 90.7871 70.1404 91.0428C70.4222 91.1698 70.6223 91.4798 70.9248 91.9424C71.241 92.0664 71.4917 91.9551 71.7425 91.8437C71.9929 91.1318 72.2432 90.4199 72.4936 89.708C73.5546 90.2377 74.6156 90.7674 75.6225 91.2701C75.6321 91.1131 75.6589 90.6762 75.8264 90.0244C77.918 88.8072 78.9217 90.3134 79.9993 91.4368C82.0111 90.2412 82.823 90.5076 83.9844 92.7953C83.7911 93.4793 83.67 94.0522 83.5489 94.6252C83.6712 94.6471 83.7934 94.669 83.9157 94.6909C84.101 94.2724 84.2863 93.854 84.5747 93.5311C84.914 94.2426 85.1501 94.8585 85.3863 95.4744ZM72.9313 96.5557C72.9055 96.8132 72.8797 97.0708 72.8539 97.3284C72.9967 97.3156 73.1395 97.3028 73.2823 97.2901C73.1762 96.9617 73.07 96.6333 72.9575 96.0375C72.8278 95.7292 72.6981 95.4208 72.5619 94.8446C72.4329 94.5346 72.3038 94.2246 72.1659 93.6706C72.0787 93.454 71.9915 93.2373 71.9044 93.0207C71.7707 93.1436 71.6371 93.2666 71.5034 93.3895C71.7186 93.5729 71.9339 93.7562 72.0585 94.1659C72.2202 94.4882 72.3819 94.8105 72.5359 95.3646C72.6702 95.6849 72.8045 96.0051 72.9313 96.5557ZM80.2832 102.17C80.7724 101.127 82.2901 100.254 80.9172 98.9273C80.5077 99.7015 80.0989 100.451 79.713 101.212C79.4099 101.81 79.5083 102.07 80.2832 102.17ZM76.2384 102.031C76.3268 102.233 76.4152 102.434 76.5036 102.635C77.1136 102.229 77.7235 101.823 78.3902 101.379C78.0583 100.836 77.7234 100.288 77.2977 99.5909C76.9158 100.486 76.6353 101.143 76.2384 102.031ZM74.131 99.7971C74.0805 99.6835 74.0389 99.5644 73.9747 99.4592C73.953 99.4236 73.8306 99.4031 73.8276 99.4096C73.4314 100.276 73.042 101.145 72.6522 102.014C72.8838 102.124 73.1154 102.234 73.347 102.344C73.6149 101.579 73.8829 100.814 74.131 99.7971ZM80.4648 96.3439C80.4843 96.7209 80.5038 97.0978 80.5233 97.4749C80.5986 97.473 80.6739 97.4711 80.7493 97.4692C80.7493 96.1612 80.7493 94.8532 80.7493 93.5451C80.6544 93.5411 80.5596 93.5371 80.4648 93.5331C80.4648 94.36 80.4648 95.1869 80.4648 96.3439ZM70.9398 101.378C70.7999 100.843 70.66 100.309 70.5201 99.7745C70.308 99.8831 70.0959 99.9916 69.8838 100.1C70.1924 100.593 70.501 101.086 70.9398 101.378ZM75.1575 102.395C75.0483 102.28 74.939 102.165 74.8298 102.05C74.7824 102.095 74.6915 102.178 74.6941 102.181C74.7961 102.302 74.9065 102.416 75.1575 102.395ZM76.509 96.0309C76.6029 96.0009 76.6968 95.9709 76.7906 95.9409C76.6849 95.8358 76.5791 95.7306 76.4733 95.6255C76.4442 95.7201 76.4151 95.8146 76.509 96.0309ZM80.3641 92.412C80.3178 92.3481 80.2715 92.2843 80.2251 92.2204C80.2346 92.3094 80.2441 92.3983 80.3641 92.412ZM73.2735 98.5952C73.3371 98.5485 73.4008 98.5018 73.4644 98.4551C73.3758 98.4647 73.2872 98.4743 73.2735 98.5952ZM76.217 93.4548C76.2634 93.5188 76.3098 93.5828 76.3561 93.6468C76.3466 93.5576 76.3371 93.4685 76.217 93.4548ZM77.2067 97.8313C77.1396 97.8537 77.0725 97.8761 77.0055 97.8985C77.073 97.9203 77.1404 97.9421 77.2067 97.8313Z" fill="#F4B393"/>
<path d="M84.0565 92.6843C82.8229 90.5076 82.011 90.2411 79.9992 91.4368C78.9216 90.3133 77.9179 88.8071 75.8325 89.8831C71.469 89.0435 67.2313 88.1686 63.019 87.1839C62.2217 86.9975 61.5252 86.3753 60.7598 85.8191C62.7599 83.0105 64.7824 80.337 66.8671 77.5814C76.3774 83.2374 85.8234 88.8553 95.3397 94.5798C92.1633 94.9665 88.9165 95.2465 85.528 95.5004C85.15 94.8584 84.9139 94.2425 84.5569 93.4208C84.3096 93.038 84.183 92.8611 84.0565 92.6843Z" fill="#CA3A48"/>
<path d="M64.6786 103.095C65.0432 103.149 65.3942 103.402 65.7975 103.897C65.9916 104.308 66.1335 104.477 66.2754 104.646C66.2754 104.646 66.2495 104.639 66.2582 104.628C66.6423 108.375 67.0177 112.132 67.409 116.047C65.5353 116.047 63.8681 116.047 61.8513 116.047C62.303 116.756 62.5852 117.477 63.0955 117.948C64.6481 119.382 65.0901 120.852 64.3084 122.984C63.0257 126.482 62.1075 130.114 60.7433 133.635C61.0102 131.153 61.0607 128.623 61.5935 126.201C62.4527 122.294 62.5939 118.644 59.1229 115.247C60.6819 114.828 61.8067 114.34 62.9585 114.263C64.4057 114.167 64.6833 113.461 64.6648 112.212C64.6208 109.24 64.6596 106.267 64.6786 103.095Z" fill="#1673D8"/>
<path d="M72.9929 115.089C74.5154 115.245 76.0347 115.631 77.5756 115.763C82.3236 116.17 86.106 113.081 87.6932 107.595C87.871 107.607 87.9518 107.715 88.0317 107.985C88.118 108.598 88.2477 109.046 88.2857 109.501C88.7759 115.367 84.5085 120.209 79.3303 119.269C77.4006 118.919 75.6751 117.432 73.8565 116.464C73.8565 116.464 73.8194 116.496 73.8218 116.388C73.6604 116.126 73.4965 115.973 73.3327 115.819C73.3327 115.819 73.34 115.797 73.3286 115.798C73.2113 115.6 73.1055 115.401 72.9929 115.089Z" fill="#EBA284"/>
<path d="M68.8105 97.1497C69.1583 97.8166 69.3942 98.5657 69.5417 99.3951C69.2017 98.7276 68.9503 97.9797 68.8105 97.1497Z" fill="#F0B192"/>
<path d="M71.6201 91.8966C71.4918 91.9551 71.241 92.0668 70.9791 92.0712C71.1446 91.9592 71.3212 91.9545 71.6201 91.8966Z" fill="#F0B192"/>
<path d="M72.6372 114.677C72.7215 114.633 72.8115 114.703 72.9252 114.872C72.8316 114.945 72.7296 114.885 72.6372 114.677Z" fill="#EBA284"/>
<path d="M68.4316 95.3116C68.478 95.2835 68.5585 95.3982 68.5515 95.4343C68.4597 95.4649 68.4066 95.4213 68.4316 95.3116Z" fill="#F0B192"/>
<path d="M123.03 97.1251C123.297 97.566 123.438 98.0255 123.575 98.6432C123.262 98.5121 122.953 98.2228 122.517 97.926C122.561 97.6601 122.732 97.4019 123.03 97.1251Z" fill="#57CFE1"/>
<path d="M73.8302 116.615C75.6752 117.432 77.4008 118.919 79.3304 119.269C84.5086 120.209 88.776 115.367 88.2859 109.501C88.2479 109.046 88.1181 108.598 88.1695 108.006C88.9018 108.145 89.5464 108.349 90.0817 108.716C97.3308 113.675 104.561 118.663 111.805 123.63C113.617 124.873 115.463 126.067 117.293 127.284C117.293 127.284 117.259 127.302 117.267 127.42C117.448 127.714 117.622 127.891 117.796 128.068C119.842 131.619 121.317 135.361 120.666 139.544C119.752 145.413 114.973 149.408 108.31 149.995C105.847 149.681 103.547 149.335 101.06 148.786C100.63 148.557 100.387 148.531 100.145 148.505C100.145 148.505 100.126 148.519 100.117 148.527C98.6334 147.195 97.2122 145.789 95.6763 144.525C86.5297 136.993 79.423 127.823 73.94 117.337C73.8523 117.169 73.8474 116.958 73.8302 116.615Z" fill="#287EEE"/>
<path d="M106.128 100.706C110.614 103.465 115.114 106.211 119.609 108.968C120.104 109.271 120.565 109.63 121.051 110.095C118.44 112.176 115.686 113.975 113.28 116.162C112.533 116.841 112.729 118.569 112.373 119.933C107.987 115.826 103.723 111.603 99.451 107.232C99.1156 106.408 98.9085 105.627 98.4373 105.073C96.2134 102.458 93.3379 100.797 90.0124 99.5479C88.7979 98.5585 87.7353 97.6341 86.6727 96.7096C91.447 95.0229 96.0894 95.5023 100.584 97.6714C102.118 98.4115 103.551 99.3621 105.235 100.359C105.681 100.574 105.921 100.648 106.161 100.722C106.161 100.722 106.141 100.697 106.128 100.706Z" fill="#CB3847"/>
<path d="M99.4577 107.38C103.723 111.603 107.987 115.826 112.37 120.11C114.072 122.451 115.657 124.731 117.267 127.147C115.462 126.067 113.617 124.873 111.805 123.63C104.561 118.663 97.3307 113.675 90.0816 108.716C89.5463 108.349 88.9017 108.145 88.1703 107.844C87.9518 107.715 87.871 107.607 87.7072 107.441C87.3383 105.262 87.0524 103.141 86.9249 100.827C90.3426 100.745 93.1289 101.995 95.5671 104.135C96.8359 105.249 98.1591 106.3 99.4577 107.38Z" fill="#1673D8"/>
<path d="M117.76 127.947C117.622 127.891 117.448 127.714 117.272 127.401C117.421 127.452 117.573 127.64 117.76 127.947Z" fill="#1673D8"/>
<path d="M73.3489 115.941C73.4966 115.973 73.6604 116.126 73.8456 116.394C73.6996 116.359 73.5323 116.211 73.3489 115.941Z" fill="#287EEE"/>
<path d="M83.2303 99.3983C83.2321 98.8649 83.2338 98.3314 83.2397 97.6375C84.0534 97.3205 84.863 97.1639 85.86 97.1486C86.1812 97.9631 86.315 98.6364 86.2748 99.3523C85.144 99.3961 84.1872 99.3972 83.2303 99.3983Z" fill="#F0B192"/>
<path d="M86.4486 99.3097C86.3148 98.6363 86.1811 97.963 86.0168 97.1398C86.1501 96.8979 86.3138 96.8059 86.5751 96.7118C87.7352 97.6341 88.7977 98.5586 89.777 99.5436C88.612 99.506 87.5303 99.4078 86.4486 99.3097Z" fill="#1673D8"/>
<path d="M123.555 99.1583C124.093 100.637 124.628 102.287 125.156 104.102C124.617 102.622 124.084 100.976 123.555 99.1583Z" fill="#57CFE1"/>
<path d="M125.532 105.216C126.071 106.695 126.603 108.34 127.132 110.157C126.595 108.68 126.06 107.03 125.532 105.216Z" fill="#57CFE1"/>
<path d="M125.146 104.379C125.275 104.443 125.408 104.63 125.543 104.939C125.413 104.875 125.281 104.688 125.146 104.379Z" fill="#57CFE1"/>
<path d="M106.1 100.606C105.921 100.649 105.681 100.575 105.364 100.395C105.537 100.355 105.788 100.422 106.1 100.606Z" fill="#43C1D5"/>
<path d="M86.2751 99.3523C87.5308 99.4078 88.6124 99.506 89.9294 99.6084C93.3382 100.797 96.2138 102.458 98.4376 105.073C98.9089 105.627 99.1159 106.408 99.4514 107.232C98.1594 106.3 96.8363 105.249 95.5674 104.135C93.1292 101.995 90.343 100.745 86.9126 100.658C85.3713 100.636 84.0012 100.59 82.6304 100.349C82.6749 99.9408 82.7202 99.7259 82.7654 99.511C82.8438 99.4958 82.9222 99.4806 83.1156 99.4319C84.1875 99.3972 85.1443 99.3961 86.2751 99.3523Z" fill="#E53F47"/>
<path d="M80.1937 102.273C79.5082 102.07 79.4098 101.81 79.7129 101.212C80.0989 100.451 80.5077 99.7014 80.9171 98.9271C82.2901 100.253 80.7724 101.127 80.1937 102.273Z" fill="#F0B192"/>
<path d="M76.2965 101.916C76.6352 101.143 76.9156 100.486 77.2975 99.5908C77.7232 100.288 78.0581 100.836 78.39 101.379C77.7234 101.823 77.1134 102.229 76.5034 102.635C76.415 102.434 76.3267 102.233 76.2965 101.916Z" fill="#F0B192"/>
<path d="M74.1408 99.923C73.8828 100.814 73.6148 101.579 73.3468 102.344C73.1153 102.234 72.8837 102.124 72.6521 102.014C73.0418 101.145 73.4313 100.276 73.8275 99.4095C73.8305 99.403 73.9529 99.4236 73.9746 99.4592C74.0388 99.5643 74.0804 99.6834 74.1408 99.923Z" fill="#F0B192"/>
<path d="M80.4646 96.1787C80.4646 95.1868 80.4646 94.3599 80.4646 93.533C80.5594 93.537 80.6543 93.541 80.7491 93.545C80.7491 94.8531 80.7491 96.1611 80.7491 97.4691C80.6738 97.471 80.5985 97.4729 80.5231 97.4747C80.5036 97.0977 80.4841 96.7207 80.4646 96.1787Z" fill="#F0B192"/>
<path d="M83.9845 92.7953C84.1832 92.8612 84.3097 93.038 84.454 93.3252C84.2864 93.854 84.1011 94.2724 83.9158 94.6909C83.7935 94.669 83.6712 94.6471 83.549 94.6252C83.6701 94.0522 83.7912 93.4793 83.9845 92.7953Z" fill="#F0B192"/>
<path d="M70.8748 101.478C70.5011 101.086 70.1925 100.593 69.8839 100.1C70.096 99.9915 70.3081 99.8829 70.5202 99.7744C70.6601 100.309 70.8 100.843 70.8748 101.478Z" fill="#F0B192"/>
<path d="M72.5436 95.1328C72.3819 94.8105 72.2202 94.4882 72.1102 94.0465C72.162 93.9271 72.1747 93.9146 72.1747 93.9146C72.3038 94.2245 72.4329 94.5345 72.5587 94.9832C72.5554 95.1218 72.5436 95.1328 72.5436 95.1328Z" fill="#F0B192"/>
<path d="M72.1554 93.9333C71.9338 93.7562 71.7185 93.5728 71.5033 93.3895C71.637 93.2665 71.7706 93.1436 71.9043 93.0206C71.9914 93.2373 72.0786 93.4539 72.1702 93.7926C72.1746 93.9145 72.1618 93.9271 72.1554 93.9333Z" fill="#F0B192"/>
<path d="M72.5619 95.1171C72.6981 95.4208 72.8278 95.7291 72.9541 96.1759C72.9507 96.3142 72.9388 96.3254 72.9388 96.3254C72.8045 96.0051 72.6702 95.6848 72.5398 95.2486C72.5436 95.1327 72.5554 95.1217 72.5619 95.1171Z" fill="#F0B192"/>
<path d="M75.0867 102.463C74.9065 102.416 74.7961 102.302 74.6941 102.181C74.6915 102.178 74.7825 102.095 74.8298 102.05C74.939 102.165 75.0483 102.28 75.0867 102.463Z" fill="#F0B192"/>
<path d="M72.9572 96.3096C73.0699 96.6332 73.1761 96.9617 73.2822 97.2901C73.1394 97.3028 72.9966 97.3156 72.8538 97.3284C72.8796 97.0708 72.9054 96.8132 72.9349 96.4406C72.9386 96.3254 72.9506 96.3143 72.9572 96.3096Z" fill="#F0B192"/>
<path d="M76.4474 95.9699C76.4151 95.8145 76.4442 95.7199 76.4733 95.6254C76.5791 95.7305 76.6848 95.8356 76.7906 95.9407C76.6967 95.9708 76.6028 96.0008 76.4474 95.9699Z" fill="#F0B192"/>
<path d="M80.3091 92.4504C80.244 92.3988 80.2344 92.3095 80.2249 92.2202C80.2715 92.2843 80.3181 92.3485 80.3091 92.4504Z" fill="#F0B192"/>
<path d="M73.2361 98.5394C73.2872 98.4743 73.3758 98.4647 73.4644 98.4551C73.4008 98.5017 73.3371 98.5483 73.2361 98.5394Z" fill="#F0B192"/>
<path d="M76.2725 93.417C76.3376 93.4686 76.3472 93.5581 76.3568 93.6475C76.3102 93.5833 76.2635 93.5191 76.2725 93.417Z" fill="#F0B192"/>
<path d="M66.2633 104.531C66.1336 104.477 65.9917 104.308 65.8384 104.022C65.9683 104.076 66.1097 104.246 66.2633 104.531Z" fill="#297FEF"/>
<path d="M77.2072 97.8978C77.1403 97.9428 77.0729 97.9208 77.0054 97.8988C77.0724 97.8761 77.1395 97.8535 77.2072 97.8978Z" fill="#F0B192"/>
<path d="M82.6821 99.5801C82.7199 99.7259 82.6746 99.9408 82.5339 100.215C82.4921 100.066 82.5456 99.8575 82.6821 99.5801Z" fill="#F0B192"/>
</svg>
