<svg width="65" height="66" viewBox="0 0 65 66" fill="none" xmlns="http://www.w3.org/2000/svg">
<path d="M35.9661 65.903C23.6554 65.903 11.8446 65.903 0 65.903C0 43.9677 0 22.0324 0 0C21.5262 0 43.087 0 64.8069 0C64.8069 21.902 64.8069 43.9024 64.8069 65.903C55.4297 65.903 45.9479 65.903 35.9661 65.903ZM24.7276 47.5046C30.739 49.3457 30.8576 49.2662 30.8779 42.9647C30.8946 37.8152 30.4597 32.6212 30.9964 27.5282C31.5668 22.1142 29.3388 19.4601 24.3708 18.4221C23.2361 18.185 22.1272 17.8256 20.9936 17.5828C16.0569 16.5257 14.3011 17.8965 14.1566 23.0902C14.0549 26.7419 14.0664 30.4001 14.1461 34.0529C14.4084 46.0646 12.39 44.2439 24.7276 47.5046ZM36.3746 19.8007C35.307 21.1211 33.3747 22.4044 33.3162 23.7681C33.0039 31.0492 33.1267 38.3505 33.1715 45.6444C33.1881 48.3326 34.5292 49.0585 37.1031 48.2224C40.0834 47.2543 43.3717 46.996 46.1092 45.6072C47.7724 44.7634 49.4666 42.4734 49.7087 40.6428C50.2475 36.569 49.8851 32.3757 49.8855 28.2311C49.8865 15.9162 48.8988 15.2421 36.3746 19.8007Z" fill="#FFE6D4"/>
<path d="M24.3532 47.3624C12.39 44.2439 14.4084 46.0646 14.1461 34.0529C14.0663 30.4002 14.0549 26.7419 14.1565 23.0902C14.3011 17.8965 16.0568 16.5257 20.9935 17.5828C22.1272 17.8256 23.2361 18.185 24.3707 18.4221C29.3388 19.4601 31.5668 22.1142 30.9963 27.5282C30.4597 32.6212 30.8945 37.8152 30.8779 42.9647C30.8575 49.2662 30.7389 49.3457 24.3532 47.3624Z" fill="#FF974C"/>
<path d="M36.7381 19.6495C48.8989 15.2421 49.8866 15.9162 49.8855 28.2311C49.8852 32.3757 50.2476 36.569 49.7088 40.6428C49.4667 42.4733 47.7725 44.7634 46.1092 45.6072C43.3718 46.996 40.0834 47.2543 37.1031 48.2224C34.5292 49.0585 33.1881 48.3325 33.1716 45.6444C33.1267 38.3505 33.004 31.0492 33.3162 23.7681C33.3747 22.4044 35.3071 21.1211 36.7381 19.6495Z" fill="#FF9548"/>
</svg>
