<svg width="512" height="431" viewBox="0 0 512 431" fill="none" xmlns="http://www.w3.org/2000/svg">
<path d="M0 242.998C0.648578 242.161 1.74613 241.911 1.87876 241.406C4.06466 233.095 10.1506 229.358 17.9105 227.612C22.8896 226.491 28.5572 229.417 28.9476 233.402C29.546 239.512 28.8402 245.309 20.5481 245.481C17.7593 245.538 16.007 246.228 14.893 249.098C13.6651 252.261 13.583 255.287 16.3001 257.05C18.28 258.334 21.4866 259.037 23.6957 258.41C30.133 256.585 32.3783 250.367 35.5973 245.331C40.4887 237.677 45.3295 230.284 55.3188 228.359C70.9114 225.353 82.5847 233.364 83.9664 249.355C84.657 257.348 83.789 265.079 78.9221 271.894C75.4127 276.808 64.1369 280.749 58.7836 278.295C54.7914 276.466 53.2546 272.621 54.072 268.317C54.9191 263.856 57.7499 261.065 62.406 260.547C69.7072 259.735 72.0846 255.108 68.2254 249.089C66.3351 246.141 60.3419 245.054 56.7582 247.765C53.4577 250.261 50.6677 253.527 48.0008 256.743C44.1393 261.4 41 266.709 36.8304 271.045C25.8024 282.513 7.7154 278.733 1.75179 264.022C1.5849 263.61 1.0371 263.353 0.333452 263.277C0 256.842 0 250.155 0 242.998Z" fill="#2329FB"/>
<path d="M512 139.062C511.336 139.874 510.33 140.048 510.06 140.589C505.686 149.353 497.701 151.649 488.915 152.521C484.981 152.911 482.778 151.025 481.885 147.214C480.331 140.583 478.656 133.98 476.979 127.378C476.664 126.138 476.106 124.959 475.664 123.762C473.453 124.467 471.102 124.659 469.526 125.864C467.667 127.285 465.863 129.379 465.144 131.548C464.041 134.873 466.234 137.24 469.193 138.52C472.681 140.028 474.512 142.515 475.324 146.209C476.082 149.654 477.292 153.304 473.665 155.46C470.08 157.591 465.961 157.369 462.622 154.555C456.291 149.218 453.616 141.793 452.119 134.015C451.435 130.461 451.79 126.656 452.025 122.987C452.534 115.035 457.125 109.771 464.383 107.593C471.974 105.315 479.84 103.691 487.701 102.636C501.403 100.798 506.843 109.821 509.992 120.002C510.31 121.03 510.844 121.992 511.639 122.757C512 127.885 512 133.24 512 139.062ZM496.064 122.891C492.858 119.078 489.498 120.107 485.842 122.36C487.016 126.593 488.115 130.559 489.22 134.545C498.539 131.441 498.811 131.009 496.064 122.891Z" fill="#2329FB"/>
<path d="M275.995 232.45C286.365 223.815 297.58 216.592 310.372 212.056C313.96 210.783 317.629 209.736 321.871 208.75C339.696 220.88 358.002 221.852 377.095 214.207C377.835 213.91 378.121 212.482 378.656 211.611C378.695 211.642 378.754 211.677 378.754 211.677C385.642 215.136 392.745 218.236 399.349 222.174C404.236 225.088 408.474 229.092 413.504 232.99C414.625 233.491 415.244 233.613 415.91 233.698C415.958 233.661 415.837 233.67 415.725 234.028C416.03 234.488 416.446 234.59 416.921 234.621C416.98 234.549 416.838 234.669 416.725 235.026C417.029 235.487 417.445 235.589 417.875 235.636C417.889 235.581 417.797 235.649 417.545 235.982C417.623 236.76 417.954 237.204 418.224 238.053C416.432 247.771 413.966 257.018 413.105 266.412C410.508 294.736 407.963 323.09 406.541 351.489C405.729 367.726 407.14 384.074 407.28 400.063C388.789 377.643 366.344 364.931 336.699 365.877C310.98 366.698 285.882 368.309 264.85 388.278C264.85 383.014 264.85 378.786 265.172 374.31C266.657 362.915 268.048 351.783 268.841 340.609C269.075 337.317 270.591 336.455 273.091 335.625C287.352 330.887 299.336 322.527 310.519 312.658C318.94 305.228 327.811 298.285 336.745 291.469C340.505 288.599 344.942 286.617 349.489 284.203C364.112 286.125 376.994 291.808 389.554 298.504C380.447 290.244 369.323 286.348 358.016 282.747C359.405 281.616 360.635 280.772 361.938 280.063C373.739 273.64 375.666 263.061 366.922 252.898C366.098 251.941 365.629 250.68 365.379 249.522C374.805 253.19 383.846 256.896 394.422 261.231C392.468 259.466 391.652 258.375 390.563 257.806C385.142 254.974 379.848 251.742 374.147 249.63C351.717 241.323 329.308 242.095 306.855 250.422C302.745 250.408 298.837 250.482 295.014 251.092C288.907 252.066 282.856 253.395 277.014 254.529C276.071 251.407 275.3 248.854 274.536 245.984C274.72 245.284 274.896 244.901 275.386 244.483C275.654 243.732 275.608 243.017 275.588 241.918C276.049 239.528 276.483 237.524 277.113 235.059C276.863 234.056 276.416 233.513 275.978 232.885C275.996 232.525 275.999 232.408 275.995 232.45ZM353.056 313.561C365.884 315.03 377.164 320.554 388.902 328.485C377.593 306.456 315.433 305.858 300.535 326.782C316.333 316.595 333.283 311.146 353.056 313.561ZM325.066 346.724C347.232 343.059 367.308 347.84 385.202 361.547C385.917 362.095 386.956 362.22 388.65 362.834C377.807 346.917 331.064 336.663 319.528 347.047C320.007 347.242 320.444 347.59 320.837 347.546C321.984 347.419 323.113 347.135 325.066 346.724Z" fill="#E4E4E4"/>
<path d="M129.385 363.484C129.738 336.207 129.79 308.921 130.579 281.656C130.934 269.382 132.978 257.164 133.812 244.891C134.16 239.775 135.712 236.133 140.354 233.563C147.906 229.382 154.719 223.115 162.741 220.677C185.639 213.718 209.091 209.49 233.568 215.004C232.65 223.923 231.346 232.344 229.591 240.807C200.174 237.359 173.678 243.375 150.201 261.068C174.752 245.982 201.099 239.128 229.98 244.119C229.668 253.114 236.714 262.021 246.155 260.529C253.974 259.294 261.776 257.948 269.564 257.079C267.302 274.428 264.777 291.32 262.93 308.285C261.801 318.651 261.715 329.131 260.718 339.551C253.214 340.2 246.154 340.859 239.033 341.15C238.143 340.324 237.363 339.697 236.476 339.437C222.972 335.476 209.206 333.5 194.939 333.753C191.402 332.677 188.057 331.848 184.666 331.294C161.137 327.448 140.916 336.751 131.928 360.138C131.445 361.393 130.249 362.375 129.385 363.484ZM186.916 308.925C174.442 310.996 162.427 314.272 152.041 322.245C181.451 307.472 211.397 306.279 242.067 317.936C224.911 308.68 206.689 306.668 186.916 308.925ZM230.393 285.7C231.601 286.001 232.809 286.302 234.017 286.604C218.205 271.297 154.139 278.542 150.232 295.792C175.208 279.217 201.498 274.956 230.393 285.7Z" fill="#FDFDFD"/>
<path d="M407.55 400.371C407.14 384.074 405.728 367.726 406.541 351.489C407.963 323.09 410.508 294.736 413.105 266.412C413.966 257.017 416.432 247.771 418.466 237.848C418.444 236.71 418.121 236.179 417.797 235.649C417.797 235.649 417.889 235.581 417.903 235.32C417.557 234.93 417.197 234.799 416.838 234.669C416.838 234.669 416.98 234.549 416.948 234.305C416.556 233.931 416.197 233.8 415.837 233.67C415.837 233.67 415.958 233.661 415.979 233.426C415.732 232.96 415.465 232.727 415.197 232.495C413.995 231.13 412.793 229.765 411.577 228.385C423.778 223.41 437.213 228.45 440.27 239.175C440.763 240.907 441.03 242.776 440.995 244.574C440.746 257.59 438.757 270.414 436.701 283.238C435.302 291.962 433.78 300.704 433.11 309.499C431.783 326.93 430.856 344.397 430.092 361.863C429.855 367.269 430.605 372.728 431.039 378.152C431.644 385.719 432.666 393.263 432.993 400.839C433.664 416.414 426.346 425.331 410.843 426.412C399.273 427.219 387.582 426.612 375.956 426.261C344.831 425.324 313.716 423.515 282.588 423.306C246.962 423.066 211.318 423.836 175.701 424.846C158.084 425.346 140.508 427.341 122.92 428.749C121.15 428.891 119.411 429.589 117.69 430.133C110.871 432.288 107.047 429.571 107.008 422.435C106.972 415.772 107.011 409.108 107.418 401.943C109.086 400.433 110.225 399.175 111.64 398.461C117.093 395.709 122.634 393.132 128.143 390.489C128.69 394.636 129.253 398.781 129.776 402.93C130.044 405.05 130.616 406.254 133.33 403.853C156.725 402.852 179.383 402.066 202.5 401.36C219.736 402.095 236.516 402.721 253.293 403.413C276.547 404.373 299.795 406.021 323.054 406.189C346.322 406.358 369.603 405.148 392.872 404.345C397.116 404.199 401.328 403.105 405.803 402.619C406.847 403.018 407.641 403.247 409.168 403.687C408.384 402.08 407.967 401.226 407.55 400.371Z" fill="#DC4402"/>
<path d="M378.922 211.296C378.754 211.677 378.695 211.642 378.244 211.563C360.139 219.046 342.919 218.617 326.149 208.796C324.951 208.094 323.379 208.029 321.981 207.668C316.987 202.562 311.993 197.457 307.117 191.673C310.432 187.53 313.172 183.428 316.926 180.743C323.267 176.209 330.769 177.38 338.102 177.982C344.615 178.515 351.292 179.183 357.702 178.328C366.663 177.133 374.372 169.43 371.238 158.635C370.366 155.629 370.066 152.458 369.578 149.038C370.211 145.878 370.947 143.058 371.205 140.195C371.273 139.447 369.852 138.566 369.115 137.363C370.895 128.377 376.835 122.385 382.247 116.061C398.706 121.362 404.932 135.161 408.747 149.93C412.126 163.014 411.298 176.793 403.746 188.269C397.63 197.563 389.435 205.685 378.922 211.296Z" fill="#53D6C3"/>
<path d="M129.284 363.911C130.249 362.375 131.445 361.394 131.928 360.138C140.916 336.751 161.137 327.448 184.666 331.294C188.056 331.848 191.402 332.677 194.571 333.882C177.368 335.781 158.067 345.142 155.293 354.309C157.107 352.898 158.106 351.973 159.241 351.263C164.689 347.855 169.853 343.749 175.705 341.28C191.944 334.43 208.773 335.644 225.603 339.064C230.081 339.973 234.595 340.705 239.093 341.519C246.154 340.86 253.214 340.2 260.864 339.998C261.688 351.922 261.946 363.389 262.143 374.858C262.187 377.436 262.017 380.019 261.961 382.579C261.977 382.558 262.01 382.518 261.67 382.486C256.458 376.266 250.05 372.177 242.779 369.536C208.39 357.044 164.289 363.017 135.87 396.58C134.963 397.651 134.562 399.15 133.908 400.405C133.89 400.361 133.796 400.345 133.796 400.345C132.923 399.012 131.393 397.732 131.281 396.338C130.426 385.684 129.848 375.008 129.284 363.911Z" fill="#E3E3E3"/>
<path d="M202.042 401.28C179.383 402.066 156.725 402.852 133.608 403.647C133.614 402.679 134.08 401.701 134.171 400.535C133.796 400.345 133.89 400.361 134.163 400.723C135.071 400.575 135.807 400.151 136.325 399.541C158.47 373.49 186.89 362.901 220.43 366.756C238.629 368.848 256.589 372.815 263.88 392.703C269.055 388.389 273.766 383.337 279.481 380.008C285.419 376.548 292.178 374.196 298.856 372.39C305.374 370.627 312.243 370.165 318.962 369.539C319.447 371.149 319.797 372.423 320.426 373.541C324.753 381.235 324.288 386.961 317.355 392.362C313.907 395.049 308.98 397.28 304.737 397.254C287.528 397.145 270.291 396.527 253.128 395.243C235.615 393.932 218.444 393.926 202.042 401.28Z" fill="#FDD12A"/>
<path d="M382.007 115.825C376.835 122.385 370.895 128.377 369.091 137.656C368.987 138.714 368.906 139.096 368.494 139.55C364.914 142.382 361.665 145.144 358.107 147.881C352.735 151.978 352.917 158.191 351.048 163.676C347.949 163.259 345.265 162.917 342.162 162.462C336.833 162.747 333.177 165.176 330.578 169.574C331.336 169.504 332.093 169.433 333.248 169.446C336.316 169.758 338.987 169.986 341.935 170.411C347.529 170.47 351.716 168.388 354.631 163.468C358.284 160.689 361.621 158.014 365.292 155.307C366.919 153.304 368.211 151.333 369.503 149.363C370.066 152.458 370.366 155.629 371.238 158.635C374.372 169.43 366.663 177.133 357.702 178.328C351.292 179.183 344.615 178.515 338.102 177.982C330.769 177.38 323.267 176.209 316.926 180.743C313.172 183.428 310.432 187.53 307.097 191.316C301.803 184.329 299.852 176.119 298.817 167.281C297.481 155.865 298.725 144.589 305.324 135.812C314.192 124.015 324.953 113.468 340.429 109.911C354.966 106.57 368.771 108.001 382.007 115.825Z" fill="#5CEDD8"/>
<path d="M401.238 74.7791C397.926 78.5475 394.16 79.6022 389.872 77.8818C384.719 75.8144 382.984 70.3434 386.053 64.563C390.796 55.627 395.958 46.9131 400.928 38.0965C402.13 35.9631 403.171 33.732 404.465 31.6578C407.064 27.4921 409.962 23.5665 415.758 24.5951C421.276 25.5745 423.567 28.7433 424.25 34.9806C429.347 35.8582 434.458 35.9121 438.852 37.713C443.852 39.7617 445.979 44.6926 446.293 50.1555C452.032 48.241 457.411 48.7079 462.726 51.4375C472.307 56.3577 476.253 65.7527 471.403 75.4084C466.143 85.8813 459.918 95.8856 453.816 105.912C451.477 109.755 446.403 110.333 441.954 108.008C437.453 105.656 435.781 102.344 438.067 97.5294C442.043 89.1549 446.754 81.131 451.074 72.9166C452.818 69.6015 456.689 65.8268 452.205 62.5313C447.79 59.2858 444.676 63.7146 442.568 66.6692C437.464 73.8232 433.051 81.4672 428.269 88.8554C424.817 94.1891 419.626 95.4911 414.646 92.4408C410.769 90.0656 409.678 84.7436 412.426 79.6748C417.091 71.0699 422.157 62.678 426.646 53.986C427.517 52.3006 426.523 49.652 426.389 47.4477C424.175 47.6954 421.071 47.105 419.907 48.3412C415.72 52.7872 411.999 57.7164 408.471 62.7233C405.851 66.4426 403.802 70.5649 401.238 74.7791Z" fill="#2329FB"/>
<path d="M176.886 119.257C175.54 112.015 173.876 105.191 173.13 98.2686C172.566 93.0428 175.275 90.4017 180.374 89.5628C184.986 88.8041 188.695 90.9083 190.023 95.8785C192.873 106.55 195.524 117.282 197.929 128.062C200.199 138.233 201.786 148.562 204.202 158.695C205.329 163.424 205.119 167.141 200.635 169.601C196.19 172.04 190.32 170.665 187.763 167.537C183.997 170.231 180.651 173.998 176.552 175.203C171.644 176.646 165.917 176.144 161.657 172.314C159.414 170.297 157.041 167.776 156.148 165.021C152.72 154.456 149.486 143.799 149.956 132.43C150.229 125.849 153.941 121.562 159.281 118.984C164.44 116.493 170.051 116.048 175.109 120.033C175.425 120.282 176.331 119.783 176.886 119.257ZM172.073 152.733C172.381 153.655 172.445 154.802 173.046 155.451C174.426 156.939 176.277 159.445 177.555 159.233C179.527 158.907 182.648 156.723 182.722 155.204C183.109 147.18 182.644 139.07 176.609 132.784C175.455 131.583 172.904 130.471 171.65 130.967C170.354 131.48 168.991 134.097 169.16 135.627C169.764 141.091 171.008 146.484 172.073 152.733Z" fill="#2329FB"/>
<path d="M128.212 390.084C122.634 393.132 117.093 395.71 111.639 398.461C110.225 399.175 109.086 400.433 107.484 401.477C107.76 386.837 108.356 372.161 108.993 357.486C109.286 350.727 109.74 343.975 109.977 337.214C110.377 325.799 110.672 314.379 110.993 302.961C111.338 290.71 111.457 278.448 112.1 266.213C112.345 261.557 113.352 256.829 114.769 252.375C116.494 246.954 122.466 245.262 131.164 247.396C125.956 294.664 125.749 342.149 128.212 390.084Z" fill="#F34A01"/>
<path d="M203.599 121.694C200.959 117.755 201.479 114.286 204.064 111.002C206.756 107.583 210.393 106.372 214.033 108.679C220.49 112.772 226.583 117.44 232.833 121.861C234.022 122.702 235.229 123.517 237.323 124.961C234.994 117.082 232.82 110.204 230.973 103.24C230.271 100.596 229.804 97.6873 230.15 95.0186C230.635 91.2774 233.185 88.9379 237.119 88.5449C241.207 88.1365 245.795 90.9396 246.949 95.1795C250.449 108.03 254.092 120.866 256.87 133.881C258.907 143.428 260.09 153.213 260.867 162.954C261.493 170.792 256.208 177.004 248.718 179.259C244.404 180.557 241.222 178.646 239.579 175.293C238.033 172.137 238.637 168.75 242.244 166.32C243.687 165.347 244.776 162.9 244.878 161.06C245.215 155.009 243.528 150.229 237.669 146.569C226.488 139.585 215.909 131.636 205.12 124.032C204.519 123.608 204.276 122.676 203.599 121.694Z" fill="#2329FB"/>
<path d="M118.289 151.219C116.326 147.249 114.283 143.698 112.895 139.908C110.699 133.912 112.019 129.67 116.216 127.47C120.658 125.141 125.988 126.12 128.987 131.229C135.997 143.171 142.459 155.442 148.891 167.712C150.602 170.975 151.257 175.136 148.004 177.724C144.675 180.371 140.697 182.907 135.994 180.052C135.187 179.562 134.27 179.253 133.181 178.76C132.297 187.187 126.815 191.27 119.311 192.387C111.431 193.559 105.132 190.171 101.197 183.177C95.9206 173.797 90.6993 164.376 85.8352 154.779C83.07 149.324 84.8099 144.65 89.6473 142.301C94.878 139.76 99.6134 141.364 102.585 146.649C107.296 155.027 111.876 163.484 116.875 171.686C117.832 173.256 120.717 174.922 122.287 174.583C125.595 173.867 126.803 170.858 125.507 167.621C123.333 162.193 120.853 156.889 118.289 151.219Z" fill="#2329FB"/>
<path d="M315.261 84.1577C309.041 68.2206 302.949 52.6421 297.06 36.987C295.9 33.905 294.833 32.825 291.377 34.2382C288.13 35.5661 284.463 35.9753 280.937 36.4835C277.122 37.0334 274.806 34.2736 274.248 31.338C273.59 27.8745 272.733 23.3861 277.409 21.4685C290.49 16.1042 303.586 10.7641 316.802 5.74662C320.996 4.15437 326.427 6.75039 327.81 10.1129C329.557 14.3563 327.333 19.9165 322.748 22.1318C319.685 23.6115 316.44 24.7125 313.117 26.0468C319.102 41.6437 325.084 57.2212 331.051 72.8051C331.745 74.6203 332.511 76.4316 332.964 78.3121C334.429 84.3869 332.561 88.5326 327.749 90.2378C322.366 92.145 318.321 90.2529 315.261 84.1577Z" fill="#2329FB"/>
<path d="M92.5097 217.527C83.1611 218.758 76.475 213.702 69.4817 209.513C65.0222 206.841 60.5631 204.168 56.5438 201.76C53.8354 204.148 51.5568 206.597 48.825 208.333C47.8371 208.961 45.3395 208.378 44.2766 207.473C42.2481 205.745 39.6726 203.544 39.3415 201.249C39.0037 198.906 41.0895 196.214 42.1611 193.56C38.0679 190.702 33.8293 188.253 30.2114 185.094C25.0528 180.589 24.7349 177.168 28.0758 172.25C30.2019 169.121 35.6646 168.097 40.3357 170.377C44.5285 172.425 48.4982 174.929 52.5688 177.232C56.7923 169.082 59.9061 166.741 64.194 169.456C66.6495 171.011 69.2686 174.093 69.5738 176.745C69.8664 179.287 67.2638 182.162 65.743 185.281C72.1062 189.041 78.2729 192.655 84.4069 196.323C87.2075 197.998 89.5427 197.336 90.917 194.625C92.9424 190.628 96.3719 189.534 100.015 190.747C103.881 192.033 106.353 194.845 106.093 199.688C105.688 207.22 100.085 215.246 92.5097 217.527Z" fill="#2329FB"/>
<path d="M230.042 240.764C231.346 232.344 232.65 223.923 233.964 215.122C247.842 216.902 260.824 221.627 273.066 228.417C274.233 229.064 275.049 230.344 276.011 231.89C275.999 232.408 275.996 232.525 275.696 233.189C275.313 234.118 275.22 234.658 274.967 235.502C273.067 242.755 271.326 249.703 269.586 256.651C261.776 257.948 253.974 259.294 246.155 260.529C236.714 262.021 229.668 253.114 230.374 244.075C237.226 245.107 243.688 246.59 250.151 248.074C250.306 247.417 250.461 246.759 250.615 246.102C243.757 244.323 236.899 242.543 230.042 240.764Z" fill="#E4E4E4"/>
<path d="M372.977 31.1201C372.996 45.041 373.058 58.5163 372.976 71.9908C372.929 79.6916 366.939 84.5335 360.394 82.267C354.478 80.2183 354.237 74.6275 354.181 70.026C354.018 56.7884 354.385 43.5208 355.283 30.3153C355.445 27.9323 358.786 24.4458 361.245 23.8378C365.263 22.8441 370.463 22.2176 372.056 28.4171C372.256 29.1955 372.654 29.9231 372.977 31.1201Z" fill="#2329FB"/>
<path d="M444.763 194.863C443.711 192.414 442.315 190.442 441.809 188.264C440.277 181.672 445.831 175.111 452.44 176.126C456.583 176.762 460.958 177.929 463.078 182.557C465.469 187.775 463.306 191.865 459.71 195.174C456.047 198.543 451.498 199.599 446.707 197.365C445.921 196.999 445.445 195.969 444.763 194.863Z" fill="#FCD02A"/>
<path d="M55.4772 332.23C51.9431 326.513 51.9946 321.953 55.3954 318.181C58.9525 314.234 63.5557 313.817 69.3802 316.911C74.6987 319.737 76.1829 323.102 74.5092 328.54C72.8252 334.011 67.9062 337.502 62.6162 336.729C59.815 336.32 55.941 337.351 55.4772 332.23Z" fill="#5BEBD7"/>
<path d="M373.935 9.42394C371.53 16.9037 369.672 18.4604 363.984 18.5549C360.176 18.6181 356.521 17.6224 355.881 13.6973C355.289 10.0674 355.157 5.35366 357.032 2.65091C358.519 0.508116 363.389 -0.135716 366.687 0.0228759C371.797 0.268648 373.182 4.664 373.935 9.42394Z" fill="#2329FB"/>
<path d="M321.977 207.854C323.379 208.029 324.951 208.094 326.149 208.796C342.919 218.617 360.139 219.046 378.206 211.533C378.12 212.482 377.834 213.91 377.095 214.206C358.002 221.851 339.696 220.88 322.25 208.662C322.019 208.41 321.974 208.04 321.977 207.854Z" fill="#171614"/>
<path d="M414.815 232.538C415.465 232.727 415.732 232.96 415.931 233.463C415.244 233.613 414.625 233.491 413.838 233.033C413.924 232.658 414.178 232.62 414.815 232.538Z" fill="#171614"/>
<path d="M496.29 123.221C498.811 131.009 498.539 131.441 489.22 134.545C488.115 130.559 487.015 126.593 485.842 122.36C489.498 120.107 492.858 119.078 496.29 123.221Z" fill="black"/>
<path d="M349.072 284.231C344.942 286.616 340.505 288.599 336.745 291.469C327.811 298.285 318.94 305.228 310.519 312.658C299.336 322.526 287.352 330.887 273.091 335.625C270.591 336.455 269.075 337.317 268.841 340.609C268.048 351.783 266.657 362.915 265.038 373.899C262.643 330.848 264.216 288.233 274.529 246.301C275.3 248.854 276.071 251.406 277.014 254.529C282.856 253.395 288.907 252.066 295.014 251.092C298.837 250.482 302.745 250.408 306.611 250.672C303.35 252.957 300.091 254.664 296.833 256.372C297.137 256.916 297.442 257.46 297.746 258.004C299.291 257.276 300.848 256.572 302.38 255.818C322.473 245.929 343.299 243.4 364.995 249.56C365.629 250.68 366.098 251.941 366.922 252.898C375.666 263.061 373.739 273.64 361.938 280.063C360.635 280.772 359.405 281.616 357.594 282.695C338.552 279.108 320.407 279.561 302.842 287.31C318.07 283.516 333.399 281.331 349.072 284.231Z" fill="#FDFDFD"/>
<path d="M274.536 245.984C264.216 288.233 262.643 330.848 264.715 374.147C264.85 378.786 264.85 383.014 264.85 388.278C285.882 368.309 310.98 366.698 336.699 365.877C366.344 364.931 388.789 377.643 407.28 400.063C407.967 401.226 408.384 402.08 409.168 403.687C407.641 403.247 406.847 403.018 405.642 402.29C383.529 372.266 353.424 364.937 318.958 369.132C312.243 370.165 305.374 370.627 298.856 372.39C292.178 374.196 285.419 376.548 279.481 380.008C273.766 383.337 269.055 388.389 263.88 392.703C256.589 372.815 238.629 368.848 220.43 366.756C186.89 362.901 158.47 373.49 136.325 399.541C135.807 400.151 135.071 400.575 134.181 400.767C134.562 399.149 134.963 397.651 135.87 396.58C164.289 363.017 208.39 357.044 242.779 369.536C250.05 372.177 256.458 376.266 261.706 382.749C262.264 383.04 262.447 383.036 262.63 383.032C262.617 382.901 262.63 382.668 262.585 382.657C262.381 382.604 262.16 382.613 261.946 382.599C262.017 380.019 262.187 377.436 262.143 374.857C261.946 363.389 261.688 351.922 261.307 340.007C261.715 329.131 261.801 318.651 262.93 308.285C264.777 291.32 267.302 274.428 269.564 257.079C271.326 249.703 273.067 242.755 275.411 235.605C276.315 235.441 276.616 235.48 276.918 235.519C276.483 237.524 276.049 239.528 275.423 242.159C275.179 243.363 275.125 243.941 275.072 244.519C274.896 244.901 274.72 245.284 274.536 245.984Z" fill="#171614"/>
<path d="M365.379 249.522C343.299 243.4 322.473 245.929 302.38 255.818C300.848 256.572 299.292 257.276 297.746 258.004C297.442 257.46 297.137 256.916 296.833 256.372C300.091 254.664 303.35 252.957 306.851 250.999C329.308 242.095 351.717 241.323 374.147 249.63C379.848 251.742 385.142 254.974 390.563 257.806C391.652 258.375 392.468 259.466 394.422 261.231C383.846 256.896 374.805 253.19 365.379 249.522Z" fill="#202123"/>
<path d="M352.595 313.528C333.283 311.146 316.332 316.595 300.535 326.782C315.433 305.858 377.592 306.456 388.902 328.485C377.164 320.554 365.884 315.03 352.595 313.528Z" fill="#1D1E1F"/>
<path d="M349.489 284.203C333.399 281.331 318.07 283.516 302.842 287.31C320.407 279.561 338.552 279.108 357.468 283.045C369.323 286.348 380.447 290.244 389.554 298.504C376.994 291.808 364.112 286.125 349.489 284.203Z" fill="#202123"/>
<path d="M324.657 346.819C323.113 347.135 321.984 347.419 320.837 347.546C320.444 347.59 320.008 347.242 319.528 347.047C331.064 336.663 377.807 346.917 388.65 362.834C386.956 362.22 385.917 362.095 385.202 361.547C367.308 347.84 347.232 343.059 324.657 346.819Z" fill="#1A1B1D"/>
<path d="M275.386 244.483C275.125 243.941 275.178 243.363 275.396 242.544C275.607 243.017 275.654 243.732 275.386 244.483Z" fill="#FDFDFD"/>
<path d="M277.113 235.059C276.617 235.48 276.315 235.441 275.57 235.3C275.22 234.658 275.313 234.118 275.689 233.274C276.416 233.513 276.863 234.056 277.113 235.059Z" fill="black"/>
<path d="M417.545 235.982C418.121 236.179 418.444 236.71 418.526 237.445C417.954 237.204 417.623 236.76 417.545 235.982Z" fill="#171614"/>
<path d="M416.725 235.026C417.197 234.799 417.557 234.93 417.889 235.376C417.445 235.589 417.029 235.487 416.725 235.026Z" fill="#171614"/>
<path d="M415.725 234.027C416.197 233.8 416.556 233.931 416.888 234.377C416.446 234.59 416.029 234.488 415.725 234.027Z" fill="#171614"/>
<path d="M229.591 240.807C236.899 242.543 243.757 244.323 250.615 246.102C250.46 246.759 250.306 247.417 250.151 248.074C243.688 246.59 237.226 245.107 230.369 243.668C201.098 239.128 174.752 245.982 150.201 261.068C173.678 243.375 200.174 237.359 229.591 240.807Z" fill="#222325"/>
<path d="M187.353 308.843C206.689 306.668 224.911 308.68 242.066 317.936C211.397 306.279 181.451 307.472 152.041 322.245C162.427 314.272 174.442 310.996 187.353 308.843Z" fill="#1E1F20"/>
<path d="M229.999 285.586C201.498 274.956 175.208 279.217 150.232 295.792C154.139 278.542 218.205 271.297 234.017 286.604C232.809 286.302 231.601 286.001 229.999 285.586Z" fill="#1F1F21"/>
<path d="M239.032 341.15C234.595 340.705 230.081 339.973 225.603 339.064C208.773 335.644 191.944 334.43 175.705 341.28C169.853 343.749 164.689 347.855 159.241 351.263C158.106 351.973 157.107 352.898 155.293 354.309C158.067 345.142 177.368 335.781 194.742 334.257C209.206 333.5 222.971 335.476 236.476 339.437C237.363 339.697 238.143 340.324 239.032 341.15Z" fill="#1A1B1D"/>
<path d="M318.962 369.539C353.424 364.937 383.529 372.266 405.392 402.12C401.328 403.105 397.116 404.199 392.872 404.345C369.603 405.148 346.322 406.358 323.054 406.189C299.795 406.021 276.548 404.373 253.293 403.413C236.516 402.721 219.736 402.095 202.5 401.36C218.444 393.926 235.615 393.932 253.128 395.243C270.291 396.527 287.528 397.145 304.737 397.254C308.98 397.28 313.907 395.049 317.355 392.362C324.288 386.961 324.753 381.235 320.426 373.541C319.797 372.423 319.447 371.149 318.962 369.539Z" fill="#E5BB26"/>
<path d="M369.578 149.038C368.211 151.333 366.919 153.304 365.188 154.933C366.108 149.554 367.467 144.516 368.825 139.479C368.906 139.096 368.987 138.714 369.091 138.039C369.852 138.566 371.273 139.447 371.205 140.195C370.947 143.058 370.211 145.878 369.578 149.038Z" fill="#192324"/>
<path d="M368.493 139.55C367.466 144.516 366.108 149.554 364.853 154.966C361.621 158.014 358.284 160.689 354.558 163.069C355.584 157.818 357 152.862 358.417 147.906C361.665 145.144 364.914 142.382 368.493 139.55Z" fill="#F8FAFA"/>
<path d="M358.107 147.881C357.001 152.862 355.584 157.818 354.241 163.173C351.716 168.388 347.529 170.47 342.073 170.088C345.11 167.63 348.287 165.691 351.464 163.752C352.917 158.191 352.735 151.978 358.107 147.881Z" fill="#161F20"/>
<path d="M351.048 163.676C348.287 165.691 345.11 167.63 341.795 169.892C338.987 169.986 336.316 169.758 333.4 169.146C336.296 166.7 339.438 164.638 342.58 162.576C345.265 162.917 347.949 163.259 351.048 163.676Z" fill="#EEF6F5"/>
<path d="M342.162 162.462C339.438 164.638 336.296 166.7 333.002 169.062C332.093 169.433 331.336 169.504 330.578 169.574C333.177 165.176 336.833 162.747 342.162 162.462Z" fill="#192324"/>
<path d="M172.041 152.319C171.008 146.484 169.765 141.091 169.16 135.627C168.991 134.097 170.355 131.48 171.65 130.967C172.904 130.471 175.456 131.583 176.609 132.784C182.644 139.07 183.109 147.18 182.722 155.204C182.648 156.723 179.527 158.907 177.555 159.233C176.277 159.445 174.426 156.939 173.047 155.451C172.445 154.802 172.381 153.655 172.041 152.319Z" fill="black"/>
<path d="M261.961 382.579C262.16 382.613 262.381 382.604 262.585 382.657C262.63 382.668 262.617 382.901 262.63 383.032C262.447 383.036 262.264 383.04 262.046 382.781C262.011 382.518 261.977 382.558 261.961 382.579Z" fill="#E3E3E3"/>
</svg>
