<svg width="452" height="451" viewBox="0 0 452 451" fill="none" xmlns="http://www.w3.org/2000/svg">
<path d="M113.969 361.106C113.977 358.426 113.986 355.745 114.349 352.332C114.77 338.553 114.836 325.507 114.922 311.98C114.956 291.35 114.989 271.202 114.942 251.054C114.938 249.461 114.382 247.869 114.083 246.276C117.966 235.249 119.421 234.273 132.743 234.548C134.309 234.925 135.134 235.084 135.959 235.084C196.255 235.097 256.55 235.103 316.846 235.061C318.251 235.06 319.655 234.507 321.06 234.211C323.719 234.227 326.407 234.497 329.034 234.211C336.133 233.44 343.052 239.308 343.011 248.229C342.913 269.676 342.974 291.124 342.723 313.378C342.333 322.896 342.107 331.606 342.092 340.316C342.086 343.36 342.596 346.406 342.871 349.451C342.91 353.056 342.948 356.662 342.743 361.044C342.36 366.131 342.113 370.442 342.099 374.753C342.049 390.251 339.886 392.474 324.603 392.476C301.778 392.479 278.953 392.483 256.065 392.005C255.985 372.234 255.979 352.945 255.947 333.656C255.932 324.331 252.29 320.589 243.027 320.518C233.549 320.445 224.07 320.471 214.592 320.51C204.747 320.55 201.13 324.234 201.098 334.133C201.034 353.585 200.969 373.038 200.441 392.487C176.147 392.482 152.317 392.501 128.487 392.464C118.706 392.449 115.008 388.638 114.982 378.74C114.97 374.407 115.066 370.072 114.933 365.743C114.885 364.189 114.306 362.651 113.969 361.106Z" fill="#AAEEEA"/>
<path d="M256.128 392.487C278.953 392.483 301.778 392.478 324.603 392.476C339.886 392.474 342.049 390.251 342.099 374.753C342.113 370.442 342.36 366.131 342.774 361.495C365.643 361.199 388.239 361.276 410.834 361.201C413.8 361.192 415.589 361.913 416.977 364.778C427.86 387.247 438.922 409.629 449.904 432.049C450.605 433.481 451.097 435.015 451.29 436.876C364.443 437.26 277.992 437.281 191.541 437.278C127.744 437.275 63.9471 437.243 0.150024 437.224C4.24295 428.606 8.29129 419.966 12.4392 411.375C18.7195 398.367 25.069 385.392 31.9121 372.564C32.9687 377.283 31.9645 382.408 36.7296 385.4C29.6553 387.354 30.1194 392.746 30.1622 397.987C30.2357 406.98 32.4685 409.293 41.2923 409.296C60.415 409.302 79.5378 409.298 98.6605 409.298C100.942 409.298 103.223 409.298 105.822 409.298C105.822 407.437 105.822 406.154 105.859 404.429C105.873 399.32 105.851 394.652 105.863 389.624C105.894 388.061 105.891 386.859 106.279 385.556C107.089 384.045 107.508 382.636 107.964 380.763C107.976 375.631 107.951 370.961 107.971 365.894C107.983 364.432 107.95 363.367 107.97 362.086C108.022 361.871 108.076 361.43 108.076 361.43C109.762 361.367 111.448 361.303 113.551 361.173C114.306 362.651 114.885 364.189 114.933 365.743C115.066 370.072 114.97 374.407 114.981 378.74C115.008 388.638 118.706 392.449 128.487 392.464C152.317 392.501 176.147 392.482 200.51 392.873C201.449 395.84 201.854 398.419 202.296 401.225C199.77 401.225 197.273 401.119 194.79 401.265C193.343 401.35 191.177 401.372 190.632 402.238C189.338 404.293 187.624 407.294 188.303 409.055C189.063 411.028 192.242 413.239 194.425 413.3C208.24 413.685 222.071 413.503 235.896 413.506C244.558 413.507 253.22 413.457 261.881 413.522C266.097 413.553 269.15 412.34 269.247 407.484C269.334 403.166 267.016 401.285 261.603 401.227C259.326 401.203 257.048 401.223 254.883 401.223C255.336 398.042 255.732 395.264 256.128 392.487Z" fill="#FEB834"/>
<path d="M300.066 127.354C291.252 147.605 277.695 163.174 256.662 171.391C255.628 171.795 254.707 172.491 252.975 173.156C245.521 174.25 238.758 176.359 232.147 175.959C222.672 175.385 213.308 172.98 203.897 171.357C187.91 165.852 176.791 154.586 167.908 140.758C165.481 136.979 163.467 132.935 161.123 128.288C159.66 122.576 158.337 117.589 157.376 112.482C158.543 110.798 159.934 109.276 160.051 107.661C160.605 100.08 160.725 92.4687 161.202 84.8808C161.306 83.2201 161.746 80.7819 162.868 80.1183C168.511 76.782 170.668 71.8287 171.058 65.6026C171.163 63.9321 171.76 61.8525 172.898 60.7579C180.306 53.6301 187.498 46.1703 195.589 39.8854C205.137 32.4682 216.229 30.2916 228.549 31.7355C241.314 33.2315 254.288 38.8976 267.146 31.3942C268.379 33.6876 269.356 35.5964 270.414 37.4588C275.438 46.298 280.349 55.3094 289.014 61.1896C291.491 62.8702 292.209 64.3655 291.893 67.1813C291.265 72.7751 291.47 78.1755 296.876 81.9187C297.787 82.5492 297.994 84.4915 298.148 85.8699C298.886 92.4771 299.274 99.1325 300.276 105.696C300.598 107.803 300.528 111.722 304.967 110.58C303.347 116.451 301.707 121.902 300.066 127.354ZM205.094 110.82C208.229 106.649 206.632 102.903 203.622 99.733C200.715 96.672 196.833 96.2895 193.085 98.0405C188.824 100.031 187.183 103.726 187.936 108.296C188.582 112.208 190.578 115.001 195.679 115.359C200.073 117.123 202.015 113.645 205.094 110.82ZM261.762 115.297C267.057 113.605 269.379 109.473 267.806 104.211C266.583 100.12 263.564 97.8698 259.441 97.4704C255.155 97.0552 252.088 99.4106 250.251 103.029C248.805 105.876 247.903 109.034 251.979 111.741C254.29 114.701 256.393 118.181 261.762 115.297ZM230.49 141.426C236.97 141.47 241.703 138.646 245.199 133.225C237.978 128.329 220.911 128.564 216.97 133.435C219.667 138.679 223.023 140.794 230.49 141.426ZM281.899 124.947C279.138 124.065 276.123 122.043 273.68 122.587C270.577 123.278 265.995 125.654 265.513 128.011C264.585 132.558 269.673 133.268 273.06 133.927C278.854 135.056 283.29 130.817 281.899 124.947ZM181.853 127.541C182.485 129.375 182.945 132.697 183.778 132.793C188.012 133.283 192.633 133.861 196.561 132.63C200.623 131.356 200.345 127.192 196.643 124.69C192.654 121.993 186.244 122.965 181.853 127.541ZM203.959 83.7896C195.98 80.2189 184.333 83.5886 179.116 91.3033C183.105 90.531 186.734 89.5243 190.423 89.1984C194.198 88.865 198.035 89.324 201.838 89.2027C205.12 89.0979 205.645 87.141 203.959 83.7896ZM254.927 88.3206C258.144 88.6993 261.394 88.9039 264.572 89.4966C269.63 90.4402 274.641 91.6425 279.965 92.7992C275.484 85.8465 265.442 81.2089 258.235 83.068C256.693 83.4659 255.719 86.0694 254.927 88.3206Z" fill="#FEB08D"/>
<path d="M340.979 101.282C339.979 87.7258 338.911 74.6263 338.019 61.5148C337.723 57.1752 339.472 54.0565 344.189 53.1875C354.697 51.2517 365.115 48.401 375.707 47.4401C394.075 45.7737 412.541 45.0625 430.982 44.4106C435.019 44.2679 439.208 45.788 443.18 47.0182C448.658 48.7148 449.62 53.7114 449.89 58.4006C450.789 74.0643 451.514 89.7451 451.86 105.429C451.966 110.233 450.907 115.126 449.894 119.875C448.881 124.624 445.826 128.265 441.132 129.524C432.876 131.74 424.545 133.973 416.099 135.105C406.184 136.433 396.087 136.355 386.131 137.448C383.939 137.688 381.5 139.913 380.051 141.872C375.858 147.54 370.391 149.687 363.168 149.159C364.159 147.115 365.068 145.277 365.946 143.425C368.037 139.015 366.639 136.682 361.66 136.263C359.059 136.045 356.388 136.14 353.868 135.567C348.234 134.285 346.419 129.428 345.296 124.719C343.49 117.145 342.382 109.405 340.979 101.282ZM366.116 85.548C371.476 85.8739 373.847 88.5163 372.804 93.9784C372.092 97.7102 373.859 99.0565 377.537 99.7866C392.277 102.713 406.942 102.504 421.727 100.174C426.786 99.377 429.147 97.4303 428.128 92.1528C427.373 88.2485 429.193 86.5211 433.096 85.857C437.325 85.1377 441.421 83.6445 445.575 82.4888C430.623 77.438 415.835 73.5616 401.001 69.8678C399.523 69.4997 397.73 70.0926 396.147 70.4954C383.407 73.7386 370.678 77.0324 357.955 80.3442C356.533 80.7145 355.165 81.2933 353.771 81.7754C361.306 82.3106 361.078 87.2481 360.793 92.3732C360.618 95.5019 360.76 98.6481 360.76 101.786C361.522 101.839 362.284 101.892 363.046 101.945C363.314 100.029 363.591 98.1154 363.848 96.1988C364.33 92.6219 364.8 89.0434 366.116 85.548Z" fill="#FFB733"/>
<path d="M304.946 110.16C300.528 111.722 300.598 107.803 300.276 105.696C299.274 99.1326 298.886 92.4772 298.148 85.87C297.994 84.4915 297.787 82.5493 296.876 81.9188C291.47 78.1755 291.265 72.7752 291.893 67.1813C292.209 64.3656 291.491 62.8703 289.014 61.1896C280.349 55.3095 275.438 46.2981 270.414 37.4589C269.356 35.5964 268.379 33.6877 267.146 31.3943C254.288 38.8977 241.315 33.2316 228.549 31.7356C216.229 30.2917 205.138 32.4682 195.589 39.8855C187.498 46.1704 180.306 53.6302 172.898 60.7579C171.76 61.8526 171.163 63.9321 171.058 65.6027C170.668 71.8287 168.511 76.7821 162.868 80.1184C161.746 80.7819 161.306 83.2202 161.202 84.8809C160.725 92.4688 160.605 100.08 160.052 107.661C159.934 109.276 158.543 110.798 157.128 112.28C155.393 111.598 154.268 110.999 153.04 110.309C152.937 110.218 152.734 110.034 152.77 109.686C152.5 107.833 152.194 106.328 151.784 104.313C153.658 103.071 153.716 99.068 150.936 93.1066C149.247 83.8442 148.461 74.2928 145.618 65.3993C142.691 56.2466 144.16 48.5866 148.897 40.8279C154.496 31.6589 162.735 25.2625 171.388 19.424C184.131 10.8261 197.765 3.98298 213.074 1.25759C227.978 -1.39563 242.53 0.116065 256.478 6.10982C261.34 8.19937 266.161 10.5096 270.675 13.2535C275.961 16.4659 280.834 19.8282 287.502 20.2911C290.777 20.5185 294.035 23.6225 296.934 25.8921C300.094 28.3654 302.541 31.788 305.8 34.0883C319.77 43.9519 323.166 62.2685 314.378 76.9998C311.746 81.4116 311.602 87.3074 310.045 93.2622C309.231 97.5423 308.689 101.084 308.148 104.625C308.477 104.606 308.807 104.587 309.136 104.568C308.058 105.978 306.979 107.388 305.645 108.974C305.227 109.526 305.065 109.902 304.94 110.258C304.978 110.239 304.946 110.16 304.946 110.16Z" fill="#3A3535"/>
<path d="M0.0750141 437.687C63.9471 437.243 127.744 437.276 191.541 437.278C277.992 437.281 364.443 437.26 451.352 437.233C451.562 441.432 451.315 445.647 451.057 450.045C300.574 450.045 150.574 450.045 0 450.045C0 446.025 1.11759e-07 442.088 0.0750141 437.687Z" fill="#FF842F"/>
<path d="M321.007 233.835C319.655 234.507 318.251 235.06 316.846 235.061C256.55 235.103 196.255 235.097 135.959 235.084C135.134 235.084 134.309 234.925 133.19 234.529C141.23 216.229 154.66 205.369 174.658 201.925C181.793 200.697 188.297 195.803 195.613 192.713C217.806 208.983 240.723 211.651 265.037 199.219C276.244 202.254 287.416 205.424 298.668 208.284C309.058 210.926 315.264 217.778 318.921 227.417C319.674 229.402 320.281 231.443 321.007 233.835Z" fill="#38AE38"/>
<path d="M264.904 198.898C240.723 211.651 217.806 208.983 195.915 192.578C198.225 188.359 200.754 184.407 203.861 180.566C220.38 186.828 236.516 187.065 252.818 182.268C255.78 188.454 258.385 194.901 264.904 198.898Z" fill="#FDB08C"/>
<path d="M107.917 362.302C107.95 363.367 107.983 364.432 107.508 365.882C85.862 366.265 64.7235 366.254 43.585 366.268C37.637 366.272 37.0211 366.921 36.9834 372.88C36.9366 380.28 37.628 381.237 43.5133 381.243C64.9845 381.265 86.4558 381.236 107.927 381.226C107.508 382.636 107.089 384.045 105.82 385.474C82.3366 385.42 59.7037 385.348 37.0709 385.276C31.9645 382.408 32.9687 377.283 32.2265 372.371C31.7686 368.106 31.8751 364.343 36.9132 362.291C61.1424 362.299 84.5299 362.3 107.917 362.302Z" fill="#FF1D26"/>
<path d="M305.9 108.798C306.979 107.388 308.057 105.978 309.136 104.568C308.806 104.587 308.477 104.606 308.148 104.625C308.689 101.084 309.231 97.5423 309.885 93.6316C323.403 91.7217 326.365 104.192 322.477 115.143C320.165 121.659 316.096 126.994 308.549 127.926C306.061 128.233 303.447 127.523 300.478 127.315C301.707 121.902 303.347 116.451 304.967 110.58C304.946 110.16 304.978 110.239 305.18 110.069C305.555 109.532 305.728 109.165 305.9 108.798Z" fill="#FC8A5E"/>
<path d="M252.891 181.825C236.516 187.065 220.38 186.828 204.187 180.411C203.945 177.507 203.955 174.868 203.931 171.793C213.308 172.98 222.672 175.386 232.147 175.959C238.758 176.359 245.521 174.25 252.641 173.3C253.031 176.021 252.998 178.701 252.891 181.825Z" fill="#FF8D60"/>
<path d="M153.143 110.399C154.268 110.998 155.393 111.598 156.766 112.399C158.337 117.589 159.66 122.576 160.972 127.969C145.299 127.829 136.273 115.118 140.886 100.628C142.462 95.6795 146.254 94.6798 150.598 93.2809C153.716 99.0679 153.658 103.071 151.784 104.313C152.194 106.328 152.5 107.833 152.521 109.864C152.235 110.935 152.235 111.48 152.235 112.025C152.395 112.042 152.555 112.06 152.715 112.078C152.857 111.519 153 110.959 153.143 110.399Z" fill="#FC8A5E"/>
<path d="M119.345 57.5109C116.538 62.2317 114.046 66.7468 111.621 71.1389C109.371 64.6108 105.554 57.9742 97.1647 54.2463C104.845 50.6692 110.574 46.2494 110.909 37.2791C113.252 46.0749 118.538 51.1265 127.669 52.9336C124.549 54.6368 122.105 55.971 119.345 57.5109Z" fill="#FFB733"/>
<path d="M362.094 196.27C363.895 197.005 365.326 197.685 367.321 198.634C360.394 201.231 356.994 206.137 355.951 211.731C352.56 207.573 348.863 203.04 345.144 198.48C350.381 197.017 353.453 192.648 354.228 186.992C356.719 190.057 359.221 193.136 362.094 196.27Z" fill="#FFB733"/>
<path d="M84.2725 188.976C87.4966 192.598 90.4997 195.926 93.5369 199.292C88.9122 201.525 85.0514 205.858 84.8082 212.214C81.2972 207.945 77.5926 203.441 73.7306 198.745C75.1355 197.646 77.7158 196.198 79.4921 194.077C81.2485 191.98 82.1929 189.203 83.7293 186.274C83.8806 187.405 83.9661 188.044 84.2725 188.976Z" fill="#FFB733"/>
<path d="M114.901 312.462C114.836 325.507 114.77 338.553 114.412 351.886C107.908 340.386 110.688 328.453 113.514 316.51C113.776 315.403 113.831 314.246 114.241 312.746C114.5 312.38 114.901 312.462 114.901 312.462Z" fill="#38AE38"/>
<path d="M343.206 349.262C342.596 346.406 342.086 343.36 342.092 340.316C342.107 331.606 342.333 322.896 342.677 313.863C343.864 323.091 345.033 332.629 345.7 342.202C345.856 344.431 344.306 346.78 343.206 349.262Z" fill="#49AE3D"/>
<path d="M107.97 362.086C84.5299 362.3 61.1424 362.299 37.2711 362.282C38.3045 361.93 39.8209 361.306 41.3389 361.303C63.2695 361.248 85.2002 361.277 107.604 361.358C108.076 361.43 108.022 361.871 107.97 362.086Z" fill="#FF5E2B"/>
<path d="M114.922 311.98C114.901 312.462 114.5 312.38 114.301 312.334C114.057 290.593 114.012 268.898 114.025 246.74C114.382 247.869 114.938 249.461 114.942 251.054C114.989 271.202 114.956 291.35 114.922 311.98Z" fill="#A6EDE9"/>
<path d="M256.065 392.005C255.732 395.264 255.336 398.042 254.883 401.223C257.048 401.223 259.326 401.203 261.603 401.227C267.016 401.285 269.334 403.166 269.247 407.484C269.15 412.34 266.097 413.553 261.881 413.522C253.22 413.457 244.558 413.507 235.896 413.506C222.071 413.504 208.24 413.685 194.425 413.3C192.242 413.239 189.063 411.028 188.303 409.055C187.624 407.294 189.338 404.293 190.632 402.239C191.177 401.372 193.343 401.35 194.791 401.265C197.273 401.119 199.77 401.225 202.296 401.225C201.854 398.419 201.449 395.84 200.974 392.875C200.969 373.038 201.034 353.585 201.098 334.133C201.13 324.234 204.747 320.55 214.592 320.51C224.07 320.471 233.549 320.445 243.027 320.518C252.29 320.589 255.932 324.331 255.947 333.656C255.979 352.945 255.985 372.234 256.065 392.005ZM230.185 352.109C221.672 352.257 216.373 357.64 217.537 364.959C218.441 370.647 223.306 374.924 228.895 374.943C234.356 374.961 239.317 370.753 240.072 365.464C241.017 358.833 238.024 354.447 230.185 352.109Z" fill="#02CCC1"/>
<path d="M105.828 389.985C105.851 394.652 105.874 399.32 105.404 404.442C83.758 404.902 62.6041 404.932 41.4503 404.896C35.5325 404.886 34.8364 403.974 34.8412 397.115C34.8459 390.521 35.2805 389.989 41.3671 389.982C62.8542 389.96 84.3412 389.98 105.828 389.985Z" fill="#F9F1DE"/>
<path d="M107.964 380.763C86.4559 381.236 64.9845 381.265 43.5133 381.243C37.628 381.237 36.9366 380.28 36.9834 372.88C37.0211 366.922 37.637 366.272 43.585 366.268C64.7235 366.254 85.8621 366.265 107.464 366.279C107.951 370.962 107.976 375.631 107.964 380.763Z" fill="#FFF3E3"/>
<path d="M105.863 389.624C84.3412 389.98 62.8541 389.96 41.3671 389.982C35.2805 389.989 34.8458 390.521 34.8412 397.115C34.8363 403.974 35.5325 404.886 41.4502 404.896C62.604 404.932 83.7579 404.902 105.367 404.884C105.822 406.154 105.822 407.437 105.822 409.298C103.223 409.298 100.942 409.298 98.6606 409.298C79.5378 409.298 60.4151 409.302 41.2924 409.296C32.4686 409.293 30.2357 406.98 30.1623 397.987C30.1195 392.746 29.6553 387.354 36.7297 385.4C59.7038 385.348 82.3367 385.42 105.428 385.574C105.891 386.859 105.894 388.061 105.863 389.624Z" fill="#49AE3D"/>
<path d="M230.054 141.416C223.023 140.794 219.667 138.679 216.97 133.435C220.911 128.564 237.978 128.329 245.199 133.225C241.703 138.646 236.97 141.47 230.054 141.416Z" fill="#FFFDFC"/>
<path d="M282.154 125.241C283.29 130.817 278.854 135.056 273.06 133.928C269.673 133.268 264.585 132.558 265.513 128.011C265.995 125.654 270.577 123.278 273.68 122.587C276.123 122.043 279.138 124.065 282.154 125.241Z" fill="#FF8D60"/>
<path d="M182.024 127.211C186.245 122.965 192.654 121.993 196.644 124.69C200.345 127.192 200.623 131.356 196.561 132.63C192.633 133.861 188.012 133.283 183.778 132.793C182.945 132.697 182.485 129.375 182.024 127.211Z" fill="#FF8D60"/>
<path d="M261.013 115.337C256.393 118.181 254.29 114.701 251.671 111.111C250.572 106.569 252.341 103.72 255.757 102.451C258.933 101.272 262.065 102.308 263.754 105.544C265.639 109.155 264.658 112.195 261.291 114.489C261.097 114.622 261.101 115.047 261.013 115.337Z" fill="#413D3D"/>
<path d="M204.24 84.0999C205.645 87.141 205.12 89.0979 201.838 89.2027C198.035 89.324 194.198 88.865 190.423 89.1984C186.734 89.5243 183.105 90.531 179.116 91.3034C184.333 83.5886 195.98 80.2189 204.24 84.0999Z" fill="#413D3D"/>
<path d="M204.463 111.249C202.015 113.645 200.073 117.123 195.236 114.916C191.6 111.596 190.473 108.338 192.926 104.413C195.637 100.074 199.681 101.998 202.204 103.641C203.893 104.741 203.773 108.616 204.463 111.249Z" fill="#413D3D"/>
<path d="M254.706 87.9887C255.72 86.0694 256.693 83.4659 258.235 83.0681C265.442 81.209 275.484 85.8465 279.965 92.7992C274.641 91.6426 269.63 90.4403 264.572 89.4966C261.394 88.9039 258.144 88.6993 254.706 87.9887Z" fill="#413D3D"/>
<path d="M204.779 111.035C203.773 108.616 203.893 104.741 202.204 103.641C199.681 101.998 195.637 100.074 192.926 104.413C190.473 108.339 191.6 111.597 194.897 114.814C190.578 115.001 188.582 112.208 187.937 108.296C187.183 103.726 188.824 100.031 193.085 98.0405C196.834 96.2895 200.715 96.672 203.622 99.733C206.632 102.903 208.229 106.649 204.779 111.035Z" fill="#F8F4F3"/>
<path d="M261.388 115.317C261.101 115.047 261.097 114.621 261.291 114.489C264.658 112.195 265.639 109.155 263.754 105.544C262.065 102.308 258.933 101.272 255.757 102.451C252.341 103.72 250.572 106.569 251.452 110.875C247.903 109.034 248.805 105.876 250.251 103.029C252.088 99.4107 255.155 97.0552 259.441 97.4704C263.564 97.8699 266.583 100.12 267.806 104.211C269.379 109.473 267.057 113.605 261.388 115.317Z" fill="#F8F4F3"/>
<path d="M365.695 85.5068C364.8 89.0434 364.33 92.6219 363.849 96.1988C363.591 98.1154 363.314 100.029 363.046 101.945C362.284 101.892 361.522 101.839 360.76 101.786C360.76 98.6481 360.618 95.5018 360.793 92.3732C361.078 87.2481 361.306 82.3106 353.771 81.7753C355.165 81.2932 356.533 80.7144 357.955 80.3442C370.679 77.0324 383.407 73.7386 396.147 70.4953C397.73 70.0926 399.523 69.4996 401.002 69.8677C415.835 73.5615 430.623 77.438 445.575 82.4888C441.421 83.6445 437.325 85.1376 433.096 85.857C429.193 86.521 427.374 88.2485 428.128 92.1528C429.147 97.4303 426.786 99.377 421.727 100.174C406.943 102.504 392.277 102.713 377.537 99.7866C373.859 99.0565 372.092 97.7102 372.804 93.9783C373.847 88.5163 371.476 85.8739 365.695 85.5068Z" fill="#FF1D26"/>
<path d="M305.645 108.974C305.728 109.165 305.555 109.532 305.142 110.088C305.065 109.902 305.227 109.526 305.645 108.974Z" fill="#FEB08D"/>
<path d="M153.04 110.309C153 110.959 152.857 111.519 152.715 112.078C152.555 112.06 152.395 112.043 152.234 112.025C152.234 111.48 152.234 110.935 152.484 110.212C152.734 110.034 152.937 110.218 153.04 110.309Z" fill="#3A3535"/>
<path d="M230.599 352.15C238.024 354.447 241.017 358.833 240.072 365.464C239.317 370.753 234.356 374.961 228.895 374.943C223.306 374.924 218.441 370.647 217.537 364.959C216.373 357.64 221.672 352.257 230.599 352.15Z" fill="#A6EDE9"/>
</svg>
