<svg width="512" height="461" viewBox="0 0 512 461" fill="none" xmlns="http://www.w3.org/2000/svg">
<path d="M512 55.6418C511.354 56.5461 510.232 56.8921 510.131 57.4304C506.468 76.8506 499.379 95.0762 491.141 112.932C490.529 114.258 490.676 116.499 491.402 117.793C499.34 131.941 504.309 147.19 506.735 163.061C508.975 177.716 509.681 192.5 508.221 207.48C506.625 223.853 504.685 240.077 500.052 255.863C490.423 288.671 469.292 311.386 438.358 325.3C434.994 326.813 431.438 327.899 428.784 328.882C434.586 341.061 441.032 352.52 445.55 364.696C449.493 375.321 451.594 386.685 453.854 397.855C454.988 403.456 454.597 409.357 455.01 415.114C455.968 428.462 442.186 444.152 427.779 444.16C425.18 444.162 422.581 444.809 419.174 445.008C416.22 444.697 414.077 444.425 411.929 444.39C397.556 444.156 384.777 440.15 374.874 428.621C372.683 424.296 370.613 420.301 368.852 416.107C374.448 410.432 379.836 405.049 384.973 399.436C387.363 396.825 389.753 394.996 393.095 397.303C396.371 399.564 396.19 402.689 394.049 405.596C391.292 409.339 388.481 413.092 385.27 416.433C382.68 419.129 382.577 421.652 385.362 423.539C389.835 426.571 394.467 430.522 399.483 431.349C408.722 432.873 418.358 433.283 427.699 432.534C437.472 431.751 444.306 422.751 443.741 412.777C442.15 384.749 433.829 358.924 417.75 335.725C415.658 332.707 413.341 332.076 409.724 332.498C386.609 335.193 363.511 338.431 340.306 339.865C312.175 341.603 284.111 338.965 256.093 334.637C255.067 330.581 254.161 326.888 253.645 323.239C308.38 332.21 362.617 331.437 416.43 319.859C450.901 312.442 474.852 291.396 486.981 258.268C495.842 234.067 498.029 208.568 497.016 182.921C495.715 149.947 484.45 120.876 462.015 96.3007C459.889 93.9717 459.307 90.2324 458.327 87.0234C462.235 83.5579 465.57 83.8932 468.775 87.5065C470.069 88.9652 471.525 90.2796 473.032 91.9483C476.077 95.7611 478.998 99.2851 482.151 103.088C483.03 101.782 483.604 101.156 483.925 100.42C491.013 84.1943 497.418 67.6754 499.734 50.0406C500.758 42.2386 500.679 34.0518 499.542 26.2673C498.159 16.7999 492.66 12.1972 483.124 11.8581C476.9 11.6367 470.44 12.4391 464.388 13.9737C441.059 19.8888 420.075 31.2069 399.445 43.216C398.717 43.6396 398.272 44.5489 397.485 45.481C405.548 48.5143 413.165 51.38 421.072 54.4869C425.013 56.583 424.783 59.783 423.9 63.2222C420.592 63.5229 417.42 64.4644 414.73 63.7022C407.419 61.6302 400.313 58.8371 392.745 56.1937C378.498 54.2155 364.63 52.3733 350.435 50.472C349.444 50.3777 348.78 50.3425 347.641 50.26C333.061 50.2618 318.956 50.311 304.518 50.341C303.514 50.3542 302.846 50.3866 301.741 50.3986C287.164 52.3638 273.022 54.3494 258.533 56.414C251.615 58.848 244.945 60.9657 238.512 63.6492C234.777 65.2068 231.523 65.3773 228.172 62.6959C227.36 58.8105 228.599 56.1749 231.839 54.1977C239.856 51.2574 247.521 48.3411 255.649 45.2491C254.554 44.2997 254.115 43.785 253.564 43.4612C235.867 33.0584 217.79 23.345 198.223 16.9625C190.218 14.3515 181.772 12.6174 173.395 11.7407C161.813 10.5286 155.263 15.6171 152.764 26.7515C151.864 30.7606 151.646 35.024 151.787 39.1485C152.542 61.246 160.382 81.4185 169.107 101.32C169.33 101.828 169.998 102.142 170.924 102.955C173.731 99.138 176.365 95.5564 179.311 91.8671C181.217 90.1548 182.836 88.5737 184.4 86.9402C187.043 84.1806 189.851 83.6599 193.066 86.5001C195.915 90.6668 193.503 93.301 191.032 95.9413C171.759 116.534 160.705 140.989 156.712 168.792C153.403 191.826 155.916 214.552 159.858 237.268C163.356 257.432 171.187 275.444 184.429 290.842C178.985 290.586 173.996 290.265 169.006 289.944C158.586 275.693 152.473 259.642 149.01 242.451C145.051 222.798 143.4 202.974 143.978 182.932C144.567 162.507 148.54 142.833 158.019 124.685C161.467 118.085 161.821 112.644 158.583 106C151.335 91.1338 145.969 75.5187 142.634 59.2956C139.875 45.8746 138.1 32.4278 142.916 18.9621C147.078 7.32579 156.688 0.448158 168.879 0.0429226C185.97 -0.525191 201.764 4.60926 216.721 11.7048C235.041 20.3958 252.637 30.612 270.576 40.1137C271.671 40.6939 273.048 41.1433 274.251 41.0576C286.565 40.1802 298.856 38.7711 311.183 38.3364C321.939 37.957 332.733 38.6297 343.51 38.8561C345.164 38.8908 346.818 38.9958 348.468 39.1181C357.172 39.7636 365.867 40.643 374.582 40.9595C377.523 41.0663 380.929 40.4611 383.419 38.9903C406.821 25.1658 430.4 11.7469 456.632 3.85902C467.241 0.669201 477.946 -1.20503 489.131 0.981836C499.922 3.09182 506.175 9.8709 510.032 19.5749C510.315 20.2888 510.884 20.8894 511.66 21.3266C512 32.4647 512 43.819 512 55.6418Z" fill="#688591"/>
<path d="M368.542 416.306C370.612 420.301 372.683 424.296 374.857 429.09C376.084 439.431 372.245 447.173 366.173 454.105C360.889 458.731 354.693 460.174 347.755 460.168C253.319 460.082 158.882 460.123 64.4456 460.096C50.6137 460.093 33.3262 449.818 28.8094 434.339C23.7091 416.859 19.4669 399.125 15.0317 381.456C10.5498 363.602 6.29699 345.69 1.8903 327.817C1.75609 327.272 1.02526 326.875 0.286294 326.76C-2.98023e-08 320.423 0 313.735 0 306.579C0.59638 306.007 1.61074 306.071 1.72887 305.776C6.36576 294.194 15.7271 290.172 27.2719 290.149C74.2059 290.053 121.14 290.099 168.54 290.019C173.995 290.265 178.985 290.586 184.862 290.9C187.509 290.845 189.268 290.796 191.462 290.814C193.97 290.846 196.043 290.811 198.573 290.836C207.508 290.931 215.984 290.932 224.46 291.009C237.358 291.125 246.532 298.208 249.954 310.664C251.099 314.829 252.157 319.017 253.254 323.195C254.161 326.888 255.067 330.581 256.129 335.024C257.472 340.059 258.659 344.345 259.841 348.999C260.633 352.727 261.431 356.086 262.266 359.793C264.976 370.93 267.638 381.72 270.327 392.503C274.235 408.178 274.244 408.176 290.968 407.252C295.834 407.264 300.202 407.187 305.06 407.181C310.521 407.202 315.493 407.152 320.892 407.199C325.309 407.255 329.3 407.215 333.737 407.233C336.004 407.316 337.829 407.448 339.642 407.346C350.399 406.738 360.476 408.26 368.542 416.306ZM266.86 417.147C265.76 414.966 264.212 412.898 263.627 410.587C255.987 380.376 248.497 350.127 240.927 319.898C240.119 316.673 239.336 313.39 238.037 310.349C235.282 303.897 228.676 300.805 221.996 302.484C215.612 304.088 211.594 309.776 212.055 316.79C212.185 318.769 212.634 320.745 213.109 322.68C217.836 341.939 222.606 361.187 227.337 380.445C227.772 382.217 228.698 384.264 228.188 385.775C227.54 387.693 225.897 390.197 224.239 390.593C222.568 390.993 219.972 389.521 218.5 388.116C217.34 387.008 217.175 384.782 216.731 383.012C212.467 366.042 208.376 349.027 203.944 332.102C201.469 322.648 199.296 313.314 203.095 303.723C203.175 303.522 202.83 303.154 202.454 302.41C200.924 302.305 199.137 302.076 197.351 302.075C140.685 302.058 84.0191 302.04 27.3532 302.083C14.8718 302.092 9.12605 309.558 12.1279 321.711C20.4798 355.523 28.8435 389.333 37.2682 423.127C41.5657 440.366 52.5403 448.977 70.3882 448.995C124.054 449.049 177.72 449.019 231.386 449C233.104 448.999 234.822 448.755 236.422 448.633C233.882 443.13 231.342 438.281 229.413 433.201C228.247 430.13 229.213 427.03 232.655 425.817C236.206 424.565 238.529 426.631 239.594 429.774C244.459 444.126 255.109 449.152 269.401 449.061C294.233 448.902 319.067 449.035 343.9 448.989C346.551 448.984 349.259 448.874 351.841 448.335C358.965 446.845 363.998 440.654 363.949 433.806C363.898 426.637 359.213 420.741 351.911 419.233C348.515 418.532 344.971 418.301 341.492 418.288C319.326 418.207 297.159 418.267 274.993 418.216C272.518 418.21 270.045 417.799 266.86 417.147Z" fill="#FFCF7B"/>
<path d="M366.603 454.109C372.246 447.173 376.084 439.431 374.978 429.419C384.777 440.15 397.556 444.156 411.929 444.39C414.077 444.425 416.22 444.697 418.744 445.034C409.627 450.727 399.275 453.459 388.412 454.041C381.305 454.422 374.16 454.113 366.603 454.109Z" fill="#B0B8C5"/>
<path d="M191.027 290.747C189.268 290.796 187.509 290.845 185.316 290.835C171.187 275.444 163.356 257.432 159.858 237.268C155.916 214.552 153.403 191.826 156.711 168.792C160.705 140.989 171.759 116.534 191.032 95.9413C193.503 93.301 195.915 90.6668 193.423 86.4736C195.882 84.4478 198.015 82.6159 200.349 81.0898C209.594 75.0429 218.903 69.0917 228.188 63.1051C231.523 65.3772 234.777 65.2067 238.512 63.6492C244.945 60.9657 251.615 58.848 258.615 56.8068C261.155 68.015 262.908 78.9974 265.551 89.7609C266.625 94.1324 269.178 98.3607 271.866 102.068C276.9 109.01 284.04 108.859 289.242 101.969C291.122 99.4798 292.634 96.6344 293.889 93.7655C299.925 79.9589 300.83 65.1406 302.177 50.419C302.846 50.3866 303.514 50.3542 304.544 50.7893C305.933 63.9854 306.016 76.8877 308.319 89.381C309.84 97.6315 313.794 105.732 318.056 113.09C321.897 119.723 328.124 119.643 333.469 114.155C335.297 112.278 337.178 110.133 338.092 107.75C340.64 101.104 343.685 94.4172 344.723 87.4759C346.56 75.192 347.058 62.7077 348.116 50.3073C348.78 50.3425 349.444 50.3777 350.479 50.9006C351.248 56.8492 351.378 62.3454 352.098 67.7635C353.611 79.1624 355.582 90.5363 362.199 100.303C368.27 109.264 375.324 109.405 381.688 100.635C384.179 97.2017 386.424 93.1631 387.315 89.0803C389.679 78.2566 391.243 67.2585 393.125 56.3297C400.313 58.837 407.419 61.6302 414.73 63.7021C417.42 64.4643 420.592 63.5228 424.254 63.2155C437.376 69.1803 448.791 76.6559 458.008 87.1479C459.307 90.2324 459.888 93.9717 462.015 96.3007C484.449 120.876 495.714 149.947 497.016 182.921C498.029 208.568 495.842 234.067 486.981 258.268C474.852 291.396 450.9 312.442 416.43 319.859C362.617 331.437 308.38 332.21 253.645 323.239C252.157 319.017 251.099 314.829 249.954 310.664C246.532 298.208 237.357 291.125 224.46 291.009C215.984 290.932 207.508 290.931 198.873 290.682C205.254 288.026 211.796 285.586 218.335 283.138C224.079 280.986 226.158 278.432 224.632 274.776C222.502 269.674 218.516 271.378 214.89 272.666C208.154 275.059 201.447 277.534 194.763 280.065C188.704 282.36 187.903 284.768 191.027 290.747ZM248.448 245.224C256.911 239.587 260.288 231.489 257.874 222.622C255.661 214.495 248.061 208.49 239.577 208.165C231.564 207.858 224.141 212.462 220.823 219.797C217.455 227.24 218.854 235.609 224.457 241.535C230.45 247.873 238.696 249.305 248.448 245.224ZM390.925 247.576C402.668 245.2 409.179 236.887 408.108 225.635C407.185 215.942 398.714 208.271 388.8 208.15C377.9 208.018 368.968 216.732 368.852 227.611C368.726 239.467 377.386 247.646 390.925 247.576ZM293.791 249.196C300.171 251.665 305.576 249.132 310.5 245.505C312.923 243.72 314.265 243.951 316.92 245.353C321.178 247.602 326.027 249.034 330.791 249.835C332.196 250.071 335.317 247.16 335.533 245.427C335.75 243.689 333.576 241.356 331.953 239.802C331.039 238.928 329.098 239.189 327.661 238.788C322.511 237.351 319.83 233.649 320.356 228.599C321.1 228.452 321.898 228.285 322.699 228.139C325.898 227.557 328.475 225.549 327.58 222.479C326.966 220.375 324.1 217.756 321.976 217.492C316.403 216.798 310.636 216.846 305.051 217.499C303.062 217.732 300.133 220.407 299.912 222.242C299.701 223.987 302.297 226.259 303.997 227.961C304.77 228.735 306.36 228.693 307.531 229.008C306.588 235.465 304.186 237.816 297.481 239.192C291.451 240.431 290.106 243.404 293.791 249.196ZM224.898 255.818C223.187 254.301 221.525 251.542 219.757 251.472C209.468 251.068 199.152 251.166 188.85 251.387C185.746 251.454 183.384 253.414 183.53 256.826C183.671 260.144 185.929 261.961 189.16 261.99C199.301 262.08 209.444 262.082 219.584 261.932C222.801 261.884 224.875 260.119 224.898 255.818ZM426.49 251.113C420.329 251.145 414.163 251.037 408.01 251.264C404.641 251.388 401.699 253.369 402.507 256.823C402.986 258.875 406.029 261.688 408.041 261.79C418.005 262.3 428.023 262.3 437.987 261.787C439.991 261.684 443.026 258.853 443.498 256.801C444.294 253.336 441.333 251.475 437.969 251.251C434.486 251.018 430.979 251.144 426.49 251.113ZM421.628 275.975C417.87 274.616 414.109 273.265 410.354 271.897C407.085 270.706 404.256 271.303 402.747 274.55C401.154 277.981 402.975 280.557 406.056 281.777C414.102 284.963 422.224 287.973 430.418 290.753C433.206 291.699 436.334 291.357 437.524 287.969C438.813 284.296 436.945 281.879 433.552 280.536C429.836 279.065 426.088 277.678 421.628 275.975ZM391.792 192.585C384.779 192.267 377.755 191.644 370.763 191.895C369.413 191.944 366.909 195.677 367.23 197.241C367.621 199.145 370.283 201.691 372.231 201.952C377.273 202.625 382.468 202.354 387.591 202.165C393.435 201.949 395.172 198.506 391.792 192.585ZM252.448 202.239C254.609 202.216 257.06 202.824 258.857 202.003C260.926 201.058 263.381 199.119 263.941 197.127C264.837 193.937 262.363 191.627 259.183 191.451C253.55 191.139 247.874 191.138 242.242 191.46C239.088 191.64 236.554 193.967 237.388 197.11C237.916 199.103 240.47 201.301 242.566 201.951C245.305 202.8 248.49 202.21 252.448 202.239Z" fill="#B1B9C6"/>
<path d="M368.852 416.107C360.476 408.26 350.399 406.738 339.642 407.346C337.83 407.448 336.004 407.316 333.568 406.906C325.784 394.051 326.578 382.28 334.892 371.608C345.467 358.032 371.768 349.189 390.245 363.112C396.852 368.09 402.708 374.082 408.778 379.749C411.405 382.202 414.223 383.527 417.15 380.994C420.362 378.214 419.417 374.91 416.723 372.278C411.019 366.706 405.589 360.718 399.255 355.951C376.48 338.805 345.614 342.409 326.904 364.006C325.951 365.106 325.495 366.635 324.7 368.172C321.84 365.556 320.349 364.251 318.923 362.878C302.007 346.604 282.636 340.537 259.847 348.63C258.659 344.345 257.472 340.059 256.248 335.387C284.111 338.965 312.174 341.603 340.306 339.865C363.511 338.43 386.609 335.193 409.724 332.498C413.341 332.076 415.658 332.707 417.75 335.725C433.829 358.924 442.15 384.749 443.741 412.777C444.306 422.751 437.472 431.751 427.699 432.534C418.358 433.282 408.722 432.872 399.483 431.349C394.467 430.522 389.835 426.571 385.362 423.539C382.577 421.652 382.68 419.129 385.27 416.433C388.481 413.092 391.292 409.338 394.049 405.596C396.19 402.689 396.371 399.564 393.095 397.303C389.753 394.996 387.363 396.825 384.973 399.436C379.836 405.049 374.448 410.432 368.852 416.107Z" fill="#B0B9C5"/>
<path d="M420.782 54.2458C413.165 51.38 405.548 48.5143 397.485 45.481C398.272 44.5489 398.717 43.6396 399.445 43.216C420.075 31.2069 441.059 19.8888 464.388 13.9737C470.44 12.4391 476.9 11.6367 483.124 11.8581C492.66 12.1972 498.159 16.7999 499.542 26.2673C500.679 34.0518 500.758 42.2386 499.734 50.0406C497.418 67.6754 491.013 84.1943 483.925 100.42C483.603 101.156 483.03 101.782 482.15 103.088C478.998 99.2851 476.077 95.7611 473.312 91.6961C479.902 83.9761 477.969 75.8838 475.502 68.0554C474.261 64.1158 474.777 61.3408 477.044 57.997C479.428 54.4793 481.371 50.4456 482.533 46.3604C485.052 37.5079 481.303 30.5685 472.739 27.1989C466.68 24.8152 460.631 25.5196 454.732 27.8178C442.728 32.4934 432.92 40.4336 423.708 49.1611C422.347 50.4496 421.739 52.5312 420.782 54.2458Z" fill="#B1B9C6"/>
<path d="M178.999 91.9747C176.365 95.5563 173.731 99.138 170.924 102.955C169.998 102.142 169.33 101.828 169.107 101.32C160.382 81.4184 152.542 61.2459 151.787 39.1485C151.646 35.024 151.864 30.7606 152.764 26.7515C155.263 15.6171 161.813 10.5286 173.395 11.7407C181.772 12.6174 190.218 14.3515 198.223 16.9625C217.79 23.345 235.867 33.0583 253.564 43.4611C254.115 43.785 254.554 44.2996 255.649 45.249C247.521 48.341 239.856 51.2573 231.847 53.8133C230.647 52.0441 230.039 50.3791 228.894 49.267C220.122 40.7488 210.705 32.9546 199.198 28.5257C194.544 26.7342 189.099 25.8047 184.153 26.204C172.837 27.1176 166.837 36.5123 170.23 47.2784C171.463 51.1896 173.413 55.0074 175.713 58.4101C177.791 61.4839 178.292 64.1303 177.09 67.6651C174.271 75.9604 173.365 84.2685 178.999 91.9747Z" fill="#B1B9C6"/>
<path d="M179.311 91.8671C173.365 84.2685 174.271 75.9604 177.09 67.6651C178.292 64.1303 177.791 61.4839 175.713 58.4102C173.413 55.0074 171.463 51.1896 170.23 47.2784C166.837 36.5123 172.837 27.1176 184.153 26.204C189.1 25.8047 194.544 26.7342 199.198 28.5257C210.705 32.9546 220.122 40.7489 228.894 49.2671C230.039 50.3791 230.647 52.0441 231.496 53.8373C228.599 56.1749 227.36 58.8105 228.172 62.6959C218.903 69.0917 209.595 75.043 200.349 81.0899C198.015 82.6159 195.882 84.4478 193.3 86.1656C189.851 83.6599 187.043 84.1806 184.4 86.9402C182.836 88.5737 181.217 90.1548 179.311 91.8671Z" fill="#FEFEFE"/>
<path d="M421.072 54.4869C421.739 52.5311 422.348 50.4496 423.708 49.1611C432.92 40.4336 442.729 32.4934 454.732 27.8178C460.632 25.5196 466.68 24.8152 472.739 27.1989C481.304 30.5685 485.052 37.5079 482.534 46.3603C481.371 50.4456 479.428 54.4793 477.044 57.997C474.777 61.3408 474.261 64.1158 475.503 68.0554C477.969 75.8838 479.902 83.976 473.188 91.4073C471.525 90.2795 470.068 88.9652 468.775 87.5065C465.57 83.8932 462.235 83.5579 458.327 87.0233C448.791 76.6559 437.376 69.1803 424.611 63.0792C424.783 59.783 425.013 56.583 421.072 54.4869Z" fill="#FEFEFE"/>
<path d="M347.64 50.2599C347.058 62.7077 346.56 75.192 344.723 87.4759C343.685 94.4172 340.64 101.104 338.092 107.75C337.178 110.133 335.297 112.278 333.469 114.155C328.124 119.643 321.897 119.723 318.056 113.09C313.794 105.732 309.84 97.6315 308.319 89.381C306.017 76.8877 305.933 63.9855 304.879 50.8085C318.956 50.3109 333.061 50.2618 347.64 50.2599Z" fill="#91A2B5"/>
<path d="M301.741 50.3986C300.83 65.1406 299.925 79.9589 293.889 93.7655C292.634 96.6344 291.122 99.4798 289.242 101.969C284.041 108.859 276.9 109.01 271.866 102.068C269.178 98.3607 266.625 94.1324 265.551 89.7609C262.908 78.9974 261.155 68.0151 258.963 56.7278C273.022 54.3493 287.164 52.3637 301.741 50.3986Z" fill="#91A2B5"/>
<path d="M392.745 56.1937C391.243 67.2584 389.679 78.2566 387.316 89.0802C386.424 93.163 384.179 97.2017 381.688 100.635C375.324 109.405 368.27 109.264 362.199 100.303C355.582 90.5362 353.611 79.1624 352.098 67.7635C351.379 62.3454 351.248 56.8492 350.807 50.9597C364.63 52.3733 378.498 54.2155 392.745 56.1937Z" fill="#91A2B5"/>
<path d="M267.215 417.361C270.045 417.799 272.518 418.21 274.993 418.216C297.159 418.267 319.326 418.207 341.492 418.288C344.971 418.301 348.515 418.532 351.911 419.233C359.212 420.741 363.898 426.637 363.949 433.806C363.998 440.653 358.965 446.845 351.841 448.335C349.259 448.874 346.551 448.984 343.9 448.989C319.067 449.035 294.233 448.902 269.401 449.061C255.109 449.152 244.459 444.126 239.594 429.774C238.529 426.631 236.206 424.565 232.655 425.817C229.213 427.03 228.247 430.13 229.413 433.201C231.342 438.281 233.882 443.13 236.422 448.633C234.822 448.755 233.104 448.999 231.386 449C177.72 449.019 124.054 449.049 70.3881 448.995C52.5402 448.977 41.5656 440.366 37.2681 423.127C28.8434 389.333 20.4797 355.523 12.1278 321.71C9.12595 309.558 14.8717 302.092 27.3531 302.082C84.019 302.039 140.685 302.058 197.351 302.075C199.137 302.076 200.924 302.305 202.454 302.41C202.83 303.154 203.175 303.522 203.095 303.723C199.296 313.314 201.469 322.648 203.944 332.101C208.376 349.027 212.467 366.042 216.731 383.012C217.175 384.782 217.34 387.008 218.5 388.116C219.972 389.521 222.568 390.993 224.239 390.593C225.896 390.197 227.54 387.693 228.187 385.775C228.698 384.264 227.772 382.217 227.337 380.445C222.606 361.187 217.836 341.938 213.109 322.679C212.634 320.745 212.185 318.769 212.055 316.79C211.594 309.775 215.611 304.088 221.996 302.484C228.676 300.805 235.282 303.897 238.037 310.349C239.336 313.39 240.119 316.673 240.927 319.898C248.497 350.127 255.987 380.376 263.627 410.587C264.212 412.898 265.76 414.966 267.215 417.361Z" fill="#FFFF9D"/>
<path d="M259.841 348.999C282.636 340.537 302.007 346.604 318.922 362.878C320.349 364.251 321.84 365.556 324.7 368.172C325.495 366.635 325.951 365.106 326.903 364.006C345.614 342.409 376.48 338.805 399.255 355.951C405.588 360.718 411.019 366.706 416.723 372.278C419.417 374.91 420.362 378.214 417.15 380.994C414.223 383.527 411.405 382.202 408.778 379.749C402.708 374.082 396.852 368.09 390.245 363.111C371.768 349.189 345.467 358.032 334.892 371.608C326.578 382.28 325.784 394.051 333.121 406.847C329.3 407.215 325.309 407.255 320.758 406.817C316.958 398.242 316.049 389.981 317.949 381.374C318.276 379.89 317.66 377.648 316.642 376.498C301.962 359.919 284.875 350.728 262.229 359.444C261.431 356.085 260.633 352.727 259.841 348.999Z" fill="#698591"/>
<path d="M262.266 359.793C284.875 350.728 301.962 359.919 316.642 376.499C317.66 377.648 318.276 379.89 317.949 381.375C316.049 389.981 316.959 398.242 320.331 406.72C315.493 407.152 310.522 407.202 305.226 406.839C306.818 403.174 308.037 399.751 304.142 397.238C299.867 394.48 297.46 397.671 295.217 400.755C293.654 402.906 292.053 405.029 290.469 407.164C274.244 408.176 274.235 408.178 270.327 392.503C267.639 381.72 264.977 370.93 262.266 359.793Z" fill="#B1B9C5"/>
<path d="M191.462 290.814C187.903 284.768 188.704 282.36 194.763 280.065C201.447 277.534 208.154 275.059 214.89 272.666C218.516 271.378 222.502 269.674 224.632 274.776C226.158 278.432 224.079 280.986 218.335 283.138C211.796 285.586 205.254 288.026 198.415 290.622C196.043 290.811 193.97 290.846 191.462 290.814Z" fill="#92A3B5"/>
<path d="M290.968 407.252C292.053 405.029 293.654 402.906 295.217 400.755C297.46 397.671 299.866 394.48 304.142 397.238C308.037 399.751 306.818 403.174 304.736 406.768C300.202 407.187 295.834 407.264 290.968 407.252Z" fill="#698591"/>
<path d="M248.119 245.406C238.696 249.305 230.45 247.873 224.457 241.535C218.854 235.609 217.455 227.24 220.823 219.797C224.142 212.462 231.565 207.858 239.578 208.165C248.061 208.49 255.661 214.495 257.874 222.622C260.288 231.489 256.911 239.587 248.119 245.406Z" fill="#615D5E"/>
<path d="M390.523 247.638C377.386 247.646 368.726 239.467 368.852 227.611C368.968 216.732 377.9 208.018 388.8 208.15C398.714 208.271 407.185 215.943 408.108 225.635C409.179 236.887 402.668 245.2 390.523 247.638Z" fill="#615D5E"/>
<path d="M293.483 248.956C290.106 243.404 291.451 240.43 297.481 239.192C304.186 237.816 306.588 235.465 307.531 229.008C306.36 228.693 304.77 228.735 303.997 227.961C302.297 226.259 299.701 223.987 299.912 222.242C300.133 220.407 303.062 217.732 305.051 217.499C310.636 216.846 316.403 216.798 321.976 217.492C324.1 217.756 326.966 220.375 327.58 222.479C328.475 225.549 325.898 227.557 322.699 228.139C321.898 228.285 321.1 228.452 320.356 228.599C319.83 233.649 322.511 237.351 327.661 238.788C329.098 239.189 331.04 238.928 331.953 239.802C333.576 241.356 335.75 243.689 335.533 245.427C335.317 247.16 332.196 250.071 330.791 249.835C326.027 249.034 321.178 247.601 316.92 245.353C314.265 243.951 312.923 243.72 310.5 245.505C305.576 249.132 300.171 251.665 293.483 248.956Z" fill="#698591"/>
<path d="M224.92 256.216C224.875 260.119 222.801 261.884 219.584 261.932C209.445 262.082 199.301 262.08 189.16 261.99C185.929 261.961 183.671 260.144 183.53 256.825C183.384 253.414 185.746 251.454 188.851 251.387C199.152 251.166 209.468 251.068 219.758 251.472C221.525 251.542 223.188 254.301 224.92 256.216Z" fill="#91A2B5"/>
<path d="M426.987 251.113C430.98 251.144 434.486 251.018 437.969 251.251C441.333 251.475 444.294 253.336 443.498 256.801C443.026 258.853 439.992 261.684 437.987 261.787C428.023 262.3 418.005 262.3 408.041 261.79C406.029 261.688 402.986 258.875 402.507 256.823C401.699 253.369 404.641 251.388 408.01 251.264C414.163 251.037 420.329 251.145 426.987 251.113Z" fill="#91A2B5"/>
<path d="M421.991 276.114C426.088 277.678 429.836 279.065 433.552 280.536C436.945 281.879 438.813 284.296 437.524 287.969C436.334 291.357 433.206 291.699 430.418 290.753C422.224 287.973 414.102 284.963 406.056 281.777C402.975 280.557 401.154 277.981 402.747 274.55C404.256 271.303 407.085 270.706 410.354 271.897C414.109 273.265 417.87 274.616 421.991 276.114Z" fill="#92A2B5"/>
<path d="M392.085 192.859C395.173 198.506 393.435 201.949 387.591 202.165C382.468 202.354 377.273 202.625 372.231 201.952C370.283 201.691 367.621 199.145 367.23 197.241C366.91 195.677 369.413 191.944 370.763 191.895C377.755 191.644 384.779 192.267 392.085 192.859Z" fill="#FDFDFE"/>
<path d="M251.965 202.239C248.49 202.21 245.305 202.8 242.566 201.951C240.47 201.301 237.916 199.103 237.388 197.11C236.554 193.967 239.088 191.64 242.242 191.46C247.874 191.138 253.55 191.139 259.183 191.451C262.363 191.627 264.837 193.937 263.941 197.127C263.381 199.119 260.926 201.058 258.857 202.003C257.06 202.824 254.609 202.216 251.965 202.239Z" fill="#FDFDFE"/>
</svg>
