<svg width="431" height="512" viewBox="0 0 431 512" fill="none" xmlns="http://www.w3.org/2000/svg">
<path d="M171.236 512C166.103 502.831 161.447 493.654 156.747 484.5C155.577 482.22 154.267 480.012 153.271 477.415C161.229 479.053 168.843 481.597 176.664 482.925C192.674 485.646 208.796 487.713 224.872 490.05C213.08 495.712 201.267 501.334 189.511 507.07C186.944 508.322 184.577 509.984 182.446 511.729C179.082 512 175.389 512 171.236 512Z" fill="#7AEFE5"/>
<path d="M258.312 2.02645e-08C259.653 1.37484 260.392 2.86609 261.433 4.10294C264.717 8.00373 264.827 12.3739 262.492 16.4435C259.905 20.9505 255.526 23.1891 250.299 21.8932C245.949 20.8145 242.745 18.6329 241.532 13.3409C240.18 7.44061 243.493 4.27451 246.099 0.260266C249.8 -2.89083e-06 253.824 -2.97974e-06 258.312 2.02645e-08Z" fill="#F9D555"/>
<path d="M225.313 490.03C208.796 487.713 192.674 485.645 176.664 482.925C168.843 481.597 161.229 479.053 153.133 477.09C141.146 472.981 129.552 468.815 119.766 460.986C111.64 454.485 107.125 446.083 105.693 435.695C103.94 422.985 107.717 411.385 112.167 399.212C112.943 398.148 113.402 397.662 113.742 397.104C123.248 381.495 132.724 365.869 142.248 350.271C144.994 345.774 147.87 341.356 150.699 336.911C150.712 336.921 150.71 336.947 150.966 336.893C151.424 336.564 151.627 336.288 152.064 335.8C153.41 334.076 154.523 332.564 155.876 330.803C164.178 318.651 172.293 306.785 180.267 294.825C182.627 291.285 184.59 287.481 186.97 283.575C188.251 281.899 189.297 280.447 190.588 278.794C198.628 265.926 204.498 252.468 207.671 237.511C207.793 236.448 207.818 235.735 207.81 235.009C207.778 234.997 207.755 235.062 207.959 235.024C208.374 234.782 208.477 234.532 208.561 233.812C209.676 222.261 210.699 211.135 211.793 199.628C211.834 198.478 211.805 197.708 211.82 196.484C212.132 185.343 212.4 174.655 212.736 163.595C212.784 162.468 212.764 161.712 212.786 160.495C213.093 149.328 213.357 138.624 213.682 127.554C213.733 126.447 213.723 125.706 213.755 124.501C214.156 112.056 214.515 100.077 215.334 88.1314C228.68 87.6592 241.567 87.1531 254.453 86.6469C254.447 85.9596 254.442 85.2723 254.436 84.5849C241.238 84.104 228.04 83.623 214.404 83.1019C209.653 83.1706 205.372 83.1973 202.792 78.7828C203.033 74.1294 205.755 71.2413 210.306 71.0243C213.112 70.8906 215.93 70.9925 219.67 71.0245C235.678 71.011 250.759 70.9617 265.839 70.9124C275.648 70.9413 285.458 70.9379 295.266 71.0123C300.523 71.0521 302.782 73.2416 302.805 77.8069C302.823 81.2586 301.473 83.007 297.843 83.0629C295.937 83.0922 294.04 83.7619 292.784 84.0134C292.784 96.8303 292.784 109.369 292.735 122.845C293.081 145.529 293.468 167.276 293.891 189.022C293.914 190.166 294.246 191.304 294.308 192.76C294.18 193.982 294.177 194.889 294.115 196.228C294.267 201.09 294.323 205.534 294.731 209.945C295.257 215.643 296.064 221.314 296.702 227.369C296.735 228.49 296.815 229.238 296.92 230.378C299.799 239.883 302.655 248.995 305.525 258.467C305.898 259.688 306.257 260.55 306.66 261.761C311.541 270.423 316.377 278.736 321.298 287.381C321.801 288.241 322.221 288.769 322.729 289.623C326.162 295.042 329.413 300.202 332.89 305.205C334.81 307.967 337.11 310.463 339.207 313.457C339.662 314.67 340.151 315.507 340.733 316.663C346.413 324.689 351.998 332.396 357.634 340.426C358.319 341.597 358.955 342.444 359.681 343.618C365.171 351.653 370.57 359.361 375.962 367.379C376.545 368.485 377.136 369.284 377.855 370.401C383.964 382.459 389.933 394.204 395.952 405.923C396.381 406.758 397.178 407.405 397.804 408.139C398.795 415.877 400.316 423.592 400.659 431.359C401.262 444.994 394.352 455.36 383.785 462.865C368.487 473.732 350.682 479.09 332.566 482.851C319.201 485.626 305.605 487.787 292.006 488.816C273.228 490.237 254.351 490.398 235.512 490.941C232.271 491.034 229.007 490.341 225.313 490.03ZM211.858 267.017C208.589 274.253 205.845 281.789 201.935 288.66C195.136 300.605 187.617 312.14 179.963 324.335C170.726 337.829 161.489 351.323 151.799 365.25C142.665 378.303 134.352 391.808 129.42 407.095C126.858 415.037 125.403 423.123 127.55 432.209C129.062 440.095 133.234 446.256 139.991 451.41C143.681 453.632 147.221 456.166 151.086 458.022C166.567 465.457 183.138 469.24 200.076 470.85C237.96 474.453 275.889 474.754 313.716 469.953C329.294 467.975 344.419 464.009 358.525 456.886C378.819 446.638 385.902 427.259 377.021 405.798C375.796 402.544 374.82 399.168 373.308 396.054C358.396 365.355 336.211 339.489 316.789 310.985C306.853 296.18 298.026 280.794 291.985 263.095C289.864 255.898 287.744 248.702 285.52 241.154C270.513 256.691 255.628 255.356 245.734 236.251C241.714 240.372 237.963 245.311 233.177 248.849C227.012 253.407 221.66 250.033 217.279 244.642C215.544 252.224 213.917 259.335 211.858 267.017ZM220.472 179.714C222.807 188.466 230.448 193.545 238.368 191.61C246.561 189.609 251.243 182.258 249.744 173.751C248.428 166.284 240.972 161.06 233.029 162.039C225.327 162.988 219.79 170.319 220.472 179.714ZM268.91 96.8155C262.606 96.1075 257.78 98.5205 254.977 104.148C252.58 108.961 253.094 113.826 256.391 118.187C259.891 122.817 266.108 124.599 271.563 122.667C276.735 120.834 280.457 115.582 280.491 110.068C280.53 103.851 276.732 99.2031 268.91 96.8155ZM274.333 214.981C278.074 208.971 278.103 203.429 274.418 198.808C270.951 194.46 265.196 192.746 260.071 194.698C254.954 196.647 251.922 200.304 251.558 205.898C251.195 211.488 253.884 216.266 258.781 218.475C264.443 221.029 269.467 219.847 274.333 214.981ZM264.875 171.416C266.874 163.011 271.047 156.484 280.472 153.99C269.409 151.289 266.586 142.594 264.395 133.408C262.635 143.433 258.458 151.013 246.488 153.654C255.585 155.587 260.173 160.594 262.063 168.172C262.424 169.619 262.697 171.088 263.01 172.547C263.589 172.408 264.167 172.269 264.875 171.416ZM231.452 127.933C229.277 131.788 230.228 135.204 234.285 136.229C236.166 136.704 239.285 134.679 240.866 132.912C241.628 132.061 240.61 127.891 239.549 127.493C237.307 126.653 234.506 127.307 231.452 127.933ZM263.552 241.594C266.249 243.514 269.165 243.472 270.961 240.862C272.034 239.302 272.528 236.058 271.607 234.742C270.501 233.16 267.535 231.946 265.517 232.13C261.56 232.491 260.659 236.34 263.552 241.594ZM237.482 102.131C237.504 104.145 237.117 106.31 237.776 108.087C237.998 108.685 241.359 108.954 242.402 108.181C243.449 107.404 244.185 104.123 243.671 103.724C242.184 102.568 240 102.309 237.482 102.131ZM235.988 210.655C236.072 208.657 236.539 206.546 236.006 204.728C235.846 204.182 232.589 203.865 231.335 204.536C230.366 205.055 229.543 208.207 229.989 208.576C231.458 209.791 233.534 210.274 235.988 210.655Z" fill="#2AADFB"/>
<path d="M150.687 336.902C147.87 341.356 144.994 345.774 142.248 350.271C132.724 365.869 123.248 381.495 113.742 397.104C113.402 397.662 112.943 398.148 112.241 398.824C105.933 387.163 99.9833 375.313 93.8971 363.533C85.9501 348.153 77.8721 332.84 69.8907 317.478C56.611 291.917 43.3615 266.34 30.1028 240.768C21.9124 224.971 13.6381 209.217 5.59874 193.344C3.30334 188.812 1.21214 184.046 0.0454701 179.145C-0.349527 177.486 1.90723 174.107 3.78005 173.172C16.4921 166.822 29.4203 160.903 42.293 154.876C44.4646 153.86 46.7059 152.992 49.4149 152.415C59.1545 165.145 68.3941 177.516 77.286 189.971C63.1135 196.334 49.3682 202.764 36.0327 209.976C36.4194 210.759 36.8061 211.543 37.1928 212.327C51.1466 205.511 65.1004 198.695 79.3309 192.059C85.4069 200.092 91.2064 207.946 96.6797 215.975C83.3397 222.384 70.3083 228.581 57.329 234.885C55.1256 235.955 53.1464 237.487 51.0636 238.806C51.438 239.477 51.8124 240.149 52.1868 240.82C67.733 233.241 83.2792 225.662 99.102 218.26C105.475 226.248 111.571 234.061 117.332 241.982C111.13 244.834 105.247 247.541 99.4007 250.327C93.7021 253.043 88.0288 255.813 82.3682 258.607C76.856 261.328 71.374 264.111 65.8788 266.866C66.1578 267.472 66.4367 268.077 66.7157 268.682C68.8394 267.905 71.0388 267.287 73.0748 266.324C87.3372 259.578 101.574 252.779 115.793 245.941C117.259 245.236 118.552 244.168 120.216 243.391C129.976 249.879 139.444 256.243 148.551 262.737C125.585 273.432 102.972 283.983 81.1001 296.178C83.3963 296.414 85.4225 295.969 87.2911 295.16C91.2549 293.443 95.1431 291.55 99.0508 289.705C116.625 281.407 134.196 273.1 152.113 264.872C156.678 267.673 160.898 270.399 166.185 273.816C165.09 267.951 164.277 263.594 163.72 258.96C178.509 251.742 193.041 244.802 207.573 237.861C204.498 252.468 198.629 265.927 190.178 278.795C188.884 279.169 188.201 279.249 187.614 279.53C158.204 293.598 128.797 307.673 99.4174 321.803C98.0951 322.439 97.0247 323.599 95.8369 324.515C96.0735 324.937 96.3101 325.359 96.5467 325.781C98.9491 324.852 101.423 324.073 103.742 322.97C120.716 314.898 137.635 306.708 154.621 298.662C165.281 293.612 176.028 288.747 186.735 283.799C184.59 287.482 182.627 291.285 180.267 294.825C172.293 306.785 164.178 318.651 155.514 330.824C139.925 337.717 125.134 344.72 111.074 353.281C114.497 353.076 117.51 351.953 120.436 350.637C130.536 346.095 140.606 341.486 150.687 336.902Z" fill="#7BEFE5"/>
<path d="M305.511 258.108C302.655 248.996 299.8 239.883 297.28 230.346C305.406 226.227 313.195 222.533 320.985 218.838C320.605 218.032 320.224 217.227 319.844 216.421C312.146 219.946 304.448 223.471 296.75 226.997C296.064 221.314 295.257 215.643 294.731 209.945C294.323 205.534 294.267 201.09 294.434 196.159C298.538 193.747 302.262 191.836 305.986 189.926C305.682 189.319 305.377 188.712 305.072 188.105C301.526 189.552 297.98 190.998 294.434 192.445C294.246 191.304 293.914 190.166 293.891 189.022C293.468 167.276 293.082 145.529 292.73 123.302C295.218 127.138 297.799 131.383 300.084 135.782C311.191 157.168 322.2 178.603 333.278 200.004C341.524 215.934 349.822 231.837 358.095 247.753C366.739 264.384 375.362 281.025 384.028 297.644C392.48 313.853 400.957 330.047 409.455 346.231C415.758 358.234 422.165 370.181 428.418 382.209C431.599 388.326 430.241 392.224 424.114 395.25C415.576 399.465 407.018 403.639 398.137 407.985C397.178 407.405 396.381 406.759 395.952 405.923C389.933 394.204 383.964 382.459 378.174 370.239C383.844 367.005 389.322 364.252 394.8 361.499C394.472 360.805 394.143 360.111 393.815 359.418C387.866 361.969 381.918 364.519 375.97 367.07C370.57 359.362 365.171 351.653 359.995 343.416C367.01 339.443 373.802 335.998 380.593 332.553C380.273 331.895 379.952 331.238 379.631 330.58C372.282 333.754 364.933 336.928 357.584 340.102C351.998 332.396 346.413 324.689 341.09 316.536C349.525 312.116 357.697 308.143 365.869 304.17C365.587 303.548 365.304 302.925 365.022 302.303C363.065 302.95 361.047 303.456 359.162 304.271C352.496 307.15 345.876 310.135 339.239 313.08C337.11 310.463 334.81 307.967 332.89 305.205C329.413 300.202 326.163 295.042 323.087 289.504C332.381 284.397 342.208 281.187 350.516 275.222C350.181 274.55 349.847 273.879 349.512 273.207C340.079 277.821 330.647 282.435 321.214 287.049C316.377 278.736 311.541 270.423 307.012 261.61C316.872 256.494 326.424 251.879 335.976 247.264C335.693 246.606 335.41 245.948 335.127 245.29C332.932 246.06 330.672 246.683 328.554 247.627C320.847 251.063 313.188 254.606 305.511 258.108Z" fill="#7BEFE5"/>
<path d="M214.875 88.0975C214.515 100.077 214.156 112.057 213.385 124.499C203.344 129.471 193.694 133.936 184.09 138.497C163.966 148.054 143.866 157.661 123.486 167.027C115.872 154.966 108.504 143.141 101.22 131.264C100.48 130.057 100.246 128.539 99.7771 127.165C108.815 122.913 117.869 118.695 126.888 114.402C149.151 103.805 171.392 93.1601 193.658 82.5697C196.401 81.2648 199.247 80.1741 202.418 78.8835C205.372 83.1973 209.653 83.1707 214.39 83.5087C214.835 85.3362 214.855 86.7168 214.875 88.0975Z" fill="#7BEFE5"/>
<path d="M62.6522 144.78C57.0954 135.425 51.5923 126.038 45.9653 116.726C41.3095 109.02 36.5075 101.403 32.0083 93.2247C34.4441 91.3888 36.6419 90.0749 39.1544 88.9004C40.2027 89.9185 41.0548 90.7235 41.6525 91.6864C62.9875 126.06 84.3194 160.436 105.602 194.842C113.387 207.426 121.047 220.087 128.439 232.851C125.976 234.349 123.837 235.709 121.398 236.911C119.637 234.53 118.12 232.342 116.722 230.081C100.095 203.197 83.5035 176.292 66.8291 149.438C65.746 147.693 64.0585 146.324 62.6522 144.78Z" fill="#F7D355"/>
<path d="M99.4563 127.004C100.246 128.539 100.48 130.057 101.22 131.264C108.504 143.141 115.872 154.966 123.536 167.307C124.409 168.581 124.963 169.354 125.615 170.465C130.76 178.854 135.807 186.904 140.905 195.232C141.476 196.245 141.996 196.98 142.64 198.064C146.421 204.811 150.078 211.209 153.399 217.73C150.751 219.231 148.439 220.61 145.978 221.654C145.12 220.005 144.472 218.651 143.69 217.38C127.67 191.329 111.658 165.274 95.5942 139.25C82.9369 118.745 70.2126 98.2801 57.7134 77.5204C60.2184 75.4637 62.528 73.6839 64.8377 71.9041C76.2703 90.2169 87.7029 108.53 99.4563 127.004Z" fill="#F8D456"/>
<path d="M62.3376 144.936C64.0585 146.324 65.7459 147.693 66.8291 149.438C83.5035 176.292 100.095 203.197 116.722 230.08C118.12 232.342 119.637 234.53 121.514 237.227C128.589 243.184 135.166 248.773 141.93 254.124C149.884 260.418 149.951 260.321 158.548 255.353C159.545 254.776 160.617 254.331 161.775 254.104C162.155 254.682 162.413 254.98 162.626 255.622C162.876 257.056 163.17 258.147 163.464 259.237C164.277 263.594 165.09 267.951 166.185 273.816C160.898 270.399 156.678 267.673 151.97 264.612C150.625 263.72 149.768 263.164 148.911 262.607C139.444 256.243 129.976 249.879 119.942 243.194C118.807 242.54 118.237 242.206 117.667 241.873C111.571 234.061 105.475 226.249 99.0232 217.965C98.1138 216.93 97.5598 216.365 97.0059 215.8C91.2064 207.946 85.4069 200.092 79.2324 191.763C78.4494 190.82 78.0416 190.353 77.6338 189.886C68.3941 177.516 59.1545 165.145 49.7898 152.464C53.7842 149.798 57.9036 147.444 62.3376 144.936Z" fill="#0C4B85"/>
<path d="M64.8058 71.5448C62.5281 73.684 60.2185 75.4638 57.389 77.5818C55.4681 78.9382 54.0671 79.9564 52.3225 81.0041C49.8001 82.3205 47.6211 83.6074 45.1284 84.9852C42.8231 86.3045 40.8314 87.5327 38.8397 88.7609C36.6419 90.0749 34.4441 91.3888 31.9417 92.8671C29.0572 88.4539 25.4634 84.1229 24.2686 79.2086C23.5224 76.1395 25.3711 70.9659 27.855 68.8906C33.0997 64.5086 39.2989 61.0563 45.5342 58.1356C51.2069 55.4783 56.2531 57.6344 59.7491 62.9592C61.5117 65.6437 63.1044 68.4398 64.8058 71.5448Z" fill="#FC6184"/>
<path d="M268.553 43.5487C269.045 36.4592 274.802 30.9163 281.381 31.0012C289.013 31.0997 294.635 36.3573 294.775 43.529C294.947 52.2555 290.287 57.7795 282.567 57.9999C273.749 58.2518 268.691 53.233 268.553 43.5487Z" fill="#FFA4AC"/>
<path d="M265.806 70.5461C250.759 70.9617 235.678 71.011 220.123 71.0145C229.732 65.9866 239.736 60.83 249.937 56.1003C254.643 53.9187 258.204 55.5442 260.775 60.2467C262.551 63.4971 264.114 66.8646 265.806 70.5461Z" fill="#7BEFE5"/>
<path d="M234.564 37.3058C237.946 43.1191 237.515 47.2468 233.457 50.803C230.249 53.6144 224.995 53.8629 221.66 51.3609C217.164 47.9883 216.481 42.1871 220.019 37.4202C223.205 33.1266 229.345 32.9522 234.564 37.3058Z" fill="#9F89E4"/>
<path d="M152.253 364.818C161.489 351.323 170.726 337.829 180.501 324.339C182.93 324.956 184.791 325.684 186.715 326.164C204.742 330.66 222.761 328.496 240.638 325.477C266.167 321.166 291.594 316.256 317.065 311.601C336.211 339.489 358.396 365.356 373.308 396.054C374.82 399.168 375.796 402.544 376.646 406.286C372.915 407.707 369.301 408.127 366.246 409.661C352.474 416.577 338.653 423.442 325.246 431.027C311.848 438.608 297.776 443.159 282.417 441.825C268.531 440.619 254.601 439.032 240.932 436.371C205.384 429.451 171.9 435.393 139.692 450.935C133.235 446.256 129.062 440.095 127.987 431.759C130.227 431 132.117 430.938 133.821 430.344C147.624 425.529 161.555 421.022 175.134 415.633C194.273 408.039 213.463 400.758 234.489 402.194C246.598 403.022 258.61 405.176 270.694 406.476C283.42 407.846 296.067 407.714 307.766 401.532C316.618 396.854 322.143 389.508 322.59 379.342C323.023 369.475 316.835 363.47 308.957 358.865C307.667 358.11 306.337 357.399 304.961 356.819C288.68 349.957 272.1 348.879 255.228 354.423C236.755 360.494 218.677 368.073 198.973 369.483C183.146 370.614 167.317 371.465 152.253 364.818ZM324.473 406.878C321.084 406.09 318.186 407.057 317.559 410.545C317.226 412.402 318.193 415.198 319.579 416.502C321.929 418.713 325.013 418.146 326.939 415.519C329.31 412.288 328.515 409.318 324.473 406.878ZM220.703 420.709C221.671 422.19 222.431 424.625 223.663 424.893C224.992 425.182 227.228 423.777 228.162 422.465C228.697 421.714 227.874 419.112 226.884 418.334C224.522 416.478 222.293 417.296 220.703 420.709ZM221.122 347.954C219.133 348.268 216.996 348.274 215.259 349.111C214.822 349.321 215.175 352.596 216.085 353.713C216.771 354.555 219.98 354.762 220.235 354.281C221.141 352.571 221.264 350.446 221.122 347.954ZM286.473 333.334C287.04 335.141 287.199 337.322 288.357 338.586C288.881 339.158 291.865 338.359 292.851 337.333C293.6 336.553 293.304 333.243 292.873 333.118C291.005 332.574 288.917 332.786 286.473 333.334ZM159.224 428.288C157.927 429.448 156.445 430.478 155.477 431.868C155.263 432.175 156.705 434.277 157.692 434.593C158.653 434.902 161.027 433.956 161.019 433.604C160.977 431.913 160.339 430.236 159.224 428.288ZM279.809 415.818C280.49 417.246 280.933 418.907 281.98 419.976C282.358 420.363 284.84 419.634 285.196 418.87C285.697 417.797 285.453 415.228 284.923 415.044C283.521 414.559 281.794 415.013 279.809 415.818Z" fill="#094884"/>
<path d="M152.026 365.034C167.317 371.465 183.146 370.614 198.973 369.483C218.677 368.073 236.755 360.494 255.228 354.423C272.1 348.879 288.68 349.957 304.961 356.819C306.337 357.399 307.667 358.11 308.957 358.865C316.835 363.47 323.024 369.475 322.59 379.342C322.144 389.508 316.618 396.854 307.766 401.532C296.067 407.714 283.42 407.846 270.694 406.476C258.61 405.176 246.598 403.022 234.489 402.194C213.463 400.758 194.273 408.039 175.134 415.633C161.555 421.022 147.625 425.529 133.821 430.344C132.117 430.938 130.227 431 127.975 431.382C125.403 423.123 126.859 415.037 129.421 407.095C134.352 391.808 142.665 378.303 152.026 365.034ZM247.309 396.957C258.874 397.983 270.423 399.503 282.009 399.862C289.842 400.104 297.151 397.243 304.41 391.588C302.677 391.588 302.162 391.447 301.773 391.608C288.999 396.914 275.901 396.921 262.576 394.227C248.841 391.45 234.983 389.051 221.037 392.14C212.485 394.033 204.168 396.986 195.745 399.463C195.901 399.996 196.057 400.529 196.213 401.061C198.595 400.478 200.972 399.874 203.359 399.313C217.568 395.973 231.897 394.708 247.309 396.957ZM171.015 391.21C171.476 391.043 171.938 390.877 173.421 390.341C167.091 389.25 163.515 385.907 162.436 381.427C159.13 385.002 156.05 388.334 153.803 390.765C156.742 394.045 159.9 397.572 162.086 400.012C164.331 397.704 167.375 394.575 171.015 391.21ZM280.329 369.142C279.301 371.201 276.954 373.859 277.553 375.18C278.466 377.193 281.619 379.648 283.448 379.379C285.278 379.11 287.898 375.762 287.957 373.7C288.07 369.71 284.96 368.195 280.329 369.142ZM199.698 384.299C199.33 380.448 197.244 378.974 193.737 380.597C192.744 381.056 191.739 383.12 191.97 384.181C192.256 385.502 193.865 387.533 194.819 387.488C196.422 387.411 197.958 385.938 199.698 384.299Z" fill="#FA6084"/>
<path d="M139.842 451.172C171.9 435.393 205.384 429.451 240.932 436.371C254.601 439.032 268.531 440.619 282.417 441.825C297.776 443.159 311.848 438.608 325.247 431.027C338.653 423.442 352.474 416.577 366.246 409.661C369.301 408.127 372.915 407.707 376.692 406.654C385.902 427.259 378.819 446.639 358.525 456.886C344.42 464.009 329.294 467.975 313.716 469.953C275.889 474.755 237.961 474.453 200.077 470.85C183.138 469.24 166.567 465.457 151.086 458.022C147.221 456.166 143.681 453.632 139.842 451.172ZM310.793 450.945C311.439 450.542 312.086 450.138 313.088 449.512C294.326 450.039 276.149 450.55 257.971 451.06C257.993 451.508 258.015 451.957 258.037 452.405C275.503 456.248 292.93 458.392 310.793 450.945ZM351.4 448.111C353.576 445.023 355.752 441.935 357.27 439.781C354.759 436.555 351.915 432.9 349.8 430.182C347.612 433.347 345.079 437.01 343.174 439.766C345.676 443.454 348.252 447.25 350.681 450.831C350.778 450.396 350.958 449.591 351.4 448.111ZM230.288 459.992C234.336 458.16 235.654 455.135 232.942 453.318C231.656 452.456 228.383 452.5 227.515 453.475C225.169 456.108 226.24 458.589 230.288 459.992Z" fill="#F7D456"/>
<path d="M316.927 311.293C291.594 316.256 266.167 321.166 240.638 325.477C222.761 328.496 204.742 330.66 186.715 326.164C184.791 325.684 182.93 324.956 180.72 324.095C187.617 312.14 195.136 300.606 201.935 288.66C205.845 281.789 208.589 274.253 212.428 266.958C227.96 277.62 244.536 279.641 261.821 274.816C272.147 271.934 282.058 267.564 292.156 263.863C298.026 280.794 306.853 296.18 316.927 311.293ZM251.567 288.3C258.299 287.796 264.444 285.98 268.604 281.599C253.306 282.348 237.623 283.116 221.94 283.884C231.368 287.252 240.831 289.371 251.567 288.3ZM292.76 295.079C293.038 294.806 293.317 294.533 293.595 294.261C293.475 294.152 293.371 293.986 293.231 293.943C287.521 292.209 284.362 288.225 283.576 283.527C280.927 287.2 277.956 291.317 275.455 294.784C278.087 298.187 281.139 302.132 283.224 304.827C285.703 302.177 288.931 298.725 292.76 295.079ZM218.871 314.219C220.482 313.441 222.738 313.041 223.49 311.759C224.036 310.826 223.02 308.002 221.918 307.355C220.817 306.709 218.742 307.723 217.095 308.008C217.468 309.993 217.841 311.977 218.871 314.219Z" fill="#9F89E4"/>
<path d="M140.855 194.954C135.807 186.904 130.76 178.854 125.941 170.288C155.321 155.822 184.471 141.871 213.621 127.919C213.357 138.624 213.093 149.328 212.422 160.53C188.295 172.337 164.575 183.646 140.855 194.954Z" fill="#7CEFE5"/>
<path d="M153.735 217.607C150.078 211.209 146.421 204.811 142.927 197.87C166.282 186.207 189.475 175.088 212.668 163.968C212.4 174.655 212.132 185.343 211.462 196.54C192.671 205.772 174.283 214.496 155.712 222.884C154.931 220.902 154.333 219.255 153.735 217.607Z" fill="#7CEFE5"/>
<path d="M292.07 263.479C282.058 267.564 272.147 271.934 261.821 274.816C244.536 279.641 227.96 277.62 212.644 266.673C213.917 259.335 215.544 252.224 217.279 244.642C221.66 250.033 227.012 253.407 233.177 248.849C237.964 245.311 241.714 240.372 245.734 236.251C255.628 255.356 270.513 256.691 285.52 241.154C287.744 248.702 289.864 255.898 292.07 263.479Z" fill="#084885"/>
<path d="M162.671 255.279C162.413 254.98 162.155 254.682 161.8 253.703C160 244.07 158.297 235.117 156.958 226.078C175.456 217.33 193.59 208.669 211.723 200.009C210.699 211.135 209.676 222.261 208.426 233.936C208.018 234.651 207.87 234.844 207.756 235.062C207.756 235.062 207.778 234.997 207.431 234.952C205.092 235.72 203.061 236.452 201.111 237.357C188.288 243.31 175.482 249.3 162.671 255.279Z" fill="#7CEFE5"/>
<path d="M220.364 179.333C219.79 170.319 225.327 162.988 233.029 162.039C240.972 161.06 248.428 166.284 249.744 173.751C251.243 182.258 246.561 189.609 238.368 191.61C230.448 193.545 222.807 188.466 220.364 179.333Z" fill="#7AEFE5"/>
<path d="M269.329 96.8677C276.732 99.2032 280.53 103.851 280.491 110.068C280.457 115.582 276.735 120.834 271.563 122.667C266.108 124.599 259.891 122.817 256.391 118.187C253.094 113.826 252.58 108.961 254.977 104.148C257.78 98.5206 262.606 96.1076 269.329 96.8677Z" fill="#F6D458"/>
<path d="M274.086 215.262C269.467 219.847 264.443 221.029 258.781 218.475C253.884 216.266 251.195 211.488 251.558 205.898C251.922 200.304 254.954 196.647 260.072 194.698C265.196 192.746 270.951 194.46 274.419 198.808C278.103 203.429 278.074 208.971 274.086 215.262Z" fill="#FBA4AD"/>
<path d="M264.811 171.773C264.167 172.269 263.589 172.408 263.01 172.547C262.697 171.088 262.424 169.619 262.063 168.172C260.173 160.594 255.585 155.587 246.488 153.654C258.458 151.013 262.635 143.433 264.395 133.408C266.586 142.594 269.409 151.289 280.472 153.99C271.047 156.484 266.874 163.011 264.811 171.773Z" fill="#084A88"/>
<path d="M186.97 283.575C176.028 288.747 165.281 293.612 154.621 298.662C137.635 306.708 120.716 314.898 103.742 322.97C101.423 324.073 98.949 324.852 96.5467 325.781C96.3101 325.359 96.0735 324.937 95.8369 324.515C97.0247 323.599 98.0951 322.439 99.4174 321.803C128.797 307.673 158.204 293.598 187.614 279.53C188.201 279.249 188.884 279.169 189.933 278.995C189.297 280.447 188.251 281.899 186.97 283.575Z" fill="#F3FDFD"/>
<path d="M213.682 127.554C184.471 141.87 155.321 155.822 125.844 169.95C124.963 169.354 124.409 168.582 123.806 167.528C143.866 157.661 163.966 148.054 184.09 138.497C193.694 133.936 203.344 129.471 213.343 124.964C213.723 125.706 213.733 126.447 213.682 127.554Z" fill="#F3FDFD"/>
<path d="M212.736 163.596C189.475 175.087 166.282 186.207 142.803 197.521C141.996 196.98 141.476 196.245 140.905 195.232C164.575 183.646 188.295 172.337 212.379 160.993C212.764 161.712 212.784 162.468 212.736 163.596Z" fill="#F3FDFD"/>
<path d="M211.793 199.628C193.59 208.669 175.456 217.33 156.754 225.836C156.088 224.86 155.991 224.039 155.895 223.219C174.283 214.496 192.671 205.772 211.418 196.994C211.805 197.709 211.834 198.478 211.793 199.628Z" fill="#F3FDFD"/>
<path d="M162.626 255.622C175.482 249.3 188.288 243.31 201.111 237.357C203.061 236.452 205.092 235.72 207.463 234.965C207.818 235.735 207.793 236.448 207.671 237.511C193.041 244.802 178.509 251.742 163.72 258.96C163.169 258.146 162.875 257.056 162.626 255.622Z" fill="#F3FDFD"/>
<path d="M215.334 88.1315C214.855 86.7169 214.835 85.3362 214.829 83.5488C228.04 83.6231 241.238 84.1041 254.436 84.5851C254.442 85.2724 254.448 85.9597 254.453 86.6471C241.567 87.1532 228.68 87.6594 215.334 88.1315Z" fill="#084A88"/>
<path d="M150.699 336.912C140.606 341.486 130.536 346.095 120.436 350.637C117.51 351.953 114.497 353.076 111.074 353.281C125.134 344.72 139.925 337.716 155.273 331.073C154.523 332.564 153.41 334.076 151.805 335.862C151.111 336.406 150.911 336.677 150.71 336.947C150.71 336.947 150.712 336.921 150.699 336.912Z" fill="#F3FDFD"/>
<path d="M305.525 258.467C313.189 254.606 320.847 251.063 328.554 247.627C330.672 246.684 332.932 246.06 335.127 245.29C335.41 245.948 335.693 246.606 335.976 247.264C326.424 251.879 316.872 256.494 306.968 261.261C306.257 260.55 305.898 259.688 305.525 258.467Z" fill="#F3FDFD"/>
<path d="M231.693 127.641C234.506 127.307 237.307 126.653 239.549 127.493C240.611 127.891 241.628 132.061 240.866 132.912C239.285 134.679 236.166 136.704 234.285 136.229C230.228 135.204 229.277 131.788 231.693 127.641Z" fill="#084A88"/>
<path d="M321.298 287.381C330.647 282.435 340.079 277.821 349.512 273.207C349.847 273.879 350.181 274.55 350.516 275.222C342.208 281.187 332.381 284.397 322.998 289.179C322.221 288.77 321.801 288.241 321.298 287.381Z" fill="#F3FDFD"/>
<path d="M263.265 241.321C260.659 236.34 261.56 232.491 265.517 232.13C267.535 231.946 270.501 233.16 271.607 234.742C272.528 236.058 272.034 239.302 270.961 240.862C269.165 243.472 266.249 243.514 263.265 241.321Z" fill="#F3FDFD"/>
<path d="M339.207 313.457C345.876 310.135 352.496 307.15 359.162 304.271C361.047 303.456 363.065 302.95 365.022 302.303C365.304 302.925 365.587 303.548 365.869 304.17C357.697 308.143 349.525 312.116 340.996 316.216C340.151 315.507 339.662 314.671 339.207 313.457Z" fill="#F3FDFD"/>
<path d="M296.703 227.369C304.448 223.471 312.146 219.946 319.844 216.421C320.224 217.227 320.605 218.032 320.985 218.838C313.195 222.533 305.406 226.227 297.256 229.954C296.816 229.238 296.735 228.49 296.703 227.369Z" fill="#F3FDFD"/>
<path d="M357.634 340.426C364.933 336.928 372.282 333.754 379.631 330.58C379.952 331.238 380.273 331.895 380.593 332.553C373.802 335.998 367.01 339.443 359.904 343.089C358.955 342.444 358.319 341.597 357.634 340.426Z" fill="#F3FDFD"/>
<path d="M375.962 367.379C381.918 364.519 387.866 361.968 393.815 359.418C394.143 360.111 394.472 360.805 394.8 361.498C389.322 364.252 383.844 367.005 378.047 369.92C377.136 369.284 376.545 368.485 375.962 367.379Z" fill="#F3FDFD"/>
<path d="M237.786 101.915C240 102.309 242.184 102.568 243.671 103.724C244.185 104.124 243.449 107.405 242.402 108.181C241.36 108.954 237.998 108.686 237.776 108.087C237.117 106.31 237.504 104.145 237.786 101.915Z" fill="#F3FDFD"/>
<path d="M235.682 210.847C233.534 210.274 231.458 209.791 229.989 208.576C229.543 208.207 230.366 205.055 231.335 204.536C232.589 203.865 235.846 204.182 236.006 204.728C236.539 206.546 236.072 208.657 235.682 210.847Z" fill="#F3FDFD"/>
<path d="M294.308 192.76C297.98 190.998 301.526 189.552 305.072 188.105C305.377 188.712 305.682 189.319 305.986 189.926C302.262 191.836 298.538 193.747 294.495 195.727C294.177 194.889 294.18 193.983 294.308 192.76Z" fill="#F3FDFD"/>
<path d="M150.966 336.893C150.911 336.677 151.112 336.406 151.571 336.073C151.627 336.288 151.425 336.564 150.966 336.893Z" fill="#7BEFE5"/>
<path d="M207.959 235.024C207.87 234.844 208.018 234.651 208.335 234.361C208.477 234.532 208.375 234.782 207.959 235.024Z" fill="#F3FDFD"/>
<path d="M148.551 262.737C149.768 263.164 150.625 263.72 151.625 264.537C134.196 273.1 116.625 281.407 99.0508 289.705C95.1432 291.55 91.255 293.443 87.2912 295.159C85.4226 295.969 83.3963 296.414 81.1001 296.178C102.972 283.982 125.585 273.432 148.551 262.737Z" fill="#F3FDFD"/>
<path d="M117.332 241.982C118.237 242.206 118.807 242.54 119.651 243.071C118.552 244.168 117.259 245.235 115.793 245.941C101.574 252.779 87.3373 259.578 73.0749 266.324C71.0389 267.287 68.8396 267.905 66.7158 268.682C66.4369 268.077 66.1579 267.471 65.8789 266.866C71.3742 264.111 76.8561 261.328 82.3684 258.607C88.029 255.813 93.7022 253.043 99.4009 250.327C105.247 247.541 111.13 244.834 117.332 241.982Z" fill="#F3FDFD"/>
<path d="M96.6798 215.975C97.5599 216.364 98.1139 216.929 98.7467 217.789C83.2793 225.662 67.7331 233.241 52.1869 240.82C51.8125 240.149 51.4381 239.477 51.0637 238.805C53.1465 237.487 55.1258 235.955 57.3291 234.885C70.3084 228.581 83.3398 222.384 96.6798 215.975Z" fill="#F3FDFD"/>
<path d="M77.286 189.971C78.0416 190.353 78.4494 190.82 78.9558 191.583C65.1005 198.695 51.1466 205.511 37.1928 212.327C36.8061 211.543 36.4194 210.759 36.0327 209.975C49.3682 202.763 63.1135 196.334 77.286 189.971Z" fill="#F3FDFD"/>
<path d="M39.1543 88.9003C40.8313 87.5326 42.823 86.3044 45.2634 85.3303C58.9248 107.108 72.1416 128.629 85.3488 150.155C101.504 176.487 117.652 202.825 133.748 229.498C132.05 230.795 130.407 231.754 128.764 232.713C121.047 220.087 113.387 207.426 105.602 194.842C84.3193 160.436 62.9874 126.06 41.6524 91.6863C41.0547 90.7233 40.2025 89.9183 39.1543 88.9003Z" fill="#F0874F"/>
<path d="M128.439 232.851C130.407 231.754 132.05 230.795 134.059 229.338C136.637 227.505 138.85 226.169 141.412 224.87C143.217 223.934 144.672 222.962 146.126 221.989C148.439 220.61 150.751 219.231 153.399 217.73C154.333 219.255 154.931 220.902 155.712 222.884C155.991 224.039 156.088 224.86 156.389 225.922C158.297 235.117 160 244.07 161.679 253.424C160.617 254.331 159.545 254.776 158.548 255.352C149.95 260.321 149.884 260.417 141.93 254.124C135.166 248.773 128.589 243.184 121.813 237.385C123.836 235.709 125.975 234.349 128.439 232.851Z" fill="#FDA3AB"/>
<path d="M145.978 221.654C144.672 222.962 143.217 223.934 141.299 224.538C139.316 221.794 137.768 219.437 136.284 217.041C113.493 180.256 90.6812 143.484 67.9472 106.664C62.7135 98.187 57.7525 89.5421 52.666 80.9746C54.0671 79.9564 55.4681 78.9382 57.1936 77.8586C70.2127 98.2802 82.937 118.745 95.5943 139.25C111.658 165.274 127.67 191.329 143.69 217.38C144.472 218.651 145.12 220.005 145.978 221.654Z" fill="#F0874F"/>
<path d="M52.3225 81.0042C57.7525 89.5421 62.7135 98.1871 67.9472 106.664C90.6811 143.484 113.493 180.256 136.283 217.041C137.768 219.437 139.316 221.794 140.949 224.501C138.85 226.169 136.637 227.505 134.114 229.001C117.652 202.825 101.504 176.488 85.3489 150.155C72.1417 128.629 58.9249 107.108 45.5771 85.2394C47.621 83.6074 49.8 82.3205 52.3225 81.0042Z" fill="#F9D355"/>
<path d="M324.817 406.983C328.515 409.318 329.31 412.288 326.939 415.519C325.013 418.146 321.929 418.713 319.579 416.502C318.193 415.198 317.226 412.402 317.56 410.545C318.186 407.057 321.084 406.09 324.817 406.983Z" fill="#F4F7FA"/>
<path d="M220.775 420.338C222.293 417.296 224.523 416.478 226.884 418.334C227.874 419.112 228.697 421.713 228.162 422.465C227.228 423.777 224.992 425.182 223.663 424.893C222.431 424.625 221.671 422.19 220.775 420.338Z" fill="#F4F7FA"/>
<path d="M221.403 348.216C221.264 350.446 221.141 352.571 220.235 354.281C219.98 354.762 216.771 354.555 216.085 353.713C215.175 352.596 214.822 349.321 215.259 349.111C216.996 348.274 219.133 348.268 221.403 348.216Z" fill="#F4F7FA"/>
<path d="M286.691 333.029C288.917 332.786 291.005 332.574 292.873 333.118C293.304 333.243 293.6 336.553 292.851 337.333C291.865 338.359 288.881 339.157 288.358 338.586C287.199 337.322 287.04 335.141 286.691 333.029Z" fill="#9F89E4"/>
<path d="M159.569 428.421C160.339 430.236 160.977 431.913 161.019 433.604C161.027 433.956 158.653 434.902 157.692 434.593C156.705 434.277 155.264 432.175 155.477 431.868C156.445 430.478 157.927 429.448 159.569 428.421Z" fill="#9F89E4"/>
<path d="M280.003 415.456C281.794 415.013 283.521 414.559 284.923 415.044C285.453 415.228 285.697 417.797 285.196 418.87C284.84 419.634 282.359 420.363 281.98 419.976C280.933 418.907 280.49 417.246 280.003 415.456Z" fill="#9F89E4"/>
<path d="M246.864 396.913C231.897 394.708 217.568 395.973 203.359 399.313C200.972 399.874 198.595 400.478 196.213 401.061C196.057 400.529 195.901 399.996 195.745 399.463C204.168 396.986 212.485 394.033 221.037 392.14C234.983 389.051 248.841 391.45 262.576 394.227C275.901 396.921 288.999 396.914 301.773 391.608C302.162 391.447 302.677 391.588 304.41 391.588C297.151 397.243 289.842 400.104 282.009 399.862C270.423 399.503 258.874 397.983 246.864 396.913Z" fill="#FFA0AA"/>
<path d="M170.717 391.328C167.375 394.575 164.331 397.704 162.086 400.012C159.9 397.572 156.742 394.045 153.803 390.765C156.05 388.334 159.13 385.002 162.436 381.427C163.515 385.907 167.091 389.25 173.421 390.341C171.938 390.877 171.476 391.043 170.717 391.328Z" fill="#FFF7F9"/>
<path d="M280.671 369.041C284.961 368.195 288.07 369.709 287.957 373.7C287.899 375.762 285.278 379.11 283.448 379.379C281.62 379.648 278.466 377.193 277.554 375.18C276.954 373.858 279.301 371.201 280.671 369.041Z" fill="#134884"/>
<path d="M199.61 384.676C197.958 385.938 196.422 387.411 194.819 387.488C193.865 387.533 192.256 385.502 191.97 384.181C191.739 383.12 192.744 381.056 193.737 380.597C197.244 378.974 199.33 380.448 199.61 384.676Z" fill="#134884"/>
<path d="M305.223 390.448C305.275 390.419 305.171 390.477 305.223 390.448Z" fill="#FFA0AA"/>
<path d="M310.468 451.081C292.93 458.392 275.503 456.248 258.037 452.405C258.015 451.957 257.993 451.508 257.971 451.06C276.148 450.55 294.326 450.039 313.088 449.512C312.086 450.138 311.439 450.542 310.468 451.081Z" fill="#FC6980"/>
<path d="M351.268 448.449C350.958 449.592 350.778 450.396 350.681 450.831C348.252 447.251 345.676 443.454 343.174 439.766C345.079 437.01 347.611 433.347 349.799 430.182C351.915 432.9 354.759 436.555 357.27 439.781C355.751 441.935 353.575 445.023 351.268 448.449Z" fill="#175081"/>
<path d="M229.92 459.961C226.24 458.589 225.169 456.108 227.515 453.475C228.383 452.5 231.656 452.456 232.941 453.318C235.653 455.135 234.336 458.16 229.92 459.961Z" fill="#175081"/>
<path d="M251.137 288.401C240.831 289.371 231.368 287.252 221.94 283.884C237.623 283.116 253.306 282.348 268.604 281.599C264.444 285.98 258.299 287.796 251.137 288.401Z" fill="#7EE7E5"/>
<path d="M292.459 295.176C288.931 298.725 285.702 302.177 283.224 304.827C281.139 302.132 278.087 298.187 275.455 294.784C277.956 291.317 280.927 287.2 283.576 283.527C284.362 288.225 287.521 292.209 293.231 293.943C293.371 293.986 293.475 294.152 293.595 294.261C293.317 294.533 293.038 294.806 292.459 295.176Z" fill="#FAF9FE"/>
<path d="M218.543 314.09C217.841 311.977 217.468 309.993 217.095 308.009C218.743 307.723 220.817 306.709 221.918 307.355C223.02 308.002 224.036 310.826 223.49 311.759C222.738 313.041 220.482 313.441 218.543 314.09Z" fill="#0C4B85"/>
</svg>
