<svg width="500" height="492" viewBox="0 0 500 492" fill="none" xmlns="http://www.w3.org/2000/svg">
<path d="M18.939 415.831C26.6498 411.027 34.3905 406.27 42.0598 401.401C46.4403 398.62 50.7043 395.655 55.4555 392.433C61.611 389.087 67.3316 386.081 73.3981 383.005C84.5951 375.453 95.7313 369.185 109.816 371.914C112.707 372.474 115.935 371.287 119.363 371.049C123.48 372.137 127.243 373.08 131.168 374.369C137.125 376.065 142.92 377.414 149.128 378.825C186.378 388.241 219.606 405.03 249.992 428.007C251.766 426.757 253.345 425.581 254.986 424.5C263.565 418.851 271.829 412.618 280.825 407.737C293.936 400.623 307.577 394.487 321.37 387.901C330.203 385.214 338.659 382.559 347.471 379.79C353.579 378.055 359.331 376.436 365.486 374.884C369.92 374.028 373.951 373.104 378.241 372.514C381.787 372.74 385.113 372.914 388.356 372.473C399.557 370.951 410.357 370.913 419.605 378.902C420.81 379.943 422.483 380.441 424.122 381.468C430.233 385.101 436.162 388.456 442.091 391.811C455.646 400.121 469.2 408.431 482.006 416.857C478.627 416.654 475.998 416.072 473.366 416.056C454.276 415.943 435.167 415.413 416.1 416.068C399.228 416.647 382.374 418.303 365.563 419.993C343.889 422.173 322.669 426.887 301.971 433.6C289.823 437.54 278.001 442.481 265.783 446.747C255.256 432.459 245.135 432.369 234.667 446.246C234.469 446.509 234.227 446.739 233.626 446.978C225.855 444.017 218.554 440.807 211.055 438.155C185.642 429.171 159.639 422.425 132.749 419.971C109.82 417.878 86.8327 416.21 63.8344 415.156C51.2521 414.579 38.5939 415.684 25.9689 415.987C23.6282 416.043 21.2824 415.888 18.939 415.831Z" fill="#EEF6F9"/>
<path d="M423.938 381.191C422.482 380.441 420.81 379.943 419.605 378.902C410.357 370.914 399.556 370.951 388.355 372.473C385.113 372.914 381.787 372.74 378.272 372.123C378.781 369.395 379.516 367.39 380.255 365.387C385.171 352.062 389.184 338.539 388.98 324.141C388.954 322.293 388.418 320.451 388.119 318.606C385.807 334.001 380.217 347.919 372.908 361.236C370.395 365.815 367.697 370.293 365.083 374.817C359.331 376.436 353.579 378.055 347.424 379.431C349.834 372.808 353.075 366.58 355.378 360.023C362.531 339.652 361.792 319.98 348.145 302.281C343.71 296.531 338.064 291.714 333.041 286.161C335.098 282.904 337.086 279.957 339.206 276.939C339.215 276.88 339.09 276.891 338.612 276.946C335.09 279.055 331.922 281.12 328.412 283.189C324.354 285.062 320.637 286.933 316.546 288.848C309.408 290.91 302.646 292.928 296.048 294.621C304.52 290.141 313.374 286.804 321.023 281.671C339.913 268.993 350.792 251.374 347.742 227.992C346.458 218.156 341.907 208.746 339.003 198.829C343.768 193.826 348.576 189.315 352.899 184.379C355.341 181.59 356.986 178.102 358.99 174.929C364.963 184.126 368.416 194.246 370.025 205.895C370.341 212.198 371.537 217.794 370.683 223.057C370.014 227.174 371.506 228.668 374.244 230.554C389.728 241.221 404.165 253.099 415.642 268.149C428.907 285.542 436.49 304.995 436.003 327.158C435.59 345.965 430.981 363.854 423.938 381.191Z" fill="#455370"/>
<path d="M234.005 446.984C234.227 446.739 234.469 446.509 234.667 446.246C245.135 432.369 255.256 432.459 265.865 447.093C268.392 454.31 270.588 460.957 272.987 468.219C273.549 468.219 275.03 468.219 276.511 468.219C343.369 468.219 410.226 468.222 477.084 468.204C478.736 468.203 480.387 467.969 482.038 467.844C486.369 467.885 490.699 467.909 495.029 467.979C496.182 467.998 498.305 468.022 498.34 468.275C499.034 473.208 499.756 478.175 499.745 483.134C499.742 484.08 496.713 485.202 494.943 485.888C493.929 486.281 492.638 485.961 491.472 485.961C417.657 485.961 343.842 485.934 270.028 486.061C267.108 486.066 263.907 487.019 261.324 488.426C253.642 492.611 246.299 492.646 238.645 488.378C236.212 487.021 233.184 486.063 230.426 486.059C156.112 485.936 81.7971 485.961 7.4826 485.959C0.0204768 485.959 -0.0415437 485.951 0.0325933 478.56C0.155983 466.258 -1.67729 468.141 10.5767 467.969C12.4091 467.944 14.242 467.949 16.9976 467.999C18.5836 468.11 19.2466 468.207 19.9097 468.208C88.1796 468.216 156.45 468.219 224.719 468.199C225.977 468.199 227.234 467.91 228.491 467.756C228.098 467.495 227.705 467.234 227.312 466.974C229.543 460.31 231.774 453.647 234.005 446.984Z" fill="#CC3636"/>
<path d="M233.626 446.978C231.774 453.647 229.543 460.31 227.312 466.974C227.705 467.234 228.098 467.495 228.491 467.756C227.234 467.91 225.977 468.199 224.719 468.199C156.449 468.219 88.1795 468.216 19.9096 468.208C19.2466 468.207 18.5836 468.11 17.4612 467.947C17.0064 452.007 16.9833 436.177 17.0616 420.349C17.0688 418.88 17.7196 417.415 18.5052 415.89C21.2822 415.888 23.628 416.043 25.9687 415.987C38.5937 415.684 51.2519 414.579 63.8343 415.156C86.8325 416.21 109.819 417.878 132.749 419.971C159.639 422.425 185.642 429.171 211.055 438.155C218.554 440.807 225.855 444.017 233.626 446.978ZM130.443 435.959C110.302 433.478 90.1532 431.349 69.8428 434.974C108.228 436.246 146.141 441.571 183.892 448.343C184.014 447.597 184.136 446.852 184.258 446.106C166.618 442.734 148.977 439.362 130.443 435.959Z" fill="#D1CECD"/>
<path d="M482.028 467.386C480.387 467.97 478.736 468.203 477.084 468.204C410.227 468.222 343.369 468.219 276.511 468.219C275.03 468.219 273.549 468.219 272.987 468.219C270.588 460.957 268.392 454.31 266.114 447.318C278.001 442.482 289.823 437.54 301.971 433.601C322.669 426.888 343.889 422.173 365.563 419.994C382.374 418.303 399.227 416.647 416.1 416.068C435.167 415.414 454.276 415.943 473.366 416.057C475.998 416.072 478.627 416.654 481.705 417.002C482.107 433.664 482.063 450.296 482.028 467.386ZM358.225 444.732C367.238 443.444 376.254 442.18 385.262 440.863C408.452 437.473 431.75 435.66 455.198 435.929C456.382 435.942 457.568 435.791 458.753 435.717C416.364 428.868 375.53 437.292 334.826 446.987C334.888 447.51 334.949 448.033 335.01 448.556C342.465 447.334 349.919 446.111 358.225 444.732Z" fill="#D1CECD"/>
<path d="M73.0523 383.074C67.3317 386.081 61.6111 389.087 55.5031 392.065C52.3514 381.221 49.2404 370.478 46.8913 359.572C41.1627 332.974 40.2803 306.381 50.1371 280.498C57.2798 261.742 69.3126 246.389 84.7475 233.45C97.2476 222.972 111.151 214.988 125.532 207.587C127.149 206.754 128.32 204.355 128.957 202.436C131.792 193.898 134.358 185.271 137.383 176.492C139.42 178.948 140.791 181.857 142.836 184.171C147.074 188.967 151.671 193.446 156.038 198.414C143.091 228.795 148.095 258.909 171.867 279.539C172.502 280.09 172.748 281.09 172.826 281.909C171.358 281.632 170.24 281.329 168.959 280.72C163.201 275.923 157.607 271.431 151.866 266.641C140.959 256.002 134.068 243.374 130.233 228.523C128.296 229.504 126.908 230.025 125.72 230.838C117.247 236.638 108.324 241.911 100.482 248.473C88.0404 258.883 77.5784 271.112 71.0439 286.288C61.4015 308.682 61.5015 331.696 66.5566 355.018C68.5899 364.399 70.8794 373.724 73.0523 383.074Z" fill="#445370"/>
<path d="M156.12 198.055C151.67 193.446 147.074 188.967 142.835 184.171C140.79 181.857 139.42 178.948 137.464 176.127C126.17 151.471 134.623 121.4 160.004 107.052C167.714 103.694 174.708 100.825 182.776 100.96C201.269 101.27 216.046 108.518 227.206 123.26C228.361 124.786 229.927 126 231.15 127.7C232.974 133.976 234.951 139.91 237.369 145.942C240.206 146.03 242.602 146.02 245.442 146.075C248.274 146.109 250.661 146.08 253.472 146.09C257.718 146.81 259.533 145.108 260.029 141.344C260.278 139.454 261.153 137.647 261.841 135.497C262.056 134.781 262.174 134.37 262.49 133.862C262.909 133.528 262.984 133.253 263.058 132.617C272.889 113.062 288.707 103.255 310.455 101.936C313.09 102.005 315.269 102.004 317.751 102.188C323.296 103.944 328.538 105.516 333.78 107.088C348.505 114.73 357.66 126.635 361.457 142.801C363.984 153.559 362.953 163.948 358.999 174.542C356.986 178.102 355.341 181.59 352.899 184.379C348.576 189.315 343.768 193.826 338.654 198.824C332.109 201.468 326.073 203.804 319.621 206.12C313.917 206.228 308.56 206.958 303.355 206.366C289.287 204.764 278.196 197.499 268.956 186.598C268.189 186.021 267.56 185.776 266.961 185.182C264.971 180.511 262.949 176.188 260.924 171.528C260.576 170.119 260.232 169.048 259.884 167.58C259.033 162.225 258.187 157.268 257.286 151.993C252.506 151.993 247.766 151.993 242.587 151.937C240.581 151.954 239.014 152.027 237.337 152.105C236.802 156.984 236.31 161.471 235.707 166.155C235.596 166.352 235.552 166.802 235.373 167.057C234.858 168.731 234.523 170.151 233.927 171.84C232.085 175.718 230.504 179.325 228.618 183C227.585 184.042 226.858 185.017 225.844 186.165C211.94 202.331 194.799 208.977 174.121 204.767C167.922 203.505 162.109 200.346 156.12 198.055ZM167.251 113.202C167.251 113.202 167.341 113.335 166.581 113.087C164.372 114.387 162.163 115.686 159.286 117.091C144.12 127.248 137.406 146.294 142.109 166.778C145.376 176.797 150.739 185.268 160.409 191.42C181.888 204.427 207.314 199.611 221.567 179.559C223.326 175.662 225.084 171.764 227.182 167.209C227.753 164.79 228.324 162.371 229.132 159.161C230.396 147.215 228.553 136.141 219.984 126.239C213.597 116.72 204.168 111.738 193.423 109.194C189.728 108.32 185.654 109.044 180.938 108.965C177.071 109.981 173.205 110.998 168.626 112.048C168.138 112.477 167.65 112.906 167.251 113.202ZM269.907 172.013C269.907 172.013 269.861 172.065 269.607 172.793C273.691 178.328 276.996 184.74 282.027 189.21C291.244 197.399 302.412 201.237 315.879 199.119C322.651 198.357 329.053 196.637 334.984 191.875C345.005 185.55 351.251 176.697 353.675 164.391C357.151 146.71 352.032 131.91 338.609 120C337.381 118.91 335.472 118.587 333.365 117.707C332.969 117.328 332.574 116.949 331.944 115.945C330.02 114.7 328.237 113.093 326.145 112.276C318.715 109.372 311.033 108.821 303.093 109.899C281.107 112.886 263.513 135.066 265.844 157.705C265.945 158.446 266.045 159.186 266.046 160.736C266.976 164.155 267.905 167.574 268.987 171.599C269.315 171.746 269.643 171.892 269.907 172.013Z" fill="#7C5491"/>
<path d="M270.073 1.16147C271.141 0.833541 272.209 0.505611 273.856 0C271.274 9.99582 267.199 19.613 272.674 30.1684C271.901 41.2299 275.015 50.5277 281.454 59.0311C269.133 62.8526 260.992 70.3188 255.426 81.0319C236.407 80.849 217.82 80.4971 199.253 80.9667C193.863 81.103 188.533 83.5906 182.774 85.0031C180.83 84.8924 179.287 84.7789 177.362 84.6373C178.258 82.7021 178.808 81.3208 179.512 80.0236C190.002 60.7056 204.242 44.52 222.216 32.0661C236.791 21.9677 252.282 13.1931 267.334 3.7803C268.383 3.12455 269.166 2.04431 270.073 1.16147Z" fill="#455470"/>
<path d="M424.121 381.468C430.981 363.854 435.59 345.965 436.003 327.158C436.49 304.995 428.907 285.542 415.642 268.149C404.165 253.099 389.728 241.221 374.244 230.554C371.506 228.668 370.014 227.174 370.683 223.057C371.537 217.794 370.341 212.198 370.034 206.311C381.625 213.001 393.661 219.497 404.691 227.398C421.679 239.567 435.555 254.883 445.089 273.647C450.984 285.252 454.658 297.58 456.098 310.683C459.199 338.905 451.698 365.137 442.093 391.44C436.162 388.456 430.233 385.101 424.121 381.468Z" fill="#4F627F"/>
<path d="M269.672 1.08643C269.166 2.04423 268.383 3.12447 267.334 3.78021C252.281 13.193 236.79 21.9676 222.216 32.066C204.241 44.52 190.002 60.7055 179.512 80.0235C178.807 81.3207 178.258 82.702 177.362 84.6372C179.287 84.7789 180.829 84.8923 182.931 85.3218C197.829 91.9772 212.27 98.1039 226.449 104.786C230.698 106.788 234.593 109.966 237.93 113.322C239.932 115.335 240.541 118.735 241.526 121.746C239.511 123.621 237.746 125.262 235.591 126.894C233.902 127.043 232.602 127.201 231.303 127.358C229.927 126 228.361 124.786 227.206 123.26C216.046 108.518 201.269 101.27 182.776 100.96C174.709 100.825 167.714 103.694 160.315 106.901C162.69 98.3307 164.7 89.4468 168.339 81.2902C176.103 63.8895 188.914 50.0747 202.968 37.6556C222.274 20.5946 243.38 6.36069 269.672 1.08643Z" fill="#353F53"/>
<path d="M255.865 81.176C260.991 70.3189 269.133 62.8527 281.454 59.0312C275.015 50.5278 271.9 41.23 273.003 30.3241C273.918 22.255 278.037 17.3216 285.682 15.4209C286.038 16.2664 286.049 16.7294 286.06 17.1923C286.06 17.1923 286.045 17.6008 285.644 17.8237C284.43 18.8119 283.382 19.4393 282.841 20.3636C276.325 31.5021 275.905 42.8341 281.686 54.4549C282.967 57.0303 284.456 58.1994 287.411 58.0257C291.55 57.7824 295.731 57.7537 299.865 58.0474C304.147 58.3516 307.641 60.4025 308.731 64.8103C309.817 69.2062 308.674 72.9283 304.371 75.4147C301.746 76.9311 299.433 78.9875 296.654 80.8439C295.893 80.8314 295.459 80.7764 294.922 80.5858C294.55 80.5547 294.28 80.6591 293.675 80.858C291.895 81.6162 290.451 82.2799 288.655 82.9719C285.336 85.2886 281.888 87.1665 279.507 89.9557C275.255 94.9361 271.648 100.467 267.754 105.747C267.736 105.727 267.69 105.699 267.382 105.848C263.76 108.762 260.352 111.113 255.83 108.551C251.387 106.035 250.242 101.831 251.164 97.3746C252.299 91.8858 254.261 86.5678 255.865 81.176Z" fill="#343F52"/>
<path d="M296.98 80.8013C299.433 78.9874 301.746 76.931 304.371 75.4145C308.675 72.9282 309.818 69.2061 308.731 64.8102C307.642 60.4023 304.148 58.3515 299.865 58.0472C295.731 57.7536 291.55 57.7823 287.411 58.0256C284.456 58.1993 282.967 57.0301 281.686 54.4548C275.906 42.834 276.325 31.502 282.841 20.3635C283.382 19.4391 284.43 18.8118 285.59 18.0205C285.307 30.1866 290.483 39.7178 298.742 48.3607C310.238 60.3902 320.773 73.3049 328.879 87.9245C331.961 93.4833 334.898 99.3784 333.864 106.641C328.538 105.516 323.296 103.944 317.657 101.795C315.073 89.8693 307.613 83.7593 296.98 80.8013Z" fill="#445370"/>
<path d="M286.294 17.0242C286.049 16.7294 286.038 16.2664 286.048 15.458C286.221 15.6937 286.375 16.2749 286.294 17.0242Z" fill="#445370"/>
<path d="M320.993 387.934C307.578 394.487 293.936 400.623 280.826 407.737C271.829 412.618 263.565 418.851 254.986 424.5C253.345 425.581 251.766 426.757 249.992 428.007C219.606 405.03 186.378 388.241 149.093 378.485C143.742 367.19 139.743 356.031 138.522 344.038C136.06 319.847 145.368 300.821 164.147 286.168C171.546 291.973 178.247 298.456 186.125 302.805C215.025 318.758 245.951 321.259 277.851 314.489C293.894 311.084 309.076 305.5 322.341 295.085C322.574 295.059 323.044 295.053 323.082 295.396C338.96 316.637 340.346 339.457 331.66 363.362C328.616 371.739 324.577 379.754 320.993 387.934ZM292.764 348.527C288.631 347.91 284.512 347.168 280.359 346.74C278.781 346.577 277.127 347.138 275.508 347.369C275.794 348.871 275.6 350.76 276.446 351.811C280.816 357.238 295.134 357.542 299.755 352.392C300.394 351.68 300.842 350.132 300.498 349.367C300.046 348.359 298.777 347.198 297.758 347.094C296.399 346.956 294.944 347.771 292.764 348.527ZM209.243 353.836C210.055 352.071 210.867 350.306 211.679 348.541C209.608 348.295 207.307 347.349 205.511 347.94C200.988 349.428 196.876 349.411 192.534 347.341C191.144 346.678 189.116 347.355 187.38 347.418C188.081 349.35 188.205 352.116 189.583 353.069C195.52 357.174 202.018 356.948 209.243 353.836ZM244.985 407.259C248.966 407.711 249.378 405.007 248.799 402.304C248.55 401.142 246.679 400.329 245.544 399.357C244.786 401.305 243.947 403.229 243.341 405.223C243.224 405.608 244.022 406.27 244.985 407.259Z" fill="#E5D8D3"/>
<path d="M163.989 285.867C145.368 300.821 136.06 319.847 138.522 344.038C139.743 356.031 143.742 367.19 148.68 378.424C142.92 377.414 137.125 376.064 131.059 374.036C120.999 357.332 114.067 340.177 110.663 321.586C109.972 338.702 113.298 355.013 119.008 370.905C115.935 371.287 112.706 372.474 109.816 371.914C95.7311 369.185 84.5949 375.453 73.3979 383.005C70.8791 373.724 68.5896 364.399 66.5563 355.018C61.5012 331.696 61.4012 308.682 71.0436 286.288C77.5781 271.112 88.0401 258.883 100.482 248.472C108.323 241.911 117.247 236.638 125.72 230.838C126.908 230.025 128.295 229.504 130.233 228.523C134.067 243.374 140.959 256.002 151.873 267.018C154.606 274.45 157.976 280.659 164.017 285.216C163.995 285.432 163.989 285.867 163.989 285.867Z" fill="#3C4A60"/>
<path d="M321.37 387.901C324.577 379.754 328.616 371.739 331.66 363.363C340.346 339.457 338.96 316.638 323.281 295.128C325.989 291.848 328.536 289.18 331.398 286.506C332.133 286.491 332.553 286.481 332.973 286.47C338.064 291.714 343.71 296.531 348.145 302.282C361.792 319.98 362.531 339.653 355.378 360.023C353.075 366.58 349.834 372.808 347.069 379.546C338.659 382.559 330.203 385.214 321.37 387.901Z" fill="#F1E5E1"/>
<path d="M365.485 374.884C367.697 370.293 370.395 365.815 372.908 361.236C380.217 347.919 385.807 334.001 388.118 318.606C388.418 320.451 388.954 322.292 388.98 324.141C389.184 338.538 385.171 352.062 380.255 365.387C379.516 367.39 378.781 369.395 378.013 371.79C373.951 373.104 369.919 374.028 365.485 374.884Z" fill="black"/>
<path d="M119.362 371.049C113.298 355.013 109.972 338.702 110.663 321.586C114.067 340.177 120.999 357.332 130.897 373.69C127.243 373.08 123.48 372.137 119.362 371.049Z" fill="black"/>
<path d="M320.038 206.139C326.074 203.804 332.109 201.468 338.493 199.137C341.907 208.746 346.458 218.156 347.742 227.992C350.792 251.374 339.913 268.993 321.023 281.67C313.374 286.804 304.52 290.141 295.698 294.754C281.802 297.425 268.422 299.637 255.124 301.486C255.88 300.743 256.512 300.212 257.236 300.003C264.366 297.947 271.621 296.264 278.63 293.861C292.794 289.007 304.604 280.373 313.495 268.522C324.033 254.478 327.039 238.307 323.519 221.05C322.499 216.051 321.206 211.108 320.038 206.139Z" fill="#F1E5E1"/>
<path d="M255.043 301.848C268.422 299.637 281.802 297.425 295.533 295.08C302.646 292.928 309.408 290.91 316.7 289.159C318.855 291.321 320.481 293.216 322.107 295.111C309.076 305.5 293.894 311.084 277.85 314.489C245.951 321.259 215.025 318.758 186.125 302.805C178.246 298.456 171.545 291.973 164.146 286.168C163.989 285.867 163.995 285.432 164.31 285.073C166.124 283.485 167.623 282.255 169.122 281.025C170.24 281.329 171.358 281.632 172.788 281.936C173.101 281.937 173.03 281.875 173.162 282.165C173.887 282.613 174.481 282.77 175.047 282.944C175.02 282.96 175.021 282.897 175.155 283.184C175.892 283.633 176.494 283.794 177.054 283.964C177.011 283.972 176.992 283.888 177.163 284.173C177.743 284.629 178.152 284.799 178.883 284.999C184.578 287.997 189.792 291.312 195.353 293.874C214.392 302.648 234.688 302.597 255.043 301.848Z" fill="#968884"/>
<path d="M322.34 295.085C320.481 293.216 318.855 291.321 317.075 289.114C320.637 286.933 324.354 285.062 328.6 283.437C329.781 284.626 330.432 285.568 331.083 286.511C328.536 289.18 325.989 291.848 323.243 294.785C323.044 295.053 322.574 295.059 322.34 295.085Z" fill="#9C908C"/>
<path d="M331.398 286.506C330.432 285.568 329.781 284.625 328.942 283.434C331.922 281.12 335.09 279.055 338.637 276.974C339.016 276.959 339.073 277.01 339.073 277.01C337.086 279.957 335.098 282.904 333.041 286.161C332.553 286.481 332.133 286.491 331.398 286.506Z" fill="#343F52"/>
<path d="M338.991 276.93C339.09 276.891 339.215 276.88 339.207 276.939C339.073 277.01 339.016 276.959 338.991 276.93Z" fill="#343F52"/>
<path d="M130.89 435.975C148.977 439.362 166.618 442.734 184.258 446.106C184.136 446.852 184.014 447.598 183.892 448.343C146.141 441.571 108.228 436.246 69.8428 434.974C90.1532 431.35 110.302 433.478 130.89 435.975Z" fill="#A2A2A2"/>
<path d="M357.8 444.81C349.919 446.111 342.465 447.333 335.01 448.556C334.949 448.033 334.888 447.51 334.826 446.987C375.53 437.292 416.364 428.868 458.753 435.717C457.568 435.791 456.382 435.942 455.198 435.929C431.75 435.66 408.452 437.473 385.262 440.863C376.254 442.18 367.238 443.444 357.8 444.81Z" fill="#A2A2A2"/>
<path d="M255.124 301.486C234.688 302.597 214.392 302.648 195.353 293.875C189.792 291.312 184.578 287.998 178.661 284.762C177.741 284.293 177.367 284.091 176.992 283.888C176.992 283.888 177.011 283.973 176.867 283.713C176.156 283.268 175.588 283.083 175.021 282.897C175.021 282.897 175.02 282.96 174.95 282.586C174.263 282.099 173.646 281.987 173.03 281.875C173.03 281.875 173.101 281.937 173.138 281.909C172.748 281.091 172.502 280.09 171.867 279.539C148.095 258.909 143.091 228.795 156.038 198.414C162.11 200.346 167.922 203.505 174.121 204.767C194.799 208.977 211.94 202.331 226.213 186.16C227.197 186.02 227.599 185.949 227.845 186.112C234.329 190.425 240.887 191.636 247.757 186.883C248.353 186.471 249.751 186.524 250.372 186.951C256.653 191.264 262.859 190.536 269.093 186.929C278.196 197.499 289.287 204.764 303.355 206.366C308.561 206.959 313.917 206.228 319.622 206.12C321.206 211.108 322.499 216.051 323.519 221.05C327.039 238.307 324.033 254.478 313.495 268.523C304.604 280.373 292.794 289.007 278.63 293.861C271.621 296.264 264.367 297.948 257.236 300.003C256.512 300.212 255.88 300.743 255.124 301.486ZM301.014 231.56C301.281 231.517 301.549 231.474 301.816 231.431C301.57 231.257 301.323 231.083 300.898 230.251C294.825 223.904 287.354 220.906 278.612 220.811C261.948 220.629 235.249 234.726 222.887 251.002C229.597 247.106 234.993 243.606 240.702 240.724C259.707 231.132 278.872 222.059 301.014 231.56Z" fill="#E5D8D3"/>
<path d="M168.958 280.72C167.623 282.255 166.124 283.485 164.332 284.857C157.977 280.66 154.607 274.45 152.02 267.315C157.607 271.431 163.201 275.923 168.958 280.72Z" fill="#303340"/>
<path d="M265.979 156.967C263.513 135.067 281.107 112.886 303.094 109.899C311.033 108.821 318.715 109.372 326.146 112.276C328.237 113.093 330.02 114.7 332.024 116.709C332.2 124.055 333.624 130.951 332.153 137.162C327.213 158.023 308.492 170.502 286.747 166.686C281.926 165.84 277.581 162.283 273.361 159.89C275.024 158.18 276.744 156.707 277.451 154.85C277.713 154.16 275.763 151.781 274.542 151.528C270.391 150.667 268.995 153.2 268.767 156.971C267.572 156.969 266.776 156.968 265.979 156.967Z" fill="#F0FDFD"/>
<path d="M220.09 126.923C228.553 136.141 230.397 147.215 228.593 159.559C226.932 159.966 225.809 159.974 224.825 159.58C225.819 155.931 224.963 153.184 221.382 153.246C219.903 153.271 217.527 155.773 217.316 157.379C217.151 158.634 219.701 160.245 220.994 162.07C220.273 163.119 219.724 164.085 218.912 164.426C210.92 167.793 202.589 168.552 194.312 166.117C173.513 159.999 162.73 143.076 165.325 121.342C165.419 120.552 164.861 119.685 164.739 118.523C165.695 116.573 166.518 114.954 167.341 113.335C167.341 113.335 167.251 113.202 167.551 113.373C168.347 113.035 168.843 112.524 169.339 112.014C173.205 110.997 177.072 109.981 181.524 109.298C193.187 118.874 205.586 125.212 220.09 126.923Z" fill="#F0FDFD"/>
<path d="M255.426 81.0319C254.261 86.5677 252.3 91.8857 251.164 97.3746C250.242 101.831 251.388 106.034 255.83 108.551C260.352 111.113 263.761 108.762 267.454 106.206C267.499 107.146 267.345 108.065 266.806 108.583C256.118 118.843 252.413 131.645 253.049 146.051C250.661 146.08 248.274 146.109 245.446 145.606C243.93 137.22 242.853 129.365 241.776 121.511C240.541 118.735 239.932 115.336 237.93 113.322C234.593 109.966 230.698 106.788 226.449 104.786C212.27 98.104 197.829 91.9773 183.332 85.3191C188.533 83.5906 193.863 81.103 199.253 80.9667C217.82 80.4971 236.407 80.849 255.426 81.0319Z" fill="#E3D7D2"/>
<path d="M224.686 159.982C225.809 159.974 226.931 159.966 228.475 159.955C228.324 162.371 227.753 164.79 226.675 167.593C216.932 174.85 207.115 180.278 195.069 178.886C190.34 178.34 185.71 176.935 181.021 175.938C181.008 175.955 181.049 175.943 180.878 175.689C179.81 174.937 178.914 174.439 178.015 173.954C178.013 173.967 178.038 173.96 177.854 173.726C177.116 173.29 176.564 173.088 175.855 172.656C175.182 172.265 174.664 172.104 174.049 171.737C173.798 171.255 173.579 171.05 173.125 170.617C169.582 166.076 165.744 162.113 162.98 157.507C160.677 153.669 159.633 149.075 158.033 144.372C158.762 138.109 159.489 132.291 160.445 126.277C161.985 123.672 163.296 121.263 164.606 118.854C164.86 119.685 165.419 120.553 165.325 121.342C162.729 143.076 173.513 160 194.311 166.118C202.589 168.552 210.919 167.793 218.912 164.427C219.723 164.085 220.272 163.119 221.253 161.933C222.604 160.943 223.645 160.463 224.686 159.982Z" fill="#E6F3F3"/>
<path d="M273.016 159.975C277.581 162.283 281.926 165.84 286.747 166.686C308.492 170.502 327.213 158.023 332.153 137.162C333.624 130.951 332.2 124.055 332.14 117.022C332.574 116.949 332.969 117.328 333.796 118.125C339.038 127.761 341.827 137.308 338.89 148.139C335.911 159.532 329.32 167.798 319.508 173.984C314.441 175.691 309.728 177.341 304.56 178.983C299.068 178.349 293.96 178.069 289.012 177.028C278.832 174.887 272.43 167.425 266.146 159.927C266.045 159.186 265.945 158.446 265.912 157.336C266.775 156.968 267.572 156.969 269.008 157.165C270.771 158.231 271.894 159.103 273.016 159.975Z" fill="#E6F3F4"/>
<path d="M174.147 171.943C174.664 172.104 175.182 172.265 176.018 172.916C176.904 173.59 177.471 173.775 178.039 173.96C178.039 173.96 178.013 173.967 178.069 174.301C179.1 175.071 180.074 175.507 181.049 175.943C181.049 175.943 181.009 175.955 181.071 176.294C189.195 182.417 198.271 183.757 207.837 182.473C212.26 181.88 216.618 180.8 221.005 179.941C207.314 199.611 181.888 204.427 160.254 190.83C164.407 184.149 168.715 178.057 173.304 171.964C173.773 171.956 173.96 171.949 174.147 171.943Z" fill="#DADDDA"/>
<path d="M319.862 173.928C329.32 167.798 335.911 159.532 339.225 148.24C344.123 153.607 348.594 159.242 353.064 164.876C351.251 176.697 345.005 185.55 334.464 191.639C329.707 186.225 325.471 181.046 321.103 175.599C320.602 174.862 320.232 174.395 319.862 173.928Z" fill="#5E778E"/>
<path d="M173.023 171.966C168.715 178.057 164.407 184.149 160.013 190.578C150.739 185.268 145.376 176.797 142.397 166.309C147.801 158.832 152.917 151.824 158.032 144.817C159.633 149.075 160.676 153.669 162.979 157.507C165.744 162.113 169.582 166.076 173.031 170.873C173.079 171.607 173.051 171.787 173.023 171.966Z" fill="#5E778E"/>
<path d="M319.508 173.984C320.232 174.395 320.602 174.862 320.726 175.657C315.856 177.982 311.233 179.981 306.109 182.196C307.434 184.352 308.726 186.196 309.748 188.178C311.599 191.764 313.288 195.432 315.045 199.067C302.412 201.237 291.244 197.399 282.027 189.21C276.997 184.74 273.691 178.329 270.063 172.533C272.62 174.298 274.405 177.446 276.878 178.139C284.395 180.245 292.145 181.625 299.879 182.782C301.939 183.09 305.149 182.732 305.016 178.992C309.728 177.342 314.441 175.691 319.508 173.984Z" fill="#DBDDD9"/>
<path d="M158.033 144.372C152.917 151.824 147.801 158.832 142.356 165.946C137.406 146.294 144.12 127.249 159.644 117.482C160.074 120.739 160.145 123.605 160.216 126.472C159.489 132.291 158.762 138.109 158.033 144.372Z" fill="#BBF8F9"/>
<path d="M253.472 146.089C252.413 131.645 256.117 118.843 266.806 108.583C267.345 108.065 267.499 107.146 267.762 106.057C267.69 105.699 267.737 105.727 268.143 105.813C269.732 105.435 271.057 105.177 272.074 104.473C279.902 99.0478 288.632 96.8201 298.411 97.0724C302.485 97.989 306.202 98.7211 309.899 99.5423C310.035 99.5725 309.978 100.474 309.598 100.906C289.787 95.6865 266.476 109.553 262.32 128.819C262.046 130.09 262.696 131.561 262.916 132.938C262.984 133.253 262.908 133.528 262.249 133.953C261.787 134.695 261.766 135.249 261.744 135.803C261.153 137.647 260.278 139.454 260.029 141.344C259.533 145.108 257.718 146.81 253.472 146.089Z" fill="#D6C2BA"/>
<path d="M353.37 164.634C348.594 159.242 344.123 153.607 339.317 147.872C341.827 137.308 339.038 127.761 334.053 118.226C335.472 118.587 337.381 118.91 338.609 120C352.032 131.91 357.151 146.71 353.37 164.634Z" fill="#BBF8F8"/>
<path d="M315.462 199.093C313.288 195.432 311.599 191.764 309.748 188.178C308.726 186.195 307.434 184.352 306.109 182.196C311.233 179.981 315.856 177.982 320.857 175.926C325.471 181.046 329.707 186.225 334.137 191.702C329.053 196.637 322.651 198.357 315.462 199.093Z" fill="#E5E8E6"/>
<path d="M243.027 151.993C247.766 151.993 252.506 151.993 257.287 151.993C258.187 157.267 259.033 162.225 259.474 167.573C251.223 171.148 243.644 168.796 236.045 166.856C235.886 166.815 235.717 166.819 235.552 166.802C235.552 166.802 235.596 166.352 236.013 165.983C238.63 161.074 240.828 156.534 243.027 151.993Z" fill="#E3D7D2"/>
<path d="M235.373 167.057C235.717 166.819 235.886 166.815 236.044 166.856C243.644 168.796 251.223 171.148 259.479 167.971C260.232 169.048 260.576 170.119 260.57 171.58C259.177 172.433 258.036 172.753 257.106 173.383C252.864 176.256 251.224 180.866 253.098 184.359C255.094 188.08 260.072 189.151 264.846 186.851C265.582 186.496 266.238 185.976 266.931 185.532C267.56 185.776 268.19 186.021 268.956 186.598C262.859 190.536 256.653 191.264 250.372 186.95C249.751 186.524 248.353 186.471 247.757 186.883C240.887 191.636 234.329 190.425 227.845 186.112C227.599 185.949 227.197 186.02 226.499 185.987C226.858 185.017 227.586 184.042 228.788 183.315C230.981 184.812 232.556 186.371 234.447 187.247C238.603 189.172 242.984 187.947 244.917 184.547C247.262 180.426 245.474 176.906 242.321 174.534C240.116 172.874 236.933 172.512 234.187 171.57C234.523 170.151 234.858 168.731 235.373 167.057Z" fill="#EDE1DE"/>
<path d="M310.01 100.969C309.978 100.474 310.035 99.5727 309.899 99.5425C306.202 98.7213 302.486 97.9892 298.393 96.7063C297.287 94.526 296.813 92.6983 295.781 91.2753C293.682 88.3824 291.282 85.7081 289.007 82.9437C290.451 82.2799 291.895 81.6162 293.931 80.9114C294.69 80.8208 294.858 80.7711 295.025 80.7214C295.459 80.7764 295.893 80.8314 296.654 80.8438C307.613 83.7594 315.073 89.8694 317.354 101.61C315.269 102.004 313.09 102.005 310.46 101.712C310.009 101.417 310.01 100.969 310.01 100.969Z" fill="#EEE2DF"/>
<path d="M220.037 126.581C205.586 125.212 193.187 118.874 181.932 109.335C185.654 109.044 189.728 108.32 193.424 109.194C204.169 111.738 213.598 116.72 220.037 126.581Z" fill="#526776"/>
<path d="M309.598 100.906C310.01 100.969 310.009 101.417 310.004 101.641C288.707 103.255 272.889 113.062 263.058 132.617C262.696 131.561 262.046 130.09 262.321 128.819C266.477 109.553 289.787 95.6865 309.598 100.906Z" fill="#F9F7F9"/>
<path d="M304.56 178.983C305.149 182.732 301.939 183.09 299.879 182.782C292.145 181.625 284.395 180.245 276.878 178.139C274.405 177.446 272.62 174.298 270.191 172.169C269.862 172.065 269.907 172.013 269.824 171.781C269.439 171.364 269.137 171.179 268.835 170.993C267.906 167.574 266.976 164.155 266.096 160.332C272.43 167.425 278.832 174.887 289.012 177.028C293.96 178.069 299.068 178.349 304.56 178.983Z" fill="#CFCCC7"/>
<path d="M233.926 171.84C236.933 172.512 240.115 172.874 242.321 174.533C245.474 176.906 247.261 180.426 244.917 184.547C242.983 187.947 238.603 189.172 234.447 187.247C232.556 186.371 230.981 184.812 229.093 183.248C230.504 179.325 232.085 175.718 233.926 171.84Z" fill="#222830"/>
<path d="M221.286 179.75C216.618 180.801 212.26 181.88 207.837 182.473C198.271 183.757 189.195 182.417 181.084 176.278C185.709 176.935 190.339 178.34 195.069 178.886C207.115 180.278 216.932 174.85 226.505 167.922C225.084 171.764 223.326 175.662 221.286 179.75Z" fill="#CFCCC7"/>
<path d="M241.526 121.746C242.853 129.365 243.93 137.22 245.003 145.543C242.603 146.021 240.206 146.03 237.39 145.485C236.641 138.921 236.311 132.912 235.981 126.903C237.746 125.262 239.511 123.622 241.526 121.746Z" fill="#D3C0B7"/>
<path d="M266.961 185.182C266.237 185.975 265.581 186.496 264.845 186.851C260.072 189.151 255.094 188.08 253.098 184.359C251.224 180.866 252.864 176.256 257.105 173.383C258.036 172.753 259.177 172.433 260.575 171.918C262.949 176.188 264.971 180.511 266.961 185.182Z" fill="#222830"/>
<path d="M235.591 126.894C236.311 132.912 236.641 138.921 236.95 145.387C234.951 139.91 232.975 133.976 231.15 127.7C232.602 127.201 233.902 127.043 235.591 126.894Z" fill="#F9F7F9"/>
<path d="M242.588 151.937C240.828 156.534 238.63 161.074 236.125 165.786C236.31 161.471 236.802 156.984 237.337 152.105C239.015 152.027 240.582 151.953 242.588 151.937Z" fill="#D3C0B7"/>
<path d="M160.445 126.277C160.145 123.605 160.074 120.739 159.979 117.429C162.163 115.686 164.372 114.387 166.961 113.211C166.518 114.954 165.695 116.573 164.739 118.523C163.295 121.263 161.985 123.672 160.445 126.277Z" fill="#526776"/>
<path d="M168.983 112.031C168.843 112.525 168.347 113.035 167.507 113.441C167.65 112.907 168.139 112.477 168.983 112.031Z" fill="#526776"/>
<path d="M261.842 135.497C261.766 135.249 261.788 134.695 262.051 134.051C262.174 134.37 262.056 134.781 261.842 135.497Z" fill="#F9F7F9"/>
<path d="M268.911 171.296C269.137 171.179 269.439 171.364 269.856 171.794C269.643 171.892 269.315 171.746 268.911 171.296Z" fill="#DBDDD9"/>
<path d="M288.655 82.9717C291.282 85.7079 293.682 88.3822 295.781 91.2751C296.813 92.6981 297.287 94.5258 298.032 96.5366C288.632 96.82 279.902 99.0478 272.074 104.473C271.058 105.177 269.732 105.435 268.161 105.833C271.649 100.466 275.256 94.9359 279.507 89.9555C281.888 87.1663 285.336 85.2884 288.655 82.9717Z" fill="#E3D7D2"/>
<path d="M294.923 80.5858C294.858 80.7711 294.691 80.8208 294.267 80.817C294.281 80.6591 294.55 80.5547 294.923 80.5858Z" fill="#445370"/>
<path d="M293.146 348.352C294.943 347.771 296.399 346.956 297.758 347.094C298.776 347.198 300.045 348.359 300.498 349.367C300.841 350.132 300.393 351.68 299.754 352.392C295.133 357.542 280.816 357.238 276.446 351.811C275.599 350.76 275.794 348.871 275.508 347.369C277.127 347.138 278.78 346.577 280.359 346.74C284.511 347.168 288.631 347.91 293.146 348.352Z" fill="#C9ACA0"/>
<path d="M208.882 354.009C202.018 356.949 195.52 357.174 189.583 353.069C188.205 352.117 188.081 349.35 187.38 347.419C189.116 347.355 191.144 346.678 192.533 347.341C196.876 349.412 200.988 349.428 205.511 347.94C207.306 347.349 209.608 348.295 211.679 348.541C210.867 350.306 210.055 352.071 208.882 354.009Z" fill="#C9ACA0"/>
<path d="M244.692 407.032C244.022 406.27 243.224 405.608 243.341 405.223C243.947 403.229 244.786 401.305 245.544 399.357C246.679 400.329 248.55 401.142 248.799 402.304C249.378 405.007 248.966 407.711 244.692 407.032Z" fill="#C9ACA0"/>
<path d="M175.155 283.184C175.588 283.082 176.156 283.268 176.91 283.705C176.494 283.794 175.892 283.633 175.155 283.184Z" fill="#445370"/>
<path d="M173.162 282.165C173.646 281.987 174.263 282.099 174.977 282.569C174.481 282.77 173.887 282.613 173.162 282.165Z" fill="#445370"/>
<path d="M177.163 284.173C177.367 284.091 177.741 284.293 178.338 284.733C178.152 284.799 177.743 284.629 177.163 284.173Z" fill="#445370"/>
<path d="M300.887 231.093C278.871 222.058 259.707 231.132 240.702 240.724C234.993 243.606 229.597 247.106 222.887 251.002C235.249 234.726 261.948 220.629 278.612 220.81C287.353 220.905 294.825 223.904 300.939 230.626C300.981 231 300.887 231.093 300.887 231.093Z" fill="#E04C36"/>
<path d="M301.029 230.954C301.323 231.083 301.57 231.257 301.817 231.431C301.549 231.474 301.282 231.517 300.951 231.326C300.888 231.093 300.981 231 301.029 230.954Z" fill="#E04C36"/>
<path d="M273.361 159.89C271.894 159.103 270.771 158.231 269.406 157.165C268.995 153.2 270.391 150.667 274.542 151.528C275.763 151.781 277.713 154.16 277.451 154.849C276.744 156.707 275.024 158.18 273.361 159.89Z" fill="#4F6067"/>
<path d="M224.825 159.581C223.645 160.463 222.605 160.943 221.304 161.561C219.7 160.245 217.151 158.634 217.316 157.38C217.527 155.773 219.903 153.271 221.382 153.246C224.963 153.184 225.819 155.931 224.825 159.581Z" fill="#475960"/>
<path d="M180.878 175.689C180.075 175.507 179.1 175.071 178.072 174.288C178.914 174.439 179.81 174.937 180.878 175.689Z" fill="#CFCCC7"/>
<path d="M177.854 173.726C177.471 173.775 176.904 173.59 176.174 173.145C176.563 173.088 177.116 173.29 177.854 173.726Z" fill="#CFCCC7"/>
<path d="M173.304 171.964C173.052 171.787 173.08 171.607 173.201 171.172C173.579 171.05 173.798 171.255 174.049 171.736C173.959 171.949 173.772 171.955 173.304 171.964Z" fill="#CFCCC7"/>
</svg>
