<svg width="491" height="379" viewBox="0 0 491 379" fill="none" xmlns="http://www.w3.org/2000/svg">
<path d="M132.367 24.3371C142.747 21.2008 152.818 20.1882 163.19 22.1754C165.247 22.5695 167.639 21.6652 169.787 21.0472C177.322 18.879 184.858 16.6989 192.313 14.2755C196.869 12.7947 201.157 10.3691 205.778 9.23834C213.911 7.2484 222.179 5.76731 230.441 4.36612C239.241 2.87346 248.063 1.15339 256.943 0.582364C265.456 0.034978 274.436 -1.50512 282.044 4.57807C282.615 5.03531 283.521 5.31073 284.26 5.28768C293.014 5.01448 301.766 4.66424 310.518 4.34642C311.684 4.30411 312.851 4.32388 314.018 4.32379C329.351 4.32259 344.687 4.51597 360.016 4.27129C376.958 4.00087 389.916 11.028 398.541 25.3492C403.756 34.0082 404.437 43.7612 402.133 54.1329C407.702 54.5327 413.223 54.7741 418.708 55.3538C431.593 56.7155 444.502 57.1587 457.144 61.1099C477.294 67.4074 490.191 89.718 490.378 107.297C490.537 122.195 486.165 134.846 475.691 145.143C469.402 151.326 461.582 155.212 451.897 156.825C451.353 161.901 450.436 167.339 450.247 172.803C449.728 187.715 450.031 202.672 449.04 217.547C448.024 232.795 440.294 244.922 428.4 254.216C423.612 257.957 418.131 260.82 412.922 264.01C407.558 267.295 406.759 270.735 410.185 275.85C415.699 284.081 419.256 293.34 418.946 303.054C418.484 317.537 413.08 330.083 401.412 339.84C390.806 348.709 378.786 352.491 365.386 353.448C363.738 353.566 361.881 355.082 360.681 356.443C352.799 365.391 343.138 370.884 331.487 373.76C312.1 378.546 287.91 371.17 276.407 353.724C274.182 350.349 271.628 349.14 267.933 349.321C254.125 349.996 240.322 350.791 226.508 351.272C218.724 351.543 211.605 349.201 205.072 344.844C203.757 343.967 201.276 343.548 199.942 344.189C184.089 351.799 168.435 351.971 152.822 343.606C152.28 343.316 151.555 343.369 150.714 343.228C144.746 355.616 135.808 365.477 123.805 371.922C111.243 378.668 97.503 380.585 83.6051 376.963C69.3821 373.258 58.6141 364.604 51.175 351.8C50.2821 350.263 48.2813 348.878 46.5296 348.408C30.432 344.087 18.782 334.567 10.951 319.813C3.38081 305.549 0.613667 290.385 0.104868 274.456C-0.553542 253.843 1.81567 233.72 9.27942 214.47C12.3887 206.451 16.9197 198.987 20.7075 191.223C21.1743 190.266 21.317 188.972 21.1446 187.91C19.2613 176.302 19.2005 164.83 24.2103 153.904C31.8464 137.25 44.0194 125.809 62.4849 122.423C68.4806 121.324 74.6989 121.439 80.1467 121.047C79.2304 114.257 77.6724 106.691 77.2915 99.0669C76.4736 82.6949 82.6058 68.2012 91.9287 55.3293C100.815 43.0607 112.035 33.0153 126.195 26.7973C128.104 25.959 130.033 25.1665 132.367 24.3371ZM80.1787 175.327C80.1787 175.327 80.2162 175.346 80.2007 174.529C79.9071 168.812 77.9305 166.24 73.6941 166.353C69.1402 166.476 67.3713 169.609 66.7424 173.507C66.0599 177.738 69.6873 181.791 74.3519 182.329C79.5692 182.931 83.7297 179.99 85.54 174.422C87.014 169.888 84.5071 164.502 79.4905 161.424C73.278 157.612 64.8917 159.535 61.042 165.653C56.2138 173.327 57.9145 184.607 64.7686 188.953C66.0845 189.787 68.0584 189.584 69.7287 189.859C68.9159 188.498 68.3805 186.817 67.243 185.829C61.84 181.135 60.5641 173.469 64.4659 167.834C67.2778 163.773 73.2025 162.575 77.8137 165.136C81.6136 167.246 82.2893 170.172 80.1787 175.327ZM161.377 217.917C154.831 203.274 141.679 198.704 129.465 207.496C125.611 210.27 121.896 214.62 120.425 219.02C117.726 227.093 116.465 235.698 115.184 244.168C114.697 247.389 114.487 249.15 110.581 249.575C107.268 249.934 103.658 251.375 101.08 253.453C99.0738 255.071 97.3044 258.53 97.5632 260.941C97.788 263.036 100.682 265.556 102.976 266.546C106.221 267.945 109.998 268.111 114.15 268.921C114.15 273.226 113.925 277.695 114.201 282.132C114.643 289.238 114.863 296.432 116.21 303.388C117.527 310.192 120.444 312.042 125.575 311.369C130.958 310.662 134.051 306.983 134.206 300.943C134.329 296.115 134.362 291.284 134.382 286.454C134.41 279.517 134.389 272.58 134.389 266.222C139.473 264.246 143.932 262.513 148.732 260.648C151.536 268.589 159.203 267.402 166.182 268.747C166.182 275.985 165.845 283.132 166.293 290.23C166.624 295.479 167.698 300.732 168.973 305.851C169.815 309.233 172.032 311.839 176.163 311.438C180.174 311.049 183.782 309.812 185.212 305.607C185.891 303.609 186.168 301.39 186.185 299.267C186.278 288.131 186.229 276.993 186.229 266.553C191.267 264.192 196.057 262.592 200.025 259.816C202.009 258.428 203.85 254.518 203.275 252.432C202.682 250.28 199.295 248.183 196.736 247.463C193.233 246.478 189.358 246.816 185.193 246.558C185.906 241.229 186.316 235.933 187.421 230.787C188.034 227.934 188.576 223.794 192.931 224.368C197.138 224.922 196.047 228.836 196.218 231.645C196.601 237.942 198.408 240.805 202.667 241.427C208.259 242.245 212.552 239.359 214.297 233.609C217.147 224.213 212.533 211.706 204.264 206.298C199.185 202.977 193.774 202.434 188.031 204.134C179.458 206.671 173.937 212.788 171.446 220.806C169.064 228.477 168.486 236.701 166.96 244.652C166.66 246.212 165.997 248.55 164.908 248.962C160.816 250.508 156.478 251.407 152.145 252.571C147.974 245.228 140.655 246.725 133.195 247.033C133.903 241.592 134.31 236.495 135.307 231.517C135.924 228.44 136.293 224.06 140.716 224.377C145.203 224.698 144.053 228.943 144.247 231.899C144.653 238.092 146.565 240.921 150.947 241.456C156.454 242.127 161.134 239.553 162.049 233.86C162.84 228.936 161.876 223.731 161.377 217.917ZM260.046 92.7468C255.001 90.6478 251.014 92.0536 249.34 97.7398C247.387 104.373 245.501 111.307 245.369 118.145C244.91 141.947 244.959 165.77 245.402 189.574C245.533 196.605 247.309 203.667 248.915 210.58C249.69 213.913 251.6 217.334 255.912 217.331C260.252 217.328 263.981 215.493 265.198 211.171C266.619 206.125 267.62 200.885 268.086 195.665C268.844 187.189 269.018 178.661 269.462 169.69C279.722 179.383 296.909 176.312 303.751 164.643C314.814 145.773 316.816 125.666 307.641 105.473C301.067 91.006 287.417 87.616 274.023 96.1554C271.421 97.8145 268.991 99.7448 266.684 101.405C264.496 98.4404 262.566 95.826 260.046 92.7468ZM290.08 308.608C291.124 304.456 292.675 300.355 293.097 296.141C293.81 289.036 293.11 281.735 294.343 274.752C295.22 269.779 297.738 264.829 300.547 260.538C303.223 256.451 307.644 255.655 312.546 257.494C321.243 260.758 323.713 259.912 329.009 252.777C331.619 253.06 334.204 253.341 337.178 253.663C336.649 259.861 336.103 265.781 335.645 271.708C334.873 281.697 334.617 291.643 338.02 301.312C340.217 307.556 344.402 311.857 350.649 313.828C358.028 316.156 365.473 315.647 372.679 312.987C378.447 310.858 381.092 306.279 380.084 300.955C379.244 296.519 376.593 295.137 369.445 295.408C360.04 295.765 356.978 293.23 357.189 283.594C357.395 274.148 358.457 264.711 359.473 255.306C359.592 254.2 361.657 253.02 363.053 252.388C367.368 250.435 372.359 249.486 376.046 246.746C381.227 242.896 379.907 237.729 373.758 235.442C371.925 234.761 369.889 234.499 367.922 234.334C365.711 234.149 363.473 234.292 360.826 234.292C361.214 231.55 361.704 229.753 361.674 227.966C361.599 223.518 361.953 218.914 360.924 214.665C359.145 207.324 351.714 205.763 346.862 211.626C344.71 214.225 343.093 217.579 342.229 220.853C341.108 225.1 340.98 229.609 340.419 234.05C338.68 234.477 336.997 234.687 335.475 235.3C328.734 238.013 322.073 241.321 314.916 236.415C314.565 236.174 313.936 236.344 313.437 236.315C304.515 235.799 297.792 239.726 292.624 247.166C292.043 245.102 291.747 243.466 291.129 241.963C289.492 237.977 287.35 234.368 282.36 234.272C277.345 234.175 274.746 237.701 273.403 241.694C272.102 245.565 271.342 249.817 271.361 253.897C271.418 266.703 271.646 279.528 272.458 292.304C272.776 297.32 274.242 302.47 276.212 307.126C278.98 313.667 284.366 314.253 290.08 308.608ZM85.036 264.777C86.3775 263.796 87.7948 262.903 89.0462 261.818C92.6469 258.697 94.0728 254.758 92.5229 250.187C90.9354 245.507 86.813 244.657 82.7134 245.246C76.5489 246.13 70.48 247.681 64.4437 248.933C63.7244 239.989 64.9221 238.453 73.3574 234.614C80.7309 231.259 87.9249 227.445 94.9324 223.376C98.6544 221.215 100.486 217.357 98.8212 213.051C97.1777 208.801 94.2062 205.392 89.0384 206.259C79.1062 207.927 69.2294 209.928 59.3365 211.827C49.3401 213.745 45.2156 220.895 43.2953 229.968C38.8006 251.204 39.4144 272.608 41.5245 294.008C41.8812 297.626 42.9336 301.909 45.2431 304.45C50.2424 309.951 57.324 313.494 64.563 310.98C74.8417 307.409 84.796 302.618 94.3568 297.378C99.841 294.372 100.726 288.866 98.4533 283.93C96.4418 279.562 92.4091 277.704 86.1665 279.148C78.9589 280.816 71.8861 283.066 64.5476 285.121C64.2657 283.87 63.9694 282.764 63.7714 281.64C62.6802 275.448 63.908 273.364 69.6412 271.142C74.5923 269.224 79.4892 267.166 85.036 264.777ZM366.566 146.155C363.808 147.689 361.184 149.573 358.266 150.686C351.747 153.173 345.85 149.935 344.909 143.689C357.195 141.579 363.793 138.262 371.159 129.893C377.895 122.241 381.38 113.344 378.573 103.181C373.532 84.9262 350.788 79.9436 335.693 93.3428C318.193 108.877 313.784 142.553 329.713 163.617C336.662 172.807 345.813 177.535 357.085 174.938C369.639 172.047 379.78 165.09 383.884 152.063C385.955 145.493 381.083 140.797 374.426 142.479C371.905 143.116 369.61 144.65 366.566 146.155ZM174.994 161.869C182.058 174.658 193.665 178.608 207.15 177.065C220.418 175.547 228.459 167.043 232.519 154.6C236.382 142.761 236.116 130.562 234.484 118.526C233.589 111.919 231.103 105.392 228.467 99.1978C226.232 93.9452 221.961 92.2533 217.562 93.4153C213.246 94.5556 209.98 98.7803 210.164 104.037C210.414 111.162 211.144 118.272 211.74 125.383C212.365 132.849 213.225 140.265 209.781 147.431C207.862 151.425 205.105 154.187 200.667 153.861C195.926 153.513 193.582 149.587 193.349 145.56C192.923 138.179 193.392 130.734 193.706 123.325C194.048 115.263 195.203 107.183 194.805 99.1699C194.672 96.4832 191.308 92.8346 188.582 91.766C186.528 90.9609 182.836 93.1336 180.435 94.7939C178.51 96.1253 177.036 98.5004 176.035 100.716C167.022 120.656 166.684 140.853 174.994 161.869ZM160.989 145.332C163.815 135.58 160.527 127.367 154.559 119.836C152.287 116.968 150.007 114.106 147.688 111.277C139.402 101.171 140.237 93.8478 150.713 85.999C154.301 83.311 158.321 81.145 161.662 78.1953C167.326 73.1949 166.336 64.2494 159.458 61.1519C156.124 59.6508 151.611 59.3427 148.001 60.1489C137.121 62.579 128.897 69.3534 122.628 78.3588C112.644 92.7006 113.01 103.399 123.464 117.12C125.984 120.427 128.475 123.772 130.736 127.257C136.394 135.977 135.682 142.268 128.435 149.543C124.438 153.556 120.245 157.398 116.52 161.649C112.711 165.996 111.885 172.476 114.543 176.019C117.846 180.421 122.383 182.167 127.759 180.398C131.191 179.269 134.844 178.215 137.753 176.197C148.592 168.678 155.926 158.318 160.989 145.332ZM265.187 274.653C265.689 264.692 264.399 255.091 259.7 246.115C250.025 227.636 227.857 225.845 216.448 243.349C204.613 261.506 204.196 280.93 214.261 300.149C218.81 308.837 226.639 314.054 236.486 313.931C246.422 313.806 254.069 308.068 258.035 299.222C261.373 291.778 262.86 283.503 265.187 274.653ZM413.337 160.029C413.62 153.058 413.448 146.027 414.338 139.134C414.981 134.155 416.258 128.936 418.629 124.572C422.88 116.748 427.584 115.516 436.085 118.423C442.896 120.752 448.414 119.309 451.065 114.505C453.638 109.842 452.169 103.221 447.277 99.2591C441.967 94.9579 435.882 93.3833 429.045 94.9203C421.98 96.5087 416.729 100.64 412.772 106.545C411.915 103.741 411.774 100.902 410.33 99.1194C408.17 96.4528 405.416 93.5674 402.325 92.5264C398.202 91.1376 394.473 94.0988 393.315 97.874C391.401 104.116 389.748 110.669 389.523 117.145C389.149 127.924 389.686 138.765 390.42 149.541C390.979 157.741 390.658 166.249 395.623 173.582C399.681 179.575 407.201 179.464 410.275 172.869C411.978 169.215 412.322 164.927 413.337 160.029ZM305.169 322.091C305.45 324.045 305.394 326.126 306.071 327.932C308.571 334.607 315.109 338.371 321.451 337.053C330.137 335.247 336.629 327.504 336.036 319.33C335.937 317.969 334.673 316.693 333.947 315.378C333.333 316.651 332.257 317.897 332.181 319.202C331.767 326.318 327.462 331.799 320.658 332.919C316.626 333.582 313.068 332.314 310.831 328.587C309.16 325.805 308.273 322.959 310.628 320.078C310.699 324.446 312.29 328.277 316.532 328.899C319.086 329.273 322.77 327.687 324.635 325.732C327.941 322.267 325.992 316.2 321.856 313.148C316.36 309.093 306.068 313.005 305.169 322.091ZM230.704 56.4968C231.817 61.1754 232.829 65.8825 234.125 70.5099C234.402 71.4964 235.711 72.1934 236.545 73.0238C237.039 71.9142 238.095 70.7175 237.939 69.7084C236.432 59.9576 234.128 50.3904 228.107 42.3195C225.866 39.3147 222.809 36.8741 219.894 34.4528C219.307 33.9652 217.682 34.7272 216.535 34.9131C216.9 35.8911 216.971 37.3135 217.674 37.778C224.28 42.1398 227.847 48.5778 230.704 56.4968ZM323.186 39.5973C320.564 45.4892 317.855 51.3448 315.391 57.3021C314.864 58.5765 315.229 60.2199 315.183 61.6933C316.408 60.917 318.22 60.4267 318.761 59.317C321.733 53.2214 325.103 47.1742 326.927 40.7125C328.269 35.9572 327.631 30.5848 327.44 25.5039C327.401 24.4757 325.407 23.5213 324.314 22.5328C324.03 23.8481 323.547 25.1562 323.499 26.48C323.35 30.5715 323.368 34.669 323.186 39.5973ZM258.186 42.9016C257.551 49.2989 256.754 55.6876 256.413 62.1005C256.342 63.4322 257.96 64.8538 258.799 66.234C259.368 64.7973 260.221 63.4016 260.436 61.9137C260.717 59.9756 260.182 57.9061 260.54 55.9946C262.058 47.8913 263.851 39.8395 265.346 31.7322C265.588 30.4161 264.829 28.9155 264.534 27.5001C263.472 28.5199 261.88 29.3551 261.449 30.5942C260.149 34.3302 259.302 38.2233 258.186 42.9016ZM342.259 58.8862C339.853 61.6337 337.322 64.2874 335.127 67.1948C334.582 67.9167 335.124 69.4598 335.167 70.6254C336.16 70.3434 337.6 70.3869 338.078 69.7301C344.188 61.3428 352.525 55.604 360.978 49.9463C361.914 49.3198 362.175 47.6846 362.749 46.5172C361.433 46.5294 359.756 46.0196 358.859 46.6393C353.397 50.4156 348.113 54.4487 342.259 58.8862ZM241.3 30.2975C240.663 31.5872 239.3 33.0061 239.503 34.1463C241.236 43.8793 243.209 53.5711 245.248 63.2461C245.473 64.3143 246.565 65.1998 247.255 66.1701C247.901 65.2235 249.123 64.2661 249.105 63.3321C248.891 51.9913 247.241 40.9293 241.3 30.2975ZM332.681 52.2706C331.054 54.5738 329.266 56.7845 327.87 59.2195C327.179 60.4237 327.21 62.0414 326.914 63.472C328.253 62.9497 330.252 62.8174 330.828 61.8436C335.535 53.8807 340.058 45.8042 344.395 37.6341C344.935 36.6176 344.064 34.852 343.846 33.4336C342.829 34.3165 341.447 35.0055 340.857 36.1154C338.139 41.2305 335.642 46.463 332.681 52.2706Z" fill="white"/>
<path d="M161.533 218.283C161.876 223.731 162.84 228.936 162.049 233.86C161.134 239.553 156.454 242.127 150.948 241.456C146.565 240.921 144.653 238.092 144.247 231.899C144.053 228.943 145.203 224.698 140.716 224.377C136.293 224.06 135.924 228.44 135.308 231.517C134.31 236.495 133.903 241.592 133.195 247.033C140.655 246.725 147.974 245.228 152.145 252.571C156.478 251.407 160.816 250.508 164.909 248.962C165.997 248.55 166.66 246.212 166.96 244.652C168.486 236.701 169.064 228.477 171.446 220.806C173.937 212.788 179.458 206.671 188.032 204.134C193.774 202.434 199.185 202.977 204.264 206.298C212.533 211.706 217.147 224.213 214.297 233.609C212.552 239.359 208.26 242.245 202.667 241.427C198.408 240.805 196.601 237.942 196.218 231.645C196.047 228.836 197.138 224.922 192.931 224.368C188.576 223.794 188.034 227.934 187.421 230.787C186.316 235.933 185.906 241.229 185.193 246.558C189.358 246.816 193.233 246.478 196.736 247.463C199.295 248.183 202.682 250.28 203.275 252.432C203.85 254.518 202.009 258.428 200.025 259.816C196.057 262.592 191.267 264.192 186.229 266.554C186.229 276.993 186.278 288.131 186.186 299.267C186.168 301.39 185.892 303.609 185.212 305.607C183.782 309.812 180.174 311.049 176.163 311.438C172.032 311.839 169.815 309.233 168.973 305.851C167.698 300.732 166.624 295.479 166.293 290.23C165.845 283.132 166.182 275.985 166.182 268.747C159.203 267.402 151.536 268.589 148.732 260.648C143.932 262.513 139.473 264.246 134.389 266.222C134.389 272.58 134.41 279.517 134.382 286.454C134.363 291.284 134.329 296.115 134.206 300.943C134.051 306.983 130.958 310.662 125.575 311.369C120.444 312.042 117.527 310.192 116.21 303.388C114.863 296.432 114.644 289.238 114.201 282.132C113.925 277.695 114.15 273.226 114.15 268.921C109.998 268.111 106.221 267.945 102.976 266.546C100.682 265.556 97.7881 263.036 97.5633 260.941C97.3045 258.53 99.0739 255.071 101.08 253.453C103.658 251.375 107.268 249.934 110.581 249.575C114.487 249.15 114.697 247.389 115.184 244.168C116.465 235.698 117.726 227.093 120.425 219.02C121.896 214.62 125.611 210.27 129.465 207.496C141.679 198.704 154.831 203.274 161.533 218.283Z" fill="#6ACEFA"/>
<path d="M260.341 92.9792C262.566 95.826 264.496 98.4404 266.684 101.405C268.992 99.7448 271.421 97.8145 274.023 96.1554C287.417 87.616 301.067 91.006 307.641 105.473C316.817 125.666 314.814 145.773 303.751 164.643C296.909 176.312 279.722 179.383 269.462 169.69C269.018 178.661 268.844 187.189 268.086 195.665C267.62 200.885 266.619 206.125 265.198 211.171C263.982 215.493 260.252 217.328 255.912 217.331C251.6 217.334 249.69 213.913 248.915 210.58C247.309 203.667 245.533 196.605 245.403 189.574C244.959 165.77 244.91 141.947 245.37 118.145C245.502 111.307 247.387 104.373 249.34 97.7398C251.014 92.0536 255.001 90.6478 260.341 92.9792ZM290.438 122.069C288.382 117.886 285.161 115.685 280.398 116.476C274.535 117.449 268.721 122.436 268.421 127.662C268.14 132.569 268.558 137.627 269.491 142.461C270.384 147.087 275.724 150.326 281.062 150.245C285.812 150.174 288.655 147.063 289.279 142.942C290.284 136.31 290.334 129.534 290.438 122.069Z" fill="#FF8FBB"/>
<path d="M289.87 308.933C284.366 314.253 278.979 313.666 276.212 307.125C274.242 302.47 272.776 297.32 272.457 292.304C271.645 279.528 271.417 266.703 271.36 253.897C271.342 249.817 272.101 245.565 273.403 241.694C274.745 237.701 277.345 234.175 282.359 234.272C287.35 234.368 289.491 237.977 291.129 241.963C291.746 243.466 292.043 245.102 292.624 247.166C297.792 239.725 304.514 235.799 313.437 236.315C313.936 236.344 314.565 236.174 314.915 236.415C322.073 241.321 328.734 238.013 335.475 235.3C336.996 234.687 338.68 234.477 340.419 234.05C340.98 229.609 341.108 225.1 342.229 220.853C343.093 217.579 344.71 214.225 346.861 211.626C351.714 205.763 359.144 207.324 360.923 214.665C361.953 218.913 361.599 223.518 361.673 227.966C361.703 229.753 361.213 231.55 360.826 234.291C363.472 234.291 365.711 234.149 367.922 234.334C369.889 234.499 371.925 234.761 373.758 235.442C379.907 237.729 381.226 242.896 376.046 246.746C372.359 249.486 367.368 250.435 363.052 252.388C361.657 253.02 359.592 254.2 359.472 255.306C358.457 264.711 357.395 274.148 357.188 283.594C356.978 293.23 360.04 295.765 369.445 295.408C376.593 295.136 379.244 296.519 380.084 300.955C381.091 306.279 378.447 310.858 372.679 312.987C365.473 315.647 358.027 316.156 350.649 313.828C344.402 311.857 340.217 307.556 338.02 301.312C334.616 291.643 334.873 281.697 335.645 271.708C336.103 265.781 336.648 259.861 337.178 253.663C334.204 253.341 331.619 253.06 329.009 252.777C323.713 259.912 321.242 260.758 312.545 257.494C307.644 255.655 303.222 256.451 300.547 260.538C297.738 264.829 295.22 269.779 294.342 274.752C293.11 281.735 293.81 289.035 293.097 296.141C292.674 300.355 291.123 304.456 289.87 308.933Z" fill="#6ACEFA"/>
<path d="M84.7228 264.974C79.489 267.166 74.592 269.224 69.6409 271.142C63.9077 273.364 62.68 275.448 63.7712 281.64C63.9692 282.764 64.2655 283.87 64.5473 285.121C71.8859 283.066 78.9587 280.816 86.1663 279.148C92.4089 277.704 96.4416 279.562 98.453 283.93C100.726 288.866 99.8407 294.372 94.3566 297.378C84.7958 302.618 74.8414 307.409 64.5628 310.98C57.3237 313.494 50.2422 309.951 45.2428 304.45C42.9334 301.909 41.881 297.626 41.5242 294.008C39.4142 272.608 38.8004 251.204 43.2951 229.968C45.2154 220.895 49.3399 213.745 59.3363 211.827C69.2292 209.928 79.1059 207.927 89.0382 206.259C94.206 205.392 97.1775 208.801 98.821 213.051C100.486 217.357 98.6542 221.215 94.9321 223.376C87.9247 227.445 80.7307 231.259 73.3572 234.614C64.9219 238.453 63.7242 239.989 64.4434 248.933C70.4797 247.681 76.5487 246.13 82.7131 245.246C86.8128 244.657 90.9352 245.507 92.5227 250.187C94.0726 254.758 92.6466 258.697 89.0459 261.818C87.7946 262.903 86.3773 263.796 84.7228 264.974Z" fill="#6ACEFA"/>
<path d="M366.889 145.965C369.61 144.65 371.905 143.116 374.426 142.479C381.082 140.797 385.955 145.493 383.884 152.063C379.78 165.091 369.639 172.047 357.085 174.938C345.813 177.535 336.662 172.807 329.713 163.617C313.784 142.553 318.193 108.877 335.693 93.3429C350.788 79.9436 373.532 84.9262 378.573 103.181C381.38 113.344 377.895 122.241 371.159 129.893C363.793 138.262 357.195 141.579 344.909 143.689C345.85 149.935 351.747 153.174 358.266 150.686C361.184 149.573 363.808 147.689 366.889 145.965ZM348.374 110.003C346.462 114.049 344.549 118.095 342.636 122.142C343.105 122.591 343.573 123.04 344.041 123.489C347.959 122.003 352.082 120.9 355.74 118.931C360.113 116.577 361.408 111.547 359.104 108.406C356.859 105.344 353.181 105.703 348.374 110.003Z" fill="#FF8FBB"/>
<path d="M174.807 161.543C166.684 140.853 167.022 120.656 176.035 100.716C177.036 98.5004 178.51 96.1254 180.435 94.7939C182.836 93.1336 186.528 90.9609 188.582 91.7661C191.308 92.8346 194.672 96.4832 194.805 99.1699C195.202 107.183 194.048 115.263 193.706 123.325C193.392 130.734 192.923 138.179 193.349 145.56C193.582 149.587 195.925 153.513 200.666 153.861C205.105 154.187 207.861 151.425 209.781 147.431C213.224 140.265 212.365 132.849 211.739 125.383C211.144 118.272 210.414 111.162 210.164 104.037C209.98 98.7804 213.245 94.5556 217.562 93.4153C221.961 92.2534 226.232 93.9452 228.467 99.1978C231.103 105.392 233.588 111.919 234.484 118.526C236.116 130.562 236.382 142.761 232.519 154.6C228.459 167.043 220.418 175.547 207.15 177.065C193.665 178.608 182.058 174.658 174.807 161.543Z" fill="#FF8FBB"/>
<path d="M160.853 145.715C155.926 158.318 148.592 168.678 137.752 176.197C134.844 178.215 131.191 179.269 127.759 180.398C122.382 182.167 117.846 180.421 114.543 176.019C111.884 172.476 112.711 165.996 116.519 161.649C120.244 157.398 124.438 153.556 128.435 149.544C135.682 142.268 136.394 135.977 130.736 127.257C128.474 123.772 125.983 120.427 123.464 117.12C113.009 103.399 112.644 92.7006 122.628 78.3588C128.896 69.3535 137.12 62.579 148.001 60.149C151.61 59.3428 156.124 59.6508 159.457 61.1519C166.336 64.2495 167.326 73.195 161.662 78.1953C158.321 81.1451 154.301 83.311 150.713 85.9991C140.237 93.8478 139.401 101.171 147.687 111.277C150.007 114.106 152.287 116.968 154.559 119.836C160.527 127.367 163.815 135.58 160.853 145.715Z" fill="#FF8FBB"/>
<path d="M265.176 275.124C262.86 283.503 261.373 291.778 258.035 299.222C254.069 308.067 246.422 313.806 236.485 313.931C226.638 314.054 218.81 308.837 214.26 300.149C204.196 280.93 204.613 261.506 216.448 243.349C227.856 225.845 250.025 227.636 259.7 246.115C264.399 255.091 265.689 264.692 265.176 275.124ZM245.221 272.874C244.41 268.171 244.06 263.318 242.599 258.825C241.829 256.455 239.122 254.713 237.29 252.687C235.245 254.659 232.239 256.265 231.322 258.668C227.4 268.945 227.274 279.405 232.278 289.449C233.207 291.314 235.625 293.856 237.082 293.689C239.025 293.467 241.715 291.206 242.293 289.283C243.792 284.286 244.313 278.996 245.221 272.874Z" fill="#6ACEFA"/>
<path d="M413.309 160.477C412.323 164.927 411.978 169.215 410.275 172.869C407.201 179.464 399.681 179.575 395.624 173.582C390.659 166.249 390.979 157.741 390.42 149.541C389.687 138.765 389.149 127.924 389.523 117.145C389.748 110.669 391.401 104.116 393.315 97.874C394.473 94.0988 398.202 91.1375 402.326 92.5263C405.417 93.5673 408.17 96.4528 410.33 99.1194C411.775 100.902 411.915 103.741 412.772 106.545C416.729 100.64 421.98 96.5086 429.046 94.9203C435.882 93.3833 441.967 94.9579 447.277 99.2591C452.169 103.221 453.638 109.842 451.065 114.505C448.414 119.309 442.896 120.752 436.085 118.423C427.584 115.516 422.88 116.748 418.629 124.572C416.258 128.936 414.981 134.155 414.338 139.134C413.448 146.027 413.62 153.058 413.309 160.477Z" fill="#FF90BB"/>
<path d="M305.187 321.68C306.068 313.005 316.359 309.093 321.856 313.148C325.992 316.2 327.941 322.267 324.635 325.732C322.77 327.687 319.085 329.273 316.532 328.899C312.29 328.277 310.698 324.446 310.628 320.078C308.273 322.959 309.16 325.805 310.83 328.587C313.068 332.314 316.626 333.582 320.658 332.919C327.462 331.799 331.767 326.318 332.181 319.202C332.257 317.897 333.333 316.651 333.947 315.378C334.673 316.693 335.937 317.969 336.036 319.33C336.629 327.504 330.137 335.247 321.451 337.053C315.109 338.371 308.571 334.607 306.071 327.932C305.394 326.126 305.45 324.045 305.187 321.68ZM320.678 317.525C319.869 317.099 319.061 316.673 318.58 316.419C317.833 318.048 317.111 319.298 316.688 320.641C316.309 321.843 316.259 323.149 316.064 324.409C317.691 324.29 320.422 324.652 320.725 323.957C321.455 322.279 321.051 320.107 320.678 317.525Z" fill="#FF94BE"/>
<path d="M80.1581 175.289C82.2891 170.172 81.6134 167.246 77.8135 165.136C73.2023 162.575 67.2776 163.773 64.4657 167.834C60.564 173.469 61.8398 181.135 67.2429 185.829C68.3803 186.817 68.9157 188.498 69.7285 189.859C68.0582 189.584 66.0844 189.787 64.7685 188.953C57.9144 184.607 56.2137 173.327 61.0419 165.653C64.8915 159.535 73.2778 157.612 79.4903 161.424C84.5069 164.502 87.0138 169.888 85.5399 174.422C83.7296 179.99 79.569 182.931 74.3517 182.329C69.6871 181.791 66.0597 177.738 66.7422 173.507C67.3711 169.609 69.1401 166.476 73.694 166.353C77.9303 166.24 79.9069 168.812 79.9645 175.012C79.5464 175.772 79.3644 176.048 78.7923 176.299C77.6388 175.109 76.9689 173.866 76.0826 172.803C75.3471 171.922 74.3567 171.253 73.4792 170.49C72.69 171.409 71.1697 172.416 71.2673 173.229C71.4576 174.815 72.3522 177.401 73.3168 177.576C75.1365 177.905 77.2122 176.82 79.4326 176.253C79.8419 175.885 80 175.587 80.1581 175.289Z" fill="#FF95BE"/>
<path d="M230.543 56.1353C227.846 48.5778 224.28 42.1398 217.674 37.778C216.97 37.3136 216.899 35.8911 216.535 34.9131C217.682 34.7272 219.307 33.9652 219.894 34.4528C222.808 36.8742 225.866 39.3147 228.107 42.3195C234.128 50.3904 236.431 59.9576 237.939 69.7085C238.095 70.7175 237.038 71.9142 236.544 73.0238C235.711 72.1934 234.402 71.4964 234.125 70.51C232.829 65.8825 231.817 61.1754 230.543 56.1353Z" fill="#75CEF4"/>
<path d="M323.253 39.1808C323.368 34.669 323.35 30.5715 323.499 26.48C323.547 25.1562 324.03 23.8481 324.314 22.5328C325.407 23.5213 327.401 24.4757 327.44 25.5039C327.631 30.5848 328.269 35.9572 326.927 40.7125C325.103 47.1742 321.733 53.2214 318.761 59.317C318.22 60.4267 316.408 60.917 315.183 61.6933C315.229 60.2199 314.864 58.5765 315.391 57.3021C317.855 51.3448 320.564 45.4892 323.253 39.1808Z" fill="#75CEF4"/>
<path d="M258.232 42.4784C259.302 38.2233 260.149 34.3302 261.448 30.5942C261.879 29.3551 263.472 28.52 264.533 27.5001C264.829 28.9155 265.588 30.4161 265.345 31.7322C263.851 39.8395 262.058 47.8913 260.54 55.9946C260.182 57.9061 260.717 59.9756 260.436 61.9137C260.22 63.4017 259.368 64.7973 258.799 66.234C257.959 64.8538 256.342 63.4323 256.412 62.1005C256.754 55.6876 257.55 49.2989 258.232 42.4784Z" fill="#77CFF4"/>
<path d="M342.514 58.6412C348.113 54.4487 353.397 50.4156 358.859 46.6393C359.755 46.0196 361.433 46.5295 362.749 46.5173C362.175 47.6846 361.914 49.3198 360.978 49.9463C352.524 55.6041 344.188 61.3428 338.078 69.7301C337.599 70.3869 336.16 70.3435 335.167 70.6255C335.124 69.4598 334.581 67.9168 335.127 67.1948C337.321 64.2874 339.852 61.6337 342.514 58.6412Z" fill="#77CEF4"/>
<path d="M241.66 30.4792C247.241 40.9293 248.891 51.9913 249.105 63.3321C249.123 64.2661 247.901 65.2235 247.255 66.1701C246.565 65.1998 245.473 64.3143 245.248 63.2461C243.209 53.5711 241.236 43.8793 239.503 34.1463C239.3 33.0061 240.663 31.5872 241.66 30.4792Z" fill="#75CEF4"/>
<path d="M332.873 51.962C335.642 46.463 338.139 41.2305 340.857 36.1154C341.447 35.0055 342.829 34.3165 343.846 33.4336C344.064 34.852 344.935 36.6176 344.395 37.634C340.058 45.8042 335.535 53.8807 330.828 61.8436C330.252 62.8174 328.253 62.9497 326.914 63.472C327.21 62.0414 327.179 60.4237 327.87 59.2195C329.266 56.7844 331.054 54.5738 332.873 51.962Z" fill="#76CEF4"/>
<path d="M290.613 122.443C290.334 129.534 290.283 136.31 289.279 142.942C288.655 147.064 285.812 150.174 281.062 150.245C275.724 150.326 270.384 147.088 269.491 142.461C268.558 137.628 268.14 132.569 268.421 127.662C268.721 122.436 274.534 117.449 280.398 116.476C285.161 115.685 288.381 117.886 290.613 122.443Z" fill="#FFFDFE"/>
<path d="M348.6 109.706C353.181 105.703 356.859 105.344 359.104 108.406C361.408 111.547 360.113 116.577 355.74 118.931C352.082 120.9 347.959 122.003 344.041 123.489C343.573 123.04 343.105 122.591 342.636 122.142C344.549 118.095 346.462 114.049 348.6 109.706Z" fill="#FFFBFD"/>
<path d="M245.223 273.349C244.313 278.996 243.792 284.287 242.293 289.283C241.715 291.206 239.025 293.467 237.082 293.689C235.625 293.856 233.207 291.314 232.278 289.449C227.274 279.405 227.4 268.945 231.322 258.668C232.239 256.265 235.245 254.659 237.29 252.687C239.122 254.713 241.829 256.455 242.599 258.826C244.06 263.318 244.41 268.171 245.223 273.349Z" fill="#FCFEFF"/>
<path d="M320.892 317.83C321.051 320.107 321.456 322.279 320.725 323.957C320.422 324.652 317.691 324.29 316.064 324.409C316.26 323.149 316.31 321.843 316.688 320.641C317.112 319.298 317.833 318.048 318.58 316.419C319.061 316.673 319.87 317.099 320.892 317.83Z" fill="#FFF7FA"/>
<path d="M79.1814 176.323C77.2121 176.82 75.1364 177.905 73.3168 177.576C72.3521 177.401 71.4576 174.815 71.2672 173.229C71.1696 172.416 72.6899 171.409 73.4791 170.49C74.3566 171.253 75.347 171.922 76.0825 172.803C76.9688 173.866 77.6387 175.109 78.7921 176.299C79.182 176.324 79.1814 176.323 79.1814 176.323Z" fill="#FFF9FB"/>
<path d="M79.1821 176.324C79.3643 176.048 79.5464 175.772 79.9722 175.421C80.2159 175.346 80.1785 175.327 80.1682 175.308C79.9999 175.587 79.8418 175.885 79.4325 176.253C79.1814 176.323 79.1821 176.324 79.1821 176.324Z" fill="#FFF9FB"/>
</svg>
