<svg width="351" height="489" viewBox="0 0 351 489" fill="none" xmlns="http://www.w3.org/2000/svg">
<path d="M15.1731 226.308C17.5556 221.703 19.925 217.509 22.4921 212.964C12.8751 202.4 8.11769 188.789 5.09957 174.247C0.453631 151.863 -0.675969 129.211 0.349368 106.524C1.02644 91.5433 3.28764 76.7466 12.6139 63.8597C20.1831 53.4008 29.9664 47.6084 42.5392 46.0447C50.2321 45.0878 57.4865 43.3958 64.5286 39.5181C78.6719 31.7301 93.412 31.8798 107.486 40.0158C112.633 42.9909 117.053 47.2609 121.678 51.0916C129.531 57.5942 140.003 58.2377 148.55 51.9947C153.822 48.1431 158.475 43.4536 163.532 39.2925C171.883 32.4205 181.511 29.7812 192.233 31.037C197.53 31.6574 200.6 28.8181 203.308 24.6079C206.282 19.9839 209.547 15.4207 213.366 11.4933C220.803 3.84645 230.344 0.465177 240.866 0.0886877C249.678 -0.226577 258.285 0.143406 266.767 3.78833C279.74 9.36265 289.731 17.9494 292.826 31.6479C295.123 41.8163 300.986 47.5285 308.765 53.1582C318.935 60.518 324.156 71.2333 325.096 83.7421C325.675 91.4278 325.327 99.1079 322.478 106.495C322.045 107.617 322.683 109.293 323.148 110.598C326.15 119.034 328.624 127.5 328.219 136.658C327.558 151.646 322.749 165.032 313.746 176.984C312.021 179.275 310.513 181.729 309.288 183.541C315.258 184.491 321.334 184.715 326.906 186.507C337.001 189.752 341.759 198.299 343.968 207.835C348.22 226.181 350.621 244.831 350.147 263.734C349.618 284.827 341.184 301.795 321.936 311.293C315.232 314.601 312.38 316.786 313.817 324.685C314.807 330.131 312.3 336.153 311.798 341.955C311.543 344.894 311.527 348.249 312.685 350.843C316.574 359.552 316.704 368.355 315.419 377.602C313.546 391.085 311.673 404.31 316.26 418.132C319.905 429.118 316.808 440.865 310.674 450.884C300.71 467.157 285.345 474.95 266.682 474.844C249.131 474.745 235.226 466.678 226.257 451.253C223.592 446.67 217.434 443.799 212.225 445.871C206.444 448.17 200.175 449.209 194.226 451.128C191.047 452.153 188.5 453.851 186.94 457.467C180.085 473.352 168.075 483.656 151.176 487.444C137.482 490.513 124.719 487.21 113.114 479.473C106.465 475.04 101.675 468.944 97.6017 462.125C96.2618 459.881 94.1953 457.334 91.8965 456.519C75.6376 450.762 67.2887 438.067 62.6543 422.701C59.8745 413.484 58.8249 403.731 57.2147 394.182C56.5633 390.319 57.1656 386.131 55.949 382.51C54.8957 379.376 52.5965 376.143 49.947 374.153C39.7782 366.517 31.8095 357.709 29.0142 344.729C26.277 332.017 29.832 321.107 36.8716 310.84C37.2416 310.3 37.6987 309.821 38.0834 309.29C38.1611 309.183 38.0947 308.972 38.0947 308.579C36.1059 307.869 34.0424 307.16 31.9985 306.397C21.7977 302.593 17.4082 294.124 16.3479 284.341C14.6672 268.832 14.001 253.203 13.2854 237.607C13.1205 234.014 14.4943 230.35 15.1731 226.308ZM150.182 440.02C146.675 438.192 142.679 438.088 140.87 441.494C139.486 444.1 139.361 448.418 140.585 451.105C142.137 454.513 146.088 455.631 150.103 454.535C155.018 453.194 158.528 448.262 158.09 443.27C157.596 437.651 152.281 432.509 146.44 431.999C138.325 431.29 132.423 435.967 130.523 444.612C128.959 451.723 133.286 460.377 139.683 462.769C140.33 463.011 141.188 462.688 143.095 462.537C141.507 460.533 140.357 459.312 139.476 457.921C137.729 455.166 135.588 452.493 134.601 449.464C133.171 445.075 136.276 439.018 140.153 437.157C144.634 435.007 148.491 435.85 151.22 439.962C151.22 439.962 150.919 440.268 150.182 440.02ZM136.282 320.098C134.344 314.46 131.411 312.176 124.602 312.129C107.225 312.009 91.2211 317.308 76.0032 325.247C73.8485 326.371 71.9109 328.166 70.2928 330.017C65.0933 335.965 66.316 341.155 73.9367 342.991C79.2724 344.277 85.0092 343.897 91.1378 344.299C91.3118 345.052 91.8821 346.619 92.0105 348.221C92.7808 357.833 93.1148 367.493 94.238 377.061C95.6107 388.753 97.3841 400.413 99.4463 412.004C100.493 417.889 104.816 421.18 109.333 420.736C113.954 420.282 117.69 416.337 118.061 410.683C118.388 405.715 118.263 400.688 117.944 395.713C116.839 378.475 115.642 361.241 114.289 344.021C113.983 340.132 115.592 338.363 119.037 337.133C126.046 334.63 132.129 330.739 136.098 325.038C134.017 345.764 133.084 366.513 136.218 387.2C137.381 394.878 138.812 402.636 141.299 409.958C143.597 416.723 150.605 417.3 155.006 411.627C156.391 409.841 157.782 407.572 157.955 405.426C158.445 399.349 158.251 393.219 158.433 387.113C158.585 381.995 158.327 376.774 159.285 371.798C160.171 367.197 164.239 365.162 168.728 365.161C172.845 365.16 174.006 368.704 175.033 371.9C175.637 373.781 175.988 375.773 176.207 377.742C176.94 384.343 177.218 391.016 178.353 397.543C179.075 401.697 180.29 406.113 182.564 409.568C186.082 414.914 192.656 413.964 195.128 408.094C196.264 405.397 197.164 402.337 197.122 399.457C196.968 388.823 196.715 378.167 195.816 367.577C195.315 361.687 194.143 355.657 192.078 350.138C187.901 338.973 179.575 335.902 168.857 341.18C165.113 343.023 161.858 345.858 158.296 348.297C157.914 343.636 157.962 338.939 157.062 334.43C155.64 327.308 153.928 320.194 151.592 313.331C150.843 311.129 147.761 308.392 145.694 308.348C143.663 308.304 141.14 311.06 139.614 313.156C138.014 315.355 137.341 318.231 136.282 320.098ZM182.337 200.424C178.513 197.038 175.031 193.128 170.801 190.362C157.49 181.66 135.119 188.867 127.134 196.744C124.745 199.101 122.976 202.811 122.426 206.149C121.434 212.177 121.142 218.405 121.332 224.526C121.707 236.646 122.156 248.798 123.451 260.843C124.313 268.855 126.101 276.895 128.58 284.564C130.573 290.731 134.053 291.743 140.417 290.496C156.365 287.371 168.898 279.028 178.5 266.024C193.152 246.18 194.921 219.569 182.337 200.424ZM106.415 145.99C109.032 152.065 110.927 158.598 114.425 164.114C120.447 173.608 129.316 179.319 141.007 176.874C152.589 174.453 161 167.452 165.341 156.133C166.829 152.254 166.697 148.527 163.353 145.621C159.917 142.635 156.735 144.859 153.801 146.665C150.552 148.666 147.629 151.197 144.375 153.189C137.935 157.132 131.712 155.168 129.56 148.496C140.808 146.402 149.443 140.479 155.119 130.508C164.119 114.695 155.923 96.7904 138.329 94.7554C127.956 93.5556 120.101 99.0943 114.229 107.149C105.925 118.541 104.333 131.52 106.415 145.99ZM212.28 207.513C209.387 210.45 205.897 213 203.702 216.389C192.983 232.939 194.651 260.753 206.933 276.139C218.436 290.547 238.82 289.775 247.493 274.139C258 255.194 257.216 235.834 246.979 217.06C240.617 205.391 226.137 198.873 212.28 207.513ZM44.6272 173.009C45.1319 174.764 45.6123 176.526 46.1454 178.272C48.7222 186.712 49.708 187.726 58.4903 187.006C72.4395 185.863 85.572 181.793 97.2046 173.839C100.13 171.838 102.743 168.954 104.611 165.928C107.992 160.451 105.644 154.654 99.2392 154.055C93.4962 153.518 87.4626 154.641 81.731 155.853C76.482 156.963 71.4653 159.171 66.0906 160.982C65.7555 159.583 65.3877 158.655 65.3281 157.707C64.5678 145.603 64.2758 133.451 62.9952 121.404C61.8969 111.071 60.0092 100.786 57.7914 90.6278C56.9448 86.7501 53.8888 83.262 49.2587 83.4203C44.2683 83.591 42.1043 87.6446 41.3066 91.7925C39.9328 98.9361 38.5356 106.205 38.434 113.439C38.1559 133.226 39.1632 152.96 44.6272 173.009ZM159.116 110.429C161.817 118.758 169.059 116.008 175.256 116.937C175.256 120.833 174.928 124.838 175.318 128.771C176.395 139.625 177.166 150.567 179.233 161.246C180.706 168.851 186.036 174.384 194.039 175.759C201.662 177.068 209.32 176.524 216.435 172.918C222.114 170.04 224.241 165.293 222.111 159.762C220.039 154.379 215.675 155.113 211.217 155.933C203.131 157.42 199.192 155.318 198.332 147.147C197.331 137.634 197.962 127.955 197.754 118.351C197.681 114.98 198.831 113.444 202.375 112.703C205.689 112.011 209.267 110.542 211.702 108.3C213.859 106.313 216.176 102.344 215.529 100.076C214.889 97.834 210.81 95.9111 207.9 95.1574C204.671 94.321 201.059 94.966 197.303 94.966C197.303 91.5436 197.488 88.5761 197.253 85.6424C197.003 82.5231 197.068 79.0572 195.68 76.4411C194.292 73.8256 191.365 70.4963 188.95 70.3587C186.172 70.2005 181.64 72.5565 180.654 74.9617C178.397 80.4686 177.194 86.631 176.831 92.6043C176.626 95.9822 176.476 97.2775 172.932 98.3916C167.053 100.24 160.526 102.002 159.116 110.429ZM244.19 385.584C243.132 386.069 242.049 386.507 241.02 387.048C235.955 389.706 233.93 393.731 235.294 398.981C236.641 404.167 240.684 405.15 245.382 405.154C259.475 405.168 273.11 394.626 277.051 380.555C279.858 370.532 277.603 364.176 269.108 358.06C267.354 356.798 265.579 355.546 263.958 354.124C258.864 349.656 258.625 344.644 263.548 339.978C265.939 337.711 268.82 335.952 271.525 334.028C274.919 331.614 276.617 328.03 274.885 324.511C273.626 321.951 270.556 319.617 267.783 318.66C265.208 317.772 261.864 318.444 259.021 319.118C248.296 321.661 241.105 328.41 237.587 338.758C234.149 348.87 238.306 356.839 245.401 363.863C247.752 366.191 249.943 368.761 251.783 371.506C254.924 376.193 253.772 380.41 248.88 383.266C247.591 384.018 246.195 384.586 244.19 385.584ZM259.471 167.118C273.963 165.278 283.472 157.143 288.281 143.62C292.013 133.123 289.526 126.358 280.469 119.923C278.712 118.675 276.974 117.358 275.424 115.868C270.377 111.021 270.657 105.327 276.163 101.019C278.649 99.0745 281.781 97.7506 283.748 95.412C285.492 93.3389 287.259 89.9891 286.768 87.6807C286.229 85.1438 283.505 82.091 281.033 81.1962C278.017 80.1041 274.153 80.4663 270.861 81.1666C251.757 85.231 238.675 110.007 256.713 125.432C259.084 127.46 261.032 130.07 262.847 132.642C266.948 138.453 265.785 142.77 259.438 145.986C256.918 147.264 254.108 148.109 251.858 149.741C249.972 151.109 247.916 153.106 247.309 155.219C244.967 163.368 248.692 167.121 259.471 167.118ZM209.933 332.408C208.988 335.01 207.382 337.571 207.218 340.222C206.612 350.006 205.553 359.904 206.43 369.6C207.365 379.943 209.896 390.215 212.63 400.273C213.35 402.923 217.265 406.136 219.951 406.372C222.147 406.565 225.773 403.156 226.853 400.551C228.719 396.049 229.997 390.921 229.931 386.077C229.776 374.618 229.085 363.128 227.813 351.739C227.141 345.724 225.372 339.66 223.064 334.042C220.182 327.029 216.324 326.637 209.933 332.408ZM237.135 74.2421C233.972 67.557 227.112 65.0775 220.543 68.2448C214.569 71.1251 212.962 78.3585 217.913 82.6226C220.034 84.4495 223.671 84.517 227.126 85.5331C226.689 86.6598 225.56 88.4204 225.403 90.2639C225.202 92.6179 225.785 95.0389 226.031 97.431C228.059 96.2842 230.725 95.6124 231.998 93.9031C236.099 88.3977 237.635 81.9535 237.135 74.2421ZM243.014 48.6591C236.707 43.9599 235.063 36.3887 239.026 30.2902C241.588 26.3473 246.625 24.9839 251.397 26.9296C255.17 28.468 256.484 31.2265 256.186 34.3216C254.081 32.5296 252.246 29.8932 249.83 29.1526C245.745 27.9004 242.567 30.4564 241.446 34.3086C240.235 38.4705 242.264 41.8829 246.066 43.7895C250.247 45.8863 254.289 44.8683 257.507 41.7371C260.966 38.3721 261.222 31.8098 258.47 27.8676C254.805 22.6169 249.227 20.6631 243.177 22.5111C236.938 24.417 233.169 29.7728 233.064 36.8837C232.958 44.0418 236.66 51.0885 241.472 52.5309C242.374 52.8011 243.526 52.2341 244.563 52.0534C244.238 51.0701 243.913 50.0868 243.014 48.6591ZM307.64 242.807C314.801 239.79 322.024 239.444 329.474 241.856C331.017 242.356 332.951 241.65 334.704 241.5C333.367 240.299 332.053 239.069 330.676 237.914C330.315 237.611 329.773 237.499 329.295 237.363C316.141 233.61 298.49 239.47 290.365 250.41C289.728 251.269 289.892 252.723 289.683 253.9C290.93 253.637 292.419 253.722 293.381 253.051C297.975 249.848 302.427 246.439 307.64 242.807ZM75.3524 251.252C65.2743 245.368 54.7311 243.133 43.5032 247.544C42.3505 247.997 41.69 249.703 40.8011 250.827C42.1184 251.002 43.4657 251.445 44.7474 251.302C48.9786 250.829 53.2075 249.522 57.3985 249.665C67.3998 250.008 75.3186 254.952 82.0158 262.155C82.7142 262.906 84.2012 262.924 85.3224 263.282C85.2215 261.992 85.6266 260.194 84.9308 259.5C82.1255 256.7 78.9803 254.241 75.3524 251.252ZM295.166 260.45C293.373 261.303 291.46 261.98 289.842 263.089C289.138 263.573 289.04 264.94 288.666 265.906C289.682 266.129 290.697 266.51 291.714 266.514C292.284 266.517 292.834 265.847 293.432 265.565C306.34 259.48 318.926 258.544 330.939 267.81C331.883 268.538 333.217 268.762 334.503 269.273C335.626 259.014 312.32 253.831 295.166 260.45ZM289.798 230.186C286.398 235.025 281.435 239.061 281.982 246.09C283.73 245.26 285.079 244.1 285.894 242.64C292.704 230.445 302.22 222.668 316.957 222.891C318.29 222.911 319.642 221.667 320.985 221.01C319.569 220.316 318.189 219.114 316.73 219.01C306.229 218.259 297.677 222.578 289.798 230.186ZM86.0905 272.545C84.0246 271.488 82.0273 270.26 79.8816 269.403C67.2286 264.354 54.9423 264.552 43.4916 272.61C42.0521 273.623 41.4741 275.86 40.4969 277.53C42.2172 277.027 44.1889 276.902 45.6136 275.955C51.2916 272.179 57.4297 269.294 64.2225 270.227C70.3436 271.069 76.3297 273.158 82.2532 275.074C85.8458 276.236 85.7415 276.559 86.0905 272.545ZM83.1286 242.599C85.4339 246.032 87.6399 249.538 90.106 252.851C90.8314 253.825 92.2935 254.252 93.4179 254.929C93.5163 253.722 94.0848 252.297 93.6411 251.342C88.6354 240.566 76.0619 226.891 58.4964 228.059C57.1012 228.152 55.7719 229.235 54.412 229.859C55.8194 230.584 57.2284 231.936 58.6338 231.932C68.1299 231.907 76.1006 235.233 83.1286 242.599ZM223.082 310.6C222.004 305.852 218.43 305.443 214.604 306.01C210.423 306.63 207.047 308.704 206.122 313.137C205.266 317.241 208.045 320.103 212.368 320.024C217.258 319.935 221.267 316.705 223.082 310.6Z" fill="#FEFFFF"/>
<path d="M182.542 200.721C194.921 219.569 193.152 246.18 178.5 266.024C168.898 279.028 156.365 287.371 140.417 290.496C134.053 291.743 130.573 290.732 128.58 284.564C126.101 276.895 124.313 268.855 123.451 260.843C122.156 248.798 121.707 236.646 121.332 224.526C121.143 218.405 121.434 212.177 122.426 206.149C122.976 202.811 124.745 199.101 127.135 196.744C135.119 188.867 157.49 181.66 170.801 190.362C175.031 193.128 178.513 197.038 182.542 200.721ZM158.145 215.188C149.761 212.54 144.415 214.454 144.492 220.832C144.637 232.922 145.538 245.011 146.378 257.082C146.664 261.189 149.115 261.992 152.59 259.858C161.315 254.502 165.084 246.082 167.326 236.58C169.476 227.469 166.182 220.731 158.145 215.188Z" fill="#FF8FBB"/>
<path d="M136.263 320.811C137.341 318.231 138.014 315.355 139.615 313.156C141.14 311.06 143.663 308.304 145.694 308.348C147.761 308.392 150.843 311.13 151.592 313.331C153.928 320.194 155.64 327.308 157.062 334.43C157.962 338.939 157.914 343.636 158.296 348.297C161.858 345.858 165.113 343.024 168.857 341.18C179.575 335.902 187.901 338.973 192.078 350.138C194.143 355.657 195.315 361.687 195.816 367.577C196.715 378.167 196.968 388.823 197.122 399.457C197.164 402.337 196.264 405.397 195.128 408.094C192.656 413.964 186.082 414.914 182.564 409.568C180.29 406.113 179.076 401.697 178.353 397.543C177.218 391.016 176.94 384.343 176.207 377.742C175.988 375.773 175.637 373.781 175.033 371.9C174.006 368.704 172.845 365.16 168.728 365.161C164.239 365.162 160.171 367.197 159.285 371.798C158.327 376.774 158.585 381.995 158.433 387.113C158.251 393.219 158.445 399.349 157.955 405.426C157.782 407.572 156.391 409.841 155.006 411.627C150.605 417.3 143.597 416.723 141.299 409.958C138.812 402.636 137.381 394.878 136.218 387.2C133.084 366.513 134.017 345.764 136.125 324.188C136.189 322.495 136.226 321.653 136.263 320.811Z" fill="#6ACEFA"/>
<path d="M106.347 145.571C104.333 131.52 105.925 118.541 114.229 107.149C120.101 99.0944 127.956 93.5557 138.329 94.7554C155.923 96.7904 164.119 114.695 155.119 130.508C149.443 140.479 140.808 146.402 129.56 148.496C131.712 155.168 137.935 157.132 144.375 153.189C147.629 151.197 150.552 148.666 153.801 146.666C156.735 144.859 159.917 142.635 163.353 145.621C166.697 148.527 166.829 152.254 165.341 156.133C161 167.453 152.589 174.453 141.007 176.874C129.316 179.319 120.447 173.608 114.425 164.114C110.927 158.598 109.032 152.065 106.347 145.571ZM127.101 129.69C131.274 127.573 135.837 125.965 139.492 123.17C142.204 121.097 142.219 117.242 139.236 114.881C136.472 112.693 133.003 113.472 131.448 116.371C129.32 120.34 128.202 124.85 127.101 129.69Z" fill="#6ACEFA"/>
<path d="M212.597 207.318C226.137 198.873 240.617 205.391 246.979 217.06C257.216 235.834 258 255.194 247.493 274.139C238.82 289.775 218.436 290.547 206.933 276.139C194.651 260.753 192.983 232.939 203.702 216.389C205.897 213 209.387 210.45 212.597 207.318ZM225.027 264.881C229.726 266.888 232.364 265.324 233.885 259.255C236.368 249.353 234.899 239.749 230.644 230.669C229.581 228.402 226.764 226.956 224.753 225.132C222.889 227.272 219.913 229.156 219.351 231.596C216.703 243.083 217.011 254.351 225.027 264.881Z" fill="#FF8FBB"/>
<path d="M44.4959 172.619C39.1632 152.96 38.1558 133.226 38.434 113.439C38.5356 106.205 39.9328 98.9361 41.3066 91.7925C42.1043 87.6446 44.2683 83.591 49.2587 83.4203C53.8887 83.262 56.9448 86.7501 57.7914 90.6278C60.0092 100.786 61.8969 111.071 62.9952 121.404C64.2757 133.451 64.5678 145.603 65.3281 157.707C65.3877 158.655 65.7555 159.583 66.0905 160.982C71.4653 159.171 76.482 156.963 81.731 155.853C87.4626 154.641 93.4961 153.518 99.2391 154.055C105.644 154.654 107.992 160.451 104.611 165.928C102.743 168.954 100.13 171.838 97.2046 173.839C85.572 181.793 72.4395 185.863 58.4903 187.006C49.7079 187.726 48.7222 186.712 46.1454 178.272C45.6123 176.526 45.1318 174.764 44.4959 172.619Z" fill="#6ACEFA"/>
<path d="M136.272 320.454C136.226 321.653 136.189 322.495 136.137 323.759C132.129 330.739 126.046 334.63 119.037 337.133C115.592 338.363 113.983 340.132 114.289 344.021C115.642 361.241 116.839 378.475 117.944 395.713C118.263 400.688 118.388 405.715 118.061 410.683C117.69 416.337 113.954 420.282 109.333 420.736C104.816 421.18 100.493 417.889 99.4463 412.004C97.3841 400.413 95.6107 388.753 94.238 377.061C93.1148 367.493 92.7808 357.833 92.0105 348.221C91.8821 346.619 91.3118 345.052 91.1378 344.299C85.0092 343.897 79.2724 344.277 73.9367 342.991C66.316 341.155 65.0933 335.965 70.2928 330.017C71.9109 328.166 73.8485 326.371 76.0032 325.247C91.2211 317.308 107.225 312.009 124.602 312.129C131.411 312.176 134.344 314.46 136.272 320.454Z" fill="#6ACEFA"/>
<path d="M159.115 110.033C160.526 102.002 167.053 100.24 172.932 98.3916C176.476 97.2775 176.626 95.9822 176.831 92.6044C177.194 86.631 178.397 80.4686 180.654 74.9617C181.64 72.5565 186.172 70.2005 188.95 70.3587C191.366 70.4963 194.292 73.8256 195.68 76.4411C197.068 79.0572 197.003 82.5232 197.253 85.6424C197.488 88.5762 197.303 91.5436 197.303 94.9661C201.059 94.9661 204.671 94.321 207.9 95.1574C210.81 95.9111 214.889 97.834 215.529 100.076C216.176 102.344 213.859 106.313 211.702 108.3C209.267 110.542 205.689 112.011 202.375 112.703C198.831 113.444 197.681 114.98 197.754 118.351C197.962 127.955 197.331 137.634 198.332 147.147C199.192 155.318 203.131 157.42 211.217 155.933C215.675 155.113 220.039 154.379 222.111 159.762C224.241 165.293 222.114 170.04 216.435 172.918C209.32 176.524 201.662 177.069 194.039 175.759C186.036 174.384 180.706 168.851 179.234 161.246C177.166 150.567 176.395 139.625 175.319 128.771C174.928 124.838 175.256 120.833 175.256 116.937C169.059 116.008 161.817 118.758 159.115 110.033Z" fill="#6ACEFA"/>
<path d="M244.519 385.411C246.195 384.586 247.591 384.018 248.88 383.266C253.772 380.41 254.924 376.193 251.783 371.506C249.944 368.761 247.752 366.191 245.401 363.863C238.306 356.839 234.149 348.87 237.587 338.758C241.105 328.41 248.296 321.661 259.021 319.118C261.864 318.444 265.208 317.772 267.784 318.66C270.556 319.617 273.626 321.951 274.885 324.511C276.617 328.03 274.919 331.614 271.525 334.028C268.82 335.952 265.939 337.711 263.548 339.978C258.626 344.644 258.864 349.656 263.958 354.124C265.579 355.546 267.354 356.798 269.108 358.06C277.603 364.176 279.858 370.532 277.051 380.555C273.11 394.626 259.475 405.168 245.382 405.154C240.685 405.15 236.641 404.167 235.294 398.981C233.93 393.731 235.955 389.706 241.02 387.048C242.049 386.507 243.132 386.069 244.519 385.411Z" fill="#6ACEFA"/>
<path d="M259.027 167.136C248.692 167.121 244.967 163.368 247.309 155.219C247.916 153.106 249.972 151.109 251.858 149.741C254.108 148.109 256.918 147.264 259.438 145.986C265.785 142.77 266.948 138.454 262.847 132.642C261.032 130.07 259.084 127.46 256.713 125.432C238.675 110.007 251.757 85.231 270.861 81.1666C274.153 80.4663 278.017 80.1041 281.033 81.1962C283.505 82.091 286.229 85.1438 286.768 87.6807C287.259 89.9891 285.492 93.3389 283.748 95.412C281.781 97.7507 278.649 99.0745 276.163 101.019C270.657 105.327 270.377 111.021 275.424 115.868C276.974 117.358 278.712 118.675 280.469 119.923C289.526 126.358 292.013 133.123 288.281 143.62C283.472 157.143 273.963 165.278 259.027 167.136Z" fill="#6ACEFA"/>
<path d="M210.138 332.095C216.324 326.637 220.182 327.029 223.064 334.042C225.372 339.66 227.141 345.724 227.813 351.739C229.085 363.128 229.776 374.618 229.931 386.077C229.997 390.921 228.719 396.049 226.853 400.551C225.773 403.156 222.147 406.565 219.951 406.372C217.265 406.136 213.35 402.923 212.63 400.273C209.896 390.215 207.365 379.943 206.43 369.6C205.553 359.904 206.612 350.006 207.218 340.222C207.382 337.571 208.988 335.01 210.138 332.095Z" fill="#6ACEFA"/>
<path d="M237.19 74.6613C237.636 81.9535 236.099 88.3977 231.998 93.9032C230.725 95.6124 228.059 96.2843 226.031 97.431C225.785 95.0389 225.202 92.6179 225.403 90.2639C225.56 88.4204 226.689 86.6598 227.126 85.5331C223.671 84.5171 220.034 84.4495 217.913 82.6226C212.962 78.3585 214.569 71.1251 220.543 68.2448C227.112 65.0776 233.972 67.557 237.19 74.6613Z" fill="#6CCEFA"/>
<path d="M243.301 48.8813C243.913 50.0868 244.238 51.0702 244.563 52.0535C243.526 52.2341 242.374 52.8012 241.472 52.5309C236.66 51.0886 232.958 44.0418 233.064 36.8838C233.169 29.7729 236.938 24.417 243.177 22.5111C249.227 20.6631 254.805 22.6169 258.47 27.8676C261.222 31.8099 260.966 38.3721 257.507 41.7372C254.289 44.8683 250.247 45.8863 246.066 43.7895C242.264 41.883 240.235 38.4706 241.446 34.3087C242.567 30.4564 245.745 27.9004 249.83 29.1527C252.246 29.8932 254.081 32.5297 256.186 34.3217C256.484 31.2266 255.17 28.468 251.397 26.9296C246.625 24.9839 241.588 26.3474 239.026 30.2902C235.063 36.3888 236.707 43.96 243.301 48.8813ZM253.368 38.0807C252.56 37.0988 251.893 35.9302 250.907 35.1839C249.776 34.3275 248.361 33.8454 247.069 33.2007C246.537 34.6082 245.166 36.5499 245.651 37.3102C246.613 38.8216 248.487 40.2865 250.198 40.5983C251.324 40.8035 252.824 38.9598 254.547 37.9958C254.553 37.8025 254.56 37.6093 254.566 37.416C254.433 37.6254 254.3 37.8349 253.368 38.0807Z" fill="#FF94BE"/>
<path d="M307.285 242.955C302.427 246.439 297.975 249.848 293.381 253.051C292.419 253.722 290.93 253.637 289.684 253.9C289.892 252.723 289.728 251.269 290.365 250.41C298.49 239.47 316.141 233.61 329.296 237.362C329.773 237.499 330.315 237.611 330.676 237.914C332.053 239.069 333.367 240.299 334.705 241.5C332.951 241.65 331.017 242.356 329.474 241.856C322.024 239.444 314.801 239.79 307.285 242.955Z" fill="#AE94F8"/>
<path d="M75.6566 251.454C78.9804 254.241 82.1256 256.7 84.931 259.5C85.6268 260.194 85.2216 261.992 85.3225 263.282C84.2014 262.924 82.7144 262.906 82.016 262.155C75.3188 254.952 67.4 250.008 57.3987 249.665C53.2076 249.522 48.9788 250.829 44.7476 251.302C43.4659 251.445 42.1185 251.002 40.8013 250.827C41.6902 249.703 42.3507 247.997 43.5034 247.544C54.7312 243.133 65.2745 245.368 75.6566 251.454Z" fill="#AE94F8"/>
<path d="M295.523 260.292C312.32 253.831 335.626 259.014 334.503 269.273C333.217 268.762 331.883 268.538 330.939 267.81C318.926 258.544 306.34 259.48 293.432 265.565C292.834 265.847 292.284 266.517 291.714 266.514C290.697 266.51 289.682 266.129 288.667 265.906C289.04 264.94 289.138 263.573 289.843 263.089C291.46 261.98 293.373 261.303 295.523 260.292Z" fill="#AC92F7"/>
<path d="M290.039 229.923C297.677 222.578 306.229 218.259 316.73 219.01C318.189 219.114 319.569 220.316 320.985 221.01C319.642 221.667 318.29 222.911 316.957 222.891C302.22 222.668 292.704 230.445 285.894 242.64C285.079 244.1 283.73 245.26 281.982 246.09C281.435 239.061 286.398 235.025 290.039 229.923Z" fill="#AC92F7"/>
<path d="M86.344 272.812C85.7416 276.559 85.8459 276.236 82.2533 275.074C76.3299 273.158 70.3438 271.069 64.2227 270.228C57.4299 269.294 51.2917 272.179 45.6137 275.955C44.189 276.902 42.2174 277.027 40.4971 277.53C41.4742 275.86 42.0523 273.623 43.4917 272.61C54.9425 264.552 67.2288 264.354 79.8817 269.403C82.0275 270.26 84.0248 271.488 86.344 272.812Z" fill="#AC92F7"/>
<path d="M82.8804 242.344C76.1007 235.233 68.13 231.907 58.6339 231.932C57.2285 231.936 55.8195 230.584 54.4121 229.859C55.772 229.235 57.1013 228.152 58.4965 228.059C76.062 226.891 88.6355 240.566 93.6413 251.342C94.0849 252.297 93.5164 253.722 93.4181 254.929C92.2936 254.252 90.8315 253.825 90.1061 252.851C87.64 249.538 85.434 246.032 82.8804 242.344Z" fill="#AB90F7"/>
<path d="M223.09 310.989C221.268 316.705 217.258 319.935 212.368 320.024C208.045 320.103 205.266 317.241 206.122 313.137C207.047 308.704 210.423 306.63 214.604 306.01C218.43 305.443 222.004 305.852 223.09 310.989Z" fill="#6BCEFA"/>
<path d="M158.492 215.363C166.182 220.731 169.476 227.469 167.326 236.58C165.084 246.082 161.315 254.502 152.59 259.858C149.115 261.992 146.664 261.189 146.378 257.082C145.538 245.011 144.637 232.922 144.492 220.832C144.415 214.454 149.761 212.54 158.492 215.363Z" fill="#FFFDFE"/>
<path d="M126.876 129.409C128.202 124.85 129.32 120.34 131.448 116.371C133.003 113.472 136.473 112.693 139.236 114.881C142.219 117.242 142.205 121.097 139.492 123.17C135.837 125.965 131.275 127.573 126.876 129.409Z" fill="#FAFDFF"/>
<path d="M224.748 264.625C217.011 254.351 216.703 243.083 219.351 231.596C219.913 229.156 222.889 227.272 224.753 225.132C226.764 226.956 229.581 228.402 230.644 230.669C234.899 239.748 236.368 249.353 233.885 259.255C232.364 265.324 229.726 266.888 224.748 264.625Z" fill="#FFFDFE"/>
<path d="M254.157 38.0336C252.824 38.9598 251.324 40.8035 250.198 40.5983C248.487 40.2865 246.613 38.8216 245.651 37.3102C245.166 36.5499 246.537 34.6082 247.069 33.2007C248.361 33.8454 249.776 34.3275 250.907 35.1839C251.893 35.9302 252.56 37.0988 253.766 38.0601C254.163 38.0395 254.157 38.0336 254.157 38.0336Z" fill="#FFF0F6"/>
<path d="M254.165 38.0419C254.3 37.8349 254.433 37.6254 254.567 37.416C254.56 37.6092 254.554 37.8025 254.352 38.0147C254.157 38.0336 254.163 38.0395 254.165 38.0419Z" fill="#FFF0F6"/>
</svg>
