<svg width="512" height="476" viewBox="0 0 512 476" fill="none" xmlns="http://www.w3.org/2000/svg">
<path d="M512 142.482C512 150.503 512 158.524 511.662 166.685C510.885 167.657 510.198 168.445 510.045 169.327C508.909 175.871 507.932 182.444 506.803 188.99C504.571 201.926 502.039 214.816 500.074 227.792C498.39 238.907 497.442 250.131 495.95 261.278C494.44 272.557 492.675 283.803 490.995 295.059C489.603 304.386 488.207 313.712 486.75 323.028C484.867 335.061 482.697 347.055 481.064 359.121C479.444 371.092 478.219 383.121 477.034 395.145C475.574 409.968 474.297 424.809 473.015 439.649C472.267 448.309 472.239 457.077 470.833 465.622C469.474 473.884 466.488 476.487 458.229 475.323C444.759 473.424 431.458 470.363 418.038 468.077C404.107 465.703 390.139 463.521 376.148 461.535C367.093 460.249 357.973 459.421 348.873 458.466C335.859 457.101 322.855 455.562 309.811 454.564C300.087 453.82 290.303 453.875 280.55 453.45C276.952 453.293 273.361 452.853 269.782 452.418C259.265 451.14 248.789 449.326 238.237 448.602C224.983 447.694 220.138 441.591 222.652 428.924C224.107 421.591 224.163 413.981 225.037 406.152C225.985 401.938 226.906 398.091 227.476 394.193C229.705 378.97 231.823 363.731 234.038 348.149C235.866 344.804 237.65 341.814 239.41 338.811C247.214 325.49 255.298 312.323 262.706 298.786C267.356 290.289 266.025 283.823 259.066 277.192C255.012 273.33 250.371 270.085 246.045 266.153C247.068 259.675 248.062 253.611 249.008 247.54C253.278 220.137 257.526 192.73 261.8 165.328C264.561 147.624 267.354 129.924 270.368 111.994C274.647 109.982 278.544 107.542 282.776 106.591C287.386 105.555 292.306 105.9 297.371 105.883C298.751 106.495 299.826 107.08 300.954 107.209C316.569 109.004 332.187 110.774 347.815 112.446C350.22 112.704 352.68 112.439 355.529 112.457C358.842 112.837 361.747 113.135 364.639 113.522C376.879 115.16 389.103 116.922 401.356 118.452C413.151 119.925 424.99 121.047 436.781 122.543C451.46 124.405 466.116 126.447 480.77 128.498C489.446 129.713 497.884 131.727 505.111 137.074C507.457 138.81 509.706 140.676 512 142.482ZM439.729 175.919C442.138 176.501 444.548 177.083 447.575 178.118C456.383 179.572 465.181 181.089 474.003 182.454C478.493 183.149 480.184 179.815 480.242 176.48C480.276 174.518 478.236 171.19 476.537 170.747C467.123 168.295 457.527 166.539 447.433 164.014C444.179 163.464 440.862 163.147 437.686 162.303C433.752 161.257 430.939 162.866 429.441 166.041C428.622 167.775 428.613 170.968 429.705 172.302C431.916 175 434.887 177.604 439.729 175.919ZM458.955 232.524C457.323 232.385 455.691 232.246 453.52 231.591C443.493 230.943 433.454 229.841 423.447 230.07C421.658 230.111 419.181 235.517 418.617 238.726C418.334 240.338 421.271 243.462 423.396 244.335C426.675 245.682 430.49 245.868 434.109 246.214C439.767 246.756 445.451 247.02 451.753 247.625C453.483 247.67 455.212 247.715 457.298 248.435C460.013 248.791 462.719 249.255 465.445 249.478C470.007 249.851 473.233 248.248 473.967 243.267C474.845 237.313 473.832 235.595 467.866 233.961C465.179 233.226 462.358 232.983 458.955 232.524ZM467.395 191.34C466.251 191.021 465.106 190.702 463.367 189.926C452.77 188.117 442.182 186.257 431.574 184.52C426.906 183.756 424.756 186.485 424.277 190.652C423.809 194.723 426.296 196.746 429.981 197.488C435.988 198.696 442.01 199.824 448.028 200.975C455.836 202.468 463.63 204.037 471.46 205.402C475.87 206.171 478.244 203.753 479.445 199.719C480.601 195.833 477.773 194.68 475.202 193.588C472.941 192.628 470.475 192.148 467.395 191.34ZM438.451 209.846C435.898 209.202 433.365 208.456 430.787 207.937C425.93 206.958 422.975 208.732 422.129 212.973C421.103 218.112 423.301 221.484 428.421 222.313C441.2 224.381 453.988 226.393 466.782 228.369C471.393 229.081 474.703 226.841 475.814 222.534C477.078 217.637 473.941 215.632 470.16 214.819C462.374 213.144 454.492 211.902 446.629 210.608C445.808 210.473 444.848 211.185 443.27 211.224C441.82 210.951 440.37 210.678 438.451 209.846ZM320.528 190.46C311.561 200.063 302.597 209.67 293.626 219.27C288.514 224.739 283.487 230.295 278.186 235.575C277.153 236.603 275.031 236.537 273.411 236.975C273.011 235.471 272.124 233.906 272.301 232.472C272.848 228.033 273.784 223.642 274.596 219.237C278.086 200.297 281.638 181.368 285.054 162.415C286.391 155.001 287.431 147.535 288.646 139.844C291.069 142.397 293.183 144.624 295.297 146.852C295.841 146.495 296.385 146.138 296.93 145.78C295.987 139.547 294.288 133.545 290.087 128.459C289.623 127.897 288.24 127.729 287.396 127.909C283.097 128.825 277.664 138.485 278.972 143.341C280.842 141.899 282.59 140.553 284.95 138.734C284.139 144.567 283.633 149.644 282.703 154.642C278.151 179.127 273.573 203.609 268.793 228.05C267.707 233.6 267.02 238.657 272.951 242.093C271.606 244.475 270.395 246.619 269.184 248.762C269.636 249.12 270.087 249.478 270.539 249.836C272.311 248.267 273.987 246.566 275.889 245.174C277.257 244.173 279.008 242.791 280.452 242.937C294.64 244.366 308.8 246.071 322.966 247.716C339.438 249.63 355.911 251.533 372.376 253.502C379.978 254.412 387.563 255.467 395.882 256.552C393.305 258.807 391.592 260.305 389.567 262.078C395.127 264.257 404.76 261.944 407.687 258.092C408.254 257.347 408.463 255.899 408.164 254.999C406.656 250.455 396.547 243.629 390.759 243.449C391.961 246.127 393.054 248.564 394.135 250.972C356.348 247.074 318.879 243.209 280.011 239.2C294.78 222.177 307.53 205.52 324.908 191.461C327.321 202.53 324.321 213.006 329.521 223.023C332.397 220.71 334.819 219.023 336.932 217.012C342.964 211.273 348.803 205.332 354.851 199.611C358.321 196.33 361.733 195.881 365.758 199.473C370.387 203.603 372.939 203.033 376.726 197.849C380.253 193.023 383.699 188.123 386.89 183.072C394.264 171.397 401.543 159.658 408.662 147.826C409.986 145.626 410.384 142.869 411.21 140.369C410.564 139.953 409.917 139.537 409.271 139.121C407.873 140.867 406.31 142.508 405.101 144.377C394.613 160.577 384.107 176.767 373.815 193.091C371.715 196.421 370.29 198.212 366.176 195.438C361.165 192.059 356.747 192.799 352.125 196.857C348.128 200.365 344.266 204.029 340.363 207.643C337.297 210.482 334.258 213.351 330.992 216.408C330.992 214.424 331.157 212.584 330.962 210.784C330.284 204.534 329.958 198.189 328.574 192.089C327.481 187.273 325.386 187.004 320.528 190.46ZM407.359 385.558C404.093 384.983 400.833 384.37 397.559 383.838C376.119 380.359 354.702 376.729 333.225 373.492C320.285 371.542 307.276 369.974 294.253 368.677C283.528 367.609 272.731 367.284 261.98 366.452C256.497 366.028 258.171 370.504 257.613 373.026C257.436 373.827 260.115 376.031 261.71 376.307C266.434 377.123 271.287 377.15 276.056 377.748C293.485 379.934 310.916 382.114 328.317 384.509C347.857 387.198 367.37 390.089 386.887 392.945C403.615 395.393 420.329 397.933 437.057 400.384C439.603 400.757 441.852 400.326 441.946 397.032C442.021 394.447 442.729 391.899 438.551 391.26C428.392 389.706 418.317 387.603 407.359 385.558ZM330.969 416.959C345.464 418.996 359.936 421.21 374.458 423.027C393.108 425.36 411.785 427.5 430.478 429.46C437.129 430.157 437.166 429.805 437.367 422.66C436.508 422.36 435.61 421.879 434.661 421.74C413.598 418.643 392.564 415.316 371.453 412.589C348.853 409.669 326.183 407.279 303.535 404.738C288.325 403.032 273.106 401.399 257.869 399.967C256.676 399.855 254.718 401.314 254.162 402.523C253.331 404.331 253.43 406.566 253.19 408.231C279.233 411.122 304.665 413.944 330.969 416.959ZM404.84 410.208C414.052 411.41 423.282 412.486 432.468 413.858C438.914 414.82 439.014 414.899 439.492 407.653C431.731 406.435 423.911 405.167 416.077 403.987C392.625 400.455 369.186 396.832 345.706 393.488C328.472 391.033 311.197 388.844 293.913 386.761C283.046 385.452 272.131 384.546 261.235 383.484C258.243 383.193 256.128 383.739 255.896 387.552C255.66 391.415 258.045 392.015 260.788 392.352C285.642 395.401 310.505 398.374 335.359 401.427C358.237 404.238 381.106 407.12 404.84 410.208ZM358.397 265.551C355.264 264.969 354.103 266.222 353.669 269.447C351.656 284.43 349.319 299.368 347.161 314.331C345.074 328.802 343.15 343.297 340.964 357.753C340.362 361.736 342.356 362.352 345.562 362.985C349.274 363.718 349.668 361.869 350.156 359.035C352.639 344.626 355.39 330.262 357.858 315.851C360.63 299.67 363.199 283.454 365.926 266.826C363.43 266.367 361.343 265.983 358.397 265.551ZM296.186 334.229C295.233 341.423 294.281 348.616 293.338 355.741C301.122 357.906 302.007 359.052 303.404 350.386C306.87 328.884 310.997 307.49 314.729 286.031C316.056 278.404 317.01 270.713 318.158 262.89C316.05 262.438 314.62 262.049 313.165 261.834C307.111 260.938 306.776 261.293 305.928 267.216C302.77 289.269 299.542 311.311 296.186 334.229ZM269.283 300.284C267.42 317.252 265.557 334.221 263.653 351.57C266.826 351.984 269.176 352.291 272.293 352.699C276.455 321.732 280.531 291.396 284.651 260.737C280.606 260.737 277.855 260.737 274.723 260.737C272.945 273.765 271.196 286.586 269.283 300.284ZM332.651 273.344C325.527 270.69 323.663 271.064 323.027 275.388C319.233 301.197 315.571 327.026 311.585 352.805C310.982 356.704 312.287 357.821 315.64 358.402C319.555 359.079 319.532 356.321 319.924 353.894C324.221 327.318 328.498 300.74 332.651 273.344ZM368.173 283.32C364.592 309.772 361.01 336.225 357.38 363.037C360.874 363.685 363.204 364.117 366.338 364.698C370.496 336.115 374.57 308.115 378.805 279.007C374.415 280.768 369.553 275.094 368.173 283.32ZM430.089 279.215C426.271 310.194 422.453 341.173 418.62 372.268C421.044 372.648 422.962 372.949 425.49 373.345C430.347 340.814 435.152 308.627 439.958 276.44C439.685 276.098 439.413 275.756 439.14 275.415C436.439 277.717 431.68 270.669 430.089 279.215ZM444.886 355.765C447.498 339.915 450.11 324.064 452.796 307.761C448.735 307.066 445.219 306.464 441.035 305.748C438.289 327.614 435.675 349.004 432.837 370.364C432.431 373.423 432.665 375.128 436.109 375.47C439.402 375.797 441.515 375.128 442.03 371.315C442.696 366.383 443.808 361.511 444.886 355.765ZM409.564 322.509C407.665 336.32 405.775 350.131 403.865 363.94C402.916 370.798 402.976 370.88 410.9 371.015C414.936 345.484 418.988 319.86 423.072 294.031C420.96 293.629 419.472 293.498 418.086 293.051C414.859 292.01 413.486 293.276 413.09 296.464C412.05 304.864 410.88 313.248 409.564 322.509ZM398.239 358.271C401.039 342.853 403.84 327.436 406.706 311.658C403.218 311.144 400.928 310.88 398.668 310.455C395.595 309.878 394.513 311.433 394.168 314.19C392.152 330.327 390.07 346.456 388.043 362.593C387.662 365.626 387.161 368.235 391.915 368.799C396.383 369.329 397.023 367.456 397.201 364.008C397.286 362.366 397.786 360.746 398.239 358.271ZM376.996 365.982C379.837 366.997 380.676 365.821 381.099 362.995C384.338 341.358 387.727 319.743 391.149 298.134C391.58 295.412 392.695 292.856 388.3 292.456C384.161 292.08 382.078 293.299 381.958 297.763C381.843 302.06 381.262 306.355 380.706 310.628C378.528 327.388 376.21 344.13 374.177 360.907C373.995 362.406 375.496 364.108 376.996 365.982ZM284.934 315.763C283.113 328.331 281.291 340.898 279.421 353.802C282.211 354.168 284.107 354.417 286.389 354.716C290.321 332.223 294.167 310.227 298.096 287.758C294.495 287.758 291.751 287.758 288.66 287.758C287.438 296.831 286.222 305.856 284.934 315.763ZM337.889 335.733C338.992 327.364 340.156 319.002 341.131 310.617C341.271 309.415 340.884 307.433 340.074 306.963C336.217 304.726 332.459 306.95 332.018 311.381C331.495 316.649 330.91 321.912 330.318 327.173C329.245 336.71 327.992 346.233 327.23 355.795C327.117 357.212 328.965 359.54 330.447 360.169C333.357 361.403 333.852 359.016 334.23 356.655C335.301 349.954 336.554 343.282 337.889 335.733ZM249.022 437.496C249.842 437.376 250.86 437.521 251.443 437.085C252.932 435.973 254.227 434.602 255.6 433.334C254.133 432.126 252.772 430.071 251.18 429.873C246.818 429.33 242.337 429.303 237.951 429.659C236.613 429.768 235.431 431.785 234.178 432.928C235.383 434.144 236.416 436.1 237.826 436.427C241.172 437.202 244.696 437.204 249.022 437.496ZM491.213 145.449C492.675 144.589 494.137 143.729 495.599 142.869C494.377 141.449 493.384 139.183 491.889 138.78C488.431 137.848 484.726 137.526 481.129 137.572C479.783 137.589 478.459 139.316 477.125 140.263C478.281 141.449 479.243 143.275 480.631 143.693C483.771 144.64 487.12 144.893 491.213 145.449ZM458.118 440.222C458.184 442.843 457.734 446.526 461.352 446.153C463.075 445.975 464.525 442.364 465.909 440.188C466.29 439.59 466.268 438.426 465.948 437.75C464.963 435.671 463.744 433.702 462.616 431.69C461.383 433.462 460.088 435.196 458.949 437.027C458.527 437.705 458.47 438.61 458.118 440.222ZM455.394 453.441C454.737 453.456 453.788 453.198 453.475 453.534C452.24 454.861 451.204 456.375 450.094 457.82C452.838 458.692 455.549 459.997 458.344 460.217C459.415 460.301 460.769 457.968 461.755 456.568C461.888 456.38 460.75 454.947 459.967 454.545C458.835 453.965 457.49 453.801 455.394 453.441ZM261.419 420.214C258.298 420.548 255.171 420.847 252.071 421.324C251.929 421.346 251.781 423.632 252.062 423.739C254.747 424.758 257.523 425.538 260.278 426.372C260.419 426.415 260.616 426.358 260.761 426.291C263.646 424.965 265.457 423.377 261.419 420.214ZM275.734 434.778C274.061 431.627 268.026 430.042 266.074 432.52C265.475 433.282 266.596 436.632 266.816 436.62C269.692 436.471 272.548 435.931 275.734 434.778ZM497.691 156.252C499.91 155.944 502.14 155.685 504.319 155.198C504.438 155.172 504.364 152.442 503.986 152.333C501.922 151.735 499.734 151.564 497.588 151.247C497.424 152.764 497.259 154.28 497.691 156.252Z" fill="#C8C4F6"/>
<path d="M92.1684 350.56C77.735 310.058 63.4028 269.519 48.8321 229.066C39.3946 202.865 29.6032 176.791 19.9804 150.656C14.2527 135.1 8.56481 119.53 2.78594 103.993C2.35399 102.832 1.33331 101.889 0.293041 101.164C-0.000230804 98.7824 -0.000230849 96.0823 0.381041 92.8803C10.3544 89.0381 19.9464 85.6978 29.7839 82.536C32.9581 84.6146 33.6008 82.106 34.9566 80.3719C35.5111 80.4301 35.7333 80.4483 35.9782 80.9196C35.8784 87.8324 35.3824 94.3134 35.7501 100.745C36.0523 106.032 38.9174 108.044 44.1913 108.696C49.2274 109.319 51.5854 106.841 52.6164 102.351C53.062 100.41 53.7168 98.509 54.0375 96.5508C55.4036 88.211 56.6804 79.8565 58.3623 71.45C68.1535 67.7825 77.5721 64.1724 87.382 60.5736C95.0186 57.8776 102.264 55.1702 109.927 52.4416C114.943 50.6135 119.542 48.8066 124.513 46.9119C137.646 41.1903 150.402 35.5444 163.17 29.9271C171.041 26.4643 178.931 23.0452 187.198 19.5273C202.21 15.2075 216.387 8.69029 232.436 10.8833C239.693 15.9843 243.03 23.439 245.9 31.0008C248.823 38.7023 251.053 46.6672 253.664 54.922C255.309 61.0106 256.875 66.6939 258.515 72.7955C260.364 79.6547 262.14 86.0958 263.928 92.9367C266.004 99.6319 268.069 105.927 270.133 112.223C267.354 129.924 264.561 147.624 261.8 165.328C257.526 192.73 253.278 220.137 249.008 247.54C248.062 253.611 247.068 259.675 245.699 266.088C227.824 256.749 210.376 247.007 192.84 237.427C189.208 235.442 185.346 233.766 181.42 232.457C172.552 229.5 167.241 230.974 161.951 238.715C155.284 248.47 149.117 258.574 142.951 268.66C129.576 290.535 116.34 312.494 102.974 334.064C92.1931 304.882 81.2735 276.131 70.836 247.207C59.6626 216.243 49.0004 185.095 37.9607 154.082C36.4116 149.73 33.9844 145.691 31.9637 141.507C31.3342 141.747 30.7048 141.987 30.0754 142.226C30.3915 144.005 30.4695 145.868 31.064 147.548C34.0027 155.853 37.3041 164.036 40.0671 172.397C53.9392 214.377 67.4463 256.479 81.6007 298.363C86.538 312.973 92.9614 327.081 98.5927 341.726C96.3755 344.876 94.272 347.718 92.1684 350.56ZM155.998 102.959C146.727 106.175 137.364 109.151 128.212 112.674C118.754 116.314 109.328 120.131 100.211 124.538C92.9328 128.056 91.7535 131.059 94.31 138.653C99.2405 153.299 104.363 167.896 109.958 182.299C114.138 193.062 117.832 194.579 128.876 190.883C138.335 187.718 147.546 183.818 156.99 180.604C173.672 174.928 190.52 169.732 207.158 163.93C216.756 160.584 218.281 157.138 215.173 147.565C209.937 131.433 204.515 115.361 199.062 99.301C196.91 92.9641 194.499 91.3265 188.171 93.0552C177.606 95.9417 167.209 99.4438 155.998 102.959ZM190.457 40.9871C194.685 39.1826 199.017 37.5754 203.069 35.4386C204.118 34.8855 205.047 32.3915 204.643 31.3048C204.277 30.3201 201.711 29.2028 200.651 29.5943C196.511 31.1225 192.339 32.8475 188.656 35.2349C185.651 37.1822 185.999 39.6628 190.457 40.9871ZM222.528 22.0564C219.614 18.9927 214.824 19.2953 212.241 22.9609C211.53 23.969 211.139 25.9875 211.684 26.8798C212.255 27.8136 214.591 28.7368 215.352 28.2915C217.942 26.7759 220.178 24.6547 222.528 22.0564ZM21.9906 112.774C20.6718 109.769 19.3531 106.764 18.0343 103.759C17.1928 104.131 15.5975 104.575 15.6254 104.862C15.9329 108.033 15.8856 111.45 17.1422 114.261C18.6082 117.54 20.82 117.299 21.9906 112.774ZM21.97 128.878C23.3986 129.84 24.8272 130.802 26.2558 131.764C26.6681 130.027 27.7875 128.051 27.302 126.618C26.7727 125.056 24.7557 123.998 23.3872 122.721C22.8427 124.536 22.2983 126.352 21.97 128.878ZM209.712 41.7592C211.609 41.5182 213.695 41.6509 215.303 40.8384C215.884 40.5447 215.797 37.6922 215.105 36.568C214.676 35.8719 211.844 35.6264 211.304 36.2423C210.174 37.5318 209.846 39.5246 209.712 41.7592ZM30.8516 112.112C29.665 112.529 28.4783 112.945 27.2917 113.362C27.8811 114.833 28.2538 116.467 29.1732 117.69C29.5124 118.141 31.1402 117.623 32.1802 117.548C31.916 115.903 31.6518 114.259 30.8516 112.112Z" fill="#F9D87A"/>
<path d="M34.9831 324.633C30.5436 323.697 27.7863 319.493 29.3407 314.786C32.8594 313.057 32.351 310.893 31.3729 308.544C28.8831 302.566 26.4355 296.57 24.1062 290.245C24.5147 288.741 24.788 287.571 25.3656 286.582C28.4696 293.525 31.4194 300.229 34.0036 307.072C35.2356 310.335 36.7973 311.337 39.9015 309.514C41.0241 308.854 42.272 308.408 43.8802 307.673C35.491 286.874 27.1742 266.253 18.6824 245.199C15.8412 246.494 13.4936 247.565 10.8059 248.79C11.7125 251.158 12.4803 253.143 13.2343 255.134C16.8173 264.595 20.3964 274.058 23.67 283.403C22.0696 282.352 20.7762 281.416 19.4444 280.12C18.3015 278.185 16.738 276.76 16.171 275.011C13.522 266.841 11.1478 258.583 8.65847 250.299C5.99485 250.972 4.57515 251.331 3.15545 251.689C2.32706 248.736 1.49867 245.783 0.335186 243.156C8.50856e-05 238.127 8.50856e-05 232.772 0.394485 227.039C4.50695 225.512 8.225 224.363 11.9431 223.214C16.6322 229.053 21.3213 234.892 25.8202 241.337C24.4133 242.704 23.1967 243.464 21.7565 244.364C30.1551 265.172 38.4389 285.696 46.9326 306.74C48.7102 305.819 49.9594 305.173 51.2087 304.526C56.9337 306.442 55.8964 311.271 55.5661 316.099C48.4254 319.267 41.7042 321.95 34.9831 324.633Z" fill="#F9D479"/>
<path d="M0 85.9199C1.9423 84.1589 3.76036 82.5823 5.84909 81.5571C13.5645 77.7705 21.3694 74.1661 29.5858 70.8981C29.8669 74.9879 29.7028 78.6727 29.5387 82.3575C19.9467 85.6978 10.3546 89.0381 0.381273 92.4304C9.83477e-07 90.4407 1e-06 88.399 0 85.9199Z" fill="#E8BD55"/>
<path d="M11.8083 222.923C8.22492 224.363 4.50686 225.512 0.394401 226.571C1.01328e-06 224.768 1e-06 223.054 0 220.911C0.111707 220.602 0.305029 220.837 0.323617 220.824C5.90742 216.898 5.90715 216.897 11.8083 222.923Z" fill="#A89CE5"/>
<path d="M235.23 9.52661C252.336 6.51943 269.378 3.05499 286.573 0.701706C294.927 -0.441719 303.602 0.0149036 312.065 0.644236C318.473 1.12069 322.387 5.66444 323.941 11.8095C325.797 19.1488 327.174 26.6099 329.06 33.9405C330.212 38.4149 333.05 41.3332 338.083 41.4964C348.602 41.8375 350.541 42.6751 352.998 53.0505C356.281 66.9178 358.528 81.0396 360.936 95.1008C362.03 101.494 358.684 106.707 355.184 112.072C352.681 112.439 350.22 112.704 347.815 112.446C332.187 110.774 316.569 109.004 300.954 107.209C299.826 107.08 298.751 106.495 297.786 105.832C302.333 104.814 306.764 104.186 311.151 103.335C318.086 101.99 318.271 101.618 316.788 94.563C316.482 93.1041 316.176 91.645 315.87 90.1858C314.601 84.1244 314.005 83.7103 307.956 84.7749C293.275 87.3583 278.596 89.9491 263.916 92.5369C262.141 86.0958 260.365 79.6547 258.944 72.6931C276.402 69.2606 293.504 66.3486 310.899 63.3867C309.901 57.8372 308.945 53.1257 308.243 48.3765C307.847 45.6958 306.388 45.1404 304.067 45.553C287.241 48.5448 270.413 51.5297 253.586 54.5168C251.053 46.6672 248.824 38.7022 245.9 31.0007C243.03 23.439 239.693 15.9843 232.765 10.8506C233.671 10.2284 234.451 9.87749 235.23 9.52661ZM341.585 51.3892C334.017 50.5007 332.502 51.8012 332.931 59.1739C333.133 62.6507 333.633 66.1118 334.044 69.5745C335.062 78.148 335.951 86.7424 337.269 95.2702C337.54 97.0191 339.221 99.6341 340.651 99.9318C346.803 101.213 350.822 97.7693 350.112 91.4809C348.754 79.4447 346.844 67.4678 344.96 55.4982C344.738 54.0902 343.242 52.8828 341.585 51.3892ZM293.096 9.95082C290.672 7.22256 280.287 7.72306 278.82 10.8331C278.453 11.6104 279.298 13.719 280.147 14.1761C283.468 15.9653 289.98 14.0535 293.096 9.95082ZM301.586 9.73991C303.99 9.81797 306.446 10.2063 308.77 9.81377C309.64 9.66693 310.202 7.7007 310.904 6.56402C308.552 5.95745 306.171 4.79448 303.858 4.91601C301.921 5.01775 298.851 5.84517 301.586 9.73991Z" fill="#A69BE8"/>
<path d="M92.0031 350.871C94.2723 347.718 96.3759 344.876 98.8135 341.458C100.447 338.728 101.747 336.574 103.047 334.419C116.34 312.494 129.577 290.535 142.951 268.66C149.117 258.574 155.285 248.47 161.951 238.715C167.242 230.974 172.552 229.5 181.42 232.457C185.346 233.766 189.208 235.442 192.84 237.427C210.376 247.007 227.824 256.749 245.649 266.498C250.371 270.085 255.012 273.33 259.066 277.192C266.025 283.823 267.356 290.289 262.706 298.786C255.299 312.323 247.214 325.49 239.41 338.811C237.65 341.814 235.866 344.804 233.764 348.342C223.951 364.728 214.454 380.564 204.989 396.419C201.003 403.095 197.083 409.81 193.133 416.507C183.32 431.763 173.571 447.061 163.638 462.238C161.767 465.098 159.355 467.68 156.863 470.043C150.52 476.059 147.065 476.995 139.041 472.839C127.541 466.883 116.177 460.523 105.379 453.39C92.1094 444.623 79.257 435.174 66.6712 425.441C60.1644 420.409 57.9391 413.036 61.748 405.302C68.0131 392.581 74.7043 380.063 81.5008 367.614C84.5958 361.945 88.371 356.648 92.0031 350.871ZM254.604 296.138C258.641 287.14 257.002 279.559 248.135 273.752C238.595 267.502 228.364 262.289 218.323 256.826C206.826 250.571 195.311 244.333 183.606 238.484C176.046 234.705 166.782 237.838 163.461 244.764C162.592 245.757 161.557 246.648 160.879 247.757C150.56 264.647 140.083 281.446 130.053 298.507C116.397 321.736 103.047 345.146 89.655 368.529C84.9527 376.74 80.5146 385.102 75.4125 393.846C74.2514 396.59 72.9007 399.272 71.9629 402.09C68.4972 412.508 70.0061 417.488 79.3791 422.979C100.436 435.314 121.646 447.394 142.903 459.384C150.06 463.42 156.207 461.867 161.324 455.353C162.756 453.531 163.928 451.505 165.679 449.084C174.285 434.873 182.983 420.717 191.476 406.439C208.547 377.739 225.632 349.044 242.429 320.183C246.824 312.631 250.182 304.476 254.604 296.138Z" fill="#A79BE7"/>
<path d="M320.782 190.211C325.386 187.004 327.481 187.273 328.574 192.089C329.958 198.189 330.284 204.534 330.962 210.784C331.157 212.584 330.992 214.424 330.992 216.408C334.258 213.351 337.297 210.482 340.363 207.643C344.266 204.029 348.128 200.365 352.125 196.857C356.747 192.799 361.165 192.059 366.176 195.438C370.29 198.212 371.715 196.421 373.815 193.091C384.107 176.767 394.613 160.577 405.101 144.377C406.31 142.508 407.872 140.867 409.271 139.121C409.917 139.537 410.564 139.953 411.21 140.369C410.384 142.869 409.986 145.626 408.662 147.826C401.543 159.658 394.264 171.397 386.89 183.072C383.699 188.123 380.252 193.023 376.726 197.849C372.938 203.033 370.387 203.603 365.758 199.473C361.733 195.881 358.32 196.33 354.851 199.611C348.803 205.332 342.963 211.273 336.932 217.012C334.819 219.023 332.397 220.71 329.521 223.023C324.321 213.006 327.321 202.53 324.908 191.461C307.53 205.52 294.78 222.177 280.011 239.2C318.879 243.209 356.347 247.074 394.135 250.972C393.054 248.564 391.961 246.127 390.759 243.449C396.547 243.629 406.656 250.455 408.164 254.999C408.463 255.899 408.253 257.347 407.687 258.092C404.76 261.944 395.126 264.257 389.567 262.078C391.592 260.305 393.305 258.807 395.882 256.552C387.563 255.467 379.978 254.412 372.376 253.502C355.911 251.533 339.438 249.63 322.966 247.716C308.8 246.071 294.64 244.366 280.452 242.937C279.008 242.791 277.257 244.173 275.889 245.174C273.987 246.566 272.311 248.267 270.539 249.836C270.087 249.478 269.636 249.12 269.184 248.762C270.395 246.619 271.606 244.475 272.951 242.093C267.02 238.657 267.707 233.6 268.793 228.05C273.573 203.609 278.151 179.127 282.703 154.642C283.633 149.644 284.139 144.567 284.95 138.734C282.59 140.553 280.842 141.899 278.972 143.341C277.664 138.485 283.097 128.825 287.396 127.909C288.24 127.729 289.623 127.897 290.087 128.459C294.288 133.545 295.987 139.547 296.929 145.78C296.385 146.138 295.841 146.495 295.297 146.852C293.183 144.624 291.069 142.397 288.646 139.844C287.431 147.535 286.391 155.001 285.054 162.415C281.638 181.368 278.086 200.297 274.596 219.237C273.784 223.642 272.848 228.033 272.301 232.472C272.124 233.906 273.011 235.471 273.411 236.975C275.031 236.537 277.153 236.603 278.186 235.575C283.487 230.295 288.514 224.739 293.625 219.27C302.597 209.67 311.561 200.063 320.782 190.211Z" fill="#A79CE9"/>
<path d="M407.784 385.639C418.317 387.602 428.392 389.706 438.551 391.26C442.729 391.899 442.021 394.447 441.946 397.032C441.852 400.326 439.603 400.757 437.057 400.384C420.33 397.933 403.615 395.393 386.887 392.945C367.37 390.089 347.857 387.198 328.317 384.509C310.916 382.114 293.485 379.934 276.056 377.748C271.287 377.15 266.434 377.123 261.71 376.307C260.116 376.031 257.436 373.827 257.613 373.026C258.171 370.504 256.497 366.028 261.98 366.452C272.731 367.284 283.528 367.609 294.253 368.677C307.276 369.974 320.285 371.542 333.225 373.492C354.702 376.729 376.119 380.359 397.559 383.838C400.833 384.37 404.093 384.983 407.784 385.639Z" fill="#A69BE8"/>
<path d="M330.533 416.863C304.665 413.945 279.233 411.122 253.19 408.231C253.43 406.566 253.331 404.331 254.162 402.523C254.718 401.314 256.676 399.855 257.869 399.967C273.106 401.399 288.325 403.032 303.535 404.738C326.183 407.279 348.853 409.67 371.453 412.589C392.564 415.316 413.598 418.643 434.661 421.74C435.61 421.879 436.508 422.36 437.367 422.66C437.166 429.805 437.129 430.157 430.478 429.46C411.785 427.5 393.108 425.36 374.458 423.027C359.936 421.21 345.464 418.996 330.533 416.863Z" fill="#6CB07D"/>
<path d="M404.41 410.09C381.106 407.12 358.237 404.238 335.359 401.427C310.505 398.374 285.642 395.401 260.788 392.352C258.045 392.015 255.66 391.415 255.896 387.552C256.128 383.739 258.243 383.193 261.235 383.484C272.131 384.546 283.046 385.452 293.913 386.761C311.197 388.844 328.472 391.033 345.706 393.488C369.186 396.832 392.625 400.455 416.077 403.987C423.911 405.167 431.731 406.435 439.492 407.653C439.014 414.899 438.914 414.82 432.468 413.858C423.282 412.486 414.052 411.41 404.41 410.09Z" fill="#FDFDFF"/>
<path d="M358.827 265.575C361.343 265.983 363.43 266.367 365.926 266.826C363.199 283.454 360.63 299.67 357.858 315.851C355.39 330.263 352.639 344.626 350.156 359.035C349.668 361.869 349.274 363.718 345.562 362.985C342.356 362.353 340.362 361.736 340.964 357.753C343.15 343.297 345.074 328.802 347.161 314.332C349.319 299.368 351.656 284.43 353.669 269.447C354.103 266.222 355.264 264.97 358.827 265.575Z" fill="#F8D77D"/>
<path d="M296.263 333.793C299.542 311.311 302.77 289.269 305.928 267.216C306.776 261.293 307.111 260.938 313.164 261.834C314.62 262.049 316.05 262.438 318.158 262.89C317.01 270.713 316.056 278.404 314.729 286.031C310.997 307.49 306.87 328.884 303.404 350.386C302.007 359.052 301.122 357.906 293.338 355.741C294.281 348.617 295.233 341.423 296.263 333.793Z" fill="#F8D87D"/>
<path d="M263.928 92.9367C278.596 89.9491 293.275 87.3583 307.956 84.7749C314.005 83.7104 314.601 84.1244 315.87 90.1859C316.176 91.645 316.481 93.1041 316.788 94.5631C318.271 101.618 318.086 101.99 311.151 103.335C306.764 104.186 302.333 104.814 297.506 105.593C292.306 105.9 287.386 105.555 282.776 106.591C278.544 107.542 274.647 109.982 270.368 111.994C268.069 105.927 266.005 99.6319 263.928 92.9367Z" fill="#FEFDFE"/>
<path d="M193.515 416.493C197.083 409.81 201.003 403.095 204.989 396.419C214.454 380.564 223.951 364.728 233.708 348.691C231.823 363.731 229.705 378.97 227.476 394.193C226.906 398.091 225.985 401.938 225.037 406.152C220.926 407.81 217.017 409.164 213.079 410.428C206.695 412.476 200.292 414.465 193.515 416.493Z" fill="#F8D77C"/>
<path d="M269.365 299.846C271.196 286.586 272.945 273.765 274.723 260.737C277.855 260.737 280.606 260.737 284.651 260.737C280.531 291.396 276.455 321.732 272.294 352.699C269.176 352.292 266.826 351.985 263.653 351.57C265.557 334.221 267.42 317.253 269.365 299.846Z" fill="#FD5254"/>
<path d="M332.716 273.753C328.498 300.74 324.221 327.318 319.924 353.894C319.532 356.321 319.555 359.079 315.64 358.402C312.287 357.821 310.982 356.704 311.585 352.805C315.571 327.026 319.233 301.197 323.027 275.388C323.663 271.064 325.527 270.69 332.716 273.753Z" fill="#6CB07D"/>
<path d="M368.242 282.904C369.552 275.095 374.415 280.768 378.805 279.007C374.57 308.115 370.496 336.116 366.338 364.698C363.204 364.117 360.874 363.685 357.38 363.037C361.01 336.225 364.592 309.773 368.242 282.904Z" fill="#FD5354"/>
<path d="M430.128 278.792C431.68 270.669 436.439 277.717 439.14 275.415C439.413 275.757 439.685 276.098 439.958 276.44C435.152 308.627 430.347 340.814 425.49 373.346C422.962 372.949 421.044 372.648 418.62 372.268C422.453 341.173 426.271 310.194 430.128 278.792Z" fill="#FD5354"/>
<path d="M444.807 356.189C443.808 361.511 442.696 366.383 442.03 371.315C441.515 375.128 439.402 375.797 436.109 375.47C432.665 375.128 432.431 373.423 432.837 370.364C435.675 349.004 438.289 327.614 441.035 305.748C445.219 306.464 448.735 307.066 452.796 307.761C450.11 324.064 447.498 339.915 444.807 356.189Z" fill="#FEFDFF"/>
<path d="M409.663 322.074C410.88 313.248 412.049 304.864 413.09 296.464C413.485 293.276 414.859 292.01 418.086 293.051C419.472 293.498 420.96 293.629 423.072 294.031C418.988 319.861 414.936 345.484 410.899 371.015C402.976 370.88 402.916 370.798 403.865 363.94C405.775 350.131 407.665 336.32 409.663 322.074Z" fill="#F7D77E"/>
<path d="M398.169 358.693C397.786 360.746 397.286 362.366 397.201 364.008C397.023 367.456 396.383 369.329 391.915 368.799C387.161 368.235 387.662 365.626 388.043 362.593C390.07 346.456 392.152 330.327 394.168 314.19C394.513 311.433 395.595 309.878 398.669 310.455C400.928 310.88 403.218 311.144 406.706 311.658C403.84 327.436 401.04 342.853 398.169 358.693Z" fill="#6CB07D"/>
<path d="M443.952 211.503C444.848 211.185 445.808 210.473 446.629 210.608C454.492 211.902 462.374 213.144 470.16 214.819C473.941 215.633 477.078 217.637 475.814 222.534C474.703 226.841 471.393 229.081 466.782 228.369C453.988 226.393 441.2 224.381 428.421 222.313C423.301 221.484 421.103 218.112 422.129 212.973C422.975 208.732 425.93 206.958 430.787 207.937C433.365 208.456 435.898 209.202 438.321 210.162C434.635 211.274 432.464 213.372 433.219 217.117C433.905 220.524 436.655 222.13 439.904 221.477C441.915 221.072 444.694 219.718 445.255 218.13C445.899 216.301 444.477 213.744 443.952 211.503Z" fill="#FDFDFF"/>
<path d="M376.606 365.849C375.496 364.108 373.996 362.406 374.177 360.907C376.21 344.13 378.529 327.388 380.707 310.628C381.262 306.355 381.843 302.06 381.958 297.763C382.078 293.299 384.162 292.08 388.301 292.456C392.695 292.856 391.58 295.412 391.149 298.134C387.727 319.743 384.338 341.358 381.099 362.995C380.676 365.821 379.837 366.997 376.606 365.849Z" fill="#FDFDFF"/>
<path d="M468.1 191.456C470.475 192.148 472.941 192.628 475.202 193.588C477.773 194.68 480.601 195.833 479.445 199.719C478.244 203.753 475.87 206.171 471.46 205.402C463.63 204.037 455.835 202.468 448.028 200.975C442.01 199.824 435.988 198.696 429.981 197.488C426.296 196.746 423.809 194.723 424.277 190.652C424.756 186.485 426.906 183.756 431.574 184.52C442.182 186.257 452.77 188.117 463.312 190.258C459.341 191.549 456.927 193.786 458.231 198.006C459.316 201.517 462.275 202.599 465.733 201.839C470.62 200.764 471.538 196.559 468.1 191.456Z" fill="#FDFCFD"/>
<path d="M284.97 315.322C286.222 305.856 287.438 296.831 288.66 287.758C291.751 287.758 294.495 287.758 298.096 287.758C294.167 310.227 290.322 332.223 286.389 354.716C284.107 354.417 282.211 354.168 279.421 353.802C281.291 340.898 283.113 328.331 284.97 315.322Z" fill="#318B58"/>
<path d="M451.124 247.402C445.451 247.02 439.767 246.756 434.109 246.214C430.49 245.868 426.675 245.682 423.396 244.335C421.271 243.462 418.334 240.339 418.617 238.726C419.181 235.517 421.658 230.111 423.447 230.07C433.455 229.842 443.493 230.943 453.444 232.006C448.319 236.628 447.829 239.903 451.124 247.402Z" fill="#FEFEFE"/>
<path d="M337.812 336.165C336.553 343.282 335.301 349.954 334.23 356.655C333.852 359.016 333.357 361.403 330.447 360.169C328.965 359.54 327.117 357.212 327.23 355.795C327.992 346.233 329.245 336.71 330.318 327.173C330.91 321.912 331.495 316.649 332.018 311.381C332.459 306.95 336.217 304.726 340.074 306.963C340.884 307.433 341.27 309.415 341.131 310.617C340.156 319.001 338.992 327.364 337.812 336.165Z" fill="#FDFDFF"/>
<path d="M447.994 164.544C457.527 166.539 467.123 168.295 476.537 170.748C478.236 171.19 480.276 174.518 480.242 176.48C480.184 179.815 478.493 183.149 474.003 182.454C465.181 181.089 456.383 179.572 447.612 177.768C453.397 173.658 453.503 170.076 448.004 165.126C448.002 164.932 447.994 164.544 447.994 164.544Z" fill="#FDFDFE"/>
<path d="M451.439 247.513C447.829 239.903 448.319 236.628 453.713 232.264C455.691 232.246 457.323 232.385 459.513 232.805C466.334 238.981 465.097 244.781 456.941 247.76C455.212 247.715 453.483 247.67 451.439 247.513Z" fill="#6CB17D"/>
<path d="M457.12 248.098C465.098 244.781 466.334 238.981 459.834 232.801C462.358 232.983 465.179 233.226 467.866 233.961C473.832 235.595 474.845 237.313 473.967 243.267C473.233 248.248 470.007 249.851 465.445 249.478C462.719 249.255 460.013 248.791 457.12 248.098Z" fill="#FCFCFD"/>
<path d="M248.585 437.507C244.696 437.204 241.172 437.202 237.826 436.427C236.416 436.1 235.383 434.144 234.178 432.928C235.431 431.785 236.613 429.768 237.951 429.659C242.337 429.303 246.817 429.33 251.18 429.873C252.772 430.071 254.133 432.126 255.6 433.334C254.227 434.602 252.932 435.973 251.443 437.085C250.86 437.521 249.842 437.376 248.585 437.507Z" fill="#FDFDFF"/>
<path d="M448.005 165.32C453.503 170.076 453.397 173.658 447.302 177.541C444.548 177.083 442.138 176.501 439.216 175.384C436.259 167.028 439.463 163.747 448.005 165.32Z" fill="#328C57"/>
<path d="M448.004 165.126C439.463 163.747 436.26 167.028 438.891 175.218C434.887 177.604 431.916 175 429.705 172.302C428.613 170.968 428.622 167.775 429.441 166.041C430.939 162.866 433.752 161.257 437.686 162.303C440.862 163.147 444.179 163.464 447.713 164.279C447.994 164.544 448.002 164.932 448.004 165.126Z" fill="#F9FAFC"/>
<path d="M490.798 145.439C487.12 144.893 483.771 144.64 480.631 143.693C479.243 143.275 478.281 141.449 477.125 140.263C478.459 139.316 479.783 137.589 481.129 137.572C484.726 137.526 488.431 137.848 491.889 138.78C493.384 139.183 494.377 141.449 495.599 142.869C494.137 143.729 492.675 144.589 490.798 145.439Z" fill="#FCFCFF"/>
<path d="M443.611 211.364C444.477 213.744 445.899 216.301 445.254 218.13C444.694 219.718 441.914 221.072 439.904 221.477C436.655 222.13 433.905 220.524 433.219 217.117C432.464 213.372 434.635 211.274 438.556 210.441C440.37 210.678 441.82 210.951 443.611 211.364Z" fill="#A79DE9"/>
<path d="M467.748 191.398C471.538 196.559 470.62 200.764 465.733 201.839C462.275 202.599 459.316 201.517 458.231 198.006C456.927 193.786 459.341 191.549 463.61 190.486C465.106 190.702 466.251 191.021 467.748 191.398Z" fill="#FF5555"/>
<path d="M458.182 439.817C458.47 438.61 458.526 437.705 458.949 437.027C460.088 435.196 461.382 433.462 462.615 431.69C463.744 433.702 464.963 435.671 465.948 437.75C466.268 438.426 466.29 439.59 465.909 440.188C464.525 442.364 463.075 445.975 461.352 446.153C457.734 446.526 458.184 442.843 458.182 439.817Z" fill="#FCFCFF"/>
<path d="M455.815 453.45C457.49 453.801 458.835 453.965 459.967 454.545C460.75 454.947 461.888 456.38 461.755 456.569C460.769 457.968 459.415 460.301 458.344 460.217C455.549 459.997 452.838 458.692 450.094 457.82C451.204 456.375 452.24 454.862 453.475 453.534C453.787 453.198 454.737 453.456 455.815 453.45Z" fill="#FDFDFF"/>
<path d="M261.769 420.393C265.457 423.377 263.646 424.965 260.761 426.292C260.616 426.358 260.419 426.415 260.278 426.372C257.523 425.538 254.747 424.758 252.062 423.739C251.781 423.632 251.929 421.346 252.071 421.325C255.171 420.847 258.297 420.548 261.769 420.393Z" fill="#FCFCFF"/>
<path d="M275.572 435.134C272.548 435.931 269.692 436.471 266.816 436.62C266.596 436.632 265.475 433.282 266.074 432.52C268.026 430.042 274.061 431.627 275.572 435.134Z" fill="#FDFDFF"/>
<path d="M497.393 156.024C497.259 154.28 497.424 152.764 497.589 151.247C499.734 151.564 501.922 151.735 503.986 152.333C504.364 152.442 504.439 155.172 504.319 155.198C502.14 155.685 499.911 155.944 497.393 156.024Z" fill="#FAFAFE"/>
<path d="M51.1183 304.138C49.9593 305.173 48.7101 305.819 46.9324 306.74C38.4387 285.696 30.155 265.172 21.7563 244.364C23.1965 243.464 24.4132 242.704 25.8758 241.692C28.394 246.015 31.0427 250.445 32.8699 255.19C39.0791 271.316 44.9981 287.554 51.1183 304.138Z" fill="#FF5350"/>
<path d="M34.9927 325.016C41.704 321.95 48.4252 319.267 55.49 316.529C56.8876 320.521 58.4098 324.515 58.8773 328.629C59.4664 333.812 55.4125 336.396 46.9866 338.83C42.9428 339.999 39.5171 337.902 38.0086 333.56C37.0571 330.822 36.0079 328.117 34.9927 325.016ZM54.7117 330.651C56.4201 327.07 56.6947 323.673 53.408 320.64C52.5536 323.681 52.2303 326.713 52.1797 329.749C52.172 330.214 53.4232 330.7 54.7117 330.651Z" fill="#FF5353"/>
<path d="M3.09473 252.048C4.57501 251.331 5.99471 250.972 8.65834 250.299C11.1477 258.583 13.5218 266.841 16.1709 275.011C16.7379 276.76 18.3014 278.185 19.2572 280.517C19.4836 285.027 17.8928 289.807 23.9709 290.58C26.4354 296.57 28.883 302.566 31.3728 308.544C32.3508 310.893 32.8592 313.057 29.5204 314.465C22.1167 298.062 15.0412 281.555 8.02739 265.022C6.26175 260.86 4.69324 256.614 3.09473 252.048Z" fill="#FF5452"/>
<path d="M156.37 102.823C167.209 99.4437 177.606 95.9416 188.171 93.0551C194.499 91.3264 196.91 92.964 199.062 99.301C204.515 115.361 209.937 131.433 215.173 147.565C218.281 157.138 216.756 160.584 207.159 163.93C190.521 169.732 173.673 174.928 156.99 180.604C147.546 183.818 138.335 187.718 128.877 190.883C117.832 194.579 114.139 193.062 109.958 182.299C104.364 167.896 99.2408 153.299 94.3102 138.653C91.7538 131.059 92.933 128.056 100.211 124.538C109.328 120.131 118.754 116.314 128.212 112.674C137.365 109.151 146.727 106.175 156.37 102.823ZM120.191 148.261C132.902 143.352 145.593 138.389 158.332 133.553C167.653 130.015 177.093 126.779 186.341 123.064C187.845 122.46 188.63 120.064 189.747 118.496C187.795 117.577 185.888 116.53 183.863 115.818C183.274 115.611 182.354 116.375 181.578 116.671C162.327 124.015 143.068 131.338 123.828 138.712C119.795 140.257 115.688 141.721 111.912 143.769C110.564 144.501 110.096 146.852 109.226 148.464C110.924 149.116 112.62 150.272 114.32 150.277C116.026 150.282 117.736 149.14 120.191 148.261ZM181.9 139.968C170.941 143.856 159.933 147.613 149.037 151.67C139.081 155.378 129.204 159.309 119.41 163.421C118.116 163.965 117.515 166.161 116.593 167.592C118.38 168.397 120.104 169.532 121.976 169.882C123.092 170.091 124.448 169.092 125.68 168.597C138.007 163.646 150.29 158.582 162.668 153.762C172.727 149.846 182.943 146.331 192.966 142.33C194.295 141.799 194.897 139.449 195.836 137.941C194.022 137.402 192.073 136.164 190.425 136.482C187.715 137.006 185.2 138.539 181.9 139.968Z" fill="#C8C4F6"/>
<path d="M102.974 334.064C101.747 336.574 100.447 338.729 98.927 341.151C92.9618 327.081 86.5383 312.973 81.601 298.363C67.4466 256.479 53.9395 214.377 40.0674 172.397C37.3045 164.036 34.003 155.853 31.0643 147.548C30.4698 145.868 30.3918 144.005 30.0757 142.226C30.7051 141.987 31.3346 141.747 31.964 141.507C33.9847 145.691 36.4119 149.73 37.961 154.082C49.0007 185.095 59.6629 216.243 70.8363 247.207C81.2739 276.131 92.1934 304.882 102.974 334.064Z" fill="#E9BE55"/>
<path d="M93.124 44.058C100.374 37.7012 109.505 35.3863 118.346 32.5852C123.84 30.8445 129.56 29.8183 135.966 28.3329C141.89 27.0473 146.987 25.65 152.173 24.8041C163.696 22.9249 175.263 21.3219 186.813 19.6064C178.931 23.0451 171.041 26.4642 163.17 29.9271C150.402 35.5444 137.647 41.1903 124.367 46.5203C118.711 42.8034 111.883 45.7775 109.509 52.4628C102.264 55.1702 95.0187 57.8775 87.417 60.1805C89.0817 54.5368 91.1029 49.2974 93.124 44.058Z" fill="#A79BE5"/>
<path d="M253.665 54.922C270.413 51.5297 287.241 48.5449 304.067 45.553C306.388 45.1404 307.847 45.6959 308.243 48.3766C308.944 53.1257 309.901 57.8372 310.899 63.3867C293.504 66.3486 276.402 69.2606 258.871 72.275C256.875 66.6939 255.309 61.0106 253.665 54.922Z" fill="#FDFDFE"/>
<path d="M29.7842 82.536C29.7029 78.6727 29.8669 74.9879 29.9542 70.8763C32.0494 64.8333 33.2932 58.5652 36.6524 53.7828C40.0706 48.9162 50.6307 48.0525 58.0407 57.6899C58.0677 62.8067 58.0289 67.1571 57.99 71.5073C56.6807 79.8565 55.4039 88.211 54.0378 96.5508C53.7171 98.509 53.0623 100.41 52.6167 102.351C51.5857 106.841 49.2277 109.319 44.1916 108.696C38.9177 108.044 36.0526 106.032 35.7504 100.745C35.3827 94.3134 35.8787 87.8324 36.0836 80.5336C36.7539 75.2708 37.3418 70.847 38.0586 66.0908C41.2825 60.6369 44.2717 59.499 49.0483 62.0192C49.7739 66.4082 50.4327 70.4275 51.0252 74.8309C49.9794 78.1055 50.8712 82.1006 45.7769 83.2665C45.5591 81.1296 45.368 79.2549 45.3477 77.0268C45.9449 73.21 47.3073 69.5895 44.6065 66.651C44.01 66.6601 43.4136 66.6692 42.8171 66.6783C42.5398 70.2859 42.2625 73.8935 41.8777 77.903C41.4546 85.2366 40.9422 92.169 40.9666 99.0994C40.9724 100.761 42.7631 102.417 43.7329 104.076C45.1836 102.821 47.6007 101.777 47.926 100.278C49.8473 91.4245 51.2825 82.4657 52.9609 73.1236C53.0023 68.6045 52.9641 64.5041 52.8419 60.0717C48.3452 54.3111 44.4114 54.4317 40.5429 58.6743C38.7305 60.6619 38.2128 63.83 36.9397 66.8172C36.0557 71.5581 35.3402 75.945 34.6248 80.3319C33.6011 82.106 32.9583 84.6146 29.7842 82.536Z" fill="#A89CE3"/>
<path d="M187.199 19.5274C175.263 21.322 163.696 22.9249 152.173 24.8042C146.987 25.65 141.891 27.0473 136.377 28.256C136.789 27.4557 137.418 26.1482 138.392 25.7972C160.541 17.8116 182.611 9.57573 204.959 2.18254C215.811 -1.40757 226.714 -1.27221 235.07 9.21273C234.451 9.87755 233.671 10.2284 232.563 10.612C216.388 8.6903 202.211 15.2075 187.199 19.5274Z" fill="#E8BD55"/>
<path d="M58.3625 71.45C58.0288 67.157 58.0676 62.8067 58.2038 58.0078C66.6497 54.2858 74.991 50.9941 83.3503 47.7486C86.3436 46.5865 89.3802 45.5359 92.7605 44.2462C91.103 49.2975 89.0818 54.5368 87.0259 60.1693C77.5723 64.1724 68.1537 67.7825 58.3625 71.45Z" fill="#E8BC56"/>
<path d="M190.082 40.9806C185.999 39.6628 185.651 37.1822 188.656 35.2349C192.339 32.8475 196.512 31.1225 200.651 29.5943C201.712 29.2028 204.278 30.3201 204.644 31.3048C205.047 32.3915 204.118 34.8855 203.069 35.4386C199.017 37.5754 194.685 39.1826 190.082 40.9806Z" fill="#FFFDFA"/>
<path d="M222.539 22.4105C220.179 24.6546 217.943 26.7758 215.352 28.2915C214.591 28.7368 212.256 27.8135 211.684 26.8797C211.139 25.9875 211.53 23.969 212.241 22.9609C214.825 19.2952 219.614 18.9927 222.539 22.4105Z" fill="#FFFCF6"/>
<path d="M21.9696 113.176C20.82 117.299 18.6082 117.54 17.1422 114.261C15.8856 111.45 15.9329 108.033 15.6254 104.862C15.5975 104.575 17.1928 104.131 18.0343 103.759C19.3531 106.764 20.6718 109.769 21.9696 113.176Z" fill="#E9BF57"/>
<path d="M109.927 52.4416C111.883 45.7775 118.711 42.8034 123.995 46.6081C119.542 48.8066 114.943 50.6135 109.927 52.4416Z" fill="#FBF9F9"/>
<path d="M21.8623 128.523C22.2987 126.352 22.8431 124.536 23.3876 122.721C24.7561 123.998 26.7731 125.056 27.3024 126.618C27.7879 128.051 26.6685 130.027 26.2562 131.764C24.8276 130.802 23.399 129.84 21.8623 128.523Z" fill="#E9BF57"/>
<path d="M209.45 41.4938C209.846 39.5245 210.174 37.5318 211.305 36.2423C211.844 35.6264 214.676 35.8719 215.105 36.5679C215.798 37.6922 215.884 40.5446 215.303 40.8384C213.695 41.6509 211.609 41.5182 209.45 41.4938Z" fill="#FFFDF8"/>
<path d="M31.12 112.363C31.6522 114.259 31.9164 115.903 32.1806 117.548C31.1405 117.623 29.5127 118.141 29.1736 117.69C28.2542 116.467 27.8815 114.833 27.292 113.362C28.4786 112.945 29.6653 112.529 31.12 112.363Z" fill="#E9BF57"/>
<path d="M34.9568 80.3719C35.3401 75.945 36.0556 71.5581 37.1458 66.8266C37.5206 66.4819 37.9296 66.4232 37.9296 66.4232C37.3417 70.847 36.7538 75.2708 36.0608 80.0805C35.7335 80.4483 35.5112 80.4301 34.9568 80.3719Z" fill="#DDB76C"/>
<path d="M23.9767 283.519C20.3962 274.058 16.817 264.595 13.2341 255.134C12.4801 253.143 11.7123 251.158 10.8057 248.79C13.4933 247.565 15.8409 246.494 18.6822 245.199C27.174 266.253 35.4908 286.873 43.8799 307.673C42.2717 308.408 41.0239 308.854 39.9012 309.514C36.7971 311.337 35.2353 310.335 34.0033 307.072C31.4192 300.229 28.4693 293.524 25.3449 286.6C25.0201 286.436 25.0623 286.469 25.1209 286.127C24.772 285.017 24.3645 284.25 23.9775 283.483C23.998 283.484 23.9767 283.519 23.9767 283.519Z" fill="#FF5451"/>
<path d="M24.1061 290.245C17.8929 289.807 19.4837 285.027 19.2957 280.877C20.7762 281.416 22.0696 282.352 23.6699 283.403C23.9769 283.519 23.9983 283.484 23.9316 283.825C24.2642 284.933 24.6633 285.701 25.0625 286.469C25.0625 286.469 25.0203 286.436 25.0408 286.419C24.788 287.571 24.5146 288.741 24.1061 290.245Z" fill="#FFF8F4"/>
<path d="M341.961 51.4859C343.242 52.8828 344.738 54.0902 344.959 55.4982C346.844 67.4678 348.754 79.4447 350.112 91.4809C350.821 97.7694 346.803 101.213 340.651 99.9319C339.221 99.6342 337.54 97.0192 337.269 95.2703C335.951 86.7425 335.062 78.1481 334.044 69.5745C333.632 66.1118 333.133 62.6507 332.931 59.174C332.502 51.8013 334.017 50.5007 341.961 51.4859Z" fill="#F7D77C"/>
<path d="M293.065 10.3477C289.98 14.0535 283.467 15.9654 280.147 14.1761C279.298 13.7191 278.453 11.6105 278.82 10.8331C280.287 7.72307 290.672 7.22258 293.065 10.3477Z" fill="#FAF9FE"/>
<path d="M301.254 9.52955C298.851 5.84521 301.921 5.01779 303.858 4.91606C306.171 4.79452 308.552 5.95749 310.904 6.56406C310.202 7.70074 309.64 9.66697 308.77 9.81382C306.446 10.2064 303.99 9.81801 301.254 9.52955Z" fill="#FAF9FE"/>
<path d="M75.9558 393.395C80.5145 385.102 84.9525 376.74 89.6548 368.529C103.047 345.146 116.396 321.736 130.053 298.507C140.083 281.446 150.56 264.647 160.879 247.757C161.557 246.648 162.592 245.757 164.118 244.661C183.687 255.532 202.612 266.483 221.506 277.486C232.368 283.813 243.181 290.225 254.016 296.598C250.181 304.476 246.824 312.631 242.429 320.183C225.632 349.044 208.547 377.739 191.475 406.439C182.982 420.717 174.284 434.873 165.271 449.02C162.59 447.32 160.407 445.541 158.033 444.072C130.691 427.152 103.319 410.28 75.9558 393.395ZM118.171 408.823C118.171 408.823 118.506 408.496 119.291 408.54C126.983 403.183 132.306 395.785 138.618 387.824C125.549 387.824 114.027 387.824 101.937 387.824C103.493 397.583 107.289 405.274 115.62 410.182C116.04 410.429 117.199 409.42 118.171 408.823ZM114.917 365.429C114.174 367.632 113.342 369.809 112.703 372.041C110.509 379.703 111.719 381.377 119.399 381.479C121.227 381.503 123.065 381.401 124.882 381.556C131.359 382.11 137.829 382.749 145.271 383.447C140.197 390.517 135.885 396.561 131.53 402.573C129.836 404.911 129.538 406.914 132.04 409.031C143.232 418.502 161.086 420.156 172.369 408.691C174.694 406.329 176.884 403.834 179.796 401.639C183.663 403.727 187.52 406.232 190.681 400.57C197.172 388.942 203.733 377.354 210.251 365.741C212.099 362.449 211.39 359.673 208.428 357.422C206.97 356.315 205.587 355.067 204.006 354.171C180.697 340.952 157.347 327.804 134.042 314.576C130.521 312.577 127.985 312.899 125.784 316.57C120.222 325.847 114.353 334.94 108.824 344.236C101.312 356.865 101.795 358.212 114.917 365.429ZM190.101 300.9C204.036 308.827 217.97 316.754 231.856 324.654C237.44 316.298 237.45 315.702 229.709 311.33C212.64 301.691 195.55 292.083 178.299 282.778C170.611 278.631 162.512 275.246 154.709 271.567C149.691 278.361 149.747 278.614 156.305 282.218C167.372 288.3 178.43 294.398 190.101 300.9ZM169.346 296.634C162.148 292.865 154.949 289.096 147.865 285.386C142.626 290.992 142.672 291.558 148.755 294.964C158.925 300.658 169.12 306.306 179.316 311.953C194.59 320.412 209.874 328.854 225.433 337.457C226.809 335.039 228.012 332.925 229.649 330.049C209.505 318.889 189.748 307.943 169.346 296.634ZM200.949 286.004C214.234 293.511 227.52 301.019 241.137 308.713C242.617 305.979 243.852 303.698 245.195 301.217C243.431 300.14 242.064 299.212 240.616 298.434C216.564 285.508 192.509 272.59 168.439 259.699C162.19 256.352 160.967 256.972 159.201 264.275C172.878 271.382 186.593 278.509 200.949 286.004ZM179.347 328.644C190.208 334.794 201.104 340.885 211.918 347.117C218.32 350.806 219.743 350.254 221.573 342.529C217.89 340.51 214.137 338.409 210.346 336.381C188.035 324.446 165.684 312.586 143.429 300.549C139.725 298.546 138.382 300.601 136.836 303.209C134.859 306.546 137.642 307.211 139.62 308.233C152.63 314.952 165.661 321.63 179.347 328.644Z" fill="#C8C4F6"/>
<path d="M75.6841 393.621C103.319 410.28 130.691 427.152 158.033 444.072C160.407 445.541 162.59 447.32 165.041 449.264C163.928 451.505 162.756 453.531 161.324 455.353C156.207 461.867 150.06 463.42 142.903 459.384C121.646 447.394 100.436 435.315 79.3789 422.979C70.006 417.489 68.4971 412.508 71.9627 402.091C72.9005 399.272 74.2512 396.59 75.6841 393.621Z" fill="#FEFEFF"/>
<path d="M254.31 296.368C243.181 290.225 232.368 283.813 221.506 277.486C202.612 266.483 183.687 255.532 164.428 244.517C166.782 237.838 176.045 234.705 183.606 238.484C195.311 244.334 206.826 250.571 218.323 256.826C228.363 262.289 238.595 267.502 248.135 273.752C257.002 279.559 258.641 287.14 254.31 296.368ZM206.459 256.485C204.803 256.597 203.147 256.71 201.491 256.822C202.263 258.444 202.6 260.797 203.883 261.561C209.386 264.837 215.129 267.724 220.882 270.553C221.913 271.061 223.407 270.626 226.03 270.626C220.391 263.37 213.841 259.969 206.459 256.485Z" fill="#FDFDFF"/>
<path d="M54.4019 330.914C53.4232 330.7 52.172 330.214 52.1797 329.749C52.2303 326.713 52.5536 323.681 53.408 320.64C56.6947 323.673 56.4201 327.07 54.4019 330.914Z" fill="#FFE1E1"/>
<path d="M119.817 148.381C117.736 149.14 116.026 150.282 114.32 150.277C112.62 150.272 110.924 149.116 109.226 148.464C110.096 146.852 110.564 144.501 111.912 143.769C115.688 141.721 119.795 140.257 123.828 138.712C143.068 131.339 162.327 124.015 181.578 116.671C182.354 116.375 183.274 115.611 183.863 115.818C185.888 116.53 187.795 117.577 189.747 118.496C188.63 120.064 187.845 122.46 186.341 123.064C177.093 126.779 167.653 130.015 158.332 133.553C145.593 138.389 132.902 143.352 119.817 148.381Z" fill="#A69BE8"/>
<path d="M182.251 139.808C185.2 138.539 187.715 137.006 190.425 136.482C192.073 136.164 194.022 137.402 195.836 137.941C194.897 139.449 194.295 141.799 192.966 142.33C182.943 146.331 172.727 149.846 162.668 153.762C150.29 158.582 138.007 163.646 125.68 168.597C124.448 169.092 123.092 170.091 121.976 169.882C120.104 169.532 118.38 168.397 116.593 167.592C117.515 166.161 118.116 163.965 119.41 163.421C129.204 159.309 139.081 155.378 149.037 151.67C159.933 147.613 170.941 143.856 182.251 139.808Z" fill="#A69CE9"/>
<path d="M45.1768 77.3802C45.3679 79.2549 45.5589 81.1296 45.7767 83.2664C50.871 82.1006 49.9792 78.1055 51.256 74.7324C51.9959 74.0139 52.4385 73.7781 52.8812 73.5424C51.2824 82.4657 49.8472 91.4245 47.9258 100.278C47.6005 101.777 45.1834 102.821 43.7327 104.076C42.7629 102.417 40.9723 100.761 40.9664 99.0994C40.942 92.1689 41.4545 85.2366 42.2756 77.8961C43.5796 77.4515 44.3782 77.4159 45.1768 77.3802Z" fill="#F6D67E"/>
<path d="M38.0585 66.0908C37.9297 66.4233 37.5207 66.482 37.3145 66.4726C38.2127 63.83 38.7305 60.6619 40.5429 58.6743C44.4114 54.4317 48.3452 54.3111 52.4899 60.1138C51.1418 60.8751 50.0617 61.2623 48.9815 61.6495C44.2717 59.499 41.2824 60.6369 38.0585 66.0908Z" fill="black"/>
<path d="M49.0483 62.0192C50.0617 61.2623 51.1419 60.8751 52.574 60.4459C52.9641 64.5041 53.0023 68.6045 52.9609 73.1236C52.4387 73.7782 51.9961 74.014 51.3224 74.3482C50.4327 70.4275 49.7739 66.4082 49.0483 62.0192Z" fill="#E3BA5E"/>
<path d="M45.3475 77.0267C44.3782 77.4158 43.5797 77.4515 42.383 77.4942C42.2623 73.8935 42.5396 70.2859 42.8169 66.6783C43.4134 66.6692 44.0099 66.6601 44.6064 66.651C47.3071 69.5895 45.9448 73.2099 45.3475 77.0267Z" fill="#E5BC5A"/>
<path d="M25.1211 286.127C24.6634 285.701 24.2642 284.933 23.9111 283.824C24.3647 284.25 24.7722 285.017 25.1211 286.127Z" fill="#F9D479"/>
<path d="M115.068 364.712C101.795 358.212 101.312 356.865 108.824 344.236C114.353 334.94 120.222 325.847 125.784 316.57C127.985 312.899 130.521 312.578 134.042 314.576C157.347 327.804 180.697 340.952 204.006 354.171C205.587 355.067 206.97 356.315 208.428 357.422C211.39 359.673 212.099 362.449 210.251 365.741C203.733 377.354 197.172 388.942 190.681 400.57C187.52 406.232 183.663 403.727 179.53 401.182C189.043 382.713 184.394 357.475 168.877 350.994C183.418 366.085 187.364 381.929 176.685 399.66C167.101 393.691 157.851 387.854 148.337 381.815C146.819 381.202 145.566 380.79 144.07 380.117C135.172 375.366 126.516 370.876 117.872 366.028C120.495 359.799 124.418 355.25 130.629 352.154C131.439 356.42 132.09 359.849 132.742 363.277C133.203 363.213 133.664 363.149 134.124 363.084C133.943 361.084 133.898 359.06 133.555 357.089C132.489 350.974 132.987 350.071 139.233 349.444C152.575 348.103 163.294 353.085 171.702 363.361C172.87 364.789 174.042 366.215 176.007 368.612C173.82 354.135 152.952 345.039 132.427 348.367C131.859 345.954 131.286 343.522 130.713 341.09C130.219 341.172 129.725 341.255 129.231 341.338C129.446 343.148 129.842 344.961 129.815 346.768C129.796 348.076 129.623 349.754 128.82 350.617C124.354 355.425 119.674 360.035 115.068 364.712ZM132.319 325.695C130.49 325.471 128.664 325.22 126.829 325.081C126.699 325.071 126.508 325.888 126.326 326.37C127.669 326.461 128.882 326.544 130.094 326.626C130.624 327.276 131.154 327.926 131.684 328.576C128.919 330.069 126.155 331.562 123.391 333.054C124.002 333.648 124.613 334.241 125.224 334.834C127.962 332.283 132.638 331.687 132.319 325.695Z" fill="#FF5152"/>
<path d="M189.797 300.695C178.43 294.398 167.372 288.3 156.305 282.218C149.747 278.614 149.691 278.361 154.709 271.567C162.511 275.246 170.611 278.631 178.299 282.778C195.55 292.083 212.64 301.691 229.709 311.33C237.45 315.702 237.44 316.298 231.856 324.654C217.97 316.754 204.036 308.827 189.797 300.695Z" fill="#FEFEFF"/>
<path d="M169.669 296.816C189.748 307.943 209.505 318.889 229.649 330.049C228.012 332.925 226.809 335.039 225.433 337.457C209.874 328.854 194.59 320.412 179.316 311.953C169.12 306.306 158.925 300.658 148.755 294.964C142.672 291.558 142.626 290.992 147.865 285.386C154.949 289.096 162.148 292.865 169.669 296.816Z" fill="#6CB07E"/>
<path d="M200.628 285.82C186.593 278.509 172.878 271.382 159.201 264.274C160.967 256.972 162.19 256.352 168.439 259.699C192.509 272.59 216.564 285.508 240.616 298.433C242.064 299.212 243.431 300.14 245.195 301.217C243.852 303.698 242.617 305.979 241.137 308.713C227.52 301.019 214.234 293.511 200.628 285.82Z" fill="#6CB07E"/>
<path d="M179.016 328.482C165.661 321.63 152.63 314.952 139.62 308.233C137.642 307.211 134.859 306.546 136.836 303.209C138.382 300.601 139.725 298.546 143.429 300.549C165.684 312.586 188.035 324.446 210.346 336.381C214.137 338.409 217.89 340.51 221.573 342.529C219.743 350.254 218.32 350.806 211.918 347.117C201.104 340.885 190.208 334.794 179.016 328.482Z" fill="#FDFDFF"/>
<path d="M144.312 380.379C145.566 380.79 146.819 381.201 148.157 382.169C143.599 389.16 139.113 395.715 134.25 401.978C131.783 405.156 132.412 407.011 135.424 409.2C149.037 419.095 168.53 414.742 177.018 399.792C187.364 381.929 183.418 366.085 168.877 350.994C184.394 357.475 189.043 382.713 179.2 401.063C176.884 403.834 174.694 406.329 172.369 408.691C161.086 420.156 143.232 418.502 132.04 409.031C129.539 406.914 129.836 404.911 131.53 402.573C135.886 396.561 140.197 390.517 145.272 383.447C137.829 382.749 131.359 382.11 124.882 381.556C123.065 381.401 121.227 381.503 119.399 381.479C111.719 381.377 110.509 379.703 112.703 372.041C113.342 369.809 114.174 367.632 114.992 365.07C119.674 360.034 124.354 355.425 128.82 350.617C129.623 349.753 129.796 348.076 129.815 346.768C129.842 344.961 129.446 343.148 129.231 341.338C129.725 341.255 130.219 341.172 130.713 341.09C131.286 343.522 131.859 345.954 132.428 348.367C152.952 345.039 173.82 354.135 176.007 368.612C174.042 366.215 172.87 364.789 171.702 363.36C163.294 353.085 152.575 348.103 139.233 349.444C132.987 350.071 132.489 350.974 133.555 357.089C133.899 359.06 133.943 361.084 134.125 363.084C133.664 363.149 133.203 363.213 132.742 363.277C132.09 359.849 131.439 356.42 130.629 352.154C124.418 355.25 120.495 359.799 117.592 366.241C116.558 368.461 115.666 370.059 115.1 371.765C113.112 377.764 113.686 378.866 119.971 379.314C128.069 379.891 136.197 380.043 144.312 380.379Z" fill="#FCF0F3"/>
<path d="M118.506 408.496C118.506 408.496 118.171 408.823 117.775 408.891C109.972 404.741 106.549 397.899 104.229 389.507C113.601 389.507 122.364 389.497 131.127 389.524C131.884 389.526 132.641 389.773 134.051 390.022C128.6 396.5 123.553 402.498 118.506 408.496Z" fill="#C9C5F7"/>
<path d="M118.899 408.518C123.553 402.498 128.601 396.5 134.051 390.022C132.641 389.773 131.884 389.526 131.127 389.524C122.364 389.497 113.601 389.507 104.229 389.507C106.549 397.899 109.972 404.741 117.696 408.978C117.199 409.42 116.04 410.429 115.62 410.182C107.289 405.274 103.494 397.583 101.938 387.824C114.027 387.824 125.549 387.824 138.618 387.824C132.306 395.785 126.983 403.183 118.899 408.518Z" fill="#FAFAFE"/>
<path d="M206.815 256.607C213.841 259.969 220.391 263.37 226.03 270.626C223.407 270.626 221.913 271.06 220.882 270.553C215.129 267.724 209.386 264.837 203.883 261.56C202.6 260.797 202.263 258.444 201.491 256.822C203.147 256.71 204.803 256.597 206.815 256.607Z" fill="#AAA0E9"/>
<path d="M176.685 399.66C168.53 414.742 149.037 419.095 135.424 409.2C132.412 407.011 131.783 405.156 134.25 401.978C139.113 395.715 143.6 389.16 148.421 382.371C157.851 387.854 167.102 393.691 176.685 399.66Z" fill="#C9C4F6"/>
<path d="M144.07 380.117C136.197 380.043 128.069 379.891 119.971 379.314C113.686 378.866 113.113 377.764 115.1 371.765C115.666 370.059 116.558 368.461 117.58 366.6C126.516 370.876 135.172 375.366 144.07 380.117Z" fill="#CAC3F4"/>
<path d="M132.462 326.017C132.638 331.686 127.962 332.283 125.224 334.834C124.613 334.241 124.002 333.648 123.391 333.054C126.155 331.562 128.919 330.069 131.684 328.576C131.154 327.926 130.624 327.276 130.094 326.626C128.882 326.543 127.669 326.461 126.326 326.37C126.508 325.888 126.7 325.071 126.829 325.081C128.664 325.22 130.49 325.471 132.462 326.017Z" fill="#FFE4E4"/>
</svg>
