<svg width="512" height="503" viewBox="0 0 512 503" fill="none" xmlns="http://www.w3.org/2000/svg">
<path d="M0 224.746C0.665556 223.623 1.84146 223.027 1.92284 222.307C4.75045 197.294 11.9933 173.558 22.1952 150.623C31.4949 129.716 43.4158 110.366 58.0759 92.9173C79.4818 67.4393 104.583 46.2548 134.172 30.5884C158.048 17.9469 183.171 9.25383 209.723 4.11892C230.964 0.0109963 252.36 -0.639995 273.709 0.499457C300.93 1.95231 327.403 8.19657 352.609 18.6565C375.288 28.0681 396.67 39.9735 415.876 55.5096C417.227 56.6017 419.368 57.1872 421.149 57.2014C437.145 57.3291 453.154 57.6392 469.137 57.1591C481.549 56.7862 486.762 63.7588 486.918 75.0413C487.208 96.034 486.87 117.035 487.113 138.029C487.161 142.125 487.865 146.588 489.622 150.227C498.992 169.629 504.289 190.269 508.933 211.131C509.941 215.662 510.497 220.295 511.631 224.579C512 310.964 512 397.652 511.719 484.522C506.121 491.967 498.647 492.408 490.376 492.399C332.526 492.235 174.676 492.278 16.826 492.278C15.9935 492.278 15.16 492.251 14.3286 492.282C10.385 492.428 7.03784 491.344 4.3372 488.216C3.23541 486.939 1.46579 486.239 3.99351e-06 485.277C9.93511e-07 398.589 1e-06 311.902 0 224.746ZM497.007 443.238C496.985 403.612 496.963 363.987 496.971 323.515C496.973 322.103 496.976 320.691 497.021 318.343C497.026 298.729 496.884 279.114 497.076 259.502C497.278 238.806 494.998 218.422 489.973 198.367C485.61 180.958 479.942 164.01 471.062 147.347C471.062 122.478 471.062 97.6078 471.062 72.23C450.529 72.23 430.775 72.23 410.731 71.6278C409.063 70.2535 407.43 68.834 405.722 67.5116C349.578 24.0467 286.164 7.18875 216.279 18.7749C148.229 30.0568 94.8089 65.5437 55.2025 122.798C53.1481 126.132 51.0936 129.465 48.6466 133.419C28.5804 167.038 16.6283 203.494 15.4844 242.487C14.1083 289.395 15.1243 336.374 14.9702 384.245C14.9702 415.152 14.9702 446.059 14.9702 476.96C176.033 476.96 336.397 476.96 496.884 476.96C496.884 474.857 496.884 473.045 497.031 470.317C497.02 465.625 497.01 460.932 497.032 455.322C497 451.6 496.969 447.879 497.007 443.238Z" fill="#FFFEFF"/>
<path d="M2.98024e-06 485.747C1.46579 486.239 3.2354 486.939 4.3372 488.216C7.03784 491.344 10.385 492.428 14.3286 492.282C15.16 492.251 15.9935 492.278 16.826 492.278C174.676 492.278 332.526 492.235 490.376 492.399C498.647 492.408 506.121 491.967 511.719 484.991C512 490.939 512 496.601 512 502.241C341.333 502.241 170.667 502.241 0 502.241C0 496.876 -1.97645e-08 491.547 2.98024e-06 485.747Z" fill="black"/>
<path d="M55.6343 122.367C94.8088 65.5436 148.229 30.0568 216.279 18.7749C286.164 7.18873 349.578 24.0467 405.722 67.5116C407.43 68.834 409.063 70.2535 410.406 71.9406C388.502 72.2535 366.923 72.2535 345.368 72.2535C345.368 114.711 345.368 156.278 345.368 197.982C387.32 197.982 428.883 197.982 471.069 197.982C471.069 181.191 471.069 164.739 471.069 148.287C479.941 164.01 485.61 180.958 489.973 198.367C494.998 218.422 497.278 238.806 497.076 259.502C496.884 279.114 497.026 298.729 496.534 318.848C489.359 319.332 482.67 319.311 475.571 319.367C471.381 319.138 471.996 321.841 471.99 324.098C471.941 343.791 471.897 363.485 471.614 383.179C471.063 383.137 470.748 383.124 470.36 382.683C470.269 363.022 470.201 343.816 470.275 324.61C470.287 321.416 469.809 319.306 465.622 319.966C456.88 319.888 448.461 320.058 439.597 320.176C435.337 319.563 435.829 322.255 435.82 324.549C435.749 344.075 435.683 363.602 435.209 383.162C433.16 383.219 431.52 383.242 429.639 382.944C427.951 369.778 426.564 356.927 425.038 344.092C423.083 327.643 421.759 311.073 418.794 294.804C415.669 277.659 409.393 261.351 397.374 248.272C373.698 222.508 342.586 211.8 309.093 205.766C305.667 199.952 302.338 194.468 299.008 188.569C298.771 185.469 298.535 182.784 298.68 180.176C303.34 178.582 307.983 177.499 311.835 175.131C324.64 167.26 328.837 151.013 321.086 139.669C319.085 136.74 319.068 134.738 320.629 131.679C325.527 122.078 324.431 111.886 317.825 105.876C315.415 103.682 314.748 102.007 315.59 98.7186C318.32 88.05 312.195 78.3664 301.447 76.2431C297.026 75.3696 293.062 74.7649 290.184 70.5054C288.943 68.6682 285.646 67.8441 283.125 67.309C268.423 64.1894 253.503 62.0872 238.574 64.4792C226.991 66.335 215.418 68.9909 204.271 72.6158C193.311 76.1801 189.597 83.4624 189.796 95.7578C189.814 96.8854 188.624 98.3694 187.584 99.1235C180.327 104.39 176.491 110.935 178.681 120.231C173.407 120.59 168.598 121.016 163.782 121.097C136.644 121.552 109.504 121.898 82.3655 122.35C77.217 122.435 72.075 122.992 66.9275 123.033C63.1652 123.064 59.3988 122.607 55.6343 122.367ZM438.733 241.56C437.253 242.18 435.772 242.801 432.671 244.102C441.706 245.935 446.284 250.908 448.949 258.385C450.957 250.782 455.423 246.198 463.057 244.209C455.408 241.784 450.578 237.109 449.025 230.548C445.78 234.19 442.603 237.756 438.733 241.56ZM306.365 46.5719C303.334 43.0798 300.303 39.5878 297.123 35.9229C295.472 42.3805 291.109 47.0952 283.756 49.252C291.397 51.5471 295.855 56.228 297.995 63.6497C300.57 56.3085 305.122 51.7628 312.997 49.5151C310.036 48.243 308.52 47.5915 306.365 46.5719ZM152.376 84.5C149.996 81.2644 147.616 78.0287 145 74.4725C143.102 81.458 138.615 86.0345 131.208 88.162C139.092 90.0767 143.187 95.3522 146.031 102.436C148.248 95.1134 152.699 90.482 161.198 88.7911C157.38 86.9978 155.176 85.9627 152.376 84.5Z" fill="#AE85A6"/>
<path d="M15.1045 383.322C15.1242 336.374 14.1082 289.395 15.4843 242.487C16.6282 203.494 28.5803 167.038 48.9685 133.56C49.4904 137.919 49.6902 142.137 49.5988 146.624C49.4774 152.388 49.6471 157.882 49.6112 163.352C49.4056 163.328 48.9958 163.267 48.7131 163.571C48.2388 168.743 48.0474 173.611 47.5782 178.76C46.8962 189.787 46.4918 200.535 46.0563 211.748C45.6803 220.938 45.6561 229.693 44.8636 238.377C44.4274 243.157 46.8151 244.843 50.5482 245.872C51.955 246.259 53.4801 246.218 55.4224 246.401C78.6033 245.759 101.312 245.038 124.023 244.433C143.429 243.917 162.839 243.536 182.094 243.423C180.281 245.612 178.487 247.37 176.983 249.348C161.295 269.995 145.814 290.802 129.923 311.292C123.025 320.187 115.447 328.571 107.93 336.965C99.8336 346.008 91.3754 354.726 83.2287 363.724C80.5356 366.699 79.205 370.043 81.7443 374.156C82.4437 375.289 81.3052 377.557 80.6671 379.452C74.1391 381.193 67.9541 382.787 61.5565 384.245C60.9216 383.825 60.4992 383.539 60.0695 382.902C59.7399 381.722 59.4176 380.892 59.1029 379.861C59.1105 379.66 59.0934 379.258 59.1002 378.86C59.0341 377.406 58.9612 376.35 58.9079 374.887C57.0062 366.07 55.0849 357.66 53.1509 348.836C53.0271 347.048 52.916 345.674 52.7716 344.127C52.4971 344.062 52.2557 344.17 51.7565 344.291C51.3279 344.326 51.1571 344.348 50.7654 344.434C50.2638 344.677 50.11 344.932 49.9428 345.529C49.5056 346.313 49.2086 346.831 48.6453 347.544C48.6043 348.925 48.8297 350.111 49.0231 351.29C48.9911 351.282 49.0069 351.219 49.0141 351.605C49.3183 353.392 49.6153 354.792 49.9384 356.566C50.6486 360.387 51.3326 363.836 51.743 367.435C51.612 368.48 51.7545 369.375 52.1721 370.291C52.6312 370.316 52.8151 370.321 53.0311 370.521C53.0631 370.717 53.0054 371.11 53.0182 371.5C53.2879 373.289 53.5447 374.688 53.8563 376.461C53.9651 378.952 54.0192 381.068 53.6005 383.205C40.4533 383.258 27.7789 383.29 15.1045 383.322ZM92.5054 291.307C90.5047 288.17 88.5041 285.033 86.04 281.169C84.8155 289.307 79.5067 293.292 72.4307 296.06C80.4637 297.706 84.2421 303.307 87.319 310.394C89.2086 302.946 93.8384 298.485 101.809 296.52C98.1573 294.56 95.5991 293.186 92.5054 291.307Z" fill="#AE85A6"/>
<path d="M15.0374 383.783C27.779 383.29 40.4534 383.258 53.8412 383.397C54.789 384.134 55.0234 384.7 55.1475 385.491C54.8676 386.031 54.6076 386.225 53.8956 386.306C52.043 387.327 50.5522 388.34 48.7465 389.326C47.9622 389.633 47.4925 389.969 46.6606 390.283C45.5543 390.96 44.8103 391.659 43.7546 392.325C42.9441 392.602 42.4454 392.914 41.7249 393.333C41.2208 393.641 41.0426 393.91 40.7417 394.345C40.2314 394.637 40.0461 394.902 39.6288 395.426C37.8688 398.84 36.4391 402.063 34.6374 405.328C33.6185 407.824 32.8404 410.252 32.3687 412.738C32.0274 414.537 32.0928 416.413 31.6287 418.304C30.871 419.342 30.4613 420.33 29.7479 421.485C29.6518 422.844 29.8596 424.034 30.0428 425.54C30.3636 426.315 30.7089 426.774 31.0219 427.59C31.6551 428.728 32.3209 429.51 33.0713 430.53C33.4353 430.94 33.7146 431.112 34.0753 431.523C34.4349 431.936 34.7131 432.11 35.0319 432.632C36.0497 433.41 37.0268 433.841 38.1144 434.573C38.8901 435.403 39.5555 435.931 40.0643 436.756C35.3274 442.167 30.747 447.28 25.9548 452.63C27.0268 452.979 27.3182 453.157 27.61 453.158C58.3929 453.218 89.176 453.319 119.958 453.185C121.867 453.177 124.34 451.786 125.583 450.253C138.579 434.24 151.381 418.069 164.226 401.932C165.82 399.929 167.347 397.873 169.902 394.542C153.771 394.542 139.169 394.542 124.824 394.275C131.002 390.38 136.923 386.753 143.325 383.174C153.356 383.237 162.908 383.35 172.455 383.17C174.071 383.14 175.662 381.846 177.525 381.169C178.135 381.215 178.485 381.229 178.9 381.648C180.225 386.158 183.527 383.798 186.024 384.649C189.74 405.504 193.462 425.948 196.955 446.431C198.124 453.285 197.858 453.331 204.815 453.333C208.134 453.334 211.457 453.438 214.77 453.308C219.828 453.11 224.879 452.75 230.256 452.545C233.199 456.265 235.817 459.899 237.976 462.896C240.301 459.931 242.942 456.565 246.076 453.233C294.538 453.289 342.505 453.272 390.473 453.406C394.367 453.417 395.51 451.936 396.096 448.303C397.756 438.018 399.881 427.809 402.258 417.554C408.627 416.013 414.581 414.566 420.486 412.938C424.513 411.827 427.314 409.062 427.858 404.981C428.817 397.78 429.235 390.508 429.879 383.265C431.52 383.242 433.16 383.219 435.317 383.632C435.832 412.955 435.832 441.841 435.832 470.842C447.67 470.842 458.688 470.842 470.084 470.842C470.084 468.596 470.084 466.784 470.084 464.972C470.084 444.671 470.055 424.371 470.1 404.071C470.116 397.093 470.316 390.116 470.432 383.138C470.748 383.124 471.063 383.137 471.664 383.654C471.951 412.977 471.951 441.825 471.951 470.538C473.053 470.913 473.508 471.201 473.964 471.203C481.604 471.234 489.244 471.23 496.884 471.234C496.884 473.045 496.884 474.857 496.884 476.96C336.398 476.96 176.033 476.96 14.9702 476.96C14.9702 446.059 14.9702 415.152 15.0374 383.783Z" fill="#89587F"/>
<path d="M182.247 243.094C162.839 243.536 143.43 243.917 124.023 244.433C101.312 245.038 78.6035 245.759 55.452 245.923C54.3337 226.053 53.6571 206.689 52.9882 186.969C52.7468 185.536 52.4977 184.457 52.1772 182.913C52.0306 177.815 51.9555 173.184 51.9204 168.092C51.7172 164.871 51.4738 162.11 51.1608 158.897C50.6907 154.415 50.2905 150.385 49.8903 146.355C49.6904 142.137 49.4906 137.919 49.165 133.25C51.0937 129.465 53.1482 126.132 55.4185 122.582C59.399 122.607 63.1653 123.064 66.9277 123.033C72.0751 122.992 77.2172 122.435 82.3657 122.35C109.504 121.897 136.644 121.552 163.782 121.097C168.598 121.016 173.407 120.59 178.94 120.431C181.123 122.44 182.585 124.34 184.028 126.674C184.515 129.151 185.02 131.195 185.505 133.571C185.494 134.571 185.504 135.237 185.312 136.362C185.712 145.581 186.283 154.344 186.922 163.101C188.685 187.248 190.477 211.393 192.056 235.807C188.652 238.415 185.45 240.755 182.247 243.094ZM161.302 156.592C161.54 155.887 161.778 155.181 162.85 154.271C165.121 154.227 167.392 154.182 170.473 154.23C171.634 154.169 172.794 154.109 173.955 154.049C173.946 153.838 173.938 153.627 173.929 153.415C172.507 153.415 171.084 153.415 168.841 153.484C164.18 153.352 159.52 153.219 153.941 153.047C148.128 153.047 142.315 153.047 136.502 153.047C136.497 153.404 136.493 153.76 136.489 154.117C138.505 154.353 140.522 154.589 143.173 154.9C143.173 159.129 143.412 163.102 143.028 167.014C142.913 168.185 141.059 169.185 139.091 170.119C135.982 170.119 132.874 170.119 129.494 170.119C129.224 164.669 128.971 159.557 128.718 154.445C127.957 159.633 129.254 165.18 127.542 169.547C126.197 172.978 128.255 171.643 129.486 172.115C129.705 171.979 129.866 171.793 130.872 171.411C133.909 171.316 136.945 171.222 140.627 171.273C141.475 171.427 142.322 171.581 143.067 172.65C143.784 174.985 144.501 177.319 145.259 180.381C144.174 182.271 143.09 184.161 141.084 186.028C134.298 186.028 127.513 186.028 120.727 186.028C120.729 186.571 120.73 187.114 120.732 187.658C123.309 187.658 125.886 187.658 128.715 187.658C128.715 192.711 128.715 197.287 128.715 202.416C125.661 202.416 122.869 202.416 119.242 202.233C116.997 201.731 113.029 203.857 113.945 197.756C113.542 194.418 113.139 191.081 112.735 187.744C111.926 187.922 111.117 188.099 110.308 188.277C111.262 191.747 112.215 195.217 113.272 199.51C112.787 206.103 112.302 212.695 112.035 220.11C112.428 225.3 112.821 230.49 113.238 235.999C107.468 235.999 102.573 235.999 97.3362 235.999C97.3362 230.719 97.3362 225.661 97.3362 220.419C99.4216 220.299 101.382 220.187 104.008 220.036C101.224 219.359 99.0853 218.838 97.0669 217.39C97.0801 213.05 97.0932 208.709 97.9762 204.306C100.422 204.306 102.867 204.306 105.312 204.306C105.318 204.022 105.323 203.739 105.329 203.455C102.446 203.261 99.5638 203.068 96.2075 202.842C96.2075 198.815 96.2075 195.047 96.8338 191.198C97.5562 190.286 98.2786 189.375 99.8377 188.319C101.425 188.217 103.012 188.115 104.599 188.012C104.587 187.72 104.576 187.428 104.564 187.136C98.2079 187.136 91.8512 187.136 85.4946 187.136C85.4912 187.575 85.4877 188.014 85.4843 188.453C88.4829 188.453 91.4814 188.453 94.8512 188.453C94.8512 193.445 94.8512 197.866 94.5021 202.456C94.2813 202.606 94.1202 202.804 93.1233 203.195C90.2416 203.195 87.3599 203.195 84.4782 203.195C84.4774 203.639 84.4765 204.083 84.4757 204.528C87.66 204.528 90.8443 204.528 94.1908 204.828C94.3307 205.016 94.5089 205.154 94.872 206.164C94.8553 210.485 94.8385 214.807 93.9103 219.171C88.6426 219.256 83.375 219.342 77.1789 219.263C73.1274 219.293 69.0759 219.322 65.0156 218.543C64.7416 217.018 64.4676 215.492 64.1936 213.967C63.7716 214.047 63.3496 214.128 62.9276 214.209C63.0633 217.066 63.199 219.923 63.3346 222.781C63.6928 222.796 64.0509 222.811 64.409 222.826C64.6238 222.262 64.8386 221.698 65.9687 221.245C70.2318 221.344 74.4948 221.443 78.8128 222.441C78.8128 227.2 78.8128 231.958 78.8128 237.337C73.7926 237.337 69.2137 237.337 64.6349 237.337C64.652 237.601 64.6691 237.865 64.6862 238.129C69.9516 238.129 75.217 238.129 80.2582 238.129C80.2582 232.305 80.2582 226.723 80.2582 220.742C85.4425 220.742 90.4599 220.742 95.6728 220.742C95.6728 226.427 95.6728 231.806 95.6728 237.161C102.028 237.161 108.469 237.161 115.839 237.331C120.539 237.147 125.24 236.963 130.891 236.793C137.567 236.58 144.242 236.367 151.851 236.34C158.763 236.268 165.674 236.196 173.492 236.218C176.756 235.703 180.02 235.188 183.284 234.673C183.139 234.045 182.993 233.417 182.847 232.789C179.426 233.67 176.005 234.551 171.895 235.54C170.885 234.903 169.875 234.265 168.91 232.893C168.246 231.854 167.582 230.816 166.917 229.778C166.501 230.155 166.086 230.532 165.67 230.91C166.538 231.744 167.406 232.578 167.629 233.996C162.091 234.372 156.553 234.747 150.196 235.107C149.479 234.115 148.452 233.217 148.12 232.11C147.684 230.652 147.794 229.03 147.669 227.478C147.202 227.54 146.734 227.602 146.266 227.664C146.479 229.993 146.692 232.322 146.932 234.936C141.495 234.936 136.456 234.936 131.19 234.936C131.19 229.639 131.19 224.709 131.19 219.231C133.999 219.231 136.634 219.231 139.269 219.231C139.258 218.867 139.246 218.503 139.235 218.138C132.627 218.138 126.02 218.138 119.412 218.138C119.405 218.542 119.397 218.947 119.39 219.351C122.647 219.351 125.904 219.351 129.835 219.351C129.835 224.893 129.835 230.002 128.925 235.162C124.018 235.13 119.111 235.098 114.16 234.163C114.075 228.891 113.989 223.618 114.05 217.414C114.05 213.187 114.05 208.961 114.05 204.811C116.27 204.302 118.129 203.877 120.871 203.472C123.22 203.433 125.569 203.394 128.292 203.644C128.545 203.833 128.794 204.026 129.333 204.835C132.547 204.263 135.761 203.692 139.86 203.267C141.458 203.267 143.057 203.267 145.07 203.267C145.399 209.76 145.705 215.793 146.011 221.825C146.544 221.801 147.077 221.776 147.61 221.751C147.084 213.88 146.558 206.01 146 197.729C146 197.729 146.006 197.318 146.537 196.874C146.287 195.543 146.036 194.213 145.642 192.249C146.504 190.226 147.365 188.202 148.098 186.483C144.184 186.396 146.234 182.416 145.943 178.796C145.571 176.442 145.199 174.088 145.413 171.344C146.581 171.258 147.75 171.173 149.761 171.259C152.163 171.042 154.564 170.825 157.704 170.611C158.688 170.613 159.672 170.615 160.812 171.259C160.885 171.908 160.957 172.558 161.002 173.975C161.734 175.831 162.466 177.688 163.198 179.545C163.51 179.454 163.821 179.364 164.133 179.274C163.752 177.268 163.372 175.261 163.075 172.577C163.145 171.899 163.214 171.221 164.179 170.499C168.401 170.499 172.624 170.499 177.196 170.499C176.954 167.881 176.794 166.157 176.635 164.434C176.346 164.479 176.058 164.524 175.769 164.57C175.769 165.481 175.769 166.393 175.504 167.478C175.31 167.788 175.382 168.041 175.303 168.926C171.066 168.926 166.828 168.926 162.588 168.926C162.199 166.189 161.864 163.828 161.528 161.467C161.177 161.518 160.826 161.568 160.475 161.618C160.662 164.09 160.849 166.561 161.045 169.15C159.367 169.267 158.223 169.346 156.179 169.245C153.737 169.386 151.295 169.526 148.162 169.595C147.045 168.86 145.094 168.258 144.954 167.369C144.3 163.228 144.146 159.009 143.757 154.101C148.346 154.101 152.117 154.101 156.655 154.278C157.438 154.343 158.22 154.407 159.099 155.062C159.709 155.465 160.32 155.869 161.302 156.592ZM167.002 221.28C167.002 221.28 166.988 221.264 167.036 220.452C168.254 219.734 169.396 218.751 170.712 218.368C172.224 217.928 173.891 218.02 175.49 217.881C175.388 217.169 175.286 216.456 175.185 215.744C168.791 216.579 162.397 217.414 156.004 218.25C157.763 219.291 159.519 219.036 161.155 219.37C162.51 219.648 163.723 220.621 165.077 221.912C165.694 222.366 166.31 222.82 167.3 223.594C167.204 222.829 167.109 222.063 167.002 221.28ZM63.1771 158.362C63.1892 159.689 63.2013 161.015 62.4868 162.768C62.3582 166.268 62.2296 169.768 62.0819 174.085C62.44 175.824 62.7981 177.564 62.9234 180.21C62.9906 185.546 63.0578 190.883 62.9531 197.114C62.9531 200.028 62.9531 202.941 62.9531 205.275C67.4516 205.275 71.5202 205.441 75.5602 205.174C76.7675 205.094 77.8947 203.803 79.0732 202.638C79.0732 202.638 79.1362 202.213 79.6803 201.633C79.4111 197.083 79.142 192.534 78.805 187.088C78.805 182.681 78.805 178.275 78.805 173.172C83.6267 173.172 87.6973 173.172 92.7083 173.254C98.5585 172.793 104.409 172.331 110.259 171.87C110.151 171.068 110.044 170.266 109.937 169.465C103.881 170.437 97.8242 171.41 91.0182 172.442C89.1286 172.394 87.238 172.283 85.3494 172.311C81.6526 172.364 78.9328 171.163 78.2579 166.216C78.2579 163.1 78.2579 159.984 78.2579 156.405C83.4474 156.405 88.23 156.405 93.1712 156.756C93.3143 156.978 93.507 157.143 93.8992 158.121C93.8992 160.348 93.8992 162.575 93.8992 164.802C94.215 164.795 94.5308 164.789 94.8465 164.783C94.8465 161.736 94.8465 158.689 94.8465 155.4C88.2478 155.4 81.9774 155.4 76.4132 155.4C76.655 159.733 76.8904 163.95 76.9231 169.003C76.2785 169.757 75.6739 171.118 74.9824 171.164C71.5685 171.389 68.1315 171.266 64.37 171.266C64.1102 168.139 63.8681 165.224 63.8117 161.498C63.8027 160.123 63.7936 158.749 64.4434 157.26C64.7916 156.852 65.1397 156.443 65.4878 156.035C65.112 155.839 64.4372 155.433 64.4053 155.479C63.9386 156.144 63.5575 156.869 63.1771 158.362ZM176.013 159.781C176.139 160.055 176.265 160.328 176.39 160.602C176.268 160.155 176.145 159.708 176.013 158.527C175.773 157.579 175.534 156.63 175.294 155.682C174.823 155.913 174.353 156.143 173.882 156.374C174.58 157.349 175.279 158.324 176.013 159.781ZM177.997 176.89C178.095 177.392 178.193 177.895 178.29 178.398C178.524 178.311 178.758 178.224 178.991 178.138C178.668 177.517 178.344 176.897 178.012 175.541C177.773 174.588 177.535 173.635 177.297 172.683C176.825 172.915 176.352 173.148 175.88 173.38C176.584 174.353 177.287 175.326 177.997 176.89ZM176.775 202.287C181.856 201.205 178.677 207.087 181.891 208.145C181.286 203.476 180.721 199.116 180.294 195.824C178.901 197.547 177.446 199.349 175.077 201.058C171.947 201.058 168.817 201.058 165.739 201.058C165.219 198.968 164.788 197.233 164.356 195.498C163.989 195.575 163.622 195.652 163.255 195.729C163.498 197.413 163.74 199.097 164.015 201.005C160.682 201.202 157.63 201.383 154.578 201.564C154.588 201.751 154.597 201.939 154.607 202.126C161.724 202.126 168.841 202.126 176.775 202.287ZM112.183 155.263C109.759 155.263 107.335 155.263 104.911 155.263C116.221 156.501 109.995 166.207 113.011 171.126C113.011 165.846 113.011 160.567 113.821 155.284C116.39 155.097 118.959 154.909 121.528 154.722C121.382 154.04 121.235 153.358 121.088 152.677C118.389 153.54 115.69 154.403 112.183 155.263ZM165.885 186.472C170.111 186.472 174.337 186.472 178.999 186.472C178.999 185.831 179.044 184.876 178.979 183.929C178.951 183.519 178.698 183.125 178.856 183.546C171.317 187.262 163.041 183.28 155.653 186.559C157.874 186.559 160.096 186.559 162.495 186.559C162.824 188.099 163.099 189.386 163.665 192.037C164.008 189.509 164.162 188.381 164.594 187.12C164.771 187 164.896 186.839 165.885 186.472ZM113.128 133.122C113.652 138.124 116.618 140.644 119.878 138.529C121.289 137.613 122.6 135.423 122.607 133.805C122.613 132.44 120.624 129.898 119.601 129.94C117.504 130.024 115.463 131.491 113.128 133.122ZM64.9994 226.577C64.9994 229.532 64.9994 232.486 64.9994 235.441C65.4259 235.411 65.8525 235.382 66.279 235.352C65.8721 232.187 65.4653 229.021 64.9994 226.577ZM178.057 190.902C178.411 191.498 178.764 192.093 179.118 192.689C179.39 192.175 179.661 191.66 179.933 191.146C179.358 190.844 178.783 190.541 178.057 190.902ZM165.646 214.175C165.767 214.278 165.874 214.413 166.013 214.477C166.143 214.537 166.437 214.549 166.44 214.536C166.673 213.437 166.885 212.333 167.099 211.23C166.831 211.165 166.563 211.1 166.296 211.036C166.022 211.892 165.748 212.748 165.646 214.175ZM181.582 215.726C181.433 216.58 181.284 217.434 181.136 218.288C181.482 218.321 181.829 218.353 182.176 218.386C182.176 217.469 182.176 216.552 181.582 215.726ZM182.106 225.91C182.416 226.22 182.727 226.529 183.038 226.839C183.22 226.472 183.402 226.105 183.584 225.738C183.106 225.615 182.629 225.492 182.106 225.91ZM184.157 230.233C184.413 230.081 184.798 229.979 184.883 229.761C184.949 229.59 184.642 229.275 184.501 229.024C184.359 229.276 184.218 229.527 184.157 230.233ZM183.532 220.033C183.403 220.426 183.253 220.815 183.163 221.217C183.145 221.296 183.36 221.427 183.468 221.534C183.597 221.141 183.725 220.748 183.532 220.033ZM95.5313 166.989C95.3963 167.404 95.2389 167.814 95.1452 168.238C95.1268 168.321 95.3543 168.459 95.4684 168.571C95.6031 168.156 95.7378 167.742 95.5313 166.989ZM133.601 154.751C133.831 154.809 134.06 154.867 134.29 154.925C134.142 154.782 133.994 154.638 133.601 154.751Z" fill="#FFE8D1"/>
<path d="M471.065 147.817C471.069 164.739 471.069 181.191 471.069 197.982C428.883 197.982 387.32 197.982 345.368 197.982C345.368 156.278 345.368 114.711 345.368 72.2535C366.922 72.2535 388.501 72.2535 410.551 72.2417C430.775 72.23 450.528 72.23 471.062 72.23C471.062 97.6077 471.062 122.478 471.065 147.817ZM456.908 89.5032C456.808 85.9063 454.146 86.3846 451.86 86.3836C422.75 86.37 393.64 86.4621 364.532 86.284C359.96 86.2561 358.88 87.9621 358.996 92.1487C359.243 101.124 359.071 110.111 359.071 119.094C359.071 139.054 359.081 159.015 359.06 178.976C359.057 181.771 358.875 184.585 363.944 184.219C393.056 184.226 422.17 184.157 451.282 184.319C455.608 184.343 457.055 183.07 457.029 178.65C456.853 149.206 456.919 119.76 456.908 89.5032Z" fill="#FE9FC6"/>
<path d="M496.958 470.776C489.244 471.23 481.604 471.234 473.964 471.203C473.508 471.201 473.053 470.913 471.951 470.538C471.951 441.825 471.951 412.977 471.901 383.654C471.897 363.485 471.941 343.791 471.991 324.098C471.996 321.841 471.381 319.138 475.676 319.701C478.798 321.386 481.274 323.58 484.047 324.061C488.236 324.789 492.633 324.322 496.941 324.362C496.963 363.987 496.985 403.612 496.642 443.596C491.326 440.752 487.541 440.809 484.293 444.135C481.456 447.04 481.069 451.727 483.393 455.03C485.916 458.617 490.433 459.524 494.842 457.328C495.563 456.969 496.28 456.603 496.999 456.24C497.01 460.932 497.02 465.625 496.958 470.776Z" fill="#5A2250"/>
<path d="M497.016 455.781C496.28 456.603 495.563 456.969 494.842 457.328C490.433 459.524 485.916 458.617 483.393 455.03C481.069 451.727 481.456 447.04 484.293 444.135C487.541 440.809 491.326 440.752 496.607 444.056C496.969 447.879 497.001 451.6 497.016 455.781Z" fill="#FBE3CE"/>
<path d="M496.956 323.938C492.633 324.321 488.236 324.789 484.047 324.061C481.274 323.58 478.798 321.386 476.085 319.624C482.669 319.311 489.358 319.332 496.513 319.316C496.975 320.691 496.973 322.103 496.956 323.938Z" fill="#F2D9C9"/>
<path d="M182.094 243.423C185.45 240.755 188.652 238.415 192.399 235.727C193.56 235.155 194.234 235.026 194.783 234.692C209.35 225.854 225.211 220.533 241.936 217.683C245.726 229.219 249.43 240.386 253.517 252.709C256.726 243.411 259.489 235.402 262.717 226.049C267.864 235.774 272.239 244.04 277.121 253.264C288.178 237.002 298.685 221.55 309.191 206.098C342.586 211.8 373.699 222.508 397.374 248.271C409.393 261.351 415.67 277.659 418.794 294.804C421.759 311.073 423.083 327.643 425.038 344.092C426.564 356.927 427.951 369.778 429.639 382.944C429.235 390.508 428.817 397.78 427.858 404.981C427.315 409.062 424.513 411.827 420.486 412.938C414.581 414.566 408.627 416.013 402.298 417.11C408.229 382.143 414.555 347.604 420.86 313.176C401.979 313.176 383.769 313.176 364.803 313.176C364.803 306.666 364.803 300.538 364.848 293.933C364.892 287.562 364.892 281.666 364.892 275.77C364.152 275.814 363.413 275.858 362.674 275.902C363.093 282.023 363.513 288.143 363.873 294.729C363.815 301.294 363.815 307.392 363.815 314.07C361.22 314.07 359.091 314.049 356.963 314.074C341.479 314.256 325.994 314.379 310.512 314.65C265.744 315.435 220.976 316.28 176.17 316.647C176.131 304.761 176.131 293.33 176.131 281.899C175.511 281.902 174.891 281.905 174.271 281.908C174.271 293.739 174.271 305.569 174.215 317.811C174.534 326.258 174.908 334.293 175.345 343.652C175.952 341.023 176.254 339.714 176.557 338.404C177.007 338.378 177.457 338.353 177.906 338.327C180.584 353.636 183.262 368.945 185.94 384.253C183.527 383.798 180.225 386.157 178.955 381.217C178.322 372.817 177.738 365.248 176.992 357.695C176.935 357.118 175.729 356.653 174.761 356.305C163.925 365.357 153.385 374.241 142.845 383.126C136.923 386.753 131.002 390.38 124.53 394.421C120.91 395.289 117.851 396.015 114.771 396.121C111.845 396.221 108.896 395.674 105.991 395.029C107.732 391.503 106.742 389.09 104.183 386.872C97.5007 381.082 89.7716 378.651 81.0102 379.303C81.3054 377.557 82.4439 375.289 81.7446 374.156C79.2052 370.043 80.5359 366.699 83.2289 363.724C91.3757 354.726 99.8338 346.008 107.93 336.965C115.447 328.571 123.025 320.187 129.923 311.292C145.814 290.802 161.295 269.995 176.983 249.348C178.487 247.37 180.281 245.612 182.094 243.423Z" fill="#FEB05C"/>
<path d="M185.514 135.903C185.504 135.237 185.494 134.571 185.678 133.293C185.928 130.347 188.274 127.363 184.048 126.241C182.586 124.34 181.123 122.44 179.402 120.339C176.491 110.935 180.328 104.39 187.585 99.1235C188.624 98.3694 189.815 96.8854 189.796 95.7577C189.597 83.4623 193.311 76.1801 204.271 72.6158C215.418 68.9909 226.991 66.335 238.574 64.4792C253.503 62.0872 268.423 64.1893 283.125 67.309C285.647 67.844 288.943 68.6681 290.184 70.5054C293.062 74.7649 297.026 75.3695 301.448 76.243C312.195 78.3664 318.32 88.05 315.59 98.7185C314.748 102.007 315.415 103.682 317.826 105.875C324.431 111.886 325.527 122.078 320.629 131.679C319.068 134.738 319.085 136.74 321.086 139.668C328.837 151.013 324.641 167.26 311.835 175.131C307.983 177.499 303.341 178.582 298.649 179.741C298.238 177.271 298.238 175.314 298.238 173.294C300.786 172.93 303.1 172.693 305.376 172.258C315.891 170.25 323.706 161.044 322.805 151.107C322.331 145.868 321.458 140.358 315.038 138.239C314.628 137.789 314.306 137.531 313.823 136.948C306.719 132.834 299.047 134.572 293.919 142.037C291.492 145.57 288.778 145.773 285.456 145.169C280.47 144.263 276.292 141.731 273.986 137.184C272.305 133.87 271.488 130.117 270.342 126.725C264.792 126.17 259.091 125.599 253.196 125.009C250.706 130.089 245.292 132.597 239.184 130.313C237.137 129.548 234.564 126.853 234.521 124.987C234.478 123.088 236.913 120.57 238.895 119.35C240.783 118.187 243.487 118.351 245.615 117.97C244.768 114.589 243.552 111.58 243.386 108.514C243.24 105.807 242.389 104.879 239.85 104.211C231.48 102.009 226.025 96.6094 223.553 88.2641C223.095 86.7187 222.588 85.1876 221.902 83.0074C209.557 94.1519 203.193 107.276 202.927 123.257C206.309 122.294 209.25 121.032 212.292 120.705C215.618 120.348 218.771 121.626 219.656 125.288C220.568 129.063 218.305 131.509 214.904 132.283C211.152 133.138 207.234 133.259 203.019 133.741C203.357 137.363 203.725 141.311 204.011 145.453C203.93 145.647 203.865 146.062 203.469 146.089C195.368 145.896 189.438 142.624 185.514 135.903Z" fill="#5B2351"/>
<path d="M204.093 145.26C203.725 141.311 203.357 137.363 203.019 133.741C207.234 133.259 211.152 133.138 214.904 132.283C218.305 131.509 220.568 129.063 219.656 125.288C218.771 121.626 215.619 120.348 212.292 120.705C209.25 121.032 206.309 122.294 202.927 123.257C203.193 107.276 209.557 94.1519 221.902 83.0074C222.589 85.1876 223.095 86.7187 223.553 88.2642C226.025 96.6094 231.48 102.009 239.85 104.211C242.389 104.879 243.24 105.807 243.386 108.514C243.552 111.58 244.768 114.589 245.615 117.97C243.487 118.351 240.783 118.187 238.895 119.35C236.913 120.57 234.478 123.088 234.522 124.987C234.564 126.853 237.137 129.548 239.184 130.313C245.292 132.597 250.706 130.089 253.196 125.009C259.091 125.599 264.792 126.17 270.342 126.725C271.488 130.117 272.305 133.87 273.986 137.184C276.292 141.731 280.47 144.263 285.456 145.169C288.778 145.773 291.493 145.57 293.92 142.037C299.047 134.572 306.719 132.834 313.493 137.002C311.816 138.275 310.307 139.169 308.487 140.166C306.71 141.873 305.243 143.475 303.505 145.279C302.855 146.35 302.477 147.219 302.099 148.089C302.34 148.207 302.581 148.326 302.822 148.445C303.397 147.553 303.972 146.661 304.817 145.591C306.561 143.864 308.036 142.315 309.865 140.647C311.856 139.83 313.491 139.13 315.127 138.431C321.458 140.358 322.331 145.868 322.806 151.107C323.706 161.044 315.891 170.25 305.376 172.258C303.1 172.693 300.786 172.93 298.239 173.294C298.239 175.314 298.239 177.271 298.269 179.663C298.536 182.784 298.771 185.469 298.673 188.682C297.182 190.137 295.951 190.986 294.883 192.005C285.52 200.937 276.1 209.812 266.899 218.908C264.301 221.477 262.665 221.551 259.984 218.989C255.935 215.119 251.391 211.769 247.073 207.865C247.103 207.312 247.116 207.091 247.527 206.906C254.266 205.235 260.864 204.142 266.874 201.636C272.142 199.439 275.391 194.763 276.053 189.716C265.938 191.363 256.068 192.97 245.724 194.505C241.773 194.379 238.292 194.387 234.817 194.263C220.954 193.768 213.976 189.136 209.705 177.521C208.971 175.525 208.613 173.391 208.476 171.309C218.297 170.674 223.757 161.235 219.786 152.737C216.552 145.817 210.728 144.799 204.093 145.26ZM268.827 144.763C265.365 143.931 261.942 142.722 258.431 142.349C252.128 141.68 248.8 146.017 246.267 150.85C243.383 156.354 244.841 161.725 248.62 166.05C252.114 170.049 257.037 172.14 262.471 170.901C274.433 168.175 278.027 154.601 268.827 144.763ZM241.551 140.124C243.211 140.854 244.846 142.028 246.539 142.12C247.341 142.164 248.784 140.236 249.012 139.027C249.565 136.1 248.458 133.419 245.142 133.431C241.496 133.444 240.68 136.175 241.551 140.124ZM214.194 134.633C209.644 135.184 209.21 138.175 210.81 141.422C211.407 142.633 214.464 143.984 215.33 143.47C218.581 141.54 218.132 138.6 216.04 135.832C215.753 135.452 215.26 135.228 214.194 134.633ZM232.033 163.473C230.444 163.473 228.854 163.473 226.003 163.473C232.539 166.635 236.253 165.085 237.734 159.658C236.061 160.902 234.444 162.104 232.033 163.473ZM298.211 155.076C297.843 156.956 297.475 158.836 297.107 160.715C297.487 160.781 297.868 160.846 298.248 160.912C299.462 157.13 300.675 153.348 301.889 149.567C301.537 149.429 301.186 149.291 300.834 149.154C300.066 150.893 299.299 152.632 298.211 155.076ZM226.587 150.833C226.457 148.122 226.327 145.412 226.184 142.446C223.731 145.633 223.169 148.802 225.564 152.201C225.612 152.27 226.47 151.768 226.587 150.833ZM228.513 153.319C228.81 153.904 229.107 154.49 229.405 155.076C229.761 154.866 230.118 154.656 230.474 154.447C230.051 154.068 229.627 153.69 228.513 153.319ZM224.604 161.373C224.548 160.856 224.493 160.339 224.437 159.822C224.181 159.906 223.699 160.022 223.706 160.068C223.762 160.46 223.907 160.838 224.604 161.373ZM225.581 163.023C225.666 162.849 225.75 162.675 225.834 162.5C225.642 162.538 225.451 162.576 225.581 163.023Z" fill="#FD8C9D"/>
<path d="M470.361 382.683C470.316 390.116 470.116 397.093 470.1 404.071C470.055 424.371 470.084 444.671 470.084 464.972C470.084 466.784 470.084 468.596 470.084 470.842C458.688 470.842 447.671 470.842 435.833 470.842C435.833 441.841 435.833 412.955 435.724 383.598C435.684 363.602 435.749 344.075 435.821 324.549C435.829 322.255 435.337 319.563 439.717 320.515C444.659 324.832 459.486 325.841 464.108 322.454C464.863 321.902 465.34 320.971 465.945 320.214C469.809 319.306 470.288 321.416 470.275 324.61C470.201 343.816 470.269 363.022 470.361 382.683ZM446.137 453.502C448.006 457.146 451.08 459.42 455.012 458.309C457.57 457.586 460.357 455.516 461.724 453.254C463.678 450.021 462.595 446.407 459.693 443.797C456.807 441.202 453.379 440.652 449.995 442.59C446.077 444.834 444.66 448.345 446.137 453.502Z" fill="#5A2250"/>
<path d="M247.057 208.197C251.391 211.769 255.935 215.119 259.984 218.989C262.665 221.551 264.301 221.477 266.899 218.908C276.1 209.812 285.52 200.937 294.883 192.005C295.951 190.986 297.182 190.137 298.674 189.097C302.338 194.468 305.667 199.952 309.094 205.766C298.685 221.55 288.178 237.002 277.121 253.264C272.239 244.04 267.864 235.774 262.717 226.049C259.489 235.402 256.726 243.411 253.517 252.709C249.43 240.386 245.726 229.219 242.093 217.366C243.795 213.853 245.426 211.025 247.057 208.197Z" fill="#FFE7CF"/>
<path d="M439.08 241.441C442.603 237.756 445.78 234.19 449.025 230.548C450.578 237.109 455.408 241.784 463.057 244.209C455.423 246.199 450.957 250.782 448.949 258.385C446.285 250.908 441.706 245.935 432.671 244.102C435.772 242.801 437.253 242.18 439.08 241.441Z" fill="#FCE5D0"/>
<path d="M306.684 46.756C308.52 47.5915 310.036 48.243 312.997 49.5151C305.123 51.7628 300.57 56.3085 297.995 63.6497C295.855 56.228 291.397 51.5471 283.756 49.2519C291.109 47.0952 295.472 42.3805 297.123 35.9229C300.304 39.5877 303.334 43.0798 306.684 46.756Z" fill="#FCE5D0"/>
<path d="M152.674 84.7138C155.176 85.9627 157.38 86.9978 161.199 88.7911C152.699 90.482 148.249 95.1134 146.032 102.436C143.187 95.3522 139.093 90.0767 131.208 88.162C138.616 86.0345 143.103 81.4579 145 74.4725C147.616 78.0287 149.996 81.2643 152.674 84.7138Z" fill="#FCE5D0"/>
<path d="M465.622 319.966C465.34 320.971 464.862 321.902 464.108 322.454C459.485 325.841 444.659 324.832 440.162 320.567C448.461 320.058 456.88 319.888 465.622 319.966Z" fill="#F0D6C7"/>
<path d="M80.6673 379.452C89.7715 378.651 97.5007 381.082 104.183 386.872C106.742 389.09 107.732 391.503 105.829 395.217C103.713 396.988 101.792 398.187 99.5618 399.452C98.1774 400.46 97.1018 401.403 96.0161 402.314C96.006 402.281 96.0653 402.316 95.7109 402.296C94.9154 402.961 94.4742 403.645 94.0156 404.304C93.9981 404.28 94.0479 404.313 93.6862 404.172C92.5591 404.797 91.7937 405.563 91.0134 406.305C90.9985 406.279 91.0465 406.313 90.6931 406.154C88.9028 407.107 87.4658 408.219 86.0135 409.306C85.9981 409.28 86.0472 409.315 85.7142 409.179C83.9476 410.105 82.5141 411.166 80.9553 412.567C79.8606 415.149 79.1831 417.585 77.8542 419.589C75.8057 422.679 73.311 425.473 70.6825 428.359C69.9287 428.288 69.4979 428.25 69.061 427.894C69.0167 427.153 68.9787 426.731 68.9519 426.034C68.9263 425.582 68.8895 425.403 68.8334 424.888C68.524 423.47 68.2339 422.388 67.955 421.033C67.9297 420.582 67.8933 420.403 67.8319 419.87C67.498 418.123 67.1892 416.731 66.9184 414.951C66.9092 413.79 66.8619 413.016 66.871 411.928C66.9138 411.189 66.9002 410.764 66.9049 410.006C66.5676 408.872 66.2119 408.07 65.8757 407.236C65.8952 407.204 65.9153 407.132 66.2565 407.075C68.7978 405.11 68.2812 403.911 65.6907 402.936C65.7152 402.152 65.6678 401.704 65.9173 401.079C67.6192 397.263 64.2283 398.981 63.1087 397.807C62.744 396.721 62.3999 395.968 62.028 395.246C62.0002 395.276 62.062 395.221 62.109 394.836C61.7894 393.039 61.4227 391.627 61.028 390.246C61 390.276 61.0617 390.221 61.1091 389.812C61.0743 388.031 60.9922 386.659 61.0998 385.182C61.5352 384.902 61.695 384.671 61.7692 384.38C67.9543 382.787 74.1393 381.193 80.6673 379.452Z" fill="#FD8C9D"/>
<path d="M52.9804 187.325C53.657 206.689 54.3335 226.053 54.9807 245.895C53.4802 246.218 51.9551 246.259 50.5483 245.872C46.8152 244.843 44.4275 243.157 44.8637 238.377C45.6562 229.693 45.6804 220.939 46.2847 211.746C46.5441 211.278 47.0021 211.277 47.0129 211.74C47.1739 216.527 47.3243 220.852 47.4746 225.176C47.9416 225.137 48.4087 225.098 48.8757 225.058C48.8757 219.432 48.8757 213.806 48.8901 207.717C48.935 192.592 48.9655 177.93 48.9959 163.267C48.9959 163.267 49.4057 163.328 49.6312 163.809C49.9312 168.912 50.0057 173.533 50.0359 178.627C50.3143 183.492 50.6369 187.884 50.9714 192.745C51.0038 203.212 51.0244 213.21 51.0139 223.679C50.9829 229.328 50.9829 234.506 50.9829 239.684C51.6881 239.647 52.3934 239.61 53.0986 239.574C52.7863 234.147 52.4739 228.721 52.1075 222.827C51.9985 212.363 51.9434 202.367 51.9358 191.938C52.0408 190.056 52.0983 188.606 52.3607 187.205C52.5656 187.253 52.9804 187.325 52.9804 187.325Z" fill="#FB9CC3"/>
<path d="M65.6203 401.256C65.6677 401.704 65.715 402.152 65.411 402.989C64.7066 404.011 64.3536 404.645 63.7415 405.291C63.2093 405.56 62.9362 405.815 62.6631 406.071C62.8665 406.256 63.0699 406.441 63.2733 406.625C63.5153 406.176 63.7573 405.726 64.3056 405.31C65.0464 405.94 65.4807 406.536 65.9151 407.132C65.9151 407.132 65.895 407.204 65.6361 407.455C65.2461 408.557 65.115 409.409 64.7272 410.281C64.2015 410.558 63.9324 410.816 63.6633 411.074C63.8658 411.258 64.0682 411.442 64.2707 411.626C64.519 411.181 64.7674 410.737 65.3281 410.293C66.0558 410.309 66.4711 410.324 66.8865 410.339C66.9 410.764 66.9136 411.189 66.6317 412.149C66.2206 413.546 66.1051 414.406 65.7333 415.286C65.2071 415.561 64.9372 415.817 64.6674 416.073C64.8692 416.256 65.0711 416.439 65.2729 416.622C65.5186 416.177 65.7643 415.732 66.2278 415.295C66.4456 415.304 66.8801 415.339 66.8801 415.339C67.189 416.731 67.4978 418.123 67.55 419.886C66.7908 420.612 66.2882 420.968 65.7856 421.324C66.505 421.318 67.2243 421.312 67.9436 421.306C68.2337 422.388 68.5239 423.47 68.5522 424.905C67.7888 425.613 67.2871 425.969 66.7854 426.325C67.5038 426.319 68.2221 426.314 68.9405 426.308C68.9785 426.731 69.0166 427.153 68.9703 428.263C67.294 429.376 65.702 429.802 64.0882 429.961C64.0704 429.517 64.0744 429.339 64.3754 428.961C63.4456 423.268 62.2187 417.776 61.0314 411.892C60.7118 410.093 60.3525 408.687 60.0329 406.889C59.7134 405.091 59.3542 403.686 59.0346 401.882C58.4246 399.436 57.7751 397.389 56.8755 395.317C56.4581 395.281 56.2909 395.269 56.0759 394.929C56.0112 394.16 55.9944 393.719 56.2914 393.235C58.9097 390.805 56.5496 390.768 55.0795 389.93C55.0156 389.161 54.9992 388.72 55.3105 388.232C55.5113 387.211 55.3845 386.238 55.2577 385.266C55.0232 384.7 54.7888 384.134 54.3138 383.376C54.0192 381.068 53.9651 378.952 53.9222 376.093C53.6241 373.936 53.3147 372.523 53.0054 371.111C53.0054 371.111 53.0631 370.717 53.0398 370.168C52.6726 368.83 52.3287 368.042 51.9913 367.263C51.9978 367.272 52.0165 367.284 52.0165 367.284C51.3326 363.836 50.6486 360.387 49.9864 356.188C49.6744 354.032 49.3407 352.625 49.0069 351.219C49.0069 351.219 48.9911 351.283 49.0182 350.893C49.0007 349.453 48.9561 348.401 48.9116 347.349C49.2086 346.831 49.5056 346.313 50.1372 345.43C50.7152 344.886 50.8867 344.654 50.9863 344.369C51.1571 344.348 51.3279 344.326 51.9541 344.297C52.4094 344.288 52.8048 344.3 52.8048 344.3C52.916 345.674 53.0271 347.048 52.8467 348.849C52.3536 349.287 52.152 349.297 51.672 349.505C51.9337 351.737 52.4738 353.77 53.0119 355.787C53.01 355.77 52.9796 355.757 52.956 356.192C53.2921 358.19 53.6518 359.751 54.011 361.292C54.0104 361.271 53.9776 361.245 53.956 361.637C54.2936 363.456 54.6527 364.885 55.0111 366.292C55.0105 366.271 54.9777 366.245 54.9558 366.637C55.2932 368.456 55.6525 369.885 56.0111 371.292C56.0104 371.271 55.9774 371.246 55.955 371.625C56.2932 373.106 56.6538 374.209 57.0124 375.292C57.0104 375.274 56.9757 375.258 56.9612 375.535C57.163 376.068 57.3795 376.325 57.596 376.581C57.6811 376.164 57.7662 375.746 58.1105 375.317C58.5425 375.302 58.7154 375.298 58.8883 375.293C58.9612 376.35 59.0341 377.406 58.842 379.008C58.2574 380.278 57.9379 381.003 57.6183 381.728C57.8733 381.827 58.1282 381.925 58.3832 382.024C58.6206 381.37 58.8579 380.716 59.0953 380.062C59.4176 380.892 59.7399 381.722 60.0382 383.236C60.0045 384.368 59.9946 384.815 59.6986 385.294C59.0899 385.633 58.7675 385.941 58.4451 386.248C58.655 386.435 58.8649 386.622 59.0748 386.809C59.3876 386.303 59.7004 385.797 60.2374 385.285C60.4615 385.279 60.9099 385.288 60.9099 385.288C60.992 386.66 61.0741 388.031 60.8154 389.852C60.1552 390.704 59.8357 391.105 59.5162 391.506C59.7785 391.597 60.2399 391.811 60.2721 391.759C60.5752 391.27 60.8049 390.736 61.0558 390.215C61.4225 391.627 61.7892 393.039 61.8174 394.879C61.1623 395.711 60.8456 396.113 60.5289 396.516C60.7905 396.603 61.2504 396.813 61.2828 396.76C61.5825 396.27 61.8083 395.736 62.0557 395.215C62.3997 395.968 62.7438 396.721 63.0579 398.156C63.0054 399.304 62.9828 399.771 62.7055 400.264C62.1861 400.554 61.9216 400.816 61.657 401.078C61.8595 401.263 62.0619 401.448 62.2644 401.632C62.522 401.193 62.7796 400.754 63.3208 400.332C64.2763 400.652 64.9483 400.954 65.6203 401.256Z" fill="#B8C9E2"/>
<path d="M92.7732 291.56C95.5992 293.186 98.1573 294.56 101.809 296.52C93.8384 298.485 89.2087 302.946 87.319 310.394C84.2421 303.307 80.4637 297.706 72.4307 296.06C79.5067 293.292 84.8155 289.307 86.0401 281.169C88.5041 285.033 90.5047 288.17 92.7732 291.56Z" fill="#FBE4CF"/>
<path d="M52.9794 355.757C52.9794 355.757 53.0098 355.77 53.0315 355.349C52.6856 353.054 52.3179 351.18 51.9502 349.307C52.1518 349.297 52.3534 349.287 52.8592 349.263C55.0847 357.66 57.006 366.07 58.9077 374.887C58.7153 375.297 58.5424 375.302 57.8916 375.304C57.4137 375.302 56.9756 375.258 56.9756 375.258C56.9756 375.258 57.0102 375.274 57.0297 374.915C56.6919 373.453 56.3346 372.349 55.9772 371.246C55.9772 371.246 56.0102 371.271 56.0345 370.896C55.6983 369.095 55.3379 367.67 54.9775 366.245C54.9775 366.245 55.0103 366.271 55.0351 365.895C54.6991 364.095 54.3383 362.67 53.9774 361.245C53.9774 361.245 54.0102 361.271 54.0343 360.877C53.6987 358.908 53.339 357.332 52.9794 355.757Z" fill="#B7C3DC"/>
<path d="M48.7132 163.571C48.9655 177.93 48.935 192.592 48.6707 207.752C48.4368 208.248 47.9924 208.278 47.9942 207.81C47.9494 197.72 47.9027 188.1 47.856 178.479C48.0474 173.611 48.2389 168.743 48.7132 163.571Z" fill="#9D5580"/>
<path d="M47.5784 178.76C47.9027 188.1 47.9494 197.72 47.7377 208.018C47.3202 209.556 47.1612 210.416 47.0022 211.277C47.0022 211.277 46.5442 211.278 46.3159 211.281C46.492 200.535 46.8964 189.787 47.5784 178.76Z" fill="#F79CC2"/>
<path d="M50.0802 178.153C50.0057 173.533 49.9313 168.912 49.837 163.834C49.6473 157.883 49.4775 152.388 49.599 146.624C50.2904 150.385 50.6907 154.415 51.0933 159.333C51.0898 162.867 51.084 165.513 51.0154 168.607C50.6618 172.088 50.371 175.121 50.0802 178.153Z" fill="#A05882"/>
<path d="M49.0142 351.605C49.3407 352.625 49.6745 354.032 49.9603 355.816C49.6153 354.792 49.3183 353.392 49.0142 351.605Z" fill="#80668B"/>
<path d="M53.0186 371.5C53.3151 372.524 53.6244 373.936 53.8679 375.718C53.5451 374.688 53.2882 373.289 53.0186 371.5Z" fill="#80668B"/>
<path d="M48.6455 347.544C48.9563 348.401 49.0009 349.453 49.0503 350.901C48.8299 350.111 48.6045 348.925 48.6455 347.544Z" fill="#80668B"/>
<path d="M59.1028 379.861C58.8578 380.716 58.6204 381.37 58.3831 382.024C58.1281 381.925 57.8731 381.827 57.6182 381.728C57.9377 381.003 58.2573 380.278 58.835 379.405C59.0932 379.258 59.1104 379.66 59.1028 379.861Z" fill="#B7C3DC"/>
<path d="M51.8971 370.269C51.7546 369.375 51.6121 368.48 51.7431 367.435C52.0167 367.284 51.9979 367.272 51.9855 367.641C51.9477 368.762 51.9224 369.516 51.8971 370.269Z" fill="#B8C9E2"/>
<path d="M52.1726 370.291C51.9228 369.516 51.9481 368.762 51.9793 367.632C52.3291 368.042 52.6731 368.83 53.0082 369.971C52.8156 370.321 52.6316 370.317 52.1726 370.291Z" fill="#80668B"/>
<path d="M61.0997 385.182C60.91 385.288 60.4616 385.279 60.2306 385.278C59.9995 385.276 59.9849 385.262 59.9849 385.262C59.9947 384.815 60.0045 384.368 60.0456 383.586C60.4992 383.539 60.9216 383.825 61.5566 384.245C61.6949 384.671 61.535 384.902 61.0997 385.182Z" fill="#C6B0C7"/>
<path d="M50.7658 344.434C50.8871 344.654 50.7156 344.886 50.2779 345.164C50.1104 344.932 50.2642 344.678 50.7658 344.434Z" fill="#B7C3DC"/>
<path d="M52.7717 344.127C52.8048 344.3 52.4094 344.288 52.2119 344.283C52.2558 344.17 52.4971 344.062 52.7717 344.127Z" fill="#B7C3DC"/>
<path d="M186.024 384.649C183.262 368.945 180.584 353.636 177.906 338.327C177.456 338.353 177.007 338.378 176.557 338.404C176.254 339.714 175.952 341.023 175.345 343.652C174.908 334.293 174.533 326.258 174.538 317.767C175.348 317.24 175.778 317.171 176.209 317.102C220.976 316.28 265.744 315.435 310.512 314.65C325.994 314.379 341.479 314.256 356.963 314.074C359.091 314.049 361.22 314.07 363.815 314.07C363.815 307.392 363.815 301.294 364.088 294.784C364.362 294.372 364.803 294.41 364.803 294.41C364.803 300.538 364.803 306.667 364.803 313.176C383.769 313.176 401.979 313.176 420.86 313.176C414.554 347.605 408.229 382.143 401.863 417.126C399.881 427.809 397.756 438.019 396.096 448.303C395.51 451.936 394.367 453.417 390.473 453.406C342.505 453.272 294.538 453.289 246.313 452.941C248.052 451.702 250.046 450.791 253.385 449.265C244.478 447.443 239.722 442.704 238.215 434.628C235.916 438.507 234.638 441.92 232.292 444.265C230.005 446.552 226.626 447.748 223.527 449.539C225.803 450.577 227.867 451.518 229.932 452.459C224.879 452.75 219.828 453.11 214.77 453.308C211.457 453.438 208.134 453.334 204.815 453.333C197.858 453.331 198.124 453.285 196.955 446.431C193.461 425.948 189.74 405.504 186.024 384.649ZM304.973 399.545C305.495 397.794 306.222 396.076 306.503 394.288C307.797 386.049 307.59 377.959 302.727 370.752C299.345 365.741 294.413 365.388 290.601 369.579C283.528 377.355 283.48 396.769 290.515 404.669C294.027 408.613 298.685 408.586 302.066 404.484C303.11 403.216 303.827 401.679 304.973 399.545Z" fill="#5A2250"/>
<path d="M64.0788 429.161C64.0748 429.339 64.0707 429.517 63.8331 430.17C64.2967 433.974 64.639 437.581 68.8695 438.297C69.6557 434.651 70.3307 431.522 71.0057 428.392C73.3112 425.473 75.8059 422.679 77.8544 419.589C79.1833 417.585 79.8608 415.149 81.2757 412.49C83.1633 411.155 84.6053 410.235 86.0474 409.315C86.0474 409.315 85.9984 409.28 86.3568 409.32C88.1591 408.344 89.6029 407.329 91.0467 406.313C91.0467 406.313 90.9987 406.279 91.3374 406.301C92.4667 405.653 93.2574 404.983 94.0481 404.313C94.0481 404.313 93.9983 404.28 94.3651 404.29C95.1764 403.638 95.6209 402.977 96.0655 402.316C96.0655 402.316 96.0062 402.281 96.3399 402.495C97.7393 401.601 98.8051 400.494 99.8709 399.387C101.792 398.188 103.713 396.988 105.796 395.601C108.896 395.674 111.845 396.221 114.771 396.121C117.851 396.015 120.91 395.289 124.273 394.688C139.169 394.542 153.772 394.542 169.902 394.542C167.348 397.873 165.82 399.929 164.226 401.932C151.382 418.069 138.579 434.24 125.583 450.253C124.34 451.786 121.867 453.177 119.958 453.185C89.1762 453.319 58.3931 453.218 27.6102 453.158C27.3185 453.157 27.027 452.979 25.9551 452.63C30.7473 447.28 35.3277 442.167 40.3725 436.745C41.2474 436.42 41.6579 436.403 42.2505 436.641C45.713 436.617 48.9934 436.338 52.5741 436.012C54.2782 434.432 55.6819 432.899 57.3777 431.171C59.0795 429.727 60.4892 428.476 62.1463 427.279C62.5611 427.354 62.7284 427.376 63.0299 427.629C63.469 428.293 63.7739 428.727 64.0788 429.161Z" fill="#FEE6D0"/>
<path d="M143.325 383.174C153.385 374.242 163.924 365.357 174.839 356.728C175.897 365.034 176.581 373.085 177.265 381.137C175.662 381.847 174.071 383.14 172.455 383.17C162.908 383.35 153.356 383.237 143.325 383.174Z" fill="#AE85A4"/>
<path d="M230.256 452.545C227.867 451.518 225.803 450.576 223.527 449.539C226.626 447.748 230.005 446.552 232.292 444.265C234.638 441.92 235.916 438.507 238.215 434.628C239.723 442.704 244.478 447.443 253.385 449.265C250.047 450.791 248.052 451.702 245.82 452.906C242.942 456.565 240.301 459.931 237.976 462.896C235.817 459.899 233.199 456.265 230.256 452.545Z" fill="#FAE2CD"/>
<path d="M177.525 381.169C176.581 373.085 175.898 365.034 175.136 356.56C175.729 356.653 176.935 357.118 176.992 357.695C177.738 365.248 178.322 372.818 178.891 380.813C178.486 381.23 178.135 381.215 177.525 381.169Z" fill="#743C5C"/>
<path d="M31.9766 418.254C32.0925 416.413 32.0271 414.537 32.3684 412.738C32.8401 410.252 33.6182 407.824 34.6909 405.382C35.1167 405.394 35.2243 405.501 35.0784 405.874C34.9617 410.603 34.9908 414.96 34.715 419.271C33.7015 419.007 32.9927 418.788 32.2072 418.49C32.1304 418.411 31.9766 418.254 31.9766 418.254Z" fill="#6E335D"/>
<path d="M35.0635 405.34C36.4394 402.063 37.869 398.84 39.7715 395.55C40.2444 395.483 40.5309 395.728 40.3879 396.058C39.927 398.516 39.609 400.646 39.1853 403.192C39.0344 403.89 38.9893 404.171 38.6183 404.373C37.2699 404.696 36.2474 405.099 35.2248 405.501C35.2248 405.501 35.1173 405.394 35.0635 405.34Z" fill="#6E335D"/>
<path d="M49.0615 389.354C50.5524 388.34 52.0433 387.327 53.8368 386.575C54.036 387.187 53.9326 387.539 53.4846 387.998C51.8166 388.569 50.4933 389.031 49.1427 389.459C49.1155 389.424 49.0615 389.354 49.0615 389.354Z" fill="#6E335D"/>
<path d="M53.8291 387.891C53.9325 387.539 54.0359 387.187 54.1984 386.567C54.6077 386.225 54.8677 386.031 55.1477 385.491C55.3847 386.238 55.5116 387.211 55.0166 388.151C54.2062 388.043 54.0176 387.967 53.8291 387.891Z" fill="#BEBAD2"/>
<path d="M42.068 436.385C41.6574 436.403 41.2469 436.42 40.5285 436.449C39.5552 435.931 38.8899 435.403 38.1659 434.51C38.1073 434.145 38.2107 434.019 38.5457 434.089C39.9431 434.901 41.0055 435.643 42.068 436.385Z" fill="#6E335D"/>
<path d="M44.0664 392.359C44.8104 391.659 45.5544 390.96 46.7048 390.337C47.1112 390.413 47.1994 390.521 47.0124 390.766C45.9266 391.485 45.0279 391.961 44.1135 392.417C44.0978 392.397 44.0664 392.359 44.0664 392.359Z" fill="#6E335D"/>
<path d="M38.0555 434.208C37.0266 433.841 36.0495 433.41 35.0898 432.567C35.1073 432.156 35.2229 432.027 35.5106 432.123C36.6024 432.82 37.4066 433.419 38.2108 434.019C38.2108 434.019 38.1073 434.145 38.0555 434.208Z" fill="#6E335D"/>
<path d="M32.9862 430.292C32.3205 429.51 31.6548 428.728 31.0557 427.562C31.1223 427.177 31.1908 427.121 31.4402 427.295C32.2123 428.329 32.735 429.188 33.1897 430.109C33.1216 430.169 32.9862 430.292 32.9862 430.292Z" fill="#6E335D"/>
<path d="M30.0518 421.317C30.4614 420.33 30.871 419.342 31.6288 418.304C31.9769 418.254 32.1308 418.411 32.0879 418.762C31.4345 419.891 30.824 420.668 30.173 421.414C30.1325 421.382 30.0518 421.317 30.0518 421.317Z" fill="#6E335D"/>
<path d="M30.0673 425.225C29.8595 424.034 29.6517 422.844 29.7478 421.485C30.0516 421.317 30.1324 421.382 30.1415 421.781C30.1676 423.161 30.1847 424.143 30.1682 425.149C30.1347 425.175 30.0673 425.225 30.0673 425.225Z" fill="#6E335D"/>
<path d="M31.0886 427.205C30.7091 426.774 30.3638 426.315 30.043 425.54C30.0675 425.225 30.1349 425.175 30.3843 425.339C30.8196 426.043 31.0054 426.582 31.1913 427.121C31.1913 427.121 31.1228 427.177 31.0886 427.205Z" fill="#6E335D"/>
<path d="M41.9468 393.225C42.4455 392.914 42.9442 392.602 43.7546 392.324C44.0664 392.358 44.0978 392.397 43.9656 392.649C43.3726 393.198 42.9118 393.495 42.3255 393.65C42.2 393.508 41.9468 393.225 41.9468 393.225Z" fill="#6E335D"/>
<path d="M47.0669 390.359C47.4924 389.969 47.9621 389.633 48.7464 389.326C49.0612 389.354 49.1152 389.424 48.9625 389.684C48.2729 390.136 47.736 390.328 47.1992 390.521C47.1992 390.521 47.111 390.413 47.0669 390.359Z" fill="#6E335D"/>
<path d="M33.9935 431.284C33.7142 431.112 33.435 430.94 33.0709 430.529C32.9862 430.292 33.1216 430.169 33.4006 430.222C33.9408 430.477 34.1248 430.734 34.1721 431.106C34.1124 431.165 33.9935 431.284 33.9935 431.284Z" fill="#6E335D"/>
<path d="M35.0491 432.22C34.7128 432.11 34.4346 431.936 34.075 431.524C33.9936 431.284 34.1125 431.165 34.3851 431.216C34.9257 431.46 35.1141 431.714 35.2228 432.027C35.2228 432.027 35.1072 432.156 35.0491 432.22Z" fill="#6E335D"/>
<path d="M40.9688 394.248C41.0429 393.91 41.2211 393.64 41.7252 393.333C41.947 393.225 42.2002 393.508 42.168 393.817C41.9176 394.344 41.6739 394.528 41.296 394.571C41.1872 394.463 40.9688 394.248 40.9688 394.248Z" fill="#6E335D"/>
<path d="M40.1013 395.359C40.0457 394.902 40.231 394.637 40.7413 394.345C40.968 394.248 41.1865 394.463 41.1706 394.762C40.9683 395.304 40.7602 395.526 40.5303 395.728C40.5303 395.728 40.2437 395.483 40.1013 395.359Z" fill="#6E335D"/>
<path d="M247.073 207.865C245.425 211.025 243.794 213.853 242.007 216.998C225.211 220.533 209.349 225.854 194.783 234.692C194.233 235.026 193.56 235.155 192.601 235.458C190.477 211.393 188.685 187.248 186.922 163.101C186.283 154.344 185.712 145.581 185.312 136.362C189.438 142.624 195.368 145.896 203.515 146.537C205.331 155.078 206.706 163.199 208.081 171.321C208.613 173.391 208.971 175.525 209.705 177.521C213.976 189.136 220.954 193.768 234.816 194.263C238.292 194.387 241.772 194.379 245.663 194.918C246.427 199.226 246.778 203.048 247.129 206.869C247.116 207.091 247.103 207.312 247.073 207.865Z" fill="#AF85A6"/>
<path d="M79.1362 202.213C79.1362 202.213 79.0732 202.638 78.5984 202.93C73.8854 203.222 69.6472 203.222 65.4266 203.222C64.94 200.691 64.5146 198.478 64.1124 195.823C64.1355 193.461 64.1355 191.542 64.1355 189.503C66.9058 189.309 69.1297 189.153 71.3536 188.998C71.3549 188.856 71.3561 188.715 71.3573 188.574C68.9781 188.334 66.5988 188.093 64.2391 187.855C64.0671 184.682 63.9247 182.056 63.79 178.989C63.8573 176.788 63.9169 175.028 64.4356 173.171C68.8094 173.074 72.7241 173.074 77.1225 173.074C77.1225 178.71 77.1225 183.334 77.0831 188.411C77.7412 193.314 78.4387 197.763 79.1362 202.213Z" fill="#FCE5CF"/>
<path d="M146.006 197.318C146.006 197.318 146 197.729 145.658 198.112C145.272 203.233 140.975 200.773 138.546 202.162C135.558 202.092 133.017 202.092 130.199 202.092C130.199 197.036 130.199 192.649 130.363 188.178C130.733 187.951 130.883 187.761 131.43 187.449C135.233 187.298 138.585 187.225 142.308 187.261C143.174 189.19 143.669 191.009 144.115 193.245C144.712 194.88 145.359 196.099 146.006 197.318Z" fill="#FDE6D0"/>
<path d="M114.91 237.161C108.469 237.161 102.028 237.161 95.6727 237.161C95.6727 231.806 95.6727 226.427 95.6727 220.742C90.4598 220.742 85.4424 220.742 80.2581 220.742C80.2581 226.723 80.2581 232.305 80.2581 238.129C75.2169 238.129 69.9515 238.129 64.6861 238.129C64.669 237.865 64.6519 237.601 64.6348 237.337C69.2136 237.337 73.7925 237.337 78.8127 237.337C78.8127 231.958 78.8127 227.2 78.8053 221.709C78.5676 220.46 78.3374 219.943 78.1072 219.427C83.3749 219.342 88.6425 219.256 94.6578 219.148C95.9192 218.856 96.433 218.587 96.9468 218.318C99.0852 218.838 101.224 219.359 104.008 220.036C101.382 220.187 99.4215 220.299 97.3361 220.419C97.3361 225.661 97.3361 230.719 97.3361 235.999C102.573 235.999 107.468 235.999 113.238 235.999C112.821 230.49 112.428 225.3 112.199 219.603C112.876 218.846 113.39 218.596 113.903 218.346C113.989 223.618 114.075 228.891 114.16 234.899C114.41 236.144 114.66 236.653 114.91 237.161Z" fill="#652F59"/>
<path d="M77.1224 187.958C77.1224 183.334 77.1224 178.71 77.1224 173.074C72.7241 173.074 68.8094 173.074 64.1229 173.176C62.9345 173.274 62.5178 173.271 62.1011 173.268C62.2296 169.768 62.3582 166.268 62.9522 162.542C63.4177 162.316 63.626 162.309 63.626 162.309C63.8681 165.224 64.1102 168.139 64.37 171.266C68.1315 171.266 71.5685 171.389 74.9824 171.164C75.6739 171.118 76.2785 169.757 77.2555 168.458C77.8178 167.647 78.0477 167.38 78.2775 167.113C78.9328 171.163 81.6526 172.364 85.3494 172.311C87.238 172.283 89.1286 172.394 91.4314 172.609C91.8447 172.777 91.7679 173.172 91.7679 173.172C87.6973 173.172 83.6267 173.172 78.805 173.172C78.805 178.275 78.805 182.681 78.5486 187.59C77.9022 188.047 77.5123 188.003 77.1224 187.958Z" fill="#AB838F"/>
<path d="M113.263 132.755C115.463 131.491 117.504 130.024 119.601 129.94C120.624 129.898 122.613 132.44 122.607 133.806C122.599 135.423 121.289 137.613 119.878 138.529C116.618 140.644 113.652 138.124 113.263 132.755Z" fill="#632D57"/>
<path d="M129.834 235.11C129.834 230.002 129.834 224.893 129.834 219.351C125.904 219.351 122.647 219.351 119.39 219.351C119.397 218.947 119.404 218.542 119.412 218.138C126.019 218.138 132.627 218.138 139.234 218.138C139.246 218.503 139.257 218.867 139.269 219.231C136.634 219.231 133.999 219.231 131.189 219.231C131.189 224.709 131.189 229.639 131.189 234.936C136.456 234.936 141.494 234.936 146.931 234.936C146.692 232.322 146.479 229.993 146.266 227.664C146.734 227.602 147.201 227.54 147.669 227.478C147.794 229.03 147.684 230.652 148.12 232.11C148.451 233.217 149.478 234.115 150.582 235.373C150.951 235.81 150.934 235.982 150.918 236.153C144.242 236.367 137.566 236.58 130.388 236.369C129.869 235.666 129.852 235.388 129.834 235.11Z" fill="#663059"/>
<path d="M130.199 188.261C130.199 192.649 130.199 197.036 130.199 202.092C133.017 202.092 135.558 202.092 138.538 202.384C138.978 202.676 138.974 203.121 138.974 203.121C135.76 203.692 132.547 204.263 129.138 204.248C128.601 203.559 128.26 203.457 127.918 203.355C125.569 203.394 123.22 203.433 120.457 203.203C120.055 202.761 120.065 202.588 120.076 202.416C122.868 202.416 125.661 202.416 128.715 202.416C128.715 197.287 128.715 192.711 128.715 187.658C125.886 187.658 123.308 187.658 120.731 187.658C120.73 187.114 120.728 186.571 120.727 186.028C127.512 186.028 134.298 186.028 141.526 186.315C141.958 186.785 141.947 186.969 141.936 187.152C138.584 187.225 135.233 187.298 131.195 187.42C130.152 187.634 130.049 187.898 130.199 188.261Z" fill="#652F59"/>
<path d="M96.2075 191.278C96.2075 195.047 96.2075 198.815 96.2075 202.842C99.5637 203.068 102.446 203.261 105.329 203.455C105.323 203.739 105.318 204.022 105.312 204.306C102.867 204.306 100.422 204.306 97.1582 204.32C95.8315 204.379 95.3228 204.425 94.6137 204.431C94.4134 204.392 94.0286 204.528 94.0286 204.528C90.8443 204.528 87.6599 204.528 84.4756 204.528C84.4764 204.083 84.4773 203.639 84.4781 203.195C87.3598 203.195 90.2415 203.195 93.8201 203.157C94.6284 202.842 94.7398 202.565 94.8511 202.288C94.8511 197.866 94.8511 193.445 94.8511 188.453C91.4814 188.453 88.4828 188.453 85.4842 188.453C85.4877 188.014 85.4911 187.575 85.4945 187.136C91.8512 187.136 98.2078 187.136 104.564 187.136C104.576 187.428 104.587 187.72 104.599 188.012C103.012 188.115 101.425 188.217 99.0386 188.326C97.5622 189.314 96.8848 190.296 96.2075 191.278Z" fill="#642E58"/>
<path d="M143.17 171.735C142.322 171.581 141.474 171.427 140.308 170.984C139.989 170.695 140.002 170.264 140.002 170.264C141.059 169.185 142.912 168.185 143.027 167.014C143.411 163.102 143.173 159.129 143.173 154.9C140.522 154.589 138.505 154.353 136.488 154.117C136.493 153.76 136.497 153.404 136.501 153.047C142.315 153.047 148.128 153.047 154.588 153.224C155.529 153.562 155.747 153.795 155.889 154.101C152.117 154.101 148.346 154.101 143.757 154.101C144.146 159.009 144.3 163.228 144.954 167.369C145.094 168.258 147.045 168.86 148.508 169.868C148.895 170.455 148.916 170.77 148.918 171.087C147.75 171.173 146.581 171.258 144.846 171.595C143.909 171.81 143.539 171.772 143.17 171.735Z" fill="#734164"/>
<path d="M139.417 203.194C138.975 203.121 138.978 202.676 138.986 202.454C140.975 200.773 145.272 203.233 145.674 198.318C146.558 206.01 147.084 213.88 147.61 221.751C147.077 221.776 146.544 221.801 146.011 221.826C145.705 215.793 145.399 209.76 145.07 203.267C143.057 203.267 141.458 203.267 139.417 203.194Z" fill="#794868"/>
<path d="M119.659 202.324C120.066 202.588 120.055 202.761 120.017 203.192C118.13 203.877 116.27 204.302 114.05 204.811C114.05 208.961 114.05 213.187 113.977 217.88C113.39 218.596 112.876 218.847 112.09 219.193C112.302 212.696 112.787 206.103 113.389 199.06C113.507 198.611 113.843 198.692 113.843 198.692C113.029 203.857 116.997 201.731 119.659 202.324Z" fill="#A07687"/>
<path d="M64.0893 196.266C64.5147 198.478 64.9401 200.691 65.4267 203.222C69.6473 203.222 73.8854 203.222 78.5911 203.145C77.8948 203.803 76.7676 205.094 75.5603 205.174C71.5203 205.441 67.4517 205.275 62.9531 205.275C62.9531 202.941 62.9531 200.028 63.2799 196.683C63.6067 196.252 64.0893 196.266 64.0893 196.266Z" fill="#9C7184"/>
<path d="M164.999 221.285C163.723 220.621 162.51 219.648 161.155 219.37C159.519 219.036 157.763 219.291 156.003 218.25C162.397 217.414 168.791 216.579 175.184 215.744C175.286 216.456 175.388 217.169 175.49 217.881C173.89 218.02 172.224 217.928 170.711 218.368C169.395 218.751 168.254 219.734 166.68 220.865C165.883 221.281 165.441 221.283 164.999 221.285Z" fill="#F8E0CC"/>
<path d="M78.2676 166.665C78.0475 167.38 77.8176 167.647 77.3567 168.041C76.8903 163.95 76.6549 159.733 76.4131 155.4C81.9773 155.4 88.2477 155.4 94.8464 155.4C94.8464 158.689 94.8464 161.736 94.8464 164.783C94.5307 164.789 94.2149 164.795 93.8991 164.802C93.8991 162.575 93.8991 160.348 93.8562 157.44C93.6714 156.357 93.4045 156.24 93.0126 156.405C88.2299 156.405 83.4473 156.405 78.2578 156.405C78.2578 159.984 78.2578 163.1 78.2676 166.665Z" fill="#68325B"/>
<path d="M151.384 236.247C150.934 235.982 150.951 235.81 150.992 235.381C156.553 234.747 162.091 234.372 168.099 233.755C168.569 233.514 168.864 233.628 168.864 233.628C169.874 234.265 170.884 234.903 172.279 235.659C172.663 235.778 172.586 236.124 172.586 236.124C165.674 236.196 158.762 236.268 151.384 236.247Z" fill="#A9818E"/>
<path d="M92.238 173.213C91.7678 173.172 91.8445 172.777 91.8062 172.58C97.8241 171.41 103.88 170.437 109.937 169.465C110.044 170.266 110.151 171.068 110.259 171.87C104.408 172.331 98.5583 172.793 92.238 173.213Z" fill="#F7DFCB"/>
<path d="M164.315 187.253C164.161 188.381 164.008 189.509 163.665 192.037C163.099 189.386 162.824 188.099 162.495 186.559C160.096 186.559 157.874 186.559 155.653 186.559C163.041 183.28 171.317 187.262 178.856 183.546C178.697 183.125 178.951 183.519 178.979 183.929C179.043 184.876 178.999 185.831 178.999 186.472C174.337 186.472 170.111 186.472 165.22 186.505C164.23 186.694 164.15 186.932 164.315 187.253Z" fill="#68325B"/>
<path d="M50.0361 178.627C50.3711 175.121 50.6619 172.088 51.2137 168.71C51.4747 168.365 51.8804 168.553 51.8804 168.553C51.9556 173.184 52.0307 177.815 52.1125 183.285C52.1314 185.134 52.1437 186.146 52.1561 187.157C52.0985 188.606 52.041 190.056 51.7056 191.899C51.4277 192.293 50.9596 192.276 50.9596 192.276C50.6371 187.884 50.3145 183.492 50.0361 178.627Z" fill="#D17CA5"/>
<path d="M175.769 167.305C175.769 166.393 175.769 165.481 175.769 164.57C176.058 164.524 176.346 164.479 176.635 164.434C176.794 166.157 176.954 167.881 177.196 170.499C172.624 170.499 168.401 170.499 163.293 170.49C161.823 170.526 161.239 170.571 160.655 170.616C159.672 170.615 158.688 170.613 157.378 170.315C157.061 169.822 157.069 169.624 157.078 169.426C158.223 169.346 159.368 169.267 161.045 169.15C160.849 166.561 160.662 164.09 160.475 161.618C160.826 161.568 161.177 161.518 161.528 161.467C161.864 163.828 162.199 166.189 162.588 168.926C166.828 168.926 171.066 168.926 175.601 168.353C175.899 167.78 175.769 167.305 175.769 167.305Z" fill="#68325B"/>
<path d="M139.547 170.192C140.002 170.264 139.989 170.695 139.986 170.911C136.945 171.222 133.909 171.317 130.181 171.442C129.096 171.615 128.981 171.879 129.144 172.265C128.255 171.643 126.197 172.978 127.542 169.547C129.254 165.18 127.957 159.633 128.718 154.445C128.971 159.557 129.224 164.669 129.493 170.12C132.874 170.12 135.982 170.12 139.547 170.192Z" fill="#632D57"/>
<path d="M113.01 155.287C113.01 160.567 113.01 165.846 113.01 171.126C109.995 166.207 116.221 156.501 104.911 155.263C107.335 155.263 109.759 155.263 112.591 155.27C113 155.277 113.01 155.287 113.01 155.287Z" fill="#F7DFCB"/>
<path d="M142.308 187.262C141.947 186.969 141.959 186.785 141.988 186.327C143.09 184.161 144.174 182.271 145.396 180.001C145.534 179.62 145.843 179.704 145.843 179.704C146.233 182.416 144.183 186.396 148.098 186.483C147.365 188.202 146.503 190.226 145.444 192.615C144.886 192.93 144.525 192.879 144.164 192.828C143.669 191.009 143.174 189.19 142.308 187.262Z" fill="#9C7184"/>
<path d="M129.379 235.136C129.851 235.388 129.869 235.666 129.913 236.361C125.24 236.963 120.539 237.147 115.374 237.246C114.66 236.653 114.41 236.144 114.182 235.351C119.11 235.098 124.017 235.13 129.379 235.136Z" fill="#A47B8A"/>
<path d="M175.959 202.126C168.841 202.126 161.724 202.126 154.607 202.126C154.597 201.939 154.588 201.751 154.578 201.564C157.63 201.383 160.682 201.203 164.015 201.005C163.74 199.097 163.498 197.413 163.255 195.729C163.622 195.652 163.989 195.575 164.356 195.498C164.788 197.233 165.219 198.968 165.738 201.058C168.817 201.058 171.947 201.058 175.521 201.348C175.965 201.638 175.959 202.126 175.959 202.126Z" fill="#6B365D"/>
<path d="M176.367 202.206C175.959 202.126 175.965 201.638 175.977 201.394C177.446 199.349 178.901 197.547 180.294 195.824C180.721 199.116 181.286 203.476 181.89 208.145C178.677 207.087 181.856 201.205 176.367 202.206Z" fill="#8A5C76"/>
<path d="M94.8139 204.47C95.3226 204.425 95.8314 204.379 96.7231 204.351C97.093 208.709 97.0799 213.05 97.0067 217.854C96.4329 218.587 95.9191 218.856 95.1134 219.127C94.8383 214.807 94.8551 210.485 94.84 205.512C94.8082 204.861 94.8139 204.47 94.8139 204.47Z" fill="#9F7586"/>
<path d="M77.6431 219.345C78.3375 219.943 78.5677 220.46 78.7779 221.259C74.4948 221.443 70.2318 221.344 65.5104 220.893C65.0428 220.144 65.0336 219.748 65.0244 219.352C69.0759 219.322 73.1274 219.293 77.6431 219.345Z" fill="#A07687"/>
<path d="M156.272 154.189C155.747 153.795 155.529 153.562 155.047 153.243C159.52 153.219 164.18 153.352 169.291 153.63C169.743 153.776 169.663 154.138 169.663 154.138C167.392 154.182 165.121 154.227 162.172 154.358C161.324 154.475 161.153 154.505 160.656 154.462C159.888 154.416 159.445 154.444 159.003 154.472C158.22 154.407 157.437 154.343 156.272 154.189Z" fill="#A27888"/>
<path d="M64.1124 195.823C64.0893 196.266 63.6067 196.252 63.3659 196.235C63.0579 190.883 62.9907 185.546 63.1914 179.813C63.4593 179.416 63.7825 179.43 63.7825 179.43C63.9248 182.056 64.0671 184.682 64.2391 187.855C66.5989 188.093 68.9781 188.334 71.3574 188.574C71.3562 188.715 71.3549 188.856 71.3537 188.998C69.1297 189.153 66.9058 189.309 64.1356 189.503C64.1356 191.542 64.1356 193.461 64.1124 195.823Z" fill="#6B365D"/>
<path d="M77.083 188.411C77.5123 188.003 77.9022 188.047 78.5824 188.038C79.1419 192.534 79.4111 197.083 79.4082 201.923C78.4386 197.763 77.7411 193.314 77.083 188.411Z" fill="#FBE3CE"/>
<path d="M113.894 198.224C113.843 198.692 113.506 198.611 113.337 198.649C112.215 195.217 111.261 191.747 110.308 188.277C111.117 188.099 111.926 187.922 112.735 187.744C113.138 191.081 113.541 194.418 113.894 198.224Z" fill="#FBE3CE"/>
<path d="M65.0201 218.948C65.0337 219.748 65.0429 220.144 65.0528 220.837C64.8387 221.698 64.6239 222.262 64.4091 222.826C64.051 222.811 63.6929 222.796 63.3347 222.781C63.1991 219.923 63.0634 217.066 62.9277 214.209C63.3497 214.128 63.7717 214.047 64.1937 213.967C64.4677 215.492 64.7417 217.018 65.0201 218.948Z" fill="#FAE2CD"/>
<path d="M173.039 236.171C172.586 236.124 172.664 235.777 172.624 235.604C176.005 234.551 179.426 233.67 182.847 232.789C182.993 233.417 183.139 234.045 183.284 234.673C180.02 235.188 176.756 235.703 173.039 236.171Z" fill="#FCE5CF"/>
<path d="M112.995 155.272C115.689 154.403 118.388 153.54 121.088 152.677C121.234 153.358 121.381 154.04 121.528 154.722C118.959 154.909 116.39 155.097 113.415 155.286C113.01 155.287 113 155.277 112.995 155.272Z" fill="#F7DFCB"/>
<path d="M156.628 169.336C157.069 169.624 157.061 169.822 157.009 170.314C154.564 170.825 152.163 171.042 149.34 171.173C148.917 170.77 148.895 170.455 148.853 169.904C151.295 169.526 153.737 169.386 156.628 169.336Z" fill="#9F7586"/>
<path d="M145.893 179.25C145.843 179.704 145.534 179.62 145.376 179.637C144.501 177.319 143.784 174.985 143.118 172.192C143.539 171.772 143.909 171.81 144.553 171.79C145.199 174.088 145.57 176.442 145.893 179.25Z" fill="#FBE4CE"/>
<path d="M184.028 126.674C188.274 127.363 185.928 130.347 185.699 132.96C185.02 131.195 184.515 129.151 184.028 126.674Z" fill="#AF85A6"/>
<path d="M162.991 173.254C163.372 175.261 163.752 177.268 164.132 179.274C163.821 179.364 163.509 179.454 163.198 179.545C162.466 177.688 161.734 175.831 161.339 173.658C162.114 173.312 162.553 173.283 162.991 173.254Z" fill="#FAE1CD"/>
<path d="M65.0285 226.216C65.4649 229.021 65.8718 232.187 66.2786 235.352C65.8521 235.382 65.4256 235.411 64.999 235.441C64.999 232.486 64.999 229.532 65.0285 226.216Z" fill="#FAE2CD"/>
<path d="M63.7898 178.989C63.7822 179.43 63.459 179.416 63.3075 179.36C62.7979 177.564 62.4398 175.824 62.0913 173.677C62.5176 173.271 62.9343 173.274 63.6636 173.273C63.9167 175.028 63.8571 176.788 63.7898 178.989Z" fill="#B08993"/>
<path d="M144.114 193.245C144.524 192.879 144.886 192.93 145.516 192.931C146.036 194.213 146.286 195.543 146.271 197.096C145.359 196.099 144.712 194.88 144.114 193.245Z" fill="#FAE1CD"/>
<path d="M51.9202 168.092C51.8802 168.553 51.4745 168.365 51.2762 168.261C51.0838 165.513 51.0897 162.867 51.1629 159.786C51.4737 162.11 51.717 164.871 51.9202 168.092Z" fill="#FEE6D0"/>
<path d="M168.888 233.26C168.865 233.628 168.569 233.514 168.422 233.463C167.406 232.578 166.538 231.744 165.67 230.91C166.086 230.532 166.502 230.155 166.917 229.778C167.582 230.816 168.246 231.854 168.888 233.26Z" fill="#FCE4CF"/>
<path d="M177.991 176.299C177.287 175.326 176.583 174.353 175.88 173.38C176.352 173.148 176.824 172.915 177.297 172.683C177.535 173.635 177.773 174.588 178.005 175.91C177.999 176.279 177.991 176.299 177.991 176.299Z" fill="#FAE1CD"/>
<path d="M175.977 159.3C175.279 158.325 174.58 157.349 173.882 156.374C174.352 156.143 174.823 155.913 175.294 155.682C175.534 156.631 175.773 157.579 176.006 158.903C175.998 159.279 175.977 159.3 175.977 159.3Z" fill="#FAE1CD"/>
<path d="M178.133 190.57C178.783 190.541 179.358 190.844 179.933 191.146C179.661 191.66 179.39 192.175 179.118 192.689C178.764 192.093 178.411 191.498 178.133 190.57Z" fill="#F9E1CD"/>
<path d="M96.5205 191.238C96.8847 190.296 97.5621 189.314 98.6202 188.398C98.2784 189.375 97.556 190.286 96.5205 191.238Z" fill="#FEE7D1"/>
<path d="M63.1562 157.581C63.5577 156.869 63.9388 156.144 64.4055 155.479C64.4373 155.433 65.1122 155.839 65.488 156.035C65.1398 156.443 64.7917 156.852 63.9574 157.366C63.4711 157.473 63.1562 157.581 63.1562 157.581Z" fill="#FDE6CF"/>
<path d="M165.561 213.889C165.748 212.748 166.022 211.892 166.296 211.036C166.563 211.1 166.831 211.165 167.099 211.23C166.885 212.333 166.673 213.437 166.44 214.536C166.437 214.549 166.143 214.537 166.013 214.477C165.874 214.413 165.767 214.278 165.561 213.889Z" fill="#F8E0CC"/>
<path d="M181.879 215.681C182.176 216.552 182.176 217.469 182.176 218.386C181.829 218.353 181.483 218.321 181.136 218.288C181.285 217.434 181.434 216.58 181.879 215.681Z" fill="#F8E0CC"/>
<path d="M163.033 172.915C162.553 173.283 162.115 173.312 161.353 173.274C160.957 172.558 160.885 171.908 160.734 170.938C161.239 170.571 161.823 170.526 162.845 170.512C163.214 171.221 163.145 171.899 163.033 172.915Z" fill="#9F7586"/>
<path d="M170.068 154.184C169.663 154.138 169.743 153.776 169.702 153.596C171.084 153.415 172.506 153.415 173.929 153.415C173.937 153.627 173.946 153.838 173.954 154.049C172.794 154.109 171.633 154.169 170.068 154.184Z" fill="#FAE1CD"/>
<path d="M63.1663 157.971C63.1558 157.581 63.4706 157.473 63.6274 157.424C63.7933 158.749 63.8024 160.123 63.7186 161.904C63.6257 162.309 63.4174 162.316 63.3152 162.329C63.201 161.015 63.1889 159.689 63.1663 157.971Z" fill="#B08993"/>
<path d="M182.128 225.64C182.628 225.492 183.106 225.615 183.583 225.738C183.401 226.105 183.219 226.472 183.037 226.839C182.727 226.53 182.416 226.22 182.128 225.64Z" fill="#FCE5CF"/>
<path d="M165.038 221.599C165.441 221.283 165.883 221.281 166.656 221.271C166.988 221.264 167.002 221.28 166.997 221.618C166.969 222.395 166.948 222.834 166.926 223.273C166.31 222.82 165.693 222.366 165.038 221.599Z" fill="#FFE8D1"/>
<path d="M159.051 154.767C159.445 154.444 159.888 154.416 160.656 154.751C160.964 155.5 160.947 155.886 160.93 156.272C160.32 155.869 159.709 155.465 159.051 154.767Z" fill="#FFE8D1"/>
<path d="M52.3607 187.205C52.1435 186.146 52.1312 185.134 52.1837 183.751C52.4976 184.457 52.7467 185.536 52.9881 186.97C52.9804 187.325 52.5656 187.253 52.3607 187.205Z" fill="#FEE6D0"/>
<path d="M161.116 156.432C160.947 155.886 160.964 155.5 160.982 154.824C161.153 154.505 161.324 154.475 161.756 154.46C161.778 155.181 161.54 155.887 161.116 156.432Z" fill="#FAE1CD"/>
<path d="M178.01 176.278C178.344 176.897 178.667 177.517 178.991 178.138C178.757 178.224 178.524 178.311 178.29 178.398C178.192 177.895 178.095 177.392 177.994 176.594C177.991 176.299 177.999 176.279 178.01 176.278Z" fill="#FEE6D0"/>
<path d="M184.117 230.006C184.218 229.527 184.359 229.276 184.501 229.024C184.642 229.275 184.949 229.59 184.883 229.761C184.798 229.979 184.413 230.081 184.117 230.006Z" fill="#FEE6D0"/>
<path d="M167.113 223.434C166.948 222.834 166.97 222.395 167.003 221.626C167.109 222.063 167.205 222.829 167.113 223.434Z" fill="#F8E0CC"/>
<path d="M183.693 220.194C183.725 220.748 183.597 221.141 183.468 221.534C183.36 221.427 183.145 221.296 183.163 221.217C183.253 220.815 183.403 220.426 183.693 220.194Z" fill="#FEE6D0"/>
<path d="M95.7018 167.158C95.7377 167.742 95.603 168.156 95.4683 168.571C95.3542 168.459 95.1267 168.321 95.1451 168.238C95.2389 167.814 95.3962 167.404 95.7018 167.158Z" fill="#F7DFCB"/>
<path d="M176.01 159.27C176.145 159.708 176.267 160.155 176.39 160.602C176.264 160.329 176.139 160.055 175.995 159.541C175.977 159.3 175.998 159.279 176.01 159.27Z" fill="#FAE1CD"/>
<path d="M133.724 154.623C133.994 154.638 134.142 154.782 134.29 154.925C134.06 154.867 133.831 154.809 133.724 154.623Z" fill="#F8E0CC"/>
<path d="M128.105 203.499C128.26 203.457 128.602 203.559 128.991 203.942C128.794 204.026 128.545 203.833 128.105 203.499Z" fill="#A07687"/>
<path d="M94.6766 202.372C94.7398 202.565 94.6285 202.842 94.268 203.085C94.1202 202.804 94.2813 202.606 94.6766 202.372Z" fill="#FBE3CE"/>
<path d="M117.545 219.835C117.608 219.796 117.481 219.874 117.545 219.835Z" fill="#FBE3CE"/>
<path d="M94.6137 204.431C94.814 204.47 94.8084 204.861 94.7668 205.051C94.5089 205.154 94.3307 205.016 94.1097 204.678C94.0286 204.528 94.4134 204.392 94.6137 204.431Z" fill="#FDE5CF"/>
<path d="M93.0918 156.581C93.4045 156.24 93.6714 156.357 93.7813 157.004C93.5069 157.143 93.3142 156.979 93.0918 156.581Z" fill="#FDE6D0"/>
<path d="M175.637 167.392C175.769 167.305 175.899 167.78 175.809 168.01C175.382 168.041 175.31 167.788 175.637 167.392Z" fill="#FFE8D1"/>
<path d="M124.552 171.744C124.586 171.8 124.518 171.687 124.552 171.744Z" fill="#FEE7D0"/>
<path d="M164.454 187.187C164.15 186.932 164.23 186.694 164.761 186.588C164.895 186.839 164.771 187 164.454 187.187Z" fill="#F9E1CD"/>
<path d="M129.315 172.19C128.98 171.879 129.096 171.615 129.731 171.516C129.866 171.793 129.704 171.979 129.315 172.19Z" fill="#FBE4CE"/>
<path d="M94.4651 184.725C94.5236 184.689 94.4066 184.761 94.4651 184.725Z" fill="#FDE6CF"/>
<path d="M456.906 90.3142C456.919 119.76 456.853 149.206 457.029 178.65C457.055 183.07 455.608 184.343 451.282 184.319C422.17 184.157 393.057 184.225 363.478 183.751C363.013 152.392 363.013 121.5 363.013 90.3142C394.939 90.3142 425.923 90.3142 456.906 90.3142ZM399.524 158.125C400.489 158.999 401.454 159.873 402.488 160.81C409.792 138.286 405.78 113.973 378.146 106.576C377.562 109.659 376.793 112.69 376.441 115.769C375.127 127.25 376.829 138.228 384.762 146.989C388.668 151.303 394.205 154.138 399.524 158.125ZM439.387 145.169C447.713 136.947 446.328 127.149 443.688 117.274C443.49 116.532 440.855 115.59 439.994 116.021C436.008 118.019 431.851 119.999 428.481 122.845C418.112 131.601 412.577 142.735 412.948 157.952C422.207 153.548 430.52 149.594 439.387 145.169Z" fill="#FEE7D0"/>
<path d="M456.907 89.9087C425.923 90.3142 394.94 90.3142 363.013 90.3142C363.013 121.5 363.013 152.392 363.01 183.744C358.875 184.585 359.058 181.771 359.061 178.976C359.082 159.015 359.072 139.054 359.072 119.094C359.072 110.111 359.243 101.124 358.996 92.1486C358.881 87.9621 359.96 86.2561 364.532 86.284C393.641 86.4621 422.751 86.37 451.86 86.3835C454.147 86.3846 456.808 85.9063 456.907 89.9087Z" fill="#B487A8"/>
<path d="M176.17 316.647C175.778 317.171 175.348 317.24 174.594 317.354C174.271 305.569 174.271 293.739 174.271 281.909C174.891 281.905 175.511 281.902 176.131 281.899C176.131 293.33 176.131 304.761 176.17 316.647Z" fill="#935354"/>
<path d="M364.848 293.933C364.804 294.41 364.362 294.372 364.147 294.318C363.513 288.143 363.093 282.023 362.674 275.902C363.413 275.858 364.153 275.814 364.892 275.77C364.892 281.666 364.892 287.561 364.848 293.933Z" fill="#A56255"/>
<path d="M208.476 171.309C206.706 163.199 205.331 155.078 203.911 146.509C203.865 146.062 203.93 145.647 204.011 145.453C210.728 144.799 216.552 145.817 219.786 152.737C223.757 161.235 218.297 170.674 208.476 171.309Z" fill="#E67D92"/>
<path d="M315.038 138.239C313.491 139.13 311.855 139.83 309.688 140.467C309.157 140.405 308.797 140.063 308.797 140.063C310.306 139.169 311.816 138.275 313.655 137.327C314.306 137.531 314.627 137.789 315.038 138.239Z" fill="#803B62"/>
<path d="M269.124 145.003C278.027 154.601 274.433 168.175 262.471 170.901C257.037 172.14 252.114 170.049 248.62 166.05C244.841 161.725 243.383 156.354 246.268 150.85C248.8 146.017 252.128 141.68 258.431 142.349C261.942 142.722 265.365 143.931 269.124 145.003Z" fill="#E67D92"/>
<path d="M247.527 206.906C246.778 203.048 246.427 199.226 246.137 194.991C256.068 192.97 265.938 191.363 276.052 189.716C275.391 194.763 272.142 199.439 266.873 201.636C260.864 204.142 254.266 205.235 247.527 206.906Z" fill="#5F2552"/>
<path d="M241.381 139.757C240.68 136.175 241.495 133.444 245.142 133.431C248.458 133.419 249.564 136.1 249.012 139.027C248.784 140.236 247.34 142.164 246.539 142.12C244.845 142.028 243.21 140.854 241.381 139.757Z" fill="#622754"/>
<path d="M214.528 134.783C215.26 135.228 215.753 135.452 216.04 135.832C218.132 138.6 218.581 141.541 215.33 143.47C214.464 143.984 211.407 142.633 210.81 141.422C209.21 138.175 209.644 135.184 214.528 134.783Z" fill="#672A56"/>
<path d="M232.43 163.389C234.443 162.104 236.061 160.902 237.734 159.658C236.253 165.085 232.538 166.635 226.003 163.473C228.854 163.473 230.443 163.473 232.43 163.389Z" fill="#803B62"/>
<path d="M298.371 154.724C299.298 152.632 300.066 150.893 300.834 149.154C301.185 149.291 301.537 149.429 301.888 149.567C300.675 153.348 299.461 157.13 298.248 160.912C297.867 160.846 297.487 160.781 297.106 160.715C297.475 158.836 297.843 156.956 298.371 154.724Z" fill="#803B62"/>
<path d="M226.769 151.183C226.47 151.768 225.612 152.27 225.564 152.201C223.169 148.802 223.731 145.633 226.184 142.446C226.327 145.412 226.457 148.122 226.769 151.183Z" fill="#863F65"/>
<path d="M303.776 145.078C305.243 143.475 306.709 141.873 308.486 140.167C308.797 140.063 309.157 140.405 309.334 140.586C308.035 142.315 306.56 143.864 304.627 145.415C304.037 145.304 303.907 145.191 303.776 145.078Z" fill="#803B62"/>
<path d="M228.858 153.315C229.627 153.69 230.051 154.068 230.474 154.447C230.118 154.656 229.761 154.866 229.405 155.076C229.107 154.49 228.81 153.904 228.858 153.315Z" fill="#863F65"/>
<path d="M304.357 145.593C303.972 146.661 303.397 147.553 302.822 148.445C302.581 148.326 302.339 148.207 302.098 148.089C302.476 147.219 302.854 146.35 303.504 145.279C303.907 145.191 304.038 145.304 304.357 145.593Z" fill="#803B62"/>
<path d="M224.315 161.297C223.907 160.838 223.762 160.46 223.706 160.068C223.7 160.022 224.182 159.906 224.437 159.823C224.493 160.339 224.548 160.856 224.315 161.297Z" fill="#803B62"/>
<path d="M225.42 162.819C225.45 162.576 225.642 162.538 225.834 162.5C225.749 162.675 225.665 162.849 225.42 162.819Z" fill="#803B62"/>
<path d="M446.034 453.147C444.66 448.345 446.077 444.834 449.995 442.59C453.379 440.652 456.807 441.202 459.693 443.796C462.595 446.407 463.678 450.021 461.724 453.254C460.357 455.516 457.57 457.586 455.012 458.309C451.08 459.42 448.006 457.146 446.034 453.147Z" fill="#FAE2CD"/>
<path d="M70.6822 428.359C70.3302 431.522 69.6552 434.651 68.8689 438.297C64.6385 437.581 64.2962 433.974 63.8545 430.436C65.7019 429.802 67.2939 429.376 68.9763 428.581C69.4976 428.25 69.9284 428.288 70.6822 428.359Z" fill="#C6B0C7"/>
<path d="M66.2567 407.075C65.4811 406.536 65.0468 405.94 64.3063 405.311C64.0003 405.277 64.001 405.278 64.001 405.278C64.354 404.645 64.707 404.011 65.3395 403.325C68.2814 403.911 68.7981 405.11 66.2567 407.075Z" fill="#C6B0C7"/>
<path d="M85.7138 409.179C84.6047 410.235 83.1626 411.155 81.4004 412.151C82.5137 411.166 83.9472 410.105 85.7138 409.179Z" fill="#844A6B"/>
<path d="M65.9173 401.079C64.9485 400.954 64.2765 400.652 63.3018 400.313C62.999 400.276 62.9604 400.237 62.9604 400.237C62.983 399.771 63.0056 399.304 63.0788 398.488C64.2283 398.981 67.6192 397.263 65.9173 401.079Z" fill="#C6B0C7"/>
<path d="M90.6932 406.154C89.6028 407.329 88.159 408.344 86.3721 409.346C87.4659 408.219 88.9029 407.107 90.6932 406.154Z" fill="#844A6B"/>
<path d="M99.5617 399.452C98.8047 400.494 97.7389 401.601 96.3496 402.527C97.1017 401.403 98.1773 400.46 99.5617 399.452Z" fill="#844A6B"/>
<path d="M93.6862 404.172C93.2572 404.983 92.4665 405.653 91.3521 406.326C91.7937 405.563 92.5591 404.797 93.6862 404.172Z" fill="#844A6B"/>
<path d="M64.9839 410.261C65.115 409.409 65.2462 408.557 65.6167 407.487C66.2118 408.07 66.5674 408.872 66.9048 410.006C66.4712 410.324 66.0558 410.309 65.3202 410.285C64.9999 410.277 64.9839 410.261 64.9839 410.261Z" fill="#C6B0C7"/>
<path d="M95.7109 402.296C95.6207 402.977 95.1761 403.638 94.3823 404.314C94.4742 403.645 94.9154 402.961 95.7109 402.296Z" fill="#844A6B"/>
<path d="M67.9548 421.033C67.2243 421.312 66.505 421.318 65.7856 421.324C66.2882 420.968 66.7908 420.613 67.575 420.241C67.8931 420.403 67.9296 420.582 67.9548 421.033Z" fill="#C6B0C7"/>
<path d="M68.952 426.034C68.2223 426.314 67.504 426.319 66.7856 426.325C67.2873 425.969 67.789 425.613 68.5716 425.24C68.8895 425.403 68.9264 425.582 68.952 426.034Z" fill="#C6B0C7"/>
<path d="M65.9897 415.267C66.1052 414.406 66.2207 413.546 66.5754 412.464C66.8618 413.016 66.9091 413.79 66.9183 414.951C66.8802 415.339 66.4457 415.303 66.2228 415.29C66 415.277 65.9897 415.267 65.9897 415.267Z" fill="#C6B0C7"/>
<path d="M47.0127 211.74C47.161 210.416 47.32 209.556 47.7356 208.487C47.9922 208.278 48.4366 208.248 48.6561 208.214C48.8755 213.806 48.8755 219.432 48.8755 225.058C48.4085 225.098 47.9415 225.137 47.4745 225.176C47.3241 220.852 47.1738 216.527 47.0127 211.74Z" fill="#CC78A1"/>
<path d="M52.1615 223.295C52.4739 228.721 52.7863 234.147 53.0987 239.573C52.3934 239.61 51.6882 239.647 50.9829 239.684C50.9829 234.506 50.9829 229.328 51.2911 223.724C51.7867 223.297 51.9741 223.296 52.1615 223.295Z" fill="#E48BB3"/>
<path d="M52.1076 222.827C51.9742 223.296 51.7868 223.297 51.3221 223.253C51.0244 213.209 51.0039 203.211 50.9714 192.745C50.9595 192.276 51.4276 192.293 51.658 192.332C51.9434 202.367 51.9985 212.363 52.1076 222.827Z" fill="#9F5681"/>
<path d="M40.3879 396.058C40.7608 395.526 40.9689 395.304 41.28 394.87C41.6738 394.528 41.9174 394.344 42.2934 393.959C42.9119 393.495 43.3727 393.198 43.9814 392.668C45.028 391.961 45.9267 391.485 47.0125 390.766C47.7363 390.328 48.2732 390.136 48.99 389.719C50.4932 389.032 51.8166 388.569 53.4846 387.998C54.0177 387.967 54.2063 388.043 54.689 388.199C54.9996 388.72 55.016 389.161 55.0455 390.263C55.365 391.709 55.6714 392.493 55.9778 393.278C55.9947 393.719 56.0115 394.16 56.0554 395.232C56.3957 396.34 56.709 396.817 57.0051 397.288C56.9879 397.282 56.9991 397.248 56.9628 397.638C57.2909 399.452 57.6553 400.875 58.0042 402.291C57.9886 402.284 57.9956 402.251 57.9599 402.642C58.2889 404.455 58.6536 405.877 59.0044 407.292C58.9905 407.284 58.9928 407.253 58.9576 407.643C59.2875 409.456 59.6527 410.878 60.0044 412.292C59.991 412.284 59.9923 412.254 59.9569 412.644C60.2863 414.457 60.6511 415.879 61.0037 417.291C60.9915 417.281 60.9913 417.249 60.9554 417.64C61.2841 419.455 61.6487 420.879 62.0034 422.292C61.9935 422.28 61.9882 422.25 61.9504 422.654C61.8841 423.868 61.8557 424.68 61.4455 425.499C59.3705 425.09 57.6773 424.674 55.9914 424.269C55.9988 424.281 56.0269 424.286 55.923 423.953C55.2028 423.501 54.5865 423.381 53.9816 423.274C53.993 423.286 54.022 423.304 54.0822 422.968C53.7535 422.506 53.3645 422.381 52.9846 422.269C52.9937 422.284 53.0223 422.301 53.0727 421.971C52.7416 421.513 52.3601 421.384 51.9865 421.269C51.9944 421.283 52.0221 421.298 52.0615 420.973C51.7272 420.517 51.3535 420.386 50.9873 420.269C50.9947 420.282 51.0223 420.297 51.0517 419.975C50.714 419.52 50.347 419.388 49.9873 419.269C49.9947 419.282 50.0222 419.297 50.0528 418.974C49.7155 418.519 49.3475 418.387 48.987 418.269C48.9946 418.282 49.0222 418.298 49.0551 417.973C48.7184 417.517 48.3487 417.386 47.9868 417.269C47.9945 417.283 48.0221 417.298 48.0591 416.964C47.7224 416.504 47.3486 416.38 46.9833 416.269C46.9918 416.284 47.0175 416.305 47.1561 415.954C46.1901 414.486 45.0856 413.371 43.9874 412.269C43.9937 412.283 44.0183 412.301 44.128 411.941C42.5888 408.646 40.9399 405.71 39.291 402.775C39.609 400.646 39.9269 398.517 40.3879 396.058Z" fill="#FD8C9E"/>
<path d="M64.3756 428.961C63.7737 428.727 63.4688 428.293 63.0659 427.228C62.6413 425.148 62.3147 423.699 61.9881 422.25C61.9881 422.25 61.9934 422.28 62.0157 421.9C61.6891 420.096 61.3402 418.673 60.9912 417.249C60.9912 417.249 60.9913 417.281 61.0155 416.87C61.0333 415.059 61.027 413.659 61.0138 412.264C61.0069 412.271 60.992 412.284 60.992 412.284C62.2189 417.776 63.4457 423.268 64.3756 428.961Z" fill="#897699"/>
<path d="M51.6719 349.505C52.3179 351.18 52.6856 353.054 53.0335 355.365C52.4736 353.77 51.9336 351.737 51.6719 349.505Z" fill="#897699"/>
<path d="M56.2916 393.235C55.6713 392.493 55.3648 391.709 55.0928 390.591C56.5498 390.768 58.9099 390.805 56.2916 393.235Z" fill="#BEBAD2"/>
<path d="M57.1258 395.342C57.7753 397.389 58.4247 399.436 59.0408 401.877C59.0075 402.27 59.0187 402.26 58.763 402.241C58.3367 402.233 58.166 402.242 57.9954 402.251C57.9954 402.251 57.9884 402.284 58.0194 401.9C57.6999 400.092 57.3494 398.67 56.9988 397.248C56.9988 397.248 56.9877 397.282 57.0309 396.962C57.0913 396.209 57.1086 395.775 57.1258 395.342Z" fill="#897699"/>
<path d="M59.001 402.275C59.354 403.686 59.7131 405.091 60.0397 406.883C60.007 407.27 60.0195 407.258 59.7628 407.244C59.3348 407.238 59.1635 407.245 58.9922 407.253C58.9922 407.253 58.9899 407.284 59.0164 406.872C59.0347 405.059 59.0265 403.659 59.0184 402.26C59.0184 402.26 59.0071 402.27 59.001 402.275Z" fill="#897699"/>
<path d="M60.0005 407.275C60.3527 408.687 60.712 410.093 61.0317 411.892C60.9921 412.284 61.0069 412.271 60.7566 412.251C60.335 412.239 60.1636 412.246 59.9922 412.253C59.9922 412.253 59.9909 412.284 60.0165 411.872C60.0348 410.059 60.0274 408.659 60.02 407.258C60.02 407.258 60.0075 407.27 60.0005 407.275Z" fill="#897699"/>
<path d="M52.9561 356.192C53.3393 357.332 53.6989 358.908 54.0351 360.898C53.6519 359.751 53.2922 358.189 52.9561 356.192Z" fill="#897699"/>
<path d="M53.9561 361.637C54.3385 362.67 54.6993 364.095 55.036 365.916C54.6527 364.885 54.2936 363.456 53.9561 361.637Z" fill="#897699"/>
<path d="M54.9561 366.636C55.3384 367.67 55.6988 369.095 56.0356 370.916C55.6528 369.885 55.2935 368.456 54.9561 366.636Z" fill="#897699"/>
<path d="M60.0066 385.284C59.7006 385.797 59.3878 386.303 59.075 386.809C58.8651 386.622 58.6552 386.435 58.4453 386.248C58.7677 385.941 59.0902 385.633 59.6988 385.294C59.985 385.262 59.9997 385.276 60.0066 385.284Z" fill="#C6B0C7"/>
<path d="M55.9551 371.625C56.3348 372.349 56.6922 373.453 57.032 374.934C56.6539 374.209 56.2933 373.106 55.9551 371.625Z" fill="#897699"/>
<path d="M62.0282 395.246C61.8087 395.736 61.5828 396.27 61.2832 396.76C61.2508 396.813 60.7909 396.603 60.5293 396.516C60.846 396.113 61.1627 395.711 61.7708 395.265C62.0622 395.221 62.0004 395.276 62.0282 395.246Z" fill="#C6B0C7"/>
<path d="M61.0283 390.246C60.8054 390.736 60.5756 391.27 60.2726 391.759C60.2404 391.811 59.7789 391.597 59.5166 391.506C59.8361 391.105 60.1556 390.704 60.7685 390.262C61.062 390.221 61.0003 390.276 61.0283 390.246Z" fill="#C6B0C7"/>
<path d="M66.005 415.282C65.7644 415.732 65.5187 416.177 65.273 416.622C65.0712 416.439 64.8693 416.256 64.6675 416.073C64.9373 415.817 65.2072 415.561 65.7334 415.286C65.9897 415.267 66 415.277 66.005 415.282Z" fill="#C6B0C7"/>
<path d="M65.0076 410.285C64.7672 410.737 64.5188 411.181 64.2705 411.626C64.068 411.442 63.8655 411.258 63.6631 411.074C63.9322 410.816 64.2013 410.558 64.727 410.281C64.9836 410.261 64.9997 410.277 65.0076 410.285Z" fill="#C6B0C7"/>
<path d="M63.9996 405.276C63.7573 405.726 63.5153 406.176 63.2734 406.625C63.0699 406.441 62.8665 406.256 62.6631 406.071C62.9362 405.815 63.2093 405.56 63.7415 405.291C64.0006 405.278 63.9996 405.276 63.9996 405.276Z" fill="#C6B0C7"/>
<path d="M63.0182 400.295C62.7798 400.754 62.5222 401.193 62.2646 401.632C62.0621 401.448 61.8597 401.263 61.6572 401.078C61.9218 400.816 62.1863 400.554 62.7056 400.264C62.9604 400.237 62.999 400.276 63.0182 400.295Z" fill="#C6B0C7"/>
<path d="M56.8756 395.317C57.1085 395.776 57.0913 396.209 57.0481 396.968C56.7088 396.817 56.3955 396.34 56.103 395.56C56.291 395.269 56.4582 395.281 56.8756 395.317Z" fill="#BEBAD2"/>
<path d="M56.9609 375.535C56.9755 375.258 57.4136 375.302 57.6324 375.315C57.766 375.746 57.6809 376.164 57.5958 376.581C57.3793 376.325 57.1628 376.068 56.9609 375.535Z" fill="#897699"/>
<path d="M304.834 399.905C303.827 401.679 303.11 403.216 302.066 404.484C298.685 408.586 294.027 408.613 290.515 404.669C283.48 396.769 283.528 377.355 290.6 369.579C294.412 365.388 299.345 365.741 302.727 370.752C307.59 377.959 307.797 386.049 306.503 394.288C306.222 396.076 305.495 397.794 304.834 399.905Z" fill="#FCE5CF"/>
<path d="M35.5107 432.123C35.1143 431.714 34.9259 431.461 34.445 431.156C34.1251 430.734 33.9411 430.477 33.4689 430.162C32.7353 429.188 32.2126 428.329 31.4405 427.295C31.0052 426.582 30.8193 426.043 30.4176 425.314C30.1847 424.143 30.1676 423.161 30.1819 421.813C30.8238 420.668 31.4344 419.891 32.1646 418.841C32.993 418.788 33.7017 419.007 34.6993 419.259C34.9882 419.292 34.9877 419.25 34.993 419.566C35.3423 420.017 35.6862 420.154 36.0101 420.288C35.99 420.285 35.9946 420.245 35.8673 420.56C36.1665 421.352 36.5931 421.829 37.0017 422.299C36.9839 422.293 36.9717 422.257 37.106 422.564C37.8374 423.008 38.4345 423.145 39.0119 423.285C38.9923 423.287 38.9904 423.248 38.9036 423.591C39.8859 424.718 40.955 425.503 42.0069 426.289C41.9895 426.29 41.9817 426.256 42.1 426.566C42.8213 427.011 43.4243 427.145 44.0104 427.282C43.9934 427.285 43.9912 427.251 43.9696 427.556C44.307 428.004 44.666 428.146 45.0075 428.289C44.9899 428.289 44.9843 428.255 45.0838 428.599C46.4662 429.39 47.7492 429.836 49.0122 430.286C48.9923 430.289 48.9811 430.25 49.0126 430.609C49.7072 431.074 50.3704 431.178 51.0166 431.288C50.9996 431.292 50.9813 431.263 50.9555 431.586C51.3776 433.293 51.8255 434.675 52.2735 436.058C48.9931 436.338 45.7127 436.617 42.2502 436.641C41.0057 435.643 39.9432 434.901 38.5458 434.089C37.4067 433.419 36.6025 432.82 35.5107 432.123Z" fill="#F6879A"/>
<path d="M55.9839 424.257C57.6771 424.674 59.3703 425.09 61.4918 425.786C61.9129 426.452 61.9058 426.839 61.8987 427.226C60.489 428.476 59.0793 429.727 57.3114 431.105C56.9532 431.233 56.8204 431.102 56.7799 430.717C56.4875 428.307 56.2357 426.282 55.9839 424.257Z" fill="#813E64"/>
<path d="M52.5737 436.012C51.8254 434.675 51.3775 433.293 51.3829 431.559C53.4975 431.172 55.1589 431.137 56.8203 431.102C56.8203 431.102 56.9531 431.234 57.0192 431.299C55.6815 432.899 54.2778 434.432 52.5737 436.012Z" fill="#813E64"/>
<path d="M62.146 427.279C61.9057 426.839 61.9128 426.452 61.8735 425.778C61.8555 424.679 61.8838 423.868 61.9501 422.653C62.3146 423.699 62.6412 425.148 62.9316 426.998C62.728 427.376 62.5607 427.354 62.146 427.279Z" fill="#BEBAD2"/>
<path d="M56.7799 430.717C55.1591 431.137 53.4977 431.172 51.4088 431.235C50.9814 431.263 50.9997 431.292 50.8672 431.012C50.1502 430.571 49.5657 430.41 48.9812 430.25C48.9812 430.25 48.9924 430.289 48.871 429.968C47.4946 429.183 46.2395 428.719 44.9844 428.255C44.9844 428.255 44.99 428.289 45.0282 427.984C44.708 427.536 44.3497 427.393 43.9913 427.251C43.9913 427.251 43.9935 427.285 43.9118 426.952C43.214 426.498 42.5979 426.377 41.9818 426.256C41.9818 426.256 41.9896 426.29 42.1111 425.949C41.1519 424.822 40.0712 424.035 38.9905 423.247C38.9905 423.247 38.9924 423.287 38.8891 422.965C38.1811 422.514 37.5764 422.386 36.9718 422.257C36.9718 422.257 36.984 422.293 37.1469 421.986C36.8715 421.201 36.4331 420.723 35.9947 420.245C35.9947 420.245 35.9901 420.285 35.965 420.001C35.6226 419.562 35.3052 419.406 34.9878 419.25C34.9878 419.25 34.9883 419.292 35.0042 419.305C34.9911 414.96 34.962 410.603 35.0788 405.874C36.2471 405.099 37.2697 404.696 38.6515 404.714C40.6798 407.524 42.349 409.912 44.0181 412.301C44.0181 412.301 43.9935 412.283 43.9857 412.603C44.991 414.05 46.0042 415.178 47.0174 416.305C47.0174 416.305 46.9916 416.284 47.0336 416.546C47.391 416.972 47.7065 417.135 48.0219 417.298C48.0219 417.298 47.9943 417.283 48.0236 417.552C48.376 417.98 48.699 418.139 49.022 418.298C49.022 418.298 48.9944 418.282 49.0225 418.553C49.3744 418.981 49.6982 419.139 50.0221 419.297C50.0221 419.297 49.9945 419.282 50.0208 419.553C50.3721 419.982 50.6971 420.14 51.0221 420.297C51.0221 420.297 50.9946 420.282 51.021 420.552C51.3723 420.981 51.6971 421.14 52.022 421.298C52.022 421.298 51.9942 421.283 52.0301 421.547C52.3847 421.974 52.7034 422.137 53.0221 422.301C53.0221 422.301 52.9935 422.283 53.0432 422.538C53.4026 422.963 53.7122 423.133 54.0219 423.304C54.0219 423.304 53.9928 423.286 54.11 423.581C54.8271 424.012 55.4269 424.149 56.0268 424.286C56.0268 424.286 55.9986 424.281 55.9913 424.269C56.2357 426.282 56.4875 428.307 56.7799 430.717Z" fill="#FB8B9C"/>
<path d="M44.1281 411.941C42.3492 409.912 40.6801 407.524 38.9775 404.794C38.9893 404.171 39.0344 403.89 39.1853 403.192C40.94 405.71 42.5889 408.646 44.1281 411.941Z" fill="#813E64"/>
<path d="M130.363 188.178C130.049 187.898 130.152 187.634 130.744 187.498C130.884 187.761 130.733 187.951 130.363 188.178Z" fill="#FAE1CD"/>
<path d="M399.265 157.884C394.206 154.138 388.668 151.303 384.763 146.989C376.83 138.228 375.127 127.25 376.441 115.769C376.794 112.69 377.563 109.659 378.146 106.576C405.781 113.973 409.793 138.286 402.488 160.81C401.454 159.873 400.489 158.999 399.265 157.884Z" fill="#81B392"/>
<path d="M439.111 145.404C430.521 149.594 422.207 153.548 412.948 157.952C412.578 142.735 418.113 131.601 428.482 122.845C431.852 119.999 436.008 118.019 439.995 116.021C440.855 115.59 443.49 116.532 443.689 117.274C446.329 127.149 447.713 136.947 439.111 145.404Z" fill="#80B392"/>
<path d="M47.156 415.954C46.0043 415.178 44.9912 414.05 43.9795 412.589C45.0855 413.37 46.1901 414.486 47.156 415.954Z" fill="#813E64"/>
<path d="M56.9629 397.638C57.3497 398.67 57.7002 400.092 58.0353 401.906C57.6555 400.875 57.291 399.452 56.9629 397.638Z" fill="#BEBAD2"/>
<path d="M59.957 412.644C60.1638 412.246 60.3352 412.239 60.7638 412.245C61.0273 413.658 61.0336 415.059 61.028 416.881C60.6513 415.879 60.2864 414.457 59.957 412.644Z" fill="#BEBAD2"/>
<path d="M58.7633 402.242C59.0272 403.66 59.0353 405.059 59.0309 406.88C58.6537 405.877 58.289 404.455 57.96 402.642C58.1663 402.242 58.337 402.233 58.7633 402.242Z" fill="#BEBAD2"/>
<path d="M60.9551 417.64C61.34 418.673 61.689 420.096 62.0255 421.912C61.6484 420.879 61.2838 419.455 60.9551 417.64Z" fill="#BEBAD2"/>
<path d="M59.7628 407.244C60.027 408.659 60.0344 410.059 60.0295 411.879C59.6521 410.878 59.287 409.456 58.957 407.643C59.1635 407.245 59.3348 407.238 59.7628 407.244Z" fill="#BEBAD2"/>
<path d="M55.9228 423.953C55.4269 424.149 54.8271 424.012 54.0986 423.568C54.5863 423.381 55.2026 423.501 55.9228 423.953Z" fill="#813E64"/>
<path d="M49.0546 417.973C48.6987 418.139 48.3757 417.98 48.0156 417.538C48.3482 417.386 48.7179 417.517 49.0546 417.973Z" fill="#813E64"/>
<path d="M48.0592 416.964C47.7067 417.135 47.3913 416.972 47.0254 416.532C47.3487 416.379 47.7225 416.504 48.0592 416.964Z" fill="#813E64"/>
<path d="M50.0524 418.974C49.6979 419.139 49.3741 418.981 49.0146 418.539C49.347 418.387 49.715 418.519 50.0524 418.974Z" fill="#813E64"/>
<path d="M51.0518 419.975C50.6974 420.14 50.3724 419.982 50.0137 419.54C50.347 419.387 50.7141 419.52 51.0518 419.975Z" fill="#813E64"/>
<path d="M52.0614 420.973C51.6972 421.14 51.3724 420.981 51.0137 420.539C51.3534 420.386 51.7271 420.517 52.0614 420.973Z" fill="#813E64"/>
<path d="M53.0727 421.971C52.7036 422.137 52.3849 421.974 52.0225 421.533C52.3602 421.384 52.7416 421.513 53.0727 421.971Z" fill="#813E64"/>
<path d="M54.082 422.968C53.7122 423.133 53.4026 422.963 53.0342 422.524C53.3643 422.381 53.7533 422.506 54.082 422.968Z" fill="#813E64"/>
<path d="M38.9033 423.59C40.0709 424.035 41.1516 424.822 42.1282 425.949C40.9548 425.503 39.8856 424.718 38.9033 423.59Z" fill="#813E64"/>
<path d="M45.084 428.599C46.2396 428.719 47.4947 429.183 48.8911 429.965C47.7494 429.836 46.4664 429.39 45.084 428.599Z" fill="#813E64"/>
<path d="M42.1001 426.566C42.5979 426.377 43.214 426.498 43.9288 426.949C43.4244 427.145 42.8214 427.011 42.1001 426.566Z" fill="#813E64"/>
<path d="M37.106 422.564C37.5763 422.386 38.181 422.514 38.9086 422.962C38.4344 423.145 37.8374 423.008 37.106 422.564Z" fill="#813E64"/>
<path d="M35.8672 420.56C36.4329 420.723 36.8713 421.201 37.1646 421.992C36.593 421.828 36.1664 421.352 35.8672 420.56Z" fill="#813E64"/>
<path d="M49.0127 430.609C49.5658 430.41 50.1503 430.571 50.8843 431.007C50.3706 431.178 49.7073 431.073 49.0127 430.609Z" fill="#813E64"/>
<path d="M43.9697 427.556C44.3498 427.393 44.7081 427.536 45.0459 427.983C44.6662 428.146 44.3071 428.004 43.9697 427.556Z" fill="#813E64"/>
<path d="M34.9932 419.565C35.3052 419.406 35.6226 419.562 35.9852 420.004C35.6864 420.154 35.3424 420.017 34.9932 419.565Z" fill="#813E64"/>
</svg>
